<svg xmlns="http://www.w3.org/2000/svg" width="128" height="40" viewBox="0 0 128 40"><defs><style>.a{fill:#555}.b{fill:#fff}</style></defs><path class="a" d="M124 40H4a4.012 4.012 0 0 1-4-4V4a4.012 4.012 0 0 1 4-4h120a4.012 4.012 0 0 1 4 4v32a4.012 4.012 0 0 1-4 4z"/><path class="b" d="M42.034 12.952a2.492 2.492 0 0 1-1.669-.584 2.688 2.688 0 0 1-.855-1.627h.782a1.936 1.936 0 0 0 .615 1.106 1.745 1.745 0 0 0 1.168.407 1.769 1.769 0 0 0 1.179-.386 1.292 1.292 0 0 0 .459-1.043q0-1.387-1.512-1.387h-.939v-.689h.97a1.378 1.378 0 0 0 1-.344 1.331 1.331 0 0 0 .365-1 1.2 1.2 0 0 0-.407-.97 1.657 1.657 0 0 0-1.106-.344 1.68 1.68 0 0 0-1.158.417 2.017 2.017 0 0 0-.615 1.106h-.793a2.626 2.626 0 0 1 .866-1.627 2.552 2.552 0 0 1 1.71-.584 2.452 2.452 0 0 1 1.648.542 1.755 1.755 0 0 1 .647 1.429 1.718 1.718 0 0 1-1.074 1.69 1.725 1.725 0 0 1 1.189 1.783 1.9 1.9 0 0 1-.7 1.533 2.7 2.7 0 0 1-1.77.572zm8.075-.063h-.751v-.49a1.8 1.8 0 0 1-.636.428 2.433 2.433 0 0 1-.845.125 2 2 0 0 1-1.45-.469 1.388 1.388 0 0 1-.386-1.043 1.359 1.359 0 0 1 .459-1.085 2 2 0 0 1 1.325-.4h1.533v-.49a1.06 1.06 0 0 0-.313-.845 1.448 1.448 0 0 0-1-.282 1.851 1.851 0 0 0-.772.136 1.447 1.447 0 0 0-.521.459l-.513-.466a1.727 1.727 0 0 1 .741-.6 2.928 2.928 0 0 1 1.074-.168q2.055 0 2.055 1.71zm-.751-1.815v-.553h-1.429q-1.158 0-1.158.907 0 .876 1.189.876a1.635 1.635 0 0 0 1.137-.344 1.205 1.205 0 0 0 .261-.885zm6.773.4a1.369 1.369 0 0 1-.407 1.043 1.6 1.6 0 0 1-1.126.375h-2.441V7.758h2.382a1.575 1.575 0 0 1 1.1.375 1.225 1.225 0 0 1 .417.97 1.11 1.11 0 0 1-.814 1.126 1.236 1.236 0 0 1 .888 1.242zm-.824-2.3q0-.761-.907-.761h-1.5v1.533h1.5q.907-.008.907-.78zm-.168 2.839a.882.882 0 0 0 0-1.231.942.942 0 0 0-.678-.229h-1.564v1.69h1.564a.942.942 0 0 0 .678-.23zm6.5.876h-.751v-.49a1.8 1.8 0 0 1-.636.428 2.433 2.433 0 0 1-.845.125 2 2 0 0 1-1.45-.469 1.388 1.388 0 0 1-.386-1.043 1.359 1.359 0 0 1 .459-1.085 2 2 0 0 1 1.325-.4h1.533v-.49a1.06 1.06 0 0 0-.313-.845 1.448 1.448 0 0 0-1-.282 1.851 1.851 0 0 0-.772.136 1.447 1.447 0 0 0-.521.459l-.511-.469a1.727 1.727 0 0 1 .741-.6 2.928 2.928 0 0 1 1.071-.165q2.055 0 2.055 1.71zm-.751-1.815v-.553h-1.43q-1.158 0-1.158.907 0 .876 1.189.876a1.635 1.635 0 0 0 1.137-.344 1.205 1.205 0 0 0 .261-.885zm6.761 1.815h-.751v-2.325h-2.482v2.325h-.741V7.758h.741v2.159h2.482V7.758h.751zm5.4-4.485h-1.68v4.485h-.751V8.405h-1.762v-.647h4.193zm4.86 4.485h-.751v-.49a1.8 1.8 0 0 1-.636.428 2.433 2.433 0 0 1-.845.125 2 2 0 0 1-1.45-.469 1.388 1.388 0 0 1-.388-1.043 1.359 1.359 0 0 1 .459-1.085 2 2 0 0 1 1.325-.4h1.533v-.49a1.06 1.06 0 0 0-.313-.845 1.448 1.448 0 0 0-1-.282 1.851 1.851 0 0 0-.772.136 1.447 1.447 0 0 0-.521.459l-.511-.466a1.727 1.727 0 0 1 .741-.6 2.928 2.928 0 0 1 1.073-.168q2.055 0 2.055 1.71zm-.751-1.815v-.553h-1.43q-1.158 0-1.158.907 0 .876 1.189.876a1.635 1.635 0 0 0 1.137-.344 1.205 1.205 0 0 0 .261-.885zm9.265 1.815h-.949l-2.347-2.66 2.18-2.472h.907l-2.2 2.42zm-3.306 0h-.741V7.758h.741zm-3.1 0h-.949l2.409-2.712-2.2-2.42h.918l2.169 2.472zm11.222-5.131l-2.336 6.372a1.344 1.344 0 0 1-1.366.96h-.323v-.667h.225a.894.894 0 0 0 .535-.124 1.039 1.039 0 0 0 .313-.511l.365-1-1.846-5.03h.814l1.408 4.12 1.4-4.12zm4.863-2.211q-.084 1.314-1.523 1.314t-1.523-1.314h.667a.859.859 0 0 0 1.711 0zm.542 7.342h-.751V8.916l-2.638 3.973h-.741V7.758h.741v3.953l2.639-3.953h.751zm5.405-4.485h-1.679v4.485h-.751V8.405h-1.763v-.647h4.193zm5.182 2.117h-3.462a1.99 1.99 0 0 0 .386 1.314 1.388 1.388 0 0 0 1.126.459 1.732 1.732 0 0 0 .73-.136 2.115 2.115 0 0 0 .615-.448l.511.448a2.87 2.87 0 0 1-.834.6 2.543 2.543 0 0 1-1.043.188 2.14 2.14 0 0 1-1.658-.647 2.906 2.906 0 0 1-.584-1.982 2.968 2.968 0 0 1 .563-1.929 2.086 2.086 0 0 1 3.087-.031 2.717 2.717 0 0 1 .563 1.825zm-.741-.563a2.532 2.532 0 0 0-.167-.855 1.318 1.318 0 0 0-2.4 0 2.491 2.491 0 0 0-.156.855zm8.743 1.481a1.291 1.291 0 0 1-.574 1.1 2.27 2.27 0 0 1-1.366.407 2.938 2.938 0 0 1-2.055-.73l.469-.49a2.34 2.34 0 0 0 .678.448 2.418 2.418 0 0 0 .824.125 1.7 1.7 0 0 0 .9-.24.775.775 0 0 0 .1-1.283 1.207 1.207 0 0 0-.761-.219h-.751v-.626h.761a1.034 1.034 0 0 0 .688-.219.734.734 0 0 0 .271-.6.648.648 0 0 0-.313-.584 1.531 1.531 0 0 0-.845-.2 2.358 2.358 0 0 0-1.377.428l-.428-.5a3.113 3.113 0 0 1 1.885-.557 2.143 2.143 0 0 1 1.3.375 1.173 1.173 0 0 1 .511 1.012 1.19 1.19 0 0 1-.219.7 1.142 1.142 0 0 1-.594.448 1.23 1.23 0 0 1 .647.448 1.208 1.208 0 0 1 .25.758zM27 19.8a5.8 5.8 0 0 1 2.7-4.7 6.231 6.231 0 0 0-4.5-2.5c-1.9-.2-3.8 1.1-4.7 1.1-1 0-2.5-1.1-4.1-1.1a5.941 5.941 0 0 0-5.1 3.1c-2.2 3.8-.6 9.4 1.5 12.5 1.1 1.5 2.3 3.2 3.9 3.1s2.2-1 4.1-1 2.4 1 4.1 1 2.8-1.5 3.8-3a11.464 11.464 0 0 0 1.7-3.5 5.529 5.529 0 0 1-3.4-5zM23.9 10.6a6.2 6.2 0 0 0 1.3-4 5.355 5.355 0 0 0-3.6 1.9 5.057 5.057 0 0 0-1.3 3.8 4.75 4.75 0 0 0 3.6-1.7zM49.8 31.099h-2.2l-1.2-3.8h-4.2l-1.1 3.8H39l4.2-12.9h2.6zm-3.8-5.4l-1.1-3.4c-.1-.3-.3-1.2-.7-2.4-.1.5-.3 1.4-.6 2.4l-1.1 3.4zM60.5 26.4a5.325 5.325 0 0 1-1.3 3.8 3.847 3.847 0 0 1-2.9 1.2 2.722 2.722 0 0 1-2.6-1.3V35h-2.1V25c0-1 0-2-.1-3.1h1.8l.1 1.5a3.446 3.446 0 0 1 3.1-1.7 3.225 3.225 0 0 1 2.7 1.3 4.237 4.237 0 0 1 1.3 3.4zm-2.1 0a3.592 3.592 0 0 0-.6-2.2 2.019 2.019 0 0 0-1.8-.9 2.39 2.39 0 0 0-1.4.5 2.224 2.224 0 0 0-.8 1.3 1.759 1.759 0 0 0-.1.6v1.6a2.524 2.524 0 0 0 .6 1.7 1.99 1.99 0 0 0 1.6.7 2.019 2.019 0 0 0 1.8-.9 3.612 3.612 0 0 0 .7-2.4zM71.198 26.4a5.324 5.324 0 0 1-1.3 3.8 3.846 3.846 0 0 1-2.9 1.2 2.722 2.722 0 0 1-2.6-1.3V35h-2.1V25c0-1 0-2-.1-3.1h1.8l.1 1.5a3.445 3.445 0 0 1 3.1-1.7 3.225 3.225 0 0 1 2.7 1.3 4.237 4.237 0 0 1 1.3 3.4zm-2.1 0a3.592 3.592 0 0 0-.6-2.2 2.019 2.019 0 0 0-1.8-.9 2.389 2.389 0 0 0-1.4.5 2.223 2.223 0 0 0-.8 1.3 1.76 1.76 0 0 0-.1.6v1.6a2.523 2.523 0 0 0 .6 1.7 1.99 1.99 0 0 0 1.6.7 2.019 2.019 0 0 0 1.8-.9 3.612 3.612 0 0 0 .7-2.4zM83.2 27.504a3.693 3.693 0 0 1-1.1 2.7 4.761 4.761 0 0 1-3.5 1.1 6.182 6.182 0 0 1-3.3-.8l.5-1.7a6.109 6.109 0 0 0 3 .8 2.969 2.969 0 0 0 1.8-.5 1.816 1.816 0 0 0 .6-1.4 1.9 1.9 0 0 0-.5-1.3 5.011 5.011 0 0 0-1.8-1c-2.3-.8-3.4-2.1-3.4-3.7a3.225 3.225 0 0 1 1.2-2.6 4.555 4.555 0 0 1 3.2-1 6.235 6.235 0 0 1 2.9.6l-.5 1.7a4.871 4.871 0 0 0-2.5-.6 2.86 2.86 0 0 0-1.7.5 1.656 1.656 0 0 0-.5 1.2 1.76 1.76 0 0 0 .6 1.3 7.76 7.76 0 0 0 1.9 1 6.747 6.747 0 0 1 2.5 1.6 4.025 4.025 0 0 1 .6 2.1zM90 23.401h-2.3v4.5c0 1.1.4 1.7 1.2 1.7a2.219 2.219 0 0 0 .9-.1l.1 1.6a3.663 3.663 0 0 1-1.6.2 2.352 2.352 0 0 1-1.9-.7 3.4 3.4 0 0 1-.7-2.5v-4.7h-1.4v-1.6h1.4v-1.7l2-.6v2.3H90zM100.299 26.4a5.133 5.133 0 0 1-1.2 3.5 4.6 4.6 0 0 1-3.4 1.4 4.223 4.223 0 0 1-3.3-1.4 4.871 4.871 0 0 1-1.2-3.4 4.752 4.752 0 0 1 1.3-3.5 4.441 4.441 0 0 1 3.4-1.4 4.223 4.223 0 0 1 3.3 1.4 5.332 5.332 0 0 1 1.1 3.4zm-2.2.1a3.8 3.8 0 0 0-.6-2.2 2.191 2.191 0 0 0-3.8 0 4.031 4.031 0 0 0-.6 2.2 3.8 3.8 0 0 0 .6 2.2 2.144 2.144 0 0 0 1.9 1.1 2.264 2.264 0 0 0 1.9-1.1 4.031 4.031 0 0 0 .601-2.199zM107 23.6c-.2 0-.4-.1-.7-.1a2.136 2.136 0 0 0-1.7.8 3.456 3.456 0 0 0-.5 1.8V31H102v-6.4a26.34 26.34 0 0 0-.1-2.9h1.8l.1 1.8h.1a3.955 3.955 0 0 1 1-1.5 2.973 2.973 0 0 1 1.5-.5h.5v2.1zM116.199 26a2.21 2.21 0 0 1-.1.9h-6.2a2.585 2.585 0 0 0 .9 2.1 3.223 3.223 0 0 0 2 .7 6.563 6.563 0 0 0 2.5-.4l.3 1.4a7.456 7.456 0 0 1-3.1.6 4.377 4.377 0 0 1-3.4-1.3 4.707 4.707 0 0 1-1.2-3.4 5.627 5.627 0 0 1 1.1-3.5 4 4 0 0 1 3.3-1.5 3.327 3.327 0 0 1 3 1.5 4.2 4.2 0 0 1 .9 2.9zm-1.9-.5a2.938 2.938 0 0 0-.4-1.6 1.8 1.8 0 0 0-1.6-.9 1.943 1.943 0 0 0-1.6.8 3.818 3.818 0 0 0-.6 1.6h4.2z"/></svg>