<svg width="350" height="224" viewBox="0 0 350 224" fill="none" xmlns="http://www.w3.org/2000/svg">
<g clip-path="url(#clip0_1332_836)">
<g clip-path="url(#clip1_1332_836)">
<path d="M101.288 208.428C101.244 213.379 100.883 218.323 100.207 223.227C100.183 223.4 100.157 223.572 100.134 223.744L53.9752 223.485C53.8396 223.314 53.7062 223.141 53.577 222.966C53.146 222.386 52.7421 221.79 52.3714 221.173C50.5893 218.201 49.7734 214.722 50.591 212.322L50.6056 212.285C50.7821 211.759 51.0602 211.274 51.4239 210.856C53.288 208.748 57.057 209.1 60.4772 210.801C57.4095 207.428 54.9668 203.171 54.7812 199.372C54.5992 195.666 56.5282 193.018 58.6205 190.768C58.6892 190.694 58.7578 190.621 58.8264 190.549C58.8598 190.512 58.8951 190.477 58.9283 190.44C60.5607 188.725 62.4639 187.035 65.2185 187.239C68.2397 187.464 71.5892 190.006 73.9378 192.968C76.2864 195.928 77.847 199.291 79.429 202.573C81.0129 205.853 82.7266 209.217 85.2684 212.02C81.8258 207.646 79.0501 202.669 78.0248 197.828C76.9995 192.988 77.9018 188.338 80.97 186.059C81.9015 185.388 82.9793 184.951 84.1133 184.785C84.2457 184.763 84.3802 184.745 84.5167 184.729C87.357 184.404 90.7482 185.391 93.6335 187.75C96.8111 190.347 99.0141 194.197 100.11 197.852C101.206 201.508 101.323 205.026 101.288 208.428Z" fill="#F2F2F2"/>
<path d="M71.0886 223.581L70.206 223.576C69.9257 223.4 69.6441 223.226 69.3612 223.054C69.1861 222.943 69.0089 222.836 68.8317 222.727C65.904 220.931 62.9579 219.208 59.9936 217.558C57.032 215.907 54.0554 214.332 51.064 212.833C50.9848 212.799 50.9201 212.737 50.8812 212.66C50.8424 212.582 50.8318 212.493 50.8514 212.409C50.8546 212.397 50.8596 212.387 50.8661 212.377C50.9078 212.299 51.0011 212.266 51.1372 212.333C51.5041 212.518 51.8732 212.703 52.2401 212.892C55.2396 214.417 58.2263 216.017 61.2002 217.694C64.172 219.37 67.1268 221.12 70.0647 222.944C70.1265 222.982 70.1884 223.022 70.2501 223.059C70.5303 223.233 70.8084 223.407 71.0886 223.581Z" fill="white"/>
<path d="M82.4685 223.645L81.9227 223.642C81.7996 223.469 81.6786 223.296 81.5555 223.123C78.6633 219.048 75.7718 214.974 72.8808 210.9C68.1465 204.229 63.4136 197.559 58.6821 190.889C58.654 190.853 58.6332 190.812 58.6207 190.768C58.5802 190.62 58.6882 190.534 58.8266 190.549C58.8849 190.557 58.9408 190.578 58.9906 190.61C59.0403 190.642 59.0827 190.684 59.115 190.733C61.7693 194.474 64.4229 198.214 67.0759 201.951C71.7856 208.588 76.4946 215.225 81.2029 221.86C81.5024 222.281 81.8018 222.705 82.1013 223.126C82.2244 223.299 82.3475 223.472 82.4685 223.645Z" fill="white"/>
<path d="M94.6281 220.461C94.6002 221.385 94.5393 222.295 94.4598 223.195C94.4444 223.368 94.429 223.54 94.4136 223.712L93.8409 223.709C93.8584 223.537 93.8759 223.365 93.8913 223.192C94.0123 221.891 94.0982 220.575 94.1099 219.223C94.1251 215.474 93.7615 211.734 93.0246 208.06C92.2413 204.104 91.1167 200.223 89.6634 196.463C88.1381 192.497 86.2991 188.66 84.1641 184.989C84.1238 184.929 84.1059 184.857 84.1135 184.785C84.1371 184.621 84.3544 184.572 84.5169 184.729C84.549 184.76 84.5766 184.795 84.599 184.833C84.8632 185.29 85.1225 185.747 85.377 186.206C87.4333 189.898 89.1934 193.748 90.6405 197.721C92.0189 201.493 93.0674 205.38 93.7741 209.335C94.436 213.005 94.7222 216.733 94.6281 220.461Z" fill="white"/>
<path d="M218.637 7.31289C218.637 5.86654 219.064 4.45267 219.864 3.25007C220.665 2.04747 221.802 1.11016 223.132 0.556663C224.463 0.00316799 225.927 -0.141651 227.34 0.140519C228.752 0.422688 230.05 1.11917 231.068 2.1419C232.086 3.16462 232.78 4.46765 233.061 5.88621C233.342 7.30477 233.198 8.77515 232.647 10.1114C232.095 11.4477 231.162 12.5898 229.965 13.3933C228.767 14.1969 227.359 14.6258 225.919 14.6258C223.988 14.6236 222.138 13.8524 220.772 12.4815C219.407 11.1105 218.639 9.25171 218.637 7.31289ZM232.434 7.31289C232.434 6.01878 232.052 4.75374 231.336 3.67773C230.62 2.60172 229.603 1.76307 228.412 1.26784C227.222 0.772608 225.912 0.643035 224.648 0.895502C223.384 1.14797 222.223 1.77114 221.312 2.68621C220.401 3.60128 219.78 4.76715 219.529 6.03639C219.278 7.30563 219.407 8.62123 219.9 9.81683C220.393 11.0124 221.228 12.0343 222.299 12.7533C223.371 13.4722 224.63 13.856 225.919 13.856C227.646 13.854 229.303 13.1641 230.524 11.9374C231.745 10.7108 232.432 9.04763 232.434 7.31289Z" fill="#CCCCCC"/>
<path d="M225.922 11.5468C228.249 11.5468 230.136 9.65131 230.136 7.31306C230.136 4.97481 228.249 3.07928 225.922 3.07928C223.594 3.07928 221.707 4.97481 221.707 7.31306C221.707 9.65131 223.594 11.5468 225.922 11.5468Z" fill="#00879E"/>
<path d="M201.398 14.2406C205.209 14.2406 208.297 11.1389 208.297 7.31264C208.297 3.48641 205.209 0.384644 201.398 0.384644C197.588 0.384644 194.5 3.48641 194.5 7.31264C194.5 11.1389 197.588 14.2406 201.398 14.2406Z" fill="#CCCCCC"/>
<path d="M176.882 14.2406C180.69 14.2406 183.777 11.1389 183.777 7.31264C183.777 3.48641 180.69 0.384644 176.882 0.384644C173.075 0.384644 169.988 3.48641 169.988 7.31264C169.988 11.1389 173.075 14.2406 176.882 14.2406Z" fill="#CCCCCC"/>
<path d="M293.351 133.171H117.494C115.767 133.169 114.112 132.479 112.891 131.252C111.67 130.026 110.983 128.363 110.981 126.628V33.8703C110.983 32.1356 111.67 30.4724 112.891 29.2458C114.112 28.0191 115.767 27.3292 117.494 27.3272H293.351C295.078 27.3292 296.734 28.0191 297.955 29.2458C299.176 30.4724 299.863 32.1356 299.865 33.8703V126.628C299.863 128.363 299.176 130.026 297.955 131.252C296.734 132.479 295.078 133.169 293.351 133.171ZM117.494 28.097C115.971 28.0987 114.51 28.7075 113.432 29.7899C112.355 30.8722 111.749 32.3396 111.747 33.8703V126.628C111.749 128.159 112.355 129.626 113.432 130.708C114.51 131.791 115.971 132.4 117.494 132.401H293.351C294.875 132.4 296.336 131.791 297.413 130.708C298.491 129.626 299.097 128.159 299.098 126.628V33.8703C299.097 32.3396 298.491 30.8722 297.413 29.7899C296.336 28.7075 294.875 28.0987 293.351 28.097H117.494Z" fill="#001833"/>
<path d="M177.263 108.538H132.051C130.324 108.536 128.669 107.846 127.448 106.619C126.226 105.392 125.54 103.729 125.538 101.995V56.5787C125.54 54.844 126.226 53.1809 127.448 51.9543C128.669 50.7276 130.324 50.0377 132.051 50.0357H177.263C178.99 50.0377 180.645 50.7276 181.867 51.9543C183.088 53.1809 183.775 54.844 183.776 56.5787V101.995C183.775 103.729 183.088 105.392 181.867 106.619C180.645 107.846 178.99 108.536 177.263 108.538ZM132.051 50.8055C130.527 50.8072 129.067 51.416 127.989 52.4983C126.912 53.5806 126.306 55.0481 126.304 56.5787V101.995C126.306 103.525 126.912 104.993 127.989 106.075C129.067 107.157 130.527 107.766 132.051 107.768H177.263C178.787 107.766 180.247 107.157 181.325 106.075C182.402 104.993 183.008 103.525 183.01 101.995V56.5787C183.008 55.0481 182.402 53.5806 181.325 52.4983C180.247 51.416 178.787 50.8072 177.263 50.8055H132.051Z" fill="#CCCCCC"/>
<path d="M288.752 74.6684H201.784C200.971 74.6684 200.191 74.3439 199.617 73.7665C199.042 73.1891 198.719 72.4059 198.719 71.5892C198.719 70.7726 199.042 69.9894 199.617 69.412C200.191 68.8345 200.971 68.5101 201.784 68.5101H288.752C289.564 68.5101 290.344 68.8345 290.919 69.412C291.494 69.9894 291.816 70.7726 291.816 71.5892C291.816 72.4059 291.494 73.1891 290.919 73.7665C290.344 74.3439 289.564 74.6684 288.752 74.6684Z" fill="#CCCCCC"/>
<path d="M244.691 61.5824H201.784C200.971 61.5824 200.191 61.2579 199.617 60.6805C199.042 60.1031 198.719 59.3199 198.719 58.5032C198.719 57.6866 199.042 56.9034 199.617 56.326C200.191 55.7485 200.971 55.4241 201.784 55.4241H244.691C245.504 55.4241 246.283 55.7485 246.858 56.326C247.433 56.9034 247.756 57.6866 247.756 58.5032C247.756 59.3199 247.433 60.1031 246.858 60.6805C246.283 61.2579 245.504 61.5824 244.691 61.5824Z" fill="#CCCCCC"/>
<path d="M288.752 100.456H201.784C200.971 100.456 200.191 100.132 199.617 99.5543C199.042 98.9769 198.719 98.1937 198.719 97.3771C198.719 96.5605 199.042 95.7773 199.617 95.1998C200.191 94.6224 200.971 94.298 201.784 94.298H288.752C289.564 94.298 290.344 94.6224 290.919 95.1998C291.494 95.7773 291.816 96.5605 291.816 97.3771C291.816 98.1937 291.494 98.9769 290.919 99.5543C290.344 100.132 289.564 100.456 288.752 100.456Z" fill="#CCCCCC"/>
<path d="M244.691 87.3697H201.784C200.971 87.3697 200.191 87.0453 199.617 86.4679C199.042 85.8904 198.719 85.1072 198.719 84.2906C198.719 83.474 199.042 82.6908 199.617 82.1133C200.191 81.5359 200.971 81.2115 201.784 81.2115H244.691C245.504 81.2115 246.283 81.5359 246.858 82.1133C247.433 82.6908 247.756 83.474 247.756 84.2906C247.756 85.1072 247.433 85.8904 246.858 86.4679C246.283 87.0453 245.504 87.3697 244.691 87.3697Z" fill="#CCCCCC"/>
<path d="M181.694 106.634C181.643 106.634 181.593 106.624 181.546 106.604C181.499 106.584 181.457 106.556 181.421 106.519L127.927 52.058C127.891 52.0221 127.863 51.9794 127.844 51.9326C127.825 51.8858 127.816 51.8357 127.816 51.7852C127.817 51.7346 127.827 51.6846 127.846 51.6381C127.866 51.5915 127.894 51.5493 127.93 51.5138C127.966 51.4783 128.008 51.4503 128.055 51.4312C128.102 51.4122 128.152 51.4026 128.202 51.403C128.252 51.4033 128.302 51.4136 128.348 51.4333C128.395 51.4529 128.437 51.4816 128.472 51.5175L181.967 105.979C182.02 106.033 182.056 106.101 182.07 106.176C182.084 106.25 182.077 106.327 182.047 106.398C182.018 106.468 181.969 106.527 181.906 106.569C181.843 106.611 181.769 106.634 181.694 106.634Z" fill="#CCCCCC"/>
<path d="M127.62 106.634C127.544 106.634 127.471 106.611 127.408 106.569C127.345 106.527 127.296 106.467 127.266 106.397C127.237 106.327 127.229 106.25 127.244 106.176C127.258 106.101 127.294 106.033 127.347 105.979L180.836 51.5174C180.871 51.4813 180.913 51.4526 180.959 51.4328C181.006 51.4131 181.056 51.4027 181.106 51.4024C181.156 51.402 181.206 51.4116 181.253 51.4306C181.3 51.4496 181.342 51.4777 181.378 51.5132C181.414 51.5487 181.442 51.591 181.462 51.6376C181.481 51.6842 181.492 51.7343 181.492 51.7848C181.492 51.8354 181.483 51.8856 181.464 51.9324C181.445 51.9793 181.417 52.0219 181.381 52.0579L127.893 106.519C127.857 106.555 127.815 106.584 127.768 106.604C127.721 106.624 127.671 106.634 127.62 106.634Z" fill="#CCCCCC"/>
<path d="M286.074 121.817H261.553C259.978 121.817 258.468 121.189 257.354 120.07C256.24 118.951 255.615 117.434 255.615 115.852C255.615 114.269 256.24 112.752 257.354 111.633C258.468 110.514 259.978 109.886 261.553 109.886H286.074C287.649 109.886 289.159 110.514 290.273 111.633C291.387 112.752 292.012 114.269 292.012 115.852C292.012 117.434 291.387 118.951 290.273 120.07C289.159 121.189 287.649 121.817 286.074 121.817Z" fill="#00879E"/>
<path d="M53.4739 223.707H168.795C168.897 223.707 168.995 223.666 169.066 223.594C169.138 223.522 169.179 223.424 169.179 223.322C169.179 223.22 169.138 223.122 169.066 223.05C168.995 222.977 168.897 222.937 168.795 222.937H53.4739C53.3723 222.937 53.2749 222.977 53.203 223.05C53.1312 223.122 53.0908 223.22 53.0908 223.322C53.0908 223.424 53.1312 223.522 53.203 223.594C53.2749 223.666 53.3723 223.707 53.4739 223.707Z" fill="#001833"/>
<path d="M125.476 219.299L130.173 219.299L132.408 201.098L125.475 201.099L125.476 219.299Z" fill="#A0616A"/>
<path d="M139.232 223.68L124.47 223.68L124.469 217.95L133.528 217.95C135.041 217.95 136.492 218.554 137.561 219.628C138.631 220.703 139.232 222.16 139.232 223.68Z" fill="#001833"/>
<path d="M91.3943 213.954L95.6666 215.914L105.227 200.292L98.9214 197.399L91.3943 213.954Z" fill="#A0616A"/>
<path d="M102.093 223.681L88.664 217.52L91.0338 212.308L99.2744 216.089C100.65 216.72 101.72 217.875 102.249 219.298C102.778 220.722 102.722 222.299 102.093 223.681L102.093 223.681Z" fill="#001833"/>
<path d="M105.073 157.931C104.623 157.591 104.253 157.156 103.988 156.656C103.724 156.157 103.572 155.605 103.542 155.04C103.513 154.475 103.608 153.91 103.819 153.386C104.03 152.861 104.354 152.39 104.766 152.005L99.2446 139.419L106.259 140.613L110.427 152.382C111.026 153.121 111.334 154.054 111.292 155.006C111.251 155.958 110.864 156.861 110.204 157.545C109.544 158.229 108.657 158.647 107.712 158.718C106.766 158.789 105.827 158.509 105.073 157.931Z" fill="#A0616A"/>
<path d="M124.062 212.965L119.556 173.428C119.52 173.11 119.372 172.815 119.139 172.597C118.906 172.378 118.603 172.25 118.284 172.236C117.966 172.221 117.653 172.321 117.401 172.518C117.149 172.714 116.976 172.994 116.911 173.308L114.677 184.121C114.645 184.274 114.593 184.422 114.522 184.56L101.444 210.105C101.252 210.481 100.929 210.773 100.537 210.927C100.145 211.08 99.7102 211.084 99.3152 210.938L94.768 209.255C94.5535 209.176 94.3569 209.054 94.1895 208.898C94.0221 208.741 93.8874 208.553 93.7932 208.344C93.6989 208.135 93.6471 207.909 93.6406 207.679C93.6341 207.45 93.6731 207.221 93.7554 207.007L104.401 179.275C104.457 179.128 104.488 178.972 104.49 178.815L105.034 149.858C105.042 149.434 105.205 149.027 105.492 148.715C105.779 148.403 106.17 148.208 106.591 148.167L134.841 145.398C135.091 145.374 135.343 145.404 135.58 145.488C135.817 145.572 136.033 145.706 136.213 145.882C136.392 146.058 136.532 146.272 136.621 146.508C136.71 146.744 136.746 146.996 136.728 147.248L131.982 212.894C131.949 213.33 131.754 213.737 131.435 214.035C131.117 214.332 130.698 214.499 130.263 214.5H125.775C125.352 214.5 124.944 214.344 124.628 214.061C124.312 213.778 124.111 213.388 124.062 212.965Z" fill="#001833"/>
<path d="M123.543 95.9188C128.74 95.9188 132.953 91.6864 132.953 86.4655C132.953 81.2446 128.74 77.0123 123.543 77.0123C118.346 77.0123 114.133 81.2446 114.133 86.4655C114.133 91.6864 118.346 95.9188 123.543 95.9188Z" fill="#A0616A"/>
<path d="M131.696 101.083C131.438 100.959 131.183 100.84 130.929 100.726H130.929C127.839 99.3296 124.434 98.7861 121.065 99.1515C117.696 99.517 114.485 100.778 111.763 102.805C106.751 106.555 104.336 112.201 105.135 118.295C106.822 131.14 104.891 148.564 104.691 150.3C120.161 157.446 133.733 148.461 134.937 147.627L131.696 101.083Z" fill="#00879E"/>
<path d="M104.27 150.134C103.988 150.089 103.722 149.975 103.495 149.8C103.269 149.626 103.089 149.398 102.972 149.137L95.0753 131.561C94.7794 130.903 94.6488 130.183 94.6948 129.463C94.7409 128.743 94.9623 128.045 95.3395 127.431L105.036 111.624C105.342 111.055 105.811 110.592 106.384 110.296C106.956 110.001 107.604 109.886 108.243 109.968C108.881 110.05 109.48 110.325 109.96 110.755C110.44 111.186 110.779 111.753 110.932 112.381C111.105 113.097 111.028 113.85 110.714 114.516L103.541 129.648L108.255 145.678C108.338 145.964 108.347 146.268 108.28 146.558C108.213 146.849 108.073 147.118 107.873 147.339L105.814 149.595C105.653 149.772 105.457 149.913 105.239 150.01C105.02 150.107 104.784 150.157 104.545 150.157C104.453 150.156 104.361 150.149 104.27 150.134Z" fill="#00879E"/>
<path opacity="0.2" d="M126.256 146.461L124.796 117.133L125.175 117.083L131.735 148.107H127.977C127.535 148.107 127.109 147.936 126.789 147.63C126.468 147.324 126.278 146.905 126.256 146.461Z" fill="#001833"/>
<path d="M131.454 155.82C131.084 155.393 130.812 154.89 130.657 154.346C130.501 153.802 130.466 153.231 130.554 152.672C130.643 152.113 130.852 151.581 131.167 151.112C131.482 150.643 131.896 150.249 132.379 149.958L129.579 136.495L136.194 139.126L137.839 151.508C138.271 152.355 138.379 153.333 138.142 154.255C137.906 155.178 137.34 155.981 136.553 156.512C135.766 157.044 134.812 157.267 133.873 157.139C132.933 157.012 132.072 156.542 131.454 155.82Z" fill="#A0616A"/>
<path d="M130.133 146.67L124.604 109.646L124.599 109.611L125.668 104.673C125.935 103.436 126.643 102.339 127.657 101.588C128.672 100.837 129.924 100.483 131.179 100.592C132.435 100.702 133.608 101.267 134.479 102.182C135.35 103.097 135.859 104.299 135.911 105.564L137.57 145.894C137.586 146.332 137.438 146.76 137.153 147.092C136.869 147.425 136.471 147.637 136.037 147.687L132.028 148.134C131.963 148.142 131.898 148.145 131.834 148.145C131.421 148.146 131.022 147.997 130.71 147.726C130.397 147.455 130.193 147.08 130.133 146.67Z" fill="#00879E"/>
<path d="M119.673 95.0508C118.393 95.0398 117.143 94.6649 116.066 93.9696C114.989 93.2742 114.131 92.2867 113.589 91.1215C112.717 89.2679 112.233 87.7913 112.149 86.7323C111.924 83.887 113.524 79.4158 115.643 76.9686C117.969 74.2837 121.649 73.9092 125.208 73.547C126.18 73.448 127.185 73.3457 128.137 73.1971C128.954 73.0697 129.97 72.9111 130.834 73.2332C131.083 73.3251 131.312 73.4671 131.505 73.6507C131.698 73.8342 131.852 74.0554 131.957 74.3007C131.991 74.3868 132.042 74.4651 132.107 74.5307C132.172 74.5962 132.25 74.6477 132.336 74.682C132.41 74.7105 132.489 74.7232 132.568 74.7194C132.647 74.7156 132.725 74.6954 132.796 74.66C132.941 74.5862 133.1 74.5477 133.262 74.5476C133.424 74.5476 133.584 74.586 133.729 74.6598C133.856 74.7243 133.967 74.8182 134.052 74.9338C134.136 75.0495 134.192 75.1836 134.215 75.3253C134.231 75.4225 134.261 75.5167 134.304 75.6047C134.379 75.7415 134.481 75.8609 134.605 75.955C134.729 76.0491 134.871 76.1158 135.023 76.1507C135.254 76.2024 135.458 76.3372 135.597 76.5296C135.736 76.722 135.8 76.9588 135.777 77.1954C135.72 77.681 135.695 78.205 135.672 78.7119C135.583 80.619 135.491 82.5906 133.583 82.5589C133.095 82.5385 132.611 82.4528 132.146 82.304C131.455 82.1112 130.909 81.958 130.173 82.4188C129.042 83.127 128.857 84.6073 128.695 85.9135L128.666 86.1418C128.476 87.6357 127.69 89.4335 126.101 89.5838C125.596 89.6004 125.094 89.5129 124.624 89.3267C124.142 89.112 123.606 89.0474 123.086 89.1412C122.213 89.3914 121.793 90.4384 121.829 91.3434C121.853 91.714 121.9 92.0827 121.971 92.4472C122.099 93.0244 122.14 93.6178 122.093 94.2074C122.047 94.5659 121.637 94.8024 120.802 94.951C120.43 95.0174 120.052 95.0508 119.673 95.0508Z" fill="#001833"/>
</g>
</g>
<defs>
<clipPath id="clip0_1332_836">
<rect width="350" height="223.744" fill="white"/>
</clipPath>
<clipPath id="clip1_1332_836">
<rect width="249.594" height="223.744" fill="white" transform="translate(50.2727)"/>
</clipPath>
</defs>
</svg>
