<svg width="150" height="96" viewBox="0 0 150 96" fill="none" xmlns="http://www.w3.org/2000/svg">
<g opacity="0.1">
<path opacity="0.1" d="M106.274 83.2386C107.695 83.2386 108.846 81.8242 108.846 80.079C108.846 78.3339 107.695 76.9192 106.274 76.9192C104.854 76.9192 103.703 78.3339 103.703 80.079C103.703 81.8242 104.854 83.2386 106.274 83.2386Z" fill="#36ABC5" fill-opacity="0.1"/>
<path opacity="0.1" d="M108.31 66.5611C108.67 65.9742 108.857 65.3073 108.851 64.6298C108.851 62.8811 107.699 61.4702 106.279 61.4702C104.859 61.4702 103.709 62.8844 103.709 64.6298C103.702 65.3071 103.887 65.9736 104.246 66.5611C103.894 67.151 103.709 67.8157 103.709 68.4918C103.709 69.168 103.894 69.8326 104.246 70.4226C103.894 71.0125 103.709 71.6774 103.709 72.3539C103.709 73.03 103.894 73.695 104.246 74.2849C103.887 74.8723 103.702 75.5392 103.709 76.2162C103.709 77.9649 104.86 79.376 106.279 79.376C107.698 79.376 108.851 77.9616 108.851 76.2162C108.858 75.5392 108.673 74.8723 108.314 74.2849C108.666 73.695 108.851 73.03 108.851 72.3539C108.851 71.6774 108.666 71.0125 108.314 70.4226C108.666 69.8326 108.851 69.168 108.851 68.4918C108.851 67.8157 108.666 67.151 108.314 66.5611H108.31Z" fill="#36ABC5" fill-opacity="0.1"/>
<path opacity="0.1" d="M106.274 63.9283C107.695 63.9283 108.846 62.5136 108.846 60.7687C108.846 59.0236 107.695 57.6089 106.274 57.6089C104.854 57.6089 103.703 59.0236 103.703 60.7687C103.703 62.5136 104.854 63.9283 106.274 63.9283Z" fill="#36ABC5" fill-opacity="0.1"/>
<path opacity="0.1" d="M106.274 60.066C107.695 60.066 108.846 58.6513 108.846 56.9062C108.846 55.1613 107.695 53.7466 106.274 53.7466C104.854 53.7466 103.703 55.1613 103.703 56.9062C103.703 58.6513 104.854 60.066 106.274 60.066Z" fill="#36ABC5" fill-opacity="0.1"/>
<path opacity="0.1" d="M115.899 30.4767C116.249 30.0565 116.569 29.6144 116.855 29.1531L110.104 28.1115L117.411 28.1629C118.111 26.7309 118.493 25.18 118.533 23.6048C118.573 22.0296 118.27 20.4634 117.644 19.0018L107.84 23.7735L116.882 17.5372C116.035 16.1641 114.896 14.9695 113.535 14.0277C112.175 13.0859 110.623 12.4171 108.975 12.0629C107.328 11.7087 105.62 11.6767 103.959 11.9689C102.298 12.2611 100.718 12.8713 99.3191 13.7614C97.92 14.6514 96.7309 15.8024 95.8257 17.1427C94.9208 18.4829 94.3192 19.9837 94.0587 21.5517C93.798 23.1197 93.8839 24.7212 94.311 26.2566C94.7381 27.792 95.4971 29.2286 96.5411 30.4767C95.994 31.1301 95.5233 31.8369 95.1374 32.5848L103.906 36.8626L94.5565 33.9116C93.8986 35.7332 93.735 37.68 94.0805 39.5757C94.4261 41.4717 95.2699 43.2565 96.5354 44.769C95.1065 46.4744 94.2177 48.5232 93.9706 50.6806C93.7233 52.838 94.1277 55.017 95.1374 56.9688C96.147 58.9206 97.7212 60.5664 99.6799 61.7178C101.639 62.8689 103.903 63.4796 106.214 63.4796C108.525 63.4796 110.789 62.8689 112.748 61.7178C114.707 60.5664 116.281 58.9206 117.291 56.9688C118.3 55.017 118.705 52.838 118.457 50.6806C118.21 48.5232 117.322 46.4744 115.893 44.769C117.6 42.7312 118.528 40.2136 118.528 37.6206C118.528 35.0277 117.6 32.5101 115.893 30.4723L115.899 30.4767Z" fill="#00879E"/>
<path opacity="0.1" d="M93.9058 37.6254C93.9017 40.2188 94.8303 42.7376 96.5411 44.7732C95.1126 46.4789 94.2238 48.5273 93.9764 50.6847C93.7293 52.8421 94.1338 55.0212 95.1434 56.973C96.153 58.9248 97.7272 60.5706 99.686 61.722C101.645 62.8733 103.909 63.4838 106.22 63.4838C108.531 63.4838 110.795 62.8733 112.754 61.722C114.713 60.5706 116.287 58.9248 117.297 56.973C118.306 55.0212 118.711 52.8421 118.463 50.6847C118.216 48.5273 117.328 46.4789 115.899 44.7732C117.549 42.806 93.9058 36.327 93.9058 37.6254Z" fill="#222222"/>
</g>
<g opacity="0.1">
<path opacity="0.1" d="M34.1571 79.8592C35.0211 79.8592 35.7215 78.998 35.7215 77.9356C35.7215 76.8732 35.0211 76.012 34.1571 76.012C33.2931 76.012 32.5928 76.8732 32.5928 77.9356C32.5928 78.998 33.2931 79.8592 34.1571 79.8592Z" fill="#36ABC5" fill-opacity="0.1"/>
<path opacity="0.1" d="M35.4011 69.7068C35.6195 69.349 35.7325 68.9433 35.7284 68.5308C35.7284 67.4687 35.0299 66.6072 34.1626 66.6072C33.2954 66.6072 32.5983 67.4687 32.5983 68.5308C32.5936 68.9431 32.7063 69.349 32.9242 69.7068C32.7106 70.0662 32.5983 70.4708 32.5983 70.8823C32.5983 71.2937 32.7106 71.6986 32.9242 72.0578C32.7106 72.4172 32.5983 72.8218 32.5983 73.2332C32.5983 73.6447 32.7106 74.0495 32.9242 74.4087C32.706 74.7662 32.5936 75.1716 32.5983 75.5836C32.5983 76.6471 33.2967 77.5083 34.1626 77.5083C35.0288 77.5083 35.7284 76.6471 35.7284 75.5836C35.7327 75.1716 35.6198 74.7659 35.4011 74.4087C35.6155 74.0495 35.7281 73.6449 35.7281 73.2332C35.7281 72.8215 35.6155 72.4169 35.4011 72.0578C35.6155 71.6986 35.7281 71.294 35.7281 70.8823C35.7281 70.4708 35.6155 70.066 35.4011 69.7068Z" fill="#36ABC5" fill-opacity="0.1"/>
<path opacity="0.1" d="M34.1571 68.1036C35.0211 68.1036 35.7215 67.2424 35.7215 66.1799C35.7215 65.1178 35.0211 64.2566 34.1571 64.2566C33.2931 64.2566 32.5928 65.1178 32.5928 66.1799C32.5928 67.2424 33.2931 68.1036 34.1571 68.1036Z" fill="#36ABC5" fill-opacity="0.1"/>
<path opacity="0.1" d="M34.1571 65.7525C35.0211 65.7525 35.7215 64.8913 35.7215 63.8291C35.7215 62.7667 35.0211 61.9055 34.1571 61.9055C33.2931 61.9055 32.5928 62.7667 32.5928 63.8291C32.5928 64.8913 33.2931 65.7525 34.1571 65.7525Z" fill="#36ABC5" fill-opacity="0.1"/>
<path opacity="0.1" d="M28.3007 47.7386C28.0872 47.4832 27.8927 47.2141 27.7187 46.9332L31.8312 46.2992L27.3835 46.331C26.9577 45.4596 26.7255 44.516 26.7008 43.5576C26.6762 42.5995 26.8598 41.6463 27.2404 40.7569L33.2036 43.6652L27.7013 39.8618C28.2175 39.0263 28.9111 38.2998 29.7391 37.7268C30.5671 37.1542 31.5118 36.7474 32.5144 36.5322C33.5169 36.3168 34.556 36.2976 35.567 36.4755C36.5777 36.6535 37.5388 37.0249 38.3903 37.5664C39.2417 38.1082 39.9656 38.8087 40.5162 39.6242C41.0671 40.4397 41.4331 41.3529 41.5921 42.3072C41.7508 43.2612 41.6987 44.2357 41.4391 45.1703C41.1795 46.1046 40.718 46.9789 40.0831 47.7386C40.4161 48.1358 40.7025 48.5656 40.9373 49.0205L35.5992 51.6263L41.2913 49.8328C41.6911 50.942 41.7898 52.1273 41.579 53.2814C41.3679 54.4355 40.8538 55.5223 40.0831 56.4429C40.9526 57.481 41.4936 58.7282 41.6439 60.0413C41.7945 61.3548 41.5482 62.6814 40.9337 63.8694C40.319 65.0575 39.3606 66.0594 38.1683 66.7602C36.9759 67.461 35.5976 67.8327 34.1908 67.8327C32.7841 67.8327 31.4057 67.461 30.2131 66.7602C29.0207 66.0594 28.0624 65.0575 27.4479 63.8694C26.8332 62.6814 26.587 61.3548 26.7374 60.0413C26.8879 58.7282 27.4288 57.481 28.2985 56.4429C27.2593 55.202 26.6943 53.6693 26.6943 52.0906C26.6943 50.5122 27.2593 48.9795 28.2985 47.7386H28.3007Z" fill="#00879E"/>
<path opacity="0.1" d="M41.687 52.0907C41.6895 53.6697 41.1241 55.203 40.0828 56.4428C40.9525 57.4811 41.4934 58.728 41.6439 60.0414C41.7942 61.3546 41.5482 62.6812 40.9335 63.8692C40.3187 65.0576 39.3606 66.0592 38.1683 66.76C36.9756 67.4608 35.5973 67.8326 34.1905 67.8326C32.7838 67.8326 31.4055 67.4608 30.2131 66.76C29.0207 66.0592 28.0624 65.0576 27.4476 63.8692C26.8331 62.6812 26.5869 61.3546 26.7373 60.0414C26.8878 58.728 27.4288 57.4811 28.2983 56.4428C27.2938 55.2503 41.687 51.3004 41.687 52.0907Z" fill="#222222"/>
</g>
<g opacity="0.1">
<path opacity="0.1" d="M69.4265 81.5333C70.5832 81.5333 71.5205 80.3808 71.5205 78.9595C71.5205 77.538 70.5832 76.3855 69.4265 76.3855C68.2699 76.3855 67.3325 77.538 67.3325 78.9595C67.3325 80.3808 68.2699 81.5333 69.4265 81.5333Z" fill="#36ABC5" fill-opacity="0.1"/>
<path opacity="0.1" d="M71.0841 67.9466C71.3759 67.4678 71.5267 66.9244 71.5207 66.3728C71.5207 64.9521 70.5894 63.7991 69.4254 63.7991C68.2614 63.7991 67.3303 64.9521 67.3303 66.3728C67.324 66.9247 67.4751 67.4681 67.7677 67.9466C67.4808 68.4273 67.3303 68.9691 67.3303 69.5201C67.3303 70.0709 67.4808 70.6126 67.7677 71.0933C67.4808 71.5738 67.3303 72.1152 67.3303 72.666C67.3303 73.2168 67.4808 73.7583 67.7677 74.2387C67.4751 74.7175 67.324 75.2609 67.3303 75.8127C67.3303 77.2335 68.2684 78.3865 69.4254 78.3865C70.5825 78.3865 71.5207 77.2335 71.5207 75.8127C71.5267 75.2609 71.3759 74.7178 71.0841 74.2387C71.3704 73.7583 71.5207 73.2168 71.5207 72.666C71.5207 72.1155 71.3704 71.574 71.0841 71.0933C71.3704 70.6124 71.5207 70.0709 71.5207 69.5201C71.5207 68.9691 71.3704 68.4276 71.0841 67.9466Z" fill="#36ABC5" fill-opacity="0.1"/>
<path opacity="0.1" d="M69.4265 65.8014C70.5832 65.8014 71.5205 64.6492 71.5205 63.2276C71.5205 61.806 70.5832 60.6536 69.4265 60.6536C68.2699 60.6536 67.3325 61.806 67.3325 63.2276C67.3325 64.6492 68.2699 65.8014 69.4265 65.8014Z" fill="#36ABC5" fill-opacity="0.1"/>
<path opacity="0.1" d="M69.4265 62.6549C70.5832 62.6549 71.5205 61.5024 71.5205 60.0811C71.5205 58.6596 70.5832 57.5071 69.4265 57.5071C68.2699 57.5071 67.3325 58.6596 67.3325 60.0811C67.3325 61.5024 68.2699 62.6549 69.4265 62.6549Z" fill="#36ABC5" fill-opacity="0.1"/>
<path opacity="0.1" d="M61.5917 38.5498C61.3053 38.2082 61.0448 37.8479 60.8117 37.4724L66.3139 36.624L60.3636 36.6656C59.7925 35.4992 59.481 34.2358 59.448 32.9522C59.415 31.6689 59.6613 30.393 60.1716 29.2019L68.1568 33.0908L60.7918 28.0084C61.4798 26.8857 62.4071 25.9083 63.5158 25.1373C64.6244 24.3662 65.8904 23.8181 67.2347 23.5272C68.5789 23.2363 69.9726 23.2089 71.3288 23.4466C72.6848 23.6843 73.9743 24.1821 75.1162 24.9088C76.2584 25.6356 77.2285 26.5756 77.9659 27.6703C78.7037 28.765 79.1927 29.9906 79.4029 31.2709C79.6132 32.5509 79.5401 33.8581 79.188 35.1107C78.8362 36.3631 78.2128 37.5339 77.3569 38.5498C77.8026 39.0825 78.1858 39.6585 78.4999 40.2681L71.3578 43.7524L78.9739 41.3478C79.5087 42.8321 79.6413 44.4184 79.3588 45.9629C79.0765 47.5071 78.3884 48.9613 77.3569 50.1931C78.5207 51.5824 79.2448 53.2511 79.446 55.0086C79.6473 56.7661 79.3178 58.5413 78.4953 60.1312C77.6727 61.7212 76.3904 63.0617 74.7947 63.9995C73.1989 64.9374 71.3545 65.4348 69.4718 65.4348C67.5895 65.4348 65.745 64.9374 64.1493 63.9995C62.5536 63.0617 61.2712 61.7212 60.4487 60.1312C59.6261 58.5413 59.2967 56.7661 59.4979 55.0086C59.6992 53.2511 60.423 51.5824 61.587 50.1931C60.1964 48.5326 59.4407 46.4816 59.4407 44.3694C59.4407 42.2569 60.1964 40.206 61.587 38.5454L61.5917 38.5498Z" fill="#00879E"/>
<path opacity="0.1" d="M79.5036 44.374C79.5069 46.4868 78.7506 48.5388 77.357 50.1974C78.5207 51.5867 79.2448 53.2555 79.446 55.0129C79.6473 56.7704 79.3179 58.5456 78.4953 60.1356C77.6728 61.7255 76.3904 63.066 74.7947 64.0039C73.1989 64.9418 71.3545 65.4391 69.4719 65.4391C67.5895 65.4391 65.745 64.9418 64.1493 64.0039C62.5536 63.066 61.2712 61.7255 60.4487 60.1356C59.6261 58.5456 59.2967 56.7704 59.4979 55.0129C59.6992 53.2555 60.423 51.5867 61.587 50.1974C60.2425 48.5952 79.5036 43.3163 79.5036 44.374Z" fill="#222222"/>
</g>
<path d="M141.545 81.2997C141.545 82.0519 135.694 82.7396 126.019 83.2706C124.26 83.3659 122.374 83.4568 120.375 83.5422C118.647 83.615 116.836 83.684 114.943 83.7492C113.108 83.8105 111.203 83.8674 109.227 83.92C102.989 84.0875 96.0923 84.208 88.7655 84.2682C86.9876 84.2835 85.1857 84.295 83.3603 84.3032C81.4586 84.3112 79.5353 84.3147 77.5902 84.3142C42.2685 84.3142 13.6362 82.9662 13.6362 81.303C13.6362 79.6397 42.2685 78.2917 77.5902 78.2917C92.7972 78.2917 106.762 78.5425 117.738 78.9586L118.938 79.0046H118.945C132.771 79.5554 141.545 80.3843 141.545 81.2997Z" fill="#36ABC5" fill-opacity="0.1"/>
<path opacity="0.15" d="M141.545 81.2997C141.545 82.0519 135.694 82.7396 126.019 83.2706C124.26 83.3659 122.374 83.4568 120.375 83.5422C118.647 83.615 116.836 83.684 114.943 83.7492C113.108 83.8105 111.203 83.8674 109.227 83.92C102.989 84.0875 96.0923 84.208 88.7655 84.2682C86.9876 84.2835 85.1857 84.295 83.3603 84.3032C81.4586 84.3112 79.5353 84.3147 77.5902 84.3142C42.2685 84.3142 13.6362 82.9662 13.6362 81.303C13.6362 79.6397 42.2685 78.2917 77.5902 78.2917C92.7972 78.2917 106.762 78.5425 117.738 78.9586L118.938 79.0046H118.945C132.771 79.5554 141.545 80.3843 141.545 81.2997Z" fill="#222222"/>
<path d="M136.364 80.7588C136.364 81.3736 130.512 81.937 120.838 82.3654C119.079 82.4437 117.193 82.5176 115.194 82.5871C113.466 82.6471 111.655 82.7037 109.762 82.7566C107.928 82.8064 106.023 82.8532 104.047 82.8967C97.8074 83.0339 90.9107 83.1324 83.5839 83.1817C81.8073 83.1937 80.0057 83.203 78.1787 83.2096C76.277 83.2159 74.354 83.2192 72.4097 83.2192C37.088 83.2192 8.45459 82.1168 8.45459 80.7555C8.45459 79.3941 37.088 78.2917 72.4097 78.2917C87.6156 78.2917 101.58 78.4962 112.557 78.8371L113.757 78.8746H113.765C127.596 79.332 136.364 80.0057 136.364 80.7588Z" fill="#36ABC5" fill-opacity="0.1"/>
<path d="M25.0519 58.0345L23.4546 53.2433L61.7057 52.8333L63.2728 57.5768L25.0519 58.0345Z" fill="#36ABC5" fill-opacity="0.1"/>
<path opacity="0.15" d="M25.0519 58.0345L23.4546 53.2433L61.7057 52.8333L63.2728 57.5768L25.0519 58.0345Z" fill="#222222"/>
<path d="M22.3353 58.0345L20.7271 53.2433L59.24 52.8333L60.818 57.5768L22.3353 58.0345Z" fill="#36ABC5" fill-opacity="0.1"/>
<path d="M88.0527 50.8069C84.0946 50.8069 80.9749 49.3281 78.694 46.3711C76.4132 43.4138 75.2729 39.8313 75.2729 35.6235C75.2729 31.3876 76.3759 27.8124 78.5817 24.8981C80.7875 21.9838 83.8988 20.5281 87.9158 20.531C92.1758 20.531 95.3855 22.0664 97.545 25.1372C99.7041 28.208 100.784 31.762 100.785 35.7995C100.785 39.8077 99.6676 43.3114 97.4323 46.3109C95.197 49.3103 92.0708 50.8091 88.0527 50.8069ZM88.1689 47.4803C90.7729 47.4803 92.719 46.4122 94.0077 44.2758C95.296 42.1398 95.9405 39.4467 95.9405 36.1967C95.9405 32.5794 95.281 29.6175 93.9624 27.3109C92.6438 25.0043 90.6212 23.8507 87.895 23.85C82.7132 23.85 80.1223 27.7237 80.1223 35.4708C80.1223 43.4779 82.8038 47.4809 88.1664 47.4803H88.1689ZM89.4728 79.3368H83.7477L121.229 21.1238H126.846L89.4728 79.3368ZM122.631 79.9342C118.613 79.9342 115.481 78.442 113.234 75.4578C110.987 72.4737 109.859 68.8909 109.85 64.7094C109.85 60.5017 110.945 56.9408 113.136 54.0264C115.326 51.1121 118.445 49.6566 122.493 49.6594C126.723 49.6594 129.91 51.1948 132.055 54.2657C134.2 57.3363 135.272 60.8901 135.273 64.9268C135.273 68.9087 134.163 72.4061 131.942 75.4187C129.722 78.4313 126.617 79.9364 122.629 79.9342H122.631ZM122.699 76.5224C125.29 76.5224 127.226 75.4724 128.506 73.3727C129.786 71.2728 130.426 68.5906 130.426 65.3262C130.426 61.8326 129.778 58.9027 128.483 56.5364C127.187 54.1702 125.169 52.9854 122.428 52.9816C117.216 52.9816 114.61 56.8554 114.61 64.6024C114.609 72.5498 117.304 76.523 122.696 76.5224H122.699Z" fill="#36ABC5" fill-opacity="0.1"/>
<path d="M88.0527 50.8069C84.0946 50.8069 80.9749 49.3281 78.694 46.3711C76.4132 43.4138 75.2729 39.8313 75.2729 35.6235C75.2729 31.3876 76.3759 27.8124 78.5817 24.8981C80.7875 21.9838 83.8988 20.5281 87.9158 20.531C92.1758 20.531 95.3855 22.0664 97.545 25.1372C99.7041 28.208 100.784 31.762 100.785 35.7995C100.785 39.8077 99.6676 43.3114 97.4323 46.3109C95.197 49.3103 92.0708 50.8091 88.0527 50.8069ZM88.1689 47.4803C90.7729 47.4803 92.719 46.4122 94.0077 44.2758C95.296 42.1398 95.9405 39.4467 95.9405 36.1967C95.9405 32.5794 95.281 29.6175 93.9624 27.3109C92.6438 25.0043 90.6212 23.8507 87.895 23.85C82.7132 23.85 80.1223 27.7237 80.1223 35.4708C80.1223 43.4779 82.8038 47.4809 88.1664 47.4803H88.1689ZM89.4728 79.3368H83.7477L121.229 21.1238H126.846L89.4728 79.3368ZM122.631 79.9342C118.613 79.9342 115.481 78.442 113.234 75.4578C110.987 72.4737 109.859 68.8909 109.85 64.7094C109.85 60.5017 110.945 56.9408 113.136 54.0264C115.326 51.1121 118.445 49.6566 122.493 49.6594C126.723 49.6594 129.91 51.1948 132.055 54.2657C134.2 57.3363 135.272 60.8901 135.273 64.9268C135.273 68.9087 134.163 72.4061 131.942 75.4187C129.722 78.4313 126.617 79.9364 122.629 79.9342H122.631ZM122.699 76.5224C125.29 76.5224 127.226 75.4724 128.506 73.3727C129.786 71.2728 130.426 68.5906 130.426 65.3262C130.426 61.8326 129.778 58.9027 128.483 56.5364C127.187 54.1702 125.169 52.9854 122.428 52.9816C117.216 52.9816 114.61 56.8554 114.61 64.6024C114.609 72.5498 117.304 76.523 122.696 76.5224H122.699Z" fill="#36ABC5" fill-opacity="0.1"/>
<path opacity="0.15" d="M88.0527 50.8069C84.0946 50.8069 80.9749 49.3281 78.694 46.3711C76.4132 43.4138 75.2729 39.8313 75.2729 35.6235C75.2729 31.3876 76.3759 27.8124 78.5817 24.8981C80.7875 21.9838 83.8988 20.5281 87.9158 20.531C92.1758 20.531 95.3855 22.0664 97.545 25.1372C99.7041 28.208 100.784 31.762 100.785 35.7995C100.785 39.8077 99.6676 43.3114 97.4323 46.3109C95.197 49.3103 92.0708 50.8091 88.0527 50.8069ZM88.1689 47.4803C90.7729 47.4803 92.719 46.4122 94.0077 44.2758C95.296 42.1398 95.9405 39.4467 95.9405 36.1967C95.9405 32.5794 95.281 29.6175 93.9624 27.3109C92.6438 25.0043 90.6212 23.8507 87.895 23.85C82.7132 23.85 80.1223 27.7237 80.1223 35.4708C80.1223 43.4779 82.8038 47.4809 88.1664 47.4803H88.1689ZM89.4728 79.3368H83.7477L121.229 21.1238H126.846L89.4728 79.3368ZM122.631 79.9342C118.613 79.9342 115.481 78.442 113.234 75.4578C110.987 72.4737 109.859 68.8909 109.85 64.7094C109.85 60.5017 110.945 56.9408 113.136 54.0264C115.326 51.1121 118.445 49.6566 122.493 49.6594C126.723 49.6594 129.91 51.1948 132.055 54.2657C134.2 57.3363 135.272 60.8901 135.273 64.9268C135.273 68.9087 134.163 72.4061 131.942 75.4187C129.722 78.4313 126.617 79.9364 122.629 79.9342H122.631ZM122.699 76.5224C125.29 76.5224 127.226 75.4724 128.506 73.3727C129.786 71.2728 130.426 68.5906 130.426 65.3262C130.426 61.8326 129.778 58.9027 128.483 56.5364C127.187 54.1702 125.169 52.9854 122.428 52.9816C117.216 52.9816 114.61 56.8554 114.61 64.6024C114.609 72.5498 117.304 76.523 122.696 76.5224H122.699Z" fill="#222222"/>
<path d="M84.2924 50.8069C80.3163 50.8069 77.1824 49.3281 74.8912 46.3711C72.6 43.4138 71.4546 39.8313 71.4546 35.6235C71.4546 31.3876 72.5624 27.8124 74.7783 24.8981C76.994 21.9838 80.1197 20.5281 84.155 20.531C88.4343 20.531 91.6585 22.0664 93.8278 25.1372C95.9968 28.208 97.082 31.762 97.0828 35.7995C97.0828 39.8077 95.96 43.3114 93.7146 46.3109C91.4692 49.3103 88.3285 50.8091 84.2924 50.8069ZM84.4091 47.4803C87.0249 47.4803 88.9801 46.4122 90.2744 44.2758C91.5688 42.1398 92.216 39.4467 92.216 36.1967C92.216 32.5794 91.5538 29.6175 90.2289 27.3109C88.9042 25.0043 86.8727 23.8507 84.134 23.85C78.9287 23.85 76.326 27.7237 76.326 35.4708C76.326 43.4779 79.0195 47.4809 84.4067 47.4803H84.4091ZM85.719 79.3368H79.9678L117.619 21.1238H123.262L85.719 79.3368ZM119.028 79.9342C114.992 79.9342 111.846 78.442 109.588 75.4578C107.332 72.4737 106.198 68.8909 106.189 64.7094C106.189 60.5017 107.289 56.9408 109.489 54.0264C111.69 51.1121 114.823 49.6566 118.89 49.6594C123.138 49.6594 126.34 51.1948 128.494 54.2657C130.649 57.3363 131.727 60.8901 131.727 64.9268C131.727 68.9087 130.612 72.4061 128.382 75.4187C126.151 78.4313 123.032 79.9364 119.026 79.9342H119.028ZM119.096 76.5224C121.699 76.5224 123.644 75.4724 124.93 73.3727C126.216 71.2728 126.858 68.5906 126.858 65.3262C126.858 61.8326 126.208 58.9027 124.906 56.5364C123.605 54.1702 121.577 52.9854 118.822 52.9816C113.586 52.9816 110.968 56.8554 110.968 64.6024C110.968 72.5498 113.677 76.523 119.093 76.5224H119.096Z" fill="#36ABC5" fill-opacity="0.1"/>
<path d="M96.9603 80.7554C97.4365 79.9224 96.8954 78.9018 96.2736 78.1583C95.6515 77.4146 94.8933 76.6429 94.9094 75.6952C94.9326 74.3357 96.4632 73.532 97.6839 72.8104C98.5918 72.2755 99.4294 71.6407 100.179 70.9196C100.492 70.6421 100.752 70.3144 100.945 69.9517C101.198 69.4195 101.19 68.8142 101.176 68.2323C101.123 66.29 101.021 64.3508 100.871 62.4143" stroke="#36ABC5" stroke-opacity="0.1" stroke-width="4" stroke-miterlimit="10"/>
<path d="M103.088 62.312C103.071 61.9455 102.963 61.5888 102.773 61.2753C102.582 60.9619 102.317 60.7013 102 60.5181L101.511 61.4883L101.526 60.3134C101.292 60.2449 101.049 60.2157 100.807 60.2266C100.376 60.2469 99.9604 60.395 99.6132 60.6523C99.2661 60.9096 99.0026 61.2644 98.8564 61.6717C98.71 62.0793 98.6873 62.5212 98.7912 62.9416C98.8951 63.3621 99.121 63.7421 99.4401 64.0336C99.7591 64.3251 100.157 64.5154 100.584 64.58C101.01 64.6443 101.447 64.5806 101.837 64.3963C102.228 64.2121 102.555 63.9156 102.778 63.5447C103.001 63.1738 103.109 62.7448 103.088 62.312Z" fill="#00879E"/>
<path d="M99.2859 76.8301C99.0427 77.2769 98.6445 77.6308 98.1577 77.8329C97.6711 78.0352 97.1259 78.0729 96.6135 77.9399C96.1007 77.8071 95.6521 77.5118 95.3426 77.1033C95.033 76.6949 94.8817 76.1983 94.9133 75.6968C94.9452 75.1953 95.1585 74.7195 95.5174 74.3489C95.8763 73.9785 96.359 73.7357 96.8848 73.6618C97.4104 73.5879 97.9471 73.687 98.4047 73.9426C98.8621 74.1983 99.2128 74.5947 99.3977 75.0658L97.9496 76.1794L99.5456 75.8279C99.545 76.177 99.4558 76.5205 99.2859 76.8301Z" fill="#00879E"/>
<path d="M98.0168 72.5409C97.7299 72.5534 97.4432 72.5129 97.173 72.4215C96.903 72.3303 96.6545 72.1899 96.4423 72.0084C96.2299 71.8272 96.0578 71.6082 95.9356 71.3643C95.8134 71.1207 95.7436 70.8565 95.7302 70.5874C95.7131 70.266 95.778 69.9457 95.919 69.6523C96.0496 69.3782 96.2427 69.1346 96.4846 68.9381C96.7265 68.7415 97.0112 68.597 97.3189 68.5148L97.3066 69.3583L97.8021 68.439C98.3814 68.4136 98.9479 68.6052 99.3766 68.9715C99.8056 69.3377 100.062 69.8488 100.089 70.3925C100.116 70.9359 99.9117 71.4672 99.5211 71.8696C99.1309 72.2718 98.586 72.5121 98.0067 72.5376L98.0168 72.5409Z" fill="#00879E"/>
<path d="M103.629 69.253C103.324 69.2725 103.019 69.2336 102.73 69.1389C102.442 69.0442 102.176 68.8955 101.948 68.7017C101.721 68.5079 101.536 68.2727 101.404 68.0099C101.273 67.7471 101.199 67.4619 101.184 67.1712C101.17 66.8805 101.217 66.5897 101.322 66.3165C101.426 66.0431 101.587 65.7926 101.795 65.5793C102.003 65.3658 102.253 65.1942 102.531 65.0743C102.809 64.9544 103.109 64.8884 103.414 64.8805C103.843 64.8607 104.269 64.9568 104.643 65.1583L104.237 66.2174L105.072 65.454C105.519 65.8435 105.787 66.3866 105.815 66.9639C105.826 67.1665 105.806 67.3694 105.756 67.5667C105.642 68.0302 105.373 68.4457 104.989 68.7501C104.605 69.0543 104.127 69.2311 103.629 69.253Z" fill="#00879E"/>
<path opacity="0.1" d="M102.841 62.9872C102.331 63.0395 101.837 63.1887 101.326 63.2185C100.814 63.2484 100.253 63.1331 99.9294 62.7592C99.7549 62.5588 99.6687 62.3039 99.5212 62.0844C99.3821 61.8799 99.1912 61.7113 98.9656 61.593C98.8238 61.8558 98.7436 62.1441 98.7297 62.4386C98.7158 62.7329 98.769 63.0269 98.8854 63.3004C99.0019 63.5741 99.1789 63.8213 99.405 64.0255C99.6311 64.2297 99.9008 64.3863 100.196 64.4849C100.492 64.5834 100.806 64.6215 101.119 64.5971C101.431 64.5725 101.734 64.4854 102.008 64.342C102.282 64.1985 102.521 64.002 102.707 63.7652C102.894 63.5284 103.025 63.2571 103.091 62.9691C103.007 62.9732 102.925 62.9787 102.841 62.9872Z" fill="#222222"/>
<path opacity="0.1" d="M103.494 69.2559C103.113 69.2726 102.734 69.1948 102.394 69.0306C102.054 68.866 101.764 68.6208 101.553 68.318C101.342 68.0152 101.216 67.6654 101.188 67.3027C101.16 66.9397 101.23 66.5761 101.392 66.2468C101.568 66.3602 101.718 66.5044 101.836 66.6717C101.994 66.8983 102.09 67.1606 102.274 67.3686C102.615 67.7557 103.207 67.8814 103.739 67.8586C104.271 67.8359 104.787 67.6906 105.318 67.6418C105.392 67.6353 105.467 67.6309 105.545 67.629C105.436 68.0763 105.176 68.4773 104.805 68.771C104.435 69.0648 103.975 69.235 103.494 69.2559Z" fill="#222222"/>
<path opacity="0.1" d="M98.0627 72.5405C97.7701 72.5536 97.4774 72.5115 97.202 72.4165C96.9262 72.3212 96.6729 72.175 96.4563 71.9862C96.2395 71.797 96.0639 71.5692 95.9393 71.3152C95.8146 71.0612 95.7434 70.7861 95.7298 70.5057C95.7123 70.1709 95.7783 69.8372 95.9223 69.5317C96.1064 69.6492 96.266 69.7981 96.3936 69.9711C96.5668 70.2049 96.6756 70.4751 96.8785 70.6913C97.2546 71.0921 97.8873 71.2339 98.4571 71.2208C99.0268 71.2076 99.5417 71.0801 100.091 71.0395C99.9546 71.4589 99.6868 71.8279 99.3241 72.0967C98.9611 72.3653 98.5209 72.5202 98.0627 72.5405Z" fill="#222222"/>
<path opacity="0.1" d="M99.2728 76.8103C99.0044 77.3156 98.5432 77.703 97.9849 77.8918C97.427 78.0807 96.8141 78.0569 96.2739 77.8253C95.7336 77.5935 95.3068 77.1719 95.0821 76.6471C94.8571 76.1226 94.8516 75.5354 95.0662 75.0068C95.256 75.1265 95.4265 75.2724 95.5724 75.4396C95.7917 75.6961 95.9362 75.9868 96.1901 76.2253C96.6644 76.6682 97.4231 76.8511 98.1014 76.8683C98.4928 76.8713 98.8839 76.8519 99.2728 76.8103Z" fill="#222222"/>
<path d="M131.87 80.7554C132.346 79.9224 131.805 78.9018 131.183 78.1583C130.561 77.4146 129.803 76.6429 129.819 75.6952C129.842 74.3357 131.372 73.532 132.593 72.8104C133.501 72.2755 134.339 71.6407 135.088 70.9196C135.402 70.6421 135.661 70.3144 135.854 69.9517C136.107 69.4195 136.099 68.8142 136.085 68.2323C136.032 66.29 135.93 64.3508 135.78 62.4143" stroke="#36ABC5" stroke-opacity="0.1" stroke-width="4" stroke-miterlimit="10"/>
<path d="M138.27 62.312C138.252 61.9455 138.137 61.5888 137.935 61.2753C137.733 60.9619 137.45 60.7013 137.113 60.5181L136.594 61.4883L136.61 60.3134C136.362 60.2449 136.104 60.2157 135.846 60.2266C135.388 60.2469 134.947 60.395 134.578 60.6523C134.209 60.9096 133.929 61.2644 133.773 61.6717C133.618 62.0793 133.594 62.5212 133.704 62.9416C133.815 63.3621 134.055 63.7421 134.394 64.0336C134.733 64.3251 135.156 64.5154 135.609 64.58C136.062 64.6443 136.526 64.5806 136.941 64.3963C137.356 64.2121 137.703 63.9156 137.94 63.5447C138.177 63.1738 138.291 62.7448 138.27 62.312Z" fill="#00879E"/>
<path d="M134.195 76.6306C133.952 77.0494 133.554 77.3814 133.067 77.5709C132.58 77.7603 132.035 77.7956 131.522 77.6711C131.01 77.5465 130.561 77.2695 130.252 76.8868C129.942 76.5038 129.791 76.0382 129.822 75.5681C129.854 75.0978 130.068 74.6519 130.427 74.3045C130.785 73.9571 131.268 73.7297 131.794 73.6604C132.32 73.5909 132.856 73.6839 133.314 73.9235C133.771 74.1633 134.122 74.535 134.307 74.9766L132.859 76.0204L134.455 75.6911C134.454 76.0182 134.365 76.3404 134.195 76.6306Z" fill="#00879E"/>
<path d="M133.065 72.5405C132.761 72.5539 132.457 72.511 132.17 72.4135C131.883 72.316 131.62 72.1663 131.395 71.9728C131.169 71.7792 130.987 71.5457 130.857 71.2857C130.727 71.0256 130.653 70.7442 130.639 70.457C130.621 70.1143 130.69 69.7724 130.839 69.4598C130.978 69.1674 131.183 68.9073 131.439 68.6976C131.696 68.4879 131.999 68.3338 132.325 68.2462L132.312 69.146L132.838 68.1655H132.844C133.148 68.1521 133.452 68.1953 133.739 68.2928C134.026 68.3899 134.289 68.5397 134.514 68.7332C134.74 68.9268 134.922 69.1603 135.052 69.4203C135.182 69.6804 135.256 69.9618 135.27 70.249C135.284 70.5361 135.239 70.823 135.135 71.0932C135.032 71.3637 134.873 71.6122 134.668 71.8247C134.463 72.0371 134.215 72.2093 133.94 72.3316C133.664 72.454 133.365 72.5238 133.061 72.5372L133.065 72.5405Z" fill="#00879E"/>
<path d="M138.538 68.9799C138.233 68.998 137.928 68.9616 137.639 68.8726C137.351 68.7839 137.085 68.6446 136.857 68.4628C136.63 68.2811 136.445 68.0607 136.314 67.8143C136.182 67.5679 136.108 67.3005 136.093 67.0278C136.079 66.7555 136.126 66.4831 136.231 66.2269C136.335 65.9704 136.496 65.7355 136.704 65.5356C136.912 65.3355 137.162 65.1746 137.44 65.0621C137.718 64.9498 138.018 64.888 138.323 64.8806C138.752 64.862 139.178 64.952 139.552 65.1409L139.146 66.1338L139.981 65.4182C140.429 65.7831 140.696 66.2923 140.725 66.8338C140.735 67.0235 140.715 67.2137 140.666 67.3988C140.552 67.8332 140.282 68.2227 139.898 68.5083C139.514 68.7935 139.037 68.9591 138.538 68.9799Z" fill="#00879E"/>
<path opacity="0.1" d="M138.007 62.8403C137.465 62.8972 136.94 63.0601 136.397 63.0924C135.853 63.125 135.257 62.9996 134.914 62.5914C134.728 62.3727 134.636 62.0949 134.48 61.8553C134.332 61.6325 134.129 61.4483 133.889 61.3193C133.739 61.6062 133.653 61.9205 133.639 62.2419C133.624 62.563 133.68 62.8835 133.804 63.1819C133.928 63.4806 134.116 63.7502 134.356 63.9728C134.596 64.1956 134.883 64.3664 135.197 64.474C135.511 64.5816 135.845 64.6232 136.177 64.5963C136.509 64.5695 136.831 64.4748 137.122 64.3182C137.413 64.1619 137.666 63.9473 137.865 63.6889C138.063 63.4307 138.202 63.1345 138.273 62.8206C138.184 62.8252 138.096 62.831 138.007 62.8403Z" fill="#222222"/>
<path opacity="0.1" d="M138.547 68.9822C138.143 68.9989 137.74 68.9211 137.379 68.7569C137.018 68.5924 136.71 68.3471 136.485 68.0443C136.261 67.7416 136.127 67.3917 136.097 67.029C136.067 66.666 136.142 66.3025 136.315 65.9731C136.501 66.0865 136.661 66.2307 136.786 66.398C136.954 66.6247 137.055 66.8869 137.252 67.095C137.614 67.4821 138.242 67.6077 138.808 67.585C139.374 67.5623 139.921 67.4169 140.486 67.3682C140.564 67.3616 140.644 67.3572 140.727 67.3553C140.61 67.8026 140.334 68.2036 139.941 68.4974C139.548 68.7911 139.058 68.9614 138.547 68.9822Z" fill="#222222"/>
<path opacity="0.1" d="M133.118 72.5405C132.807 72.5536 132.497 72.5115 132.204 72.4165C131.911 72.3212 131.642 72.175 131.411 71.9862C131.181 71.797 130.995 71.5692 130.862 71.3152C130.73 71.0612 130.654 70.7861 130.64 70.5057C130.621 70.1709 130.691 69.8372 130.844 69.5317C131.04 69.6492 131.209 69.7981 131.345 69.9711C131.529 70.2049 131.644 70.4751 131.86 70.6913C132.26 71.0921 132.932 71.2339 133.537 71.2208C134.124 71.2098 134.69 71.0801 135.273 71.0395C135.128 71.4589 134.844 71.8279 134.458 72.0967C134.073 72.3653 133.605 72.5202 133.118 72.5405Z" fill="#222222"/>
<path opacity="0.1" d="M134.182 76.6463C133.914 77.1057 133.452 77.4577 132.894 77.6296C132.336 77.8012 131.723 77.7796 131.183 77.5691C130.643 77.3583 130.216 76.9751 129.991 76.4982C129.766 76.0211 129.761 75.4873 129.975 75.0068C130.165 75.1158 130.336 75.2483 130.482 75.4002C130.701 75.6334 130.845 75.8979 131.099 76.1147C131.574 76.5174 132.332 76.6835 133.011 76.6989C133.402 76.7019 133.793 76.6841 134.182 76.6463Z" fill="#222222"/>
<path d="M21.1308 79.3867C20.6546 78.5537 21.1956 77.5332 21.8175 76.7897C22.4395 76.0459 23.1978 75.2742 23.1817 74.3265C23.1585 72.9671 21.6279 72.1633 20.4072 71.4418C19.4992 70.9068 18.6618 70.272 17.9124 69.551C17.5986 69.2734 17.3392 68.9457 17.146 68.583C16.8928 68.0508 16.9009 67.4456 16.9148 66.8636C16.968 64.9214 17.0697 62.9821 17.22 61.0457" stroke="#36ABC5" stroke-opacity="0.1" stroke-width="4" stroke-miterlimit="10"/>
<path d="M15.0024 60.813C15.0193 60.4691 15.1278 60.1349 15.3181 59.8409C15.5083 59.5469 15.7742 59.303 16.0911 59.1311L16.5799 60.0405L16.5653 58.9392C16.7985 58.8748 17.0413 58.8475 17.284 58.8579C17.715 58.8768 18.1304 59.0155 18.4776 59.2567C18.8247 59.4979 19.0881 59.8305 19.2344 60.2126C19.3807 60.5945 19.4034 61.009 19.2995 61.4029C19.1956 61.7971 18.9698 62.1535 18.6508 62.4267C18.3317 62.7002 17.9337 62.8784 17.507 62.9389C17.0803 62.9994 16.6441 62.9394 16.2536 62.7667C15.8631 62.594 15.5358 62.3161 15.3131 61.9685C15.0904 61.6205 14.9822 61.2184 15.0024 60.813Z" fill="#00879E"/>
<path d="M19.0628 75.2619C19.2917 75.6807 19.6665 76.0128 20.1245 76.2022C20.5825 76.3917 21.0957 76.427 21.5781 76.3024C22.0605 76.1779 22.4828 75.9008 22.7741 75.5181C23.0654 75.1352 23.208 74.6695 23.1781 74.1995C23.1481 73.7292 22.9474 73.2833 22.6096 72.9359C22.2717 72.5885 21.8173 72.361 21.3226 72.2917C20.8278 72.2222 20.3228 72.3153 19.8921 72.5548C19.4615 72.7946 19.1315 73.1664 18.9574 73.6079L20.3206 74.6517L18.8184 74.3224C18.819 74.6495 18.9028 74.9717 19.0628 75.2619Z" fill="#00879E"/>
<path d="M20.0744 71.1719C20.3612 71.1853 20.6479 71.1423 20.9181 71.0448C21.1883 70.9474 21.4366 70.7976 21.6489 70.6041C21.8613 70.4106 22.0334 70.1771 22.1556 69.917C22.2778 69.6569 22.3476 69.3755 22.361 69.0884C22.378 68.7456 22.3133 68.4037 22.1722 68.0911C22.0416 67.7987 21.8485 67.5387 21.6067 67.329C21.3648 67.1193 21.0799 66.9652 20.7722 66.8776L20.7845 67.7774L20.289 66.7968C19.7097 66.7697 19.1433 66.9739 18.7145 67.3646C18.2857 67.7555 18.0295 68.3005 18.0024 68.8803C17.9753 69.4601 18.1794 70.0268 18.5699 70.456C18.9604 70.885 19.5052 71.1415 20.0845 71.1686L20.0744 71.1719Z" fill="#00879E"/>
<path d="M14.7347 67.6111C15.0392 67.6292 15.3447 67.5928 15.6332 67.5038C15.9218 67.4151 16.1877 67.2758 16.4153 67.094C16.6429 66.9122 16.8277 66.6919 16.9589 66.4455C17.0901 66.1988 17.165 65.9317 17.1793 65.659C17.1935 65.3864 17.1469 65.114 17.042 64.8578C16.9371 64.6015 16.7761 64.3664 16.5685 64.1666C16.3608 63.9664 16.1107 63.8055 15.8326 63.6932C15.5546 63.5807 15.2543 63.5189 14.9492 63.5115C14.5225 63.4937 14.0989 63.584 13.7269 63.7718L14.1324 64.7647L13.2919 64.0521C12.8448 64.4165 12.5774 64.9246 12.5481 65.4647C12.5377 65.6546 12.5575 65.8449 12.6071 66.0297C12.7211 66.4644 12.9906 66.8539 13.3745 67.1392C13.7585 67.4247 14.236 67.5903 14.7347 67.6111Z" fill="#00879E"/>
<path opacity="0.1" d="M15.2506 61.3449C15.7598 61.3972 16.2542 61.5464 16.7657 61.5762C17.2771 61.606 17.8385 61.4908 18.1616 61.1168C18.3363 60.9165 18.4225 60.6616 18.5699 60.4421C18.7091 60.2376 18.9 60.0689 19.1256 59.9507C19.2672 60.2135 19.3477 60.5017 19.3615 60.7963C19.3753 61.0906 19.3222 61.3846 19.2058 61.658C19.0894 61.9318 18.9122 62.179 18.6862 62.3832C18.4601 62.5874 18.1903 62.744 17.8949 62.8426C17.5994 62.9411 17.2849 62.9792 16.9725 62.9548C16.66 62.9302 16.3567 62.8431 16.0828 62.6997C15.8089 62.5562 15.5707 62.3597 15.384 62.1229C15.1972 61.8861 15.0664 61.6148 15 61.3268C15.0839 61.3309 15.1667 61.3364 15.2506 61.3449Z" fill="#222222"/>
<path opacity="0.1" d="M14.5969 67.6133C14.9776 67.63 15.3563 67.5522 15.6963 67.388C16.0363 67.2235 16.3261 66.9782 16.5375 66.6754C16.749 66.3727 16.8748 66.0228 16.903 65.6601C16.9312 65.2971 16.8606 64.9336 16.6983 64.6042C16.5232 64.7176 16.3725 64.8618 16.2544 65.0291C16.0966 65.2558 16.0012 65.518 15.8161 65.7261C15.4756 66.1131 14.8841 66.2388 14.3516 66.2161C13.8192 66.1933 13.3038 66.048 12.7725 65.9993C12.6987 65.9927 12.6237 65.9883 12.5454 65.9864C12.6552 66.4337 12.9149 66.8347 13.2852 67.1285C13.6555 67.4222 14.116 67.5925 14.5969 67.6133Z" fill="#222222"/>
<path opacity="0.1" d="M20.1547 71.1718C20.4657 71.185 20.7765 71.1428 21.0694 71.0478C21.3622 70.9526 21.6314 70.8064 21.8616 70.6175C22.0918 70.4283 22.2784 70.2006 22.4108 69.9465C22.5433 69.6925 22.6189 69.4174 22.6335 69.1371C22.6519 68.8023 22.5818 68.4686 22.4288 68.1631C22.2334 68.2805 22.0637 68.4294 21.9282 68.6024C21.7443 68.8362 21.6286 69.1064 21.413 69.3227C21.0135 69.7234 20.3411 69.8652 19.7357 69.8521C19.1486 69.8412 18.5834 69.7114 18 69.6709C18.1446 70.0903 18.429 70.4593 18.8146 70.7281C19.2001 70.9966 19.668 71.1516 20.1547 71.1718Z" fill="#222222"/>
<path opacity="0.1" d="M19.0908 75.2774C19.3425 75.7368 19.7747 76.0888 20.298 76.2607C20.8214 76.4323 21.3957 76.4107 21.9023 76.2002C22.4089 75.9894 22.809 75.6062 23.0197 75.1293C23.2305 74.6522 23.2358 74.1184 23.0346 73.6379C22.8565 73.7469 22.6966 73.8794 22.5599 74.0313C22.3543 74.2645 22.2187 74.529 21.9808 74.7458C21.5362 75.1485 20.8248 75.3146 20.189 75.33C19.8222 75.333 19.4554 75.3152 19.0908 75.2774Z" fill="#222222"/>
<path d="M44.8726 76.2155L46.405 75.3631C46.198 75.028 45.9332 74.728 45.6215 74.4756L42.7314 75.3258L44.9956 74.066C44.4349 73.7756 43.804 73.6281 43.1648 73.6385C42.5255 73.6486 41.9001 73.8164 41.3503 74.1246C40.8002 74.4331 40.3448 74.8717 40.0281 75.3973C39.7118 75.9229 39.5454 76.5175 39.5454 77.1224C39.5454 79.0463 41.194 79.1129 43.2272 79.1129C45.2604 79.1129 46.909 79.0463 46.909 77.1224C46.9101 76.6349 46.8024 76.1526 46.5927 75.7069L44.8726 76.2155Z" fill="#00879E"/>
<path opacity="0.1" d="M45.3057 78.0737C45.1412 77.9172 44.9577 77.7797 44.7586 77.6648C44.4793 77.4874 44.1883 77.3067 43.8578 77.2473C43.5681 77.1945 43.269 77.2396 42.9733 77.2229C42.46 77.1931 41.9768 76.9826 41.6181 76.6325C41.4071 76.4252 41.2415 76.1706 40.9876 76.0119C40.7037 75.8517 40.369 75.7934 40.044 75.8476C39.9496 75.8602 39.8563 75.8783 39.7644 75.9018C39.6193 76.2856 39.5451 76.6905 39.5454 77.0984C39.5454 79.0455 41.2066 79.1129 43.2551 79.1129C44.2497 79.1129 45.1516 79.0976 45.8181 78.8583L45.7022 78.6612C45.597 78.4501 45.4636 78.2528 45.3057 78.0737Z" fill="#222222"/>
<path opacity="0.1" d="M24.0713 41.8345C22.3644 42.3532 20.7667 43.6097 20.3403 45.353C19.8526 47.3562 20.9773 49.3757 21.1398 51.4326C21.6648 58.1723 12.1375 62.927 13.4966 69.5473C14.0363 72.1794 16.2176 74.1156 18.3669 75.7153C21.8101 78.27 25.6303 80.5267 29.861 81.1635C36.2821 82.1317 42.9912 79.2864 49.2329 81.0844C54.2669 82.5352 58.1191 86.7873 63.1188 88.3562C66.9241 89.5511 71.0243 89.0802 74.9778 88.5963C77.1097 88.3362 79.343 88.0359 81.0634 86.7485C84.2614 84.3523 84.4624 79.6201 86.6039 76.2289C89.911 70.9995 97.1625 69.9721 103.243 70.9886C109.323 72.005 115.227 74.5073 121.387 74.3034C122.704 74.2593 124.052 74.0794 125.201 73.429C126.597 72.6393 127.541 71.2475 128.375 69.8703C133.588 61.2306 136.45 51.362 136.672 41.2563C136.708 39.52 136.647 37.7083 135.836 36.1756C134.81 34.2366 132.759 33.0768 130.717 32.2963C125.815 30.4192 120.4 30.1121 115.596 27.9946C110.963 25.9525 107.211 22.3709 103.176 19.3015C95.1356 13.1966 85.816 9.01989 75.928 7.08975C73.6106 6.63919 71.2054 6.31737 68.903 6.83766C66.25 7.43705 63.9634 9.10114 61.9073 10.8926C56.4375 15.6582 52.0537 21.5382 47.0129 26.7611C43.5353 30.3628 39.7488 33.6489 35.6974 36.5807C33.8317 37.9336 31.849 39.5399 29.7705 40.5405C27.8677 41.4548 26.0834 41.2243 24.0713 41.8345Z" fill="#00879E"/>
</svg>
