<svg xmlns="http://www.w3.org/2000/svg" width="128" height="40" viewBox="0 0 128 40"><defs><style>.a{fill:#555}.b,.c{fill:#fff}.c{fill-rule:evenodd}</style></defs><path class="a" d="M124 40H4a4.012 4.012 0 0 1-4-4V4a4.012 4.012 0 0 1 4-4h120a4.012 4.012 0 0 1 4 4v32a4.012 4.012 0 0 1-4 4z"/><path class="b" d="M41.086 12.952a2.492 2.492 0 0 1-1.669-.584 2.688 2.688 0 0 1-.855-1.627h.782a1.936 1.936 0 0 0 .615 1.106 1.745 1.745 0 0 0 1.168.407 1.769 1.769 0 0 0 1.179-.386 1.292 1.292 0 0 0 .459-1.043q0-1.387-1.512-1.387h-.939v-.689h.97a1.378 1.378 0 0 0 1-.344 1.331 1.331 0 0 0 .365-1 1.2 1.2 0 0 0-.407-.97 1.657 1.657 0 0 0-1.106-.344 1.68 1.68 0 0 0-1.158.417 2.017 2.017 0 0 0-.615 1.106h-.793a2.626 2.626 0 0 1 .866-1.627 2.552 2.552 0 0 1 1.71-.584 2.452 2.452 0 0 1 1.648.542 1.755 1.755 0 0 1 .647 1.429 1.718 1.718 0 0 1-1.074 1.69 1.725 1.725 0 0 1 1.189 1.783 1.9 1.9 0 0 1-.7 1.533 2.7 2.7 0 0 1-1.77.572zm8.075-.063h-.751v-.49a1.8 1.8 0 0 1-.636.428 2.433 2.433 0 0 1-.845.125 2 2 0 0 1-1.45-.469 1.388 1.388 0 0 1-.386-1.043 1.359 1.359 0 0 1 .459-1.085 2 2 0 0 1 1.325-.4h1.533v-.49a1.06 1.06 0 0 0-.313-.845 1.448 1.448 0 0 0-1-.282 1.851 1.851 0 0 0-.772.136 1.447 1.447 0 0 0-.521.459l-.513-.466a1.727 1.727 0 0 1 .741-.6 2.928 2.928 0 0 1 1.074-.168q2.055 0 2.055 1.71zm-.751-1.815v-.553h-1.429q-1.158 0-1.158.907 0 .876 1.189.876a1.635 1.635 0 0 0 1.137-.344 1.205 1.205 0 0 0 .261-.885zm6.773.4a1.369 1.369 0 0 1-.407 1.043 1.6 1.6 0 0 1-1.126.375h-2.441V7.758h2.382a1.575 1.575 0 0 1 1.1.375 1.225 1.225 0 0 1 .417.97 1.11 1.11 0 0 1-.814 1.126 1.236 1.236 0 0 1 .888 1.242zm-.824-2.3q0-.761-.907-.761h-1.5v1.533h1.5q.907-.008.907-.78zm-.168 2.839a.882.882 0 0 0 0-1.231.942.942 0 0 0-.678-.229h-1.564v1.69h1.564a.942.942 0 0 0 .678-.23zm6.5.876h-.751v-.49a1.8 1.8 0 0 1-.636.428 2.433 2.433 0 0 1-.845.125 2 2 0 0 1-1.45-.469 1.388 1.388 0 0 1-.386-1.043 1.359 1.359 0 0 1 .459-1.085 2 2 0 0 1 1.325-.4h1.533v-.49a1.06 1.06 0 0 0-.313-.845 1.448 1.448 0 0 0-1-.282 1.851 1.851 0 0 0-.772.136 1.447 1.447 0 0 0-.521.459l-.511-.469a1.727 1.727 0 0 1 .741-.6 2.928 2.928 0 0 1 1.071-.165q2.055 0 2.055 1.71zm-.751-1.815v-.553h-1.43q-1.158 0-1.158.907 0 .876 1.189.876a1.635 1.635 0 0 0 1.137-.344 1.205 1.205 0 0 0 .261-.885zm6.761 1.815h-.751v-2.325h-2.482v2.325h-.741V7.758h.741v2.159h2.482V7.758h.751zm5.4-4.485h-1.68v4.485h-.751V8.405h-1.762v-.647h4.193zm4.86 4.485h-.751v-.49a1.8 1.8 0 0 1-.636.428 2.433 2.433 0 0 1-.845.125 2 2 0 0 1-1.45-.469 1.388 1.388 0 0 1-.388-1.043 1.359 1.359 0 0 1 .459-1.085 2 2 0 0 1 1.325-.4h1.533v-.49a1.06 1.06 0 0 0-.313-.845 1.448 1.448 0 0 0-1-.282 1.851 1.851 0 0 0-.772.136 1.447 1.447 0 0 0-.521.459l-.511-.466a1.727 1.727 0 0 1 .741-.6 2.928 2.928 0 0 1 1.073-.168q2.055 0 2.055 1.71zm-.751-1.815v-.553h-1.43q-1.158 0-1.158.907 0 .876 1.189.876a1.635 1.635 0 0 0 1.137-.344 1.205 1.205 0 0 0 .261-.885zm9.265 1.815h-.949l-2.347-2.66 2.18-2.472h.907l-2.2 2.42zm-3.306 0h-.741V7.758h.741zm-3.1 0h-.949l2.409-2.712-2.2-2.42h.918l2.169 2.472zm11.222-5.131l-2.336 6.372a1.344 1.344 0 0 1-1.366.96h-.323v-.667h.225a.894.894 0 0 0 .535-.124 1.039 1.039 0 0 0 .313-.511l.365-1-1.846-5.03h.814l1.408 4.12 1.4-4.12zm4.863-2.211q-.084 1.314-1.523 1.314t-1.523-1.314h.667a.859.859 0 0 0 1.71 0zm.542 7.342h-.751V8.916l-2.638 3.973h-.741V7.758h.741v3.953l2.639-3.953h.751zm5.405-4.485h-1.679v4.485h-.751V8.405h-1.762v-.647h4.193zm5.182 2.117h-3.462a1.99 1.99 0 0 0 .386 1.314 1.388 1.388 0 0 0 1.126.459 1.732 1.732 0 0 0 .73-.136 2.115 2.115 0 0 0 .615-.448l.511.448a2.87 2.87 0 0 1-.834.6 2.543 2.543 0 0 1-1.043.188 2.14 2.14 0 0 1-1.658-.647 2.906 2.906 0 0 1-.584-1.982 2.968 2.968 0 0 1 .563-1.929 2.086 2.086 0 0 1 3.087-.031 2.717 2.717 0 0 1 .563 1.825zm-.741-.563a2.532 2.532 0 0 0-.167-.855 1.318 1.318 0 0 0-2.4 0 2.491 2.491 0 0 0-.156.855zm8.743 1.481a1.291 1.291 0 0 1-.574 1.1 2.27 2.27 0 0 1-1.366.407 2.938 2.938 0 0 1-2.055-.73l.469-.49a2.34 2.34 0 0 0 .678.448 2.418 2.418 0 0 0 .824.125 1.7 1.7 0 0 0 .9-.24.775.775 0 0 0 .1-1.283 1.207 1.207 0 0 0-.761-.219h-.751v-.626h.761a1.034 1.034 0 0 0 .688-.219.734.734 0 0 0 .271-.6.648.648 0 0 0-.313-.584 1.531 1.531 0 0 0-.845-.2 2.358 2.358 0 0 0-1.377.428l-.428-.5a3.113 3.113 0 0 1 1.885-.557 2.143 2.143 0 0 1 1.3.375 1.173 1.173 0 0 1 .511 1.012 1.191 1.191 0 0 1-.219.7 1.142 1.142 0 0 1-.594.448 1.23 1.23 0 0 1 .647.448 1.208 1.208 0 0 1 .25.758z"/><path class="c" d="M9.8 19.6V9.1a1.1 1.1 0 0 1 1-1.1 1.493 1.493 0 0 1 1 .3l19.3 10.6a.833.833 0 0 1 0 1.6L11.8 31.1a1.964 1.964 0 0 1-1 .3 1.1 1.1 0 0 1-1-1.1z"/><path class="c" d="M22.3 19.7L10.6 8h.2a1.493 1.493 0 0 1 1 .3L26 16.1z"/><path class="c" d="M25.9 23.2l-3.6-3.6 3.7-3.7 5.1 2.8a.833.833 0 0 1 0 1.6zM10.7 31.2l11.6-11.6 3.6 3.6-14.1 7.7a1.609 1.609 0 0 1-1.1.3zM71.096 33.901a4.789 4.789 0 0 1-1.1-1.5l1.6-.7a9.2 9.2 0 0 0 .5.8 2.469 2.469 0 0 0 1.6.8 2.29 2.29 0 0 0 1.7-.8 3.1 3.1 0 0 0 .5-1.7v-.6c-1.2 1.5-3.7 1.3-5.1-.3a4.43 4.43 0 0 1 0-5.9c1.5-1.5 3.7-1.7 5-.3v-.7h1.7v7.5a4.333 4.333 0 0 1-1.6 3.7 3.691 3.691 0 0 1-2.3.7 4.588 4.588 0 0 1-2.5-1zm41.9.4l1.7-4-3-6.9h1.7l2.1 4.9 2.1-4.9h1.7l-4.6 10.9zm-8.1-3.8a2.637 2.637 0 0 1-.7-1.9 2.271 2.271 0 0 1 .6-1.6 3.856 3.856 0 0 1 2.8-1 3.426 3.426 0 0 1 1.8.4 1.7 1.7 0 0 0-1.8-1.7 1.849 1.849 0 0 0-1.7 1.1l-1.5-.6a3.176 3.176 0 0 1 3.1-2 3.391 3.391 0 0 1 2.6 1 3.687 3.687 0 0 1 .8 2.6v4.2h-1.7v-.7a3.12 3.12 0 0 1-.9.7 3.2 3.2 0 0 1-1.4.3 3.858 3.858 0 0 1-2-.8zm-53.3-3.6a4.152 4.152 0 0 1 4.2-4.2 4.218 4.218 0 0 1 4.2 4.2 4.2 4.2 0 0 1-8.4 0zm9 0a4.152 4.152 0 0 1 4.2-4.2 4.218 4.218 0 0 1 4.2 4.2 4.152 4.152 0 0 1-4.2 4.2 4.218 4.218 0 0 1-4.2-4.2zm-20.3 2.2a6.582 6.582 0 0 1 .1-9.2 6.349 6.349 0 0 1 4.6-1.9 6.2 6.2 0 0 1 4.4 1.8l-1.2 1.3a4.467 4.467 0 0 0-6.4.1 4.831 4.831 0 0 0 0 6.7 4.535 4.535 0 0 0 6.6.1 3.6 3.6 0 0 0 .9-2.2h-4.2v-1.8h5.9a6.148 6.148 0 0 1 .1 1.4 5.76 5.76 0 0 1-1.6 4 6.132 6.132 0 0 1-4.3 1.7 7.426 7.426 0 0 1-4.9-2zm42.3.7a4.562 4.562 0 0 1 0-6 3.637 3.637 0 0 1 5.4 0 5.926 5.926 0 0 1 1.1 1.9l-5.5 2.3a2.133 2.133 0 0 0 2 1.3 2.265 2.265 0 0 0 2.1-1.2l1.5 1a2.649 2.649 0 0 0-.5.6 4.379 4.379 0 0 1-6.1.1zm10.4 1.2v-11.1h3.6a3.591 3.591 0 0 1 3.8 3.3 3.351 3.351 0 0 1-3.4 3.3h-2.2v4.4h-1.8zm8.4 0v-11.1h1.7v11.1zm-22.6-.2v-12.4h1.8v12.4zm30.5-3.1a2.724 2.724 0 0 0-1.6-.4c-1.2 0-1.9.6-1.9 1.3a1.257 1.257 0 0 0 1.4 1.1 2.09 2.09 0 0 0 2.1-2zm-51.2-.8a2.308 2.308 0 1 0-2.3 2.5 2.433 2.433 0 0 0 2.3-2.5zm9 0a2.308 2.308 0 1 0-2.3 2.5 2.365 2.365 0 0 0 2.3-2.5zm8.9.7a.367.367 0 0 1 .1-.3v-.9c0-.1-.1-.3-.1-.4a2.32 2.32 0 0 0-2.1-1.7 2.428 2.428 0 0 0-2.2 2.5 2.375 2.375 0 0 0 2.3 2.5c.8.1 1.6-.6 2-1.7zm7.3-.9l3.7-1.6a1.669 1.669 0 0 0-1.5-.9 2.424 2.424 0 0 0-2.2 2.5zm15.3-3.4a1.741 1.741 0 0 0-1.9-1.7h-2v3.5h2.1a1.793 1.793 0 0 0 1.8-1.8z"/><path class="c" d="M114.301 32.301h-.1v-.1.1zM114.501 32.301zm0-.1c0 .1-.1.1 0 0zM114.601 32.2z"/></svg>