<svg width="120" height="86" viewBox="0 0 120 86" fill="none" xmlns="http://www.w3.org/2000/svg">
<g clip-path="url(#clip0_3395_32056)">
<path opacity="0.1" d="M118.1 57.741C115.317 63.4825 109.665 67.3216 103.809 69.8534C95.924 73.2631 87.2411 74.6154 78.6777 74.0435C77.177 73.9436 75.6808 73.7841 74.1891 73.5648C69.0085 72.809 63.9578 71.3382 59.1814 69.1946C57.8029 68.5737 56.4523 67.896 55.1296 67.1613C52.9204 65.9369 50.8037 64.5525 48.7963 63.0195C48.2914 62.634 47.7935 62.2387 47.3026 61.8337C46.9622 61.5529 46.6249 61.2659 46.2823 60.9873C45.5595 60.3996 44.8158 59.8413 43.9862 59.4234C43.7358 59.2972 43.4792 59.1839 43.2173 59.084C40.5901 58.0846 37.5607 58.4617 34.8257 59.2411C32.7453 59.834 30.7173 60.6458 28.639 61.2251C27.7146 61.4906 26.7727 61.6908 25.8202 61.8242C23.6936 62.0934 21.534 61.9038 19.4869 61.268L19.312 61.2135C19.0187 61.1214 18.7278 61.0205 18.4394 60.9108L18.2645 60.8438C17.9851 60.7362 17.7117 60.6207 17.4443 60.4971L17.2693 60.4174C16.99 60.2875 16.7166 60.1503 16.4491 60.0058C16.3528 59.9555 16.2574 59.901 16.1632 59.8497C14.6414 58.9998 13.2582 57.9228 12.0611 56.6558C12.0265 56.6213 11.9941 56.5856 11.9563 56.5511C11.7898 56.3709 11.6264 56.1876 11.4682 56.0001C11.4095 55.9309 11.3509 55.8618 11.2933 55.7906C11.1054 55.5615 10.9242 55.3272 10.7496 55.0877C10.7234 55.0531 10.6983 55.0175 10.6731 54.9829C9.95786 53.9934 9.36485 52.921 8.90703 51.7891C8.89237 51.7545 8.87875 51.7189 8.86618 51.6843C8.72651 51.3247 8.59907 50.9591 8.48384 50.5876C8.4367 50.4325 8.39166 50.2733 8.35185 50.1183C8.33823 50.0722 8.32566 50.0251 8.31414 49.979C7.73591 47.7027 7.66992 45.3364 7.66992 42.9837C7.66992 42.7092 7.66992 42.4351 7.66992 42.1614C7.68668 38.3558 7.74534 34.4852 8.30681 30.732C8.30681 30.7058 8.31414 30.6796 8.31833 30.6544C8.50625 29.3909 8.76186 28.1384 9.08407 26.9022C9.42128 25.6052 9.85224 24.3344 10.3736 23.0998C11.6651 20.062 13.5433 17.2976 15.6289 14.7354C20.8822 8.28792 27.7717 2.87542 35.8355 0.849528C44.5246 -1.33244 54.1816 0.758394 61.1905 6.3385C63.3275 8.03966 65.2475 10.054 67.6474 11.3582C69.7424 12.4937 72.1947 12.964 74.4384 12.0705C76.2925 11.332 77.4993 10.9654 79.5817 11.0774C83.8929 11.3213 88.1429 12.2115 92.1896 13.7182C92.353 13.7779 92.5164 13.8397 92.6788 13.9015C103.228 17.9376 112.297 25.9563 117.01 36.2607C117.135 36.5331 117.257 36.8075 117.374 37.0841C120.184 43.6488 121.2 51.3428 118.1 57.741Z" fill="#00879E"/>
<path opacity="0.1" d="M12.6015 77.8292C17.7087 77.8292 21.8489 77.1642 21.8489 76.3438C21.8489 75.5235 17.7087 74.8585 12.6015 74.8585C7.49423 74.8585 3.354 75.5235 3.354 76.3438C3.354 77.1642 7.49423 77.8292 12.6015 77.8292Z" fill="#00879E"/>
<path d="M110.406 11.2869H13.4739C12.7513 11.2869 12.1655 11.8727 12.1655 12.5953V66.3694C12.1655 67.092 12.7513 67.6778 13.4739 67.6778H110.406C111.128 67.6778 111.714 67.092 111.714 66.3694V12.5953C111.714 11.8727 111.128 11.2869 110.406 11.2869Z" fill="url(#paint0_linear_3395_32056)"/>
<path d="M110.259 12.08H13.6326C12.91 12.08 12.3242 12.6657 12.3242 13.3883V66.182C12.3242 66.9046 12.91 67.4903 13.6326 67.4903H110.259C110.982 67.4903 111.568 66.9046 111.568 66.182V13.3883C111.568 12.6657 110.982 12.08 110.259 12.08Z" fill="white"/>
<path d="M110.259 12.08H13.6326C12.91 12.08 12.3242 12.6657 12.3242 13.3883V66.182C12.3242 66.9046 12.91 67.4903 13.6326 67.4903H110.259C110.982 67.4903 111.568 66.9046 111.568 66.182V13.3883C111.568 12.6657 110.982 12.08 110.259 12.08Z" fill="white"/>
<path opacity="0.04" d="M110.259 12.08H13.6326C12.91 12.08 12.3242 12.6657 12.3242 13.3883V66.182C12.3242 66.9046 12.91 67.4903 13.6326 67.4903H110.259C110.982 67.4903 111.568 66.9046 111.568 66.182V13.3883C111.568 12.6657 110.982 12.08 110.259 12.08Z" fill="white"/>
<path d="M111.064 11.4441H12.8281C12.6944 11.4441 12.5663 11.4972 12.4718 11.5917C12.3773 11.6861 12.3242 11.8143 12.3242 11.9479V14.0775H111.564V11.9479C111.564 11.815 111.511 11.6875 111.417 11.5931C111.324 11.4988 111.197 11.4452 111.064 11.4441Z" fill="#5A5773"/>
<path d="M14.3059 13.4418C14.6819 13.4418 14.9868 13.1369 14.9868 12.7609C14.9868 12.3848 14.6819 12.08 14.3059 12.08C13.9298 12.08 13.625 12.3848 13.625 12.7609C13.625 13.1369 13.9298 13.4418 14.3059 13.4418Z" fill="white"/>
<path d="M16.1389 13.4418C16.5149 13.4418 16.8198 13.1369 16.8198 12.7609C16.8198 12.3848 16.5149 12.08 16.1389 12.08C15.7628 12.08 15.458 12.3848 15.458 12.7609C15.458 13.1369 15.7628 13.4418 16.1389 13.4418Z" fill="white"/>
<path d="M17.9724 13.4418C18.3484 13.4418 18.6533 13.1369 18.6533 12.7609C18.6533 12.3848 18.3484 12.08 17.9724 12.08C17.5963 12.08 17.2915 12.3848 17.2915 12.7609C17.2915 13.1369 17.5963 13.4418 17.9724 13.4418Z" fill="white"/>
<path opacity="0.2" d="M47.1306 19.0301H20.4976V21.2907H47.1306V19.0301Z" fill="#00879E"/>
<path opacity="0.1" d="M103.394 28.0944H20.4976V62.8676H103.394V28.0944Z" fill="#5A5773"/>
<path opacity="0.1" d="M69.034 30.3622H67.6146V27.6051C67.6146 24.494 65.1341 21.9077 62.023 21.8606C61.2728 21.8527 60.5285 21.9933 59.8329 22.2744C59.1373 22.5555 58.5042 22.9715 57.9701 23.4984C57.436 24.0253 57.0115 24.6527 56.721 25.3444C56.4305 26.0361 56.2797 26.7784 56.2774 27.5287V30.3622H54.8612C54.2353 30.3641 53.6356 30.6136 53.193 31.0562C52.7504 31.4987 52.501 32.0984 52.499 32.7243V44.0605C52.501 44.6864 52.7504 45.2861 53.193 45.7287C53.6356 46.1713 54.2353 46.4207 54.8612 46.4227H69.034C69.6598 46.4207 70.2594 46.1712 70.7018 45.7286C71.1442 45.286 71.3934 44.6863 71.3951 44.0605V32.7243C71.3934 32.0985 71.1442 31.4988 70.7018 31.0562C70.2594 30.6136 69.6598 30.3641 69.034 30.3622ZM62.7751 37.7314V41.7916C62.7765 42.0066 62.6961 42.2141 62.5502 42.372C62.4043 42.5299 62.2039 42.6265 61.9895 42.6422C61.8775 42.6474 61.7657 42.6299 61.6607 42.5907C61.5557 42.5515 61.4598 42.4914 61.3787 42.414C61.2977 42.3367 61.2331 42.2437 61.189 42.1406C61.1449 42.0376 61.1222 41.9267 61.1221 41.8147V37.7294C60.7389 37.5425 60.4304 37.2312 60.2468 36.8464C60.0632 36.4616 60.0155 36.0259 60.1114 35.6105C60.2073 35.1951 60.4412 34.8244 60.7748 34.559C61.1085 34.2936 61.5223 34.1491 61.9486 34.1491C62.375 34.1491 62.7887 34.2936 63.1224 34.559C63.4561 34.8244 63.6899 35.1951 63.7858 35.6105C63.8817 36.0259 63.834 36.4616 63.6504 36.8464C63.4669 37.2312 63.1583 37.5425 62.7751 37.7294V37.7314ZM65.9637 30.3622H57.9304V27.5287C57.9304 26.4638 58.3534 25.4425 59.1064 24.6895C59.8594 23.9366 60.8806 23.5135 61.9455 23.5135C63.0104 23.5135 64.0316 23.9366 64.7846 24.6895C65.5376 25.4425 65.9606 26.4638 65.9606 27.5287L65.9637 30.3622Z" fill="black"/>
<path d="M69.034 30.1527H67.6146V27.3956C67.6146 24.2845 65.1341 21.6982 62.023 21.6511C61.2728 21.6432 60.5285 21.7838 59.8329 22.0649C59.1373 22.346 58.5042 22.762 57.9701 23.2889C57.436 23.8158 57.0115 24.4432 56.721 25.1349C56.4305 25.8266 56.2797 26.5689 56.2774 27.3192V30.1527H54.8612C54.2353 30.1546 53.6356 30.4041 53.193 30.8467C52.7504 31.2892 52.501 31.8889 52.499 32.5148V43.851C52.501 44.4769 52.7504 45.0766 53.193 45.5192C53.6356 45.9617 54.2353 46.2112 54.8612 46.2131H69.034C69.6598 46.2112 70.2594 45.9617 70.7018 45.5191C71.1442 45.0765 71.3934 44.4768 71.3951 43.851V32.5148C71.3934 31.889 71.1442 31.2893 70.7018 30.8467C70.2594 30.4041 69.6598 30.1546 69.034 30.1527ZM62.7751 37.5219V41.5821C62.7765 41.7971 62.6961 42.0045 62.5502 42.1625C62.4043 42.3204 62.2039 42.417 61.9895 42.4327C61.8775 42.4379 61.7657 42.4204 61.6607 42.3812C61.5557 42.342 61.4598 42.2818 61.3787 42.2045C61.2977 42.1271 61.2331 42.0341 61.189 41.9311C61.1449 41.8281 61.1222 41.7172 61.1221 41.6051V37.5198C60.7389 37.333 60.4304 37.0217 60.2468 36.6369C60.0632 36.2521 60.0155 35.8164 60.1114 35.401C60.2073 34.9856 60.4412 34.6149 60.7748 34.3495C61.1085 34.0841 61.5223 33.9396 61.9486 33.9396C62.375 33.9396 62.7887 34.0841 63.1224 34.3495C63.4561 34.6149 63.6899 34.9856 63.7858 35.401C63.8817 35.8164 63.834 36.2521 63.6504 36.6369C63.4669 37.0217 63.1583 37.333 62.7751 37.5198V37.5219ZM65.9637 30.1527H57.9304V27.3192C57.9304 26.2543 58.3534 25.233 59.1064 24.48C59.8594 23.7271 60.8806 23.304 61.9455 23.304C63.0104 23.304 64.0316 23.7271 64.7846 24.48C65.5376 25.233 65.9606 26.2543 65.9606 27.3192L65.9637 30.1527Z" fill="#00879E"/>
<path opacity="0.1" d="M103.394 24.7475H95.0034V26.7284H103.394V24.7475Z" fill="#5A5773"/>
<path opacity="0.1" d="M90.5472 47.4586C90.5395 47.5997 90.5195 47.7399 90.4875 47.8776C90.4875 47.8388 90.4875 47.8168 90.4791 47.8137C90.4477 47.8053 90.4854 47.645 90.5472 47.4586Z" fill="black"/>
<path opacity="0.1" d="M101.137 80.0615C101.137 80.0615 103.111 80.2144 103.307 80.3673C103.503 80.5203 101.137 80.0615 101.137 80.0615Z" fill="black" stroke="#00879E" stroke-miterlimit="10"/>
<path opacity="0.1" d="M89.3872 78.5101C89.3872 78.5101 89.8063 79.0339 89.6282 79.2748C89.4501 79.5157 89.3872 78.5101 89.3872 78.5101Z" fill="black" stroke="#00879E" stroke-miterlimit="10"/>
<path opacity="0.1" d="M89.8906 80.3988C89.8906 80.3988 90.6553 79.8959 90.9612 80.2301C91.2671 80.5643 89.8906 80.3988 89.8906 80.3988Z" fill="black" stroke="#00879E" stroke-miterlimit="10"/>
<g opacity="0.1">
<path opacity="0.1" d="M93.9203 31.3228C93.8658 31.5794 93.6846 31.8706 93.4237 31.8392C93.3431 31.8287 93.2698 31.7879 93.1901 31.7701C92.9712 31.7219 92.8413 31.9272 92.6349 31.8748C92.5325 31.8454 92.437 31.7954 92.3546 31.7279C92.2721 31.6603 92.2042 31.5767 92.1552 31.482C92.1004 31.3754 92.0673 31.259 92.0578 31.1395C92.0369 31.3249 92.0708 31.5125 92.1552 31.6789C92.2042 31.7736 92.2721 31.8573 92.3546 31.9248C92.437 31.9924 92.5325 32.0424 92.6349 32.0718C92.8445 32.1199 92.9712 31.9146 93.1901 31.967C93.2668 31.9937 93.3448 32.0164 93.4237 32.0351C93.6846 32.0676 93.8658 31.7764 93.9203 31.5197C93.9632 31.293 93.9801 31.0621 93.9706 30.8315C93.9695 30.9965 93.9527 31.161 93.9203 31.3228Z" fill="black"/>
<path opacity="0.1" d="M92.4851 29.7452C92.4984 29.5736 92.4749 29.4011 92.4159 29.2393C92.3685 29.1317 92.3283 29.0211 92.2954 28.9083C92.2909 28.9259 92.2874 28.9437 92.285 28.9617C92.2672 29.1261 92.3594 29.2759 92.4159 29.4362C92.4525 29.5357 92.4758 29.6396 92.4851 29.7452Z" fill="black"/>
<path opacity="0.1" d="M100.488 29.1932C100.439 29.4907 100.198 29.7704 100.174 30.0836C100.168 30.1372 100.168 30.1913 100.174 30.2449C100.226 29.8793 100.55 29.5557 100.488 29.1932Z" fill="black"/>
<path opacity="0.1" d="M100.506 31.4035C100.497 31.4473 100.476 31.4878 100.446 31.5208C100.368 31.6036 100.236 31.6098 100.132 31.6507C99.8771 31.7481 99.7126 32.0561 99.4361 32.0529C99.3653 32.0489 99.2974 32.0236 99.2413 31.9802C99.1852 31.9368 99.1435 31.8774 99.1218 31.8099C99.1155 31.8326 99.1106 31.8557 99.1072 31.879C99.1042 31.9249 99.1103 31.9709 99.1252 32.0144C99.1401 32.0578 99.1635 32.0979 99.194 32.1323C99.2245 32.1667 99.2615 32.1947 99.3029 32.2147C99.3442 32.2347 99.3892 32.2463 99.435 32.2488C99.7084 32.2488 99.876 31.944 100.131 31.8476C100.235 31.8068 100.363 31.8005 100.445 31.7177C100.476 31.6779 100.497 31.632 100.509 31.5829C100.52 31.5339 100.52 31.483 100.51 31.4339C100.509 31.4213 100.507 31.4129 100.506 31.4035Z" fill="black"/>
<path opacity="0.1" d="M99.192 31.3165C99.1658 31.1259 98.9353 31.0484 98.8138 30.8975C98.7393 30.7984 98.6989 30.6779 98.6986 30.5539C98.6902 30.7488 98.6934 30.9478 98.8138 31.0945C98.9343 31.2411 99.1176 31.304 99.1763 31.4548C99.1911 31.4103 99.1965 31.3632 99.192 31.3165Z" fill="black"/>
</g>
<g opacity="0.1">
<path opacity="0.1" d="M93.5457 31.3165C93.5517 31.1427 93.614 30.9754 93.7232 30.84C93.8323 30.7046 93.9825 30.6082 94.1512 30.5655C94.6183 30.4513 95.1083 30.4735 95.5632 30.6294C96.5573 30.9583 95.4375 32.142 95.4375 32.142C95.4375 32.142 94.6927 32.8752 93.9982 32.363C93.7931 32.208 93.6495 31.9853 93.5928 31.7345C93.5588 31.5978 93.543 31.4573 93.5457 31.3165Z" fill="black"/>
<path opacity="0.1" d="M99.0105 31.3165C99.0045 31.1425 98.942 30.9752 98.8327 30.8397C98.7233 30.7043 98.5728 30.608 98.404 30.5654C97.9372 30.4515 97.4476 30.4736 96.993 30.6293C95.9989 30.9583 97.1187 32.142 97.1187 32.142C97.1187 32.142 97.8624 32.8752 98.558 32.363C98.7631 32.2079 98.9068 31.9853 98.9634 31.7345C98.9974 31.5978 99.0133 31.4573 99.0105 31.3165Z" fill="black"/>
<path opacity="0.1" d="M95.376 30.5331V30.5823H97.1913V30.5236L95.376 30.5331Z" fill="black"/>
<path opacity="0.1" d="M95.9551 31.0578H96.0127V30.8912C96.0127 30.8912 96.1971 30.7477 96.503 30.8912V31.04H96.6077V30.9426H96.5564C96.5564 30.9426 96.5774 30.7404 96.2358 30.7729C96.2358 30.7729 95.9614 30.7467 95.9676 30.9206H95.9048L95.9551 31.0578Z" fill="black"/>
</g>
<path d="M12.8992 47.8913H12.3042V61.2891H12.8992V47.8913Z" fill="#535461"/>
<path d="M16.6388 61.2481L16.6011 61.8515L16.5488 62.7031L16.5268 63.0582L16.4744 63.9109L16.4513 64.266L16.399 65.1176L15.7987 74.804C15.7731 75.2209 15.5895 75.6122 15.2853 75.8984C14.981 76.1845 14.5791 76.3438 14.1615 76.3438H11.042C10.6244 76.3438 10.2226 76.1845 9.91858 75.8983C9.61452 75.6121 9.4311 75.2208 9.40576 74.804L8.80239 65.1176L8.75001 64.266L8.72802 63.9109L8.67669 63.0561L8.65469 62.701L8.60231 61.8494L8.5646 61.246C8.55745 61.1302 8.57409 61.0142 8.61351 60.9051C8.65292 60.7959 8.71427 60.6961 8.79377 60.6115C8.87326 60.527 8.96923 60.4597 9.07575 60.4137C9.18226 60.3677 9.29707 60.344 9.41309 60.3441H15.7914C15.9076 60.344 16.0225 60.3678 16.1291 60.4139C16.2358 60.46 16.3318 60.5276 16.4112 60.6123C16.4907 60.6971 16.5519 60.7972 16.591 60.9066C16.6302 61.016 16.6464 61.1322 16.6388 61.2481Z" fill="#3F3D56"/>
<path d="M16.6009 61.8515L16.5486 62.7031H8.65345L8.60107 61.8515H16.6009Z" fill="#9D9CB5"/>
<path d="M16.5264 63.0582L16.474 63.9109H8.72872L8.67529 63.0582H16.5264Z" fill="#9D9CB5"/>
<path d="M16.4513 64.266L16.3989 65.1176H8.8044L8.75098 64.266H16.4513Z" fill="#9D9CB5"/>
<path d="M7.69324 52.9131C11.1584 55.4198 12.6019 59.3417 12.6019 59.3417C12.6019 59.3417 8.42545 59.1982 4.95503 56.6915C1.48462 54.1848 0.0463867 50.2629 0.0463867 50.2629C0.0463867 50.2629 4.22701 50.4064 7.69324 52.9131Z" fill="#00879E"/>
<path d="M0.0512695 50.2629C0.0512695 50.2629 4.38588 52.6722 5.77593 54.6624C7.16598 56.6527 12.6015 59.3427 12.6015 59.3427" stroke="#535461" stroke-width="2" stroke-miterlimit="10"/>
<path d="M9.92914 47.8673C11.8147 49.229 12.6013 51.366 12.6013 51.366C12.6013 51.366 10.3282 51.2884 8.44167 49.9235C6.5551 48.5586 5.77051 46.4249 5.77051 46.4249C5.77051 46.4249 8.04361 46.4971 9.92914 47.8673Z" fill="#00879E"/>
<path d="M5.77051 46.4195C5.77051 46.4195 8.12951 47.7289 8.88581 48.813C9.64212 49.8972 12.6013 51.3606 12.6013 51.3606" stroke="#535461" stroke-width="2" stroke-miterlimit="10"/>
<path d="M15.3428 51.2527C13.1755 53.6337 12.7178 56.7448 12.7178 56.7448C12.7178 56.7448 15.7723 55.9959 17.9386 53.6149C20.1049 51.2339 20.5637 48.1217 20.5637 48.1217C20.5637 48.1217 17.5091 48.8707 15.3428 51.2527Z" fill="#00879E"/>
<path d="M20.5637 48.1217C20.5637 48.1217 17.7417 50.5624 17.0241 52.2447C16.3066 53.927 12.7178 56.749 12.7178 56.749" stroke="#535461" stroke-width="2" stroke-miterlimit="10"/>
</g>
<defs>
<linearGradient id="paint0_linear_3395_32056" x1="61.9392" y1="67.6778" x2="61.9392" y2="11.2869" gradientUnits="userSpaceOnUse">
<stop stop-color="#808080" stop-opacity="0.25"/>
<stop offset="0.54" stop-color="#808080" stop-opacity="0.12"/>
<stop offset="1" stop-color="#808080" stop-opacity="0.1"/>
</linearGradient>
<clipPath id="clip0_3395_32056">
<rect width="120" height="85.8867" fill="white"/>
</clipPath>
</defs>
</svg>
