<svg width="120" height="115" viewBox="0 0 120 115" fill="none" xmlns="http://www.w3.org/2000/svg">
<g clip-path="url(#clip0_3395_32138)">
<path d="M111.791 23.345H69.596V23.1242C69.596 22.9522 69.5276 22.7873 69.406 22.6656C69.2843 22.544 69.1193 22.4757 68.9472 22.4757H51.1119C50.9399 22.4757 50.7749 22.544 50.6532 22.6656C50.5315 22.7873 50.4632 22.9522 50.4632 23.1242V23.345H8.0944C7.33743 23.345 6.61146 23.6456 6.0762 24.1807C5.54094 24.7157 5.24024 25.4414 5.24023 26.1981V83.9531C5.24023 84.7098 5.54094 85.4355 6.0762 85.9705C6.61146 86.5056 7.33743 86.8062 8.0944 86.8062H111.791C112.548 86.8062 113.274 86.5056 113.809 85.9705C114.344 85.4355 114.645 84.7098 114.645 83.9531V26.1981C114.645 25.4414 114.344 24.7157 113.809 24.1807C113.274 23.6456 112.548 23.345 111.791 23.345Z" fill="#3F3D56"/>
<path d="M10.3642 29.417C10.2934 29.4171 10.2255 29.4453 10.1755 29.4953C10.1254 29.5454 10.0972 29.6133 10.0972 29.684V84.466C10.0972 84.5368 10.1254 84.6046 10.1755 84.6547C10.2255 84.7047 10.2934 84.7329 10.3642 84.7329H109.521C109.592 84.7329 109.66 84.7047 109.71 84.6547C109.76 84.6046 109.788 84.5368 109.788 84.466V29.684C109.788 29.6132 109.76 29.5454 109.71 29.4953C109.66 29.4452 109.592 29.4171 109.521 29.417H10.3642Z" fill="white"/>
<path d="M59.8561 26.8223C60.4325 26.8223 60.8997 26.3553 60.8997 25.7792C60.8997 25.203 60.4325 24.736 59.8561 24.736C59.2797 24.736 58.8125 25.203 58.8125 25.7792C58.8125 26.3553 59.2797 26.8223 59.8561 26.8223Z" fill="#EEEEEE"/>
<path d="M116.546 82.9136H106.616V81.8884C106.616 81.8321 106.552 81.7865 106.474 81.7865H103.069C102.991 81.7865 102.927 81.8321 102.927 81.8884V82.9136H100.799V81.8884C100.799 81.8321 100.736 81.7865 100.658 81.7865H97.2529C97.1745 81.7865 97.111 81.8321 97.111 81.8884V82.9136H94.9831V81.8884C94.9831 81.8321 94.9196 81.7865 94.8412 81.7865H91.4366C91.3582 81.7865 91.2947 81.8321 91.2947 81.8884V82.9136H89.1668V81.8884C89.1668 81.8321 89.1033 81.7865 89.0249 81.7865H85.6202C85.5419 81.7865 85.4783 81.8321 85.4783 81.8884V82.9136H83.3504V81.8884C83.3504 81.8321 83.2869 81.7865 83.2086 81.7865H79.8039C79.7255 81.7865 79.662 81.8321 79.662 81.8884V82.9136H77.5341V81.8884C77.5341 81.8321 77.4706 81.7865 77.3922 81.7865H73.9875C73.9092 81.7865 73.8457 81.8321 73.8457 81.8884V82.9136H71.7177V81.8884C71.7177 81.8321 71.6542 81.7865 71.5759 81.7865H44.9058C44.8275 81.7865 44.7639 81.8321 44.7639 81.8884V82.9136H42.636V81.8884C42.636 81.8321 42.5725 81.7865 42.4942 81.7865H39.0895C39.0111 81.7865 38.9476 81.8321 38.9476 81.8884V82.9136H36.8197V81.8884C36.8197 81.8321 36.7562 81.7865 36.6778 81.7865H33.2731C33.1948 81.7865 33.1313 81.8321 33.1313 81.8884V82.9136H31.0033V81.8884C31.0033 81.8321 30.9398 81.7865 30.8615 81.7865H27.4568C27.3784 81.7865 27.3149 81.8321 27.3149 81.8884V82.9136H25.187V81.8884C25.187 81.8321 25.1235 81.7865 25.0451 81.7865H21.6404C21.5621 81.7865 21.4986 81.8321 21.4986 81.8884V82.9136H19.3706V81.8884C19.3706 81.8321 19.3071 81.7865 19.2288 81.7865H15.8241C15.7457 81.7865 15.6822 81.8321 15.6822 81.8884V82.9136H13.5543V81.8884C13.5543 81.8321 13.4908 81.7865 13.4124 81.7865H10.0078C9.9294 81.7865 9.86589 81.8321 9.86589 81.8884V82.9136H3.34023C1.45988 82.9136 -0.0644531 84.009 -0.0644531 85.3603V86.4667C-0.0644531 87.8179 1.45988 88.9134 3.34023 88.9134H116.546C118.426 88.9134 119.951 87.8179 119.951 86.4667V85.3603C119.951 84.0091 118.426 82.9136 116.546 82.9136Z" fill="#3F3D56"/>
<path d="M48.3982 52.4647H19.0897C19.0285 52.4647 18.9698 52.4404 18.9265 52.3971C18.8832 52.3538 18.8589 52.2952 18.8589 52.234C18.8589 52.1728 18.8832 52.1141 18.9265 52.0709C18.9698 52.0276 19.0285 52.0033 19.0897 52.0033H48.3982C48.4594 52.0033 48.5181 52.0276 48.5614 52.0709C48.6046 52.1141 48.6289 52.1728 48.6289 52.234C48.6289 52.2952 48.6046 52.3538 48.5614 52.3971C48.5181 52.4404 48.4594 52.4647 48.3982 52.4647Z" fill="#F2F2F2"/>
<path d="M48.3982 57.5397H19.0897C19.0285 57.5397 18.9698 57.5154 18.9265 57.4722C18.8832 57.4289 18.8589 57.3702 18.8589 57.3091C18.8589 57.2479 18.8832 57.1892 18.9265 57.1459C18.9698 57.1027 19.0285 57.0784 19.0897 57.0784H48.3982C48.4594 57.0784 48.5181 57.1027 48.5614 57.1459C48.6046 57.1892 48.6289 57.2479 48.6289 57.3091C48.6289 57.3702 48.6046 57.4289 48.5614 57.4722C48.5181 57.5154 48.4594 57.5397 48.3982 57.5397Z" fill="#F2F2F2"/>
<path d="M48.3985 62.6148H19.0899C19.0595 62.6149 19.0294 62.609 19.0013 62.5975C18.9733 62.5859 18.9477 62.5689 18.9262 62.5475C18.9047 62.5261 18.8877 62.5006 18.876 62.4726C18.8644 62.4445 18.8584 62.4145 18.8584 62.3841C18.8584 62.3538 18.8644 62.3237 18.876 62.2957C18.8877 62.2677 18.9047 62.2422 18.9262 62.2208C18.9477 62.1993 18.9733 62.1824 19.0013 62.1708C19.0294 62.1593 19.0595 62.1534 19.0899 62.1534H48.3985C48.4289 62.1534 48.4589 62.1593 48.487 62.1708C48.5151 62.1824 48.5406 62.1993 48.5621 62.2208C48.5836 62.2422 48.6007 62.2677 48.6123 62.2957C48.624 62.3237 48.63 62.3538 48.63 62.3841C48.63 62.4145 48.624 62.4445 48.6123 62.4726C48.6007 62.5006 48.5836 62.5261 48.5621 62.5475C48.5406 62.5689 48.5151 62.5859 48.487 62.5975C48.4589 62.609 48.4289 62.6149 48.3985 62.6148Z" fill="#F2F2F2"/>
<path d="M98.1298 39.2003H61.8984C61.516 39.2003 61.2061 39.5102 61.2061 39.8924V74.726C61.2061 75.1082 61.516 75.4181 61.8984 75.4181H98.1298C98.5122 75.4181 98.8222 75.1082 98.8222 74.726V39.8924C98.8222 39.5102 98.5122 39.2003 98.1298 39.2003Z" fill="#00879E"/>
<path d="M68.7385 58.3678C68.8626 56.1742 69.7621 54.0959 71.2765 52.5035C72.791 50.9112 74.822 49.9082 77.0074 49.6734C79.1928 49.4387 81.3906 49.9874 83.2089 51.2218C85.0272 52.4562 86.3479 54.296 86.9354 56.4131C87.0478 56.4091 87.16 56.4046 87.2734 56.4046C87.6601 56.4083 88.0437 56.4735 88.4098 56.5979C93.0232 58.1121 91.8084 64.9972 86.9527 64.9972H75.0191C74.1751 64.9996 73.3393 64.8317 72.5617 64.5036C71.7842 64.1755 71.0808 63.694 70.4938 63.0878C69.9068 62.4816 69.4482 61.7632 69.1455 60.9757C68.8427 60.1882 68.7021 59.3477 68.732 58.5045C68.7338 58.459 68.736 58.4134 68.7385 58.3678Z" fill="#EEEEEE"/>
<path d="M79.6164 58.2233V54.4287H77.5723V58.2233H75.9404L77.2673 60.5209L78.5945 62.8184L79.9214 60.5209L81.2483 58.2233H79.6164Z" fill="#00879E"/>
</g>
<defs>
<clipPath id="clip0_3395_32138">
<rect width="120" height="114.776" fill="white"/>
</clipPath>
</defs>
</svg>
