<svg width="120" height="91" viewBox="0 0 120 91" fill="none" xmlns="http://www.w3.org/2000/svg">
<path d="M108.56 79.8244H7.27626C6.4123 79.8234 5.58401 79.4802 4.9731 78.8699C4.36219 78.2597 4.01855 77.4323 4.01758 76.5693V15.778C4.01828 15.1458 4.27002 14.5396 4.71758 14.0925C5.16513 13.6455 5.77194 13.394 6.40488 13.3932H109.39C110.034 13.394 110.651 13.6498 111.106 14.1046C111.561 14.5594 111.818 15.176 111.818 15.8192V76.5693C111.817 77.4323 111.474 78.2597 110.863 78.8699C110.252 79.4802 109.424 79.8234 108.56 79.8244Z" fill="#F2F2F2"/>
<path d="M10.4363 76.5694H105.4C106.238 76.5694 107.042 76.2368 107.634 75.6449C108.227 75.0529 108.56 74.2501 108.56 73.4129V21.8158C108.56 20.9787 108.227 20.1759 107.634 19.5839C107.042 18.992 106.238 18.6594 105.4 18.6594H10.4363C9.59823 18.6594 8.79449 18.992 8.20189 19.5839C7.60928 20.1759 7.27637 20.9787 7.27637 21.8158V73.4129C7.27637 74.2501 7.60928 75.0529 8.20189 75.6449C8.79449 76.2368 9.59823 76.5694 10.4363 76.5694Z" fill="white"/>
<path d="M111.773 15.5918H3.97168V13.9346C3.97293 13.0687 4.31798 12.2387 4.93111 11.6267C5.54424 11.0146 6.37539 10.6705 7.24222 10.6697H108.502C109.369 10.6704 110.2 11.0146 110.813 11.6267C111.426 12.2387 111.771 13.0687 111.773 13.9346V15.5918Z" fill="#00879E"/>
<path d="M9.91529 13.9807C10.3825 13.9807 10.7612 13.6024 10.7612 13.1357C10.7612 12.669 10.3825 12.2906 9.91529 12.2906C9.44808 12.2906 9.06934 12.669 9.06934 13.1357C9.06934 13.6024 9.44808 13.9807 9.91529 13.9807Z" fill="white"/>
<path d="M13.1262 13.9807C13.5934 13.9807 13.9722 13.6024 13.9722 13.1357C13.9722 12.669 13.5934 12.2906 13.1262 12.2906C12.659 12.2906 12.2803 12.669 12.2803 13.1357C12.2803 13.6024 12.659 13.9807 13.1262 13.9807Z" fill="white"/>
<path d="M16.3372 13.9807C16.8044 13.9807 17.1831 13.6024 17.1831 13.1357C17.1831 12.669 16.8044 12.2906 16.3372 12.2906C15.87 12.2906 15.4912 12.669 15.4912 13.1357C15.4912 13.6024 15.87 13.9807 16.3372 13.9807Z" fill="white"/>
<path d="M60.8807 65.3797H52.3884C51.891 65.3791 51.4141 65.1815 51.0624 64.8301C50.7106 64.4788 50.5128 64.0024 50.5122 63.5055V55.0227C50.5128 54.5258 50.7106 54.0494 51.0624 53.6981C51.4141 53.3467 51.891 53.1491 52.3884 53.1485H60.8807C61.3781 53.1491 61.855 53.3467 62.2068 53.6981C62.5585 54.0494 62.7564 54.5258 62.7569 55.0227V63.5055C62.7564 64.0024 62.5585 64.4788 62.2068 64.8301C61.855 65.1815 61.3781 65.3791 60.8807 65.3797ZM52.3884 53.5431C51.9957 53.5435 51.6192 53.6995 51.3415 53.9769C51.0638 54.2543 50.9076 54.6304 50.9072 55.0227V63.5055C50.9076 63.8978 51.0638 64.2739 51.3415 64.5513C51.6192 64.8286 51.9957 64.9847 52.3884 64.9851H60.8807C61.2734 64.9847 61.6499 64.8286 61.9276 64.5513C62.2053 64.2739 62.3615 63.8978 62.3619 63.5055V55.0227C62.3615 54.6304 62.2053 54.2543 61.9276 53.9769C61.6499 53.6995 61.2734 53.5435 60.8807 53.5431H52.3884Z" fill="#CCCCCC"/>
<path d="M59.202 63.0123H54.0671C53.91 63.0121 53.7594 62.9497 53.6483 62.8388C53.5373 62.7278 53.4748 62.5774 53.4746 62.4205V56.1077C53.4748 55.9507 53.5373 55.8003 53.6483 55.6894C53.7594 55.5784 53.91 55.516 54.0671 55.5158H57.7878C57.9228 55.5159 58.0537 55.562 58.159 55.6463L59.5731 56.7814C59.6423 56.8367 59.6982 56.907 59.7365 56.9868C59.7749 57.0667 59.7947 57.1542 59.7945 57.2428V62.4205C59.7943 62.5774 59.7318 62.7278 59.6207 62.8388C59.5097 62.9497 59.3591 63.0121 59.202 63.0123ZM54.0671 55.9104C54.0147 55.9104 53.9645 55.9312 53.9275 55.9682C53.8905 56.0052 53.8697 56.0554 53.8696 56.1077V62.4205C53.8697 62.4728 53.8905 62.5229 53.9275 62.5599C53.9645 62.5969 54.0147 62.6177 54.0671 62.6178H59.202C59.2543 62.6177 59.3045 62.5969 59.3416 62.5599C59.3786 62.5229 59.3994 62.4728 59.3995 62.4205V57.2428C59.3996 57.2132 59.393 57.1841 59.3802 57.1575C59.3674 57.1308 59.3488 57.1075 59.3257 57.089L57.9114 55.9538C57.8763 55.9257 57.8327 55.9104 57.7878 55.9104H54.0671Z" fill="#CCCCCC"/>
<path d="M58.2148 58.2777H55.0549C55.0025 58.2777 54.9523 58.2569 54.9153 58.2199C54.8782 58.1829 54.8574 58.1328 54.8574 58.0805C54.8574 58.0281 54.8782 57.978 54.9153 57.941C54.9523 57.904 55.0025 57.8832 55.0549 57.8832H58.2148C58.2672 57.8832 58.3174 57.904 58.3545 57.941C58.3915 57.978 58.4123 58.0281 58.4123 58.0805C58.4123 58.1328 58.3915 58.1829 58.3545 58.2199C58.3174 58.2569 58.2672 58.2777 58.2148 58.2777Z" fill="#CCCCCC"/>
<path d="M58.2148 59.4614H55.0549C55.0025 59.4614 54.9523 59.4406 54.9153 59.4036C54.8782 59.3666 54.8574 59.3164 54.8574 59.2641C54.8574 59.2118 54.8782 59.1616 54.9153 59.1246C54.9523 59.0876 55.0025 59.0668 55.0549 59.0668H58.2148C58.2672 59.0668 58.3174 59.0876 58.3545 59.1246C58.3915 59.1616 58.4123 59.2118 58.4123 59.2641C58.4123 59.3164 58.3915 59.3666 58.3545 59.4036C58.3174 59.4406 58.2672 59.4614 58.2148 59.4614Z" fill="#CCCCCC"/>
<path d="M58.2148 60.645H55.0549C55.0025 60.645 54.9523 60.6242 54.9153 60.5872C54.8782 60.5502 54.8574 60.5 54.8574 60.4477C54.8574 60.3954 54.8782 60.3452 54.9153 60.3082C54.9523 60.2712 55.0025 60.2504 55.0549 60.2504H58.2148C58.2672 60.2504 58.3174 60.2712 58.3545 60.3082C58.3915 60.3452 58.4123 60.3954 58.4123 60.4477C58.4123 60.5 58.3915 60.5502 58.3545 60.5872C58.3174 60.6242 58.2672 60.645 58.2148 60.645Z" fill="#CCCCCC"/>
<path d="M81.0253 65.3797H72.533C72.0355 65.3791 71.5586 65.1815 71.2069 64.8301C70.8552 64.4788 70.6573 64.0024 70.6567 63.5055V55.0227C70.6573 54.5258 70.8552 54.0494 71.2069 53.6981C71.5586 53.3467 72.0355 53.1491 72.533 53.1485H81.0253C81.5227 53.1491 81.9996 53.3467 82.3513 53.6981C82.7031 54.0494 82.9009 54.5258 82.9015 55.0227V63.5055C82.9009 64.0024 82.7031 64.4788 82.3513 64.8301C81.9996 65.1815 81.5227 65.3791 81.0253 65.3797ZM72.533 53.5431C72.1402 53.5435 71.7637 53.6995 71.486 53.9769C71.2084 54.2543 71.0522 54.6304 71.0517 55.0227V63.5055C71.0522 63.8978 71.2084 64.2739 71.486 64.5513C71.7637 64.8286 72.1402 64.9847 72.533 64.9851H81.0253C81.418 64.9847 81.7945 64.8286 82.0722 64.5513C82.3499 64.2739 82.5061 63.8978 82.5065 63.5055V55.0227C82.5061 54.6304 82.3499 54.2543 82.0722 53.9769C81.7945 53.6995 81.418 53.5435 81.0253 53.5431H72.533Z" fill="#CCCCCC"/>
<path d="M79.5443 61.4341H74.0144C73.8573 61.434 73.7067 61.3716 73.5956 61.2606C73.4845 61.1497 73.422 60.9992 73.4219 60.8423V57.6859C73.422 57.529 73.4845 57.3785 73.5956 57.2676C73.7067 57.1566 73.8573 57.0942 74.0144 57.0941H79.5443C79.7013 57.0942 79.8519 57.1566 79.963 57.2676C80.0741 57.3785 80.1366 57.529 80.1367 57.6859V60.8423C80.1366 60.9992 80.0741 61.1497 79.963 61.2606C79.8519 61.3716 79.7013 61.434 79.5443 61.4341ZM74.0144 57.4886C73.962 57.4887 73.9118 57.5095 73.8748 57.5464C73.8377 57.5834 73.8169 57.6336 73.8169 57.6859V60.8423C73.8169 60.8946 73.8377 60.9448 73.8748 60.9817C73.9118 61.0187 73.962 61.0395 74.0144 61.0396H79.5443C79.5966 61.0395 79.6468 61.0187 79.6838 60.9817C79.7209 60.9448 79.7417 60.8946 79.7418 60.8423V57.6859C79.7417 57.6336 79.7209 57.5834 79.6838 57.5464C79.6468 57.5095 79.5966 57.4887 79.5443 57.4886H74.0144Z" fill="#CCCCCC"/>
<path d="M76.779 59.7845C76.6681 59.7847 76.5593 59.7537 76.465 59.6952L73.5144 57.8532C73.4701 57.8254 73.4386 57.7812 73.4269 57.7302C73.4152 57.6793 73.4242 57.6258 73.4519 57.5814C73.4797 57.5371 73.5239 57.5056 73.5748 57.4938C73.6258 57.482 73.6794 57.4909 73.7238 57.5185L76.6745 59.3606C76.7059 59.38 76.7422 59.3904 76.7791 59.3904C76.8161 59.3904 76.8523 59.38 76.8838 59.3606L79.8342 57.5185C79.8787 57.4909 79.9322 57.482 79.9832 57.4938C80.0342 57.5056 80.0784 57.5371 80.1061 57.5814C80.1339 57.6258 80.1429 57.6793 80.1312 57.7302C80.1195 57.7812 80.088 57.8254 80.0437 57.8532L77.0932 59.6952C76.9989 59.7538 76.8901 59.7847 76.779 59.7845Z" fill="#CCCCCC"/>
<path d="M40.7362 65.3797H32.2439C31.7465 65.3791 31.2696 65.1815 30.9178 64.8301C30.5661 64.4788 30.3682 64.0024 30.3677 63.5055V55.0227C30.3682 54.5258 30.5661 54.0494 30.9178 53.6981C31.2696 53.3467 31.7465 53.1491 32.2439 53.1485H40.7362C41.2336 53.1491 41.7105 53.3467 42.0623 53.6981C42.414 54.0494 42.6118 54.5258 42.6124 55.0227V63.5055C42.6118 64.0024 42.414 64.4788 42.0623 64.8301C41.7105 65.1815 41.2336 65.3791 40.7362 65.3797ZM32.2439 53.5431C31.8512 53.5435 31.4747 53.6995 31.197 53.9769C30.9193 54.2543 30.7631 54.6304 30.7627 55.0227V63.5055C30.7631 63.8978 30.9193 64.2739 31.197 64.5513C31.4747 64.8286 31.8512 64.9847 32.2439 64.9851H40.7362C41.1289 64.9847 41.5054 64.8286 41.7831 64.5513C42.0608 64.2739 42.217 63.8978 42.2174 63.5055V55.0227C42.217 54.6304 42.0608 54.2543 41.7831 53.9769C41.5054 53.6995 41.1289 53.5435 40.7362 53.5431H32.2439Z" fill="#CCCCCC"/>
<path d="M39.2552 61.4341H33.7253C33.5682 61.434 33.4176 61.3716 33.3065 61.2606C33.1955 61.1497 33.133 60.9992 33.1328 60.8423V57.6859C33.133 57.529 33.1955 57.3785 33.3065 57.2676C33.4176 57.1566 33.5682 57.0942 33.7253 57.0941H39.2552C39.4123 57.0942 39.5629 57.1566 39.674 57.2676C39.785 57.3785 39.8475 57.529 39.8477 57.6859V60.8423C39.8475 60.9992 39.785 61.1497 39.674 61.2606C39.5629 61.3716 39.4123 61.434 39.2552 61.4341ZM33.7253 57.4886C33.6729 57.4887 33.6227 57.5095 33.5857 57.5464C33.5487 57.5834 33.5279 57.6336 33.5278 57.6859V60.8423C33.5279 60.8946 33.5487 60.9448 33.5857 60.9817C33.6227 61.0187 33.6729 61.0395 33.7253 61.0396H39.2552C39.3076 61.0395 39.3578 61.0187 39.3948 60.9817C39.4318 60.9448 39.4526 60.8946 39.4527 60.8423V57.6859C39.4526 57.6336 39.4318 57.5834 39.3948 57.5464C39.3578 57.5095 39.3076 57.4887 39.2552 57.4886H33.7253Z" fill="#CCCCCC"/>
<path d="M38.3787 61.4341H34.4043C34.335 61.4341 34.2668 61.4159 34.2068 61.3813C34.1467 61.3467 34.0968 61.2969 34.0622 61.2369C34.0275 61.1769 34.0093 61.1088 34.0093 61.0396C34.0093 60.9703 34.0276 60.9023 34.0623 60.8423L35.2594 58.7709C35.2941 58.7109 35.3439 58.6611 35.404 58.6265C35.464 58.5919 35.5321 58.5736 35.6015 58.5736C35.6708 58.5736 35.7389 58.5919 35.799 58.6265C35.859 58.6611 35.9089 58.7109 35.9436 58.7709L36.7168 60.1087L37.1647 59.3336C37.1994 59.2737 37.2492 59.2238 37.3093 59.1892C37.3693 59.1546 37.4375 59.1364 37.5068 59.1364C37.5761 59.1364 37.6443 59.1546 37.7043 59.1892C37.7644 59.2238 37.8142 59.2737 37.8489 59.3336L38.7208 60.8423C38.7555 60.9023 38.7738 60.9703 38.7738 61.0396C38.7738 61.1089 38.7555 61.1769 38.7208 61.2369C38.6861 61.2969 38.6363 61.3467 38.5762 61.3813C38.5162 61.4159 38.448 61.4341 38.3787 61.4341H38.3787ZM38.3787 61.0396L37.5068 59.5309L36.8879 60.6019C36.8705 60.6319 36.8456 60.6568 36.8156 60.6741C36.7855 60.6914 36.7515 60.7005 36.7168 60.7005C36.6821 60.7005 36.648 60.6914 36.618 60.6741C36.588 60.6568 36.563 60.6319 36.5457 60.6019L35.6015 58.9682L34.4043 61.0396H38.3787Z" fill="#CCCCCC"/>
<path d="M38.6626 58.6722C38.8807 58.6722 39.0576 58.4956 39.0576 58.2777C39.0576 58.0598 38.8807 57.8831 38.6626 57.8831C38.4444 57.8831 38.2676 58.0598 38.2676 58.2777C38.2676 58.4956 38.4444 58.6722 38.6626 58.6722Z" fill="#CCCCCC"/>
<path d="M112.688 43.1651H52.6498C51.7858 43.1642 50.9575 42.8209 50.3466 42.2107C49.7357 41.6004 49.3921 40.7731 49.3911 39.9101V27.0871C49.3921 26.2242 49.7357 25.3968 50.3466 24.7866C50.9575 24.1763 51.7858 23.8331 52.6498 23.8321H112.688C113.552 23.8331 114.381 24.1763 114.992 24.7866C115.602 25.3968 115.946 26.2242 115.947 27.0871V39.9101C115.946 40.7731 115.602 41.6004 114.992 42.2107C114.381 42.8209 113.552 43.1641 112.688 43.1651Z" fill="white"/>
<path d="M112.689 43.2638H52.6499C51.7598 43.2628 50.9064 42.9091 50.277 42.2804C49.6475 41.6517 49.2935 40.7992 49.2925 39.9101V27.0871C49.2935 26.198 49.6475 25.3456 50.277 24.7168C50.9064 24.0881 51.7598 23.7345 52.6499 23.7335H112.689C113.579 23.7345 114.432 24.0881 115.062 24.7168C115.691 25.3456 116.045 26.198 116.046 27.0871V39.9101C116.045 40.7992 115.691 41.6517 115.062 42.2804C114.432 42.9091 113.579 43.2628 112.689 43.2638ZM52.6499 24.128C51.8645 24.1289 51.1115 24.441 50.5561 24.9957C50.0008 25.5505 49.6884 26.3026 49.6875 27.0871V39.9101C49.6884 40.6946 50.0008 41.4468 50.5561 42.0015C51.1115 42.5563 51.8645 42.8683 52.6499 42.8692H112.689C113.474 42.8683 114.227 42.5563 114.782 42.0015C115.338 41.4468 115.65 40.6946 115.651 39.9101V27.0871C115.65 26.3026 115.338 25.5505 114.782 24.9957C114.227 24.441 113.474 24.1289 112.689 24.128H52.6499Z" fill="#001833"/>
<path d="M105.381 40.0087H59.9574C59.0935 40.0077 58.2652 39.6645 57.6543 39.0543C57.0433 38.444 56.6997 37.6167 56.6987 36.7537V30.0463C56.6997 29.1833 57.0433 28.3559 57.6543 27.7457C58.2652 27.1355 59.0935 26.7922 59.9574 26.7912H105.381C106.245 26.7922 107.074 27.1355 107.685 27.7457C108.295 28.3559 108.639 29.1833 108.64 30.0463V36.7537C108.639 37.6167 108.295 38.444 107.685 39.0543C107.074 39.6645 106.245 40.0077 105.381 40.0087Z" fill="#F2F2F2"/>
<path d="M69.732 36.3935C71.8843 36.3935 73.629 34.6507 73.629 32.5008C73.629 30.3509 71.8843 28.6081 69.732 28.6081C67.5797 28.6081 65.835 30.3509 65.835 32.5008C65.835 34.6507 67.5797 36.3935 69.732 36.3935Z" fill="#FF6584"/>
<path d="M102.558 39.6159L97.0577 35.0076L91.6519 30.4788C91.5093 30.3593 91.3289 30.294 91.1427 30.2944C90.9566 30.2947 90.7765 30.3607 90.6343 30.4808L85.246 35.0303L83.9298 36.1416L81.9453 34.4791L75.9144 29.4267C75.7718 29.3072 75.5914 29.2419 75.4053 29.2422C75.2191 29.2426 75.039 29.3086 74.8968 29.4287L68.8855 34.5042L62.7795 39.6597C62.7486 39.6859 62.7264 39.7208 62.716 39.7599C62.7057 39.7991 62.7076 39.8404 62.7216 39.8784C62.7355 39.9164 62.7608 39.9492 62.7941 39.9723C62.8273 39.9954 62.8669 40.0078 62.9074 40.0077L75.426 39.9836L79.3885 39.976L79.3497 40.0087L91.1615 39.986L102.432 39.9643C102.472 39.9642 102.512 39.9517 102.545 39.9285C102.578 39.9052 102.603 39.8723 102.617 39.8343C102.631 39.7963 102.633 39.7549 102.622 39.7158C102.612 39.6768 102.59 39.6419 102.558 39.6159Z" fill="#001833"/>
<path d="M20.098 47.8011H11.6057C11.1083 47.8006 10.6314 47.6029 10.2797 47.2516C9.92792 46.9002 9.73006 46.4239 9.72949 45.927V37.4441C9.73006 36.9473 9.92792 36.4709 10.2797 36.1195C10.6314 35.7682 11.1083 35.5706 11.6057 35.57H20.098C20.5954 35.5706 21.0723 35.7682 21.4241 36.1195C21.7758 36.4709 21.9737 36.9473 21.9742 37.4441V45.927C21.9737 46.4239 21.7758 46.9002 21.4241 47.2516C21.0723 47.6029 20.5954 47.8006 20.098 47.8011Z" fill="white"/>
<path d="M20.098 47.8011H11.6057C11.1083 47.8006 10.6314 47.6029 10.2797 47.2516C9.92792 46.9002 9.73006 46.4239 9.72949 45.927V37.4441C9.73006 36.9473 9.92792 36.4709 10.2797 36.1195C10.6314 35.7682 11.1083 35.5706 11.6057 35.57H20.098C20.5954 35.5706 21.0723 35.7682 21.4241 36.1195C21.7758 36.4709 21.9737 36.9473 21.9742 37.4441V45.927C21.9737 46.4239 21.7758 46.9002 21.4241 47.2516C21.0723 47.6029 20.5954 47.8006 20.098 47.8011ZM11.6057 35.9646C11.213 35.965 10.8365 36.121 10.5588 36.3984C10.2811 36.6758 10.1249 37.0519 10.1245 37.4441V45.927C10.1249 46.3193 10.2811 46.6954 10.5588 46.9727C10.8365 47.2501 11.213 47.4061 11.6057 47.4066H20.098C20.4907 47.4061 20.8672 47.2501 21.1449 46.9727C21.4226 46.6954 21.5788 46.3193 21.5792 45.927V37.4441C21.5788 37.0519 21.4226 36.6758 21.1449 36.3984C20.8672 36.121 20.4907 35.965 20.098 35.9646H11.6057Z" fill="#001833"/>
<path d="M18.6165 44.3488H13.0866C12.9295 44.3486 12.7789 44.2862 12.6679 44.1753C12.5568 44.0643 12.4943 43.9139 12.4941 43.757V39.6142C12.4943 39.4573 12.5568 39.3068 12.6679 39.1959C12.7789 39.0849 12.9295 39.0225 13.0866 39.0223H14.6434C14.7446 39.022 14.8442 39.0477 14.9326 39.097C15.021 39.1463 15.0952 39.2176 15.148 39.3039L15.5821 40.0087H18.6165C18.7736 40.0089 18.9242 40.0713 19.0353 40.1823C19.1463 40.2932 19.2088 40.4436 19.209 40.6006V43.757C19.2088 43.9139 19.1463 44.0643 19.0353 44.1753C18.9242 44.2862 18.7736 44.3486 18.6165 44.3488Z" fill="#00879E"/>
</svg>
