<svg width="120" height="109" viewBox="0 0 120 109" fill="none" xmlns="http://www.w3.org/2000/svg">
<path d="M70.3484 43.8852C70.1149 44.0456 69.8859 44.2086 69.6576 44.3765C67.4542 50.7495 66.3352 57.447 66.3473 64.1901C66.3464 64.9701 66.3634 65.748 66.3981 66.5239C66.6413 72.3431 67.7513 78.0934 69.6914 83.5851C69.7938 83.8741 69.898 84.162 70.0041 84.4485C70.0801 84.6542 70.1574 84.8617 70.2404 85.0654C70.3233 85.168 70.4051 85.2687 70.4868 85.3693C70.4924 85.3737 70.4975 85.3812 70.5032 85.3856C70.5361 85.4262 70.5691 85.4669 70.5988 85.5069C70.74 85.6794 70.8831 85.8508 71.0243 86.0233L70.9126 86.036L70.6325 86.0667L70.6337 86.0685C70.728 86.0623 70.824 86.0547 70.9189 86.0454C70.9535 86.0439 70.9912 86.043 71.0263 86.0384C71.0577 86.0364 71.091 86.033 71.1224 86.031C75.1678 85.737 79.3036 85.3464 82.914 83.5224C86.6929 81.6118 89.7947 77.7115 89.4363 73.4938C89.3877 72.9415 89.2787 72.3961 89.1114 71.8675C89.0415 71.6468 88.961 71.4304 88.8754 71.2147C88.3544 69.8942 87.491 68.7362 86.3741 67.8598C85.2572 66.9835 83.9271 66.4204 82.5204 66.2286C81.1138 66.0367 79.6814 66.2229 78.3706 66.768C77.0598 67.3132 75.9178 68.1976 75.0621 69.3304C75.9701 64.9352 80.6156 62.5021 84.8292 60.9597C89.0459 59.418 93.795 57.7899 95.8025 53.7756C96.9237 51.5415 96.8377 49.0019 95.9348 46.6942C95.9074 46.6253 95.8787 46.5544 95.8481 46.4848C94.7198 43.7726 92.6098 41.586 89.9394 40.3619C84.9406 38.1638 79.0389 39.288 74.128 41.6762C72.8141 42.3159 71.5506 43.0544 70.3484 43.8852Z" fill="#F2F2F2"/>
<path d="M85.6403 71.3798C81.8138 71.9079 78.2587 73.6531 75.5005 76.3575C73.1525 78.6853 71.4745 81.6022 70.6426 84.8022C70.594 84.9853 70.5506 85.1678 70.5102 85.351C70.4048 85.1706 70.3018 84.9859 70.2001 84.803C70.1347 84.6859 70.0679 84.5669 70.0044 84.4485C70.0804 84.6542 70.1578 84.8617 70.2407 85.0654C70.3237 85.168 70.4054 85.2687 70.4871 85.3693C70.4927 85.3737 70.4978 85.3812 70.5035 85.3856C70.5365 85.4262 70.5694 85.4669 70.5991 85.5069C70.7403 85.6794 70.8835 85.8508 71.0246 86.0233L70.9129 86.036L70.6328 86.0666L70.6341 86.0685C70.7283 86.0622 70.8244 86.0547 70.9192 86.0454C70.9538 86.0439 70.9915 86.043 71.0266 86.0384C71.0357 85.9831 71.048 85.9284 71.0602 85.8735C71.8704 81.7526 74.1447 78.0642 77.4628 75.4897C80.781 72.9152 84.9188 71.6286 89.1117 71.8675C89.0419 71.6467 88.9613 71.4304 88.8758 71.2147C87.7946 71.1756 86.712 71.2308 85.6403 71.3798Z" fill="white"/>
<path d="M72.1417 55.8892C70.6524 57.1145 69.3502 58.5507 68.2761 60.1525C67.7173 61.0058 67.2392 61.9092 66.848 62.8511C66.6621 63.2883 66.4952 63.7374 66.3472 64.1902C66.3464 64.9701 66.3633 65.748 66.3981 66.5239C66.5143 65.9309 66.6621 65.3445 66.841 64.7672C66.9332 64.4505 67.0375 64.1394 67.1494 63.8315C68.4045 60.383 70.8357 57.5947 73.7539 55.4262C76.8812 53.1056 80.444 51.3083 84.0748 49.9272C87.7954 48.506 91.6762 47.5463 95.6304 47.0694C95.7197 47.0581 95.8012 47.0128 95.8579 46.9429C95.9145 46.873 95.9421 46.7839 95.9348 46.6942C95.9343 46.6158 95.9031 46.5407 95.848 46.4849C95.8189 46.4589 95.7841 46.44 95.7464 46.4299C95.7087 46.4197 95.6691 46.4186 95.6308 46.4265C95.1429 46.4854 94.6563 46.5463 94.1703 46.6203C90.1262 47.2236 86.1728 48.3276 82.4011 49.9067C78.7599 51.4261 75.1752 53.3448 72.1417 55.8892Z" fill="white"/>
<path d="M91.3609 36.2572C92.1118 36.2572 92.7204 35.6486 92.7204 34.8978C92.7204 34.1469 92.1118 33.5383 91.3609 33.5383C90.6101 33.5383 90.0015 34.1469 90.0015 34.8978C90.0015 35.6486 90.6101 36.2572 91.3609 36.2572Z" fill="#F2F2F2"/>
<path d="M64.7593 104H31.2414C29.232 103.998 27.3054 103.198 25.8845 101.778C24.4636 100.357 23.6644 98.4301 23.6621 96.4207V11.5793C23.6644 9.56988 24.4636 7.64337 25.8845 6.22246C27.3054 4.80155 29.232 4.00228 31.2414 4H64.7593C66.7688 4.00228 68.6953 4.80154 70.1162 6.22246C71.5371 7.64337 72.3363 9.56988 72.3386 11.5793V96.4207C72.3363 98.4301 71.5371 100.357 70.1162 101.778C68.6953 103.198 66.7688 103.998 64.7593 104Z" fill="#001833"/>
<path d="M64.3845 6.35294H60.6536C60.3206 6.35326 60.0013 6.48568 59.7659 6.72114C59.5304 6.95659 59.398 7.27584 59.3977 7.60882C59.397 8.2896 59.1263 8.94232 58.6449 9.4237C58.1635 9.90509 57.5108 10.1758 56.83 10.1765H38.583C37.9022 10.1758 37.2495 9.90509 36.7681 9.4237C36.2867 8.94232 36.016 8.2896 36.0153 7.60882C36.015 7.27584 35.8826 6.95659 35.6471 6.72114C35.4117 6.48568 35.0924 6.35326 34.7594 6.35294H31.4697C29.9457 6.35488 28.4847 6.96115 27.407 8.03879C26.3294 9.11643 25.7231 10.5775 25.7212 12.1015V96.3397C25.7231 97.8637 26.3294 99.3247 27.407 100.402C28.4847 101.48 29.9457 102.086 31.4697 102.088H64.3845C65.9085 102.086 67.3695 101.48 68.4471 100.402C69.5248 99.3247 70.131 97.8637 70.133 96.3397V12.1015C70.131 10.5775 69.5248 9.11643 68.4471 8.03879C67.3695 6.96115 65.9085 6.35488 64.3845 6.35294Z" fill="white"/>
<path d="M72.6325 37.4559C72.457 37.4557 72.2888 37.3859 72.1647 37.2619C72.0407 37.1378 71.9709 36.9696 71.9707 36.7942V23.853C71.9707 23.6775 72.0404 23.5092 72.1645 23.3851C72.2886 23.2609 72.4569 23.1912 72.6325 23.1912C72.808 23.1912 72.9763 23.2609 73.1004 23.3851C73.2245 23.5092 73.2942 23.6775 73.2942 23.853V36.7942C73.294 36.9696 73.2242 37.1378 73.1002 37.2619C72.9761 37.3859 72.8079 37.4557 72.6325 37.4559Z" fill="#001833"/>
<path d="M23.6618 27.897C23.4863 27.8968 23.3181 27.8271 23.194 27.703C23.07 27.5789 23.0002 27.4107 23 27.2353V24.2941C23 24.1186 23.0697 23.9503 23.1938 23.8262C23.3179 23.702 23.4863 23.6323 23.6618 23.6323C23.8373 23.6323 24.0056 23.702 24.1297 23.8262C24.2538 23.9503 24.3235 24.1186 24.3235 24.2941V27.2353C24.3233 27.4107 24.2536 27.5789 24.1295 27.703C24.0054 27.8271 23.8372 27.8968 23.6618 27.897Z" fill="#001833"/>
<path d="M23.6618 33.3383C23.4863 33.3381 23.3181 33.2683 23.194 33.1442C23.07 33.0201 23.0002 32.8519 23 32.6765V29.7353C23 29.5598 23.0697 29.3915 23.1938 29.2674C23.3179 29.1433 23.4863 29.0735 23.6618 29.0735C23.8373 29.0735 24.0056 29.1433 24.1297 29.2674C24.2538 29.3915 24.3235 29.5598 24.3235 29.7353V32.6765C24.3233 32.8519 24.2536 33.0201 24.1295 33.1442C24.0054 33.2683 23.8372 33.3381 23.6618 33.3383Z" fill="#001833"/>
<path d="M69 48.1006C67.4091 49.0547 64.5748 50.2501 61.6783 49.0216L59.806 48.2274L63.558 44.0214C60.564 40.7202 58.9076 36.4217 58.9121 31.965C58.9167 27.5083 60.5819 23.2132 63.5827 19.9181C66.5835 16.6231 70.7045 14.5645 75.1413 14.1442C79.5782 13.7239 84.0124 14.9721 87.5786 17.6452C91.1447 20.3182 93.5867 24.2242 94.428 28.6008C95.2693 32.9774 94.4494 37.5104 92.1285 41.3151C89.8076 45.1198 86.1521 47.923 81.8756 49.1777C77.5991 50.4323 73.0086 50.0483 69 48.1006Z" fill="white"/>
<path d="M69.0101 48.3272C67.4815 49.2247 64.5695 50.465 61.6006 49.2056L59.4714 48.3024L63.29 44.0219C60.914 41.3494 59.3821 38.0336 58.8869 34.4921C58.3918 30.9506 58.9557 27.3417 60.5076 24.1201C62.0595 20.8984 64.5299 18.208 67.6079 16.3876C70.6858 14.5673 74.2336 13.6984 77.8044 13.8904C81.3752 14.0824 84.8093 15.3267 87.6743 17.4667C90.5393 19.6066 92.707 22.5464 93.9044 25.9159C95.1019 29.2854 95.2755 32.9339 94.4035 36.4019C93.5315 39.8699 91.6527 43.0023 89.0039 45.4046C86.3437 47.8319 83.0179 49.4074 79.4547 49.9282C75.8914 50.4491 72.2538 49.8915 69.0101 48.3272ZM89.9565 20.0796C88.3936 18.3547 86.5062 16.9546 84.4021 15.9594C82.298 14.9642 80.0184 14.3932 77.6936 14.2792C75.3688 14.1652 73.0443 14.5104 70.8529 15.295C68.6615 16.0796 66.6462 17.2883 64.922 18.852C63.1979 20.4157 61.7988 22.3038 60.8045 24.4084C59.8103 26.513 59.2405 28.7928 59.1276 31.1177C59.0147 33.4426 59.361 35.7669 60.1466 37.9579C60.9323 40.1489 62.142 42.1637 63.7065 43.8871L63.8273 44.0203L60.1414 48.1522L61.7568 48.8374C64.6241 50.0537 67.4614 48.7903 68.8975 47.929L68.9903 47.8733L69.0878 47.9206C72.7898 49.7194 77.0025 50.1733 81.0027 49.2044C85.0029 48.2355 88.5411 45.9042 91.0097 42.6108C93.4783 39.3174 94.7234 35.2674 94.5312 31.156C94.339 27.0446 92.7216 23.1283 89.9565 20.0796V20.0796Z" fill="#00879E"/>
<path opacity="0.1" d="M91.9593 31.8717C91.959 27.7507 90.4158 23.7792 87.6336 20.7392C84.8513 17.6991 81.0316 15.811 76.9268 15.4466C77.4071 15.4045 77.893 15.3818 78.3842 15.3818C82.7561 15.384 86.9482 17.1224 90.0389 20.2146C93.1295 23.3068 94.8657 27.4998 94.8657 31.8717C94.8657 36.2436 93.1295 40.4366 90.0389 43.5289C86.9482 46.6211 82.7561 48.3594 78.3842 48.3617C77.8937 48.3617 77.4087 48.3386 76.9291 48.2966C81.0335 47.9317 84.8525 46.0433 87.6343 43.0034C90.4161 39.9635 91.959 35.9923 91.9593 31.8717Z" fill="#001833"/>
<path d="M79.159 28.5833H67.376V29.6776H79.159V28.5833Z" fill="#00879E"/>
<path d="M87.9128 32.3686H67.376V33.4628H87.9128V32.3686Z" fill="#00879E"/>
<path d="M87.8927 36.1539H67.376V37.2481H87.8927V36.1539Z" fill="#00879E"/>
<path d="M31.8747 75.9876C30.2002 74.469 29.0137 72.4879 28.4651 70.2949C27.9166 68.1019 28.0307 65.7955 28.7929 63.6674C29.5552 61.5392 30.9314 59.6849 32.7476 58.3388C34.5637 56.9928 36.7382 56.2156 38.9961 56.1054C41.254 55.9953 43.4938 56.5571 45.4324 57.7199C47.3709 58.8827 48.9212 60.5942 49.887 62.6381C50.8528 64.6819 51.1909 66.9663 50.8585 69.2022C50.526 71.4382 49.538 73.5254 48.0194 75.1999L50.4126 77.8826L49.2183 78.3892C47.3708 79.1728 45.5629 78.4103 44.5482 77.8017C42.496 78.7989 40.1922 79.159 37.9336 78.8357C35.675 78.5124 33.5648 77.5205 31.8747 75.9876Z" fill="white"/>
<path d="M39.538 79.0886C36.6706 79.0863 33.9073 78.0143 31.7886 76.0822C30.0991 74.5499 28.9007 72.5519 28.3445 70.3398C27.7883 68.1278 27.8991 65.8006 28.6628 63.6514C29.4266 61.5022 30.8093 59.627 32.6367 58.2621C34.4642 56.8971 36.6546 56.1034 38.9322 55.981C41.2098 55.8585 43.4727 56.4127 45.436 57.5738C47.3992 58.7349 48.975 60.451 49.9649 62.5059C50.9548 64.5608 51.3144 66.8627 50.9986 69.1217C50.6828 71.3806 49.7056 73.4956 48.1902 75.2002L50.6258 77.9306L49.2677 78.5066C47.3741 79.31 45.5166 78.5188 44.5416 77.9464C42.9802 78.6968 41.2703 79.0871 39.538 79.0886ZM31.96 75.8932C33.6277 77.4152 35.7148 78.4002 37.9498 78.7201C40.1848 79.04 42.4644 78.6801 44.4921 77.687L44.5542 77.6568L44.6134 77.6924C45.5294 78.2417 47.3392 79.0476 49.1681 78.2718L50.1985 77.8348L47.8474 75.1992L47.9245 75.1142C49.4262 73.4585 50.4032 71.3946 50.7319 69.1835C51.0606 66.9725 50.7263 64.7136 49.7713 62.6926C48.8162 60.6716 47.2833 58.9791 45.3664 57.8293C43.4494 56.6795 41.2346 56.1239 39.0019 56.2329C36.7692 56.3418 34.619 57.1104 32.8231 58.4414C31.0273 59.7723 29.6664 61.606 28.9126 63.7104C28.1589 65.8148 28.0461 68.0955 28.5885 70.264C29.1309 72.4325 30.3042 74.3915 31.96 75.8932Z" fill="#00879E"/>
<path opacity="0.1" d="M29.9035 67.4502C29.9037 64.8216 30.888 62.2884 32.6626 60.3493C34.4373 58.4103 36.8736 57.2059 39.4919 56.9735C39.1855 56.9467 38.8756 56.9321 38.5623 56.9321C35.7737 56.9336 33.0998 58.0424 31.1285 60.0148C29.1572 61.9871 28.0498 64.6616 28.0498 67.4502C28.0498 70.2388 29.1572 72.9133 31.1285 74.8856C33.0998 76.858 35.7737 77.9668 38.5623 77.9683C38.8752 77.9683 39.1845 77.9536 39.4904 77.9268C36.8725 77.694 34.4365 76.4895 32.6621 74.5505C30.8878 72.6115 29.9037 70.0785 29.9035 67.4502Z" fill="#001833"/>
<path d="M45.5851 65.3527H38.0693V66.0507H45.5851V65.3527Z" fill="#00879E"/>
<path d="M45.5847 67.7672H32.4854V68.4651H45.5847V67.7672Z" fill="#00879E"/>
<path d="M45.585 70.1816H32.4985V70.8795H45.585V70.1816Z" fill="#00879E"/>
<path d="M54.1772 80.4903C55.0706 80.4903 55.7949 79.7661 55.7949 78.8726C55.7949 77.9792 55.0706 77.255 54.1772 77.255C53.2838 77.255 52.5596 77.9792 52.5596 78.8726C52.5596 79.7661 53.2838 80.4903 54.1772 80.4903Z" fill="#00879E"/>
<path d="M56.5314 50.6373C57.5872 50.6373 58.4432 49.7814 58.4432 48.7256C58.4432 47.6697 57.5872 46.8138 56.5314 46.8138C55.4756 46.8138 54.6196 47.6697 54.6196 48.7256C54.6196 49.7814 55.4756 50.6373 56.5314 50.6373Z" fill="#00879E"/>
</svg>
