<svg xmlns="http://www.w3.org/2000/svg" width="920.872" height="172" viewBox="0 0 920.872 172"><g transform="translate(-501.936 -423)"><path d="M17.936-157.412V0h30.68V-130.98h63.248V0h30.68V-157.412Zm158.12,0V0h30.68V-58.292H226.56c18.172,0,31.152-5.192,39.884-13.924,12.036-12.036,12.98-29.028,12.98-35.164,0-11.328-3.3-26.668-16.048-38-11.564-10.148-23.836-12.036-41.536-12.036Zm30.68,26.432h10.62c7.316,0,15.34.472,21.712,4.956a21.682,21.682,0,0,1,8.732,17.936,23.493,23.493,0,0,1-8.5,18.408c-6.608,4.956-14.16,4.956-20.06,4.956H206.736ZM605.1-41.536a47.664,47.664,0,0,1-36.816,17.228c-26.432,0-53.336-18.88-53.336-53.808,0-29.028,20.532-54.988,52.156-54.988a50.627,50.627,0,0,1,38,17.7v-35.872a79.12,79.12,0,0,0-38.7-9.676c-22.42,0-42.008,5.9-57.82,20.768-13.452,12.508-25.252,33.04-25.252,61.6,0,23.128,7.08,42.716,25.252,60.18C521.8-5.9,538.552,3.54,566.164,3.54c16.992,0,29.5-4.248,38.94-9.2ZM735.376-130.98v-26.432H633.9v26.432h35.4V0h30.68V-130.98Zm31.152-26.432V0h30.68V-157.412Zm68.912,0V0h30.68V-58.292h19.824c18.172,0,31.152-5.192,39.884-13.924,12.036-12.036,12.98-29.028,12.98-35.164,0-11.328-3.3-26.668-16.048-38-11.564-10.148-23.836-12.036-41.536-12.036Zm30.68,26.432h10.62c7.316,0,15.34.472,21.712,4.956a21.682,21.682,0,0,1,8.732,17.936,23.493,23.493,0,0,1-8.5,18.408c-6.608,4.956-14.16,4.956-20.06,4.956H866.12Z" transform="translate(484 588)" fill="#fff"/><path d="M86,208.488a86.637,86.637,0,0,1-17.332-1.747A85.529,85.529,0,0,1,37.917,193.8,86.252,86.252,0,0,1,6.758,155.963a85.568,85.568,0,0,1-5.011-16.143,86.838,86.838,0,0,1,0-34.664A85.528,85.528,0,0,1,14.688,74.4,86.251,86.251,0,0,1,52.525,43.246a85.57,85.57,0,0,1,16.143-5.011,86.938,86.938,0,0,1,29.811-.848L81.717,62.238a59.643,59.643,0,0,0-46.2,92.943A59.843,59.843,0,0,0,61.774,176.8a59.592,59.592,0,0,0,56.588-5.5,59.843,59.843,0,0,0,21.619-26.253,59.3,59.3,0,0,0,4.689-23.226,59.989,59.989,0,0,0-1.55-13.57,59.364,59.364,0,0,0-4.416-12.47l16.463-24.408A85.608,85.608,0,0,1,172,122.487a86.636,86.636,0,0,1-1.747,17.332,85.529,85.529,0,0,1-12.94,30.752,86.252,86.252,0,0,1-37.837,31.158,85.567,85.567,0,0,1-16.143,5.011A86.635,86.635,0,0,1,86,208.488Z" transform="translate(778 386.512)" fill="#fff"/><path d="M55,76h0V53A16.178,16.178,0,1,0,38.822,36.823c0,.059,0,.118,0,.177H17.013A38.021,38.021,0,1,1,55,76Z" transform="translate(809 472)" fill="#fecb0a"/></g></svg>