<svg width="150" height="96" viewBox="0 0 150 96" fill="none" xmlns="http://www.w3.org/2000/svg">
<g clip-path="url(#clip0)">
<path opacity="0.1" d="M127.931 32.8324C127.448 14.6266 110.345 0 89.3124 0C79.0251 0 69.6859 3.50082 62.7569 9.21263C48.3539 10.3796 36.2451 18.4253 30.817 29.548C14.3285 33.3728 2.18176 46.4639 2.18176 62.0319C2.18176 80.6106 19.4751 95.6579 40.8087 95.6579C47.0751 95.6516 53.2251 94.3459 58.6194 91.8761C63.6774 94.0801 69.3657 95.2714 75.1685 95.342C80.9716 95.4124 86.7051 94.3601 91.8501 92.2799C97.1015 94.5862 103.033 95.8027 109.07 95.8115C130.404 95.8115 147.697 80.7642 147.697 62.1852C147.697 49.5731 139.725 38.5888 127.931 32.8324Z" fill="#C52939"/>
<path d="M135.378 15.4945H24.3015V86.8282H135.378V15.4945Z" fill="#111111"/>
<path d="M132.22 28.3745H82.2092V86.7626H132.22V28.3745Z" fill="#F2F2F2"/>
<path d="M19.8191 82.8367C21.3392 85.6662 24.5653 86.8811 24.5653 86.8811C24.5653 86.8811 25.3269 83.5079 23.8068 80.6785C22.2868 77.849 19.0607 76.6342 19.0607 76.6342C19.0607 76.6342 18.2991 80.0073 19.8191 82.8367Z" fill="#111111"/>
<path d="M20.8641 81.9059C23.6084 83.5632 24.6654 86.8547 24.6654 86.8547C24.6654 86.8547 21.2729 87.4597 18.5285 85.8024C15.7842 84.1452 14.7273 80.8534 14.7273 80.8534C14.7273 80.8534 18.1198 80.2487 20.8641 81.9059Z" fill="#C52939"/>
<path d="M129.456 33.8073H99.1241V35.035H129.456V33.8073Z" fill="white"/>
<path d="M129.456 36.5077H99.1241V37.7355H129.456V36.5077Z" fill="white"/>
<path d="M109.398 39.2089H99.1241V40.4366H109.398V39.2089Z" fill="white"/>
<path d="M67.1711 70.6631H36.8395V71.8906H67.1711V70.6631Z" fill="white"/>
<path d="M67.1711 73.3636H36.8395V74.5914H67.1711V73.3636Z" fill="white"/>
<path d="M47.1131 76.0642H36.8395V77.292H47.1131V76.0642Z" fill="white"/>
<path d="M122.349 48.8666H92.0171V50.0941H122.349V48.8666Z" fill="white"/>
<path d="M122.349 51.5671H92.0171V52.7949H122.349V51.5671Z" fill="white"/>
<path d="M122.349 54.2094H92.0171V55.4371H122.349V54.2094Z" fill="white"/>
<path d="M122.349 56.8513H92.0171V58.0788H122.349V56.8513Z" fill="white"/>
<path d="M122.349 59.4935H92.0171V60.7213H122.349V59.4935Z" fill="white"/>
<path d="M122.349 62.1351H92.0171V63.3629H122.349V62.1351Z" fill="white"/>
<path d="M122.349 64.7776H92.0171V66.0051H122.349V64.7776Z" fill="white"/>
<path d="M122.349 67.4193H92.0171V68.6471H122.349V67.4193Z" fill="white"/>
<path d="M122.349 70.0613H92.0171V71.2888H122.349V70.0613Z" fill="white"/>
<path d="M122.349 72.7035H92.0171V73.931H122.349V72.7035Z" fill="white"/>
<path d="M122.349 75.3451H92.0171V76.5729H122.349V75.3451Z" fill="white"/>
<path d="M63.0576 51.1428C63.0595 52.7968 62.6918 54.4302 61.9819 55.9227C61.272 57.4152 60.2378 58.7292 58.9555 59.7678C58.4812 60.1543 57.9753 60.5003 57.4432 60.802C57.1222 60.9851 56.7919 61.1513 56.4535 61.2999C55.3326 61.7965 54.1361 62.1006 52.9146 62.1997C52.6146 62.2246 52.3116 62.237 52.0053 62.2367C51.3993 62.2372 50.7947 62.1874 50.1968 62.0872C49.9863 62.0544 49.7785 62.0133 49.5731 61.9657C49.2142 61.8857 48.8597 61.7869 48.5111 61.6698C47.0774 61.1899 45.7571 60.4193 44.6327 59.4056C44.343 59.148 44.0684 58.8737 43.8101 58.5841C42.6066 57.2485 41.7453 55.6391 41.3002 53.8948C40.8554 52.1505 40.8401 50.3235 41.256 48.5718C41.6719 46.8201 42.5062 45.1965 43.6871 43.8409C44.868 42.4856 46.3601 41.439 48.0341 40.7919C49.7081 40.1445 51.5141 39.9162 53.2958 40.1264C55.0776 40.3364 56.7816 40.9788 58.2606 41.9977C59.7396 43.0169 60.9494 44.3821 61.785 45.9753C62.6209 47.5685 63.0576 49.3421 63.0576 51.1428Z" fill="#C52939"/>
<path d="M95.9384 38.7676C95.9542 42.3183 93.8567 43.5672 91.2628 43.579C91.2025 43.5792 91.1425 43.5787 91.0828 43.5776C90.9628 43.5757 90.8436 43.5705 90.726 43.5628C88.3841 43.4068 86.5593 42.1117 86.5446 38.8095C86.5296 35.392 90.8619 31.0602 91.1867 30.7399L91.1872 30.7394C91.1995 30.7273 91.206 30.7213 91.206 30.7213C91.206 30.7213 95.9228 35.2171 95.9384 38.7676Z" fill="#C52939"/>
<path d="M91.0893 43.0364L92.7963 40.6195L91.086 43.3008L91.0827 43.5776C90.9624 43.5754 90.8435 43.5705 90.7257 43.5625L90.8951 40.0096L90.8934 39.9822L90.8967 39.977L90.9128 39.6411L89.1744 36.9685L90.9169 39.3898L90.9215 39.461L91.0494 36.7763L89.559 34.0134L91.0655 36.3047L91.1863 30.7397L91.1869 30.7213V30.7394L91.1823 35.1275L92.6457 33.3816L91.1776 35.5056L91.1493 37.9088L92.5132 35.5965L91.1454 38.2622L91.1296 39.5987L93.1096 36.3797L91.1239 40.0649L91.0893 43.0364Z" fill="#111111"/>
<path d="M135.312 46.736C130.426 46.736 125.739 48.6842 122.284 52.1526C118.828 55.621 116.887 60.3248 116.887 65.2298C116.887 66.6661 116.319 68.0439 115.307 69.0595C114.295 70.0751 112.923 70.6459 111.492 70.6459H102.542C100.434 70.6459 98.3458 71.0628 96.3977 71.8725C94.4496 72.6825 92.6796 73.8695 91.1889 75.3661C89.6979 76.8627 88.5151 78.6393 87.7083 80.5947C86.9013 82.5498 86.486 84.6456 86.486 86.7619H135.312V46.736Z" fill="#111111"/>
<path d="M80.9585 15.4945H78.5896V86.8282H80.9585V15.4945Z" fill="#222222"/>
<path d="M56.8088 14.4379V12.5885C56.8083 11.5729 56.4057 10.599 55.6901 9.8811C54.9744 9.16317 54.0041 8.75989 52.9923 8.75989C51.9804 8.75989 51.0098 9.16317 50.2942 9.8811C49.5785 10.599 49.1763 11.5729 49.1754 12.5885V14.4379H41.9373V18.5329H64.0473V14.4379H56.8088ZM52.9923 9.81439C53.4346 9.81439 53.8672 9.94609 54.2351 10.1928C54.603 10.4396 54.8899 10.7903 55.0593 11.2007C55.2286 11.611 55.2728 12.0626 55.1863 12.4982C55.1002 12.9338 54.8872 13.334 54.5741 13.648C54.2613 13.9621 53.8625 14.1759 53.4286 14.2626C52.9947 14.3493 52.5447 14.3048 52.1359 14.1348C51.7271 13.9648 51.3777 13.677 51.132 13.3077C50.886 12.9384 50.7548 12.5042 50.7548 12.0601C50.7548 11.7652 50.8126 11.4731 50.925 11.2007C51.0376 10.9282 51.2023 10.6807 51.4102 10.4721C51.618 10.2636 51.8645 10.0982 52.1359 9.98532C52.4075 9.87245 52.6983 9.81439 52.9923 9.81439Z" fill="#C52939"/>
<path d="M53.9678 50.411C53.9678 50.411 52.8684 53.5515 53.5451 54.0346C54.2214 54.5178 51.2618 58.4636 51.2618 58.4636L47.7103 57.4973L49.6551 54.1956C49.6551 54.1956 49.9088 50.8942 49.9088 50.411C49.9088 49.9279 53.9678 50.411 53.9678 50.411Z" fill="#FFB8B8"/>
<path opacity="0.1" d="M53.9678 50.411C53.9678 50.411 52.8684 53.5515 53.5451 54.0346C54.2214 54.5178 51.2618 58.4636 51.2618 58.4636L47.7103 57.4973L49.6551 54.1956C49.6551 54.1956 49.9088 50.8942 49.9088 50.411C49.9088 49.9279 53.9678 50.411 53.9678 50.411Z" fill="black"/>
<path d="M51.7212 52.7467C53.3163 52.7467 54.6093 51.4486 54.6093 49.8477C54.6093 48.2466 53.3163 46.9487 51.7212 46.9487C50.1263 46.9487 48.8333 48.2466 48.8333 49.8477C48.8333 51.4486 50.1263 52.7467 51.7212 52.7467Z" fill="#FFB8B8"/>
<path d="M49.5727 61.9662C49.2138 61.886 48.8596 61.7875 48.5107 61.6703L49.0636 57.8658L49.2346 56.6927L50.1111 57.0232C50.2295 57.0667 50.3639 57.1182 50.5177 57.1751C50.6356 57.2211 50.7613 57.2427 50.8876 57.2381C51.0141 57.2337 51.1379 57.203 51.2522 57.1485C52.0996 56.759 52.6038 55.2424 52.6038 55.2424C52.6038 55.2424 52.6379 55.6678 52.6826 56.3878C52.7631 57.652 52.8787 59.8263 52.9142 62.2C52.6142 62.2252 52.3112 62.2375 52.0049 62.237C51.3992 62.2378 50.7943 62.1877 50.1967 62.0878C49.9862 62.0547 49.7781 62.0139 49.5727 61.9662Z" fill="#D0CDE1"/>
<path d="M50.3571 54.7598L50.1111 57.0226L49.9911 58.1179L49.5728 61.9659C49.2138 61.8857 48.8593 61.7869 48.5108 61.67C47.077 61.1901 45.7568 60.4193 44.6323 59.4059L44.0991 57.497C44.1021 57.3831 44.1136 57.2695 44.1335 57.1576C44.1332 57.1568 44.1335 57.1559 44.1338 57.1554C44.1338 57.1546 44.1343 57.154 44.1348 57.1535C44.1504 57.0536 44.1725 56.9547 44.2006 56.8576C44.2011 56.8565 44.2017 56.8551 44.2019 56.8537C44.2963 56.4902 44.482 56.1573 44.7414 55.8866C45.3837 55.2422 49.6347 53.2288 49.6347 53.2288L49.7148 53.3979L50.3571 54.7598Z" fill="#D0CDE1"/>
<path d="M51.6599 45.7503C52.3 45.7273 52.9854 45.7158 53.5251 46.0621C53.7736 46.2359 53.9915 46.45 54.1698 46.6956C54.6957 47.3627 55.1498 48.2023 54.9545 49.0298L54.7278 48.9411C54.7278 49.162 54.7767 49.3802 54.871 49.5798C54.8391 49.4867 54.7322 49.6372 54.7608 49.7317L55.0107 50.5546C54.9073 50.5225 54.7985 50.5127 54.6913 50.5256C54.5841 50.5387 54.4808 50.574 54.388 50.6296C54.295 50.6852 54.2151 50.7596 54.1527 50.8483C54.0905 50.9367 54.0474 51.0375 54.0264 51.144C53.9978 50.1883 53.899 49.0925 53.1267 48.5327C52.7372 48.2507 52.2441 48.1645 51.7698 48.0878C51.3324 48.0175 50.8737 47.9501 50.4548 48.0947C50.0356 48.2392 49.6786 48.6696 49.7738 49.104C49.6737 49.0813 49.5692 49.0939 49.4773 49.1393C49.3854 49.1847 49.3118 49.2603 49.2689 49.3536C49.1879 49.5428 49.1525 49.7487 49.1653 49.954C48.9594 50.1002 48.7251 49.81 48.6411 49.5713C48.4439 49.0109 48.2688 48.4144 48.3749 47.8297C48.4813 47.245 48.9558 46.6862 49.5479 46.6843C49.4759 46.6052 49.4378 46.5009 49.441 46.3939L49.9289 46.3526C49.8051 46.3348 49.6911 46.2745 49.6066 46.182C49.8027 46.3983 51.343 45.7615 51.6599 45.7503Z" fill="#222222"/>
<path d="M58.38 56.8537C58.305 57.4576 57.876 59.163 57.4429 60.8022C57.1219 60.9854 56.7916 61.1515 56.4534 61.3002C55.3322 61.797 54.1358 62.1009 52.9145 62.2C52.6142 62.2249 52.3112 62.2372 52.005 62.237C51.3992 62.2375 50.7943 62.1877 50.1968 62.0875C50.4204 61.2211 50.7218 59.7929 51.0035 58.3941C51.0889 57.9714 51.1731 57.5499 51.2522 57.1483C51.5615 55.5657 51.801 54.2767 51.801 54.2767C51.801 54.2767 52.7618 53.3309 53.3315 53.1113C53.4087 53.0768 53.4935 53.0629 53.5778 53.0705C54.0474 53.1485 54.6897 54.2767 54.6897 54.2767C54.6897 54.2767 57.5719 55.2408 58.2458 56.3361C58.3483 56.488 58.3958 56.6708 58.38 56.8537Z" fill="#D0CDE1"/>
<path d="M46.1855 56.854L46.017 60.468C45.5282 60.1516 45.0652 59.7965 44.6326 59.4062C44.3427 59.1483 44.0681 58.874 43.8101 58.5844C43.9481 57.9753 44.064 57.4628 44.1338 57.1576C44.1335 57.157 44.1338 57.1562 44.1341 57.1557C44.1341 57.1549 44.1346 57.1543 44.1352 57.1538C44.172 56.9846 44.1957 56.8803 44.2009 56.8578C44.2017 56.8567 44.202 56.8554 44.2022 56.854H46.1855Z" fill="#D0CDE1"/>
<path d="M58.9549 59.7678C58.4807 60.1546 57.975 60.5006 57.4429 60.802C57.1217 60.9851 56.7914 61.1513 56.4532 61.3002L56.1333 59.4297L56.4546 55.8866L58.2456 56.3358L58.38 56.37L58.9549 59.7678Z" fill="#D0CDE1"/>
</g>
<defs>
<clipPath id="clip0">
<rect width="150" height="95.8115" fill="white"/>
</clipPath>
</defs>
</svg>
