<svg width="150" height="96" viewBox="0 0 150 96" fill="none" xmlns="http://www.w3.org/2000/svg">
<g clip-path="url(#clip0)">
<path opacity="0.1" d="M127.931 32.8324C127.448 14.6266 110.345 0 89.3124 0C79.0251 0 69.6859 3.50082 62.7569 9.21263C48.3539 10.3796 36.2451 18.4253 30.817 29.548C14.3285 33.3728 2.18176 46.4639 2.18176 62.0319C2.18176 80.6106 19.4751 95.6579 40.8087 95.6579C47.0751 95.6516 53.2251 94.3459 58.6194 91.8761C63.6774 94.0801 69.3657 95.2714 75.1685 95.342C80.9716 95.4124 86.7051 94.3601 91.8501 92.2799C97.1015 94.5862 103.033 95.8027 109.07 95.8115C130.404 95.8115 147.697 80.7642 147.697 62.1852C147.697 49.5731 139.725 38.5888 127.931 32.8324Z" fill="#C52939"/>
<path d="M48.5337 9.29456C46.8736 9.29644 45.2823 9.95916 44.1084 11.1373C42.9349 12.3154 42.2746 13.9128 42.2727 15.5789V87.978C42.2746 89.6443 42.9349 91.2416 44.1087 92.4195C45.2822 93.5977 46.8736 94.2605 48.5337 94.2624H101.446C103.106 94.2605 104.697 93.5977 105.871 92.4195C107.044 91.2413 107.705 89.644 107.707 87.978V15.5789C107.705 13.9128 107.045 12.3154 105.871 11.1373C104.697 9.95919 103.106 9.29647 101.446 9.29456H48.5337Z" fill="#111111"/>
<path d="M104.451 13.7579H45.5286V89.7984H104.451V13.7579Z" fill="white"/>
<path d="M96.7481 27.3876H53.2314V30.257H96.7481V27.3876Z" fill="#C52939"/>
<path d="M96.7481 35.0397H53.2314V37.9091H96.7481V35.0397Z" fill="#C52939"/>
<path d="M96.7481 42.6917H53.2314V45.5611H96.7481V42.6917Z" fill="#C52939"/>
<path d="M96.7481 50.3438H53.2314V53.2132H96.7481V50.3438Z" fill="#C52939"/>
<path d="M96.7481 57.9952H53.2314V60.8649H96.7481V57.9952Z" fill="#C52939"/>
<path d="M96.7481 65.6471H53.2314V68.5165H96.7481V65.6471Z" fill="#C52939"/>
<path d="M96.7481 73.2991H53.2314V76.1685H96.7481V73.2991Z" fill="#C52939"/>
<path d="M97.3606 8.93652L54.21 16.8628L64.3628 72.5499L107.514 64.6238L97.3606 8.93652Z" fill="#F0F0F0"/>
<path d="M93.5391 19.9542L61.6704 25.8081L62.0536 27.9096L93.9223 22.0556L93.5391 19.9542Z" fill="#C52939"/>
<path d="M94.5611 25.5581L62.6921 31.412L63.0753 33.5133L94.944 27.6595L94.5611 25.5581Z" fill="#C52939"/>
<path d="M95.5827 31.1617L63.7137 37.0158L64.0969 39.1171L95.9657 33.2633L95.5827 31.1617Z" fill="#C52939"/>
<path d="M96.6043 36.7656L64.7354 42.6194L65.1185 44.721L96.9875 38.8672L96.6043 36.7656Z" fill="#C52939"/>
<path d="M97.6257 42.3695L65.757 48.2233L66.1401 50.3249L98.0089 44.4711L97.6257 42.3695Z" fill="#C52939"/>
<path d="M98.6477 47.9728L66.7787 53.8266L67.1619 55.9279L99.0309 50.0741L98.6477 47.9728Z" fill="#C52939"/>
<path d="M99.6693 53.5769L67.8005 59.431L68.1834 61.5323L100.052 55.6785L99.6693 53.5769Z" fill="#C52939"/>
<path d="M85.8996 5.6278H80.7074V4.56087C80.7074 3.78685 80.4008 3.04453 79.8557 2.49724C79.3105 1.94993 78.5708 1.64246 77.7998 1.64246H72.1798C71.4088 1.64246 70.6691 1.94993 70.1239 2.49724C69.5785 3.04453 69.2722 3.78685 69.2722 4.56087V5.6278H64.08C63.6982 5.6278 63.3199 5.7033 62.9673 5.84995C62.6147 5.99662 62.2939 6.2116 62.0239 6.48258C61.7539 6.75359 61.5399 7.0753 61.3937 7.42939C61.2478 7.78345 61.1725 8.16298 61.1725 8.54622V16.6274H88.8071V8.54622C88.8071 8.16298 88.7318 7.78345 88.5859 7.42939C88.4397 7.0753 88.2257 6.75359 87.9557 6.48258C87.6857 6.2116 87.3649 5.99662 87.0123 5.84995C86.6594 5.7033 86.2814 5.6278 85.8996 5.6278Z" fill="#111111"/>
<path d="M73.1256 84.2689C73.9841 83.6793 74.8664 83.0658 75.8861 82.7978C76.8161 82.5531 77.8841 82.6179 78.6199 83.3015C79.2137 83.8531 79.4643 84.7012 79.0244 85.4269C78.93 85.5925 78.8018 85.7362 78.648 85.8484C78.4945 85.9607 78.3188 86.0387 78.1328 86.0781C77.9531 86.1019 77.7704 86.0795 77.6016 86.0132C77.4328 85.9473 77.2833 85.8391 77.1674 85.6995C76.9367 85.4436 76.7987 85.0655 76.9214 84.7283C77.0501 84.3738 77.3948 84.157 77.7336 84.0357C78.1277 83.9106 78.5335 83.8263 78.9447 83.7847L80.6297 83.5531L87.525 82.6056L95.2039 81.5506C95.2645 81.5334 95.316 81.4929 95.3471 81.4378C95.3785 81.3825 95.3867 81.3174 95.3703 81.2563C95.3523 81.1961 95.3117 81.1452 95.2571 81.114C95.2026 81.083 95.1382 81.074 95.0774 81.0893L79.7976 83.189C79.245 83.2648 78.6846 83.3193 78.1375 83.4307C77.7071 83.5008 77.2988 83.6708 76.9457 83.9278C76.2137 84.5093 76.266 85.5383 76.9397 86.1468C77.6215 86.7628 78.6101 86.6565 79.2085 85.9763C79.5109 85.6319 79.6904 85.1964 79.7188 84.7381C79.7471 84.2799 79.6222 83.8252 79.3645 83.446C78.7113 82.4575 77.5211 82.0776 76.3838 82.218C75.0685 82.3801 73.9536 83.1222 72.8853 83.8558C72.6338 84.0286 72.8717 84.4433 73.1256 84.2689Z" fill="#111111"/>
</g>
<defs>
<clipPath id="clip0">
<rect width="150" height="95.8115" fill="white"/>
</clipPath>
</defs>
</svg>
