<svg width="150" height="96" viewBox="0 0 150 96" fill="none" xmlns="http://www.w3.org/2000/svg">
<g opacity="0.1">
<path opacity="0.1" d="M106.275 83.2386C107.695 83.2386 108.846 81.8242 108.846 80.079C108.846 78.3339 107.695 76.9192 106.275 76.9192C104.855 76.9192 103.703 78.3339 103.703 80.079C103.703 81.8242 104.855 83.2386 106.275 83.2386Z" fill="#111111"/>
<path opacity="0.1" d="M108.31 66.5611C108.67 65.9742 108.857 65.3073 108.851 64.6298C108.851 62.8811 107.7 61.4702 106.28 61.4702C104.86 61.4702 103.709 62.8844 103.709 64.6298C103.702 65.3071 103.888 65.9736 104.246 66.5611C103.894 67.151 103.709 67.8157 103.709 68.4918C103.709 69.168 103.894 69.8326 104.246 70.4226C103.894 71.0125 103.709 71.6774 103.709 72.3539C103.709 73.03 103.894 73.695 104.246 74.2849C103.888 74.8723 103.702 75.5392 103.709 76.2162C103.709 77.9649 104.861 79.376 106.28 79.376C107.699 79.376 108.851 77.9616 108.851 76.2162C108.858 75.5392 108.673 74.8723 108.314 74.2849C108.666 73.695 108.851 73.03 108.851 72.3539C108.851 71.6774 108.666 71.0125 108.314 70.4226C108.666 69.8326 108.851 69.168 108.851 68.4918C108.851 67.8157 108.666 67.151 108.314 66.5611H108.31Z" fill="#111111"/>
<path opacity="0.1" d="M106.275 63.9282C107.695 63.9282 108.846 62.5135 108.846 60.7686C108.846 59.0235 107.695 57.6088 106.275 57.6088C104.855 57.6088 103.703 59.0235 103.703 60.7686C103.703 62.5135 104.855 63.9282 106.275 63.9282Z" fill="#111111"/>
<path opacity="0.1" d="M106.275 60.0659C107.695 60.0659 108.846 58.6512 108.846 56.906C108.846 55.1612 107.695 53.7465 106.275 53.7465C104.855 53.7465 103.703 55.1612 103.703 56.906C103.703 58.6512 104.855 60.0659 106.275 60.0659Z" fill="#111111"/>
<path opacity="0.1" d="M115.899 30.4765C116.25 30.0563 116.57 29.6142 116.856 29.153L110.104 28.1114L117.411 28.1628C118.111 26.7308 118.493 25.1799 118.533 23.6047C118.573 22.0295 118.271 20.4633 117.644 19.0016L107.84 23.7734L116.882 17.5371C116.035 16.164 114.896 14.9694 113.535 14.0276C112.175 13.0858 110.623 12.417 108.975 12.0628C107.328 11.7086 105.62 11.6766 103.959 11.9688C102.298 12.261 100.719 12.8711 99.3193 13.7612C97.9202 14.6513 96.7311 15.8023 95.8259 17.1426C94.921 18.4828 94.3194 19.9836 94.0589 21.5516C93.7982 23.1196 93.8841 24.7211 94.3112 26.2565C94.7383 27.7919 95.4973 29.2285 96.5413 30.4765C95.9942 31.13 95.5235 31.8368 95.1376 32.5847L103.906 36.8625L94.5567 33.9115C93.8988 35.733 93.7352 37.6799 94.0808 39.5756C94.4263 41.4716 95.2701 43.2564 96.5356 44.7689C95.1067 46.4743 94.2179 48.523 93.9708 50.6804C93.7235 52.8378 94.1279 55.0169 95.1376 56.9687C96.1472 58.9205 97.7214 60.5663 99.6801 61.7177C101.639 62.8688 103.903 63.4795 106.214 63.4795C108.525 63.4795 110.79 62.8688 112.748 61.7177C114.707 60.5663 116.281 58.9205 117.291 56.9687C118.301 55.0169 118.705 52.8378 118.458 50.6804C118.211 48.523 117.322 46.4743 115.893 44.7689C117.6 42.7311 118.529 40.2134 118.529 37.6205C118.529 35.0276 117.6 32.5099 115.893 30.4722L115.899 30.4765Z" fill="#C52939"/>
<path opacity="0.1" d="M93.906 37.6251C93.9019 40.2186 94.8305 42.7373 96.5413 44.7729C95.1128 46.4786 94.224 48.5271 93.9766 50.6845C93.7295 52.8419 94.134 55.0209 95.1436 56.9727C96.1532 58.9246 97.7274 60.5703 99.6861 61.7217C101.645 62.8731 103.909 63.4836 106.22 63.4836C108.531 63.4836 110.795 62.8731 112.754 61.7217C114.713 60.5703 116.287 58.9246 117.297 56.9727C118.307 55.0209 118.711 52.8419 118.464 50.6845C118.216 48.5271 117.328 46.4786 115.899 44.7729C117.549 42.8058 93.906 36.3267 93.906 37.6251Z" fill="#222222"/>
</g>
<g opacity="0.1">
<path opacity="0.1" d="M34.1568 79.8592C35.0208 79.8592 35.7212 78.998 35.7212 77.9356C35.7212 76.8732 35.0208 76.012 34.1568 76.012C33.2928 76.012 32.5925 76.8732 32.5925 77.9356C32.5925 78.998 33.2928 79.8592 34.1568 79.8592Z" fill="#111111"/>
<path opacity="0.1" d="M35.4008 69.7067C35.6193 69.3489 35.7322 68.9432 35.7281 68.5307C35.7281 67.4685 35.0297 66.6071 34.1624 66.6071C33.2951 66.6071 32.598 67.4685 32.598 68.5307C32.5934 68.9429 32.706 69.3489 32.9239 69.7067C32.7104 70.0661 32.598 70.4707 32.598 70.8822C32.598 71.2936 32.7104 71.6985 32.9239 72.0576C32.7104 72.4171 32.598 72.8217 32.598 73.2331C32.598 73.6445 32.7104 74.0494 32.9239 74.4086C32.7058 74.7661 32.5934 75.1715 32.598 75.5835C32.598 76.647 33.2965 77.5082 34.1624 77.5082C35.0286 77.5082 35.7281 76.647 35.7281 75.5835C35.7325 75.1715 35.6196 74.7658 35.4008 74.4086C35.6152 74.0494 35.7278 73.6448 35.7278 73.2331C35.7278 72.8214 35.6152 72.4168 35.4008 72.0576C35.6152 71.6985 35.7278 71.2939 35.7278 70.8822C35.7278 70.4707 35.6152 70.0659 35.4008 69.7067Z" fill="#111111"/>
<path opacity="0.1" d="M34.1568 68.1033C35.0208 68.1033 35.7212 67.2421 35.7212 66.1797C35.7212 65.1176 35.0208 64.2563 34.1568 64.2563C33.2928 64.2563 32.5925 65.1176 32.5925 66.1797C32.5925 67.2421 33.2928 68.1033 34.1568 68.1033Z" fill="#111111"/>
<path opacity="0.1" d="M34.1568 65.7525C35.0208 65.7525 35.7212 64.8913 35.7212 63.8291C35.7212 62.7667 35.0208 61.9055 34.1568 61.9055C33.2928 61.9055 32.5925 62.7667 32.5925 63.8291C32.5925 64.8913 33.2928 65.7525 34.1568 65.7525Z" fill="#111111"/>
<path opacity="0.1" d="M28.3006 47.7385C28.0871 47.4831 27.8926 47.214 27.7186 46.9331L31.8311 46.2991L27.3834 46.3309C26.9576 45.4595 26.7253 44.5159 26.7007 43.5575C26.6761 42.5994 26.8597 41.6462 27.2403 40.7568L33.2034 43.6651L27.7012 39.8617C28.2174 39.0262 28.911 38.2997 29.739 37.7267C30.567 37.154 31.5117 36.7472 32.5142 36.5321C33.5168 36.3166 34.5559 36.2975 35.5669 36.4754C36.5776 36.6533 37.5387 37.0248 38.3902 37.5663C39.2416 38.108 39.9654 38.8086 40.5161 39.6241C41.067 40.4395 41.433 41.3528 41.592 42.3071C41.7507 43.2611 41.6986 44.2356 41.439 45.1702C41.1793 46.1045 40.7179 46.9788 40.083 47.7385C40.416 48.1357 40.7023 48.5655 40.9372 49.0204L35.5991 51.6262L41.2912 49.8326C41.691 50.9419 41.7897 52.1272 41.5789 53.2813C41.3678 54.4354 40.8537 55.5222 40.083 56.4428C40.9524 57.4809 41.4935 58.728 41.6438 60.0412C41.7943 61.3547 41.5481 62.6812 40.9336 63.8693C40.3189 65.0574 39.3605 66.0593 38.1682 66.7601C36.9758 67.4609 35.5974 67.8326 34.1907 67.8326C32.784 67.8326 31.4056 67.4609 30.213 66.7601C29.0206 66.0593 28.0622 65.0574 27.4478 63.8693C26.8331 62.6812 26.5869 61.3547 26.7373 60.0412C26.8877 58.728 27.4287 57.4809 28.2984 56.4428C27.2592 55.2019 26.6942 53.6692 26.6942 52.0905C26.6942 50.5121 27.2592 48.9794 28.2984 47.7385H28.3006Z" fill="#C52939"/>
<path opacity="0.1" d="M41.6869 52.0905C41.6893 53.6695 41.124 55.2027 40.0827 56.4425C40.9524 57.4808 41.4932 58.7278 41.6438 60.0412C41.7941 61.3544 41.5481 62.6809 40.9333 63.869C40.3186 65.0573 39.3605 66.059 38.1681 66.7598C36.9755 67.4606 35.5971 67.8323 34.1904 67.8323C32.7837 67.8323 31.4053 67.4606 30.213 66.7598C29.0206 66.059 28.0622 65.0573 27.4475 63.869C26.8329 62.6809 26.5868 61.3544 26.7372 60.0412C26.8876 58.7278 27.4287 57.4808 28.2981 56.4425C27.2937 55.2501 41.6869 51.3002 41.6869 52.0905Z" fill="#222222"/>
</g>
<g opacity="0.1">
<path opacity="0.1" d="M69.4269 81.5334C70.5835 81.5334 71.5209 80.381 71.5209 78.9597C71.5209 77.5381 70.5835 76.3856 69.4269 76.3856C68.2702 76.3856 67.3329 77.5381 67.3329 78.9597C67.3329 80.381 68.2702 81.5334 69.4269 81.5334Z" fill="#111111"/>
<path opacity="0.1" d="M71.0841 67.9469C71.376 67.4681 71.5268 66.9247 71.5208 66.3731C71.5208 64.9523 70.5894 63.7993 69.4254 63.7993C68.2614 63.7993 67.3303 64.9523 67.3303 66.3731C67.3241 66.925 67.4751 67.4684 67.7678 67.9469C67.4809 68.4276 67.3303 68.9693 67.3303 69.5204C67.3303 70.0711 67.4809 70.6129 67.7678 71.0936C67.4809 71.574 67.3303 72.1155 67.3303 72.6663C67.3303 73.217 67.4809 73.7585 67.7678 74.2389C67.4751 74.7177 67.3241 75.2611 67.3303 75.813C67.3303 77.2337 68.2685 78.3868 69.4254 78.3868C70.5826 78.3868 71.5208 77.2337 71.5208 75.813C71.5268 75.2611 71.376 74.718 71.0841 74.2389C71.3705 73.7585 71.5208 73.217 71.5208 72.6663C71.5208 72.1158 71.3705 71.5743 71.0841 71.0936C71.3705 70.6126 71.5208 70.0711 71.5208 69.5204C71.5208 68.9693 71.3705 68.4278 71.0841 67.9469Z" fill="#111111"/>
<path opacity="0.1" d="M69.4269 65.8015C70.5835 65.8015 71.5209 64.6493 71.5209 63.2277C71.5209 61.8062 70.5835 60.6537 69.4269 60.6537C68.2702 60.6537 67.3329 61.8062 67.3329 63.2277C67.3329 64.6493 68.2702 65.8015 69.4269 65.8015Z" fill="#111111"/>
<path opacity="0.1" d="M69.4269 62.655C70.5835 62.655 71.5209 61.5025 71.5209 60.0812C71.5209 58.6597 70.5835 57.5072 69.4269 57.5072C68.2702 57.5072 67.3329 58.6597 67.3329 60.0812C67.3329 61.5025 68.2702 62.655 69.4269 62.655Z" fill="#111111"/>
<path opacity="0.1" d="M61.5919 38.5499C61.3055 38.2083 61.0451 37.8481 60.8119 37.4725L66.3141 36.6241L60.3638 36.6657C59.7927 35.4993 59.4812 34.236 59.4482 32.9524C59.4152 31.669 59.6615 30.3931 60.1718 29.202L68.157 33.0909L60.792 28.0085C61.4801 26.8858 62.4073 25.9084 63.516 25.1374C64.6246 24.3663 65.8906 23.8182 67.2349 23.5274C68.5791 23.2364 69.9728 23.209 71.3291 23.4467C72.6851 23.6844 73.9745 24.1822 75.1164 24.9089C76.2586 25.6357 77.2287 26.5757 77.9661 27.6704C78.7039 28.7651 79.1929 29.9907 79.4031 31.271C79.6134 32.5511 79.5403 33.8582 79.1882 35.1109C78.8364 36.3633 78.213 37.5341 77.3571 38.5499C77.8028 39.0827 78.186 39.6586 78.5002 40.2683L71.358 43.7525L78.9741 41.3479C79.509 42.8322 79.6415 44.4185 79.359 45.963C79.0767 47.5072 78.3886 48.9614 77.3571 50.1932C78.5209 51.5825 79.245 53.2513 79.4462 55.0087C79.6475 56.7662 79.3181 58.5414 78.4955 60.1314C77.673 61.7213 76.3906 63.0618 74.7949 63.9997C73.1991 64.9375 71.3547 65.4349 69.4721 65.4349C67.5897 65.4349 65.7452 64.9375 64.1495 63.9997C62.5538 63.0618 61.2714 61.7213 60.4489 60.1314C59.6263 58.5414 59.2969 56.7662 59.4982 55.0087C59.6994 53.2513 60.4232 51.5825 61.5872 50.1932C60.1966 48.5327 59.4409 46.4818 59.4409 44.3695C59.4409 42.257 60.1966 40.2061 61.5872 38.5456L61.5919 38.5499Z" fill="#C52939"/>
<path opacity="0.1" d="M79.5038 44.3741C79.5071 46.4869 78.7508 48.5389 77.3572 50.1976C78.5209 51.5868 79.245 53.2556 79.4463 55.0131C79.6475 56.7705 79.3181 58.5458 78.4955 60.1357C77.673 61.7256 76.3906 63.0662 74.7949 64.004C73.1992 64.9419 71.3547 65.4393 69.4721 65.4393C67.5897 65.4393 65.7452 64.9419 64.1495 64.004C62.5538 63.0662 61.2714 61.7256 60.4489 60.1357C59.6263 58.5458 59.2969 56.7705 59.4982 55.0131C59.6994 53.2556 60.4232 51.5868 61.5872 50.1976C60.2427 48.5953 79.5038 43.3164 79.5038 44.3741Z" fill="#222222"/>
</g>
<path d="M141.545 81.2997C141.545 82.0519 135.694 82.7396 126.019 83.2706C124.26 83.3659 122.375 83.4568 120.375 83.5422C118.648 83.615 116.837 83.684 114.943 83.7492C113.108 83.8105 111.203 83.8674 109.228 83.92C102.989 84.0875 96.0925 84.208 88.7657 84.2682C86.9878 84.2835 85.1859 84.295 83.3605 84.3032C81.4588 84.3112 79.5355 84.3147 77.5904 84.3142C42.2687 84.3142 13.6364 82.9662 13.6364 81.303C13.6364 79.6397 42.2687 78.2917 77.5904 78.2917C92.7974 78.2917 106.762 78.5425 117.738 78.9586L118.938 79.0046H118.945C132.772 79.5554 141.545 80.3843 141.545 81.2997Z" fill="#111111"/>
<path opacity="0.15" d="M141.545 81.2997C141.545 82.0519 135.694 82.7396 126.019 83.2706C124.26 83.3659 122.375 83.4568 120.375 83.5422C118.648 83.615 116.837 83.684 114.943 83.7492C113.108 83.8105 111.203 83.8674 109.228 83.92C102.989 84.0875 96.0925 84.208 88.7657 84.2682C86.9878 84.2835 85.1859 84.295 83.3605 84.3032C81.4588 84.3112 79.5355 84.3147 77.5904 84.3142C42.2687 84.3142 13.6364 82.9662 13.6364 81.303C13.6364 79.6397 42.2687 78.2917 77.5904 78.2917C92.7974 78.2917 106.762 78.5425 117.738 78.9586L118.938 79.0046H118.945C132.772 79.5554 141.545 80.3843 141.545 81.2997Z" fill="#222222"/>
<path d="M136.364 80.7588C136.364 81.3736 130.512 81.937 120.838 82.3654C119.079 82.4437 117.193 82.5176 115.194 82.5871C113.466 82.6471 111.655 82.7037 109.762 82.7566C107.928 82.8064 106.023 82.8532 104.047 82.8967C97.8074 83.0339 90.9107 83.1324 83.5839 83.1817C81.8073 83.1937 80.0057 83.203 78.1787 83.2096C76.277 83.2159 74.354 83.2192 72.4097 83.2192C37.088 83.2192 8.45459 82.1168 8.45459 80.7555C8.45459 79.3941 37.088 78.2917 72.4097 78.2917C87.6156 78.2917 101.58 78.4962 112.557 78.8371L113.757 78.8746H113.765C127.596 79.332 136.364 80.0057 136.364 80.7588Z" fill="#111111"/>
<path d="M25.0518 58.0345L23.4545 53.2433L61.7056 52.8333L63.2727 57.5768L25.0518 58.0345Z" fill="#111111"/>
<path opacity="0.15" d="M25.0518 58.0345L23.4545 53.2433L61.7056 52.8333L63.2727 57.5768L25.0518 58.0345Z" fill="#222222"/>
<path d="M22.3355 58.0345L20.7272 53.2433L59.2401 52.8333L60.8181 57.5768L22.3355 58.0345Z" fill="#111111"/>
<path d="M88.0525 50.8069C84.0944 50.8069 80.9747 49.3281 78.6939 46.3711C76.413 43.4138 75.2728 39.8313 75.2728 35.6235C75.2728 31.3876 76.3757 27.8124 78.5815 24.8981C80.7873 21.9838 83.8986 20.5281 87.9156 20.531C92.1756 20.531 95.3853 22.0664 97.5448 25.1372C99.7039 28.208 100.784 31.762 100.785 35.7995C100.785 39.8077 99.6674 43.3114 97.4321 46.3109C95.1969 49.3103 92.0706 50.8091 88.0525 50.8069ZM88.1687 47.4803C90.7727 47.4803 92.7189 46.4122 94.0075 44.2758C95.2959 42.1398 95.9403 39.4467 95.9403 36.1967C95.9403 32.5794 95.2809 29.6175 93.9622 27.3109C92.6436 25.0043 90.621 23.8507 87.8949 23.85C82.713 23.85 80.1221 27.7237 80.1221 35.4708C80.1221 43.4779 82.8036 47.4809 88.1662 47.4803H88.1687ZM89.4726 79.3368H83.7475L121.228 21.1238H126.846L89.4726 79.3368ZM122.631 79.9342C118.613 79.9342 115.481 78.442 113.234 75.4578C110.987 72.4737 109.859 68.8909 109.85 64.7094C109.85 60.5017 110.945 56.9408 113.135 54.0264C115.326 51.1121 118.445 49.6566 122.493 49.6594C126.723 49.6594 129.91 51.1948 132.055 54.2657C134.199 57.3363 135.272 60.8901 135.273 64.9268C135.273 68.9087 134.162 72.4061 131.942 75.4187C129.722 78.4313 126.617 79.9364 122.629 79.9342H122.631ZM122.698 76.5224C125.29 76.5224 127.226 75.4724 128.506 73.3727C129.786 71.2728 130.426 68.5906 130.426 65.3262C130.426 61.8326 129.778 58.9027 128.483 56.5364C127.187 54.1702 125.169 52.9854 122.428 52.9816C117.216 52.9816 114.61 56.8554 114.61 64.6024C114.608 72.5498 117.304 76.523 122.696 76.5224H122.698Z" fill="#111111"/>
<path d="M88.0525 50.8069C84.0944 50.8069 80.9747 49.3281 78.6939 46.3711C76.413 43.4138 75.2728 39.8313 75.2728 35.6235C75.2728 31.3876 76.3757 27.8124 78.5815 24.8981C80.7873 21.9838 83.8986 20.5281 87.9156 20.531C92.1756 20.531 95.3853 22.0664 97.5448 25.1372C99.7039 28.208 100.784 31.762 100.785 35.7995C100.785 39.8077 99.6674 43.3114 97.4321 46.3109C95.1969 49.3103 92.0706 50.8091 88.0525 50.8069ZM88.1687 47.4803C90.7727 47.4803 92.7189 46.4122 94.0075 44.2758C95.2959 42.1398 95.9403 39.4467 95.9403 36.1967C95.9403 32.5794 95.2809 29.6175 93.9622 27.3109C92.6436 25.0043 90.621 23.8507 87.8949 23.85C82.713 23.85 80.1221 27.7237 80.1221 35.4708C80.1221 43.4779 82.8036 47.4809 88.1662 47.4803H88.1687ZM89.4726 79.3368H83.7475L121.228 21.1238H126.846L89.4726 79.3368ZM122.631 79.9342C118.613 79.9342 115.481 78.442 113.234 75.4578C110.987 72.4737 109.859 68.8909 109.85 64.7094C109.85 60.5017 110.945 56.9408 113.135 54.0264C115.326 51.1121 118.445 49.6566 122.493 49.6594C126.723 49.6594 129.91 51.1948 132.055 54.2657C134.199 57.3363 135.272 60.8901 135.273 64.9268C135.273 68.9087 134.162 72.4061 131.942 75.4187C129.722 78.4313 126.617 79.9364 122.629 79.9342H122.631ZM122.698 76.5224C125.29 76.5224 127.226 75.4724 128.506 73.3727C129.786 71.2728 130.426 68.5906 130.426 65.3262C130.426 61.8326 129.778 58.9027 128.483 56.5364C127.187 54.1702 125.169 52.9854 122.428 52.9816C117.216 52.9816 114.61 56.8554 114.61 64.6024C114.608 72.5498 117.304 76.523 122.696 76.5224H122.698Z" fill="#111111"/>
<path opacity="0.15" d="M88.0525 50.8069C84.0944 50.8069 80.9747 49.3281 78.6939 46.3711C76.413 43.4138 75.2728 39.8313 75.2728 35.6235C75.2728 31.3876 76.3757 27.8124 78.5815 24.8981C80.7873 21.9838 83.8986 20.5281 87.9156 20.531C92.1756 20.531 95.3853 22.0664 97.5448 25.1372C99.7039 28.208 100.784 31.762 100.785 35.7995C100.785 39.8077 99.6674 43.3114 97.4321 46.3109C95.1969 49.3103 92.0706 50.8091 88.0525 50.8069ZM88.1687 47.4803C90.7727 47.4803 92.7189 46.4122 94.0075 44.2758C95.2959 42.1398 95.9403 39.4467 95.9403 36.1967C95.9403 32.5794 95.2809 29.6175 93.9622 27.3109C92.6436 25.0043 90.621 23.8507 87.8949 23.85C82.713 23.85 80.1221 27.7237 80.1221 35.4708C80.1221 43.4779 82.8036 47.4809 88.1662 47.4803H88.1687ZM89.4726 79.3368H83.7475L121.228 21.1238H126.846L89.4726 79.3368ZM122.631 79.9342C118.613 79.9342 115.481 78.442 113.234 75.4578C110.987 72.4737 109.859 68.8909 109.85 64.7094C109.85 60.5017 110.945 56.9408 113.135 54.0264C115.326 51.1121 118.445 49.6566 122.493 49.6594C126.723 49.6594 129.91 51.1948 132.055 54.2657C134.199 57.3363 135.272 60.8901 135.273 64.9268C135.273 68.9087 134.162 72.4061 131.942 75.4187C129.722 78.4313 126.617 79.9364 122.629 79.9342H122.631ZM122.698 76.5224C125.29 76.5224 127.226 75.4724 128.506 73.3727C129.786 71.2728 130.426 68.5906 130.426 65.3262C130.426 61.8326 129.778 58.9027 128.483 56.5364C127.187 54.1702 125.169 52.9854 122.428 52.9816C117.216 52.9816 114.61 56.8554 114.61 64.6024C114.608 72.5498 117.304 76.523 122.696 76.5224H122.698Z" fill="#222222"/>
<path d="M84.2924 50.8069C80.3163 50.8069 77.1824 49.3281 74.8912 46.3711C72.6 43.4138 71.4546 39.8313 71.4546 35.6235C71.4546 31.3876 72.5624 27.8124 74.7783 24.8981C76.9939 21.9838 80.1196 20.5281 84.1549 20.531C88.4343 20.531 91.6585 22.0664 93.8277 25.1372C95.9967 28.208 97.0819 31.762 97.0827 35.7995C97.0827 39.8077 95.9599 43.3114 93.7146 46.3109C91.4692 49.3103 88.3285 50.8091 84.2924 50.8069ZM84.4091 47.4803C87.0248 47.4803 88.98 46.4122 90.2744 44.2758C91.5687 42.1398 92.2159 39.4467 92.2159 36.1967C92.2159 32.5794 91.5537 29.6175 90.2288 27.3109C88.9042 25.0043 86.8727 23.8507 84.1339 23.85C78.9287 23.85 76.326 27.7237 76.326 35.4708C76.326 43.4779 79.0195 47.4809 84.4067 47.4803H84.4091ZM85.719 79.3368H79.9677L117.619 21.1238H123.262L85.719 79.3368ZM119.028 79.9342C114.992 79.9342 111.845 78.442 109.588 75.4578C107.332 72.4737 106.198 68.8909 106.189 64.7094C106.189 60.5017 107.289 56.9408 109.489 54.0264C111.689 51.1121 114.823 49.6566 118.889 49.6594C123.138 49.6594 126.34 51.1948 128.494 54.2657C130.649 57.3363 131.726 60.8901 131.727 64.9268C131.727 68.9087 130.612 72.4061 128.381 75.4187C126.151 78.4313 123.032 79.9364 119.026 79.9342H119.028ZM119.096 76.5224C121.699 76.5224 123.644 75.4724 124.93 73.3727C126.215 71.2728 126.858 68.5906 126.858 65.3262C126.858 61.8326 126.208 58.9027 124.906 56.5364C123.605 54.1702 121.577 52.9854 118.822 52.9816C113.586 52.9816 110.968 56.8554 110.968 64.6024C110.968 72.5498 113.677 76.523 119.093 76.5224H119.096Z" fill="#111111"/>
<path d="M96.9603 80.7555C97.4365 79.9225 96.8954 78.9019 96.2736 78.1585C95.6515 77.4147 94.8933 76.643 94.9094 75.6953C94.9326 74.3358 96.4631 73.5321 97.6839 72.8105C98.5918 72.2756 99.4293 71.6408 100.179 70.9198C100.492 70.6422 100.752 70.3145 100.945 69.9518C101.198 69.4196 101.19 68.8144 101.176 68.2324C101.123 66.2901 101.021 64.3509 100.871 62.4144" stroke="#111111" stroke-width="4" stroke-miterlimit="10"/>
<path d="M103.088 62.312C103.071 61.9455 102.963 61.5888 102.773 61.2753C102.582 60.9619 102.317 60.7013 102 60.5181L101.511 61.4883L101.526 60.3134C101.292 60.2449 101.049 60.2157 100.807 60.2266C100.376 60.2469 99.9605 60.395 99.6133 60.6523C99.2661 60.9096 99.0027 61.2644 98.8565 61.6717C98.71 62.0793 98.6874 62.5212 98.7913 62.9416C98.8952 63.3621 99.121 63.7421 99.4401 64.0336C99.7592 64.3251 100.157 64.5154 100.584 64.58C101.01 64.6443 101.447 64.5806 101.837 64.3963C102.228 64.2121 102.555 63.9156 102.778 63.5447C103.001 63.1738 103.109 62.7448 103.088 62.312Z" fill="#C52939"/>
<path d="M99.2857 76.8301C99.0425 77.2769 98.6443 77.6308 98.1575 77.8329C97.6709 78.0352 97.1257 78.0729 96.6133 77.9399C96.1006 77.8071 95.6519 77.5118 95.3424 77.1033C95.0328 76.6949 94.8815 76.1983 94.9131 75.6968C94.945 75.1953 95.1583 74.7195 95.5172 74.3489C95.8761 73.9785 96.3588 73.7357 96.8847 73.6618C97.4102 73.5879 97.9469 73.687 98.4046 73.9426C98.8619 74.1983 99.2127 74.5947 99.3976 75.0658L97.9494 76.1794L99.5454 75.8279C99.5448 76.177 99.4557 76.5205 99.2857 76.8301Z" fill="#C52939"/>
<path d="M98.0166 72.5409C97.7297 72.5534 97.443 72.5129 97.1727 72.4215C96.9028 72.3303 96.6543 72.1899 96.4421 72.0084C96.2297 71.8272 96.0576 71.6082 95.9354 71.3643C95.8132 71.1207 95.7434 70.8565 95.73 70.5874C95.7128 70.266 95.7778 69.9457 95.9188 69.6523C96.0494 69.3782 96.2425 69.1346 96.4844 68.9381C96.7263 68.7415 97.011 68.597 97.3187 68.5148L97.3064 69.3583L97.8019 68.439C98.3812 68.4136 98.9477 68.6052 99.3764 68.9715C99.8054 69.3377 100.061 69.8488 100.088 70.3925C100.116 70.9359 99.9115 71.4672 99.5209 71.8696C99.1307 72.2718 98.5858 72.5121 98.0065 72.5376L98.0166 72.5409Z" fill="#C52939"/>
<path d="M103.629 69.2531C103.324 69.2726 103.019 69.2337 102.73 69.139C102.442 69.0443 102.176 68.8956 101.948 68.7018C101.721 68.508 101.536 68.2729 101.405 68.0101C101.273 67.7473 101.199 67.462 101.184 67.1713C101.17 66.8806 101.217 66.5899 101.322 66.3167C101.426 66.0432 101.587 65.7927 101.795 65.5794C102.003 65.3659 102.253 65.1943 102.531 65.0744C102.809 64.9545 103.109 64.8885 103.414 64.8806C103.843 64.8609 104.269 64.9569 104.643 65.1584L104.237 66.2176L105.072 65.4541C105.519 65.8436 105.787 66.3867 105.815 66.9641C105.826 67.1666 105.806 67.3695 105.756 67.5669C105.642 68.0303 105.373 68.4459 104.989 68.7503C104.605 69.0544 104.127 69.2312 103.629 69.2531Z" fill="#C52939"/>
<path opacity="0.1" d="M102.84 62.9873C102.331 63.0396 101.837 63.1888 101.325 63.2187C100.814 63.2485 100.252 63.1332 99.9292 62.7593C99.7547 62.5589 99.6685 62.3041 99.521 62.0845C99.3819 61.88 99.1909 61.7114 98.9654 61.5931C98.8236 61.8559 98.7434 62.1442 98.7295 62.4387C98.7156 62.733 98.7688 63.027 98.8852 63.3005C99.0017 63.5742 99.1787 63.8214 99.4048 64.0257C99.6309 64.2299 99.9006 64.3865 100.196 64.485C100.492 64.5836 100.806 64.6216 101.119 64.5972C101.431 64.5726 101.734 64.4856 102.008 64.3421C102.282 64.1987 102.52 64.0021 102.707 63.7653C102.894 63.5285 103.025 63.2572 103.091 62.9693C103.007 62.9734 102.924 62.9788 102.84 62.9873Z" fill="#222222"/>
<path opacity="0.1" d="M103.494 69.2559C103.113 69.2726 102.734 69.1948 102.395 69.0306C102.054 68.866 101.765 68.6208 101.553 68.318C101.342 68.0152 101.216 67.6654 101.188 67.3027C101.16 66.9397 101.23 66.5761 101.393 66.2468C101.568 66.3602 101.718 66.5044 101.837 66.6717C101.994 66.8983 102.09 67.1606 102.275 67.3686C102.615 67.7557 103.207 67.8814 103.739 67.8586C104.271 67.8359 104.787 67.6906 105.318 67.6418C105.392 67.6353 105.467 67.6309 105.545 67.629C105.436 68.0763 105.176 68.4773 104.805 68.771C104.435 69.0648 103.975 69.235 103.494 69.2559Z" fill="#222222"/>
<path opacity="0.1" d="M98.0629 72.5405C97.7703 72.5536 97.4776 72.5115 97.2022 72.4165C96.9264 72.3212 96.6731 72.175 96.4565 71.9862C96.2397 71.797 96.0641 71.5692 95.9394 71.3152C95.8148 71.0612 95.7436 70.7861 95.73 70.5057C95.7125 70.1709 95.7785 69.8372 95.9225 69.5317C96.1066 69.6492 96.2662 69.7981 96.3938 69.9711C96.567 70.2049 96.6758 70.4751 96.8787 70.6913C97.2548 71.0921 97.8875 71.2339 98.4573 71.2208C99.027 71.2076 99.5419 71.0801 100.091 71.0395C99.9548 71.4589 99.687 71.8279 99.3243 72.0967C98.9613 72.3653 98.5211 72.5202 98.0629 72.5405Z" fill="#222222"/>
<path opacity="0.1" d="M99.2727 76.8102C99.0043 77.3155 98.5432 77.7028 97.9849 77.8917C97.4269 78.0806 96.8141 78.0568 96.2738 77.8252C95.7335 77.5933 95.3067 77.1718 95.082 76.647C94.857 76.1225 94.8515 75.5353 95.0662 75.0067C95.256 75.1263 95.4264 75.2722 95.5724 75.4395C95.7916 75.696 95.9362 75.9867 96.1901 76.2252C96.6643 76.6681 97.4231 76.8509 98.1013 76.8682C98.4927 76.8712 98.8838 76.8518 99.2727 76.8102Z" fill="#222222"/>
<path d="M131.869 80.7555C132.346 79.9225 131.804 78.9019 131.183 78.1585C130.561 77.4147 129.802 76.643 129.818 75.6953C129.842 74.3358 131.372 73.5321 132.593 72.8105C133.501 72.2756 134.338 71.6408 135.088 70.9198C135.401 70.6422 135.661 70.3145 135.854 69.9518C136.107 69.4196 136.099 68.8144 136.085 68.2324C136.032 66.2901 135.93 64.3509 135.78 62.4144" stroke="#111111" stroke-width="4" stroke-miterlimit="10"/>
<path d="M138.27 62.312C138.252 61.9455 138.137 61.5888 137.935 61.2753C137.733 60.9619 137.45 60.7013 137.113 60.5181L136.594 61.4883L136.61 60.3134C136.362 60.2449 136.104 60.2157 135.846 60.2266C135.388 60.2469 134.947 60.395 134.578 60.6523C134.209 60.9096 133.929 61.2644 133.773 61.6717C133.618 62.0793 133.594 62.5212 133.704 62.9416C133.815 63.3621 134.055 63.7421 134.394 64.0336C134.733 64.3251 135.156 64.5154 135.609 64.58C136.062 64.6443 136.526 64.5806 136.941 64.3963C137.356 64.2121 137.703 63.9156 137.94 63.5447C138.177 63.1738 138.291 62.7448 138.27 62.312Z" fill="#C52939"/>
<path d="M134.195 76.6306C133.952 77.0494 133.553 77.3814 133.067 77.5709C132.58 77.7603 132.035 77.7956 131.522 77.6711C131.01 77.5465 130.561 77.2695 130.251 76.8868C129.942 76.5038 129.791 76.0382 129.822 75.5681C129.854 75.0978 130.067 74.6519 130.426 74.3045C130.785 73.9571 131.268 73.7297 131.794 73.6604C132.319 73.5909 132.856 73.6839 133.314 73.9235C133.771 74.1633 134.122 74.535 134.307 74.9766L132.859 76.0204L134.454 75.6911C134.454 76.0182 134.365 76.3404 134.195 76.6306Z" fill="#C52939"/>
<path d="M133.066 72.5405C132.761 72.5539 132.457 72.511 132.17 72.4135C131.884 72.316 131.62 72.1663 131.395 71.9728C131.17 71.7792 130.987 71.5457 130.857 71.2857C130.727 71.0256 130.654 70.7442 130.639 70.457C130.621 70.1143 130.69 69.7724 130.84 69.4598C130.978 69.1674 131.183 68.9073 131.44 68.6976C131.696 68.4879 131.999 68.3338 132.325 68.2462L132.312 69.146L132.838 68.1655H132.844C133.148 68.1521 133.453 68.1953 133.739 68.2928C134.026 68.3899 134.289 68.5397 134.515 68.7332C134.74 68.9268 134.923 69.1603 135.052 69.4203C135.182 69.6804 135.256 69.9618 135.27 70.249C135.284 70.5361 135.239 70.823 135.135 71.0932C135.032 71.3637 134.873 71.6122 134.668 71.8247C134.463 72.0371 134.215 72.2093 133.94 72.3316C133.664 72.454 133.365 72.5238 133.061 72.5372L133.066 72.5405Z" fill="#C52939"/>
<path d="M138.538 68.9799C138.233 68.998 137.928 68.9616 137.639 68.8726C137.351 68.7839 137.085 68.6446 136.857 68.4628C136.63 68.2811 136.445 68.0607 136.314 67.8143C136.182 67.5679 136.108 67.3005 136.093 67.0278C136.079 66.7555 136.126 66.4831 136.231 66.2269C136.335 65.9704 136.496 65.7355 136.704 65.5356C136.912 65.3355 137.162 65.1746 137.44 65.0621C137.718 64.9498 138.018 64.888 138.323 64.8806C138.752 64.862 139.178 64.952 139.552 65.1409L139.146 66.1338L139.981 65.4182C140.429 65.7831 140.696 66.2923 140.724 66.8338C140.735 67.0235 140.715 67.2137 140.666 67.3988C140.552 67.8332 140.282 68.2227 139.898 68.5083C139.514 68.7935 139.037 68.9591 138.538 68.9799Z" fill="#C52939"/>
<path opacity="0.1" d="M138.007 62.8403C137.465 62.8972 136.94 63.0601 136.397 63.0924C135.853 63.125 135.257 62.9996 134.914 62.5914C134.728 62.3727 134.636 62.0949 134.48 61.8553C134.332 61.6325 134.129 61.4483 133.889 61.3193C133.739 61.6062 133.653 61.9205 133.639 62.2419C133.624 62.563 133.68 62.8835 133.804 63.1819C133.928 63.4806 134.116 63.7502 134.356 63.9728C134.596 64.1956 134.883 64.3664 135.197 64.474C135.511 64.5816 135.845 64.6232 136.177 64.5963C136.509 64.5695 136.831 64.4748 137.122 64.3182C137.413 64.1619 137.666 63.9473 137.865 63.6889C138.063 63.4307 138.202 63.1345 138.273 62.8206C138.184 62.8252 138.096 62.831 138.007 62.8403Z" fill="#222222"/>
<path opacity="0.1" d="M138.548 68.9821C138.143 68.9988 137.741 68.921 137.38 68.7568C137.018 68.5923 136.71 68.347 136.486 68.0442C136.261 67.7414 136.127 67.3916 136.097 67.0289C136.067 66.6659 136.142 66.3023 136.315 65.973C136.501 66.0864 136.661 66.2306 136.787 66.3979C136.954 66.6245 137.056 66.8868 137.252 67.0948C137.614 67.4819 138.243 67.6076 138.808 67.5849C139.374 67.5621 139.922 67.4168 140.486 67.368C140.565 67.3615 140.644 67.3571 140.727 67.3552C140.611 67.8025 140.335 68.2035 139.941 68.4973C139.548 68.791 139.058 68.9613 138.548 68.9821Z" fill="#222222"/>
<path opacity="0.1" d="M133.118 72.5405C132.807 72.5536 132.496 72.5115 132.203 72.4165C131.911 72.3212 131.641 72.175 131.411 71.9862C131.181 71.797 130.994 71.5692 130.862 71.3152C130.729 71.0612 130.654 70.7861 130.639 70.5057C130.621 70.1709 130.691 69.8372 130.844 69.5317C131.039 69.6492 131.209 69.7981 131.345 69.9711C131.528 70.2049 131.644 70.4751 131.86 70.6913C132.259 71.0921 132.932 71.2339 133.537 71.2208C134.124 71.2098 134.689 71.0801 135.273 71.0395C135.128 71.4589 134.844 71.8279 134.458 72.0967C134.073 72.3653 133.605 72.5202 133.118 72.5405Z" fill="#222222"/>
<path opacity="0.1" d="M134.182 76.6462C133.913 77.1055 133.452 77.4576 132.894 77.6295C132.336 77.8011 131.723 77.7795 131.183 77.569C130.643 77.3582 130.216 76.975 129.991 76.4981C129.766 76.0209 129.761 75.4871 129.975 75.0067C130.165 75.1157 130.336 75.2482 130.481 75.4001C130.701 75.6333 130.845 75.8978 131.099 76.1146C131.573 76.5172 132.332 76.6834 133.01 76.6987C133.402 76.7018 133.793 76.684 134.182 76.6462Z" fill="#222222"/>
<path d="M21.1307 79.3867C20.6544 78.5537 21.1955 77.5332 21.8174 76.7897C22.4394 76.0459 23.1977 75.2742 23.1815 74.3265C23.1584 72.9671 21.6278 72.1633 20.4071 71.4418C19.4991 70.9068 18.6617 70.272 17.9123 69.551C17.5985 69.2734 17.3391 68.9457 17.1459 68.583C16.8927 68.0508 16.9008 67.4456 16.9147 66.8636C16.9679 64.9214 17.0696 62.9821 17.2199 61.0457" stroke="#111111" stroke-width="4" stroke-miterlimit="10"/>
<path d="M15.0024 60.813C15.0193 60.4691 15.1278 60.1349 15.3181 59.8409C15.5083 59.5469 15.7742 59.303 16.0911 59.1311L16.5799 60.0405L16.5653 58.9392C16.7985 58.8748 17.0413 58.8475 17.284 58.8579C17.715 58.8768 18.1304 59.0155 18.4776 59.2567C18.8247 59.4979 19.0881 59.8305 19.2344 60.2126C19.3807 60.5945 19.4034 61.009 19.2995 61.4029C19.1956 61.7971 18.9698 62.1535 18.6508 62.4267C18.3317 62.7002 17.9337 62.8784 17.507 62.9389C17.0803 62.9994 16.6441 62.9394 16.2536 62.7667C15.8631 62.594 15.5358 62.3161 15.3131 61.9685C15.0904 61.6205 14.9822 61.2184 15.0024 60.813Z" fill="#C52939"/>
<path d="M19.0626 75.2619C19.2915 75.6807 19.6664 76.0128 20.1243 76.2022C20.5823 76.3917 21.0955 76.427 21.5779 76.3024C22.0603 76.1779 22.4826 75.9008 22.7739 75.5181C23.0652 75.1352 23.2079 74.6695 23.1779 74.1995C23.1479 73.7292 22.9472 73.2833 22.6094 72.9359C22.2716 72.5885 21.8172 72.361 21.3224 72.2917C20.8276 72.2222 20.3226 72.3153 19.892 72.5548C19.4613 72.7946 19.1313 73.1664 18.9572 73.6079L20.3204 74.6517L18.8182 74.3224C18.8188 74.6495 18.9026 74.9717 19.0626 75.2619Z" fill="#C52939"/>
<path d="M20.0744 71.1719C20.3612 71.1853 20.6479 71.1423 20.9181 71.0448C21.1883 70.9474 21.4366 70.7976 21.6489 70.6041C21.8613 70.4106 22.0334 70.1771 22.1556 69.917C22.2778 69.6569 22.3476 69.3755 22.361 69.0884C22.378 68.7456 22.3133 68.4037 22.1722 68.0911C22.0416 67.7987 21.8485 67.5387 21.6067 67.329C21.3648 67.1193 21.0799 66.9652 20.7722 66.8776L20.7845 67.7774L20.289 66.7968C19.7097 66.7697 19.1433 66.9739 18.7145 67.3646C18.2857 67.7555 18.0295 68.3005 18.0024 68.8803C17.9753 69.4601 18.1794 70.0268 18.5699 70.456C18.9604 70.885 19.5052 71.1415 20.0845 71.1686L20.0744 71.1719Z" fill="#C52939"/>
<path d="M14.7347 67.6111C15.0392 67.6292 15.3447 67.5928 15.6332 67.5038C15.9218 67.4151 16.1877 67.2758 16.4153 67.094C16.6429 66.9122 16.8277 66.6919 16.9589 66.4455C17.0901 66.1988 17.165 65.9317 17.1793 65.659C17.1935 65.3864 17.1469 65.114 17.042 64.8578C16.9371 64.6015 16.7761 64.3664 16.5685 64.1666C16.3608 63.9664 16.1107 63.8055 15.8326 63.6932C15.5546 63.5807 15.2543 63.5189 14.9492 63.5115C14.5225 63.4937 14.0989 63.584 13.7269 63.7718L14.1324 64.7647L13.2919 64.0521C12.8448 64.4165 12.5774 64.9246 12.5481 65.4647C12.5377 65.6546 12.5575 65.8449 12.6071 66.0297C12.7211 66.4644 12.9906 66.8539 13.3745 67.1392C13.7585 67.4247 14.236 67.5903 14.7347 67.6111Z" fill="#C52939"/>
<path opacity="0.1" d="M15.2506 61.3449C15.7598 61.3972 16.2542 61.5464 16.7657 61.5762C17.2771 61.606 17.8385 61.4908 18.1616 61.1168C18.3363 60.9165 18.4225 60.6616 18.5699 60.4421C18.7091 60.2376 18.9 60.0689 19.1256 59.9507C19.2672 60.2135 19.3477 60.5017 19.3615 60.7963C19.3753 61.0906 19.3222 61.3846 19.2058 61.658C19.0894 61.9318 18.9122 62.179 18.6862 62.3832C18.4601 62.5874 18.1903 62.744 17.8949 62.8426C17.5994 62.9411 17.2849 62.9792 16.9725 62.9548C16.66 62.9302 16.3567 62.8431 16.0828 62.6997C15.8089 62.5562 15.5707 62.3597 15.384 62.1229C15.1972 61.8861 15.0664 61.6148 15 61.3268C15.0839 61.3309 15.1667 61.3364 15.2506 61.3449Z" fill="#222222"/>
<path opacity="0.1" d="M14.5969 67.6134C14.9776 67.6301 15.3563 67.5524 15.6963 67.3881C16.0363 67.2236 16.3261 66.9783 16.5375 66.6755C16.749 66.3728 16.8748 66.0229 16.903 65.6602C16.9312 65.2972 16.8606 64.9337 16.6983 64.6044C16.5232 64.7177 16.3725 64.862 16.2544 65.0292C16.0966 65.2559 16.0012 65.5181 15.8161 65.7262C15.4756 66.1133 14.8841 66.2389 14.3516 66.2162C13.8192 66.1935 13.3038 66.0481 12.7725 65.9994C12.6987 65.9928 12.6237 65.9884 12.5454 65.9865C12.6552 66.4338 12.9149 66.8349 13.2852 67.1286C13.6555 67.4223 14.116 67.5926 14.5969 67.6134Z" fill="#222222"/>
<path opacity="0.1" d="M20.1547 71.1718C20.4657 71.185 20.7765 71.1428 21.0694 71.0478C21.3622 70.9526 21.6314 70.8064 21.8616 70.6175C22.0918 70.4283 22.2784 70.2006 22.4108 69.9465C22.5433 69.6925 22.6189 69.4174 22.6335 69.1371C22.6519 68.8023 22.5818 68.4686 22.4288 68.1631C22.2334 68.2805 22.0637 68.4294 21.9282 68.6024C21.7443 68.8362 21.6286 69.1064 21.413 69.3227C21.0135 69.7234 20.3411 69.8652 19.7357 69.8521C19.1486 69.8412 18.5834 69.7114 18 69.6709C18.1446 70.0903 18.429 70.4593 18.8146 70.7281C19.2001 70.9966 19.668 71.1516 20.1547 71.1718Z" fill="#222222"/>
<path opacity="0.1" d="M19.0909 75.2774C19.3426 75.7368 19.7748 76.0888 20.2981 76.2607C20.8214 76.4323 21.3958 76.4107 21.9024 76.2002C22.409 75.9894 22.809 75.6062 23.0198 75.1293C23.2305 74.6522 23.2358 74.1184 23.0346 73.6379C22.8566 73.7469 22.6966 73.8794 22.56 74.0313C22.3544 74.2645 22.2188 74.529 21.9809 74.7458C21.5363 75.1485 20.8249 75.3146 20.1891 75.33C19.8222 75.333 19.4555 75.3152 19.0909 75.2774Z" fill="#222222"/>
<path d="M44.8727 76.2156L46.4051 75.3632C46.1981 75.0281 45.9333 74.7281 45.6216 74.4757L42.7315 75.3259L44.9957 74.0662C44.4349 73.7757 43.8041 73.6282 43.1648 73.6386C42.5256 73.6487 41.9002 73.8165 41.3504 74.1248C40.8003 74.4333 40.3448 74.8718 40.0282 75.3974C39.7118 75.923 39.5455 76.5176 39.5455 77.1226C39.5455 79.0465 41.1941 79.113 43.2273 79.113C45.2605 79.113 46.9091 79.0465 46.9091 77.1226C46.9102 76.635 46.8025 76.1527 46.5927 75.707L44.8727 76.2156Z" fill="#C52939"/>
<path opacity="0.1" d="M45.3057 78.0739C45.1413 77.9173 44.9577 77.7799 44.7587 77.6649C44.4794 77.4875 44.1884 77.3068 43.8578 77.2474C43.5682 77.1946 43.269 77.2398 42.9734 77.2231C42.4601 77.1932 41.9768 76.9827 41.6182 76.6326C41.4071 76.4253 41.2416 76.1708 40.9877 76.012C40.7037 75.8518 40.3691 75.7935 40.044 75.8477C39.9497 75.8603 39.8564 75.8784 39.7645 75.9019C39.6194 76.2857 39.5452 76.6906 39.5455 77.0985C39.5455 79.0457 41.2067 79.113 43.2551 79.113C44.2497 79.113 45.1517 79.0977 45.8182 78.8584L45.7023 78.6613C45.597 78.4503 45.4637 78.2529 45.3057 78.0739Z" fill="#222222"/>
<path opacity="0.1" d="M24.0712 41.8346C22.3643 42.3534 20.7666 43.6099 20.3402 45.3531C19.8525 47.3564 20.9771 49.3758 21.1397 51.4327C21.6647 58.1724 12.1374 62.9271 13.4965 69.5474C14.0362 72.1795 16.2175 74.1157 18.3668 75.7155C21.81 78.2701 25.6302 80.5268 29.8609 81.1636C36.282 82.1318 42.9911 79.2865 49.2327 81.0845C54.2667 82.5353 58.119 86.7874 63.1187 88.3563C66.924 89.5512 71.0242 89.0804 74.9777 88.5964C77.1096 88.3363 79.3429 88.036 81.0633 86.7486C84.2613 84.3525 84.4623 79.6202 86.6037 76.229C89.9108 70.9996 97.1624 69.9723 103.243 70.9887C109.323 72.0051 115.227 74.5074 121.387 74.3035C122.704 74.2594 124.052 74.0796 125.201 73.4291C126.597 72.6394 127.54 71.2476 128.375 69.8704C133.588 61.2307 136.45 51.3621 136.672 41.2565C136.708 39.5201 136.647 37.7084 135.835 36.1757C134.809 34.2367 132.758 33.0769 130.717 32.2964C125.815 30.4193 120.4 30.1122 115.596 27.9948C110.963 25.9526 107.211 22.371 103.176 19.3016C95.1355 13.1967 85.8158 9.02001 75.9278 7.08987C73.6105 6.63931 71.2053 6.3175 68.9029 6.83778C66.2498 7.43718 63.9633 9.10126 61.9072 10.8927C56.4374 15.6584 52.0536 21.5383 47.0127 26.7612C43.5352 30.363 39.7487 33.649 35.6973 36.5809C33.8316 37.9337 31.8488 39.5401 29.7704 40.5406C27.8676 41.4549 26.0832 41.2244 24.0712 41.8346Z" fill="#C52939"/>
</svg>
