<svg width="150" height="96" viewBox="0 0 150 96" fill="none" xmlns="http://www.w3.org/2000/svg">
<g clip-path="url(#clip0)">
<path opacity="0.1" d="M27.2666 48.2886C25.5597 48.8047 23.9621 50.0546 23.5356 51.7888C23.048 53.7816 24.1726 55.7905 24.3351 57.8368C24.8601 64.5413 15.3328 69.2713 16.692 75.8571C17.2316 78.4755 19.4129 80.4016 21.5622 81.993C25.0054 84.5343 28.8256 86.7794 33.0564 87.4128C39.4775 88.376 46.1866 85.5455 52.428 87.3341C57.4622 88.7774 61.3145 93.0073 66.3139 94.568C70.1195 95.7567 74.2197 95.2883 78.1731 94.8068C80.3051 94.5481 82.5384 94.2494 84.2585 92.9687C87.4565 90.585 87.6578 85.8774 89.7992 82.5039C93.1063 77.3018 100.358 76.2797 106.438 77.2909C112.518 78.302 118.423 80.7913 124.583 80.5884C125.899 80.5446 127.247 80.3656 128.396 79.7186C129.793 78.933 130.736 77.5485 131.57 76.1784C136.783 67.5837 139.645 57.7665 139.868 47.7135C139.904 45.9862 139.842 44.1839 139.031 42.6592C138.005 40.7303 135.954 39.5765 133.913 38.8001C129.01 36.9328 123.595 36.6273 118.792 34.5209C114.158 32.4894 110.406 28.9263 106.371 25.873C98.3307 19.7999 89.0113 15.6449 79.1233 13.7249C76.806 13.2766 74.4008 12.9565 72.0984 13.4741C69.4453 14.0704 67.1588 15.7258 65.1027 17.5079C59.6329 22.2487 55.2491 28.0979 50.2082 33.2938C46.7307 36.8767 42.9441 40.1457 38.8925 43.0622C37.0271 44.408 35.0443 46.006 32.9656 47.0014C31.0628 47.9109 29.2786 47.6816 27.2666 48.2886Z" fill="#C52939"/>
<path d="M51.6486 6.15491C51.6486 6.15491 46.4984 13.002 50.183 20.9829C53.8672 28.9638 43.7616 41.7869 43.7616 41.7869" stroke="#535461" stroke-width="2" stroke-miterlimit="10"/>
<path d="M53.9578 3.59238C53.5487 5.35452 51.5911 6.40432 51.5911 6.40432C51.5911 6.40432 50.2986 4.59684 50.7077 2.8347C51.1168 1.07257 52.1736 -0.186667 53.0742 0.022761C53.975 0.232189 54.3669 1.83024 53.9578 3.59238Z" fill="#C52939"/>
<path d="M53.0675 11.4216C51.3673 12.0352 49.4233 10.96 49.4233 10.96C49.4233 10.96 50.2361 8.89107 51.9376 8.27881C53.6392 7.66652 55.269 7.87864 55.5821 8.74034C55.8952 9.60208 54.768 10.8079 53.0675 11.4216Z" fill="#C52939"/>
<path d="M52.5903 10.0627C53.1238 9.86961 53.4974 9.5508 53.4251 9.35068C53.3529 9.15055 52.862 9.14485 52.3285 9.33799C51.795 9.53109 51.4214 9.8499 51.4937 10.05C51.566 10.2502 52.0571 10.2558 52.5903 10.0627Z" fill="#C52939"/>
<path opacity="0.3" d="M52.5903 10.0627C53.1238 9.86961 53.4974 9.5508 53.4251 9.35068C53.3529 9.15055 52.862 9.14485 52.3285 9.33799C51.795 9.53109 51.4214 9.8499 51.4937 10.05C51.566 10.2502 52.0571 10.2558 52.5903 10.0627Z" fill="#222222"/>
<path d="M52.6718 17.66C50.9716 18.2736 49.0276 17.1984 49.0276 17.1984C49.0276 17.1984 49.8403 15.1295 51.5419 14.5172C53.2434 13.9049 54.8732 14.117 55.1863 14.9787C55.4994 15.8405 54.3722 17.0477 52.6718 17.66Z" fill="#C52939"/>
<path d="M52.2142 16.3957C52.7479 16.2033 53.1224 15.8849 53.0504 15.6846C52.9784 15.4843 52.4872 15.4778 51.9532 15.6702C51.4195 15.8626 51.045 16.181 51.117 16.3813C51.1893 16.5817 51.6805 16.5881 52.2142 16.3957Z" fill="#C52939"/>
<path opacity="0.3" d="M52.2142 16.3957C52.7479 16.2033 53.1224 15.8849 53.0504 15.6846C52.9784 15.4843 52.4872 15.4778 51.9532 15.6702C51.4195 15.8626 51.045 16.181 51.117 16.3813C51.1893 16.5817 51.6805 16.5881 52.2142 16.3957Z" fill="#222222"/>
<path d="M54.6587 24.9795C52.9585 25.5932 51.0145 24.518 51.0145 24.518C51.0145 24.518 51.8273 22.4491 53.5288 21.8368C55.2303 21.2245 56.8602 21.4366 57.1733 22.2983C57.4863 23.1601 56.3592 24.3699 54.6587 24.9795Z" fill="#C52939"/>
<path d="M54.2009 23.7186C54.7349 23.5261 55.1091 23.2078 55.0371 23.0074C54.9651 22.8071 54.4739 22.8007 53.9402 22.9931C53.4062 23.1855 53.0317 23.5039 53.104 23.7042C53.176 23.9045 53.6672 23.9109 54.2009 23.7186Z" fill="#C52939"/>
<path opacity="0.3" d="M54.2009 23.7186C54.7349 23.5261 55.1091 23.2078 55.0371 23.0074C54.9651 22.8071 54.4739 22.8007 53.9402 22.9931C53.4062 23.1855 53.0317 23.5039 53.104 23.7042C53.176 23.9045 53.6672 23.9109 54.2009 23.7186Z" fill="#222222"/>
<path d="M53.3665 31.6731C51.6663 32.2869 49.722 31.2118 49.722 31.2118C49.722 31.2118 50.535 29.1427 52.2366 28.5305C53.9381 27.9183 55.5677 28.1302 55.881 28.9921C56.1941 29.8537 55.068 31.0609 53.3665 31.6731Z" fill="#C52939"/>
<path d="M52.9127 30.2985C53.4459 30.1055 53.8198 29.7866 53.7475 29.5864C53.6753 29.3863 53.1841 29.3808 52.6509 29.5739C52.1174 29.767 51.7438 30.0859 51.8161 30.286C51.8883 30.4859 52.3793 30.4916 52.9127 30.2985Z" fill="#C52939"/>
<path opacity="0.3" d="M52.9127 30.2985C53.4459 30.1055 53.8198 29.7866 53.7475 29.5864C53.6753 29.3863 53.1841 29.3808 52.6509 29.5739C52.1174 29.767 51.7438 30.0859 51.8161 30.286C51.8883 30.4859 52.3793 30.4916 52.9127 30.2985Z" fill="#222222"/>
<path d="M45.3914 13.194C46.6465 14.4959 48.8651 14.3945 48.8651 14.3945C48.8651 14.3945 49.0476 12.1789 47.7925 10.877C46.5374 9.57502 44.9823 9.0388 44.3188 9.67641C43.6552 10.3141 44.1361 11.8921 45.3914 13.194Z" fill="#C52939"/>
<path d="M47.3529 12.7321C47.5059 12.5842 47.3107 12.1331 46.9166 11.7244C46.5225 11.3158 46.079 11.1044 45.926 11.2522C45.773 11.4001 45.9683 11.8513 46.3624 12.2599C46.7565 12.6686 47.1999 12.88 47.3529 12.7321Z" fill="#C52939"/>
<path opacity="0.3" d="M47.3529 12.7321C47.5059 12.5842 47.3107 12.1331 46.9166 11.7244C46.5225 11.3158 46.079 11.1044 45.926 11.2522C45.773 11.4001 45.9683 11.8513 46.3624 12.2599C46.7565 12.6686 47.1999 12.88 47.3529 12.7321Z" fill="#222222"/>
<path d="M44.6705 33.8686C45.9259 35.1706 48.1445 35.0693 48.1445 35.0693C48.1445 35.0693 48.327 32.8534 47.0719 31.5517C45.8165 30.2497 44.2614 29.7135 43.5979 30.351C42.9344 30.9885 43.4155 32.5666 44.6705 33.8686Z" fill="#C52939"/>
<path d="M46.6306 33.4089C46.7836 33.2611 46.5881 32.8098 46.194 32.4011C45.8002 31.9926 45.3564 31.781 45.2034 31.9289C45.0504 32.0767 45.246 32.528 45.6401 32.9367C46.0342 33.3452 46.4776 33.5568 46.6306 33.4089Z" fill="#C52939"/>
<path opacity="0.3" d="M46.6306 33.4089C46.7836 33.2611 46.5881 32.8098 46.194 32.4011C45.8002 31.9926 45.3564 31.781 45.2034 31.9289C45.0504 32.0767 45.246 32.528 45.6401 32.9367C46.0342 33.3452 46.4776 33.5568 46.6306 33.4089Z" fill="#222222"/>
<path d="M46.3344 20.5014C47.9523 21.3098 50.0081 20.4694 50.0081 20.4694C50.0081 20.4694 49.4419 18.3204 47.8254 17.5121C46.2093 16.7037 44.5636 16.7117 44.1518 17.5441C43.74 18.3765 44.7169 19.6931 46.3344 20.5014Z" fill="#C52939"/>
<path d="M48.0257 19.4068C48.1206 19.2163 47.7862 18.8562 47.2784 18.6026C46.7709 18.349 46.2821 18.2978 46.1872 18.4883C46.0923 18.6788 46.427 19.0389 46.9345 19.2925C47.4423 19.5461 47.9308 19.5973 48.0257 19.4068Z" fill="#C52939"/>
<path opacity="0.3" d="M48.0257 19.4068C48.1206 19.2163 47.7862 18.8562 47.2784 18.6026C46.7709 18.349 46.2821 18.2978 46.1872 18.4883C46.0923 18.6788 46.427 19.0389 46.9345 19.2925C47.4423 19.5461 47.9308 19.5973 48.0257 19.4068Z" fill="#222222"/>
<path d="M47.0128 27.7806C48.6303 28.5891 50.6864 27.7487 50.6864 27.7487C50.6864 27.7487 50.1202 25.5996 48.5038 24.7913C46.8876 23.9829 45.2419 23.9909 44.8301 24.8233C44.4183 25.6556 45.4018 26.9803 47.0128 27.7806Z" fill="#C52939"/>
<path d="M48.7046 26.6872C48.7995 26.4967 48.4648 26.1366 47.957 25.883C47.4495 25.6294 46.961 25.5782 46.8658 25.7687C46.7709 25.9592 47.1056 26.3193 47.6134 26.5729C48.1209 26.8265 48.6094 26.8777 48.7046 26.6872Z" fill="#C52939"/>
<path opacity="0.3" d="M48.7046 26.6872C48.7995 26.4967 48.4648 26.1366 47.957 25.883C47.4495 25.6294 46.961 25.5782 46.8658 25.7687C46.7709 25.9592 47.1056 26.3193 47.6134 26.5729C48.1209 26.8265 48.6094 26.8777 48.7046 26.6872Z" fill="#222222"/>
<path d="M26.8446 20.8719C26.8446 20.8719 36.2507 30.2881 30.9407 44.2612C25.6307 58.2343 40.043 81.4701 40.043 81.4701C40.043 81.4701 39.8883 81.4473 39.602 81.3966C20.2807 77.9831 10.6868 55.8638 21.4267 39.4324C25.4148 33.3229 28.6994 26.157 26.8446 20.8719Z" fill="#C52939"/>
<path d="M10.0909 58.9573C10.0909 58.9573 20.8242 57.2458 21.8022 66.8753C22.7803 76.5052 42.4413 77.8404 42.4413 77.8404C42.4413 77.8404 42.3079 77.9286 42.072 78.086C25.8383 88.7575 10.3201 84.881 12.6586 70.7159C13.5301 65.4481 13.4581 60.1591 10.0909 58.9573Z" fill="#C52939"/>
<g opacity="0.3">
<path opacity="0.3" d="M10.0909 58.9573C10.0909 58.9573 20.8242 57.2458 21.8022 66.8753C22.7803 76.5052 42.4413 77.8404 42.4413 77.8404C42.4413 77.8404 42.3079 77.9286 42.072 78.086C25.8383 88.7575 10.3201 84.881 12.6586 70.7159C13.5301 65.4481 13.4581 60.1591 10.0909 58.9573Z" fill="white"/>
</g>
<path d="M24.1273 58.8387C25.7573 58.8387 27.0787 55.3872 27.0787 51.1298C27.0787 46.8723 25.7573 43.4209 24.1273 43.4209C22.4972 43.4209 21.1758 46.8723 21.1758 51.1298C21.1758 55.3872 22.4972 58.8387 24.1273 58.8387Z" fill="#C52939"/>
<path opacity="0.3" d="M24.1273 58.8387C25.7573 58.8387 27.0787 55.3872 27.0787 51.1298C27.0787 46.8723 25.7573 43.4209 24.1273 43.4209C22.4972 43.4209 21.1758 46.8723 21.1758 51.1298C21.1758 55.3872 22.4972 58.8387 24.1273 58.8387Z" fill="#222222"/>
<path d="M23.8576 79.1266C24.6345 78.3488 23.8626 76.3151 22.1334 74.584C20.4042 72.8528 18.3726 72.0803 17.5957 72.858C16.8188 73.6358 17.5907 75.6695 19.3199 77.4006C21.0491 79.1315 23.0807 79.9043 23.8576 79.1266Z" fill="#C52939"/>
<path opacity="0.3" d="M23.8576 79.1266C24.6345 78.3488 23.8626 76.3151 22.1334 74.584C20.4042 72.8528 18.3726 72.0803 17.5957 72.858C16.8188 73.6358 17.5907 75.6695 19.3199 77.4006C21.0491 79.1315 23.0807 79.9043 23.8576 79.1266Z" fill="#222222"/>
<path d="M106.549 35.4108H36.6807C35.8366 35.4108 35.0269 35.7465 34.4299 36.3443C33.8329 36.9418 33.4974 37.7525 33.4974 38.5975V79.5936C33.4974 80.4386 33.8329 81.2493 34.4299 81.847C35.0269 82.4445 35.8366 82.7803 36.6807 82.7803H106.549C107.393 82.7803 108.203 82.4445 108.8 81.847C109.397 81.2493 109.732 80.4386 109.732 79.5936V38.5975C109.732 37.7525 109.397 36.9418 108.8 36.3443C108.203 35.7465 107.393 35.4108 106.549 35.4108Z" fill="url(#paint0_linear)"/>
<path d="M105.528 35.9683H37.6999C35.874 35.9683 34.3939 37.45 34.3939 39.2778V78.9131C34.3939 80.7409 35.874 82.2226 37.6999 82.2226H105.528C107.354 82.2226 108.834 80.7409 108.834 78.9131V39.2778C108.834 37.45 107.354 35.9683 105.528 35.9683Z" fill="#111111"/>
<path d="M108.834 44.063H34.3939V52.5428H108.834V44.063Z" fill="white" fill-opacity="0.8"/>
<path d="M101.775 58.8383H41.4535V62.9495H101.775V58.8383Z" fill="white" fill-opacity="0.6"/>
<path d="M46.4586 79.1401C49.7196 79.1401 52.3629 76.4937 52.3629 73.2293C52.3629 69.965 49.7196 67.3186 46.4586 67.3186C43.1979 67.3186 40.5543 69.965 40.5543 73.2293C40.5543 76.4937 43.1979 79.1401 46.4586 79.1401Z" fill="#C52939"/>
<path opacity="0.3" d="M46.4586 79.1401C49.7196 79.1401 52.3629 76.4937 52.3629 73.2293C52.3629 69.965 49.7196 67.3186 46.4586 67.3186C43.1979 67.3186 40.5543 69.965 40.5543 73.2293C40.5543 76.4937 43.1979 79.1401 46.4586 79.1401Z" fill="#222222"/>
<path d="M104.953 23.9351H111.768V23.791H104.953V23.9351Z" fill="#C52939"/>
<path d="M104.953 24.0792H111.768V23.9352H104.953V24.0792Z" fill="#C52939"/>
<path opacity="0.1" d="M104.953 24.0792H111.768V23.9352H104.953V24.0792Z" fill="#222222"/>
<path d="M104.953 24.2228H111.768V24.0787H104.953V24.2228Z" fill="#C52939"/>
<path d="M104.953 24.3659H111.768V24.2218H104.953V24.3659Z" fill="#C52939"/>
<path opacity="0.1" d="M104.953 24.3659H111.768V24.2218H104.953V24.3659Z" fill="#222222"/>
<path d="M104.953 24.51H111.768V24.366H104.953V24.51Z" fill="#C52939"/>
<path d="M104.953 24.6525H111.768V24.5084H104.953V24.6525Z" fill="#C52939"/>
<path opacity="0.1" d="M104.953 24.6525H111.768V24.5084H104.953V24.6525Z" fill="#222222"/>
<path d="M104.953 24.7966H111.768V24.6526H104.953V24.7966Z" fill="#C52939"/>
<path d="M104.953 24.9392H111.768V24.7952H104.953V24.9392Z" fill="#C52939"/>
<path opacity="0.1" d="M104.953 24.9392H111.768V24.7952H104.953V24.9392Z" fill="#222222"/>
<path d="M104.953 22.7877H111.768V22.6437H104.953V22.7877Z" fill="#C52939"/>
<path d="M109.774 19.3769L115.014 23.7398L115.106 23.6291L109.865 19.2661L109.774 19.3769Z" fill="#C52939"/>
<path d="M104.996 17.0814L110.236 21.4443L110.328 21.3336L105.088 16.9706L104.996 17.0814Z" fill="#C52939"/>
<path d="M104.953 22.9303H111.768V22.7863H104.953V22.9303Z" fill="#C52939"/>
<path opacity="0.1" d="M104.953 22.9303H111.768V22.7863H104.953V22.9303Z" fill="#222222"/>
<path d="M104.953 23.0761H111.768V22.932H104.953V23.0761Z" fill="#C52939"/>
<path d="M104.953 23.2186H111.768V23.0746H104.953V23.2186Z" fill="#C52939"/>
<path opacity="0.1" d="M104.953 23.2186H111.768V23.0746H104.953V23.2186Z" fill="#222222"/>
<path d="M104.953 23.3611H111.768V23.217H104.953V23.3611Z" fill="#C52939"/>
<path d="M104.953 23.5053H111.768V23.3612H104.953V23.5053Z" fill="#C52939"/>
<path opacity="0.1" d="M104.953 23.5053H111.768V23.3612H104.953V23.5053Z" fill="#222222"/>
<path d="M104.953 23.6483H111.768V23.5043H104.953V23.6483Z" fill="#C52939"/>
<path d="M104.953 23.792H111.768V23.6479H104.953V23.792Z" fill="#C52939"/>
<path opacity="0.1" d="M104.953 23.792H111.768V23.6479H104.953V23.792Z" fill="#222222"/>
<path d="M104.088 29.3859L106.53 29.8399L107.414 25.0752L104.972 24.6212L104.088 29.3859Z" fill="#C52939"/>
<path d="M106.286 27.3389C106.389 26.7846 106.248 26.2938 105.972 26.2424C105.696 26.191 105.388 26.5986 105.285 27.1527C105.183 27.7068 105.323 28.1978 105.6 28.249C105.876 28.3004 106.183 27.8928 106.286 27.3389Z" fill="#C52939"/>
<path opacity="0.1" d="M106.286 27.3389C106.389 26.7846 106.248 26.2938 105.972 26.2424C105.696 26.191 105.388 26.5986 105.285 27.1527C105.183 27.7068 105.323 28.1978 105.6 28.249C105.876 28.3004 106.183 27.8928 106.286 27.3389Z" fill="#222222"/>
<path d="M104.506 39.4428L106.949 39.8967L107.832 35.1319L105.39 34.678L104.506 39.4428Z" fill="#C52939"/>
<path d="M106.703 37.3944C106.805 36.8405 106.665 36.3495 106.388 36.298C106.112 36.2468 105.805 36.6542 105.702 37.2084C105.599 37.7626 105.74 38.2533 106.016 38.3048C106.292 38.3563 106.6 37.9486 106.703 37.3944Z" fill="#C52939"/>
<path opacity="0.1" d="M106.703 37.3944C106.805 36.8405 106.665 36.3495 106.388 36.298C106.112 36.2468 105.805 36.6542 105.702 37.2084C105.599 37.7626 105.74 38.2533 106.016 38.3048C106.292 38.3563 106.6 37.9486 106.703 37.3944Z" fill="#222222"/>
<path d="M95.6736 14.7227L94.4916 16.9095L98.7491 19.2159L99.9311 17.0291L95.6736 14.7227Z" fill="#C52939"/>
<path d="M98.5231 17.553C98.6581 17.3053 98.366 16.8852 97.8705 16.6147C97.3752 16.3442 96.8641 16.3257 96.7291 16.5733C96.5941 16.821 96.8865 17.241 97.3817 17.5115C97.8773 17.7821 98.3884 17.8006 98.5231 17.553Z" fill="#C52939"/>
<path opacity="0.1" d="M98.5231 17.553C98.6581 17.3053 98.366 16.8852 97.8705 16.6147C97.3752 16.3442 96.8641 16.3257 96.7291 16.5733C96.5941 16.821 96.8865 17.241 97.3817 17.5115C97.8773 17.7821 98.3884 17.8006 98.5231 17.553Z" fill="#222222"/>
<path d="M86.3253 57.8787L85.1431 60.0654L89.4006 62.372L90.5829 60.1852L86.3253 57.8787Z" fill="#C52939"/>
<path d="M88.7455 60.6403C88.8794 60.3928 88.5865 59.9748 88.0912 59.7065C87.5962 59.4383 87.0862 59.4214 86.9526 59.6689C86.8187 59.9165 87.1116 60.3345 87.6069 60.6027C88.1019 60.871 88.6119 60.8879 88.7455 60.6403Z" fill="#C52939"/>
<path opacity="0.1" d="M88.7455 60.6403C88.8794 60.3928 88.5865 59.9748 88.0912 59.7065C87.5962 59.4383 87.0862 59.4214 86.9526 59.6689C86.8187 59.9165 87.1116 60.3345 87.6069 60.6027C88.1019 60.871 88.6119 60.8879 88.7455 60.6403Z" fill="#222222"/>
<path d="M80.6055 22.2653L79.4235 24.4521L83.681 26.7585L84.863 24.5717L80.6055 22.2653Z" fill="#C52939"/>
<path d="M83.0247 25.0247C83.1584 24.7772 82.8655 24.3591 82.3705 24.0909C81.8752 23.8226 81.3655 23.8058 81.2315 24.0534C81.0979 24.3009 81.3908 24.7189 81.8858 24.9872C82.3811 25.2554 82.8908 25.2722 83.0247 25.0247Z" fill="#C52939"/>
<path opacity="0.1" d="M83.0247 25.0247C83.1584 24.7772 82.8655 24.3591 82.3705 24.0909C81.8752 23.8226 81.3655 23.8058 81.2315 24.0534C81.0979 24.3009 81.3908 24.7189 81.8858 24.9872C82.3811 25.2554 82.8908 25.2722 83.0247 25.0247Z" fill="#222222"/>
<path d="M87.774 14.7222L86.592 16.909L90.8496 19.2154L92.0316 17.0286L87.774 14.7222Z" fill="#C52939"/>
<path d="M90.1939 17.4816C90.3275 17.2341 90.0346 16.816 89.5396 16.5478C89.0444 16.2796 88.5346 16.2628 88.4007 16.5103C88.2671 16.7578 88.56 17.1758 89.055 17.4441C89.5503 17.7123 90.06 17.7291 90.1939 17.4816Z" fill="#C52939"/>
<path opacity="0.1" d="M90.1939 17.4816C90.3275 17.2341 90.0346 16.816 89.5396 16.5478C89.0444 16.2796 88.5346 16.2628 88.4007 16.5103C88.2671 16.7578 88.56 17.1758 89.055 17.4441C89.5503 17.7123 90.06 17.7291 90.1939 17.4816Z" fill="#222222"/>
<path d="M94.9314 23.6222L92.4624 23.8924L92.9888 28.71L95.4578 28.4396L94.9314 23.6222Z" fill="#C52939"/>
<path d="M94.0383 27.1844C94.3175 27.1538 94.4945 26.6749 94.4335 26.1146C94.3721 25.5544 94.0961 25.125 93.8165 25.1556C93.537 25.1862 93.3603 25.6652 93.4214 26.2254C93.4825 26.7857 93.7587 27.215 94.0383 27.1844Z" fill="#C52939"/>
<path opacity="0.1" d="M94.0383 27.1844C94.3175 27.1538 94.4945 26.6749 94.4335 26.1146C94.3721 25.5544 94.0961 25.125 93.8165 25.1556C93.537 25.1862 93.3603 25.6652 93.4214 26.2254C93.4825 26.7857 93.7587 27.215 94.0383 27.1844Z" fill="#222222"/>
<path d="M111.86 50.0017L109.391 50.2718L109.917 55.0895L112.386 54.8191L111.86 50.0017Z" fill="#C52939"/>
<path d="M110.968 53.5645C111.247 53.534 111.424 53.055 111.363 52.4948C111.301 51.9344 111.025 51.5052 110.746 51.5357C110.467 51.5662 110.29 52.0452 110.351 52.6054C110.412 53.1658 110.688 53.595 110.968 53.5645Z" fill="#C52939"/>
<path opacity="0.1" d="M110.968 53.5645C111.247 53.534 111.424 53.055 111.363 52.4948C111.301 51.9344 111.025 51.5052 110.746 51.5357C110.467 51.5662 110.29 52.0452 110.351 52.6054C110.412 53.1658 110.688 53.595 110.968 53.5645Z" fill="#222222"/>
<path d="M85.2635 33.8558L84.0815 36.0428L88.3391 38.3491L89.5211 36.1624L85.2635 33.8558Z" fill="#C52939"/>
<path d="M87.6819 36.6175C87.8156 36.3699 87.5227 35.9519 87.0277 35.6837C86.5324 35.4155 86.0227 35.3986 85.8888 35.6461C85.7551 35.8937 86.048 36.3117 86.543 36.5799C87.0383 36.8481 87.548 36.865 87.6819 36.6175Z" fill="#C52939"/>
<path opacity="0.1" d="M87.6819 36.6175C87.8156 36.3699 87.5227 35.9519 87.0277 35.6837C86.5324 35.4155 86.0227 35.3986 85.8888 35.6461C85.7551 35.8937 86.048 36.3117 86.543 36.5799C87.0383 36.8481 87.548 36.865 87.6819 36.6175Z" fill="#222222"/>
<path d="M74.5197 30.7843L73.3374 32.971L77.5949 35.2776L78.7772 33.0909L74.5197 30.7843Z" fill="#C52939"/>
<path d="M77.2925 33.6905C77.4275 33.4429 77.1352 33.0227 76.6396 32.7523C76.1443 32.4819 75.6333 32.4634 75.4985 32.7109C75.3635 32.9585 75.6556 33.3787 76.1512 33.6491C76.6464 33.9198 77.1575 33.9383 77.2925 33.6905Z" fill="#C52939"/>
<path opacity="0.1" d="M77.2925 33.6905C77.4275 33.4429 77.1352 33.0227 76.6396 32.7523C76.1443 32.4819 75.6333 32.4634 75.4985 32.7109C75.3635 32.9585 75.6556 33.3787 76.1512 33.6491C76.6464 33.9198 77.1575 33.9383 77.2925 33.6905Z" fill="#222222"/>
<path d="M71.0784 82.502L69.8964 84.6887L74.1539 86.9953L75.3359 84.8085L71.0784 82.502Z" fill="#C52939"/>
<path d="M73.4978 85.2619C73.6317 85.0143 73.3388 84.5963 72.8436 84.3281C72.3486 84.0599 71.8386 84.043 71.7049 84.2905C71.571 84.5381 71.8639 84.9561 72.3592 85.2243C72.8542 85.4925 73.3639 85.5094 73.4978 85.2619Z" fill="#C52939"/>
<path opacity="0.1" d="M73.4978 85.2619C73.6317 85.0143 73.3388 84.5963 72.8436 84.3281C72.3486 84.0599 71.8386 84.043 71.7049 84.2905C71.571 84.5381 71.8639 84.9561 72.3592 85.2243C72.8542 85.4925 73.3639 85.5094 73.4978 85.2619Z" fill="#222222"/>
<path d="M67.9814 83.3445L67.5284 85.7891L72.2881 86.6731L72.7411 84.2284L67.9814 83.3445Z" fill="#C52939"/>
<path opacity="0.05" d="M67.9814 83.3445L67.5284 85.7891L72.2881 86.6731L72.7411 84.2284L67.9814 83.3445Z" fill="#222222"/>
<path d="M71.1319 85.226C71.1832 84.9493 70.776 84.6416 70.2227 84.5389C69.669 84.436 69.1787 84.577 69.1274 84.8537C69.0761 85.1304 69.4833 85.4381 70.0369 85.5408C70.5906 85.6437 71.0807 85.5027 71.1319 85.226Z" fill="#C52939"/>
<path opacity="0.1" d="M71.1319 85.226C71.1832 84.9493 70.776 84.6416 70.2227 84.5389C69.669 84.436 69.1787 84.577 69.1274 84.8537C69.0761 85.1304 69.4833 85.4381 70.0369 85.5408C70.5906 85.6437 71.0807 85.5027 71.1319 85.226Z" fill="#222222"/>
<path d="M68.427 84.8109L67.974 87.2555L72.7339 88.1395L73.1869 85.6949L68.427 84.8109Z" fill="#C52939"/>
<path d="M71.5768 86.6925C71.6281 86.4158 71.2209 86.108 70.6675 86.0051C70.1139 85.9024 69.6235 86.0432 69.5722 86.3202C69.521 86.5969 69.9281 86.9043 70.4818 87.0073C71.0352 87.1099 71.5255 86.9691 71.5768 86.6925Z" fill="#C52939"/>
<path opacity="0.1" d="M71.5768 86.6925C71.6281 86.4158 71.2209 86.108 70.6675 86.0051C70.1139 85.9024 69.6235 86.0432 69.5722 86.3202C69.521 86.5969 69.9281 86.9043 70.4818 87.0073C71.0352 87.1099 71.5255 86.9691 71.5768 86.6925Z" fill="#222222"/>
<path d="M76.1009 88.7871L74.9186 90.9739L79.1761 93.2804L80.3581 91.0937L76.1009 88.7871Z" fill="#C52939"/>
<path d="M78.5214 91.547C78.655 91.2995 78.3621 90.8815 77.8671 90.6133C77.3721 90.345 76.8622 90.3281 76.7282 90.5757C76.5946 90.8232 76.8875 91.2412 77.3825 91.5095C77.8778 91.7777 78.3875 91.7946 78.5214 91.547Z" fill="#C52939"/>
<path opacity="0.1" d="M78.5214 91.547C78.655 91.2995 78.3621 90.8815 77.8671 90.6133C77.3721 90.345 76.8622 90.3281 76.7282 90.5757C76.5946 90.8232 76.8875 91.2412 77.3825 91.5095C77.8778 91.7777 78.3875 91.7946 78.5214 91.547Z" fill="#222222"/>
<path d="M73.0045 89.6281L72.5513 92.0729L77.3112 92.9569L77.7642 90.512L73.0045 89.6281Z" fill="#C52939"/>
<path opacity="0.05" d="M73.0045 89.6281L72.5513 92.0729L77.3112 92.9569L77.7642 90.512L73.0045 89.6281Z" fill="#222222"/>
<path d="M83.6356 84.7363L82.4536 86.9231L86.7112 89.2296L87.8931 87.0429L83.6356 84.7363Z" fill="#C52939"/>
<path d="M86.0539 87.4958C86.1878 87.2482 85.8949 86.8302 85.3996 86.562C84.9046 86.2938 84.3946 86.2769 84.261 86.5244C84.127 86.7719 84.4199 87.19 84.9152 87.4582C85.4102 87.7264 85.92 87.7433 86.0539 87.4958Z" fill="#C52939"/>
<path opacity="0.1" d="M86.0539 87.4958C86.1878 87.2482 85.8949 86.8302 85.3996 86.562C84.9046 86.2938 84.3946 86.2769 84.261 86.5244C84.127 86.7719 84.4199 87.19 84.9152 87.4582C85.4102 87.7264 85.92 87.7433 86.0539 87.4958Z" fill="#222222"/>
<path d="M80.5386 85.5784L80.0853 88.023L84.8452 88.907L85.2982 86.4623L80.5386 85.5784Z" fill="#C52939"/>
<path opacity="0.05" d="M80.5386 85.5784L80.0853 88.023L84.8452 88.907L85.2982 86.4623L80.5386 85.5784Z" fill="#222222"/>
<path d="M83.6875 87.4599C83.7388 87.1832 83.3316 86.8755 82.7782 86.7728C82.2246 86.6699 81.7345 86.8109 81.6832 87.0876C81.6317 87.3643 82.0389 87.672 82.5925 87.7747C83.1461 87.8776 83.6362 87.7366 83.6875 87.4599Z" fill="#C52939"/>
<path opacity="0.1" d="M83.6875 87.4599C83.7388 87.1832 83.3316 86.8755 82.7782 86.7728C82.2246 86.6699 81.7345 86.8109 81.6832 87.0876C81.6317 87.3643 82.0389 87.672 82.5925 87.7747C83.1461 87.8776 83.6362 87.7366 83.6875 87.4599Z" fill="#222222"/>
<path d="M80.9842 87.0459L80.5312 89.4905L85.2912 90.3745L85.7442 87.9299L80.9842 87.0459Z" fill="#C52939"/>
<path d="M84.1351 88.9279C84.1864 88.6512 83.7792 88.3435 83.2259 88.2406C82.6722 88.1379 82.1819 88.2787 82.1306 88.5557C82.0793 88.8323 82.4865 89.1398 83.0401 89.2427C83.5935 89.3454 84.0839 89.2046 84.1351 88.9279Z" fill="#C52939"/>
<path opacity="0.1" d="M84.1351 88.9279C84.1864 88.6512 83.7792 88.3435 83.2259 88.2406C82.6722 88.1379 82.1819 88.2787 82.1306 88.5557C82.0793 88.8323 82.4865 89.1398 83.0401 89.2427C83.5935 89.3454 84.0839 89.2046 84.1351 88.9279Z" fill="#222222"/>
</g>
<defs>
<linearGradient id="paint0_linear" x1="71.6146" y1="82.7803" x2="71.6146" y2="35.4108" gradientUnits="userSpaceOnUse">
<stop stop-color="#808080" stop-opacity="0.25"/>
<stop offset="0.54" stop-color="#808080" stop-opacity="0.12"/>
<stop offset="1" stop-color="#808080" stop-opacity="0.1"/>
</linearGradient>
<clipPath id="clip0">
<rect width="150" height="95.3125" fill="white"/>
</clipPath>
</defs>
</svg>
