<svg width="150" height="96" viewBox="0 0 150 96" fill="none" xmlns="http://www.w3.org/2000/svg">
<path d="M135.19 16.6122H33.1609V82.4252H135.19V16.6122Z" fill="#111111" fill-opacity="0.1"/>
<path d="M38.9567 16.244H31.1654V82.671H38.9567V16.244Z" fill="#111111"/>
<path d="M73.2301 34.5386H52.8243V34.7842H73.2301V34.5386Z" fill="#111111"/>
<path d="M119.73 70.1465H91.6565V44.1161H119.73V70.1465ZM91.9039 69.9011H119.483V44.3617H91.9039V69.9011Z" fill="#111111"/>
<path d="M91.8649 44.1488L91.696 44.3283L119.522 70.1133L119.691 69.9338L91.8649 44.1488Z" fill="#111111"/>
<path d="M119.523 44.1493L91.696 69.933L91.8649 70.1124L119.692 44.3288L119.523 44.1493Z" fill="#111111"/>
<path d="M81.6399 52.5883H52.8243V52.8339H81.6399V52.5883Z" fill="#111111"/>
<path d="M81.6399 57.0083H52.8243V57.2539H81.6399V57.0083Z" fill="#111111"/>
<path d="M81.6399 61.4292H52.8243V61.6748H81.6399V61.4292Z" fill="#111111"/>
<path d="M76.8267 13.3582C78.2698 13.3582 79.4398 12.1967 79.4398 10.7639C79.4398 9.33116 78.2698 8.16968 76.8267 8.16968C75.3837 8.16968 74.2137 9.33116 74.2137 10.7639C74.2137 12.1967 75.3837 13.3582 76.8267 13.3582Z" fill="#111111"/>
<path d="M84.1743 13.3582C85.6175 13.3582 86.7873 12.1967 86.7873 10.7639C86.7873 9.33116 85.6175 8.16968 84.1743 8.16968C82.7313 8.16968 81.5615 9.33116 81.5615 10.7639C81.5615 12.1967 82.7313 13.3582 84.1743 13.3582Z" fill="#C52939"/>
<path d="M91.5233 13.3582C92.9663 13.3582 94.1363 12.1967 94.1363 10.7639C94.1363 9.33116 92.9663 8.16968 91.5233 8.16968C90.08 8.16968 88.9103 9.33116 88.9103 10.7639C88.9103 12.1967 90.08 13.3582 91.5233 13.3582Z" fill="#111111" fill-opacity="0.1"/>
<path d="M102.704 82.5011H14.8114V82.8105H102.704V82.5011Z" fill="#111111"/>
<path d="M119.73 31.1008H52.7002V26.5577H119.73V31.1008ZM52.9476 30.8551H119.483V26.8033H52.9476V30.8551Z" fill="#111111"/>
<path d="M59.3397 40.1679H52.7435C53.2527 38.1334 53.1911 35.9325 52.7435 33.6189H59.3397C58.4165 35.8021 58.4165 37.985 59.3397 40.1679Z" fill="white"/>
<path d="M57.7404 35.0088H53.7428V35.8026H57.7404V35.0088Z" fill="#111111"/>
<path d="M57.7404 36.5959H53.7428V37.3898H57.7404V36.5959Z" fill="#111111"/>
<path d="M57.7404 38.1836H53.7428V38.9774H57.7404V38.1836Z" fill="#111111"/>
<path d="M109.014 50.0584H102.418C102.927 48.0239 102.865 45.8227 102.418 43.509H109.014C108.091 45.6922 108.091 47.8752 109.014 50.0584Z" fill="white"/>
<path d="M107.416 44.899H103.418V45.6929H107.416V44.899Z" fill="#111111"/>
<path d="M107.416 46.4861H103.418V47.2799H107.416V46.4861Z" fill="#111111"/>
<path d="M107.416 48.0737H103.418V48.8675H107.416V48.0737Z" fill="#111111"/>
<path d="M117.496 36.0248H110.899C111.408 33.99 111.347 31.7891 110.899 29.4755H117.496C116.572 31.6587 116.572 33.8416 117.496 36.0248Z" fill="white"/>
<path d="M115.896 30.8649H111.898V31.6587H115.896V30.8649Z" fill="#111111"/>
<path d="M115.896 32.4525H111.898V33.2463H115.896V32.4525Z" fill="#111111"/>
<path d="M115.896 34.0402H111.898V34.834H115.896V34.0402Z" fill="#111111"/>
<path d="M36.8106 43.4423H33.3107V39.9675H36.8106V43.4423ZM33.5799 43.1752H36.5414V40.2347H33.5799V43.1752Z" fill="#111111" fill-opacity="0.1"/>
<path d="M36.8782 51.1946H33.3783V47.7195H36.8782V51.1946ZM33.6475 50.9274H36.609V47.9869H33.6475V50.9274Z" fill="#111111" fill-opacity="0.1"/>
<path d="M36.945 58.9467H33.4448V55.4716H36.945V58.9467ZM33.714 58.6792H36.6756V55.739H33.714V58.6792Z" fill="#111111" fill-opacity="0.1"/>
<path d="M33.5133 56.608C34.1081 56.608 34.5903 56.1292 34.5903 55.5389C34.5903 54.9482 34.1081 54.4697 33.5133 54.4697C32.9187 54.4697 32.4365 54.9482 32.4365 55.5389C32.4365 56.1292 32.9187 56.608 33.5133 56.608Z" fill="#C52939"/>
<path d="M24.2105 20.1517C24.2105 20.1517 33.6704 29.5681 28.3301 43.5409C22.9897 57.514 37.4842 80.7498 37.4842 80.7498C37.4842 80.7498 37.3288 80.7272 37.0408 80.6765C17.6092 77.263 7.96042 55.1437 18.7617 38.7121C22.7726 32.6028 26.076 25.4368 24.2105 20.1517Z" fill="#C52939"/>
<path d="M4.93738 62.0496C4.93738 62.0496 15.7319 60.3381 16.7156 69.9679C17.6992 79.5974 37.4725 80.9329 37.4725 80.9329C37.4725 80.9329 37.3383 81.0209 37.1013 81.1783C20.7748 91.8497 5.16789 87.9732 7.51978 73.8082C8.39619 68.5406 8.32383 63.2516 4.93738 62.0496Z" fill="#C52939"/>
<g opacity="0.3">
<path opacity="0.3" d="M4.93738 62.0496C4.93738 62.0496 15.7319 60.3381 16.7156 69.9679C17.6992 79.5974 37.4725 80.9329 37.4725 80.9329C37.4725 80.9329 37.3383 81.0209 37.1013 81.1783C20.7748 91.8497 5.16789 87.9732 7.51978 73.8082C8.39619 68.5406 8.32383 63.2516 4.93738 62.0496Z" fill="white"/>
</g>
<path d="M19.0539 61.9308C20.6933 61.9308 22.0222 58.4794 22.0222 54.2222C22.0222 49.9647 20.6933 46.5133 19.0539 46.5133C17.4145 46.5133 16.0856 49.9647 16.0856 54.2222C16.0856 58.4794 17.4145 61.9308 19.0539 61.9308Z" fill="#C52939"/>
<path opacity="0.3" d="M19.0539 61.9308C20.6933 61.9308 22.0222 58.4794 22.0222 54.2222C22.0222 49.9647 20.6933 46.5133 19.0539 46.5133C17.4145 46.5133 16.0856 49.9647 16.0856 54.2222C16.0856 58.4794 17.4145 61.9308 19.0539 61.9308Z" fill="#111111" fill-opacity="0.1"/>
<path d="M18.7825 82.219C19.5638 81.4412 18.7874 79.4072 17.0484 77.6764C15.3093 75.9452 13.2661 75.1724 12.4847 75.9501C11.7034 76.7279 12.4798 78.7616 14.2189 80.4927C15.9579 82.2239 18.0011 82.9967 18.7825 82.219Z" fill="#C52939"/>
<path opacity="0.3" d="M18.7825 82.219C19.5638 81.4412 18.7874 79.4072 17.0484 77.6764C15.3093 75.9452 13.2661 75.1724 12.4847 75.9501C11.7034 76.7279 12.4798 78.7616 14.2189 80.4927C15.9579 82.2239 18.0011 82.9967 18.7825 82.219Z" fill="#111111" fill-opacity="0.1"/>
<path d="M45.4252 46.1863C45.4252 46.1863 40.2455 53.0333 43.9511 61.0142C47.6563 68.9951 37.4932 81.8182 37.4932 81.8182" stroke="#111111" stroke-opacity="0.1" stroke-width="2" stroke-miterlimit="10"/>
<path d="M47.7477 43.6237C47.3362 45.3856 45.3676 46.4357 45.3676 46.4357C45.3676 46.4357 44.0675 44.628 44.4791 42.8658C44.8906 41.1039 45.9532 39.8447 46.8592 40.0541C47.7649 40.2635 48.159 41.8615 47.7477 43.6237Z" fill="#C52939"/>
<path d="M46.8527 51.4528C45.1427 52.0666 43.1875 50.9912 43.1875 50.9912C43.1875 50.9912 44.0049 48.9223 45.7162 48.3102C47.4276 47.6977 49.0664 47.9099 49.3814 48.7718C49.6964 49.6334 48.5627 50.8392 46.8527 51.4528Z" fill="#C52939"/>
<path d="M46.3721 50.0941C46.9085 49.9007 47.2843 49.5821 47.2115 49.382C47.1387 49.1818 46.6451 49.1761 46.1086 49.3692C45.5722 49.5622 45.1963 49.8811 45.2692 50.0813C45.3417 50.2815 45.8356 50.2872 46.3721 50.0941Z" fill="#C52939"/>
<path opacity="0.3" d="M46.3721 50.0941C46.9085 49.9007 47.2843 49.5821 47.2115 49.382C47.1387 49.1818 46.6451 49.1761 46.1086 49.3692C45.5722 49.5622 45.1963 49.8811 45.2692 50.0813C45.3417 50.2815 45.8356 50.2872 46.3721 50.0941Z" fill="#111111"/>
<path d="M46.4541 57.691C44.7441 58.3048 42.7889 57.2297 42.7889 57.2297C42.7889 57.2297 43.6063 55.1606 45.3177 54.5485C47.029 53.9363 48.6679 54.1481 48.9829 55.01C49.2979 55.8717 48.1641 57.0788 46.4541 57.691Z" fill="#C52939"/>
<path d="M45.9938 56.4269C46.5305 56.2343 46.9072 55.916 46.8346 55.7158C46.7624 55.5154 46.2682 55.5089 45.7315 55.7014C45.1945 55.8939 44.8181 56.2123 44.8904 56.4124C44.9629 56.6129 45.4568 56.6191 45.9938 56.4269Z" fill="#C52939"/>
<path opacity="0.3" d="M45.9938 56.4269C46.5305 56.2343 46.9072 55.916 46.8346 55.7158C46.7624 55.5154 46.2682 55.5089 45.7315 55.7014C45.1945 55.8939 44.8181 56.2123 44.8904 56.4124C44.9629 56.6129 45.4568 56.6191 45.9938 56.4269Z" fill="#111111"/>
<path d="M48.4528 65.0107C46.7428 65.6245 44.7876 64.5494 44.7876 64.5494C44.7876 64.5494 45.605 62.4803 47.3163 61.8682C49.0277 61.2557 50.6665 61.4678 50.9815 62.3297C51.2965 63.1914 50.1628 64.4013 48.4528 65.0107Z" fill="#C52939"/>
<path d="M47.9923 63.7496C48.5291 63.5574 48.9057 63.239 48.8332 63.0386C48.7609 62.8384 48.2667 62.8319 47.73 63.0244C47.193 63.2167 46.8166 63.535 46.8889 63.7355C46.9614 63.9356 47.4553 63.9422 47.9923 63.7496Z" fill="#C52939"/>
<path opacity="0.3" d="M47.9923 63.7496C48.5291 63.5574 48.9057 63.239 48.8332 63.0386C48.7609 62.8384 48.2667 62.8319 47.73 63.0244C47.193 63.2167 46.8166 63.535 46.8889 63.7355C46.9614 63.9356 47.4553 63.9422 47.9923 63.7496Z" fill="#111111"/>
<path d="M47.153 71.7045C45.443 72.3183 43.4878 71.2432 43.4878 71.2432C43.4878 71.2432 44.3052 69.1741 46.0165 68.5619C47.7279 67.9497 49.367 68.1616 49.6817 69.0235C49.9967 69.8851 48.8643 71.0923 47.153 71.7045Z" fill="#C52939"/>
<path d="M46.6963 70.3297C47.2328 70.1366 47.6086 69.8177 47.5361 69.6176C47.4633 69.4174 46.9693 69.4119 46.4332 69.605C45.8967 69.7981 45.5209 70.117 45.5934 70.3172C45.6663 70.517 46.1599 70.5228 46.6963 70.3297Z" fill="#C52939"/>
<path opacity="0.3" d="M46.6963 70.3297C47.2328 70.1366 47.6086 69.8177 47.5361 69.6176C47.4633 69.4174 46.9693 69.4119 46.4332 69.605C45.8967 69.7981 45.5209 70.117 45.5934 70.3172C45.6663 70.517 46.1599 70.5228 46.6963 70.3297Z" fill="#111111"/>
<path d="M39.1323 53.2252C40.3948 54.5271 42.6259 54.4258 42.6259 54.4258C42.6259 54.4258 42.8095 52.2102 41.5473 50.9083C40.2848 49.6063 38.721 49.0701 38.0537 49.7076C37.3863 50.3454 37.8698 51.9232 39.1323 53.2252Z" fill="#C52939"/>
<path d="M41.1049 52.7634C41.2587 52.6156 41.0621 52.1643 40.6658 51.7556C40.2695 51.3471 39.8236 51.1358 39.6695 51.2836C39.5157 51.4315 39.7124 51.8825 40.1086 52.2912C40.5049 52.7 40.9508 52.9113 41.1049 52.7634Z" fill="#C52939"/>
<path opacity="0.3" d="M41.1049 52.7634C41.2587 52.6156 41.0621 52.1643 40.6658 51.7556C40.2695 51.3471 39.8236 51.1358 39.6695 51.2836C39.5157 51.4315 39.7124 51.8825 40.1086 52.2912C40.5049 52.7 40.9508 52.9113 41.1049 52.7634Z" fill="#111111"/>
<path d="M38.4073 73.8999C39.6697 75.2018 41.9009 75.1005 41.9009 75.1005C41.9009 75.1005 42.0845 72.8846 40.822 71.5829C39.5598 70.281 37.9957 69.7448 37.3284 70.3823C36.661 71.0198 37.1448 72.5979 38.4073 73.8999Z" fill="#C52939"/>
<path d="M40.3783 73.4402C40.5322 73.2923 40.3355 72.8411 39.9393 72.4323C39.543 72.0238 39.0968 71.8122 38.943 71.9601C38.7892 72.108 38.9858 72.5592 39.3821 72.968C39.7783 73.3764 40.2243 73.588 40.3783 73.4402Z" fill="#C52939"/>
<path opacity="0.3" d="M40.3783 73.4402C40.5322 73.2923 40.3355 72.8411 39.9393 72.4323C39.543 72.0238 39.0968 71.8122 38.943 71.9601C38.7892 72.108 38.9858 72.5592 39.3821 72.968C39.7783 73.3764 40.2243 73.588 40.3783 73.4402Z" fill="#111111"/>
<path d="M40.0806 60.5327C41.7077 61.341 43.7752 60.5006 43.7752 60.5006C43.7752 60.5006 43.2058 58.3517 41.5803 57.5432C39.9546 56.7349 38.2997 56.7428 37.8857 57.5753C37.4714 58.4078 38.4538 59.7242 40.0806 60.5327Z" fill="#C52939"/>
<path d="M41.7815 59.4381C41.877 59.2477 41.5404 58.8874 41.0299 58.6339C40.5193 58.3804 40.0279 58.3292 39.9324 58.5198C39.837 58.7101 40.1735 59.0701 40.6841 59.324C41.1946 59.5775 41.6861 59.6287 41.7815 59.4381Z" fill="#C52939"/>
<path opacity="0.3" d="M41.7815 59.4381C41.877 59.2477 41.5404 58.8874 41.0299 58.6339C40.5193 58.3804 40.0279 58.3292 39.9324 58.5198C39.837 58.7101 40.1735 59.0701 40.6841 59.324C41.1946 59.5775 41.6861 59.6287 41.7815 59.4381Z" fill="#111111"/>
<path d="M40.7626 67.8119C42.3894 68.6204 44.4572 67.78 44.4572 67.78C44.4572 67.78 43.8878 65.6308 42.2621 64.8226C40.6366 64.0141 38.9814 64.0222 38.5674 64.8544C38.1534 65.6869 39.1423 67.0115 40.7626 67.8119Z" fill="#C52939"/>
<path d="M42.4639 66.7184C42.5594 66.5278 42.2228 66.1678 41.7123 65.9143C41.2017 65.6605 40.7103 65.6093 40.6148 65.7999C40.5194 65.9903 40.8559 66.3505 41.3665 66.6041C41.877 66.8576 42.3685 66.9088 42.4639 66.7184Z" fill="#C52939"/>
<path opacity="0.3" d="M42.4639 66.7184C42.5594 66.5278 42.2228 66.1678 41.7123 65.9143C41.2017 65.6605 40.7103 65.6093 40.6148 65.7999C40.5194 65.9903 40.8559 66.3505 41.3665 66.6041C41.877 66.8576 42.3685 66.9088 42.4639 66.7184Z" fill="#111111"/>
</svg>
