<svg width="150" height="96" viewBox="0 0 150 96" fill="none" xmlns="http://www.w3.org/2000/svg">
<g clip-path="url(#clip0)">
<path opacity="0.1" d="M127.937 32.8324C127.453 14.6266 110.35 0 89.3163 0C79.0287 0 69.6887 3.50082 62.7595 9.21263C48.3562 10.3796 36.2466 18.4253 30.8182 29.548C14.3291 33.3728 2.18182 46.4639 2.18182 62.0319C2.18182 80.6106 19.4759 95.6579 40.8104 95.6579C47.0771 95.6516 53.2274 94.3459 58.6219 91.8761C63.6802 94.0801 69.3687 95.2714 75.1718 95.342C80.9749 95.4124 86.709 94.3601 91.854 92.2799C97.1057 94.5862 103.037 95.8027 109.075 95.8115C130.409 95.8115 147.703 80.7642 147.703 62.1852C147.703 49.5731 139.731 38.5888 127.937 32.8324Z" fill="#C52939"/>
<path d="M65.4545 81.0292C65.1065 81.0292 64.7547 81.0237 64.4094 81.0127L64.4173 80.7612C64.9132 80.7768 65.4188 80.7809 65.9168 80.774L65.9203 81.0259C65.7652 81.0281 65.61 81.0292 65.4545 81.0292ZM67.4302 80.9709L67.4154 80.7193C67.9118 80.69 68.4147 80.6487 68.9097 80.5966L68.9359 80.8471C68.4371 80.8994 67.9303 80.9413 67.4302 80.9709ZM62.901 80.9314C62.4005 80.8931 61.8946 80.8425 61.3974 80.7814L61.4282 80.5315C61.9216 80.592 62.4234 80.6424 62.9201 80.6804L62.901 80.9314ZM70.4345 80.6544L70.3969 80.4056C70.89 80.3306 71.3871 80.2432 71.8737 80.1463L71.9225 80.3932C71.4322 80.491 70.9314 80.5789 70.4345 80.6544ZM59.9026 80.5624C59.4082 80.4784 58.9091 80.3815 58.4192 80.2747L58.4724 80.0286C58.9584 80.1346 59.4537 80.2306 59.9446 80.3139L59.9026 80.5624ZM73.3974 80.0634L73.3372 79.8189C73.8212 79.6988 74.3081 79.566 74.784 79.4242L74.8554 79.6659C74.3757 79.8085 73.8851 79.9424 73.3974 80.0634ZM56.9506 79.9191C56.4654 79.7896 55.9772 79.647 55.4997 79.4954L55.5752 79.2553C56.0492 79.4058 56.5336 79.5471 57.015 79.6755L56.9506 79.9191ZM76.2935 79.2011L76.2112 78.9632C76.6811 78.7992 77.1534 78.6218 77.6157 78.4362L77.709 78.6703C77.2432 78.8573 76.767 79.0357 76.2935 79.2011ZM54.0662 79.0037C53.595 78.8299 53.121 78.6424 52.6573 78.4464L52.7547 78.2142C53.2148 78.4086 53.6852 78.5947 54.1527 78.7675L54.0662 79.0037ZM79.0952 78.0757L78.9913 77.8466C79.4424 77.6407 79.896 77.4212 80.3391 77.1937L80.4534 77.4179C80.0067 77.647 79.5499 77.8685 79.0952 78.0757ZM81.7802 76.6982L81.6562 76.4795C82.0887 76.2315 82.5207 75.9711 82.9396 75.7051L83.0735 75.9178C82.6516 76.186 82.2163 76.4486 81.7802 76.6982ZM84.3302 75.0787L84.1868 74.8723C84.5942 74.5868 85.0006 74.2873 85.3952 73.9832L85.548 74.183C85.1506 74.4896 84.741 74.791 84.3302 75.0787ZM46.0822 74.7239C45.6772 74.4288 45.2727 74.1195 44.8797 73.8044L45.0363 73.6076C45.4263 73.9202 45.8277 74.2271 46.2297 74.5203L46.0822 74.7239ZM86.724 73.2323L86.5622 73.0396C86.9421 72.7179 87.3199 72.3829 87.6856 72.0434L87.8561 72.2282C87.4876 72.5704 87.1066 72.9082 86.724 73.2323ZM43.7201 72.831C43.3429 72.4995 42.9682 72.1546 42.6063 71.8058L42.78 71.624C43.1392 71.9701 43.5112 72.3125 43.8853 72.6415L43.7201 72.831ZM88.9415 71.1734L88.7629 70.9966C89.1131 70.6405 89.4591 70.272 89.7919 69.9013L89.9784 70.07C89.6432 70.4434 89.2944 70.8146 88.9415 71.1734ZM41.5404 70.7311C41.1943 70.3659 40.8526 69.9881 40.5245 69.609L40.7141 69.4439C41.0394 69.8203 41.3787 70.1951 41.7223 70.5575L41.5404 70.7311ZM90.9643 68.92L90.7704 68.7601C91.0865 68.3738 91.398 67.9753 91.6961 67.575L91.8971 67.7259C91.5968 68.1291 91.2829 68.531 90.9643 68.92ZM39.5607 68.4417C39.2498 68.0475 38.9438 67.6407 38.6512 67.2323L38.8546 67.085C39.1453 67.4905 39.4489 67.8942 39.7573 68.2857L39.5607 68.4417ZM92.7747 66.4902L92.5671 66.3487C92.847 65.935 93.1211 65.5093 93.3818 65.0831L93.5956 65.2151C93.3327 65.6443 93.0567 66.0733 92.7747 66.4902ZM37.7975 65.9827C37.5243 65.5619 37.2564 65.1288 37.002 64.6955L37.2183 64.5677C37.4708 64.9977 37.7364 65.4275 38.0078 65.845L37.7975 65.9827ZM94.3576 63.9033L94.1381 63.7815C94.3789 63.3437 94.6129 62.8945 94.8338 62.4456L95.0588 62.5573C94.8362 63.0095 94.6003 63.4623 94.3576 63.9033ZM95.6978 61.18L95.4679 61.079C95.6678 60.6205 95.8598 60.1513 96.0387 59.6837L96.273 59.7741C96.0927 60.2452 95.8991 60.7182 95.6978 61.18ZM34.98 60.6366C34.7877 60.1732 34.6033 59.6991 34.4323 59.2271L34.6683 59.1412C34.8379 59.6093 35.0206 60.0798 35.2115 60.5397L34.98 60.6366ZM96.783 58.3424L96.5446 58.2633C96.7011 57.7897 96.849 57.3054 96.984 56.8242L97.2256 56.8923C97.0895 57.3774 96.9406 57.8652 96.783 58.3424ZM33.9491 57.7905C33.7996 57.3103 33.6594 56.8201 33.5321 56.3328L33.7748 56.2687C33.9011 56.7524 34.0404 57.2392 34.1885 57.7155L33.9491 57.7905ZM97.6009 55.4234L97.3562 55.3662C97.4686 54.8808 97.5714 54.3851 97.6617 53.8929L97.9085 53.9383C97.8177 54.4344 97.7141 54.9339 97.6009 55.4234ZM33.1827 54.8573C33.078 54.3654 32.9833 53.8641 32.901 53.3673L33.1486 53.326C33.2302 53.8192 33.3243 54.3166 33.4279 54.8047L33.1827 54.8573ZM98.1477 52.4412L97.899 52.407C97.9663 51.9137 98.0233 51.4105 98.0683 50.9118L98.3184 50.9345C98.2731 51.4374 98.2156 51.9441 98.1477 52.4412ZM32.688 51.8661C32.6288 51.3676 32.5803 50.8598 32.5434 50.3566L32.7938 50.3383C32.8303 50.8376 32.8786 51.3416 32.9373 51.8362L32.688 51.8661ZM98.4207 49.4218L98.1698 49.4103C98.1921 48.9112 98.2036 48.4051 98.2036 47.9058H98.4545C98.4545 48.4089 98.4431 48.9189 98.4207 49.4218ZM32.4676 48.842C32.4589 48.5332 32.4545 48.2181 32.4545 47.9058C32.4545 47.7119 32.4562 47.5184 32.4594 47.3254L32.7103 47.3298C32.7071 47.5214 32.7054 47.7133 32.7054 47.9058C32.7054 48.2159 32.7098 48.5285 32.7183 48.8351L32.4676 48.842ZM32.7701 45.8261L32.5194 45.8102C32.5508 45.3071 32.5942 44.7987 32.6479 44.2994L32.8974 44.3265C32.844 44.822 32.8012 45.3265 32.7701 45.8261ZM98.0416 44.2893C97.9914 43.7927 97.9224 43.5507 97.8496 43.0561L98.0981 43.0194C98.1711 43.5176 98.2341 43.8978 98.2846 44.3982L98.0416 44.2893ZM33.0927 42.8346L32.8448 42.796C32.9217 42.2978 33.0109 41.7954 33.1104 41.303L33.3562 41.3531C33.2577 41.8417 33.1691 42.3399 33.0927 42.8346ZM97.5965 41.5732C97.5008 41.0818 97.3928 40.5871 97.2752 40.1029L97.5193 40.0435C97.6374 40.5313 97.7462 41.0298 97.8428 41.5247L97.5965 41.5732ZM33.6873 39.8852L33.4437 39.8239C33.5656 39.3361 33.7006 38.8442 33.8449 38.3618L34.0852 38.4344C33.942 38.9129 33.8081 39.4013 33.6873 39.8852ZM96.8871 38.6493C96.7472 38.1697 96.5942 37.6873 96.4328 37.2151L96.6698 37.1333C96.8329 37.609 96.987 38.0952 97.128 38.5784L96.8871 38.6493ZM34.551 36.9994L34.3143 36.9159C34.4812 36.4396 34.6612 35.9613 34.8496 35.4938L35.0823 35.5882C34.8952 36.052 34.7165 36.5269 34.551 36.9994ZM95.9127 35.8037C95.7297 35.3399 95.5336 34.8748 95.3299 34.4207L95.5587 34.3172C95.7641 34.7749 95.9615 35.2436 96.1459 35.7106L95.9127 35.8037ZM35.6773 34.2036L35.4493 34.0985C35.6591 33.6405 35.8822 33.1809 36.1123 32.733L36.3354 32.8486C36.1069 33.2931 35.8854 33.7489 35.6773 34.2036ZM94.6846 33.0656C94.4599 32.6211 94.2221 32.1754 93.9771 31.7415L94.1956 31.6175C94.4421 32.0547 94.6819 32.5036 94.9082 32.9518L94.6846 33.0656ZM37.0549 31.5255L36.8373 31.3999C37.0876 30.9635 37.3516 30.5266 37.6219 30.1018L37.8335 30.2373C37.5652 30.6591 37.3031 31.0925 37.0549 31.5255ZM93.2102 30.4505C92.9449 30.0268 92.6672 29.6047 92.385 29.196L92.5909 29.0525C92.8756 29.4642 93.1554 29.8896 93.4227 30.3167L93.2102 30.4505ZM38.67 28.9865L38.4649 28.8415C38.7543 28.4297 39.0567 28.0191 39.3641 27.6214L39.5623 27.7758C39.2574 28.1705 38.9572 28.5778 38.67 28.9865ZM91.5032 27.98C91.2008 27.5825 90.8858 27.1873 90.567 26.8054L90.7592 26.6436C91.0805 27.0284 91.398 27.4267 91.7026 27.8272L91.5032 27.98ZM40.5087 26.6074L40.3175 26.4441C40.6423 26.0613 40.9805 25.6804 41.3233 25.3118L41.5069 25.4836C41.1668 25.8494 40.8308 26.2276 40.5087 26.6074ZM89.5783 25.6744C89.2412 25.3061 88.8913 24.9411 88.539 24.5895L88.716 24.4108C89.0711 24.7651 89.4234 25.1329 89.763 25.5039L89.5783 25.6744ZM42.5544 24.4069L42.3791 24.2268C42.738 23.8745 43.1092 23.5261 43.4825 23.1914L43.6497 23.3794C43.2791 23.7114 42.9106 24.0571 42.5544 24.4069ZM87.4519 23.553C87.0823 23.2167 86.7008 22.885 86.3181 22.5671L86.4782 22.373C86.8636 22.6933 87.2481 23.0275 87.6204 23.3664L87.4519 23.553ZM44.7903 22.4029L44.6318 22.2076C45.0199 21.8903 45.4211 21.5774 45.8242 21.2776L45.9736 21.4799C45.5735 21.7775 45.1753 22.0881 44.7903 22.4029ZM47.1971 20.6123L47.0572 20.4034C47.4725 20.1228 47.9002 19.8481 48.3281 19.5867L48.4584 19.8019C48.0338 20.0613 47.6094 20.334 47.1971 20.6123ZM49.7553 19.0504L49.6347 18.8294C50.0743 18.588 50.5249 18.3539 50.9741 18.1333L51.0845 18.3596C50.6386 18.5785 50.1913 18.8108 49.7553 19.0504ZM80.0413 18.4668C79.5949 18.2436 79.1372 18.0278 78.6818 17.8257L78.7832 17.5953C79.2422 17.799 79.7034 18.0164 80.1531 18.2414L80.0413 18.4668ZM52.4433 17.7308L52.3434 17.4997C52.8027 17.2999 53.2726 17.1082 53.7398 16.9301L53.8287 17.1656C53.3651 17.3424 52.899 17.5325 52.4433 17.7308ZM77.2939 17.2479C76.8292 17.067 76.3535 16.8944 75.8803 16.735L75.9602 16.4962C76.437 16.6569 76.9162 16.8307 77.3844 17.0131L77.2939 17.2479ZM55.2422 16.6639L55.1642 16.4245C55.6412 16.2676 56.1278 16.1198 56.6102 15.9855L56.6773 16.2281C56.1984 16.3615 55.7157 16.5081 55.2422 16.6639ZM74.448 16.2894C73.9693 16.1524 73.4812 16.0249 72.9971 15.9103L73.0546 15.6652C73.5428 15.7806 74.0345 15.9091 74.517 16.0471L74.448 16.2894ZM58.131 15.8592L58.0751 15.6136C58.5641 15.5015 59.0621 15.3994 59.5554 15.3101L59.5999 15.5579C59.1103 15.6466 58.6162 15.748 58.131 15.8592ZM71.5303 15.5989C71.0416 15.5068 70.5439 15.4249 70.0508 15.3554L70.0857 15.106C70.5823 15.1761 71.0842 15.2586 71.5767 15.3513L71.5303 15.5989ZM61.0813 15.3248L61.0481 15.0751C61.5447 15.0086 62.0501 14.9526 62.5497 14.909L62.5715 15.1599C62.0757 15.2033 61.5744 15.2588 61.0813 15.3248ZM68.5617 15.1803C68.0672 15.1335 67.5641 15.0975 67.0661 15.0733L67.0783 14.8217C67.5802 14.8461 68.0872 14.8824 68.5852 14.9295L68.5617 15.1803ZM64.0677 15.0633L64.0573 14.8116C64.5185 14.7923 64.9884 14.7825 65.4545 14.7823L65.568 14.7825L65.5674 15.0344L65.4545 15.0343C64.992 15.0344 64.5253 15.0441 64.0677 15.0633Z" fill="#111111"/>
<path d="M63.42 63.2896C63.3085 63.2898 63.2018 63.3342 63.123 63.4133C63.0445 63.4921 63 63.5994 63 63.7111V78.0859C63 78.1976 63.0445 78.3049 63.123 78.3837C63.2018 78.4628 63.3085 78.5072 63.42 78.5074H112.253C112.364 78.5072 112.471 78.4628 112.55 78.3837C112.628 78.3049 112.673 78.1976 112.673 78.0859V63.7111C112.673 63.5994 112.628 63.4921 112.55 63.4133C112.471 63.3342 112.364 63.2898 112.253 63.2896H63.42Z" fill="#CCCCCC"/>
<path d="M64.0519 77.4511H111.62V64.3457H64.0519V77.4511Z" fill="white"/>
<path d="M105.616 74.7324C105.524 74.7324 105.434 74.7502 105.35 74.7853C105.265 74.8203 105.188 74.8718 105.123 74.9366C105.059 75.0015 105.008 75.0784 104.973 75.1633C104.937 75.2479 104.919 75.3388 104.919 75.4305C104.919 75.5225 104.937 75.6131 104.973 75.6979C105.008 75.7828 105.059 75.8597 105.123 75.9246C105.188 75.9895 105.265 76.0407 105.35 76.0757C105.434 76.1107 105.524 76.1288 105.616 76.1288H108.398C108.582 76.1288 108.759 76.0552 108.89 75.9243C109.02 75.7932 109.094 75.6158 109.094 75.4305C109.094 75.2454 109.02 75.0678 108.89 74.9369C108.759 74.8061 108.582 74.7324 108.398 74.7324H105.616Z" fill="#C52939"/>
<path d="M109.094 73.3782H76.9773V73.5619H109.094V73.3782Z" fill="#CCCCCC"/>
<path d="M70.2635 74.9649C72.5009 74.9649 74.3148 73.1445 74.3148 70.8986C74.3148 68.6528 72.5009 66.8324 70.2635 66.8324C68.0263 66.8324 66.2124 68.6528 66.2124 70.8986C66.2124 73.1445 68.0263 74.9649 70.2635 74.9649Z" fill="#C52939"/>
<path d="M77.028 72.3531L76.9266 72.2001L80.2639 69.9668L82.5527 71.0695L85.8445 68.9586L92.3927 71.7624L97.6072 69.191L102.671 71.2515L109.033 65.5951L109.155 65.7325L102.707 71.4648L97.6143 69.3922L92.3979 71.9641L85.8614 69.1656L82.5652 71.2795L80.2789 70.1779L77.028 72.3531Z" fill="#111111"/>
<path d="M77.5723 74.8283C77.4941 74.828 77.4166 74.8433 77.3443 74.8734C77.2721 74.9033 77.2066 74.9473 77.1512 75.0026C77.0959 75.0582 77.052 75.1239 77.022 75.1964C76.9922 75.269 76.9767 75.3467 76.9767 75.425C76.9767 75.5036 76.9922 75.5813 77.022 75.6539C77.052 75.7261 77.0959 75.7921 77.1512 75.8474C77.2066 75.903 77.2721 75.9471 77.3443 75.9769C77.4166 76.0067 77.4941 76.0223 77.5723 76.0221H83.7943C83.952 76.0218 84.1031 75.9588 84.2143 75.8469C84.3256 75.7352 84.3883 75.5832 84.3883 75.425C84.3883 75.2671 84.3256 75.1151 84.2143 75.0032C84.1031 74.8912 83.952 74.8283 83.7943 74.8283H77.5723Z" fill="#CCCCCC"/>
<path d="M71.8111 69.0796H72.4441L71.1271 70.3878C70.8969 70.6156 70.5868 70.7432 70.2636 70.7432C69.9407 70.7432 69.6306 70.6156 69.4004 70.3878L68.0834 69.0796H68.7164L69.7171 70.0736C69.8627 70.2176 70.0591 70.2986 70.2639 70.2986C70.4684 70.2986 70.6648 70.2176 70.8104 70.0736L71.8111 69.0796ZM68.7083 72.7177H68.0753L69.4004 71.4012C69.6306 71.1738 69.9407 71.0462 70.2639 71.0462C70.5868 71.0462 70.8972 71.1738 71.1271 71.4012L72.4522 72.7177H71.8192L70.8104 71.7158C70.6648 71.5715 70.4684 71.4908 70.2639 71.4908C70.0591 71.4908 69.8627 71.5715 69.7171 71.7158L68.7083 72.7177Z" fill="white"/>
<path d="M69.779 17.2461C69.6677 17.2462 69.561 17.2907 69.4822 17.3697C69.4034 17.4487 69.3592 17.5558 69.3589 17.6676V32.0424C69.3592 32.1541 69.4034 32.2611 69.4822 32.3402C69.561 32.4194 69.6677 32.4637 69.779 32.4637H118.612C118.723 32.4637 118.83 32.4194 118.909 32.3402C118.987 32.2611 119.032 32.1541 119.032 32.0424V17.6676C119.032 17.5558 118.987 17.4487 118.909 17.3697C118.83 17.2907 118.723 17.2462 118.612 17.2461H69.779Z" fill="#CCCCCC"/>
<path d="M70.4111 31.4073H117.979V18.302H70.4111V31.4073Z" fill="white"/>
<path d="M111.975 28.6885C111.791 28.6885 111.614 28.7621 111.483 28.893C111.353 29.0238 111.28 29.2015 111.28 29.3865C111.28 29.5719 111.353 29.7492 111.483 29.8801C111.614 30.0112 111.791 30.0846 111.975 30.0846H114.757C114.942 30.0846 115.119 30.0112 115.249 29.8801C115.38 29.7492 115.453 29.5719 115.453 29.3865C115.453 29.2015 115.38 29.0238 115.249 28.893C115.119 28.7621 114.942 28.6885 114.757 28.6885H111.975Z" fill="#C52939"/>
<path d="M115.453 27.3346H83.3362V27.5184H115.453V27.3346Z" fill="#CCCCCC"/>
<path d="M76.5966 28.9373C78.834 28.9373 80.6477 27.1168 80.6477 24.8711C80.6477 22.6254 78.834 20.8048 76.5966 20.8048C74.3591 20.8048 72.5455 22.6254 72.5455 24.8711C72.5455 27.1168 74.3591 28.9373 76.5966 28.9373Z" fill="#C52939"/>
<path d="M83.3867 26.3089L83.2852 26.156L86.6226 23.9228L88.911 25.0254L92.2029 22.9145L92.2473 22.9335L98.751 25.7182L103.966 23.1471L109.029 25.2076L115.392 19.551L115.513 19.6886L109.066 25.4206L103.973 23.3482L98.7565 25.9202L92.22 23.1215L88.9239 25.2353L86.6373 24.1336L83.3867 26.3089Z" fill="#111111"/>
<path d="M83.9308 28.7845C83.7732 28.7848 83.6221 28.8478 83.5108 28.9597C83.3995 29.0717 83.3368 29.2234 83.3368 29.3816C83.3368 29.5398 83.3995 29.6915 83.5108 29.8034C83.6221 29.9154 83.7732 29.9784 83.9308 29.9786H90.1528C90.3107 29.9786 90.4618 29.9157 90.5733 29.8037C90.6849 29.6917 90.7476 29.5401 90.7476 29.3816C90.7476 29.2234 90.6849 29.0714 90.5733 28.9595C90.4618 28.8475 90.3107 28.7845 90.1528 28.7845H83.9308Z" fill="#CCCCCC"/>
<path d="M88.99 40.2677C88.8788 40.2677 88.7721 40.312 88.6933 40.3912C88.6148 40.4703 88.5703 40.5773 88.5703 40.689V55.064C88.5703 55.1757 88.6148 55.2827 88.6933 55.3619C88.7721 55.4407 88.8788 55.4853 88.99 55.4853H137.823C137.934 55.4853 138.041 55.4407 138.12 55.3619C138.198 55.2827 138.243 55.1757 138.243 55.064V40.689C138.243 40.5773 138.198 40.4703 138.12 40.3912C138.041 40.312 137.934 40.2677 137.823 40.2677H88.99Z" fill="#CCCCCC"/>
<path d="M89.6229 54.4295H137.191V41.3241H89.6229V54.4295Z" fill="white"/>
<path d="M131.187 51.7103C131.003 51.7103 130.826 51.784 130.695 51.9148C130.565 52.0459 130.492 52.2233 130.492 52.4087C130.492 52.5937 130.565 52.7714 130.695 52.9022C130.826 53.0331 131.003 53.1067 131.187 53.1067H133.969C134.154 53.1067 134.33 53.0331 134.461 52.9022C134.591 52.7714 134.665 52.5937 134.665 52.4087C134.665 52.2233 134.591 52.0459 134.461 51.9148C134.33 51.784 134.154 51.7103 133.969 51.7103H131.187Z" fill="#C52939"/>
<path d="M134.665 50.3561H102.548V50.5398H134.665V50.3561Z" fill="#CCCCCC"/>
<path d="M95.9602 51.932C98.1977 51.932 100.011 50.1116 100.011 47.8658C100.011 45.62 98.1977 43.7996 95.9602 43.7996C93.7228 43.7996 91.9091 45.62 91.9091 47.8658C91.9091 50.1116 93.7228 51.932 95.9602 51.932Z" fill="#C52939"/>
<path d="M102.599 49.3304L102.497 49.1776L105.835 46.9444L108.124 48.047L111.415 45.9359L111.46 45.955L117.963 48.7396L123.178 46.1686L128.242 48.2291L134.604 42.5726L134.726 42.7101L128.278 48.442L123.185 46.3698L117.969 48.9416L111.433 46.1431L108.136 48.2567L105.85 47.1552L102.599 49.3304Z" fill="#111111"/>
<path d="M103.143 51.806C102.985 51.806 102.834 51.869 102.722 51.981C102.611 52.0929 102.548 52.2446 102.548 52.4031C102.548 52.5613 102.611 52.7132 102.722 52.8252C102.834 52.9372 102.985 53.0001 103.143 53.0001H109.365C109.523 53.0001 109.674 52.9372 109.786 52.8252C109.897 52.7132 109.96 52.5613 109.96 52.4031C109.96 52.2446 109.897 52.0929 109.786 51.981C109.674 51.869 109.523 51.806 109.365 51.806H103.143Z" fill="#CCCCCC"/>
<path d="M97.2813 45.9895H97.9143L96.597 47.298C96.3669 47.5255 96.0568 47.6531 95.7338 47.6531C95.4107 47.6531 95.1006 47.5255 94.8704 47.298L93.5537 45.9895H94.1867L95.187 46.9835C95.3329 47.1277 95.5293 47.2085 95.7338 47.2085C95.9384 47.2085 96.135 47.1277 96.2807 46.9835L97.2813 45.9895ZM94.1785 49.6279H93.5455L94.8707 48.3114C95.1008 48.0837 95.4109 47.9561 95.7338 47.9561C96.057 47.9561 96.3671 48.0837 96.5973 48.3114L97.9225 49.6279H97.2895L96.2807 48.6257C96.135 48.4817 95.9384 48.4007 95.7338 48.4007C95.5293 48.4007 95.3329 48.4817 95.187 48.6257L94.1785 49.6279Z" fill="white"/>
<path d="M78.1904 22.9948H78.8234L77.5061 24.3031C77.2759 24.5308 76.9659 24.6584 76.6429 24.6584C76.3198 24.6584 76.0097 24.5308 75.7795 24.3031L74.4628 22.9948H75.0958L76.0961 23.9887C76.242 24.1329 76.4384 24.2137 76.6429 24.2137C76.8475 24.2137 77.0441 24.1329 77.1898 23.9887L78.1904 22.9948ZM75.0876 26.633H74.4546L75.7798 25.3166C76.01 25.0889 76.32 24.9613 76.6429 24.9613C76.9661 24.9613 77.2762 25.0889 77.5064 25.3166L78.8316 26.633H78.1986L77.1898 25.631C77.0441 25.4868 76.8475 25.406 76.6429 25.406C76.4384 25.406 76.242 25.4868 76.0961 25.631L75.0876 26.633Z" fill="white"/>
<path d="M17.6559 45.989C17.6559 45.989 17.5866 50.3095 18.3498 51.7311C19.113 53.1527 19.44 59.3369 19.44 59.3369C19.44 59.3369 27.4407 60.1674 33.0158 58.3421C38.5912 56.5165 50.4543 55.77 50.4543 55.77L48.4552 42.246C48.4552 42.246 38.5786 41.6104 32.9605 44.2999C27.342 46.9892 17.6559 45.989 17.6559 45.989Z" fill="#C52939"/>
<path opacity="0.2" d="M17.6559 45.989C17.6559 45.989 17.5866 50.3095 18.3498 51.7311C19.113 53.1527 19.44 59.3369 19.44 59.3369C19.44 59.3369 27.4407 60.1674 33.0158 58.3421C38.5912 56.5165 50.4543 55.77 50.4543 55.77L48.4552 42.246C48.4552 42.246 38.5786 41.6104 32.9605 44.2999C27.342 46.9892 17.6559 45.989 17.6559 45.989Z" fill="#111111"/>
<path d="M19.4267 47.5675C19.4267 47.5675 19.1765 51.1322 19.8044 52.2713C20.4323 53.4103 20.4615 58.4952 20.4615 58.4952C20.4615 58.4952 27.6617 58.8305 32.7835 57.0807C37.9053 55.3307 48.6682 54.1957 48.6682 54.1957L47.4453 43.1361C47.4453 43.1361 38.5397 43.0441 33.342 45.5073C28.1444 47.9702 19.4267 47.5675 19.4267 47.5675Z" fill="#C52939"/>
<path opacity="0.1" d="M33.2632 55.056C34.2875 54.9279 34.8963 53.0363 34.6227 50.831C34.3489 48.6254 33.2964 46.9416 32.2721 47.0697C31.2474 47.1978 30.639 49.0894 30.9125 51.2947C31.1863 53.5 32.2385 55.1839 33.2632 55.056Z" fill="#111111"/>
<path opacity="0.2" d="M43.0407 35.6577C43.0407 35.6577 33.4459 38.0949 28.9214 42.385C24.3966 46.6752 14.8716 48.7064 14.8716 48.7064C14.8716 48.7064 16.1264 52.8395 17.2871 53.9574C18.4477 55.0757 20.6491 60.8616 20.6491 60.8616C20.6491 60.8616 28.5175 59.1871 33.2651 55.7313C38.0127 52.2753 49.0773 47.9106 49.0773 47.9106L43.0407 35.6577Z" fill="#111111"/>
<path d="M14.7273 48.0881C14.7273 48.0881 15.9816 52.2214 17.1413 53.3397C18.3009 54.4577 20.5032 60.243 20.5032 60.243C20.5032 60.243 28.3727 58.5693 33.1206 55.1133C37.8687 51.6572 48.9325 47.2942 48.9325 47.2942L42.8959 35.0397C42.8959 35.0397 33.3017 37.4768 28.7768 41.767C24.2523 46.0572 14.7273 48.0881 14.7273 48.0881Z" fill="#C52939"/>
<path opacity="0.2" d="M14.7273 48.0881C14.7273 48.0881 15.9816 52.2214 17.1413 53.3397C18.3009 54.4577 20.5032 60.243 20.5032 60.243C20.5032 60.243 28.3727 58.5693 33.1206 55.1133C37.8687 51.6572 48.9325 47.2942 48.9325 47.2942L45.9142 41.167L42.8959 35.0397C42.8959 35.0397 33.3017 37.4768 28.7768 41.767C24.2523 46.0572 14.7273 48.0881 14.7273 48.0881Z" fill="#111111"/>
<path d="M16.8937 49.045C16.8937 49.045 17.7456 52.5153 18.6916 53.4058C19.6377 54.2961 21.2191 59.1258 21.2191 59.1258C21.2191 59.1258 28.1741 57.2268 32.5138 53.9837C36.8537 50.7406 46.7512 46.35 46.7512 46.35L42.2062 36.1973C42.2062 36.1973 33.7026 38.8518 29.5086 42.797C25.3145 46.7426 16.8937 49.045 16.8937 49.045Z" fill="#C52939"/>
<path opacity="0.2" d="M32.3534 51.9103C33.2891 51.4729 33.2902 49.4852 32.3556 47.4704C31.4207 45.4559 29.9043 44.1773 28.9683 44.6147C28.0326 45.0522 28.0315 47.0398 28.9664 49.0546C29.901 51.0691 31.4174 52.3478 32.3534 51.9103Z" fill="#111111"/>
</g>
<defs>
<clipPath id="clip0">
<rect width="150" height="95.8115" fill="white"/>
</clipPath>
</defs>
</svg>
