<svg width="150" height="96" viewBox="0 0 150 96" fill="none" xmlns="http://www.w3.org/2000/svg">
<g clip-path="url(#clip0)">
<path opacity="0.1" d="M127.931 32.6614C127.448 14.5504 110.345 0 89.3124 0C79.0251 0 69.6858 3.48258 62.7569 9.16465C48.3539 10.3255 36.2451 18.3293 30.817 29.3941C14.3285 33.199 2.18176 46.2219 2.18176 61.7089C2.18176 80.1908 19.4751 95.1597 40.8087 95.1597C47.0751 95.1535 53.2251 93.8545 58.6194 91.3976C63.6774 93.5901 69.3657 94.7752 75.1685 94.8455C80.9716 94.9155 86.7051 93.8687 91.8501 91.7993C97.1015 94.0936 103.033 95.3038 109.07 95.3125C130.404 95.3125 147.697 80.3435 147.697 61.8614C147.697 49.315 139.725 38.3878 127.931 32.6614Z" fill="#C52939"/>
<path d="M87.2455 84.2268C86.4398 83.0782 85.3495 82.2378 83.9785 81.9232C82.7831 81.649 81.5539 81.6959 80.3386 81.7054L64.9732 81.826C63.6573 81.8364 62.3956 82.997 62.4567 84.3883C62.5173 85.7676 63.5626 86.9617 64.9732 86.9506C69.4743 86.9152 73.9751 86.8798 78.4762 86.8446C79.5374 86.8362 80.5991 86.8169 81.6603 86.8204C81.8986 86.8212 82.1359 86.8338 82.374 86.8367C82.4316 86.8373 82.4733 86.8367 82.5027 86.8354C82.5101 86.8378 82.5161 86.84 82.5259 86.8425C82.65 86.8773 82.7774 86.9013 82.9023 86.9342C82.8586 86.9356 82.9833 87.0148 83.046 87.0415C83.0547 87.059 83.073 87.0895 83.1036 87.1368C83.1464 87.2185 83.2732 87.4666 83.2784 87.4587C83.4685 87.9486 83.6256 88.4513 83.748 88.963C84.0406 90.0915 84.1047 90.3274 84.147 91.3864C84.2002 92.7238 85.2663 94.0124 86.6635 93.9487C87.9813 93.8885 89.2369 92.8207 89.1799 91.3864C89.0839 88.969 88.6672 86.2537 87.2455 84.2268Z" fill="#E6E6E6"/>
<path d="M65.6752 90.0488C65.385 88.2812 65.1003 86.5127 64.8044 84.7462C64.5041 82.954 63.8908 81.313 62.5029 80.1369C62.132 79.8226 61.7474 79.5293 61.3615 79.2369C61.2257 79.1339 61.0901 79.031 60.956 78.9259C60.9478 78.9196 60.9426 78.9158 60.9358 78.9103C60.921 78.8975 60.9033 78.8823 60.8796 78.8621C60.3011 78.3703 59.742 77.8565 59.2097 77.3102C58.7368 76.8252 58.2846 76.3195 57.8531 75.7931C57.7451 75.6615 57.6388 75.5289 57.5338 75.3952C57.5158 75.3721 57.4184 75.2457 57.3543 75.1632C57.2946 75.0807 57.1855 74.9317 57.1672 74.9056C57.0445 74.7313 56.924 74.5551 56.8056 74.3776C55.9994 73.1641 55.3012 71.8812 54.7195 70.5444C54.6617 70.4117 54.6055 70.2783 54.5504 70.1443C54.5357 70.1035 54.5166 70.0506 54.4912 69.9806C54.374 69.6569 54.257 69.3331 54.1498 69.0052C53.922 68.3089 53.7262 67.6025 53.5623 66.8854C53.4813 66.5314 53.4082 66.1758 53.3433 65.8182C53.31 65.6341 53.2787 65.45 53.2495 65.2654C53.2449 65.2346 53.2162 65.0356 53.1996 64.9228C53.1873 64.8098 53.1641 64.6094 53.1611 64.5786C53.1426 64.3923 53.1262 64.2061 53.1118 64.0195C53.0793 63.5999 53.0575 63.1797 53.046 62.7587C53.0267 62.0103 53.04 61.262 53.0861 60.5139C53.1123 60.0935 53.1497 59.6744 53.1958 59.2558C53.1985 59.2299 53.2007 59.2095 53.2029 59.1913C53.2056 59.1725 53.2089 59.1512 53.2127 59.1248C53.2468 58.8936 53.2825 58.6627 53.3226 58.4323C53.4745 57.5582 53.672 56.6927 53.9141 55.8393C54.029 55.4357 54.1536 55.0354 54.288 54.6383C54.348 54.4621 54.4097 54.2865 54.4735 54.1117C54.4694 54.1228 54.6606 53.6321 54.663 53.6158C55.4218 51.8149 56.6624 50.1733 56.664 48.1277C56.6651 46.7426 55.499 45.4159 54.1329 45.4799C53.4516 45.5058 52.8071 45.7961 52.335 46.29C51.8627 46.784 51.5998 47.4428 51.6017 48.1277C51.6017 48.1587 51.6014 48.1854 51.6014 48.211C51.5886 48.2543 51.578 48.2902 51.5684 48.3221C51.4206 48.6451 51.2392 48.952 51.077 49.2668C50.6324 50.129 50.2528 51.0192 49.8922 51.9227C49.302 53.3938 48.8504 54.9175 48.543 56.4732C47.8749 59.8822 47.823 63.3842 48.3898 66.8116C49.3713 72.8221 52.6078 78.5754 57.1072 82.4429C57.4975 82.7784 57.8976 83.1027 58.3015 83.4205C58.4684 83.5521 58.637 83.6811 58.8063 83.8094C58.8862 83.8699 59.2179 84.1326 59.072 84.0055C59.3856 84.2743 59.5176 84.4096 59.598 84.6076C59.6098 84.6533 59.6259 84.7154 59.6474 84.8001C59.7041 85.0237 59.7579 85.2464 59.8029 85.473C60.1945 87.4523 60.4667 89.4644 60.7937 91.4565C61.0187 92.8251 62.6957 93.7159 63.9074 93.3058C65.318 92.8284 65.9163 91.5153 65.6752 90.0488Z" fill="#E6E6E6"/>
<path d="M87.7991 95.3125C86.7292 95.3152 85.7016 94.8917 84.9423 94.1347C84.1828 93.3776 83.7532 92.3491 83.748 91.2745V88.3555C80.705 88.6978 70.2846 88.6185 67.2977 88.1365V91.1577C67.2898 92.2314 66.8594 93.2583 66.1004 94.0149C65.3414 94.7714 64.3157 95.1956 63.2463 95.1956C62.1772 95.1956 61.1512 94.7714 60.3922 94.0149C59.6335 93.2583 59.2031 92.2314 59.195 91.1577V85.2257C55.1496 82.969 51.7771 79.6687 49.4253 75.6656C47.0739 71.6627 45.8286 67.1021 45.8182 62.4547C45.8182 54.4858 49.4144 47.0517 55.685 42.0589C59.762 38.802 64.7155 36.8429 69.9096 36.4341C70.6146 36.3786 71.3237 36.3503 72.0178 36.3503C74.4625 36.3503 85.4932 36.7296 88.2606 37.5291L94.5715 31.2407C94.6642 31.147 94.7826 31.0833 94.9116 31.0574C95.0406 31.0315 95.1745 31.0449 95.2959 31.0958C95.4183 31.1448 95.523 31.2295 95.5967 31.3393C95.67 31.4493 95.7088 31.5786 95.7074 31.711V32.7107L96.9363 31.4888C97.029 31.3948 97.1474 31.3308 97.2764 31.305C97.4051 31.2791 97.5391 31.2924 97.6604 31.3434C97.7829 31.3924 97.8879 31.4773 97.9612 31.5871C98.0349 31.6968 98.0736 31.8265 98.0725 31.9588V43.1319C101.239 45.9986 103.653 49.6058 105.099 53.6331C106.546 57.6608 106.98 61.9844 106.365 66.2212C105.75 70.458 104.103 74.4766 101.571 77.9215C99.0396 81.3663 95.7006 84.1307 91.8505 85.9699V91.2745C91.8453 92.3491 91.4158 93.3776 90.6562 94.1347C89.897 94.8917 88.8693 95.3152 87.7991 95.3125ZM84.0666 87.9927V91.2745C84.0745 92.2633 84.4713 93.2091 85.1706 93.9054C85.8696 94.6017 86.8146 94.9925 87.7991 94.9925C88.784 94.9925 89.729 94.6017 90.428 93.9054C91.1272 93.2091 91.524 92.2633 91.532 91.2745V85.7679L91.623 85.7246C95.943 83.6658 99.6104 80.4451 102.218 76.4199C105.541 71.2834 106.922 65.1221 106.113 59.051C105.304 52.9801 102.358 47.4005 97.8069 43.3222L97.754 43.2746V31.9588C97.755 31.8902 97.7351 31.8226 97.6969 31.7655C97.6588 31.7085 97.604 31.6647 97.5401 31.6396C97.4769 31.6124 97.4065 31.6051 97.3389 31.6187C97.2712 31.632 97.2093 31.6658 97.161 31.7153L95.3891 33.4778V31.711C95.3902 31.6421 95.3703 31.5748 95.3321 31.5176C95.294 31.4607 95.2391 31.4166 95.1753 31.3918C95.1118 31.3646 95.0414 31.3572 94.9738 31.3709C94.9059 31.3845 94.8437 31.4185 94.7954 31.4681L88.3498 37.8911L88.2581 37.8622C85.6852 37.0537 74.4811 36.6702 72.0178 36.6702C71.3321 36.6702 70.6312 36.698 69.9344 36.753C64.8039 37.1569 59.9103 39.092 55.883 42.3097C49.6891 47.2412 46.1368 54.5838 46.1368 62.4547C46.1474 67.061 47.3859 71.5808 49.7237 75.5438C52.0618 79.5069 55.4136 82.7693 59.4314 84.9918L59.5135 85.0375V91.1577C59.5217 92.1465 59.9188 93.092 60.6178 93.7883C61.3171 94.4846 62.2618 94.8751 63.2463 94.8751C64.2311 94.8751 65.1759 94.4846 65.8749 93.7883C66.5741 93.092 66.971 92.1465 66.9791 91.1577V87.7536L67.1679 87.7893C69.8521 88.2964 81.155 88.3764 83.8866 88.0164L84.0666 87.9927Z" fill="#111111"/>
<path d="M66.1052 18.8353L48.4802 24.2075C47.9198 24.379 47.4491 24.7692 47.172 25.2924C46.8949 25.8156 46.8341 26.4289 47.0026 26.9977C47.1712 27.5665 47.5552 28.0442 48.0709 28.3258C48.5863 28.6074 49.191 28.67 49.752 28.4998L65.1755 23.7974L65.4987 23.6989C65.5641 22.0102 66.0158 20.3601 66.8181 18.8789C66.7175 18.8329 66.6098 18.8046 66.4999 18.795C66.3671 18.7819 66.2329 18.7956 66.1052 18.8353Z" fill="#C52939"/>
<path d="M49.4035 29.683C49.1686 29.6825 48.9401 29.6082 48.75 29.4704C48.5599 29.3328 48.4178 29.139 48.3439 28.9159L47.2386 25.5774C47.1925 25.438 47.1742 25.2908 47.1848 25.1444C47.1955 24.9978 47.2347 24.8549 47.3007 24.7236C47.3665 24.5924 47.4576 24.4754 47.5686 24.3794C47.6796 24.2834 47.8086 24.2102 47.9476 24.164L62.334 19.3916C62.4734 19.3454 62.6204 19.3271 62.7666 19.3378C62.913 19.3485 63.0556 19.3878 63.1868 19.4537C63.318 19.5196 63.4347 19.6108 63.5307 19.7219C63.6267 19.833 63.6998 19.9619 63.7462 20.1013L64.8513 23.4399C64.9432 23.7144 64.9249 24.0141 64.8 24.2753C64.6751 24.5365 64.4534 24.7388 64.182 24.8393C64.1689 24.8443 64.1553 24.849 64.1419 24.8535L49.7558 29.6256C49.6421 29.6634 49.5232 29.683 49.4035 29.683Z" fill="#111111"/>
<path d="M76.3636 13.0714C73.4577 13.0725 70.6663 14.2026 68.5802 16.2225C66.4941 18.2424 65.2769 20.9935 65.1864 23.8937C65.1834 24.0069 65.1818 24.1217 65.1818 24.2366C65.1818 26.4448 65.8377 28.6035 67.0663 30.4395C68.2949 32.2758 70.0412 33.7068 72.0845 34.5518C74.1278 35.3969 76.3759 35.618 78.5451 35.1872C80.7141 34.7564 82.7064 33.6929 84.2702 32.1315C85.834 30.57 86.899 28.5807 87.3305 26.4148C87.762 24.249 87.5405 22.004 86.6942 19.9639C85.848 17.9237 84.4148 16.1799 82.5758 14.9531C80.737 13.7262 78.5751 13.0714 76.3636 13.0714ZM76.3636 35.0829C73.4836 35.0799 70.7225 33.9361 68.686 31.9027C66.6496 29.8693 65.5041 27.1122 65.5011 24.2366C65.5011 24.0883 65.5044 23.9415 65.5109 23.7964C65.5974 21.6718 66.3073 19.6194 67.5526 17.8945C68.7979 16.1696 70.5237 14.8483 72.5149 14.0948C74.5063 13.3413 76.6756 13.189 78.7529 13.6566C80.8303 14.1243 82.7241 15.1914 84.199 16.7252C85.674 18.259 86.6648 20.1919 87.0482 22.2835C87.432 24.3751 87.1911 26.5331 86.3563 28.4892C85.5212 30.4452 84.129 32.1132 82.3524 33.2856C80.5756 34.4579 78.493 35.0829 76.3636 35.0829Z" fill="#111111"/>
<path d="M85.6364 24.1004C85.6364 26.5921 84.6451 28.9818 82.8805 30.7437C81.116 32.5056 78.7228 33.4955 76.2273 33.4955C73.7319 33.4955 71.3387 32.5056 69.5741 30.7437C67.8096 28.9818 66.8182 26.5921 66.8182 24.1004C66.8182 23.8026 66.8327 23.5096 66.8597 23.2198C67.0863 20.815 68.2321 18.5898 70.0585 17.0062C71.8852 15.4226 74.2525 14.6024 76.6689 14.7157C79.0852 14.829 81.365 15.8672 83.0349 17.6148C84.7048 19.3624 85.6364 21.685 85.6364 24.1004Z" fill="#E6E6E6"/>
<path d="M79.0099 24.9992C78.7833 24.6987 78.4855 24.4607 78.1435 24.3072C77.7218 24.1279 77.2866 23.9836 76.8415 23.8757V21.309C77.5255 21.413 78.1669 21.7081 78.693 22.1608L79.2096 21.05C78.9126 20.7831 78.5717 20.5705 78.2021 20.4219C77.7925 20.2546 77.3627 20.1434 76.9238 20.0911V18.7902H75.7282V20.1039C75.2665 20.1562 74.8208 20.3072 74.4213 20.5466C74.0605 20.7621 73.7567 21.0627 73.536 21.4224C73.3252 21.7735 73.2161 22.1771 73.2208 22.5875C73.2003 23.0323 73.3279 23.4712 73.5835 23.8342C73.8188 24.1484 74.1295 24.397 74.4862 24.5565C74.9147 24.7411 75.3576 24.8892 75.8106 24.9992V27.459C75.0036 27.3974 74.2345 27.0879 73.6072 26.5719L73.0909 27.6842C73.4417 27.9769 73.8404 28.2051 74.2694 28.3587C74.7393 28.5284 75.2302 28.6316 75.7282 28.6656V29.9553H76.9238V28.6417C77.5882 28.5684 78.2111 28.2803 78.6996 27.8201C78.9145 27.612 79.0844 27.3609 79.1984 27.0831C79.3124 26.8053 79.368 26.5066 79.3615 26.2059C79.3814 25.7753 79.2576 25.3504 79.0099 24.9992ZM75.8106 23.604C75.5193 23.5149 75.2485 23.3682 75.0137 23.1725C74.9207 23.089 74.8473 22.9858 74.7985 22.8704C74.7499 22.7548 74.727 22.6299 74.7319 22.5044C74.7232 22.2198 74.8268 21.9433 75.0202 21.7357C75.2343 21.5179 75.5106 21.3731 75.8106 21.3217V23.604ZM77.5923 27.005C77.3902 27.2141 77.1273 27.3525 76.8415 27.3999V25.2837C77.1145 25.3577 77.37 25.4865 77.5923 25.6625C77.6766 25.7352 77.7437 25.8261 77.7884 25.9284C77.8331 26.0308 77.8544 26.142 77.8506 26.2539C77.8615 26.5281 77.7693 26.7965 77.5923 27.005Z" fill="#C52939"/>
<path d="M49.981 43.2992C49.7361 43.2986 49.498 43.2145 49.3039 43.0598C49.1094 42.9048 48.97 42.6878 48.907 42.4424L48.3092 40.0991C48.2345 39.8045 48.2754 39.491 48.4232 39.228C48.5713 38.9646 48.8138 38.7729 49.0979 38.6947L67.9559 33.5329C68.2407 33.4561 68.5428 33.4989 68.797 33.6524C69.0512 33.8058 69.2361 34.0574 69.3117 34.3518L69.8181 36.3373L69.7232 36.3449C64.8867 36.7343 60.2593 38.5507 56.3879 41.5789L56.3607 41.5928L50.2628 43.2613C50.1709 43.2864 50.0762 43.2992 49.981 43.2992Z" fill="#111111"/>
<path d="M46.635 54.5441C44.4093 54.213 42.2804 53.4023 40.3937 52.1676C39.459 51.5565 38.5939 50.8438 37.8134 50.0424C37.0432 49.2513 36.3066 48.3521 35.925 47.2985C35.5579 46.3238 35.5767 45.2443 35.9779 44.283C36.3734 43.328 37.1288 42.5696 38.0787 42.1745C39.0341 41.7908 40.1886 41.7496 41.1186 42.1698C41.5617 42.3656 41.9452 42.6764 42.2297 43.0704C42.3619 43.2523 42.4598 43.4568 42.5185 43.6744C42.573 43.8713 42.5779 44.0788 42.5329 44.2781C42.4784 44.4772 42.3821 44.6624 42.2509 44.8209C42.1195 44.9794 41.9561 45.1079 41.7712 45.1978C41.3648 45.4077 40.9244 45.5428 40.4708 45.597C40.0146 45.6596 39.3589 45.7168 38.9921 45.3478C38.9168 45.2748 38.8574 45.1869 38.8178 45.0891C38.7903 45.0142 38.781 44.9342 38.7903 44.8549C38.7851 44.8898 38.8127 44.7789 38.811 44.7833C38.8053 44.7996 38.7802 44.8397 38.8157 44.7784C38.8268 44.7583 38.8394 44.7386 38.853 44.7201C38.8407 44.7359 38.8143 44.7621 38.8617 44.7169C38.901 44.6736 38.9515 44.6422 39.0077 44.6262C39.0297 44.6199 39.0521 44.6147 39.0742 44.6085C39.1307 44.5932 39.018 44.6093 39.0758 44.6077C39.0979 44.6068 39.1206 44.6074 39.1427 44.6063C39.1991 44.6038 39.0867 44.5908 39.141 44.6047C39.162 44.6098 39.1827 44.615 39.2035 44.6215C39.2485 44.636 39.1716 44.5883 39.2021 44.624C39.2378 44.6657 39.1647 44.5834 39.2051 44.6237C39.2256 44.6439 39.2444 44.6648 39.2624 44.6872C39.3327 44.7572 39.4277 44.7964 39.5267 44.7964C39.6257 44.7964 39.7208 44.7572 39.7912 44.6872C39.8591 44.6156 39.8973 44.52 39.8973 44.4208C39.8973 44.3217 39.8591 44.2264 39.7912 44.1545C39.4225 43.6943 38.694 43.8078 38.3209 44.197C37.8453 44.6932 38.0337 45.4796 38.4963 45.9126C39.0202 46.4025 39.7623 46.4368 40.4362 46.3546C41.0057 46.2996 41.5607 46.1416 42.0745 45.8884C42.585 45.6357 42.9843 45.2013 43.1948 44.6692C43.29 44.3852 43.3241 44.0843 43.2952 43.7861C43.266 43.4876 43.1744 43.1989 43.0263 42.9391C42.4315 41.8128 41.1996 41.2352 39.9818 41.1353C39.3548 41.0857 38.7243 41.162 38.127 41.3594C37.5295 41.5571 36.9769 41.8719 36.501 42.2858C35.5838 43.1175 35.019 44.2722 34.9236 45.5112C34.8172 46.7958 35.3122 48.0433 36.0338 49.08C36.789 50.1333 37.6907 51.0723 38.7107 51.868C40.7046 53.4712 43.0437 54.582 45.5406 55.1116C45.8376 55.1735 46.1362 55.2263 46.4362 55.2704C46.5317 55.2935 46.6326 55.2794 46.7179 55.2306C46.8036 55.1816 46.8671 55.1018 46.8963 55.0073C46.9219 54.9109 46.9088 54.8085 46.86 54.7217C46.8112 54.6351 46.7302 54.5713 46.635 54.5441Z" fill="#111111"/>
<path d="M82.2644 38.1383C78.9807 38.0885 75.7072 38.1784 72.444 38.4077C71.3286 38.4864 70.3636 38.9109 70.3636 39.6249C70.3636 40.2219 71.3209 40.9212 72.444 40.8419C75.7056 40.6127 78.9791 40.5228 82.2644 40.5726C84.9428 40.6135 84.9415 38.1792 82.2644 38.1383Z" fill="#CCCCCC"/>
<path d="M77.5909 40.3036C77.2402 40.3036 69 40.2897 69 39.0781C69 37.8665 77.2402 37.8527 77.5909 37.8527C77.9416 37.8527 86.1818 37.8665 86.1818 39.0781C86.1818 40.2897 77.9416 40.3036 77.5909 40.3036ZM69.3221 39.0781C69.5476 39.4455 72.5765 39.9656 77.5909 39.9656C82.6053 39.9656 85.6342 39.4455 85.8597 39.0781C85.6342 38.7107 82.6053 38.1906 77.5909 38.1906C72.5765 38.1906 69.5476 38.7107 69.3221 39.0781Z" fill="#111111"/>
<path d="M103.939 70.2589C105.696 70.2083 107.884 70.1448 109.569 68.8671C110.071 68.4709 110.483 67.9657 110.777 67.3868C111.071 66.8078 111.239 66.1692 111.271 65.5156C111.305 64.5064 110.954 63.6254 110.281 63.0356C109.401 62.2636 108.116 62.0825 106.731 62.5051L108.166 51.6185L107.112 51.4688L105.425 64.2673L106.305 63.8482C107.325 63.3627 108.725 63.1154 109.595 63.8787C109.808 64.0783 109.975 64.3261 110.081 64.6034C110.188 64.8806 110.231 65.1793 110.208 65.4767C110.182 65.9631 110.056 66.4383 109.837 66.8693C109.619 67.3007 109.313 67.6779 108.942 67.9755C107.63 68.97 105.887 69.0983 103.909 69.1558L103.939 70.2589Z" fill="#111111"/>
<path d="M100.636 52.8303H94.9091V53.6473H100.636V52.8303Z" fill="#111111"/>
<path d="M52.4677 48.4733C52.204 48.4725 51.9493 48.3766 51.7488 48.2031C51.5486 48.0294 51.4161 47.7895 51.3749 47.5259L51.013 45.1913C50.968 44.8977 51.0397 44.5979 51.2129 44.3577C51.3861 44.1175 51.6463 43.9568 51.9365 43.9105L71.1768 40.8616C71.4673 40.8159 71.7635 40.8886 72.001 41.0637C72.2383 41.2388 72.3973 41.5019 72.4431 41.7954L72.805 44.13C72.85 44.4236 72.7783 44.7234 72.6051 44.9636C72.4322 45.2038 72.1717 45.3645 71.8816 45.4108L52.6412 48.4597C52.5839 48.4687 52.5258 48.4733 52.4677 48.4733Z" fill="#111111"/>
<path d="M44.7272 20.9688C49.246 20.9688 52.909 17.3111 52.909 12.7992C52.909 8.2872 49.246 4.62952 44.7272 4.62952C40.2084 4.62952 36.5454 8.2872 36.5454 12.7992C36.5454 17.3111 40.2084 20.9688 44.7272 20.9688Z" fill="#C52939"/>
<path d="M49.3137 15.018C49.593 14.9238 49.8477 14.7729 50.0615 14.5755C50.2028 14.4348 50.3105 14.2659 50.3773 14.0808C50.4439 13.8956 50.4679 13.6986 50.4474 13.5035C50.4354 13.3645 50.3907 13.23 50.316 13.1106C50.2413 12.9911 50.1393 12.89 50.0173 12.815C49.7013 12.6273 49.2837 12.6344 48.8623 12.8231L48.8135 9.53125L48.4712 9.53596L48.5285 13.4059L48.789 13.2408C49.0912 13.0497 49.5256 12.9111 49.8379 13.0967C49.9153 13.1458 49.9797 13.2115 50.0263 13.2886C50.0733 13.3658 50.1008 13.4523 50.1073 13.5414C50.1215 13.6867 50.1035 13.8333 50.0539 13.9713C50.0045 14.1092 49.9246 14.2352 49.8202 14.3407C49.449 14.6964 48.8997 14.8155 48.2727 14.9245L48.3333 15.25C48.6668 15.2011 48.9949 15.1235 49.3137 15.018Z" fill="#111111"/>
<path d="M51.9853 9.49194L50.2898 9.74937L50.3375 10.0649L52.0331 9.80751L51.9853 9.49194Z" fill="#111111"/>
<path d="M46.6337 10.3041L44.9381 10.5615L44.9858 10.8771L46.6814 10.6196L46.6337 10.3041Z" fill="#111111"/>
<path d="M50.0043 48.2009C49.71 48.2003 49.4231 48.1107 49.1815 47.9443C48.9401 47.7777 48.7552 47.5421 48.6519 47.269L43.014 32.2788C42.3249 30.4403 42.3985 28.4056 43.2186 26.621C44.0387 24.8364 45.5384 23.4476 47.3886 22.7594L51.9729 21.0599C52.1501 20.9938 52.3389 20.9631 52.5281 20.9696C52.7174 20.9761 52.9034 21.0197 53.0755 21.098C53.2473 21.1742 53.4022 21.2836 53.531 21.4199C53.6597 21.5561 53.7598 21.7165 53.8252 21.8916L64.2691 41.4685C64.3367 41.645 64.3689 41.8332 64.3631 42.0219C64.3574 42.2109 64.3141 42.3966 64.2358 42.5687C64.1575 42.7411 64.0457 42.8961 63.9066 43.0251C63.7678 43.1542 63.6044 43.2547 63.4261 43.3211L50.5086 48.1099C50.3471 48.1698 50.1764 48.2006 50.0043 48.2009Z" fill="#111111"/>
<path d="M50.4546 21.399L60.8182 35.1294L53.8056 21.5431C53.7478 21.3846 53.6589 21.2389 53.544 21.1144C53.4292 20.9899 53.291 20.889 53.1369 20.8175C52.9828 20.7461 52.8159 20.7053 52.646 20.6977C52.476 20.6901 52.3061 20.7157 52.146 20.7732L50.4546 21.399Z" fill="#E6E6E6"/>
<path d="M66.6652 32.1318L48.4173 30.8658C48.1299 30.8459 47.8487 30.765 47.5899 30.6281C47.3313 30.4911 47.1003 30.3005 46.91 30.0674C46.7196 29.8343 46.574 29.563 46.481 29.2692C46.388 28.9753 46.3498 28.6646 46.3683 28.3547C46.3869 28.0451 46.4619 27.7423 46.589 27.4637C46.7161 27.1851 46.8931 26.9363 47.1096 26.7313C47.3259 26.5264 47.5779 26.3694 47.8506 26.2692C48.1236 26.1691 48.4119 26.1279 48.6996 26.1478L66.9472 27.4136C67.082 27.4231 67.2137 27.461 67.3348 27.525C67.4559 27.5892 67.5641 27.6783 67.6533 27.7875C67.7425 27.8967 67.8107 28.0239 67.8543 28.1614C67.8977 28.2989 67.9157 28.4446 67.907 28.5895L67.757 31.0981C67.7395 31.3911 67.6146 31.6645 67.4098 31.8584C67.205 32.0523 66.9371 32.1506 66.6652 32.1318Z" fill="#C52939"/>
<path d="M61.911 32.6785C61.8867 32.6785 61.8627 32.6777 61.8385 32.6763L46.854 31.7213C46.7089 31.7123 46.5671 31.6747 46.4367 31.6113C46.3061 31.5478 46.1896 31.4596 46.0936 31.3518C45.9976 31.2436 45.9243 31.1181 45.8774 30.9819C45.8305 30.8458 45.8111 30.7017 45.8204 30.5582L46.0767 26.6227C46.086 26.4792 46.1239 26.339 46.188 26.2099C46.2521 26.0809 46.3416 25.9656 46.4506 25.8707C46.5597 25.7757 46.6868 25.703 46.8246 25.6566C46.962 25.6103 47.1076 25.5912 47.2527 25.6004L62.2369 26.5551C62.5298 26.5741 62.8031 26.7072 62.997 26.9253C63.1906 27.1433 63.2891 27.4284 63.2706 27.7182L63.0142 31.6538C63.0003 31.8648 62.9247 32.0671 62.7974 32.2368C62.6697 32.4062 62.4955 32.5358 62.2953 32.6099C62.1726 32.6554 62.0422 32.6785 61.911 32.6785Z" fill="#111111"/>
<path d="M44.3594 7.5424C45.4287 6.61523 46.8976 7.44464 48.1241 7.29947C49.2976 7.16053 50.2241 6.09956 50.4608 4.97243C50.7371 3.65741 50.0599 2.33997 49.0617 1.52009C47.9686 0.622116 46.5188 0.364328 45.1448 0.53046C43.5701 0.720865 42.1301 1.46069 40.8379 2.35555C39.5907 3.19256 38.4436 4.17221 37.4198 5.27497C36.5032 6.29555 35.7265 7.51207 35.4783 8.88541C35.253 10.1335 35.4251 11.5166 36.1571 12.5738C36.5452 13.1158 37.0653 13.5477 37.6672 13.828C38.295 14.1387 38.9645 14.3608 39.5727 14.712C40.4921 15.2431 41.3858 16.3443 41.0978 17.4903C41.0359 17.7407 40.914 17.9719 40.7427 18.1636C40.5371 18.3938 40.1659 18.0896 40.3724 17.8588C40.7345 17.4534 40.7204 16.9127 40.5273 16.4287C40.2976 15.8833 39.891 15.4326 39.3742 15.1506C38.7376 14.7838 38.0348 14.5573 37.3825 14.2232C36.7579 13.918 36.216 13.4652 35.8023 12.9034C35.0215 11.8097 34.788 10.3862 34.965 9.06942C35.1567 7.64444 35.883 6.34955 36.7936 5.26444C37.7845 4.08351 39.0019 3.0839 40.2453 2.1859C41.5797 1.22233 43.0538 0.407692 44.685 0.113051C46.0991 -0.142356 47.6318 0.0148889 48.8684 0.791592C50.0225 1.5166 50.9075 2.76374 50.9956 4.15731C51.0273 4.79139 50.8906 5.42249 50.5999 5.98568C50.3092 6.54887 49.8747 7.0238 49.3415 7.36161C48.7942 7.69166 48.1579 7.84024 47.5225 7.78632C46.8431 7.74251 46.1632 7.53282 45.4795 7.59104C45.1702 7.60997 44.8754 7.73003 44.6397 7.93305C44.406 8.1356 44.1275 7.74332 44.3594 7.5424Z" fill="#111111"/>
<path d="M137.81 95.3125H20.3706C20.3205 95.3125 20.2724 95.2981 20.237 95.2725C20.2016 95.2469 20.1818 95.2123 20.1818 95.1763C20.1818 95.1404 20.2016 95.1058 20.237 95.0802C20.2724 95.0546 20.3205 95.0402 20.3706 95.0402H137.81C137.861 95.0402 137.909 95.0546 137.945 95.0799C137.98 95.1055 138 95.1401 138 95.1763C138 95.2125 137.98 95.2471 137.945 95.2727C137.909 95.2981 137.861 95.3125 137.81 95.3125Z" fill="#111111"/>
</g>
<defs>
<clipPath id="clip0">
<rect width="150" height="95.3125" fill="white"/>
</clipPath>
</defs>
</svg>
