<svg width="150" height="96" viewBox="0 0 150 96" fill="none" xmlns="http://www.w3.org/2000/svg">
<g clip-path="url(#clip0)">
<path opacity="0.1" d="M127.931 32.8324C127.448 14.6266 110.345 0 89.3125 0C79.0252 0 69.6859 3.50082 62.757 9.21263C48.354 10.3796 36.2452 18.4253 30.8171 29.548C14.3286 33.3728 2.18182 46.4639 2.18182 62.0319C2.18182 80.6106 19.4751 95.6579 40.8087 95.6579C47.0752 95.6516 53.2252 94.3459 58.6195 91.8761C63.6775 94.0801 69.3657 95.2714 75.1686 95.342C80.9716 95.4124 86.7052 94.3601 91.8502 92.2799C97.1016 94.5862 103.033 95.8027 109.07 95.8115C130.404 95.8115 147.697 80.7642 147.697 62.1852C147.697 49.5731 139.725 38.5888 127.931 32.8324Z" fill="#C52939"/>
<path d="M61.0217 13.5679L56.2768 47.935L116.525 56.3158L121.27 21.9486L61.0217 13.5679Z" fill="url(#paint0_linear)"/>
<path d="M120.648 22.3403L61.3094 14.0862L56.694 47.5151L116.033 55.7691L120.648 22.3403Z" fill="white"/>
<g opacity="0.3">
<path opacity="0.3" d="M119.193 23.5721L62.4003 15.6721L58.1897 46.1681L114.982 54.0679L119.193 23.5721Z" fill="#999999"/>
<g opacity="0.3">
<g opacity="0.3">
<path opacity="0.3" d="M58.7765 15.169L81.8277 53.5231L95.8503 55.4738L120.333 41.1869L101.006 15.5446L66.7527 51.4251L47.1685 44.0388L82.1599 13.1624L110.691 57.5381" fill="#999999"/>
<path opacity="0.3" d="M58.7765 15.169L81.8277 53.5231L95.8503 55.4738L120.333 41.1869L101.006 15.5446L66.7527 51.4251L47.1685 44.0388L82.1599 13.1624L110.691 57.5381" stroke="white" stroke-width="5" stroke-miterlimit="10"/>
</g>
</g>
</g>
<path d="M85.0312 18.7842C84.6262 21.7402 78.618 27.9223 78.618 27.9223C78.618 27.9223 74.0752 20.2602 74.4802 17.3042C74.5688 16.5969 74.7955 15.9144 75.1465 15.2962C75.4978 14.6781 75.9666 14.1366 76.5259 13.7031C77.0853 13.2696 77.724 12.9527 78.4053 12.7708C79.0866 12.5889 79.7968 12.5455 80.4947 12.6433C81.1926 12.7411 81.8643 12.978 82.4711 13.3403C83.0779 13.7026 83.6076 14.1832 84.0295 14.7541C84.4517 15.3251 84.7577 15.9751 84.9295 16.6665C85.1016 17.358 85.1365 18.0771 85.032 18.7822L85.0312 18.7842Z" fill="url(#paint1_linear)"/>
<path d="M84.7713 18.8542C84.3867 21.6101 78.6813 27.3747 78.6813 27.3747C78.6813 27.3747 74.367 20.2312 74.7516 17.4752C74.9356 16.1551 75.6401 14.9617 76.7097 14.1575C77.7794 13.3534 79.1266 13.0045 80.4554 13.1875C81.7838 13.3705 82.9849 14.0704 83.7941 15.1333C84.6033 16.1962 84.9546 17.535 84.7702 18.8552L84.7713 18.8542Z" fill="#999999"/>
<path d="M82.2808 18.1031C82.4714 16.7231 81.5139 15.4497 80.1423 15.2589C78.7708 15.0682 77.5042 16.0322 77.3138 17.4121C77.1232 18.7921 78.0808 20.0655 79.4523 20.2563C80.8239 20.447 82.0904 19.483 82.2808 18.1031Z" fill="white"/>
<path d="M28.9091 33.6709V36.1847V83.4929H100.636V36.1847V33.6709H28.9091Z" fill="url(#paint2_linear)"/>
<path d="M99.8182 36.6821H30V82.6717H99.8182V36.6821Z" fill="white"/>
<path d="M99.8182 34.4922H30V37.7772H99.8182V34.4922Z" fill="#F5F5F5"/>
<path d="M32.7273 36.9558C33.1792 36.9558 33.5455 36.5882 33.5455 36.1346C33.5455 35.681 33.1792 35.3134 32.7273 35.3134C32.2754 35.3134 31.9091 35.681 31.9091 36.1346C31.9091 36.5882 32.2754 36.9558 32.7273 36.9558Z" fill="#C52939"/>
<path d="M34.9091 36.9558C35.361 36.9558 35.7272 36.5882 35.7272 36.1346C35.7272 35.681 35.361 35.3134 34.9091 35.3134C34.4572 35.3134 34.0909 35.681 34.0909 36.1346C34.0909 36.5882 34.4572 36.9558 34.9091 36.9558Z" fill="#999999"/>
<path d="M37.0909 36.9558C37.5428 36.9558 37.9091 36.5882 37.9091 36.1346C37.9091 35.681 37.5428 35.3134 37.0909 35.3134C36.639 35.3134 36.2727 35.681 36.2727 36.1346C36.2727 36.5882 36.639 36.9558 37.0909 36.9558Z" fill="#999999"/>
<path opacity="0.5" d="M71.1818 49.0007H58.3636V50.3695H71.1818V49.0007Z" fill="#999999"/>
<path d="M63.2728 55.0232H49.0909V56.3919H63.2728V55.0232Z" fill="#E0E0E0"/>
<path d="M66.5454 56.3919H80.4545V55.0232H66.5454V56.3919Z" fill="#E0E0E0"/>
<path d="M80.4546 58.0344H49.0909V59.4031H80.4546V58.0344Z" fill="#E0E0E0"/>
<path d="M80.4546 60.7719H49.0909V62.1406H80.4546V60.7719Z" fill="#E0E0E0"/>
<path d="M71.1818 67.3418H58.0909V69.8055H71.1818V67.3418Z" fill="url(#paint3_linear)"/>
<path d="M71.1818 67.3418H58.3636V69.5318H71.1818V67.3418Z" fill="#999999"/>
</g>
<defs>
<linearGradient id="paint0_linear" x1="86.475" y1="52.1357" x2="91.2548" y2="17.7743" gradientUnits="userSpaceOnUse">
<stop stop-color="#808080" stop-opacity="0.25"/>
<stop offset="0.54" stop-color="#808080" stop-opacity="0.12"/>
<stop offset="1" stop-color="#808080" stop-opacity="0.1"/>
</linearGradient>
<linearGradient id="paint1_linear" x1="6196.04" y1="4559.23" x2="6527.59" y2="2195.29" gradientUnits="userSpaceOnUse">
<stop stop-color="#808080" stop-opacity="0.25"/>
<stop offset="0.54" stop-color="#808080" stop-opacity="0.12"/>
<stop offset="1" stop-color="#808080" stop-opacity="0.1"/>
</linearGradient>
<linearGradient id="paint2_linear" x1="26381.5" y1="36058" x2="26381.5" y2="10671.2" gradientUnits="userSpaceOnUse">
<stop stop-color="#808080" stop-opacity="0.25"/>
<stop offset="0.54" stop-color="#808080" stop-opacity="0.12"/>
<stop offset="1" stop-color="#808080" stop-opacity="0.1"/>
</linearGradient>
<linearGradient id="paint3_linear" x1="4864.28" y1="1503.05" x2="4864.28" y2="1438.67" gradientUnits="userSpaceOnUse">
<stop stop-color="#808080" stop-opacity="0.25"/>
<stop offset="0.54" stop-color="#808080" stop-opacity="0.12"/>
<stop offset="1" stop-color="#808080" stop-opacity="0.1"/>
</linearGradient>
<clipPath id="clip0">
<rect width="150" height="95.8115" fill="white"/>
</clipPath>
</defs>
</svg>
