<svg width="150" height="114" viewBox="0 0 150 114" fill="none" xmlns="http://www.w3.org/2000/svg">
<path opacity="0.1" d="M129.268 63.5353C124.934 69.415 126.365 77.8081 128.87 84.4944C129.709 86.7329 130.662 89.1002 130.227 91.5355C129.696 94.5126 127.198 96.7434 124.602 97.9584C119.87 100.173 114.28 99.8191 110.046 97.0291C106.393 94.6211 103.822 90.6194 100.097 88.3263C93.8648 84.4901 85.7738 86.2042 78.837 89.133C73.9298 91.2051 68.5541 93.8736 63.7718 91.9602C60.4064 90.6139 58.1403 87.187 56.9482 83.5236C56.3725 81.7549 55.9694 79.8351 54.8226 78.4504C54.1407 77.6273 53.2396 77.0538 52.3129 76.5743C43.8565 72.1963 32.979 74.9325 24.7803 70.0477C19.2452 66.7489 15.8002 60.3468 14.3688 53.6165C12.9374 46.8861 13.2917 39.7817 13.8618 32.7985C14.267 27.8358 14.9079 22.5329 17.9257 18.6331C21.1172 14.51 26.4663 12.8715 31.2496 13.5172C36.0333 14.163 40.3216 16.7899 44.0736 19.9257C48.7661 23.8376 53.0834 28.7487 58.9197 30.234C62.895 31.2455 67.1182 30.5295 71.2508 30.2132C78.1585 29.6856 85.0421 30.2933 91.8835 30.9795C98.4325 31.6363 105.027 32.3695 111.23 34.5224C115.619 36.046 119.098 38.9259 123.231 40.8937C125.924 42.1766 128.888 42.4743 131.423 44.1313C134.551 46.1726 137.378 49.789 136.461 54.1288C135.594 58.2542 131.571 60.4148 129.268 63.5353Z" fill="#C52939"/>
<g opacity="0.5">
<path opacity="0.5" d="M108.01 90.2366C108.01 90.2366 108.375 79.5526 114.231 73.5156C116.688 70.9822 118.302 67.7648 118.73 64.2828C118.929 62.6304 118.976 60.9635 118.867 59.3026" stroke="#535461" stroke-width="2" stroke-miterlimit="10"/>
<path opacity="0.5" d="M122.535 55.4784C122.134 56.672 118.784 59.4129 118.784 59.4129C118.784 59.4129 117.758 55.237 118.159 54.0447C118.254 53.761 118.405 53.4986 118.603 53.2725C118.801 53.0464 119.042 52.8612 119.313 52.7271C119.583 52.593 119.878 52.5128 120.18 52.4912C120.482 52.4696 120.785 52.5068 121.073 52.601C121.36 52.6949 121.626 52.844 121.855 53.0395C122.084 53.2351 122.271 53.4732 122.407 53.7403C122.543 54.0073 122.624 54.2982 122.646 54.5964C122.668 54.8943 122.63 55.1939 122.535 55.4773V55.4784Z" fill="#C52939"/>
<path opacity="0.5" d="M123.93 63.2705C122.934 64.0575 118.617 64.5625 118.617 64.5625C118.617 64.5625 120.056 60.5067 121.052 59.721C121.286 59.5195 121.56 59.3671 121.855 59.2726C122.151 59.1782 122.463 59.1435 122.772 59.1711C123.082 59.1986 123.382 59.2874 123.656 59.4327C123.929 59.5777 124.171 59.7759 124.365 60.0154C124.559 60.2546 124.702 60.5304 124.785 60.8259C124.869 61.1214 124.891 61.4302 124.851 61.7345C124.81 62.0384 124.708 62.3314 124.55 62.5952C124.391 62.8593 124.181 63.0889 123.93 63.2705Z" fill="#C52939"/>
<path opacity="0.5" d="M119.981 74.5101C118.721 74.6936 114.733 72.98 114.733 72.98C114.733 72.98 118.047 70.1954 119.307 70.0119C119.606 69.9682 119.912 69.983 120.205 70.0559C120.499 70.1285 120.775 70.2577 121.018 70.436C121.261 70.6141 121.466 70.8377 121.622 71.0942C121.777 71.3506 121.88 71.6348 121.924 71.9303C121.969 72.2261 121.954 72.5273 121.88 72.8173C121.806 73.107 121.675 73.3798 121.495 73.6199C121.314 73.8596 121.088 74.0623 120.828 74.2157C120.568 74.3692 120.28 74.4708 119.981 74.5145V74.5101Z" fill="#C52939"/>
<path opacity="0.5" d="M115.051 82.3503C113.841 82.7416 109.615 81.7143 109.615 81.7143C109.615 81.7143 112.406 78.4171 113.616 78.0258C114.197 77.8374 114.83 77.8846 115.376 78.1569C115.921 78.4291 116.335 78.9043 116.526 79.4778C116.717 80.0512 116.669 80.676 116.393 81.2148C116.117 81.7533 115.636 82.1619 115.055 82.3503H115.051Z" fill="#C52939"/>
<path opacity="0.5" d="M113.944 63.2893C114.532 64.404 118.285 66.5865 118.285 66.5865C118.285 66.5865 118.626 62.3035 118.038 61.1877C117.898 60.9225 117.707 60.6872 117.475 60.4952C117.244 60.3029 116.975 60.1579 116.687 60.0678C116.398 59.978 116.095 59.9452 115.793 59.9711C115.491 59.9971 115.198 60.0815 114.929 60.2194C114.661 60.3573 114.423 60.546 114.228 60.7748C114.033 61.0037 113.886 61.2683 113.795 61.5531C113.704 61.8382 113.671 62.138 113.697 62.4357C113.724 62.7333 113.809 63.0231 113.949 63.2882L113.944 63.2893Z" fill="#C52939"/>
<path opacity="0.5" d="M108.296 72.5295C109.195 73.4203 113.433 74.3952 113.433 74.3952C113.433 74.3952 112.46 70.2072 111.562 69.3164C111.131 68.889 110.545 68.6482 109.934 68.6471C109.322 68.646 108.736 68.8847 108.303 69.3104C107.87 69.7364 107.625 70.3148 107.624 70.9183C107.623 71.5218 107.865 72.101 108.296 72.5284V72.5295Z" fill="#C52939"/>
<path opacity="0.5" d="M104.057 82.2553C104.789 83.2826 108.8 84.9514 108.8 84.9514C108.8 84.9514 108.559 80.6619 107.825 79.6335C107.655 79.3784 107.435 79.1599 107.178 78.9906C106.921 78.8213 106.632 78.7047 106.328 78.6479C106.025 78.5911 105.712 78.5952 105.41 78.6599C105.108 78.7247 104.822 78.8486 104.57 79.0248C104.317 79.2006 104.103 79.4248 103.94 79.6843C103.778 79.9434 103.669 80.2326 103.622 80.5341C103.574 80.8356 103.589 81.1433 103.664 81.4393C103.739 81.7351 103.874 82.0131 104.061 82.2564L104.057 82.2553Z" fill="#C52939"/>
<path opacity="0.5" d="M109.296 85.8152C109.296 85.8152 105.975 81.0458 106.557 76.5583C106.814 74.6779 106.446 72.7658 105.508 71.1093C105.056 70.3264 104.533 69.586 103.945 68.8973" stroke="#535461" stroke-width="2" stroke-miterlimit="10"/>
<path opacity="0.5" d="M104.296 66.0665C104.509 66.7135 103.945 68.9713 103.945 68.9713C103.945 68.9713 102.137 67.4783 101.923 66.8325C101.821 66.522 101.847 66.184 101.997 65.8926C102.146 65.6012 102.407 65.3806 102.722 65.279C103.037 65.1777 103.379 65.2036 103.674 65.3516C103.969 65.4993 104.193 65.7569 104.296 66.0676V66.0665Z" fill="#C52939"/>
<path opacity="0.5" d="M107.444 69.0159C107.267 69.6718 105.549 71.2663 105.549 71.2663C105.549 71.2663 104.854 69.0434 105.03 68.3853C105.115 68.0694 105.323 67.7996 105.61 67.6354C105.896 67.471 106.236 67.4257 106.556 67.5095C106.876 67.5931 107.15 67.7987 107.316 68.0814C107.482 68.3637 107.528 68.7002 107.444 69.0159Z" fill="#C52939"/>
<path opacity="0.5" d="M109.385 75.1642C108.897 75.644 106.6 76.1631 106.6 76.1631C106.6 76.1631 107.135 73.8977 107.625 73.4179C107.741 73.3037 107.879 73.2133 108.031 73.1519C108.182 73.0904 108.345 73.059 108.509 73.0596C108.673 73.0601 108.835 73.0926 108.986 73.1549C109.138 73.2174 109.275 73.3086 109.391 73.4233C109.506 73.5383 109.598 73.6743 109.66 73.8242C109.722 73.9738 109.754 74.1341 109.753 74.2961C109.753 74.458 109.72 74.618 109.657 74.7674C109.594 74.9168 109.501 75.0525 109.385 75.1664V75.1642Z" fill="#C52939"/>
<path opacity="0.5" d="M109.793 80.1449C109.394 80.699 107.214 81.5917 107.214 81.5917C107.214 81.5917 107.354 79.2694 107.754 78.7153C107.849 78.5834 107.969 78.4712 108.108 78.3852C108.247 78.2994 108.401 78.2413 108.563 78.2142C108.725 78.1872 108.89 78.1918 109.05 78.2279C109.21 78.2642 109.361 78.3308 109.494 78.4245C109.628 78.5184 109.742 78.6372 109.829 78.7743C109.916 78.9111 109.975 79.0638 110.002 79.2235C110.029 79.383 110.024 79.5463 109.988 79.7039C109.951 79.8617 109.884 80.0108 109.789 80.1427L109.793 80.1449Z" fill="#C52939"/>
<path opacity="0.5" d="M103.1 72.1934C103.719 72.4929 106.063 72.2524 106.063 72.2524C106.063 72.2524 104.815 70.2788 104.196 69.9803C103.899 69.8369 103.556 69.8159 103.243 69.9219C102.93 70.0278 102.673 70.2523 102.527 70.5459C102.382 70.8394 102.361 71.1778 102.468 71.4869C102.576 71.7958 102.803 72.05 103.1 72.1934Z" fill="#C52939"/>
<path opacity="0.5" d="M103.653 78.0127C104.334 78.1154 106.498 77.194 106.498 77.194C106.498 77.194 104.709 75.6792 104.028 75.5809C103.701 75.5318 103.367 75.6129 103.1 75.8068C102.834 76.0004 102.656 76.2907 102.606 76.6137C102.557 76.9368 102.639 77.2661 102.835 77.5293C103.031 77.7923 103.325 77.9679 103.653 78.0171V78.0127Z" fill="#C52939"/>
<path opacity="0.5" d="M104.974 83.5936C105.628 83.8124 107.919 83.2659 107.919 83.2659C107.919 83.2659 106.415 81.4748 105.761 81.2593C105.447 81.1564 105.104 81.1807 104.808 81.3271C104.512 81.4737 104.288 81.7301 104.183 82.0404C104.079 82.3503 104.104 82.6886 104.252 82.9808C104.4 83.273 104.66 83.495 104.974 83.598V83.5936Z" fill="#C52939"/>
<path opacity="0.5" d="M104.296 66.0665C104.509 66.7135 103.945 68.9713 103.945 68.9713C103.945 68.9713 102.137 67.4783 101.923 66.8325C101.821 66.522 101.847 66.184 101.997 65.8926C102.146 65.6012 102.407 65.3806 102.722 65.279C103.037 65.1777 103.379 65.2036 103.674 65.3516C103.969 65.4993 104.193 65.7569 104.296 66.0676V66.0665Z" fill="white"/>
<path opacity="0.5" d="M107.444 69.0159C107.267 69.6718 105.549 71.2663 105.549 71.2663C105.549 71.2663 104.854 69.0434 105.03 68.3853C105.115 68.0694 105.323 67.7996 105.61 67.6354C105.896 67.471 106.236 67.4257 106.556 67.5095C106.876 67.5931 107.15 67.7987 107.316 68.0814C107.482 68.3637 107.528 68.7002 107.444 69.0159Z" fill="white"/>
<path opacity="0.5" d="M109.385 75.1642C108.897 75.644 106.6 76.1631 106.6 76.1631C106.6 76.1631 107.135 73.8977 107.625 73.4179C107.741 73.3037 107.879 73.2133 108.031 73.1519C108.182 73.0904 108.345 73.059 108.509 73.0596C108.673 73.0601 108.835 73.0926 108.986 73.1549C109.138 73.2174 109.275 73.3086 109.391 73.4233C109.506 73.5383 109.598 73.6743 109.66 73.8242C109.722 73.9738 109.754 74.1341 109.753 74.2961C109.753 74.458 109.72 74.618 109.657 74.7674C109.594 74.9168 109.501 75.0525 109.385 75.1664V75.1642Z" fill="white"/>
<path opacity="0.5" d="M109.793 80.1449C109.394 80.699 107.214 81.5917 107.214 81.5917C107.214 81.5917 107.354 79.2694 107.754 78.7153C107.849 78.5834 107.969 78.4712 108.108 78.3852C108.247 78.2994 108.401 78.2413 108.563 78.2142C108.725 78.1872 108.89 78.1918 109.05 78.2279C109.21 78.2642 109.361 78.3308 109.494 78.4245C109.628 78.5184 109.742 78.6372 109.829 78.7743C109.916 78.9111 109.975 79.0638 110.002 79.2235C110.029 79.383 110.024 79.5463 109.988 79.7039C109.951 79.8617 109.884 80.0108 109.789 80.1427L109.793 80.1449Z" fill="white"/>
<path opacity="0.5" d="M103.1 72.1934C103.719 72.4929 106.063 72.2524 106.063 72.2524C106.063 72.2524 104.815 70.2788 104.196 69.9803C103.899 69.8369 103.556 69.8159 103.243 69.9219C102.93 70.0278 102.673 70.2523 102.527 70.5459C102.382 70.8394 102.361 71.1778 102.468 71.4869C102.576 71.7958 102.803 72.05 103.1 72.1934Z" fill="white"/>
<path opacity="0.5" d="M103.653 78.0127C104.334 78.1154 106.498 77.194 106.498 77.194C106.498 77.194 104.709 75.6792 104.028 75.5809C103.701 75.5318 103.367 75.6129 103.1 75.8068C102.834 76.0004 102.656 76.2907 102.606 76.6137C102.557 76.9368 102.639 77.2661 102.835 77.5293C103.031 77.7923 103.325 77.9679 103.653 78.0171V78.0127Z" fill="white"/>
<path opacity="0.5" d="M104.974 83.5936C105.628 83.8124 107.919 83.2659 107.919 83.2659C107.919 83.2659 106.415 81.4748 105.761 81.2593C105.447 81.1564 105.104 81.1807 104.808 81.3271C104.512 81.4737 104.288 81.7301 104.183 82.0404C104.079 82.3503 104.104 82.6886 104.252 82.9808C104.4 83.273 104.66 83.495 104.974 83.598V83.5936Z" fill="white"/>
<path opacity="0.5" d="M103.151 98.7469H112.598L114.96 84.5251H100.79L103.151 98.7469Z" fill="#474059"/>
<path opacity="0.1" d="M102.598 84.5251L104.804 97.8146H112.753L112.598 98.7469H103.151L100.79 84.5251H102.598Z" fill="black"/>
</g>
<path d="M105 17.7502H35.7273V100.22H105V17.7502Z" fill="url(#paint0_linear)"/>
<path d="M104.182 18.8425H36.5454V99.128H104.182V18.8425Z" fill="white"/>
<path d="M90 27.8541H62.7273V29.2195H90V27.8541Z" fill="#C0BCCF"/>
<path d="M90 31.9503H62.7273V33.3157H90V31.9503Z" fill="#C0BCCF"/>
<path d="M83.4546 36.0465H69.2727V37.4119H83.4546V36.0465Z" fill="#C52939"/>
<path opacity="0.5" d="M90 54.0698H62.7273V55.4352H90V54.0698Z" fill="#C0BCCF"/>
<path opacity="0.5" d="M90 58.166H62.7273V59.5314H90V58.166Z" fill="#C0BCCF"/>
<path opacity="0.5" d="M83.4546 62.5353H69.2727V63.6276H83.4546V62.5353Z" fill="#C52939"/>
<path opacity="0.5" d="M90 80.5586H62.7273V81.924H90V80.5586Z" fill="#C0BCCF"/>
<path opacity="0.5" d="M90 84.6548H62.7273V86.0202H90V84.6548Z" fill="#C0BCCF"/>
<path opacity="0.5" d="M83.4546 88.751H69.2727V90.1164H83.4546V88.751Z" fill="#C52939"/>
<g opacity="0.5">
<path opacity="0.5" d="M53.1755 61.4542L52.6044 61.2008C52.6131 61.1151 52.6167 61.0288 52.6153 60.9428C52.6194 60.8699 52.6194 60.7969 52.6153 60.7243C52.5589 60.1495 52.1882 59.6489 51.9259 59.1232C51.6856 58.6432 51.5329 58.1254 51.475 57.5932C51.4055 56.9375 51.475 56.2575 51.2315 55.6412C51.0335 55.1439 50.6416 54.7286 50.2219 54.3615C49.7511 53.9252 49.2008 53.5808 48.6002 53.3462C47.9869 53.1275 47.2816 53.0718 46.6682 53.2949C46.1149 53.4959 45.6886 53.897 45.2768 54.2873C44.9776 54.5472 44.7136 54.8441 44.4908 55.1701C44.2393 55.5768 44.1321 56.0445 44.0479 56.5058C43.9156 57.2442 43.8248 57.9891 43.7757 58.7374C43.7323 59.3614 43.6649 60.0695 43.1247 60.452C42.8612 60.6391 42.4903 60.744 42.3695 61.0269C42.3354 61.1118 42.3218 61.2036 42.3297 61.2948C42.3264 61.3704 42.3319 61.4463 42.3463 61.5209C42.3539 61.5646 42.3629 61.6072 42.3741 61.6509C42.2189 62.0315 42.0888 62.4212 41.9844 62.8183C41.9034 63.1132 41.8292 63.4029 41.7629 63.6837H41.9421H42.0376L43.0693 63.7077H43.0838L44.1908 63.7328H44.1962L45.2279 63.7569H45.2536L45.5514 63.7776H45.6488L49.7746 63.8718H49.7969L50.0713 63.8784H50.1679L50.9937 63.8969L52.2114 63.9243H52.2201L53.1368 63.9461H53.2344H53.4226L53.3738 62.9974C53.5753 61.5449 53.1755 61.4542 53.1755 61.4542ZM48.5402 61.3385C48.5402 62.1427 47.668 63.1274 47.668 63.1274L46.7901 61.9472L46.8223 61.9013L47.668 63.0378C47.668 63.0378 48.5402 62.0542 48.5402 61.2489C48.5607 61.2079 48.5839 61.1683 48.61 61.1306L48.6299 61.1921C48.5964 61.2385 48.5667 61.2874 48.5402 61.3385ZM49.882 64.4947C49.882 64.4543 49.882 64.4128 49.8744 64.3724C49.8665 64.3317 49.8676 64.2956 49.8621 64.2563C49.8567 64.217 49.8523 64.1788 49.8466 64.1394C49.8411 64.1001 49.8335 64.0619 49.8256 64.0226C49.8179 63.9832 49.81 63.945 49.8013 63.9057C49.8013 63.8926 49.7959 63.8806 49.7923 63.8664C49.7803 63.8147 49.7669 63.7634 49.7525 63.7121C49.7383 63.6607 49.7293 63.6291 49.7159 63.5886C49.7159 63.5701 49.705 63.5515 49.6982 63.534C49.6917 63.5165 49.6794 63.475 49.6696 63.4455L49.6497 63.3887C49.6407 63.3636 49.6319 63.3374 49.6219 63.3123C49.6052 63.2661 49.5875 63.2213 49.57 63.1755C49.5523 63.1296 49.5335 63.0848 49.5147 63.04C49.477 62.9483 49.4359 62.8576 49.3949 62.7658C49.2346 62.4117 49.054 62.0629 48.8879 61.7178C48.799 61.537 48.7199 61.3516 48.6509 61.1626L48.6299 61.1899C48.5964 61.2366 48.5664 61.286 48.5402 61.3374C48.5402 62.1416 47.668 63.1263 47.668 63.1263L46.7901 61.9461L46.0218 63.0389C45.9111 63.0935 45.8004 63.2792 45.7139 63.5439C45.6897 63.6149 45.6665 63.6935 45.6444 63.7754C45.6289 63.8314 45.6144 63.8849 45.601 63.9472C45.5934 63.9767 45.5866 64.0062 45.58 64.0368L45.5601 64.1296V64.1438C45.5468 64.2072 45.5337 64.2727 45.5214 64.3393C45.5091 64.4062 45.4949 64.4827 45.4827 64.5581C45.4737 64.6053 45.466 64.6523 45.4595 64.699C45.4439 64.7896 45.4306 64.8814 45.4172 64.9734C45.4096 65.027 45.4019 65.0827 45.3951 65.1318L45.3687 65.335C45.4251 65.5024 45.4881 65.663 45.5536 65.8312C45.595 65.9197 45.6193 66.015 45.6256 66.1122C46.9873 66.4705 48.4205 66.4705 49.7825 66.1122C49.7819 66.1089 49.7819 66.1056 49.7825 66.1023C49.762 66.0109 49.753 65.9172 49.7558 65.8235C49.7784 65.5608 49.8152 65.2998 49.8665 65.0412C49.8828 64.9136 49.8899 64.785 49.8878 64.6564V64.6105C49.8842 64.569 49.8831 64.5319 49.882 64.4958V64.4947ZM49.882 64.4947C49.882 64.4543 49.882 64.4128 49.8744 64.3724C49.8665 64.3317 49.8676 64.2956 49.8621 64.2563C49.8567 64.217 49.8523 64.1788 49.8466 64.1394C49.8411 64.1001 49.8335 64.0619 49.8256 64.0226C49.8179 63.9832 49.81 63.945 49.8013 63.9057C49.8013 63.8926 49.7959 63.8806 49.7923 63.8664C49.7803 63.8147 49.7669 63.7634 49.7525 63.7121C49.7383 63.6607 49.7293 63.6291 49.7159 63.5886C49.7159 63.5701 49.705 63.5515 49.6982 63.534C49.6917 63.5165 49.6794 63.475 49.6696 63.4455L49.6497 63.3887C49.6407 63.3636 49.6319 63.3374 49.6219 63.3123C49.6052 63.2661 49.5875 63.2213 49.57 63.1755C49.5523 63.1296 49.5335 63.0848 49.5147 63.04C49.477 62.9483 49.4359 62.8576 49.3949 62.7658C49.2346 62.4117 49.054 62.0629 48.8879 61.7178C48.799 61.537 48.7199 61.3516 48.6509 61.1626L48.6299 61.1899C48.5964 61.2366 48.5664 61.286 48.5402 61.3374C48.5402 62.1416 47.668 63.1263 47.668 63.1263L46.7901 61.9461L46.0218 63.0389C45.9111 63.0935 45.8004 63.2792 45.7139 63.5439C45.6897 63.6149 45.6665 63.6935 45.6444 63.7754C45.6289 63.8314 45.6144 63.8849 45.601 63.9472C45.5934 63.9767 45.5866 64.0062 45.58 64.0368L45.5601 64.1296V64.1438C45.5468 64.2072 45.5337 64.2727 45.5214 64.3393C45.5091 64.4062 45.4949 64.4827 45.4827 64.5581C45.4737 64.6053 45.466 64.6523 45.4595 64.699C45.4439 64.7896 45.4306 64.8814 45.4172 64.9734C45.4096 65.027 45.4019 65.0827 45.3951 65.1318L45.3687 65.335C45.4251 65.5024 45.4881 65.663 45.5536 65.8312C45.595 65.9197 45.6193 66.015 45.6256 66.1122C46.9873 66.4705 48.4205 66.4705 49.7825 66.1122C49.7819 66.1089 49.7819 66.1056 49.7825 66.1023C49.762 66.0109 49.753 65.9172 49.7558 65.8235C49.7784 65.5608 49.8152 65.2998 49.8665 65.0412C49.8828 64.9136 49.8899 64.785 49.8878 64.6564V64.6105C49.8842 64.569 49.8831 64.5319 49.882 64.4958V64.4947ZM49.882 64.4947C49.882 64.4543 49.882 64.4128 49.8744 64.3724C49.8665 64.3317 49.8676 64.2956 49.8621 64.2563C49.8567 64.217 49.8523 64.1788 49.8466 64.1394C49.8411 64.1001 49.8335 64.0619 49.8256 64.0226C49.8179 63.9832 49.81 63.945 49.8013 63.9057C49.8013 63.8926 49.7959 63.8806 49.7923 63.8664C49.7803 63.8147 49.7669 63.7634 49.7525 63.7121C49.7383 63.6607 49.7293 63.6291 49.7159 63.5886C49.7159 63.5701 49.705 63.5515 49.6982 63.534C49.6917 63.5165 49.6794 63.475 49.6696 63.4455L49.6497 63.3887C49.6407 63.3636 49.6319 63.3374 49.6219 63.3123C49.6052 63.2661 49.5875 63.2213 49.57 63.1755C49.5523 63.1296 49.5335 63.0848 49.5147 63.04C49.477 62.9483 49.4359 62.8576 49.3949 62.7658C49.2346 62.4117 49.054 62.0629 48.8879 61.7178C48.799 61.537 48.7199 61.3516 48.6509 61.1626L48.6299 61.1899C48.5964 61.2366 48.5664 61.286 48.5402 61.3374C48.5402 62.1416 47.668 63.1263 47.668 63.1263L46.7901 61.9461L46.0218 63.0389C45.9111 63.0935 45.8004 63.2792 45.7139 63.5439C45.6897 63.6149 45.6665 63.6935 45.6444 63.7754C45.6289 63.8314 45.6144 63.8849 45.601 63.9472C45.5934 63.9767 45.5866 64.0062 45.58 64.0368L45.5601 64.1296V64.1438C45.5468 64.2072 45.5337 64.2727 45.5214 64.3393C45.5091 64.4062 45.4949 64.4827 45.4827 64.5581C45.4737 64.6053 45.466 64.6523 45.4595 64.699C45.4439 64.7896 45.4306 64.8814 45.4172 64.9734C45.4096 65.027 45.4019 65.0827 45.3951 65.1318L45.3687 65.335C45.4251 65.5024 45.4881 65.663 45.5536 65.8312C45.595 65.9197 45.6193 66.015 45.6256 66.1122C46.9873 66.4705 48.4205 66.4705 49.7825 66.1122C49.7819 66.1089 49.7819 66.1056 49.7825 66.1023C49.762 66.0109 49.753 65.9172 49.7558 65.8235C49.7784 65.5608 49.8152 65.2998 49.8665 65.0412C49.8828 64.9136 49.8899 64.785 49.8878 64.6564V64.6105C49.8842 64.569 49.8831 64.5319 49.882 64.4958V64.4947ZM49.882 64.4947C49.882 64.4543 49.882 64.4128 49.8744 64.3724C49.8665 64.3317 49.8676 64.2956 49.8621 64.2563C49.8567 64.217 49.8523 64.1788 49.8466 64.1394C49.8411 64.1001 49.8335 64.0619 49.8256 64.0226C49.8179 63.9832 49.81 63.945 49.8013 63.9057C49.8013 63.8926 49.7959 63.8806 49.7923 63.8664C49.7803 63.8147 49.7669 63.7634 49.7525 63.7121C49.7383 63.6607 49.7293 63.6291 49.7159 63.5886C49.7159 63.5701 49.705 63.5515 49.6982 63.534C49.6917 63.5165 49.6794 63.475 49.6696 63.4455L49.6497 63.3887C49.6407 63.3636 49.6319 63.3374 49.6219 63.3123C49.6052 63.2661 49.5875 63.2213 49.57 63.1755C49.5523 63.1296 49.5335 63.0848 49.5147 63.04C49.477 62.9483 49.4359 62.8576 49.3949 62.7658C49.2346 62.4117 49.054 62.0629 48.8879 61.7178C48.799 61.537 48.7199 61.3516 48.6509 61.1626L48.6299 61.1899C48.5964 61.2366 48.5664 61.286 48.5402 61.3374C48.5402 62.1416 47.668 63.1263 47.668 63.1263L46.7901 61.9461L46.0218 63.0389C45.9111 63.0935 45.8004 63.2792 45.7139 63.5439C45.6897 63.6149 45.6665 63.6935 45.6444 63.7754C45.6289 63.8314 45.6144 63.8849 45.601 63.9472C45.5934 63.9767 45.5866 64.0062 45.58 64.0368L45.5601 64.1296V64.1438C45.5468 64.2072 45.5337 64.2727 45.5214 64.3393C45.5091 64.4062 45.4949 64.4827 45.4827 64.5581C45.4737 64.6053 45.466 64.6523 45.4595 64.699C45.4439 64.7896 45.4306 64.8814 45.4172 64.9734C45.4096 65.027 45.4019 65.0827 45.3951 65.1318L45.3687 65.335C45.4251 65.5024 45.4881 65.663 45.5536 65.8312C45.595 65.9197 45.6193 66.015 45.6256 66.1122C46.9873 66.4705 48.4205 66.4705 49.7825 66.1122C49.7819 66.1089 49.7819 66.1056 49.7825 66.1023C49.762 66.0109 49.753 65.9172 49.7558 65.8235C49.7784 65.5608 49.8152 65.2998 49.8665 65.0412C49.8828 64.9136 49.8899 64.785 49.8878 64.6564V64.6105C49.8842 64.569 49.8831 64.5319 49.882 64.4958V64.4947Z" fill="url(#paint1_linear)"/>
<path opacity="0.5" d="M49.9219 56.8722H44.8295V60.26H49.9219V56.8722Z" fill="#493545"/>
<path opacity="0.5" d="M50.7678 60.6085L48.6368 63.5725L46.4094 63.3814C46.4094 63.3814 43.5032 63.5714 45.4407 61.3737C46.3718 60.3169 46.6761 59.4359 46.7413 58.8075C46.8122 58.1279 46.603 57.7409 46.603 57.7409L49.024 57.4547C48.9149 57.7767 48.901 58.1229 48.9842 58.4523C49.2878 59.694 50.7678 60.6085 50.7678 60.6085Z" fill="#C77485"/>
<path opacity="0.1" d="M48.9829 58.4488C48.6673 58.6847 48.2975 58.8406 47.9064 58.9029C47.5153 58.9649 47.115 58.9313 46.74 58.8049C46.8109 58.1252 46.6017 57.7382 46.6017 57.7382L49.023 57.452C48.9139 57.7737 48.9 58.1194 48.9829 58.4488Z" fill="black"/>
<path opacity="0.5" d="M47.5235 58.8379C48.8604 58.8379 49.9445 57.7677 49.9445 56.4479C49.9445 55.1278 48.8604 54.0576 47.5235 54.0576C46.1863 54.0576 45.1022 55.1278 45.1022 56.4479C45.1022 57.7677 46.1863 58.8379 47.5235 58.8379Z" fill="#C77485"/>
<path opacity="0.1" d="M50.6793 60.7308L50.6228 60.5121L50.574 60.3198L50.5023 60.0355L50.4889 59.9831L50.4777 59.9394C50.4777 59.9394 50.5353 59.7679 50.1556 59.8236L50.0847 59.8356C50.025 59.8477 49.9552 59.864 49.8755 59.8859L49.8035 59.9077L49.7084 59.9372C49.407 60.0342 49.1321 60.198 48.9046 60.4159C48.8026 60.5123 48.7124 60.6202 48.6357 60.7374C48.6278 60.7483 48.6224 60.7581 48.6158 60.7669C48.5894 60.8075 48.5662 60.8499 48.546 60.8936C48.546 61.7549 47.6735 62.8062 47.6735 62.8062L46.8224 61.5918L46.8057 61.5678L46.6031 61.2772L46.5311 61.1833L46.5068 61.1505L46.0639 60.5634L45.9532 60.417L45.9166 60.3679L45.8624 60.2969L45.7353 60.1298L45.237 60.417L44.5726 60.7996L44.1854 63.286V63.3548L44.1974 63.5602L44.2784 64.9111V64.9297L44.1365 65.4892L44.1575 65.5002C44.4919 65.6782 44.8399 65.83 45.1983 65.9548L45.2924 65.9876C45.4031 66.0237 45.507 66.0564 45.6155 66.0881C45.6196 66.1042 45.6226 66.1206 45.6245 66.1373C45.6245 66.122 45.6245 66.1056 45.6245 66.0903C46.983 66.4734 48.423 66.4734 49.7814 66.0903L49.8068 66.0826C49.8701 66.0652 49.9342 66.0466 49.9961 66.0258L50.097 65.9942C50.3703 65.9038 50.6378 65.7981 50.8985 65.6771L50.9915 63.7208L51.0578 62.31V62.2292L50.6793 60.7308Z" fill="black"/>
<path opacity="0.5" d="M49.8817 64.3647C49.8817 64.321 49.8817 64.2773 49.8741 64.2336C49.8662 64.1899 49.8673 64.1517 49.8618 64.1102C49.8564 64.0687 49.8517 64.0272 49.8463 63.9857C49.8408 63.9441 49.8329 63.9026 49.8253 63.8609C49.8176 63.8193 49.8097 63.7778 49.801 63.7363C49.801 63.7221 49.7953 63.709 49.792 63.6948C49.78 63.6402 49.7666 63.5856 49.7522 63.5299C49.7377 63.4742 49.729 63.4414 49.7156 63.3977C49.7156 63.3781 49.7045 63.3581 49.6979 63.3395C49.6914 63.321 49.6791 63.2762 49.6693 63.2445L49.6494 63.1833C49.6404 63.156 49.6316 63.1287 49.6216 63.1014C49.6049 63.0523 49.5872 63.0042 49.5695 62.9551C49.5517 62.9059 49.5329 62.8578 49.5141 62.8095C49.4765 62.7112 49.4356 62.614 49.3946 62.5168C49.234 62.1385 49.0537 61.7658 48.8876 61.3966C48.7985 61.203 48.7194 61.0047 48.6506 60.8032L48.6296 60.8327C48.5961 60.8829 48.5661 60.9354 48.5399 60.99C48.5399 61.8502 47.6677 62.9026 47.6677 62.9026L46.7898 61.6402L46.0213 62.8062C45.9108 62.8644 45.8001 63.0632 45.7136 63.3461C45.6894 63.4228 45.6659 63.5059 45.6438 63.5943C45.6283 63.6533 45.6141 63.7156 45.6007 63.7778C45.5931 63.8095 45.5863 63.8412 45.5797 63.874L45.5598 63.9736V63.9889C45.5465 64.0567 45.5331 64.1266 45.5211 64.1976C45.5088 64.2686 45.4944 64.3505 45.4824 64.4283C45.4734 64.4786 45.4657 64.5288 45.4589 64.5791C45.4436 64.6763 45.4303 64.7746 45.4169 64.8718C45.4093 64.9286 45.4014 64.9813 45.3948 65.0414L45.3681 65.2598C45.4248 65.439 45.4878 65.6162 45.553 65.7899C45.5947 65.8852 45.6193 65.9868 45.625 66.0906C46.9835 66.4737 48.4237 66.4737 49.7822 66.0906C49.7816 66.0867 49.7816 66.0832 49.7822 66.0796C49.7617 65.9813 49.7527 65.8814 49.7555 65.7812C49.7778 65.5007 49.8149 65.2216 49.8662 64.945C49.8826 64.8087 49.8896 64.6714 49.8872 64.5343V64.4851C49.8839 64.4436 49.8828 64.404 49.8817 64.3647ZM49.8817 64.3647C49.8817 64.321 49.8817 64.2773 49.8741 64.2336C49.8662 64.1899 49.8673 64.1517 49.8618 64.1102C49.8564 64.0687 49.8517 64.0272 49.8463 63.9857C49.8408 63.9441 49.8329 63.9026 49.8253 63.8609C49.8176 63.8193 49.8097 63.7778 49.801 63.7363C49.801 63.7221 49.7953 63.709 49.792 63.6948C49.78 63.6402 49.7666 63.5856 49.7522 63.5299C49.7377 63.4742 49.729 63.4414 49.7156 63.3977C49.7156 63.3781 49.7045 63.3581 49.6979 63.3395C49.6914 63.321 49.6791 63.2762 49.6693 63.2445L49.6494 63.1833C49.6404 63.156 49.6316 63.1287 49.6216 63.1014C49.6049 63.0523 49.5872 63.0042 49.5695 62.9551C49.5517 62.9059 49.5329 62.8578 49.5141 62.8095C49.4765 62.7112 49.4356 62.614 49.3946 62.5168C49.234 62.1385 49.0537 61.7658 48.8876 61.3966C48.7985 61.203 48.7194 61.0047 48.6506 60.8032L48.6296 60.8327C48.5961 60.8829 48.5661 60.9354 48.5399 60.99C48.5399 61.8502 47.6677 62.9026 47.6677 62.9026L46.7898 61.6402L46.0213 62.8062C45.9108 62.8644 45.8001 63.0632 45.7136 63.3461C45.6894 63.4228 45.6659 63.5059 45.6438 63.5943C45.6283 63.6533 45.6141 63.7156 45.6007 63.7778C45.5931 63.8095 45.5863 63.8412 45.5797 63.874L45.5598 63.9736V63.9889C45.5465 64.0567 45.5331 64.1266 45.5211 64.1976C45.5088 64.2686 45.4944 64.3505 45.4824 64.4283C45.4734 64.4786 45.4657 64.5288 45.4589 64.5791C45.4436 64.6763 45.4303 64.7746 45.4169 64.8718C45.4093 64.9286 45.4014 64.9813 45.3948 65.0414L45.3681 65.2598C45.4248 65.439 45.4878 65.6162 45.553 65.7899C45.5947 65.8852 45.6193 65.9868 45.625 66.0906C46.9835 66.4737 48.4237 66.4737 49.7822 66.0906C49.7816 66.0867 49.7816 66.0832 49.7822 66.0796C49.7617 65.9813 49.7527 65.8814 49.7555 65.7812C49.7778 65.5007 49.8149 65.2216 49.8662 64.945C49.8826 64.8087 49.8896 64.6714 49.8872 64.5343V64.4851C49.8839 64.4436 49.8828 64.404 49.8817 64.3647ZM49.8817 64.3647C49.8817 64.321 49.8817 64.2773 49.8741 64.2336C49.8662 64.1899 49.8673 64.1517 49.8618 64.1102C49.8564 64.0687 49.8517 64.0272 49.8463 63.9857C49.8408 63.9441 49.8329 63.9026 49.8253 63.8609C49.8176 63.8193 49.8097 63.7778 49.801 63.7363C49.801 63.7221 49.7953 63.709 49.792 63.6948C49.78 63.6402 49.7666 63.5856 49.7522 63.5299C49.7377 63.4742 49.729 63.4414 49.7156 63.3977C49.7156 63.3781 49.7045 63.3581 49.6979 63.3395C49.6914 63.321 49.6791 63.2762 49.6693 63.2445L49.6494 63.1833C49.6404 63.156 49.6316 63.1287 49.6216 63.1014C49.6049 63.0523 49.5872 63.0042 49.5695 62.9551C49.5517 62.9059 49.5329 62.8578 49.5141 62.8095C49.4765 62.7112 49.4356 62.614 49.3946 62.5168C49.234 62.1385 49.0537 61.7658 48.8876 61.3966C48.7985 61.203 48.7194 61.0047 48.6506 60.8032L48.6296 60.8327C48.5961 60.8829 48.5661 60.9354 48.5399 60.99C48.5399 61.8502 47.6677 62.9026 47.6677 62.9026L46.7898 61.6402L46.0213 62.8062C45.9108 62.8644 45.8001 63.0632 45.7136 63.3461C45.6894 63.4228 45.6659 63.5059 45.6438 63.5943C45.6283 63.6533 45.6141 63.7156 45.6007 63.7778C45.5931 63.8095 45.5863 63.8412 45.5797 63.874L45.5598 63.9736V63.9889C45.5465 64.0567 45.5331 64.1266 45.5211 64.1976C45.5088 64.2686 45.4944 64.3505 45.4824 64.4283C45.4734 64.4786 45.4657 64.5288 45.4589 64.5791C45.4436 64.6763 45.4303 64.7746 45.4169 64.8718C45.4093 64.9286 45.4014 64.9813 45.3948 65.0414L45.3681 65.2598C45.4248 65.439 45.4878 65.6162 45.553 65.7899C45.5947 65.8852 45.6193 65.9868 45.625 66.0906C46.9835 66.4737 48.4237 66.4737 49.7822 66.0906C49.7816 66.0867 49.7816 66.0832 49.7822 66.0796C49.7617 65.9813 49.7527 65.8814 49.7555 65.7812C49.7778 65.5007 49.8149 65.2216 49.8662 64.945C49.8826 64.8087 49.8896 64.6714 49.8872 64.5343V64.4851C49.8839 64.4436 49.8828 64.404 49.8817 64.3647ZM51.0553 62.3136L50.6601 60.7562L50.5925 60.4894L50.5736 60.4162L50.4774 60.0358C50.4776 60.0326 50.4776 60.0293 50.4774 60.026C50.4796 60.0093 50.4768 59.9921 50.4695 59.9768C50.4553 59.9484 50.4187 59.919 50.3334 59.9113C50.3009 59.9091 50.2685 59.9091 50.236 59.9113C50.1397 59.9206 50.0446 59.9383 49.9516 59.9637C49.906 59.9757 49.8575 59.9889 49.8054 60.0052L49.7102 60.0347H49.7012C49.4462 60.1175 49.2095 60.2472 49.0038 60.4173C48.868 60.5293 48.7486 60.6595 48.6496 60.8043L48.6286 60.8338C48.5947 60.884 48.565 60.9364 48.5388 60.9911C48.5388 61.8513 47.6664 62.9037 47.6664 62.9037L46.7885 61.6413L46.7388 61.5703L46.7298 61.5582L46.6027 61.3736L46.5062 61.2469L46.4808 61.2139L46.027 60.6161L45.883 60.4228V60.4162L45.8331 60.3496L45.7379 60.2251L45.406 60.4162L44.5756 60.8938L44.1926 63.3537V63.3802L44.2036 63.5594L44.2856 64.9286V65.0064L44.1605 65.4993C44.4948 65.6774 44.8428 65.8292 45.2012 65.9537L45.2953 65.9865C45.406 66.0228 45.5099 66.0556 45.6185 66.0873C45.6226 66.1034 45.6253 66.1198 45.6272 66.1364C45.6272 66.1211 45.6272 66.1048 45.6272 66.0895C46.9856 66.4726 48.4259 66.4726 49.7844 66.0895L49.8097 66.0818C49.8727 66.0643 49.9371 66.0458 49.999 66.025L50.0999 65.9931C50.3729 65.9029 50.6407 65.7973 50.9015 65.6763L50.9931 63.7221L51.0596 62.3267L51.0553 62.3136ZM45.6106 66.0873C45.6146 66.1034 45.6176 66.1198 45.6196 66.1364C45.6196 66.1211 45.6196 66.1048 45.6196 66.0895L45.6106 66.0873ZM49.8817 64.3647C49.8817 64.321 49.8817 64.2773 49.8741 64.2336C49.8662 64.1899 49.8673 64.1517 49.8618 64.1102C49.8564 64.0687 49.8517 64.0272 49.8463 63.9857C49.8408 63.9441 49.8329 63.9026 49.8253 63.8609C49.8176 63.8193 49.8097 63.7778 49.801 63.7363C49.801 63.7221 49.7953 63.709 49.792 63.6948C49.78 63.6402 49.7666 63.5856 49.7522 63.5299C49.7377 63.4742 49.729 63.4414 49.7156 63.3977C49.7156 63.3781 49.7045 63.3581 49.6979 63.3395C49.6914 63.321 49.6791 63.2762 49.6693 63.2445L49.6494 63.1833C49.6404 63.156 49.6316 63.1287 49.6216 63.1014C49.6049 63.0523 49.5872 63.0042 49.5695 62.9551C49.5517 62.9059 49.5329 62.8578 49.5141 62.8095C49.4765 62.7112 49.4356 62.614 49.3946 62.5168C49.234 62.1385 49.0537 61.7658 48.8876 61.3966C48.7985 61.203 48.7194 61.0047 48.6506 60.8032L48.6296 60.8327C48.5961 60.8829 48.5661 60.9354 48.5399 60.99C48.5399 61.8502 47.6677 62.9026 47.6677 62.9026L46.7898 61.6402L46.0213 62.8062C45.9108 62.8644 45.8001 63.0632 45.7136 63.3461C45.6894 63.4228 45.6659 63.5059 45.6438 63.5943C45.6283 63.6533 45.6141 63.7156 45.6007 63.7778C45.5931 63.8095 45.5863 63.8412 45.5797 63.874L45.5598 63.9736V63.9889C45.5465 64.0567 45.5331 64.1266 45.5211 64.1976C45.5088 64.2686 45.4944 64.3505 45.4824 64.4283C45.4734 64.4786 45.4657 64.5288 45.4589 64.5791C45.4436 64.6763 45.4303 64.7746 45.4169 64.8718C45.4093 64.9286 45.4014 64.9813 45.3948 65.0414L45.3681 65.2598C45.4248 65.439 45.4878 65.6162 45.553 65.7899C45.5947 65.8852 45.6193 65.9868 45.625 66.0906C46.9835 66.4737 48.4237 66.4737 49.7822 66.0906C49.7816 66.0867 49.7816 66.0832 49.7822 66.0796C49.7617 65.9813 49.7527 65.8814 49.7555 65.7812C49.7778 65.5007 49.8149 65.2216 49.8662 64.945C49.8826 64.8087 49.8896 64.6714 49.8872 64.5343V64.4851C49.8839 64.4436 49.8828 64.404 49.8817 64.3647ZM49.8817 64.3647C49.8817 64.321 49.8817 64.2773 49.8741 64.2336C49.8662 64.1899 49.8673 64.1517 49.8618 64.1102C49.8564 64.0687 49.8517 64.0272 49.8463 63.9857C49.8408 63.9441 49.8329 63.9026 49.8253 63.8609C49.8176 63.8193 49.8097 63.7778 49.801 63.7363C49.801 63.7221 49.7953 63.709 49.792 63.6948C49.78 63.6402 49.7666 63.5856 49.7522 63.5299C49.7377 63.4742 49.729 63.4414 49.7156 63.3977C49.7156 63.3781 49.7045 63.3581 49.6979 63.3395C49.6914 63.321 49.6791 63.2762 49.6693 63.2445L49.6494 63.1833C49.6404 63.156 49.6316 63.1287 49.6216 63.1014C49.6049 63.0523 49.5872 63.0042 49.5695 62.9551C49.5517 62.9059 49.5329 62.8578 49.5141 62.8095C49.4765 62.7112 49.4356 62.614 49.3946 62.5168C49.234 62.1385 49.0537 61.7658 48.8876 61.3966C48.7985 61.203 48.7194 61.0047 48.6506 60.8032L48.6296 60.8327C48.5961 60.8829 48.5661 60.9354 48.5399 60.99C48.5399 61.8502 47.6677 62.9026 47.6677 62.9026L46.7898 61.6402L46.0213 62.8062C45.9108 62.8644 45.8001 63.0632 45.7136 63.3461C45.6894 63.4228 45.6659 63.5059 45.6438 63.5943C45.6283 63.6533 45.6141 63.7156 45.6007 63.7778C45.5931 63.8095 45.5863 63.8412 45.5797 63.874L45.5598 63.9736V63.9889C45.5465 64.0567 45.5331 64.1266 45.5211 64.1976C45.5088 64.2686 45.4944 64.3505 45.4824 64.4283C45.4734 64.4786 45.4657 64.5288 45.4589 64.5791C45.4436 64.6763 45.4303 64.7746 45.4169 64.8718C45.4093 64.9286 45.4014 64.9813 45.3948 65.0414L45.3681 65.2598C45.4248 65.439 45.4878 65.6162 45.553 65.7899C45.5947 65.8852 45.6193 65.9868 45.625 66.0906C46.9835 66.4737 48.4237 66.4737 49.7822 66.0906C49.7816 66.0867 49.7816 66.0832 49.7822 66.0796C49.7617 65.9813 49.7527 65.8814 49.7555 65.7812C49.7778 65.5007 49.8149 65.2216 49.8662 64.945C49.8826 64.8087 49.8896 64.6714 49.8872 64.5343V64.4851C49.8839 64.4436 49.8828 64.404 49.8817 64.3647ZM49.8817 64.3647C49.8817 64.321 49.8817 64.2773 49.8741 64.2336C49.8662 64.1899 49.8673 64.1517 49.8618 64.1102C49.8564 64.0687 49.8517 64.0272 49.8463 63.9857C49.8408 63.9441 49.8329 63.9026 49.8253 63.8609C49.8176 63.8193 49.8097 63.7778 49.801 63.7363C49.801 63.7221 49.7953 63.709 49.792 63.6948C49.78 63.6402 49.7666 63.5856 49.7522 63.5299C49.7377 63.4742 49.729 63.4414 49.7156 63.3977C49.7156 63.3781 49.7045 63.3581 49.6979 63.3395C49.6914 63.321 49.6791 63.2762 49.6693 63.2445L49.6494 63.1833C49.6404 63.156 49.6316 63.1287 49.6216 63.1014C49.6049 63.0523 49.5872 63.0042 49.5695 62.9551C49.5517 62.9059 49.5329 62.8578 49.5141 62.8095C49.4765 62.7112 49.4356 62.614 49.3946 62.5168C49.234 62.1385 49.0537 61.7658 48.8876 61.3966C48.7985 61.203 48.7194 61.0047 48.6506 60.8032L48.6296 60.8327C48.5961 60.8829 48.5661 60.9354 48.5399 60.99C48.5399 61.8502 47.6677 62.9026 47.6677 62.9026L46.7898 61.6402L46.0213 62.8062C45.9108 62.8644 45.8001 63.0632 45.7136 63.3461C45.6894 63.4228 45.6659 63.5059 45.6438 63.5943C45.6283 63.6533 45.6141 63.7156 45.6007 63.7778C45.5931 63.8095 45.5863 63.8412 45.5797 63.874L45.5598 63.9736V63.9889C45.5465 64.0567 45.5331 64.1266 45.5211 64.1976C45.5088 64.2686 45.4944 64.3505 45.4824 64.4283C45.4734 64.4786 45.4657 64.5288 45.4589 64.5791C45.4436 64.6763 45.4303 64.7746 45.4169 64.8718C45.4093 64.9286 45.4014 64.9813 45.3948 65.0414L45.3681 65.2598C45.4248 65.439 45.4878 65.6162 45.553 65.7899C45.5947 65.8852 45.6193 65.9868 45.625 66.0906C46.9835 66.4737 48.4237 66.4737 49.7822 66.0906C49.7816 66.0867 49.7816 66.0832 49.7822 66.0796C49.7617 65.9813 49.7527 65.8814 49.7555 65.7812C49.7778 65.5007 49.8149 65.2216 49.8662 64.945C49.8826 64.8087 49.8896 64.6714 49.8872 64.5343V64.4851C49.8839 64.4436 49.8828 64.404 49.8817 64.3647ZM49.8817 64.3647C49.8817 64.321 49.8817 64.2773 49.8741 64.2336C49.8662 64.1899 49.8673 64.1517 49.8618 64.1102C49.8564 64.0687 49.8517 64.0272 49.8463 63.9857C49.8408 63.9441 49.8329 63.9026 49.8253 63.8609C49.8176 63.8193 49.8097 63.7778 49.801 63.7363C49.801 63.7221 49.7953 63.709 49.792 63.6948C49.78 63.6402 49.7666 63.5856 49.7522 63.5299C49.7377 63.4742 49.729 63.4414 49.7156 63.3977C49.7156 63.3781 49.7045 63.3581 49.6979 63.3395C49.6914 63.321 49.6791 63.2762 49.6693 63.2445L49.6494 63.1833C49.6404 63.156 49.6316 63.1287 49.6216 63.1014C49.6049 63.0523 49.5872 63.0042 49.5695 62.9551C49.5517 62.9059 49.5329 62.8578 49.5141 62.8095C49.4765 62.7112 49.4356 62.614 49.3946 62.5168C49.234 62.1385 49.0537 61.7658 48.8876 61.3966C48.7985 61.203 48.7194 61.0047 48.6506 60.8032L48.6296 60.8327C48.5961 60.8829 48.5661 60.9354 48.5399 60.99C48.5399 61.8502 47.6677 62.9026 47.6677 62.9026L46.7898 61.6402L46.0213 62.8062C45.9108 62.8644 45.8001 63.0632 45.7136 63.3461C45.6894 63.4228 45.6659 63.5059 45.6438 63.5943C45.6283 63.6533 45.6141 63.7156 45.6007 63.7778C45.5931 63.8095 45.5863 63.8412 45.5797 63.874L45.5598 63.9736V63.9889C45.5465 64.0567 45.5331 64.1266 45.5211 64.1976C45.5088 64.2686 45.4944 64.3505 45.4824 64.4283C45.4734 64.4786 45.4657 64.5288 45.4589 64.5791C45.4436 64.6763 45.4303 64.7746 45.4169 64.8718C45.4093 64.9286 45.4014 64.9813 45.3948 65.0414L45.3681 65.2598C45.4248 65.439 45.4878 65.6162 45.553 65.7899C45.5947 65.8852 45.6193 65.9868 45.625 66.0906C46.9835 66.4737 48.4237 66.4737 49.7822 66.0906C49.7816 66.0867 49.7816 66.0832 49.7822 66.0796C49.7617 65.9813 49.7527 65.8814 49.7555 65.7812C49.7778 65.5007 49.8149 65.2216 49.8662 64.945C49.8826 64.8087 49.8896 64.6714 49.8872 64.5343V64.4851C49.8839 64.4436 49.8828 64.404 49.8817 64.3647ZM49.8817 64.3647C49.8817 64.321 49.8817 64.2773 49.8741 64.2336C49.8662 64.1899 49.8673 64.1517 49.8618 64.1102C49.8564 64.0687 49.8517 64.0272 49.8463 63.9857C49.8408 63.9441 49.8329 63.9026 49.8253 63.8609C49.8176 63.8193 49.8097 63.7778 49.801 63.7363C49.801 63.7221 49.7953 63.709 49.792 63.6948C49.78 63.6402 49.7666 63.5856 49.7522 63.5299C49.7377 63.4742 49.729 63.4414 49.7156 63.3977C49.7156 63.3781 49.7045 63.3581 49.6979 63.3395C49.6914 63.321 49.6791 63.2762 49.6693 63.2445L49.6494 63.1833C49.6404 63.156 49.6316 63.1287 49.6216 63.1014C49.6049 63.0523 49.5872 63.0042 49.5695 62.9551C49.5517 62.9059 49.5329 62.8578 49.5141 62.8095C49.4765 62.7112 49.4356 62.614 49.3946 62.5168C49.234 62.1385 49.0537 61.7658 48.8876 61.3966C48.7985 61.203 48.7194 61.0047 48.6506 60.8032L48.6296 60.8327C48.5961 60.8829 48.5661 60.9354 48.5399 60.99C48.5399 61.8502 47.6677 62.9026 47.6677 62.9026L46.7898 61.6402L46.0213 62.8062C45.9108 62.8644 45.8001 63.0632 45.7136 63.3461C45.6894 63.4228 45.6659 63.5059 45.6438 63.5943C45.6283 63.6533 45.6141 63.7156 45.6007 63.7778C45.5931 63.8095 45.5863 63.8412 45.5797 63.874L45.5598 63.9736V63.9889C45.5465 64.0567 45.5331 64.1266 45.5211 64.1976C45.5088 64.2686 45.4944 64.3505 45.4824 64.4283C45.4734 64.4786 45.4657 64.5288 45.4589 64.5791C45.4436 64.6763 45.4303 64.7746 45.4169 64.8718C45.4093 64.9286 45.4014 64.9813 45.3948 65.0414L45.3681 65.2598C45.4248 65.439 45.4878 65.6162 45.553 65.7899C45.5947 65.8852 45.6193 65.9868 45.625 66.0906C46.9835 66.4737 48.4237 66.4737 49.7822 66.0906C49.7816 66.0867 49.7816 66.0832 49.7822 66.0796C49.7617 65.9813 49.7527 65.8814 49.7555 65.7812C49.7778 65.5007 49.8149 65.2216 49.8662 64.945C49.8826 64.8087 49.8896 64.6714 49.8872 64.5343V64.4851C49.8839 64.4436 49.8828 64.404 49.8817 64.3647ZM49.8817 64.3647C49.8817 64.321 49.8817 64.2773 49.8741 64.2336C49.8662 64.1899 49.8673 64.1517 49.8618 64.1102C49.8564 64.0687 49.8517 64.0272 49.8463 63.9857C49.8408 63.9441 49.8329 63.9026 49.8253 63.8609C49.8176 63.8193 49.8097 63.7778 49.801 63.7363C49.801 63.7221 49.7953 63.709 49.792 63.6948C49.78 63.6402 49.7666 63.5856 49.7522 63.5299C49.7377 63.4742 49.729 63.4414 49.7156 63.3977C49.7156 63.3781 49.7045 63.3581 49.6979 63.3395C49.6914 63.321 49.6791 63.2762 49.6693 63.2445L49.6494 63.1833C49.6404 63.156 49.6316 63.1287 49.6216 63.1014C49.6049 63.0523 49.5872 63.0042 49.5695 62.9551C49.5517 62.9059 49.5329 62.8578 49.5141 62.8095C49.4765 62.7112 49.4356 62.614 49.3946 62.5168C49.234 62.1385 49.0537 61.7658 48.8876 61.3966C48.7985 61.203 48.7194 61.0047 48.6506 60.8032L48.6296 60.8327C48.5961 60.8829 48.5661 60.9354 48.5399 60.99C48.5399 61.8502 47.6677 62.9026 47.6677 62.9026L46.7898 61.6402L46.0213 62.8062C45.9108 62.8644 45.8001 63.0632 45.7136 63.3461C45.6894 63.4228 45.6659 63.5059 45.6438 63.5943C45.6283 63.6533 45.6141 63.7156 45.6007 63.7778C45.5931 63.8095 45.5863 63.8412 45.5797 63.874L45.5598 63.9736V63.9889C45.5465 64.0567 45.5331 64.1266 45.5211 64.1976C45.5088 64.2686 45.4944 64.3505 45.4824 64.4283C45.4734 64.4786 45.4657 64.5288 45.4589 64.5791C45.4436 64.6763 45.4303 64.7746 45.4169 64.8718C45.4093 64.9286 45.4014 64.9813 45.3948 65.0414L45.3681 65.2598C45.4248 65.439 45.4878 65.6162 45.553 65.7899C45.5947 65.8852 45.6193 65.9868 45.625 66.0906C46.9835 66.4737 48.4237 66.4737 49.7822 66.0906C49.7816 66.0867 49.7816 66.0832 49.7822 66.0796C49.7617 65.9813 49.7527 65.8814 49.7555 65.7812C49.7778 65.5007 49.8149 65.2216 49.8662 64.945C49.8826 64.8087 49.8896 64.6714 49.8872 64.5343V64.4851C49.8839 64.4436 49.8828 64.404 49.8817 64.3647ZM49.8817 64.3647C49.8817 64.321 49.8817 64.2773 49.8741 64.2336C49.8662 64.1899 49.8673 64.1517 49.8618 64.1102C49.8564 64.0687 49.8517 64.0272 49.8463 63.9857C49.8408 63.9441 49.8329 63.9026 49.8253 63.8609C49.8176 63.8193 49.8097 63.7778 49.801 63.7363C49.801 63.7221 49.7953 63.709 49.792 63.6948C49.78 63.6402 49.7666 63.5856 49.7522 63.5299C49.7377 63.4742 49.729 63.4414 49.7156 63.3977C49.7156 63.3781 49.7045 63.3581 49.6979 63.3395C49.6914 63.321 49.6791 63.2762 49.6693 63.2445L49.6494 63.1833C49.6404 63.156 49.6316 63.1287 49.6216 63.1014C49.6049 63.0523 49.5872 63.0042 49.5695 62.9551C49.5517 62.9059 49.5329 62.8578 49.5141 62.8095C49.4765 62.7112 49.4356 62.614 49.3946 62.5168C49.234 62.1385 49.0537 61.7658 48.8876 61.3966C48.7985 61.203 48.7194 61.0047 48.6506 60.8032L48.6296 60.8327C48.5961 60.8829 48.5661 60.9354 48.5399 60.99C48.5399 61.8502 47.6677 62.9026 47.6677 62.9026L46.7898 61.6402L46.0213 62.8062C45.9108 62.8644 45.8001 63.0632 45.7136 63.3461C45.6894 63.4228 45.6659 63.5059 45.6438 63.5943C45.6283 63.6533 45.6141 63.7156 45.6007 63.7778C45.5931 63.8095 45.5863 63.8412 45.5797 63.874L45.5598 63.9736V63.9889C45.5465 64.0567 45.5331 64.1266 45.5211 64.1976C45.5088 64.2686 45.4944 64.3505 45.4824 64.4283C45.4734 64.4786 45.4657 64.5288 45.4589 64.5791C45.4436 64.6763 45.4303 64.7746 45.4169 64.8718C45.4093 64.9286 45.4014 64.9813 45.3948 65.0414L45.3681 65.2598C45.4248 65.439 45.4878 65.6162 45.553 65.7899C45.5947 65.8852 45.6193 65.9868 45.625 66.0906C46.9835 66.4737 48.4237 66.4737 49.7822 66.0906C49.7816 66.0867 49.7816 66.0832 49.7822 66.0796C49.7617 65.9813 49.7527 65.8814 49.7555 65.7812C49.7778 65.5007 49.8149 65.2216 49.8662 64.945C49.8826 64.8087 49.8896 64.6714 49.8872 64.5343V64.4851C49.8839 64.4436 49.8828 64.404 49.8817 64.3647ZM49.8817 64.3647C49.8817 64.321 49.8817 64.2773 49.8741 64.2336C49.8662 64.1899 49.8673 64.1517 49.8618 64.1102C49.8564 64.0687 49.8517 64.0272 49.8463 63.9857C49.8408 63.9441 49.8329 63.9026 49.8253 63.8609C49.8176 63.8193 49.8097 63.7778 49.801 63.7363C49.801 63.7221 49.7953 63.709 49.792 63.6948C49.78 63.6402 49.7666 63.5856 49.7522 63.5299C49.7377 63.4742 49.729 63.4414 49.7156 63.3977C49.7156 63.3781 49.7045 63.3581 49.6979 63.3395C49.6914 63.321 49.6791 63.2762 49.6693 63.2445L49.6494 63.1833C49.6404 63.156 49.6316 63.1287 49.6216 63.1014C49.6049 63.0523 49.5872 63.0042 49.5695 62.9551C49.5517 62.9059 49.5329 62.8578 49.5141 62.8095C49.4765 62.7112 49.4356 62.614 49.3946 62.5168C49.234 62.1385 49.0537 61.7658 48.8876 61.3966C48.7985 61.203 48.7194 61.0047 48.6506 60.8032L48.6296 60.8327C48.5961 60.8829 48.5661 60.9354 48.5399 60.99C48.5399 61.8502 47.6677 62.9026 47.6677 62.9026L46.7898 61.6402L46.0213 62.8062C45.9108 62.8644 45.8001 63.0632 45.7136 63.3461C45.6894 63.4228 45.6659 63.5059 45.6438 63.5943C45.6283 63.6533 45.6141 63.7156 45.6007 63.7778C45.5931 63.8095 45.5863 63.8412 45.5797 63.874L45.5598 63.9736V63.9889C45.5465 64.0567 45.5331 64.1266 45.5211 64.1976C45.5088 64.2686 45.4944 64.3505 45.4824 64.4283C45.4734 64.4786 45.4657 64.5288 45.4589 64.5791C45.4436 64.6763 45.4303 64.7746 45.4169 64.8718C45.4093 64.9286 45.4014 64.9813 45.3948 65.0414L45.3681 65.2598C45.4248 65.439 45.4878 65.6162 45.553 65.7899C45.5947 65.8852 45.6193 65.9868 45.625 66.0906C46.9835 66.4737 48.4237 66.4737 49.7822 66.0906C49.7816 66.0867 49.7816 66.0832 49.7822 66.0796C49.7617 65.9813 49.7527 65.8814 49.7555 65.7812C49.7778 65.5007 49.8149 65.2216 49.8662 64.945C49.8826 64.8087 49.8896 64.6714 49.8872 64.5343V64.4851C49.8839 64.4436 49.8828 64.404 49.8817 64.3647Z" fill="white"/>
<path opacity="0.1" d="M46.8059 61.5667L46.7317 61.5569C46.6199 61.5422 46.5089 61.52 46.3995 61.4914L46.3586 61.4804C46.0886 61.4051 45.793 61.2696 45.7265 61.0312C45.7068 60.9548 45.709 60.8739 45.7333 60.7986C45.7704 60.6686 45.8208 60.5427 45.8838 60.4225V60.416C45.892 60.399 45.9013 60.3827 45.9114 60.3668C46.0027 60.1907 46.141 60.0421 46.3112 59.9373L46.1784 59.958L45.0534 60.1385L43.3098 60.416C43.3098 60.416 43 60.3548 42.5781 61.5023C42.5781 61.5165 42.568 61.5296 42.5636 61.5449C42.4619 61.8259 42.3545 62.1768 42.2437 62.6148C42.1674 62.9187 42.0975 63.217 42.0335 63.5067C42.0146 63.5941 41.9958 63.6804 41.9781 63.7658C42.1777 63.998 42.3926 64.217 42.6212 64.4215L42.6577 64.4554C43.1058 64.8557 43.6008 65.202 44.1324 65.486L44.1534 65.4969C44.4877 65.6749 44.8357 65.8268 45.1941 65.9516L45.2882 65.9843C45.3081 65.782 45.3302 65.5581 45.3569 65.3284C45.3569 65.3055 45.3569 65.2825 45.3656 65.2596L45.3924 65.0411C45.3989 64.9854 45.4065 64.9319 45.4145 64.8718C45.4275 64.7743 45.4409 64.676 45.4565 64.5788C45.463 64.5286 45.4709 64.4783 45.4796 64.4281C45.4919 64.3505 45.5053 64.2727 45.5184 64.1973C45.5317 64.1219 45.544 64.0564 45.5571 63.9887V63.9734L45.577 63.874C45.5838 63.8412 45.5904 63.8095 45.5983 63.7779C45.6114 63.7153 45.6258 63.6531 45.6414 63.5941C45.6635 63.5056 45.6866 63.4226 45.7112 63.3461C45.7995 63.0629 45.9026 62.8641 46.0188 62.8062L46.7871 61.6402L46.8193 61.5908L46.8337 61.5689L46.8059 61.5667Z" fill="black"/>
<path opacity="0.1" d="M45.4077 53.8257C45.2969 53.9767 45.3059 54.1843 45.256 54.3724C45.1377 54.7995 44.6683 55.0674 44.5608 55.4981C44.4976 55.7493 44.5707 56.0161 44.5276 56.2717C44.449 56.7428 44.0129 57.062 43.7694 57.4738C43.6458 57.6862 43.5725 57.9233 43.555 58.1674C43.5376 58.4115 43.5766 58.6565 43.6685 58.8837C43.7255 58.9984 43.7727 59.1175 43.8092 59.2401C43.837 59.4225 43.8253 59.6087 43.7748 59.7865C43.6917 60.1754 43.6066 60.6038 43.7969 60.9547C43.9576 61.2508 44.2906 61.4247 44.626 61.4793C44.9648 61.517 45.3076 61.5017 45.6414 61.4335C46.0077 61.3777 46.3829 61.3133 46.7018 61.1273L45.5028 58.2706C45.3823 57.982 45.2582 57.6838 45.2593 57.3711C45.2691 57.1406 45.3198 56.9134 45.4088 56.7002C45.6408 56.0819 45.9779 55.5073 46.4053 55.0008C46.579 55.1996 46.5657 55.5024 46.7108 55.7231C46.8389 55.8864 47.0097 56.012 47.2044 56.0871C47.7725 56.3607 48.3561 56.6013 48.9526 56.8083C48.9899 56.8129 49.0257 56.8266 49.0565 56.8482C49.0873 56.8697 49.1121 56.8984 49.129 56.9317C49.1459 56.9648 49.1541 57.0019 49.153 57.039C49.1519 57.0762 49.1416 57.1125 49.123 57.145L48.6714 58.9853C48.5716 59.3908 48.4843 59.8597 48.7398 60.1874C48.9957 60.5154 49.5725 60.6705 49.5758 61.0935C49.5711 61.1604 49.5711 61.2276 49.5758 61.2947C49.6058 61.4924 49.8438 61.5875 50.0462 61.5973C50.3789 61.6039 50.7029 61.4933 50.9607 61.2857C51.2184 61.0782 51.3929 60.7871 51.4535 60.464C51.5642 59.7406 51.0793 59.0738 50.8767 58.3689C50.5358 57.1832 50.9874 55.7919 50.3176 54.7504C49.7751 53.9057 48.7865 53.6761 47.8478 53.5712C47.1888 53.4947 45.8716 53.2214 45.4077 53.8257Z" fill="black"/>
<path opacity="0.5" d="M45.4077 53.7164C45.2969 53.8672 45.3059 54.075 45.256 54.2629C45.1377 54.6902 44.6683 54.9579 44.5608 55.3885C44.4976 55.64 44.5707 55.9065 44.5276 56.1624C44.449 56.6335 44.0129 56.9524 43.7694 57.3645C43.6458 57.5767 43.5725 57.8137 43.555 58.0579C43.5376 58.3023 43.5766 58.547 43.6685 58.7744C43.7255 58.8889 43.7727 59.0082 43.8092 59.1305C43.837 59.3132 43.8253 59.4995 43.7748 59.677C43.6917 60.0661 43.6066 60.4946 43.7969 60.8452C43.9576 61.1415 44.2906 61.3152 44.626 61.3698C44.9648 61.4077 45.3076 61.3922 45.6414 61.3239C46.0077 61.2682 46.3829 61.2038 46.7018 61.0181L45.5028 58.1611C45.3823 57.8727 45.2582 57.5742 45.2593 57.2618C45.2691 57.0311 45.3198 56.8042 45.4088 56.5906C45.6408 55.9726 45.9779 55.3978 46.4053 54.8912C46.579 55.0903 46.5657 55.3929 46.7108 55.6138C46.8389 55.7768 47.0097 55.9027 47.2044 55.9775C47.7725 56.2512 48.3561 56.492 48.9526 56.699C48.9899 56.7037 49.0257 56.7173 49.0565 56.7386C49.0873 56.7602 49.1121 56.7889 49.129 56.8222C49.1459 56.8555 49.1541 56.8924 49.153 56.9295C49.1519 56.9669 49.1416 57.0032 49.123 57.0355L48.6714 58.876C48.5716 59.2815 48.4843 59.7501 48.7398 60.0781C48.9957 60.4061 49.5725 60.5612 49.5758 60.9842C49.5711 61.0511 49.5711 61.1183 49.5758 61.1852C49.6058 61.3829 49.8438 61.4782 50.0462 61.488C50.3789 61.4943 50.7029 61.384 50.9607 61.1764C51.2184 60.9689 51.3929 60.6775 51.4535 60.3547C51.5642 59.6311 51.0793 58.9645 50.8767 58.2597C50.5358 57.0737 50.9874 55.6826 50.3176 54.6411C49.7751 53.7962 48.7865 53.5668 47.8478 53.4619C47.1888 53.3852 45.8716 53.1121 45.4077 53.7164Z" fill="#493545"/>
</g>
<g opacity="0.5">
<path opacity="0.5" d="M44.7264 82.9892C44.7362 83.3551 44.484 83.6678 44.2835 83.9726C44.083 84.2776 43.935 84.694 44.1409 84.9988C44.2082 85.0996 44.3102 85.1771 44.371 85.282C44.5846 85.6482 44.2292 86.0687 44.0997 86.471C43.9502 86.9355 44.1242 87.4546 44.4384 87.8317C44.7529 88.2086 45.1868 88.4634 45.6253 88.6873C46.5471 89.1723 47.5363 89.5199 48.5612 89.719C49.0971 89.8162 49.6682 89.8599 50.1709 89.648C50.5197 89.4902 50.8044 89.2212 50.9798 88.8842C51.1551 88.5472 51.2105 88.1619 51.1374 87.7902C51.0101 87.2151 50.5838 86.7531 50.3623 86.2099C50.3108 86.1031 50.2857 85.986 50.2892 85.8677C50.3081 85.6613 50.4687 85.4994 50.5939 85.3322C50.9075 84.877 51.0357 84.3216 50.9525 83.777C50.865 83.2325 50.6539 82.7148 50.3348 82.2623C50.2208 82.0747 50.0702 81.9114 49.8919 81.7814C49.6505 81.6208 49.3516 81.5749 49.0639 81.5345C47.8617 81.3682 46.6161 81.1869 45.4039 81.1257C45.021 81.106 44.7398 81.1803 44.5502 81.5345C44.2614 82.0624 44.712 82.4592 44.7264 82.9892Z" fill="#444176"/>
<path opacity="0.5" d="M50.9176 86.7064L48.6359 89.9097L46.4086 89.7185C46.4086 89.7185 46.3355 90.4837 45.4399 87.7108C44.9397 86.16 45.9569 86.6988 46.1574 86.2695C46.3576 85.84 46.7108 85.4607 46.7408 85.1436C46.8117 84.4639 46.6025 84.077 46.6025 84.077L49.0235 83.7908C48.9141 84.1127 48.9005 84.459 48.9837 84.7886C49.2869 86.0322 50.9176 86.7064 50.9176 86.7064Z" fill="#C77485"/>
<path opacity="0.5" d="M47.4861 83.9753C49.0758 83.9753 50.3645 82.9723 50.3645 81.735C50.3645 80.4977 49.0758 79.4946 47.4861 79.4946C45.8966 79.4946 44.6077 80.4977 44.6077 81.735C44.6077 82.9723 45.8966 83.9753 47.4861 83.9753Z" fill="#444176"/>
<path opacity="0.1" d="M48.9825 84.7875C48.6667 85.0235 48.2969 85.1794 47.9058 85.2417C47.515 85.3037 47.1143 85.2701 46.7393 85.1436C46.8103 84.4639 46.6011 84.077 46.6011 84.077L49.0223 83.7908C48.9133 84.1125 48.8993 84.4582 48.9825 84.7875Z" fill="black"/>
<path opacity="0.5" d="M47.5229 85.176C48.8601 85.176 49.9439 84.1061 49.9439 82.786C49.9439 81.466 48.8601 80.3958 47.5229 80.3958C46.1857 80.3958 45.1016 81.466 45.1016 82.786C45.1016 84.1061 46.1857 85.176 47.5229 85.176Z" fill="#C77485"/>
<path opacity="0.1" d="M50.6787 87.069L50.6222 86.8506L50.5734 86.6581L50.5017 86.3741L50.4883 86.3216L50.4771 86.2779C50.4771 86.2779 50.5346 86.1062 50.155 86.1619L50.0841 86.1739C50.0244 86.1859 49.9546 86.2023 49.8749 86.2241L49.8029 86.246L49.7077 86.2757C49.4064 86.3724 49.1315 86.5363 48.904 86.7542C48.802 86.8506 48.7117 86.9584 48.6351 87.0756C48.6272 87.0865 48.6217 87.0963 48.6152 87.1051C48.589 87.1458 48.5656 87.1881 48.5454 87.2318C48.5454 88.0931 47.6729 89.1444 47.6729 89.1444L46.8217 87.9303L46.8051 87.9063L46.6025 87.6155L46.5305 87.5215L46.5062 87.4888L46.0633 86.9019L45.9526 86.7553L45.916 86.7061L45.8617 86.6351L45.7347 86.468L45.2364 86.7553L44.572 87.1379L44.1847 89.6242V89.6931L44.1967 89.8984L44.2777 91.2493V91.2679L44.1359 91.8275L44.1569 91.8384C44.4913 92.0164 44.8393 92.1685 45.1977 92.2931L45.2917 92.3258C45.4025 92.3619 45.5064 92.3946 45.6149 92.4263C45.619 92.4424 45.622 92.4591 45.6239 92.4755C45.6239 92.4602 45.6239 92.4438 45.6239 92.4285C46.9824 92.8119 48.4224 92.8119 49.7808 92.4285L49.8062 92.4209C49.8695 92.4034 49.9336 92.3848 49.9957 92.3641L50.0964 92.3324C50.3696 92.2423 50.6372 92.1363 50.8979 92.0153L50.9909 90.0593L51.0572 88.6483V88.5674L50.6787 87.069Z" fill="black"/>
<path opacity="0.5" d="M49.8819 90.7026C49.8819 90.6589 49.8819 90.615 49.8742 90.5713C49.8663 90.5276 49.8674 90.4893 49.8619 90.4478C49.8565 90.4063 49.8519 90.3648 49.8464 90.3233C49.8409 90.2818 49.833 90.2403 49.8254 90.1988C49.8178 90.1573 49.8099 90.1158 49.8011 90.074C49.8011 90.0598 49.7954 90.0467 49.7921 90.0325C49.7801 89.9779 49.7668 89.9232 49.7523 89.8675C49.7379 89.8118 49.7291 89.7791 49.7158 89.7354C49.7158 89.7157 49.7046 89.696 49.698 89.6775C49.6915 89.6589 49.6792 89.6141 49.6694 89.5824L49.6495 89.521C49.6405 89.4937 49.6318 89.4664 49.6217 89.4391C49.605 89.3899 49.5873 89.3419 49.5696 89.2927C49.5519 89.2436 49.533 89.1955 49.5142 89.1474C49.4766 89.0491 49.4357 88.9516 49.3948 88.8544C49.2341 88.4762 49.0539 88.1037 48.8878 87.7342C48.7986 87.5406 48.7195 87.3426 48.6508 87.1408L48.6298 87.1703C48.5962 87.2206 48.5662 87.2733 48.54 87.3276C48.54 88.1878 47.6679 89.2403 47.6679 89.2403L46.7899 87.9781L46.0214 89.1441C45.9109 89.202 45.8002 89.4008 45.7138 89.684C45.6895 89.7605 45.666 89.8435 45.6439 89.932C45.6284 89.991 45.6142 90.0532 45.6009 90.1158C45.5932 90.1474 45.5864 90.1791 45.5799 90.2119L45.5599 90.3113V90.3266C45.5466 90.3943 45.5332 90.4642 45.5212 90.5352C45.5089 90.6062 45.4945 90.6884 45.4825 90.766C45.4735 90.8162 45.4659 90.8665 45.459 90.9167C45.4438 91.0139 45.4304 91.1122 45.417 91.2097C45.4094 91.2665 45.4015 91.319 45.3949 91.379L45.3682 91.5975C45.4249 91.7769 45.4879 91.9539 45.5531 92.1275C45.5949 92.2229 45.6194 92.3247 45.6251 92.4282C46.9836 92.8113 48.4239 92.8113 49.7823 92.4282C49.7818 92.4247 49.7818 92.4208 49.7823 92.4173C49.7619 92.3193 49.7529 92.219 49.7556 92.1188C49.7779 91.8386 49.815 91.5595 49.8663 91.2829C49.8827 91.1464 49.8898 91.0093 49.8873 90.8719V90.8228C49.884 90.7813 49.8829 90.7419 49.8819 90.7026ZM49.8819 90.7026C49.8819 90.6589 49.8819 90.615 49.8742 90.5713C49.8663 90.5276 49.8674 90.4893 49.8619 90.4478C49.8565 90.4063 49.8519 90.3648 49.8464 90.3233C49.8409 90.2818 49.833 90.2403 49.8254 90.1988C49.8178 90.1573 49.8099 90.1158 49.8011 90.074C49.8011 90.0598 49.7954 90.0467 49.7921 90.0325C49.7801 89.9779 49.7668 89.9232 49.7523 89.8675C49.7379 89.8118 49.7291 89.7791 49.7158 89.7354C49.7158 89.7157 49.7046 89.696 49.698 89.6775C49.6915 89.6589 49.6792 89.6141 49.6694 89.5824L49.6495 89.521C49.6405 89.4937 49.6318 89.4664 49.6217 89.4391C49.605 89.3899 49.5873 89.3419 49.5696 89.2927C49.5519 89.2436 49.533 89.1955 49.5142 89.1474C49.4766 89.0491 49.4357 88.9516 49.3948 88.8544C49.2341 88.4762 49.0539 88.1037 48.8878 87.7342C48.7986 87.5406 48.7195 87.3426 48.6508 87.1408L48.6298 87.1703C48.5962 87.2206 48.5662 87.2733 48.54 87.3276C48.54 88.1878 47.6679 89.2403 47.6679 89.2403L46.7899 87.9781L46.0214 89.1441C45.9109 89.202 45.8002 89.4008 45.7138 89.684C45.6895 89.7605 45.666 89.8435 45.6439 89.932C45.6284 89.991 45.6142 90.0532 45.6009 90.1158C45.5932 90.1474 45.5864 90.1791 45.5799 90.2119L45.5599 90.3113V90.3266C45.5466 90.3943 45.5332 90.4642 45.5212 90.5352C45.5089 90.6062 45.4945 90.6884 45.4825 90.766C45.4735 90.8162 45.4659 90.8665 45.459 90.9167C45.4438 91.0139 45.4304 91.1122 45.417 91.2097C45.4094 91.2665 45.4015 91.319 45.3949 91.379L45.3682 91.5975C45.4249 91.7769 45.4879 91.9539 45.5531 92.1275C45.5949 92.2229 45.6194 92.3247 45.6251 92.4282C46.9836 92.8113 48.4239 92.8113 49.7823 92.4282C49.7818 92.4247 49.7818 92.4208 49.7823 92.4173C49.7619 92.3193 49.7529 92.219 49.7556 92.1188C49.7779 91.8386 49.815 91.5595 49.8663 91.2829C49.8827 91.1464 49.8898 91.0093 49.8873 90.8719V90.8228C49.884 90.7813 49.8829 90.7419 49.8819 90.7026ZM49.8819 90.7026C49.8819 90.6589 49.8819 90.615 49.8742 90.5713C49.8663 90.5276 49.8674 90.4893 49.8619 90.4478C49.8565 90.4063 49.8519 90.3648 49.8464 90.3233C49.8409 90.2818 49.833 90.2403 49.8254 90.1988C49.8178 90.1573 49.8099 90.1158 49.8011 90.074C49.8011 90.0598 49.7954 90.0467 49.7921 90.0325C49.7801 89.9779 49.7668 89.9232 49.7523 89.8675C49.7379 89.8118 49.7291 89.7791 49.7158 89.7354C49.7158 89.7157 49.7046 89.696 49.698 89.6775C49.6915 89.6589 49.6792 89.6141 49.6694 89.5824L49.6495 89.521C49.6405 89.4937 49.6318 89.4664 49.6217 89.4391C49.605 89.3899 49.5873 89.3419 49.5696 89.2927C49.5519 89.2436 49.533 89.1955 49.5142 89.1474C49.4766 89.0491 49.4357 88.9516 49.3948 88.8544C49.2341 88.4762 49.0539 88.1037 48.8878 87.7342C48.7986 87.5406 48.7195 87.3426 48.6508 87.1408L48.6298 87.1703C48.5962 87.2206 48.5662 87.2733 48.54 87.3276C48.54 88.1878 47.6679 89.2403 47.6679 89.2403L46.7899 87.9781L46.0214 89.1441C45.9109 89.202 45.8002 89.4008 45.7138 89.684C45.6895 89.7605 45.666 89.8435 45.6439 89.932C45.6284 89.991 45.6142 90.0532 45.6009 90.1158C45.5932 90.1474 45.5864 90.1791 45.5799 90.2119L45.5599 90.3113V90.3266C45.5466 90.3943 45.5332 90.4642 45.5212 90.5352C45.5089 90.6062 45.4945 90.6884 45.4825 90.766C45.4735 90.8162 45.4659 90.8665 45.459 90.9167C45.4438 91.0139 45.4304 91.1122 45.417 91.2097C45.4094 91.2665 45.4015 91.319 45.3949 91.379L45.3682 91.5975C45.4249 91.7769 45.4879 91.9539 45.5531 92.1275C45.5949 92.2229 45.6194 92.3247 45.6251 92.4282C46.9836 92.8113 48.4239 92.8113 49.7823 92.4282C49.7818 92.4247 49.7818 92.4208 49.7823 92.4173C49.7619 92.3193 49.7529 92.219 49.7556 92.1188C49.7779 91.8386 49.815 91.5595 49.8663 91.2829C49.8827 91.1464 49.8898 91.0093 49.8873 90.8719V90.8228C49.884 90.7813 49.8829 90.7419 49.8819 90.7026ZM51.0554 88.6512L50.6602 87.0939L50.5926 86.8271L50.5738 86.7539L50.4775 86.3738C50.4778 86.3705 50.4778 86.3669 50.4775 86.3636C50.4797 86.347 50.4769 86.3298 50.4696 86.3145C50.4554 86.2861 50.4189 86.2566 50.3335 86.249C50.301 86.2468 50.2686 86.2468 50.2361 86.249C50.1399 86.2585 50.0447 86.276 49.9517 86.3014C49.9061 86.3134 49.8576 86.3265 49.8055 86.3429L49.7103 86.3727H49.7013C49.4463 86.4551 49.2096 86.5848 49.0039 86.755C48.8681 86.8669 48.7487 86.9972 48.6497 87.1419L48.6287 87.1714C48.5949 87.2217 48.5651 87.2744 48.5389 87.3287C48.5389 88.1889 47.6665 89.2414 47.6665 89.2414L46.7886 87.9792L46.739 87.9079L46.7299 87.8959L46.6029 87.7113L46.5063 87.5846L46.4809 87.5518L46.0271 86.954L45.8831 86.7604V86.7539L45.8332 86.6872L45.738 86.5627L45.4061 86.7539L44.5757 87.2315L44.1928 89.6917V89.7179L44.2037 89.897L44.2858 91.2665V91.3441L44.1606 91.837C44.4949 92.015 44.8429 92.1669 45.2013 92.2917L45.2954 92.3244C45.4061 92.3605 45.51 92.3933 45.6186 92.4249C45.6227 92.441 45.6254 92.4574 45.6273 92.4741C45.6273 92.4588 45.6273 92.4424 45.6273 92.4271C46.9858 92.8103 48.426 92.8103 49.7845 92.4271L49.8099 92.4195C49.8729 92.402 49.9372 92.3834 49.9991 92.3627L50.1 92.331C50.373 92.2406 50.6409 92.1349 50.9016 92.0139L50.9932 90.0598L51.0598 88.6643L51.0554 88.6512ZM45.6107 92.4249C45.6148 92.441 45.6178 92.4574 45.6197 92.4741C45.6197 92.4588 45.6197 92.4424 45.6197 92.4271L45.6107 92.4249ZM49.8819 90.7026C49.8819 90.6589 49.8819 90.615 49.8742 90.5713C49.8663 90.5276 49.8674 90.4893 49.8619 90.4478C49.8565 90.4063 49.8519 90.3648 49.8464 90.3233C49.8409 90.2818 49.833 90.2403 49.8254 90.1988C49.8178 90.1573 49.8099 90.1158 49.8011 90.074C49.8011 90.0598 49.7954 90.0467 49.7921 90.0325C49.7801 89.9779 49.7668 89.9232 49.7523 89.8675C49.7379 89.8118 49.7291 89.7791 49.7158 89.7354C49.7158 89.7157 49.7046 89.696 49.698 89.6775C49.6915 89.6589 49.6792 89.6141 49.6694 89.5824L49.6495 89.521C49.6405 89.4937 49.6318 89.4664 49.6217 89.4391C49.605 89.3899 49.5873 89.3419 49.5696 89.2927C49.5519 89.2436 49.533 89.1955 49.5142 89.1474C49.4766 89.0491 49.4357 88.9516 49.3948 88.8544C49.2341 88.4762 49.0539 88.1037 48.8878 87.7342C48.7986 87.5406 48.7195 87.3426 48.6508 87.1408L48.6298 87.1703C48.5962 87.2206 48.5662 87.2733 48.54 87.3276C48.54 88.1878 47.6679 89.2403 47.6679 89.2403L46.7899 87.9781L46.0214 89.1441C45.9109 89.202 45.8002 89.4008 45.7138 89.684C45.6895 89.7605 45.666 89.8435 45.6439 89.932C45.6284 89.991 45.6142 90.0532 45.6009 90.1158C45.5932 90.1474 45.5864 90.1791 45.5799 90.2119L45.5599 90.3113V90.3266C45.5466 90.3943 45.5332 90.4642 45.5212 90.5352C45.5089 90.6062 45.4945 90.6884 45.4825 90.766C45.4735 90.8162 45.4659 90.8665 45.459 90.9167C45.4438 91.0139 45.4304 91.1122 45.417 91.2097C45.4094 91.2665 45.4015 91.319 45.3949 91.379L45.3682 91.5975C45.4249 91.7769 45.4879 91.9539 45.5531 92.1275C45.5949 92.2229 45.6194 92.3247 45.6251 92.4282C46.9836 92.8113 48.4239 92.8113 49.7823 92.4282C49.7818 92.4247 49.7818 92.4208 49.7823 92.4173C49.7619 92.3193 49.7529 92.219 49.7556 92.1188C49.7779 91.8386 49.815 91.5595 49.8663 91.2829C49.8827 91.1464 49.8898 91.0093 49.8873 90.8719V90.8228C49.884 90.7813 49.8829 90.7419 49.8819 90.7026ZM49.8819 90.7026C49.8819 90.6589 49.8819 90.615 49.8742 90.5713C49.8663 90.5276 49.8674 90.4893 49.8619 90.4478C49.8565 90.4063 49.8519 90.3648 49.8464 90.3233C49.8409 90.2818 49.833 90.2403 49.8254 90.1988C49.8178 90.1573 49.8099 90.1158 49.8011 90.074C49.8011 90.0598 49.7954 90.0467 49.7921 90.0325C49.7801 89.9779 49.7668 89.9232 49.7523 89.8675C49.7379 89.8118 49.7291 89.7791 49.7158 89.7354C49.7158 89.7157 49.7046 89.696 49.698 89.6775C49.6915 89.6589 49.6792 89.6141 49.6694 89.5824L49.6495 89.521C49.6405 89.4937 49.6318 89.4664 49.6217 89.4391C49.605 89.3899 49.5873 89.3419 49.5696 89.2927C49.5519 89.2436 49.533 89.1955 49.5142 89.1474C49.4766 89.0491 49.4357 88.9516 49.3948 88.8544C49.2341 88.4762 49.0539 88.1037 48.8878 87.7342C48.7986 87.5406 48.7195 87.3426 48.6508 87.1408L48.6298 87.1703C48.5962 87.2206 48.5662 87.2733 48.54 87.3276C48.54 88.1878 47.6679 89.2403 47.6679 89.2403L46.7899 87.9781L46.0214 89.1441C45.9109 89.202 45.8002 89.4008 45.7138 89.684C45.6895 89.7605 45.666 89.8435 45.6439 89.932C45.6284 89.991 45.6142 90.0532 45.6009 90.1158C45.5932 90.1474 45.5864 90.1791 45.5799 90.2119L45.5599 90.3113V90.3266C45.5466 90.3943 45.5332 90.4642 45.5212 90.5352C45.5089 90.6062 45.4945 90.6884 45.4825 90.766C45.4735 90.8162 45.4659 90.8665 45.459 90.9167C45.4438 91.0139 45.4304 91.1122 45.417 91.2097C45.4094 91.2665 45.4015 91.319 45.3949 91.379L45.3682 91.5975C45.4249 91.7769 45.4879 91.9539 45.5531 92.1275C45.5949 92.2229 45.6194 92.3247 45.6251 92.4282C46.9836 92.8113 48.4239 92.8113 49.7823 92.4282C49.7818 92.4247 49.7818 92.4208 49.7823 92.4173C49.7619 92.3193 49.7529 92.219 49.7556 92.1188C49.7779 91.8386 49.815 91.5595 49.8663 91.2829C49.8827 91.1464 49.8898 91.0093 49.8873 90.8719V90.8228C49.884 90.7813 49.8829 90.7419 49.8819 90.7026ZM49.8819 90.7026C49.8819 90.6589 49.8819 90.615 49.8742 90.5713C49.8663 90.5276 49.8674 90.4893 49.8619 90.4478C49.8565 90.4063 49.8519 90.3648 49.8464 90.3233C49.8409 90.2818 49.833 90.2403 49.8254 90.1988C49.8178 90.1573 49.8099 90.1158 49.8011 90.074C49.8011 90.0598 49.7954 90.0467 49.7921 90.0325C49.7801 89.9779 49.7668 89.9232 49.7523 89.8675C49.7379 89.8118 49.7291 89.7791 49.7158 89.7354C49.7158 89.7157 49.7046 89.696 49.698 89.6775C49.6915 89.6589 49.6792 89.6141 49.6694 89.5824L49.6495 89.521C49.6405 89.4937 49.6318 89.4664 49.6217 89.4391C49.605 89.3899 49.5873 89.3419 49.5696 89.2927C49.5519 89.2436 49.533 89.1955 49.5142 89.1474C49.4766 89.0491 49.4357 88.9516 49.3948 88.8544C49.2341 88.4762 49.0539 88.1037 48.8878 87.7342C48.7986 87.5406 48.7195 87.3426 48.6508 87.1408L48.6298 87.1703C48.5962 87.2206 48.5662 87.2733 48.54 87.3276C48.54 88.1878 47.6679 89.2403 47.6679 89.2403L46.7899 87.9781L46.0214 89.1441C45.9109 89.202 45.8002 89.4008 45.7138 89.684C45.6895 89.7605 45.666 89.8435 45.6439 89.932C45.6284 89.991 45.6142 90.0532 45.6009 90.1158C45.5932 90.1474 45.5864 90.1791 45.5799 90.2119L45.5599 90.3113V90.3266C45.5466 90.3943 45.5332 90.4642 45.5212 90.5352C45.5089 90.6062 45.4945 90.6884 45.4825 90.766C45.4735 90.8162 45.4659 90.8665 45.459 90.9167C45.4438 91.0139 45.4304 91.1122 45.417 91.2097C45.4094 91.2665 45.4015 91.319 45.3949 91.379L45.3682 91.5975C45.4249 91.7769 45.4879 91.9539 45.5531 92.1275C45.5949 92.2229 45.6194 92.3247 45.6251 92.4282C46.9836 92.8113 48.4239 92.8113 49.7823 92.4282C49.7818 92.4247 49.7818 92.4208 49.7823 92.4173C49.7619 92.3193 49.7529 92.219 49.7556 92.1188C49.7779 91.8386 49.815 91.5595 49.8663 91.2829C49.8827 91.1464 49.8898 91.0093 49.8873 90.8719V90.8228C49.884 90.7813 49.8829 90.7419 49.8819 90.7026ZM49.8819 90.7026C49.8819 90.6589 49.8819 90.615 49.8742 90.5713C49.8663 90.5276 49.8674 90.4893 49.8619 90.4478C49.8565 90.4063 49.8519 90.3648 49.8464 90.3233C49.8409 90.2818 49.833 90.2403 49.8254 90.1988C49.8178 90.1573 49.8099 90.1158 49.8011 90.074C49.8011 90.0598 49.7954 90.0467 49.7921 90.0325C49.7801 89.9779 49.7668 89.9232 49.7523 89.8675C49.7379 89.8118 49.7291 89.7791 49.7158 89.7354C49.7158 89.7157 49.7046 89.696 49.698 89.6775C49.6915 89.6589 49.6792 89.6141 49.6694 89.5824L49.6495 89.521C49.6405 89.4937 49.6318 89.4664 49.6217 89.4391C49.605 89.3899 49.5873 89.3419 49.5696 89.2927C49.5519 89.2436 49.533 89.1955 49.5142 89.1474C49.4766 89.0491 49.4357 88.9516 49.3948 88.8544C49.2341 88.4762 49.0539 88.1037 48.8878 87.7342C48.7986 87.5406 48.7195 87.3426 48.6508 87.1408L48.6298 87.1703C48.5962 87.2206 48.5662 87.2733 48.54 87.3276C48.54 88.1878 47.6679 89.2403 47.6679 89.2403L46.7899 87.9781L46.0214 89.1441C45.9109 89.202 45.8002 89.4008 45.7138 89.684C45.6895 89.7605 45.666 89.8435 45.6439 89.932C45.6284 89.991 45.6142 90.0532 45.6009 90.1158C45.5932 90.1474 45.5864 90.1791 45.5799 90.2119L45.5599 90.3113V90.3266C45.5466 90.3943 45.5332 90.4642 45.5212 90.5352C45.5089 90.6062 45.4945 90.6884 45.4825 90.766C45.4735 90.8162 45.4659 90.8665 45.459 90.9167C45.4438 91.0139 45.4304 91.1122 45.417 91.2097C45.4094 91.2665 45.4015 91.319 45.3949 91.379L45.3682 91.5975C45.4249 91.7769 45.4879 91.9539 45.5531 92.1275C45.5949 92.2229 45.6194 92.3247 45.6251 92.4282C46.9836 92.8113 48.4239 92.8113 49.7823 92.4282C49.7818 92.4247 49.7818 92.4208 49.7823 92.4173C49.7619 92.3193 49.7529 92.219 49.7556 92.1188C49.7779 91.8386 49.815 91.5595 49.8663 91.2829C49.8827 91.1464 49.8898 91.0093 49.8873 90.8719V90.8228C49.884 90.7813 49.8829 90.7419 49.8819 90.7026ZM49.8819 90.7026C49.8819 90.6589 49.8819 90.615 49.8742 90.5713C49.8663 90.5276 49.8674 90.4893 49.8619 90.4478C49.8565 90.4063 49.8519 90.3648 49.8464 90.3233C49.8409 90.2818 49.833 90.2403 49.8254 90.1988C49.8178 90.1573 49.8099 90.1158 49.8011 90.074C49.8011 90.0598 49.7954 90.0467 49.7921 90.0325C49.7801 89.9779 49.7668 89.9232 49.7523 89.8675C49.7379 89.8118 49.7291 89.7791 49.7158 89.7354C49.7158 89.7157 49.7046 89.696 49.698 89.6775C49.6915 89.6589 49.6792 89.6141 49.6694 89.5824L49.6495 89.521C49.6405 89.4937 49.6318 89.4664 49.6217 89.4391C49.605 89.3899 49.5873 89.3419 49.5696 89.2927C49.5519 89.2436 49.533 89.1955 49.5142 89.1474C49.4766 89.0491 49.4357 88.9516 49.3948 88.8544C49.2341 88.4762 49.0539 88.1037 48.8878 87.7342C48.7986 87.5406 48.7195 87.3426 48.6508 87.1408L48.6298 87.1703C48.5962 87.2206 48.5662 87.2733 48.54 87.3276C48.54 88.1878 47.6679 89.2403 47.6679 89.2403L46.7899 87.9781L46.0214 89.1441C45.9109 89.202 45.8002 89.4008 45.7138 89.684C45.6895 89.7605 45.666 89.8435 45.6439 89.932C45.6284 89.991 45.6142 90.0532 45.6009 90.1158C45.5932 90.1474 45.5864 90.1791 45.5799 90.2119L45.5599 90.3113V90.3266C45.5466 90.3943 45.5332 90.4642 45.5212 90.5352C45.5089 90.6062 45.4945 90.6884 45.4825 90.766C45.4735 90.8162 45.4659 90.8665 45.459 90.9167C45.4438 91.0139 45.4304 91.1122 45.417 91.2097C45.4094 91.2665 45.4015 91.319 45.3949 91.379L45.3682 91.5975C45.4249 91.7769 45.4879 91.9539 45.5531 92.1275C45.5949 92.2229 45.6194 92.3247 45.6251 92.4282C46.9836 92.8113 48.4239 92.8113 49.7823 92.4282C49.7818 92.4247 49.7818 92.4208 49.7823 92.4173C49.7619 92.3193 49.7529 92.219 49.7556 92.1188C49.7779 91.8386 49.815 91.5595 49.8663 91.2829C49.8827 91.1464 49.8898 91.0093 49.8873 90.8719V90.8228C49.884 90.7813 49.8829 90.7419 49.8819 90.7026ZM49.8819 90.7026C49.8819 90.6589 49.8819 90.615 49.8742 90.5713C49.8663 90.5276 49.8674 90.4893 49.8619 90.4478C49.8565 90.4063 49.8519 90.3648 49.8464 90.3233C49.8409 90.2818 49.833 90.2403 49.8254 90.1988C49.8178 90.1573 49.8099 90.1158 49.8011 90.074C49.8011 90.0598 49.7954 90.0467 49.7921 90.0325C49.7801 89.9779 49.7668 89.9232 49.7523 89.8675C49.7379 89.8118 49.7291 89.7791 49.7158 89.7354C49.7158 89.7157 49.7046 89.696 49.698 89.6775C49.6915 89.6589 49.6792 89.6141 49.6694 89.5824L49.6495 89.521C49.6405 89.4937 49.6318 89.4664 49.6217 89.4391C49.605 89.3899 49.5873 89.3419 49.5696 89.2927C49.5519 89.2436 49.533 89.1955 49.5142 89.1474C49.4766 89.0491 49.4357 88.9516 49.3948 88.8544C49.2341 88.4762 49.0539 88.1037 48.8878 87.7342C48.7986 87.5406 48.7195 87.3426 48.6508 87.1408L48.6298 87.1703C48.5962 87.2206 48.5662 87.2733 48.54 87.3276C48.54 88.1878 47.6679 89.2403 47.6679 89.2403L46.7899 87.9781L46.0214 89.1441C45.9109 89.202 45.8002 89.4008 45.7138 89.684C45.6895 89.7605 45.666 89.8435 45.6439 89.932C45.6284 89.991 45.6142 90.0532 45.6009 90.1158C45.5932 90.1474 45.5864 90.1791 45.5799 90.2119L45.5599 90.3113V90.3266C45.5466 90.3943 45.5332 90.4642 45.5212 90.5352C45.5089 90.6062 45.4945 90.6884 45.4825 90.766C45.4735 90.8162 45.4659 90.8665 45.459 90.9167C45.4438 91.0139 45.4304 91.1122 45.417 91.2097C45.4094 91.2665 45.4015 91.319 45.3949 91.379L45.3682 91.5975C45.4249 91.7769 45.4879 91.9539 45.5531 92.1275C45.5949 92.2229 45.6194 92.3247 45.6251 92.4282C46.9836 92.8113 48.4239 92.8113 49.7823 92.4282C49.7818 92.4247 49.7818 92.4208 49.7823 92.4173C49.7619 92.3193 49.7529 92.219 49.7556 92.1188C49.7779 91.8386 49.815 91.5595 49.8663 91.2829C49.8827 91.1464 49.8898 91.0093 49.8873 90.8719V90.8228C49.884 90.7813 49.8829 90.7419 49.8819 90.7026ZM49.8819 90.7026C49.8819 90.6589 49.8819 90.615 49.8742 90.5713C49.8663 90.5276 49.8674 90.4893 49.8619 90.4478C49.8565 90.4063 49.8519 90.3648 49.8464 90.3233C49.8409 90.2818 49.833 90.2403 49.8254 90.1988C49.8178 90.1573 49.8099 90.1158 49.8011 90.074C49.8011 90.0598 49.7954 90.0467 49.7921 90.0325C49.7801 89.9779 49.7668 89.9232 49.7523 89.8675C49.7379 89.8118 49.7291 89.7791 49.7158 89.7354C49.7158 89.7157 49.7046 89.696 49.698 89.6775C49.6915 89.6589 49.6792 89.6141 49.6694 89.5824L49.6495 89.521C49.6405 89.4937 49.6318 89.4664 49.6217 89.4391C49.605 89.3899 49.5873 89.3419 49.5696 89.2927C49.5519 89.2436 49.533 89.1955 49.5142 89.1474C49.4766 89.0491 49.4357 88.9516 49.3948 88.8544C49.2341 88.4762 49.0539 88.1037 48.8878 87.7342C48.7986 87.5406 48.7195 87.3426 48.6508 87.1408L48.6298 87.1703C48.5962 87.2206 48.5662 87.2733 48.54 87.3276C48.54 88.1878 47.6679 89.2403 47.6679 89.2403L46.7899 87.9781L46.0214 89.1441C45.9109 89.202 45.8002 89.4008 45.7138 89.684C45.6895 89.7605 45.666 89.8435 45.6439 89.932C45.6284 89.991 45.6142 90.0532 45.6009 90.1158C45.5932 90.1474 45.5864 90.1791 45.5799 90.2119L45.5599 90.3113V90.3266C45.5466 90.3943 45.5332 90.4642 45.5212 90.5352C45.5089 90.6062 45.4945 90.6884 45.4825 90.766C45.4735 90.8162 45.4659 90.8665 45.459 90.9167C45.4438 91.0139 45.4304 91.1122 45.417 91.2097C45.4094 91.2665 45.4015 91.319 45.3949 91.379L45.3682 91.5975C45.4249 91.7769 45.4879 91.9539 45.5531 92.1275C45.5949 92.2229 45.6194 92.3247 45.6251 92.4282C46.9836 92.8113 48.4239 92.8113 49.7823 92.4282C49.7818 92.4247 49.7818 92.4208 49.7823 92.4173C49.7619 92.3193 49.7529 92.219 49.7556 92.1188C49.7779 91.8386 49.815 91.5595 49.8663 91.2829C49.8827 91.1464 49.8898 91.0093 49.8873 90.8719V90.8228C49.884 90.7813 49.8829 90.7419 49.8819 90.7026ZM49.8819 90.7026C49.8819 90.6589 49.8819 90.615 49.8742 90.5713C49.8663 90.5276 49.8674 90.4893 49.8619 90.4478C49.8565 90.4063 49.8519 90.3648 49.8464 90.3233C49.8409 90.2818 49.833 90.2403 49.8254 90.1988C49.8178 90.1573 49.8099 90.1158 49.8011 90.074C49.8011 90.0598 49.7954 90.0467 49.7921 90.0325C49.7801 89.9779 49.7668 89.9232 49.7523 89.8675C49.7379 89.8118 49.7291 89.7791 49.7158 89.7354C49.7158 89.7157 49.7046 89.696 49.698 89.6775C49.6915 89.6589 49.6792 89.6141 49.6694 89.5824L49.6495 89.521C49.6405 89.4937 49.6318 89.4664 49.6217 89.4391C49.605 89.3899 49.5873 89.3419 49.5696 89.2927C49.5519 89.2436 49.533 89.1955 49.5142 89.1474C49.4766 89.0491 49.4357 88.9516 49.3948 88.8544C49.2341 88.4762 49.0539 88.1037 48.8878 87.7342C48.7986 87.5406 48.7195 87.3426 48.6508 87.1408L48.6298 87.1703C48.5962 87.2206 48.5662 87.2733 48.54 87.3276C48.54 88.1878 47.6679 89.2403 47.6679 89.2403L46.7899 87.9781L46.0214 89.1441C45.9109 89.202 45.8002 89.4008 45.7138 89.684C45.6895 89.7605 45.666 89.8435 45.6439 89.932C45.6284 89.991 45.6142 90.0532 45.6009 90.1158C45.5932 90.1474 45.5864 90.1791 45.5799 90.2119L45.5599 90.3113V90.3266C45.5466 90.3943 45.5332 90.4642 45.5212 90.5352C45.5089 90.6062 45.4945 90.6884 45.4825 90.766C45.4735 90.8162 45.4659 90.8665 45.459 90.9167C45.4438 91.0139 45.4304 91.1122 45.417 91.2097C45.4094 91.2665 45.4015 91.319 45.3949 91.379L45.3682 91.5975C45.4249 91.7769 45.4879 91.9539 45.5531 92.1275C45.5949 92.2229 45.6194 92.3247 45.6251 92.4282C46.9836 92.8113 48.4239 92.8113 49.7823 92.4282C49.7818 92.4247 49.7818 92.4208 49.7823 92.4173C49.7619 92.3193 49.7529 92.219 49.7556 92.1188C49.7779 91.8386 49.815 91.5595 49.8663 91.2829C49.8827 91.1464 49.8898 91.0093 49.8873 90.8719V90.8228C49.884 90.7813 49.8829 90.7419 49.8819 90.7026Z" fill="#444176"/>
<path opacity="0.1" d="M46.8054 87.9052L46.7312 87.8954C46.6194 87.8804 46.5084 87.8585 46.3993 87.8296L46.3581 87.8187C46.0881 87.7433 45.7925 87.6078 45.7262 87.3697C45.7063 87.293 45.7085 87.2124 45.7328 87.1368C45.7699 87.0068 45.8203 86.8809 45.8833 86.7607V86.7542C45.8915 86.7375 45.9008 86.7211 45.9109 86.705C46.0022 86.5289 46.1405 86.3803 46.3107 86.2758L46.1779 86.2965L45.0532 86.4767L43.3093 86.7542C43.3093 86.7542 42.9995 86.693 42.5776 87.8405C42.5776 87.855 42.5678 87.8681 42.5631 87.8834C42.4614 88.1641 42.354 88.515 42.2432 88.9533C42.1669 89.257 42.0971 89.5555 42.033 89.8449C42.0141 89.9323 41.9953 90.0189 41.9776 90.1041C42.1772 90.3362 42.3921 90.5552 42.6207 90.7597L42.6572 90.7936C43.1053 91.1942 43.6003 91.5402 44.1319 91.8242L44.1529 91.8351C44.4872 92.0132 44.8352 92.1653 45.1936 92.2898L45.2877 92.3226C45.3076 92.1205 45.3297 91.8963 45.3564 91.6669C45.3564 91.644 45.3564 91.621 45.3651 91.5981L45.3919 91.3793C45.3984 91.3236 45.4061 91.2701 45.414 91.21C45.4273 91.1128 45.4404 91.0142 45.456 90.917C45.4625 90.8668 45.4704 90.8165 45.4791 90.7663C45.4914 90.6887 45.5048 90.6112 45.5179 90.5358C45.5312 90.4602 45.5435 90.3946 45.5566 90.3269V90.3116L45.5768 90.2122C45.5833 90.1794 45.5899 90.1478 45.5978 90.1161C45.6109 90.0538 45.6253 89.9916 45.6409 89.9323C45.663 89.8438 45.6861 89.7608 45.7107 89.6843C45.7991 89.4012 45.9021 89.2024 46.0183 89.1445L46.7866 87.9784L46.8188 87.9293L46.8332 87.9074L46.8054 87.9052Z" fill="black"/>
<path opacity="0.1" d="M46.99 82.0864C47.3356 82.0285 47.683 81.904 48.0264 81.9772C48.3141 82.0362 48.5544 82.2252 48.8179 82.3565C49.0723 82.4827 49.3505 82.5553 49.635 82.5695C49.7386 82.5829 49.8439 82.5627 49.935 82.5116C50.0721 82.4177 50.092 82.2252 50.0689 82.0613C50.0023 81.5957 49.7078 81.1957 49.4045 80.833C49.2834 80.6779 49.1438 80.5381 48.9883 80.4166C48.591 80.1268 48.0651 80.0777 47.5723 80.0995C47.01 80.1246 46.4389 80.232 45.9504 80.5105C45.6185 80.6987 44.8568 81.291 45.1213 81.7191C45.3992 82.1673 46.555 82.1596 46.99 82.0864Z" fill="black"/>
<path opacity="0.5" d="M46.99 81.9772C47.3356 81.9193 47.683 81.7945 48.0264 81.868C48.3141 81.9269 48.5544 82.1159 48.8179 82.247C49.0723 82.3734 49.3505 82.4461 49.635 82.4603C49.7386 82.4736 49.8439 82.4532 49.935 82.4024C50.0721 82.3082 50.092 82.1159 50.0689 81.9521C50.0023 81.4865 49.7078 81.0864 49.4045 80.7235C49.2834 80.5686 49.1438 80.4288 48.9883 80.3073C48.591 80.0176 48.0651 79.9684 47.5723 79.9903C47.01 80.0154 46.4389 80.1224 45.9504 80.4013C45.6185 80.5891 44.8568 81.1814 45.1213 81.6099C45.3992 82.058 46.555 82.0504 46.99 81.9772Z" fill="#444176"/>
</g>
<path d="M92.4502 67.5051L62.2132 43.3989C62.0373 43.225 61.8284 43.0871 61.5982 42.9931C61.3683 42.8989 61.1217 42.8508 60.873 42.8511H59.5882C62.1556 39.5963 63.3714 35.4949 62.9877 31.3837C62.604 27.2724 60.6496 23.4607 57.5234 20.7258C54.3968 17.9909 50.3334 16.5388 46.1621 16.6655C41.9904 16.7922 38.025 18.4882 35.0738 21.4076C32.1229 24.3271 30.4085 28.2501 30.2804 32.3771C30.1524 36.5039 31.6203 40.5237 34.3846 43.6166C37.1493 46.7097 41.0021 48.6431 45.1579 49.0227C49.3137 49.4023 53.4592 48.1994 56.7494 45.6595V46.9296C56.7491 47.1756 56.7979 47.4195 56.8928 47.6469C56.988 47.8744 57.1274 48.0811 57.3033 48.2554L87.5403 72.3612C87.7154 72.536 87.9237 72.6745 88.1531 72.7689C88.3825 72.8637 88.6287 72.9123 88.8772 72.9123C89.1259 72.9123 89.3719 72.8637 89.6013 72.7689C89.8309 72.6745 90.039 72.536 90.2141 72.3612L92.4425 70.1588C92.7982 69.8074 92.9986 69.3309 93 68.8336C93.0014 68.3363 92.8039 67.8587 92.4502 67.5051ZM46.6549 42.8511C44.6585 42.8511 42.7066 42.2654 41.0468 41.1681C39.3867 40.0709 38.0929 38.5111 37.3287 36.6863C36.5648 34.8616 36.3649 32.8537 36.7544 30.9164C37.1438 28.9792 38.1052 27.1998 39.5171 25.8032C40.9287 24.4065 42.7274 23.4554 44.6855 23.0701C46.6437 22.6848 48.6734 22.8825 50.5181 23.6384C52.3625 24.3942 53.9392 25.6742 55.0484 27.3164C56.1575 28.9587 56.7494 30.8897 56.7494 32.8646C56.7504 34.1765 56.49 35.4758 55.9833 36.688C55.4763 37.9002 54.7328 39.0015 53.7952 39.9292C52.8578 40.8568 51.7445 41.5928 50.5194 42.0944C49.2941 42.5961 47.9809 42.8541 46.6549 42.8533V42.8511Z" fill="url(#paint2_linear)"/>
<path d="M92.4527 67.2583L62.3472 43.2693C62.1718 43.0962 61.964 42.9588 61.7349 42.8652C61.5058 42.7718 61.2606 42.7237 61.0127 42.724H59.7336C62.2899 39.485 63.5005 35.4035 63.1184 31.3122C62.7363 27.221 60.7904 23.4278 57.6775 20.7062C54.5646 17.9846 50.519 16.5395 46.3656 16.6656C42.2122 16.7916 38.264 18.4794 35.3259 21.3847C32.3875 24.29 30.6808 28.1939 30.5531 32.3008C30.4258 36.4076 31.8871 40.4077 34.6397 43.4859C37.3921 46.564 41.2282 48.4879 45.3661 48.8658C49.5036 49.2435 53.6313 48.0466 56.9071 45.519V46.7825C56.9068 47.0277 56.9553 47.2702 57.05 47.4966C57.1446 47.723 57.2834 47.9289 57.4585 48.102L87.5641 72.091C87.7383 72.2647 87.9459 72.4026 88.1741 72.4968C88.4027 72.591 88.6476 72.6394 88.8952 72.6394C89.1426 72.6394 89.3878 72.591 89.6161 72.4968C89.8446 72.4026 90.0519 72.2647 90.2262 72.091L92.4451 69.8993C92.7991 69.5494 92.9987 69.0754 93.0001 68.5803C93.0014 68.0855 92.8048 67.6103 92.4527 67.2583ZM46.8565 42.724C44.8686 42.724 42.9254 42.1412 41.2727 41.0492C39.62 39.9571 38.3316 38.4052 37.571 36.5892C36.8103 34.7733 36.6112 32.7751 36.9991 30.8472C37.3869 28.9195 38.3441 27.1488 39.7495 25.7589C41.1551 24.369 42.9462 23.4225 44.8956 23.0391C46.8453 22.6556 48.8662 22.8524 50.7028 23.6046C52.5393 24.3568 54.1089 25.6306 55.2134 27.2649C56.3177 28.899 56.9071 30.8207 56.9071 32.7861C56.9081 34.0916 56.6488 35.3844 56.1442 36.5909C55.6394 37.7971 54.8992 38.8932 53.9657 39.8162C53.0324 40.7395 51.9241 41.4716 50.7041 41.9711C49.4842 42.4703 48.1768 42.727 46.8565 42.7262V42.724Z" fill="#C52939"/>
<path d="M47.7971 36.8658L50.1818 35.079C50.1818 35.079 48.5842 35.4116 48.6297 32.9312C48.6292 32.923 48.6292 32.9149 48.6297 32.9064C48.6297 32.6825 48.6518 32.437 48.6851 32.1666C49.0942 28.8569 45.8236 31.769 45.8236 31.769C45.8517 32.0623 45.8517 32.3572 45.8236 32.6502C45.8236 32.6576 45.8236 32.6664 45.8236 32.674C45.759 33.4894 45.5275 34.2843 45.1429 35.0121C44.2549 36.6664 47.7971 36.8658 47.7971 36.8658Z" fill="#FDC2CC"/>
<path opacity="0.1" d="M46.1362 32.0557C46.5554 32.4061 46.8112 33.0426 47.4417 33.0426C47.8977 33.0435 48.3439 32.9285 48.7241 32.7119C48.7241 32.5069 48.747 32.2818 48.7816 32.0342C49.2052 29.0016 45.8182 31.6699 45.8182 31.6699C45.8182 31.6699 46.1809 31.5623 46.1362 32.0557Z" fill="black"/>
<path d="M47.4546 33.0427C48.6595 33.0427 49.6364 32.0646 49.6364 30.8581C49.6364 29.6516 48.6595 28.6735 47.4546 28.6735C46.2497 28.6735 45.2728 29.6516 45.2728 30.8581C45.2728 32.0646 46.2497 33.0427 47.4546 33.0427Z" fill="#FDC2CC"/>
<path opacity="0.1" d="M49.5624 27.8856C49.4348 27.7242 49.2872 27.5797 49.1233 27.4552C48.8664 27.2413 48.5811 27.0164 48.2618 27.0361C48.081 27.0602 47.9072 27.1223 47.7523 27.2183C46.9565 27.6376 46.297 27.2413 45.3717 28.488C45.174 28.7545 44.778 28.817 44.5737 29.0969C44.3694 29.3769 44.2873 29.7444 44.229 30.1022C44.181 30.3441 44.1695 30.5921 44.1951 30.8373C44.2194 31.0781 44.3378 31.2999 44.5243 31.4542C44.7373 31.6087 45.0302 31.6098 45.2091 31.813C45.2991 31.9452 45.3728 32.0877 45.4287 32.2376C45.5012 32.3802 45.6286 32.5154 45.7734 32.4943C45.9182 32.4736 46.005 32.3166 46.0257 32.1653C46.035 32.0085 46.0257 31.8512 45.9984 31.6967C45.9709 31.4189 46.006 31.1161 46.1697 30.9064C46.2793 30.7627 46.444 30.6773 46.5526 30.5312C46.8139 30.1789 46.6955 29.5874 46.9819 29.2605C47.0656 29.1745 47.1706 29.1122 47.2865 29.08C47.4021 29.0478 47.5243 29.047 47.6405 29.0773C47.8712 29.1431 48.0924 29.2381 48.2989 29.3605C48.5871 29.5057 48.889 29.6224 49.2002 29.7081C49.4612 29.7796 49.7642 29.9506 49.8531 29.5986C49.9925 29.0806 49.8619 28.2993 49.5624 27.8856Z" fill="black"/>
<path d="M49.5624 27.8856C49.4348 27.7242 49.2872 27.5797 49.1233 27.4552C48.8664 27.2413 48.5811 27.0164 48.2618 27.0361C48.081 27.0602 47.9072 27.1223 47.7523 27.2183C46.9565 27.6376 46.297 27.2413 45.3717 28.488C45.174 28.7545 44.778 28.817 44.5737 29.0969C44.3694 29.3769 44.2873 29.7444 44.229 30.1022C44.181 30.3441 44.1695 30.5921 44.1951 30.8373C44.2194 31.0781 44.3378 31.2999 44.5243 31.4542C44.7373 31.6087 45.0302 31.6098 45.2091 31.813C45.2991 31.9452 45.3728 32.0877 45.4287 32.2376C45.5012 32.3802 45.6286 32.5154 45.7734 32.4943C45.9182 32.4736 46.005 32.3166 46.0257 32.1653C46.035 32.0085 46.0257 31.8512 45.9984 31.6967C45.9709 31.4189 46.006 31.1161 46.1697 30.9064C46.2793 30.7627 46.444 30.6773 46.5526 30.5312C46.8139 30.1789 46.6955 29.5874 46.9819 29.2605C47.0656 29.1745 47.1706 29.1122 47.2865 29.08C47.4021 29.0478 47.5243 29.047 47.6405 29.0773C47.8712 29.1431 48.0924 29.2381 48.2989 29.3605C48.5871 29.5057 48.889 29.6224 49.2002 29.7081C49.4612 29.7796 49.7642 29.9506 49.8531 29.5986C49.9925 29.0806 49.8619 28.2993 49.5624 27.8856Z" fill="#865A61"/>
<path opacity="0.1" d="M45.3308 37.9185L45.2869 39.6086C45.9248 39.7826 46.5832 39.8705 47.244 39.8697C47.3539 39.8697 47.469 39.8697 47.5811 39.8621C48.1672 39.8367 48.7484 39.7414 49.3118 39.5778H49.323C49.4272 39.5472 49.5303 39.5152 49.6323 39.48H49.6435L49.7367 39.447C50.0918 39.3214 50.4368 39.1682 50.7685 38.9888L50.7892 38.9778C50.8255 38.9579 50.8618 38.9382 50.8991 38.9172L50.7289 36.6389L51 35.0766L49.5161 34.0624C49.4327 34.1831 49.3394 34.2964 49.2374 34.4016C49.0909 34.555 48.9194 34.6823 48.7301 34.7781C47.6657 35.3044 46.4539 34.4676 45.8512 33.9502L45.714 33.8278C45.5583 33.6858 45.4694 33.5889 45.4694 33.5889L44.7273 34.7385L45.3308 37.9185Z" fill="black"/>
<path d="M45.3308 38.1916L45.2869 39.8817C45.9248 40.0557 46.5832 40.1436 47.244 40.1428C47.3539 40.1428 47.469 40.1428 47.5811 40.1351C48.1672 40.1097 48.7484 40.0144 49.3118 39.8509H49.323C49.4272 39.8203 49.5303 39.7883 49.6323 39.7531H49.6435L49.7367 39.72C50.0918 39.5944 50.4368 39.4412 50.7685 39.2618L50.7892 39.2509C50.8255 39.231 50.8618 39.2113 50.8991 39.1903L50.7289 36.912L51 35.3497L49.5161 34.3355C49.4327 34.4562 49.3394 34.5695 49.2374 34.6746C49.0909 34.8281 48.9194 34.9553 48.7301 35.0512C47.6657 35.5774 46.4539 34.7407 45.8512 34.2232L45.714 34.1009C45.5583 33.9589 45.4694 33.8619 45.4694 33.8619L44.7273 35.0116L45.3308 38.1916Z" fill="#53526B"/>
<path d="M49.4247 38.187C49.4247 38.187 49.5054 38.829 49.6113 39.5966H49.6222L49.7149 39.5639C50.0681 39.4396 50.4109 39.2881 50.7403 39.1103L50.7611 39.0994C50.7971 39.08 50.8331 39.0603 50.8702 39.0396C51.3537 38.7684 51.8053 38.4434 52.2164 38.0715L52.2523 38.0376C52.4776 37.8336 52.6895 37.6152 52.8862 37.3836L52.9091 37.3563C52.5196 36.0054 51.7091 35.5802 51.7091 35.5802C51.7091 35.5802 50.9716 35.2443 50.7698 34.7757C50.568 34.3068 48.7865 33.3158 48.7865 33.3158V33.3234C48.7865 33.4073 48.7582 34.176 48.7156 34.9491C48.6883 35.4516 48.6545 35.9562 48.6153 36.2768C48.6068 36.3811 48.5877 36.4841 48.5585 36.5843C48.42 36.9147 49.4247 38.187 49.4247 38.187Z" fill="#111111"/>
<defs>
<linearGradient id="paint0_linear" x1="70.3637" y1="100.221" x2="70.3637" y2="17.7502" gradientUnits="userSpaceOnUse">
<stop stop-color="#808080" stop-opacity="0.25"/>
<stop offset="0.54" stop-color="#808080" stop-opacity="0.12"/>
<stop offset="1" stop-color="#808080" stop-opacity="0.1"/>
</linearGradient>
<linearGradient id="paint1_linear" x1="4154.13" y1="6783.77" x2="4154.13" y2="5183.14" gradientUnits="userSpaceOnUse">
<stop stop-color="#808080" stop-opacity="0.25"/>
<stop offset="0.54" stop-color="#808080" stop-opacity="0.12"/>
<stop offset="1" stop-color="#808080" stop-opacity="0.1"/>
</linearGradient>
<linearGradient id="paint2_linear" x1="30045.8" y1="31977.7" x2="30045.8" y2="3086.46" gradientUnits="userSpaceOnUse">
<stop stop-color="#808080" stop-opacity="0.25"/>
<stop offset="0.54" stop-color="#808080" stop-opacity="0.12"/>
<stop offset="1" stop-color="#808080" stop-opacity="0.1"/>
</linearGradient>
</defs>
</svg>
