<svg width="150" height="96" viewBox="0 0 150 96" fill="none" xmlns="http://www.w3.org/2000/svg">
<g clip-path="url(#clip0)">
<path opacity="0.1" d="M127.931 32.6614C127.448 14.5504 110.345 0 89.3125 0C79.0252 0 69.6859 3.48258 62.757 9.16465C48.354 10.3255 36.2452 18.3293 30.8171 29.3941C14.3286 33.199 2.18182 46.2219 2.18182 61.7089C2.18182 80.1908 19.4751 95.1597 40.8087 95.1597C47.0752 95.1535 53.2252 93.8545 58.6195 91.3976C63.6775 93.5901 69.3657 94.7752 75.1685 94.8455C80.9716 94.9155 86.7052 93.8687 91.8502 91.7993C97.1015 94.0936 103.033 95.3038 109.07 95.3125C130.404 95.3125 147.697 80.3435 147.697 61.8614C147.697 49.315 139.725 38.3878 127.931 32.6614Z" fill="#C52939"/>
<path d="M134.203 80.5411H38.0209V81.2429H134.203V80.5411Z" fill="#414141"/>
<path d="M76.5232 58.244C77.1305 58.3219 77.7611 58.3712 78.3431 58.1828C78.4347 58.1545 78.5353 58.0913 78.5263 57.9998C78.5198 57.9666 78.5056 57.9352 78.4852 57.9083C78.2656 57.5799 78.0815 57.2294 77.9353 56.8626C77.9293 56.8435 77.9176 56.8266 77.9013 56.8149C77.8824 56.8081 77.8617 56.8081 77.8426 56.8149C77.5743 56.8855 77.3424 57.0584 77.0757 57.1324C76.9396 57.1698 76.7978 57.1804 76.6579 57.1635C76.5368 57.1499 76.3718 57.0502 76.2619 57.063C76.3241 57.4628 76.4763 57.8361 76.5232 58.244Z" fill="#C52939"/>
<path d="M88.0134 57.2313C88.4138 56.9568 88.8289 56.6687 89.0653 56.245C89.0822 56.2197 89.092 56.1903 89.0937 56.16C89.0896 56.1301 89.0781 56.1018 89.0599 56.0775C88.8346 55.7202 88.5447 55.4076 88.2049 55.1562C88.0276 55.2812 87.8672 55.4288 87.7284 55.5955C87.6275 55.7017 87.349 55.87 87.3463 56.0318C87.3463 56.1233 87.4524 56.2295 87.502 56.3063C87.5689 56.4051 87.6321 56.5059 87.6927 56.6083C87.7273 56.6587 88.0453 57.2112 88.0134 57.2313Z" fill="#C52939"/>
<path d="M78.9047 59.4695C78.9121 59.5637 78.8862 59.6574 78.8316 59.7347C78.7888 59.7778 78.7359 59.8091 78.6775 59.8262C77.828 60.1299 76.8448 59.7511 75.9971 60.0503C75.8229 60.1116 75.6581 60.2004 75.483 60.2589C75.2744 60.3216 75.059 60.3597 74.8416 60.3725C74.5419 60.4008 74.2405 60.4191 73.9397 60.4272C73.7114 60.4436 73.482 60.4234 73.2598 60.3679C73.1488 60.3395 73.0449 60.2881 72.9551 60.217C72.8654 60.1459 72.7915 60.0566 72.7383 59.9553C72.6922 59.8643 72.6832 59.759 72.7127 59.6615C72.726 59.628 72.7449 59.5972 72.7686 59.57C72.8261 59.5057 72.8935 59.451 72.9685 59.4082L73.281 59.2067C73.4275 59.1032 73.5868 59.0191 73.7548 58.9562C73.8783 58.9159 74.0095 58.8984 74.135 58.8647C74.574 58.7364 74.9092 58.3889 75.221 58.0548L75.6461 57.6019C75.686 57.5521 75.7364 57.5118 75.7937 57.484C75.8526 57.4644 75.9153 57.4584 75.977 57.4666C76.3899 57.496 76.7889 57.6294 77.1361 57.8543C77.225 57.9211 77.321 57.9774 77.4221 58.0229C77.6714 58.1199 77.9911 58.0466 78.2212 57.9241C78.3303 57.8655 78.3063 57.8326 78.3521 57.7283C78.398 57.624 78.5098 57.557 78.6069 57.6523C78.6363 57.6852 78.6571 57.7247 78.6674 57.7675C78.7591 58.0695 78.7241 58.3944 78.7241 58.7108C78.7217 58.7604 78.7277 58.8099 78.7427 58.8573C78.7659 58.905 78.794 58.9504 78.8259 58.9926C78.8324 59.0038 78.8384 59.0155 78.8433 59.0275C78.8995 59.1675 78.9205 59.3192 78.9047 59.4695Z" fill="#111111"/>
<path d="M78.9047 59.4692C78.912 59.5635 78.8861 59.6574 78.8316 59.7345C78.7888 59.7775 78.7359 59.8091 78.6775 59.826C77.8279 60.1299 76.8448 59.7511 75.9971 60.0504C75.8229 60.1116 75.6581 60.2004 75.483 60.259C75.2744 60.3216 75.0589 60.3595 74.8416 60.3723C74.5419 60.4006 74.2405 60.4191 73.9397 60.4273C73.7114 60.4433 73.482 60.4232 73.2598 60.3676C73.1488 60.3393 73.0449 60.2878 72.9551 60.2168C72.8654 60.1457 72.7915 60.0566 72.7383 59.9551C72.6922 59.8641 72.6832 59.759 72.7127 59.6615C72.726 59.628 72.7449 59.597 72.7686 59.57C72.8182 59.6732 72.8539 59.8105 72.885 59.86C72.927 59.9333 72.9843 59.9964 73.053 60.046C73.1215 60.0953 73.1998 60.1296 73.2827 60.1462C73.4068 60.1539 73.5311 60.1381 73.6492 60.0997C74.4191 59.9093 75.2373 59.9066 75.9769 59.6185C76.2309 59.5185 76.4728 59.3859 76.7395 59.3257C77.0059 59.2653 77.2893 59.2816 77.5642 59.2587C77.9984 59.2241 78.4192 59.0932 78.8471 59.0245C78.9022 59.1659 78.9221 59.3186 78.9047 59.4692Z" fill="#111111"/>
<path d="M89.9591 57.1755C89.9187 57.4977 89.7144 57.7749 89.49 58.0099C89.2655 58.2452 89.0116 58.4565 88.833 58.7272C88.6129 59.063 88.5139 59.4794 88.2281 59.7631C88.1184 59.8661 87.9949 59.954 87.8615 60.0237C87.7121 60.112 87.5539 60.1847 87.3897 60.2408C86.9626 60.3769 86.5025 60.3459 86.0563 60.3129C85.9112 60.3116 85.7678 60.2841 85.6328 60.2315C85.5714 60.2002 85.5125 60.1643 85.4569 60.1234C85.3451 60.0548 85.251 59.9608 85.182 59.8492C85.1482 59.7885 85.1386 59.7171 85.1555 59.6496C85.1809 59.5752 85.2248 59.5085 85.2829 59.4557C85.3832 59.3514 85.491 59.2544 85.6052 59.1657C85.7623 59.0643 85.9036 58.9413 86.025 58.7997C86.0997 58.6877 86.1545 58.5638 86.1872 58.4337C86.2522 58.2052 86.2917 57.9707 86.3056 57.7335C86.3051 57.5761 86.3212 57.4193 86.3542 57.2651C86.4218 57.0236 86.6015 56.8076 86.5813 56.5579C86.5732 56.5222 86.5764 56.4846 86.5906 56.4509C86.6119 56.4245 86.6416 56.4059 86.6749 56.3986C86.8148 56.343 86.9626 56.3087 87.1129 56.297C87.1882 56.2918 87.2637 56.3036 87.3341 56.3311C87.4044 56.3586 87.468 56.4013 87.5198 56.4563C87.582 56.5315 87.6232 56.6393 87.7148 56.6687C87.7603 56.681 87.8081 56.6829 87.8542 56.6742C88.0797 56.6513 88.3178 56.623 88.4956 56.4773C88.5777 56.4038 88.644 56.3139 88.6895 56.2137C88.7354 56.1135 88.7599 56.0048 88.7615 55.8945C88.7615 55.8112 88.7239 55.7243 88.8532 55.7115C88.9503 55.6987 89.0272 55.803 89.0765 55.867C89.2554 56.1058 89.4387 56.3556 89.5055 56.6467C89.5314 56.6366 89.5593 56.6314 89.5871 56.6312C89.6444 56.6306 89.7008 56.644 89.7515 56.6698C89.8025 56.696 89.8465 56.7338 89.8795 56.7801C89.9523 56.8983 89.9806 57.0385 89.9591 57.1755Z" fill="#111111"/>
<path d="M89.9591 57.1755C89.9187 57.4976 89.7144 57.7748 89.49 58.0099C89.2655 58.2451 89.0116 58.4565 88.833 58.7272C88.6129 59.0629 88.5139 59.4793 88.2281 59.7631C88.1182 59.866 87.9949 59.954 87.8615 60.0237C87.7121 60.1119 87.5539 60.1843 87.3895 60.2404C86.9626 60.3769 86.5025 60.3458 86.0564 60.3129C85.9113 60.3115 85.7678 60.2837 85.6328 60.2315C85.5715 60.2001 85.5126 60.1642 85.4569 60.1233C85.3451 60.0547 85.251 59.9608 85.182 59.8488C85.2679 59.8077 85.3617 59.7854 85.4569 59.7832C85.6549 59.7941 85.7997 59.9806 85.9893 60.0384C86.2595 60.1198 86.529 59.9294 86.8031 59.8646C86.9817 59.8224 87.1696 59.8333 87.3464 59.7731C87.4939 59.7162 87.63 59.6337 87.7489 59.5297C87.9114 59.4134 88.0563 59.2742 88.1785 59.116C88.2802 58.9581 88.3647 58.7895 88.4304 58.6139C88.5753 58.2767 88.7457 57.9513 88.9402 57.6403C88.9688 57.591 89.0037 57.5455 89.0435 57.5047C89.0866 57.4655 89.1352 57.438 89.1837 57.4031C89.367 57.2651 89.4431 57.0371 89.5074 56.8141C89.5246 56.7463 89.5489 56.6801 89.5797 56.6172C89.637 56.6167 89.6934 56.63 89.7442 56.6561C89.7952 56.682 89.8391 56.7199 89.8721 56.7664C89.9509 56.8873 89.982 57.033 89.9591 57.1755Z" fill="#111111"/>
<path opacity="0.1" d="M73.2732 26.6652C73.2074 26.6663 73.1428 26.6821 73.0839 26.7116C73.025 26.741 72.9734 26.7833 72.9333 26.8353C72.8352 26.9625 72.8161 27.1309 72.7913 27.2929C72.7078 27.8059 72.5245 28.2977 72.2515 28.7402" fill="#111111"/>
<path d="M95.5197 44.9177V43.7813C95.5197 42.9448 95.1867 42.1425 94.594 41.551C94.0014 40.9598 93.1979 40.6273 92.3601 40.6273H47.4122C46.5744 40.6273 45.771 40.9598 45.1783 41.551C44.586 42.1425 44.253 42.9448 44.2527 43.7813V45.8766L95.5197 44.9177Z" fill="#414141"/>
<path d="M59.9163 39.2954C59.9163 39.2954 59.7879 47.2428 61.1992 49.8576C62.6103 52.4727 63.2152 63.8484 63.2152 63.8484C63.2152 63.8484 78.0093 65.3764 88.3187 62.0187C98.628 58.6607 120.565 57.2874 120.565 57.2874L116.868 32.4103C116.868 32.4103 98.6051 31.2409 88.2161 36.1882C77.8271 41.1355 59.9163 39.2954 59.9163 39.2954Z" fill="#C52939"/>
<path opacity="0.2" d="M59.9163 39.2954C59.9163 39.2954 59.7879 47.2428 61.1992 49.8576C62.6103 52.4727 63.2152 63.8484 63.2152 63.8484C63.2152 63.8484 78.0093 65.3764 88.3187 62.0187C98.628 58.6607 120.565 57.2874 120.565 57.2874L116.868 32.4103C116.868 32.4103 98.6051 31.2409 88.2161 36.1882C77.8271 41.1355 59.9163 39.2954 59.9163 39.2954Z" fill="#111111"/>
<path d="M63.1906 42.1984C63.1906 42.1984 62.7278 48.7559 63.8888 50.8511C65.0501 52.9464 65.1041 62.3001 65.1041 62.3001C65.1041 62.3001 78.4184 62.9169 87.8891 59.698C97.3601 56.4792 117.262 54.391 117.262 54.391L115 34.0467C115 34.0467 98.5328 33.8776 88.9219 38.4085C79.3107 42.9394 63.1906 42.1984 63.1906 42.1984Z" fill="#C52939"/>
<path opacity="0.1" d="M88.7755 55.9734C90.6699 55.7378 91.7952 52.2581 91.2893 48.2013C90.7831 44.1446 88.8372 41.0472 86.9428 41.2827C85.0484 41.5183 83.9229 44.9977 84.4291 49.0545C84.935 53.1113 86.8812 56.2089 88.7755 55.9734Z" fill="#111111"/>
<path opacity="0.2" d="M106.855 20.2911C106.855 20.2911 89.113 24.7745 80.7466 32.666C72.3798 40.5577 54.7668 44.2944 54.7668 44.2944C54.7668 44.2944 57.0872 51.8968 59.2336 53.9537C61.3797 56.0105 65.4501 66.6534 65.4501 66.6534C65.4501 66.6534 79.9996 63.5737 88.7787 57.2166C97.5577 50.8593 118.018 42.8304 118.018 42.8304L106.855 20.2911Z" fill="#111111"/>
<path d="M54.5002 43.1564C54.5002 43.1564 56.8195 50.7596 58.9639 52.8164C61.1084 54.8733 65.1807 65.5153 65.1807 65.5153C65.1807 65.5153 79.7318 62.4365 88.5117 56.0794C97.2917 49.722 117.75 41.6959 117.75 41.6959L106.588 19.1539C106.588 19.1539 88.8464 23.6373 80.4797 31.5288C72.1132 39.4204 54.5002 43.1564 54.5002 43.1564Z" fill="#C52939"/>
<path opacity="0.2" d="M54.5002 43.1564C54.5002 43.1564 56.8195 50.7596 58.9639 52.8164C61.1084 54.8733 65.1807 65.5153 65.1807 65.5153C65.1807 65.5153 79.7321 62.4365 88.5117 56.0794C97.2917 49.722 117.75 41.6959 117.75 41.6959L112.169 30.4251L106.588 19.1539C106.588 19.1539 88.8464 23.6373 80.4797 31.5288C72.1132 39.4204 54.5002 43.1564 54.5002 43.1564Z" fill="#111111"/>
<path d="M58.5057 44.9167C58.5057 44.9167 60.081 51.3004 61.8306 52.9382C63.5798 54.5759 66.504 63.4604 66.504 63.4604C66.504 63.4604 79.3647 59.9671 87.3895 54.0013C95.4142 48.0359 113.716 39.9593 113.716 39.9593L105.312 21.2831C105.312 21.2831 89.5879 26.1663 81.8324 33.4239C74.0771 40.6813 58.5057 44.9167 58.5057 44.9167Z" fill="#C52939"/>
<path opacity="0.2" d="M87.0927 50.188C88.8235 49.3833 88.8251 45.7268 87.0968 42.0208C85.3683 38.3148 82.5641 35.9627 80.8336 36.7674C79.1029 37.5721 79.1013 41.2286 80.8298 44.9346C82.5581 48.6406 85.3623 50.9927 87.0927 50.188Z" fill="#111111"/>
<path opacity="0.1" d="M96.7331 46.0329V77.5993C96.7331 77.958 96.6624 78.3128 96.525 78.6439C96.3875 78.9754 96.186 79.2763 95.9321 79.5295C95.6782 79.7831 95.3768 79.984 95.0449 80.1213C94.7133 80.2583 94.3576 80.3288 93.9984 80.3288H46.9879C46.2633 80.3285 45.5681 80.0409 45.0556 79.529C44.5432 79.0173 44.2554 78.3231 44.2554 77.5993V42.8508C45.6024 43.3503 45.6024 43.3503 46.9879 43.3081H93.9984C94.7228 43.3081 95.4174 43.5951 95.9302 44.106C96.4429 44.6168 96.7317 45.3099 96.7331 46.0329Z" fill="#111111"/>
<path d="M96.7331 46.4349V78.0013C96.7328 78.7254 96.4445 79.4195 95.9318 79.9312C95.4191 80.4432 94.7236 80.7308 93.9984 80.7308H46.9879C46.2633 80.7305 45.5681 80.4427 45.0556 79.931C44.5432 79.419 44.2554 78.7251 44.2554 78.0013V43.2517C45.6024 43.7503 45.6024 43.7503 46.9879 43.7092H93.9984C94.7231 43.7092 95.418 43.9962 95.9304 44.5074C96.4432 45.0183 96.732 45.7116 96.7331 46.4349Z" fill="#111111"/>
<path opacity="0.1" d="M96.599 58.105V68.1999H86.7936C85.4646 68.182 84.1962 67.6422 83.2629 66.6978C82.3293 65.7531 81.806 64.4795 81.806 63.1525C81.806 61.8254 82.3293 60.5518 83.2629 59.6071C84.1962 58.6624 85.4646 58.123 86.7936 58.105H96.599Z" fill="#111111"/>
<path d="M96.7332 57.8358V67.9324H86.9278C85.5988 67.9147 84.3304 67.375 83.3971 66.4303C82.4636 65.4856 81.9402 64.212 81.9402 62.8849C81.9402 61.5579 82.4636 60.2843 83.3971 59.3399C84.3304 58.3952 85.5988 57.8554 86.9278 57.8377L96.7332 57.8358Z" fill="#414141"/>
<path opacity="0.1" d="M87.3976 65.1212C88.4863 65.1212 89.3689 64.24 89.3689 63.1531C89.3689 62.066 88.4863 61.1851 87.3976 61.1851C86.3089 61.1851 85.4263 62.066 85.4263 63.1531C85.4263 64.24 86.3089 65.1212 87.3976 65.1212Z" fill="#111111"/>
<path d="M87.5313 64.8536C88.62 64.8536 89.5026 63.9727 89.5026 62.8855C89.5026 61.7987 88.62 60.9175 87.5313 60.9175C86.4428 60.9175 85.5603 61.7987 85.5603 62.8855C85.5603 63.9727 86.4428 64.8536 87.5313 64.8536Z" fill="#C52939"/>
</g>
<defs>
<clipPath id="clip0">
<rect width="150" height="95.3125" fill="white"/>
</clipPath>
</defs>
</svg>
