<svg width="150" height="96" viewBox="0 0 150 96" fill="none" xmlns="http://www.w3.org/2000/svg">
<path opacity="0.1" d="M24.0712 41.8346C22.3643 42.3534 20.7666 43.6099 20.3402 45.3531C19.8525 47.3564 20.9771 49.3758 21.1397 51.4327C21.6647 58.1724 12.1374 62.9271 13.4965 69.5474C14.0362 72.1795 16.2175 74.1157 18.3668 75.7155C21.81 78.2701 25.6302 80.5268 29.8609 81.1636C36.282 82.1318 42.9911 79.2865 49.2327 81.0845C54.2667 82.5353 58.119 86.7874 63.1187 88.3563C66.924 89.5512 71.0242 89.0804 74.9777 88.5964C77.1096 88.3363 79.3429 88.036 81.0633 86.7486C84.2613 84.3525 84.4623 79.6202 86.6037 76.229C89.9108 70.9996 97.1624 69.9723 103.243 70.9887C109.323 72.0051 115.227 74.5074 121.387 74.3035C122.704 74.2594 124.052 74.0796 125.201 73.4291C126.597 72.6394 127.54 71.2476 128.375 69.8704C133.588 61.2307 136.45 51.3621 136.672 41.2565C136.708 39.5201 136.647 37.7084 135.835 36.1757C134.809 34.2367 132.758 33.0769 130.717 32.2964C125.815 30.4193 120.4 30.1122 115.596 27.9948C110.963 25.9526 107.211 22.371 103.176 19.3016C95.1355 13.1967 85.8158 9.02001 75.9278 7.08987C73.6105 6.63931 71.2053 6.3175 68.9029 6.83778C66.2498 7.43718 63.9633 9.10126 61.9072 10.8927C56.4374 15.6584 52.0536 21.5383 47.0127 26.7612C43.5352 30.363 39.7487 33.649 35.6973 36.5809C33.8316 37.9337 31.8488 39.5401 29.7704 40.5406C27.8676 41.4549 26.0832 41.2244 24.0712 41.8346Z" fill="#C52939"/>
<g opacity="0.5">
<path opacity="0.5" d="M79.4711 13.9612L71.2825 68.4373L110.563 74.3861L118.751 19.9099L79.4711 13.9612Z" fill="url(#paint0_linear)"/>
</g>
<path d="M79.9107 14.4384L71.9032 67.7104L110.184 73.5078L118.192 20.2357L79.9107 14.4384Z" fill="#F5F5F5"/>
<path d="M109.165 42.4971L81.5359 38.3129L81.2831 39.9939L108.912 44.1779L109.165 42.4971Z" fill="#E0E0E0"/>
<path d="M108.533 46.6986L80.904 42.5144L80.6515 44.1952L108.28 48.3794L108.533 46.6986Z" fill="#E0E0E0"/>
<path d="M111.185 29.0505L96.9518 26.895L96.6993 28.5761L110.933 30.7316L111.185 29.0505Z" fill="#E0E0E0"/>
<path d="M109.298 33.0626L97.5766 31.2874L97.3241 32.9682L109.046 34.7434L109.298 33.0626Z" fill="#C52939"/>
<path d="M104.553 50.3933L80.2724 46.7161L80.0198 48.3971L104.3 52.0741L104.553 50.3933Z" fill="#E0E0E0"/>
<path d="M100.571 54.0878L79.6402 50.9181L79.3874 52.5989L100.319 55.7689L100.571 54.0878Z" fill="#E0E0E0"/>
<path d="M97.428 57.9096L79.0083 55.1201L78.7557 56.8009L97.1752 59.5904L97.428 57.9096Z" fill="#E0E0E0"/>
<path d="M101.82 62.8721L78.3771 59.3219L78.1243 61.003L101.567 64.5532L101.82 62.8721Z" fill="#E0E0E0"/>
<path d="M86.9552 64.9181L77.7458 63.5233L77.4932 65.2041L86.7024 66.5989L86.9552 64.9181Z" fill="#C52939"/>
<g opacity="0.5">
<path opacity="0.5" d="M70.4184 21.7883L31.0909 28.168L39.873 82.7099L79.2005 76.3302L70.4184 21.7883Z" fill="url(#paint1_linear)"/>
</g>
<path d="M69.8272 22.1068L31.623 28.3933L40.3064 81.5583L78.5103 75.272L69.8272 22.1068Z" fill="#F5F5F5"/>
<path d="M68.0564 46.0702L40.4831 50.6073L40.7569 52.2848L68.3305 47.7477L68.0564 46.0702Z" fill="#E0E0E0"/>
<path d="M68.7409 50.2642L41.1674 54.8012L41.4414 56.479L69.015 51.9417L68.7409 50.2642Z" fill="#E0E0E0"/>
<path d="M65.8654 32.6515L51.6606 34.9887L51.9347 36.6665L66.1395 34.329L65.8654 32.6515Z" fill="#E0E0E0"/>
<path d="M65.2966 37.0514L53.5982 38.9764L53.8723 40.6539L65.5707 38.7289L65.2966 37.0514Z" fill="#C52939"/>
<path d="M66.0843 55.0073L41.8525 58.9947L42.1266 60.6722L66.3584 56.6848L66.0843 55.0073Z" fill="#E0E0E0"/>
<path d="M63.426 59.7502L42.537 63.1874L42.8108 64.8649L63.7001 61.4278L63.426 59.7502Z" fill="#E0E0E0"/>
<path d="M61.6047 64.3566L43.2218 67.3815L43.4959 69.059L61.8785 66.0341L61.6047 64.3566Z" fill="#E0E0E0"/>
<path d="M67.3026 67.7245L43.9069 71.5742L44.181 73.2517L67.5766 69.402L67.3026 67.7245Z" fill="#E0E0E0"/>
<path d="M53.7834 74.2559L44.5925 75.768L44.8663 77.4456L54.0572 75.9334L53.7834 74.2559Z" fill="#C52939"/>
<g opacity="0.5">
<path opacity="0.5" d="M99.1236 30.6132H59.3987V85.7059H99.1236V30.6132Z" fill="url(#paint2_linear)"/>
</g>
<path d="M98.5004 30.9335H59.7731V84.8617H98.5004V30.9335Z" fill="white"/>
<path d="M93.0459 54.4757H64.955V56.1182H93.0459V54.4757Z" fill="#E0E0E0"/>
<path d="M93.0459 58.5819H64.955V60.2244H93.0459V58.5819Z" fill="#E0E0E0"/>
<path d="M93.0459 40.7883H65.2277V42.4308H93.0459V40.7883Z" fill="#E0E0E0"/>
<path d="M90.5913 45.1683H67.6822V46.8108H90.5913V45.1683Z" fill="#C52939"/>
<path d="M89.5004 62.9619H64.955V64.6044H89.5004V62.9619Z" fill="#E0E0E0"/>
<path d="M86.2277 67.0681H64.955V68.7106H86.2277V67.0681Z" fill="#E0E0E0"/>
<path d="M83.7731 71.448H64.955V73.0905H83.7731V71.448Z" fill="#E0E0E0"/>
<path d="M88.6822 75.5542H64.955V77.1967H88.6822V75.5542Z" fill="#E0E0E0"/>
<path d="M74.5004 79.9342H64.955V81.5767H74.5004V79.9342Z" fill="#C52939"/>
<g opacity="0.5">
<path opacity="0.5" d="M96.4445 89.24C101.118 89.24 104.907 85.4371 104.907 80.7462C104.907 76.0549 101.118 72.2523 96.4445 72.2523C91.7708 72.2523 87.9823 76.0549 87.9823 80.7462C87.9823 85.4371 91.7708 89.24 96.4445 89.24Z" fill="url(#paint3_linear)"/>
</g>
<path d="M96.4549 88.6941C100.898 88.6941 104.5 85.1398 104.5 80.7554C104.5 76.3711 100.898 72.8168 96.4549 72.8168C92.0117 72.8168 88.4095 76.3711 88.4095 80.7554C88.4095 85.1398 92.0117 88.6941 96.4549 88.6941Z" fill="#C52939"/>
<path d="M92.9436 79.6054L95.9703 82.3584L100.259 76.1017L101.773 77.3533L95.9703 84.8616L91.6822 80.1066L92.9436 79.6054Z" fill="white"/>
<defs>
<linearGradient id="paint0_linear" x1="90.9227" y1="71.4116" x2="99.1713" y2="16.9446" gradientUnits="userSpaceOnUse">
<stop stop-color="#808080" stop-opacity="0.25"/>
<stop offset="0.54" stop-color="#808080" stop-opacity="0.12"/>
<stop offset="1" stop-color="#808080" stop-opacity="0.1"/>
</linearGradient>
<linearGradient id="paint1_linear" x1="22095.2" y1="17999.8" x2="17253.1" y2="-11849.1" gradientUnits="userSpaceOnUse">
<stop stop-color="#808080" stop-opacity="0.25"/>
<stop offset="0.54" stop-color="#808080" stop-opacity="0.12"/>
<stop offset="1" stop-color="#808080" stop-opacity="0.1"/>
</linearGradient>
<linearGradient id="paint2_linear" x1="19155.5" y1="39303" x2="19155.5" y2="9146.8" gradientUnits="userSpaceOnUse">
<stop stop-color="#808080" stop-opacity="0.25"/>
<stop offset="0.54" stop-color="#808080" stop-opacity="0.12"/>
<stop offset="1" stop-color="#808080" stop-opacity="0.1"/>
</linearGradient>
<linearGradient id="paint3_linear" x1="11123.9" y1="12778" x2="11123.9" y2="9911.02" gradientUnits="userSpaceOnUse">
<stop stop-color="#808080" stop-opacity="0.25"/>
<stop offset="0.54" stop-color="#808080" stop-opacity="0.12"/>
<stop offset="1" stop-color="#808080" stop-opacity="0.1"/>
</linearGradient>
</defs>
</svg>
