<svg id="f20e0c25-d928-42cc-98d1-13cc230663ea" xmlns="http://www.w3.org/2000/svg" viewBox="0 0 820.2 780.8"><style>.st0{fill:#e0e0e0}.st1{opacity:.5}.st2{fill:url(#SVGID_1_)}.st3{fill:#fafafa}.st4{fill:url(#SVGID_2_)}.st5{fill:url(#SVGID_3_)}.st6{fill:#5774ac}.st7{fill:url(#SVGID_4_)}.st8{fill:#fff}.st9{fill:url(#SVGID_5_)}.st10{fill:url(#SVGID_6_)}.st11{fill:#6081c1}.st12{fill:#47e6b1}.st13,.st14,.st15,.st16{opacity:.5;fill:#6081c1;enable-background:new}.st14,.st15,.st16{fill:#f55f44}.st15,.st16{fill:#fdd835}.st16{fill:#47e6b1}</style><title>no data</title><path transform="rotate(-12.111 346.083 384.823)" class="st0" d="M127.6 82.9h437v603.8h-437z"/><g class="st1"><linearGradient id="SVGID_1_" gradientUnits="userSpaceOnUse" x1="496.159" y1="-64.459" x2="496.159" y2="518.952" gradientTransform="scale(1 -1) rotate(12.111 3306.135 -786.067)"><stop offset="0" stop-color="gray" stop-opacity=".25"/><stop offset=".54" stop-color="gray" stop-opacity=".12"/><stop offset="1" stop-color="gray" stop-opacity=".1"/></linearGradient><path class="st2" d="M78.5 143.9l412.8-88.6 122.4 570.5-412.8 88.5z"/></g><path transform="rotate(-12.111 345.632 382.725)" class="st3" d="M139.9 97.5h411.5V668H139.9z"/><linearGradient id="SVGID_2_" gradientUnits="userSpaceOnUse" x1="496.694" y1="489.942" x2="496.694" y2="539.391" gradientTransform="scale(1 -1) rotate(12.111 3306.137 -786.07)"><stop offset="0" stop-color="gray" stop-opacity=".25"/><stop offset=".54" stop-color="gray" stop-opacity=".12"/><stop offset="1" stop-color="gray" stop-opacity=".1"/></linearGradient><path class="st4" d="M181.4 100.9l199.5-42.8 10.4 48.4-199.6 42.8z"/><linearGradient id="SVGID_3_" gradientUnits="userSpaceOnUse" x1="496.673" y1="529.262" x2="496.673" y2="587.686" gradientTransform="scale(1 -1) rotate(12.111 3306.114 -786.065)"><stop offset="0" stop-color="gray" stop-opacity=".25"/><stop offset=".54" stop-color="gray" stop-opacity=".12"/><stop offset="1" stop-color="gray" stop-opacity=".1"/></linearGradient><path class="st5" d="M271 32.3c-15.4 3.3-25.2 18.8-21.8 34.5s18.6 25.9 34 22.6 25.2-18.8 21.8-34.6-18.6-25.8-34-22.5zm9.7 45.1c-9.1 2.2-18.2-3.4-20.3-12.5s3.4-18.2 12.5-20.3c9.1-2.2 18.2 3.4 20.3 12.5 0 .1 0 .2.1.3 2 9-3.6 17.9-12.6 20z"/><path transform="rotate(-12.111 285.646 100.566)" class="st6" d="M185.7 76.9h199.8v47.3H185.7z"/><path class="st6" d="M271 32.3c-15.1 3.2-24.7 18.1-21.4 33.2s18.1 24.7 33.2 21.4c15.1-3.2 24.7-18.1 21.4-33.2-3.3-15-18.1-24.6-33.2-21.4zm9.2 43.1c-8.7 1.9-17.3-3.7-19.1-12.4-1.9-8.7 3.7-17.3 12.4-19.1 8.7-1.9 17.3 3.7 19.1 12.4 1.9 8.7-3.6 17.2-12.4 19.1z"/><path class="st0" d="M257.9 116.9h437v603.8h-437z"/><g class="st1"><linearGradient id="SVGID_4_" gradientUnits="userSpaceOnUse" x1="476.405" y1="71.47" x2="476.405" y2="654.88" gradientTransform="matrix(1 0 0 -1 0 782)"><stop offset="0" stop-color="gray" stop-opacity=".25"/><stop offset=".54" stop-color="gray" stop-opacity=".12"/><stop offset="1" stop-color="gray" stop-opacity=".1"/></linearGradient><path class="st7" d="M265.3 127.1h422.3v583.4H265.3z"/></g><path class="st8" d="M270.6 131.4h411.5v570.5H270.6z"/><linearGradient id="SVGID_5_" gradientUnits="userSpaceOnUse" x1="476.94" y1="625.87" x2="476.94" y2="675.32" gradientTransform="matrix(1 0 0 -1 0 782)"><stop offset="0" stop-color="gray" stop-opacity=".25"/><stop offset=".54" stop-color="gray" stop-opacity=".12"/><stop offset="1" stop-color="gray" stop-opacity=".1"/></linearGradient><path class="st9" d="M374.9 106.7H579v49.5H374.9z"/><linearGradient id="SVGID_6_" gradientUnits="userSpaceOnUse" x1="666.86" y1="605.56" x2="666.86" y2="664" gradientTransform="matrix(1 0 0 -1 -189.92 722.41)"><stop offset="0" stop-color="gray" stop-opacity=".25"/><stop offset=".54" stop-color="gray" stop-opacity=".12"/><stop offset="1" stop-color="gray" stop-opacity=".1"/></linearGradient><path class="st10" d="M476.9 58.4c-15.8 0-28.5 13.1-28.5 29.2s12.8 29.2 28.5 29.2 28.5-13.1 28.5-29.2-12.7-29.2-28.5-29.2zm0 46.1c-9.3.2-17-7.1-17.3-16.5-.2-9.3 7.1-17 16.5-17.3s17 7.1 17.3 16.5v.4c.1 9.2-7.3 16.7-16.5 16.9z"/><path class="st11" d="M377 104.6h199.8v47.3H377z"/><path class="st11" d="M476.9 58.4c-15.4 0-27.9 12.5-27.9 27.9s12.5 27.9 27.9 27.9 27.9-12.5 27.9-27.9c.1-15.4-12.4-27.9-27.9-27.9zm0 44.1c-8.9 0-16.1-7.2-16.1-16.1 0-8.9 7.2-16.1 16.1-16.1 8.9 0 16.1 7.2 16.1 16.1.1 8.8-7.1 16-16.1 16.1 0-.1 0-.1 0 0z"/><g class="st1"><path class="st12" d="M15.3 737h3.8v21.3h-3.8z"/><path class="st12" d="M6.5 745.8h21.3v3.8H6.5z"/></g><g class="st1"><path class="st12" d="M451.5 0h3.8v21.3h-3.8z"/><path class="st12" d="M442.7 8.8H464v3.8h-21.3z"/></g><path class="st13" d="M771.1 772.6c-2.1-.9-3.3-3.3-2.6-5.6.1-.2.1-.3.1-.5.1-1.3-.9-2.4-2.2-2.4-.8 0-1.5.3-2 .9-.1.1-.2.3-.3.5-.9 2.1-3.3 3.3-5.6 2.6-.2-.1-.3-.1-.5-.1-1.3-.1-2.4.9-2.4 2.2 0 .8.3 1.5.9 2 .1.1.3.2.5.3 2.1.9 3.3 3.3 2.6 5.6-.1.2-.1.3-.1.5-.1 1.3.9 2.4 2.2 2.4.8 0 1.5-.3 2-.9.1-.1.2-.3.3-.5.9-2.1 3.3-3.3 5.6-2.6.2.1.3.1.5.1 1.3.1 2.4-.9 2.4-2.2 0-.8-.3-1.5-.9-2-.2-.2-.4-.3-.5-.3z"/><circle class="st14" cx="812.6" cy="314.5" r="7.5"/><path class="st15" d="M136.7 567.5c-2.1-.9-3.3-3.3-2.6-5.6.1-.2.1-.3.1-.5.1-1.3-.9-2.4-2.2-2.4-.8 0-1.5.3-2 .9-.1.1-.2.3-.3.5-.9 2.1-3.3 3.3-5.6 2.6-.2-.1-.3-.1-.5-.1-1.3-.1-2.4.9-2.4 2.2 0 .8.3 1.5.9 2 .1.1.3.2.5.3 2.1.9 3.3 3.3 2.6 5.6-.1.2-.1.3-.1.5-.1 1.3.9 2.4 2.2 2.4.8 0 1.5-.3 2-.9.1-.1.2-.3.3-.5.9-2.1 3.3-3.3 5.6-2.6.2.1.3.1.5.1 1.3.1 2.4-.9 2.4-2.2 0-.8-.3-1.5-.9-2-.2-.1-.4-.2-.5-.3zM665.1 68.2c-2.1-.9-3.3-3.3-2.6-5.6.1-.2.1-.3.1-.5.1-1.3-.9-2.4-2.2-2.4-.8 0-1.5.3-2 .9-.1.1-.2.3-.3.4-.9 2.1-3.3 3.3-5.6 2.6-.2-.1-.3-.1-.5-.1-1.3-.1-2.4.9-2.4 2.2 0 .8.3 1.5.9 2 .1.1.3.2.5.3 2.1.9 3.3 3.3 2.6 5.6-.1.2-.1.3-.1.5-.1 1.3.9 2.4 2.2 2.4.8 0 1.5-.3 2-.9.1-.1.2-.3.3-.4.9-2.1 3.3-3.3 5.6-2.6.2.1.3.1.5.1 1.3.1 2.4-.9 2.4-2.2 0-.8-.3-1.5-.9-2-.2-.2-.4-.3-.5-.3z"/><circle class="st14" cx="230.7" cy="746.7" r="7.5"/><circle class="st14" cx="735.3" cy="477.2" r="7.5"/><circle class="st13" cx="87.1" cy="96.3" r="7.5"/><circle class="st16" cx="7.5" cy="301.8" r="7.5"/></svg>