<svg width="150" height="96" viewBox="0 0 150 96" fill="none" xmlns="http://www.w3.org/2000/svg">
<g clip-path="url(#clip0)">
<g clip-path="url(#clip1)">
<path d="M43.409 88.9202C43.3905 91.0326 43.2357 93.1416 42.9458 95.2341C42.9356 95.3075 42.9246 95.381 42.9144 95.4545L23.1322 95.344C23.0741 95.271 23.017 95.1971 22.9616 95.1224C22.7769 94.8751 22.6038 94.6207 22.4449 94.3575C21.6811 93.0898 21.3314 91.6056 21.6818 90.5815L21.6881 90.5656C21.7638 90.3413 21.8829 90.1342 22.0388 89.9562C22.8377 89.0569 24.453 89.2068 25.9188 89.9327C24.6041 88.4935 23.5572 86.6776 23.4776 85.0566C23.3996 83.4755 24.2264 82.346 25.1231 81.3861C25.1525 81.3544 25.1819 81.3236 25.2113 81.2927C25.2256 81.2768 25.2407 81.2619 25.255 81.246C25.9546 80.5145 26.7702 79.7934 27.9508 79.8807C29.2456 79.9765 30.6811 81.061 31.6876 82.3248C32.6942 83.5877 33.363 85.0223 34.041 86.4225C34.7198 87.8217 35.4543 89.2568 36.5436 90.4528C35.0682 88.5866 33.8786 86.4632 33.4392 84.3981C32.9998 82.333 33.3865 80.3496 34.7014 79.377C35.1006 79.0908 35.5626 78.9045 36.0486 78.8334C36.1053 78.824 36.1629 78.8164 36.2215 78.8096C37.4387 78.6711 38.8921 79.0921 40.1287 80.0984C41.4905 81.2065 42.4346 82.8491 42.9044 84.4085C43.3741 85.9678 43.4242 87.469 43.409 88.9202Z" fill="#F2F2F2"/>
<path d="M30.4666 95.385L30.0883 95.3829C29.9682 95.3078 29.8475 95.2336 29.7263 95.1603C29.6512 95.1129 29.5753 95.0673 29.4993 95.0208C28.2446 94.2544 26.982 93.5194 25.7116 92.8156C24.4423 92.1112 23.1666 91.4393 21.8846 90.7998C21.8506 90.785 21.8229 90.7587 21.8063 90.7256C21.7896 90.6925 21.7851 90.6546 21.7935 90.6185C21.7949 90.6138 21.797 90.6093 21.7998 90.6053C21.8177 90.5717 21.8576 90.5577 21.916 90.5864C22.0732 90.6653 22.2314 90.7441 22.3886 90.8247C23.6742 91.4752 24.9542 92.1581 26.2287 92.8734C27.5023 93.5884 28.7687 94.3351 30.0278 95.1132C30.0542 95.1293 30.0808 95.1463 30.1072 95.1624C30.2273 95.2366 30.3465 95.3108 30.4666 95.385Z" fill="white"/>
<path d="M35.3436 95.4122L35.1097 95.4109C35.0569 95.3371 35.0051 95.2633 34.9523 95.1894C33.7128 93.4512 32.4735 91.713 31.2345 89.9748C29.2056 87.1291 27.1772 84.2834 25.1494 81.4377C25.1374 81.4224 25.1284 81.4049 25.1231 81.3862C25.1057 81.3232 25.152 81.2862 25.2113 81.2927C25.2363 81.2963 25.2603 81.3052 25.2816 81.3187C25.3029 81.3323 25.3211 81.3503 25.3349 81.3714C26.4725 82.9673 27.6098 84.5625 28.7467 86.1572C30.7652 88.9887 32.7833 91.8199 34.8012 94.6508C34.9295 94.8304 35.0579 95.011 35.1862 95.1907C35.239 95.2646 35.2917 95.3384 35.3436 95.4122Z" fill="white"/>
<path d="M40.5548 94.0539C40.5429 94.4481 40.5168 94.836 40.4827 95.2203C40.4761 95.2938 40.4695 95.3673 40.4629 95.4408L40.2175 95.4395C40.225 95.366 40.2325 95.2925 40.2391 95.219C40.2909 94.6637 40.3277 94.1022 40.3327 93.5254C40.3393 91.9264 40.1834 90.3308 39.8676 88.7632C39.5319 87.0753 39.0499 85.4198 38.4271 83.8156C37.7734 82.1236 36.9853 80.4866 36.0702 78.9204C36.053 78.8949 36.0453 78.8641 36.0486 78.8335C36.0587 78.7635 36.1518 78.7428 36.2215 78.8096C36.2352 78.8227 36.2471 78.8377 36.2566 78.8541C36.3699 79.0488 36.481 79.2441 36.5901 79.4399C37.4714 81.0148 38.2257 82.6574 38.8459 84.3522C39.4366 85.9617 39.886 87.6196 40.1888 89.3072C40.4725 90.8728 40.5951 92.4633 40.5548 94.0539Z" fill="white"/>
<path d="M93.7018 3.11985C93.7018 2.5028 93.8848 1.89961 94.2277 1.38655C94.5706 0.873499 95.058 0.473619 95.6283 0.237485C96.1985 0.00135154 96.826 -0.0604315 97.4314 0.0599485C98.0368 0.180329 98.5929 0.477465 99.0293 0.913784C99.4658 1.3501 99.763 1.906 99.8834 2.5112C100.004 3.11639 99.942 3.74369 99.7058 4.31376C99.4696 4.88384 99.0696 5.37109 98.5564 5.71391C98.0432 6.05672 97.4398 6.2397 96.8226 6.2397C95.9952 6.23876 95.2019 5.90976 94.6169 5.32488C94.0318 4.74 93.7027 3.947 93.7018 3.11985ZM99.6149 3.11985C99.6149 2.56775 99.4511 2.02806 99.1443 1.56901C98.8375 1.10995 98.4014 0.752168 97.8911 0.54089C97.3809 0.329613 96.8195 0.274334 96.2778 0.382042C95.7362 0.489751 95.2386 0.755611 94.8481 1.146C94.4576 1.53639 94.1917 2.03378 94.0839 2.57526C93.9762 3.11675 94.0315 3.67802 94.2428 4.18809C94.4542 4.69816 94.8121 5.13412 95.2713 5.44085C95.7305 5.74758 96.2703 5.91129 96.8226 5.91129C97.5629 5.91046 98.2726 5.61609 98.7961 5.09278C99.3196 4.56946 99.614 3.85993 99.6149 3.11985Z" fill="#CCCCCC"/>
<path d="M96.8236 4.92605C97.8211 4.92605 98.6298 4.11738 98.6298 3.11983C98.6298 2.12227 97.8211 1.3136 96.8236 1.3136C95.826 1.3136 95.0173 2.12227 95.0173 3.11983C95.0173 4.11738 95.826 4.92605 96.8236 4.92605Z" fill="#C52939"/>
<path d="M86.3137 6.07547C87.9466 6.07547 89.2703 4.75219 89.2703 3.11983C89.2703 1.48747 87.9466 0.164185 86.3137 0.164185C84.6808 0.164185 83.3571 1.48747 83.3571 3.11983C83.3571 4.75219 84.6808 6.07547 86.3137 6.07547Z" fill="#CCCCCC"/>
<path d="M75.8067 6.07547C77.4385 6.07547 78.7614 4.75219 78.7614 3.11983C78.7614 1.48747 77.4385 0.164185 75.8067 0.164185C74.1749 0.164185 72.8521 1.48747 72.8521 3.11983C72.8521 4.75219 74.1749 6.07547 75.8067 6.07547Z" fill="#CCCCCC"/>
<path d="M125.722 56.8138H50.3546C49.6145 56.8129 48.905 56.5186 48.3817 55.9953C47.8584 55.4719 47.564 54.7624 47.5632 54.0223V14.4498C47.564 13.7097 47.8584 13.0001 48.3817 12.4768C48.905 11.9535 49.6145 11.6592 50.3546 11.6583H125.722C126.462 11.6592 127.172 11.9535 127.695 12.4768C128.218 13.0001 128.513 13.7097 128.513 14.4498V54.0223C128.513 54.7624 128.218 55.4719 127.695 55.9953C127.172 56.5186 126.462 56.8129 125.722 56.8138ZM50.3546 11.9867C49.7016 11.9875 49.0755 12.2472 48.6138 12.7089C48.1521 13.1707 47.8923 13.7967 47.8916 14.4498V54.0223C47.8923 54.6754 48.1521 55.3014 48.6138 55.7631C49.0755 56.2249 49.7016 56.4846 50.3546 56.4854H125.722C126.375 56.4846 127.001 56.2249 127.463 55.7631C127.924 55.3014 128.184 54.6754 128.185 54.0223V14.4498C128.184 13.7967 127.924 13.1707 127.463 12.7089C127.001 12.2472 126.375 11.9875 125.722 11.9867H50.3546Z" fill="#111111"/>
<path d="M75.9699 46.3046H56.5934C55.8533 46.3038 55.1437 46.0094 54.6204 45.4861C54.0971 44.9628 53.8027 44.2533 53.8019 43.5132V24.1377C53.8027 23.3976 54.0971 22.6881 54.6204 22.1648C55.1437 21.6415 55.8533 21.3471 56.5934 21.3463H75.9699C76.71 21.3471 77.4195 21.6415 77.9429 22.1648C78.4662 22.6881 78.7606 23.3976 78.7614 24.1377V43.5132C78.7606 44.2533 78.4662 44.9628 77.9429 45.4861C77.4195 46.0094 76.71 46.3038 75.9699 46.3046ZM56.5934 21.6747C55.9404 21.6755 55.3143 21.9352 54.8525 22.3969C54.3908 22.8587 54.131 23.4847 54.1303 24.1377V43.5132C54.131 44.1662 54.3908 44.7923 54.8525 45.254C55.3143 45.7157 55.9404 45.9755 56.5934 45.9762H75.9699C76.6229 45.9755 77.249 45.7157 77.7107 45.254C78.1725 44.7923 78.4322 44.1662 78.433 43.5132V24.1377C78.4322 23.4847 78.1725 22.8587 77.7107 22.3969C77.249 21.9352 76.6229 21.6755 75.9699 21.6747H56.5934Z" fill="#CCCCCC"/>
<path d="M123.751 31.8553H86.4789C86.1305 31.8553 85.7964 31.7169 85.55 31.4705C85.3037 31.2242 85.1653 30.89 85.1653 30.5416C85.1653 30.1933 85.3037 29.8591 85.55 29.6128C85.7964 29.3664 86.1305 29.228 86.4789 29.228H123.751C124.099 29.228 124.433 29.3664 124.679 29.6128C124.926 29.8591 125.064 30.1933 125.064 30.5416C125.064 30.89 124.926 31.2242 124.679 31.4705C124.433 31.7169 124.099 31.8553 123.751 31.8553Z" fill="#CCCCCC"/>
<path d="M104.868 26.2724H86.4788C86.1304 26.2724 85.7964 26.134 85.55 25.8876C85.3037 25.6413 85.1653 25.3072 85.1653 24.9588C85.1653 24.6104 85.3037 24.2762 85.55 24.0299C85.7964 23.7835 86.1304 23.6451 86.4788 23.6451H104.868C105.216 23.6451 105.55 23.7835 105.796 24.0299C106.043 24.2762 106.181 24.6104 106.181 24.9588C106.181 25.3072 106.043 25.6413 105.796 25.8876C105.55 26.134 105.216 26.2724 104.868 26.2724Z" fill="#CCCCCC"/>
<path d="M123.751 42.8569H86.4789C86.1305 42.8569 85.7964 42.7185 85.55 42.4721C85.3037 42.2258 85.1653 41.8916 85.1653 41.5432C85.1653 41.1948 85.3037 40.8607 85.55 40.6144C85.7964 40.368 86.1305 40.2296 86.4789 40.2296H123.751C124.099 40.2296 124.433 40.368 124.679 40.6144C124.926 40.8607 125.064 41.1948 125.064 41.5432C125.064 41.8916 124.926 42.2258 124.679 42.4721C124.433 42.7185 124.099 42.8569 123.751 42.8569Z" fill="#CCCCCC"/>
<path d="M104.868 37.274H86.4788C86.1304 37.274 85.7964 37.1356 85.55 36.8892C85.3037 36.6429 85.1653 36.3087 85.1653 35.9604C85.1653 35.612 85.3037 35.2778 85.55 35.0315C85.7964 34.7851 86.1304 34.6467 86.4788 34.6467H104.868C105.216 34.6467 105.55 34.7851 105.796 35.0315C106.043 35.2778 106.181 35.612 106.181 35.9604C106.181 36.3087 106.043 36.6429 105.796 36.8892C105.55 37.1356 105.216 37.274 104.868 37.274Z" fill="#CCCCCC"/>
<path d="M77.8689 45.4925C77.8471 45.4925 77.8256 45.4882 77.8055 45.4798C77.7854 45.4714 77.7672 45.4591 77.752 45.4436L54.8257 22.2092C54.8106 22.1938 54.7986 22.1756 54.7905 22.1557C54.7824 22.1357 54.7783 22.1143 54.7784 22.0927C54.7786 22.0712 54.783 22.0499 54.7913 22.03C54.7997 22.0101 54.8119 21.9921 54.8273 21.977C54.8426 21.9618 54.8608 21.9499 54.8808 21.9418C54.9008 21.9336 54.9222 21.9295 54.9437 21.9297C54.9653 21.9298 54.9866 21.9342 55.0065 21.9426C55.0263 21.951 55.0443 21.9632 55.0595 21.9786L77.9858 45.213C78.0085 45.236 78.0239 45.2653 78.0301 45.2971C78.0362 45.3289 78.0329 45.3618 78.0204 45.3917C78.0079 45.4215 77.9868 45.447 77.9599 45.465C77.9329 45.4829 77.9012 45.4925 77.8689 45.4925Z" fill="#CCCCCC"/>
<path d="M54.6944 45.4924C54.662 45.4924 54.6303 45.4829 54.6034 45.4649C54.5764 45.447 54.5554 45.4215 54.5429 45.3916C54.5304 45.3617 54.527 45.3288 54.5331 45.297C54.5393 45.2652 54.5547 45.236 54.5775 45.2129L77.5011 21.9785C77.5162 21.9631 77.5342 21.9509 77.5541 21.9425C77.574 21.934 77.5953 21.9296 77.6169 21.9294C77.6385 21.9293 77.6599 21.9334 77.6799 21.9415C77.6999 21.9496 77.7181 21.9616 77.7334 21.9767C77.7488 21.9919 77.761 22.0099 77.7694 22.0298C77.7778 22.0497 77.7822 22.071 77.7823 22.0926C77.7825 22.1142 77.7783 22.1356 77.7702 22.1556C77.762 22.1756 77.75 22.1938 77.7349 22.2091L54.8112 45.4435C54.796 45.4591 54.7778 45.4714 54.7577 45.4798C54.7377 45.4882 54.7161 45.4925 54.6944 45.4924Z" fill="#CCCCCC"/>
<path d="M122.603 51.9702H112.094C111.419 51.9702 110.772 51.702 110.294 51.2247C109.817 50.7474 109.549 50.1 109.549 49.425C109.549 48.75 109.817 48.1026 110.294 47.6253C110.772 47.148 111.419 46.8799 112.094 46.8799H122.603C123.278 46.8799 123.925 47.148 124.403 47.6253C124.88 48.1026 125.148 48.75 125.148 49.425C125.148 50.1 124.88 50.7474 124.403 51.2247C123.925 51.702 123.278 51.9702 122.603 51.9702Z" fill="#C52939"/>
<path d="M22.9174 95.4385H72.341C72.3845 95.4385 72.4263 95.4212 72.4571 95.3904C72.4879 95.3596 72.5051 95.3179 72.5051 95.2743C72.5051 95.2308 72.4879 95.189 72.4571 95.1582C72.4263 95.1274 72.3845 95.1101 72.341 95.1101H22.9174C22.8739 95.1101 22.8321 95.1274 22.8013 95.1582C22.7705 95.189 22.7532 95.2308 22.7532 95.2743C22.7532 95.3179 22.7705 95.3596 22.8013 95.3904C22.8321 95.4212 22.8739 95.4385 22.9174 95.4385Z" fill="#111111"/>
<path d="M53.7755 93.5582L55.7886 93.558L56.7462 85.7932L53.7751 85.7934L53.7755 93.5582Z" fill="#A0616A"/>
<path d="M59.671 95.4269L53.3441 95.4272L53.344 92.9827L57.2264 92.9825C57.8747 92.9825 58.4965 93.24 58.9549 93.6984C59.4134 94.1568 59.6709 94.7786 59.671 95.4269Z" fill="#111111"/>
<path d="M39.169 91.2777L41 92.1141L45.0975 85.4492L42.3949 84.2148L39.169 91.2777Z" fill="#A0616A"/>
<path d="M43.7542 95.4275L37.9988 92.7989L39.0145 90.5754L42.5462 92.1884C43.1359 92.4578 43.5945 92.9503 43.821 93.5578C44.0476 94.1652 44.0235 94.8378 43.7542 95.4275L43.7542 95.4275Z" fill="#111111"/>
<path d="M45.0313 67.3771C44.8385 67.232 44.6798 67.0463 44.5664 66.8332C44.4531 66.6201 44.3878 66.3847 44.3753 66.1436C44.3627 65.9025 44.4032 65.6617 44.4938 65.4379C44.5844 65.2142 44.723 65.013 44.8998 64.8487L42.5334 59.4792L45.5397 59.9887L47.326 65.0095C47.5824 65.3248 47.7143 65.7232 47.6967 66.1292C47.6791 66.5352 47.5131 66.9207 47.2303 67.2125C46.9474 67.5044 46.5673 67.6823 46.1621 67.7127C45.7568 67.743 45.3545 67.6236 45.0313 67.3771Z" fill="#A0616A"/>
<path d="M53.1696 90.8558L51.2383 73.9883C51.2227 73.8526 51.1593 73.7268 51.0594 73.6336C50.9596 73.5404 50.8298 73.4858 50.6933 73.4797C50.5568 73.4735 50.4226 73.5161 50.3147 73.5999C50.2069 73.6837 50.1324 73.8032 50.1046 73.937L49.1472 78.5501C49.1337 78.6153 49.1113 78.6784 49.0808 78.7377L43.4762 89.6356C43.3936 89.796 43.2553 89.9207 43.0872 89.9861C42.9191 90.0516 42.7329 90.0533 42.5637 89.991L40.6149 89.2729C40.5229 89.2391 40.4386 89.1873 40.3669 89.1206C40.2952 89.0538 40.2375 88.9735 40.1971 88.8843C40.1567 88.795 40.1345 88.6986 40.1317 88.6007C40.1289 88.5028 40.1456 88.4053 40.1809 88.3139L44.7432 76.4826C44.7674 76.4201 44.7804 76.3537 44.7816 76.2867L45.0147 63.9328C45.0182 63.7517 45.088 63.5782 45.211 63.4452C45.3339 63.3122 45.5015 63.229 45.6817 63.2114L57.7891 62.0302C57.8962 62.0198 58.0042 62.0328 58.1058 62.0685C58.2073 62.1042 58.2998 62.1616 58.3768 62.2367C58.4538 62.3118 58.5135 62.4029 58.5517 62.5035C58.5899 62.6041 58.6056 62.7119 58.5978 62.8192L56.5638 90.8253C56.5497 91.0113 56.466 91.1851 56.3294 91.3121C56.1928 91.4391 56.0134 91.51 55.8269 91.5107H53.9038C53.7223 91.5107 53.5472 91.444 53.4118 91.3232C53.2764 91.2024 53.1902 91.036 53.1696 90.8558Z" fill="#111111"/>
<path d="M52.9471 40.9212C55.1744 40.9212 56.98 39.1156 56.98 36.8882C56.98 34.6609 55.1744 32.8552 52.9471 32.8552C50.7198 32.8552 48.9142 34.6609 48.9142 36.8882C48.9142 39.1156 50.7198 40.9212 52.9471 40.9212Z" fill="#A0616A"/>
<path d="M56.4412 43.1243C56.3307 43.0715 56.2211 43.0208 56.1123 42.9721H56.1123C54.788 42.3764 53.3288 42.1445 51.885 42.3004C50.4413 42.4563 49.0652 42.9943 47.8986 43.859C45.7506 45.4589 44.7153 47.8676 45.0581 50.4676C45.7807 55.9475 44.9533 63.381 44.8674 64.1214C51.4974 67.17 57.3141 63.3371 57.8303 62.981L56.4412 43.1243Z" fill="#C52939"/>
<path d="M44.6872 64.0509C44.5664 64.0317 44.4523 63.9828 44.3551 63.9085C44.2579 63.8342 44.1808 63.7369 44.1306 63.6253L40.7464 56.127C40.6196 55.8465 40.5637 55.5391 40.5834 55.2319C40.6031 54.9247 40.698 54.627 40.8597 54.3651L45.0155 47.6217C45.1463 47.3788 45.3476 47.1813 45.593 47.0552C45.8383 46.929 46.1161 46.8802 46.3897 46.9152C46.6633 46.9501 46.9199 47.0672 47.1257 47.251C47.3314 47.4347 47.4766 47.6765 47.5421 47.9445C47.6164 48.2498 47.5834 48.5713 47.4486 48.8551L44.3744 55.311L46.3949 62.1496C46.4306 62.2719 46.4343 62.4013 46.4056 62.5253C46.3769 62.6494 46.3168 62.7641 46.231 62.8582L45.3488 63.8207C45.2798 63.8962 45.1958 63.9565 45.1021 63.9978C45.0085 64.0391 44.9073 64.0604 44.805 64.0604C44.7655 64.0603 44.7261 64.0572 44.6872 64.0509Z" fill="#C52939"/>
<path opacity="0.2" d="M54.1095 62.4839L53.4841 49.9716L53.6463 49.9504L56.4579 63.1857H54.8472C54.6577 63.1859 54.4754 63.1131 54.338 62.9824C54.2007 62.8517 54.1189 62.6732 54.1095 62.4839Z" fill="#111111"/>
<path d="M56.3376 66.4764C56.179 66.2943 56.0624 66.0797 55.9957 65.8477C55.9291 65.6157 55.9141 65.3719 55.9519 65.1335C55.9897 64.8951 56.0793 64.6678 56.2144 64.4678C56.3495 64.2678 56.5268 64.0998 56.7339 63.9757L55.5338 58.2319L58.3688 59.3545L59.0738 64.6367C59.2592 64.9984 59.3055 65.4155 59.204 65.809C59.1024 66.2025 58.86 66.5451 58.5228 66.7719C58.1855 66.9987 57.7768 67.0938 57.374 67.0393C56.9713 66.9849 56.6025 66.7846 56.3376 66.4764Z" fill="#A0616A"/>
<path d="M55.7711 62.5727L53.4018 46.7777L53.3996 46.7628L53.8576 44.656C53.9723 44.1283 54.2754 43.6604 54.7102 43.3399C55.145 43.0195 55.6816 42.8684 56.2197 42.915C56.7578 42.9616 57.2605 43.2027 57.6337 43.5931C58.0069 43.9836 58.2251 44.4966 58.2474 45.0362L58.9584 62.2417C58.9655 62.4285 58.9018 62.6111 58.78 62.753C58.6583 62.8948 58.4874 62.9854 58.3017 63.0066L56.5834 63.1976C56.5557 63.2007 56.5279 63.2022 56.5001 63.2023C56.3232 63.2023 56.1522 63.1388 56.0184 63.0232C55.8845 62.9076 55.7968 62.7477 55.7711 62.5727Z" fill="#C52939"/>
<path d="M51.2886 40.5508C50.74 40.5461 50.204 40.3862 49.7426 40.0895C49.2811 39.7928 48.9131 39.3716 48.6812 38.8744C48.3073 38.0837 48.0996 37.4537 48.0637 37.0019C47.9673 35.788 48.6532 33.8805 49.5615 32.8365C50.5579 31.6911 52.1351 31.5313 53.6603 31.3768C54.077 31.3345 54.5079 31.2909 54.9158 31.2275C55.2658 31.1731 55.7013 31.1055 56.0715 31.2429C56.1785 31.2821 56.2764 31.3427 56.3592 31.421C56.4419 31.4993 56.5079 31.5936 56.553 31.6983C56.5675 31.735 56.5894 31.7684 56.6173 31.7964C56.6453 31.8244 56.6786 31.8464 56.7154 31.861C56.7471 31.8731 56.781 31.8786 56.8149 31.8769C56.8489 31.8753 56.8821 31.8667 56.9126 31.8516C56.9745 31.8201 57.0429 31.8037 57.1124 31.8037C57.1819 31.8036 57.2504 31.82 57.3123 31.8515C57.367 31.879 57.4144 31.9191 57.4507 31.9684C57.4869 32.0178 57.511 32.075 57.5209 32.1354C57.5273 32.1769 57.5402 32.2171 57.559 32.2546C57.5909 32.313 57.6349 32.3639 57.6879 32.4041C57.741 32.4442 57.8019 32.4727 57.8668 32.4875C57.9658 32.5096 58.0533 32.5671 58.1128 32.6492C58.1724 32.7313 58.1999 32.8323 58.1901 32.9332C58.1656 33.1404 58.1551 33.364 58.145 33.5802C58.1069 34.3938 58.0677 35.235 57.2497 35.2214C57.0405 35.2127 56.8334 35.1762 56.6339 35.1127C56.3377 35.0304 56.1036 34.9651 55.7884 35.1617C55.3037 35.4638 55.2246 36.0954 55.1548 36.6526L55.1425 36.75C55.061 37.3873 54.7241 38.1543 54.0432 38.2184C53.827 38.2255 53.6116 38.1882 53.4104 38.1088C53.2035 38.0172 52.9738 37.9896 52.7511 38.0296C52.3771 38.1363 52.1971 38.583 52.2125 38.9691C52.2225 39.1272 52.2427 39.2845 52.2731 39.44C52.3282 39.6863 52.3458 39.9394 52.3254 40.191C52.306 40.3439 52.1302 40.4448 51.7723 40.5082C51.6126 40.5365 51.4508 40.5508 51.2886 40.5508Z" fill="#111111"/>
</g>
</g>
<defs>
<clipPath id="clip0">
<rect width="150" height="95.4545" fill="white"/>
</clipPath>
<clipPath id="clip1">
<rect width="106.969" height="95.4545" fill="white" transform="translate(21.5454)"/>
</clipPath>
</defs>
</svg>
