<svg width="150" height="120" viewBox="0 0 150 120" fill="none" xmlns="http://www.w3.org/2000/svg">
<path d="M63.8136 11.298C57.7165 8.82238 51.2733 6.74976 44.6955 7.01354C35.0174 7.39365 25.7478 13.2034 21.1942 21.7347C17.3361 28.9617 16.8605 37.434 15.1988 45.454C13.1517 55.3369 9.23123 64.7284 5.04183 73.9131C2.79131 78.8399 0.417705 83.886 0.0486489 89.2946C-0.464767 96.8015 3.1292 104.285 8.76378 109.283C14.3983 114.282 21.8864 116.912 29.3943 117.487C33.3918 117.793 37.5681 117.509 41.1194 115.652C44.8756 113.685 47.6136 110.132 51.3846 108.195C54.88 106.393 58.9678 106.147 62.8914 106.381C68.0308 106.689 73.0951 107.764 77.9152 109.57C83.3989 111.628 88.4987 114.607 93.9713 116.692C99.4434 118.778 105.557 119.943 111.15 118.201C116.4 116.563 120.556 112.598 124.301 108.575C130.448 101.974 136.054 94.889 141.065 87.3908C144.443 82.3376 147.585 77.0065 149.08 71.1162C151.934 59.8572 148.006 47.153 139.289 39.4623C132.071 33.0921 122.378 30.3265 112.893 28.6487C104.243 27.1185 94.2416 27.0234 86.2797 23.0355C78.6848 19.2263 71.7756 14.5322 63.8136 11.298Z" fill="#E5F3F6"/>
<path d="M0 15.6655C2.99509 27.1654 12.6575 34.5982 21.6034 32.284L0 15.6655Z" fill="#4ACAE2"/>
<path d="M6.13379 15.1908C8.97881 26.1144 15.8969 33.7595 21.6014 32.2838L6.13379 15.1908Z" fill="#096979"/>
<path opacity="0.3" d="M135.156 30.876H27.3809V87.3849H135.156V30.876Z" fill="#00879D"/>
<path d="M130.495 24.4678H22.7202V81.5593H130.495V24.4678Z" fill="#00879D"/>
<path d="M78.6465 66.4126C85.4026 66.4126 90.8804 60.9352 90.8804 54.1783C90.8804 47.4222 85.4026 41.9448 78.6465 41.9448C71.8897 41.9448 66.4126 47.4222 66.4126 54.1783C66.4126 60.9352 71.8897 66.4126 78.6465 66.4126Z" fill="white"/>
<path d="M78.6463 40.197C75.7664 40.197 72.9504 41.051 70.5551 42.6518C68.1606 44.2518 66.2935 46.5269 65.1911 49.1878C64.0886 51.8487 63.8004 54.7776 64.3625 57.6024C64.9247 60.4279 66.3116 63.0231 68.348 65.0596C70.3851 67.0968 72.9805 68.4838 75.8055 69.0456C78.6305 69.6074 81.5586 69.319 84.2203 68.2165C86.8813 67.1141 89.1554 65.2476 90.7561 62.8525C92.3567 60.4573 93.2108 57.6416 93.2108 54.761C93.1995 50.9018 91.6614 47.2042 88.9327 44.4753C86.2033 41.7464 82.5061 40.2083 78.6463 40.197Z" fill="white"/>
<path d="M86.3994 59.3365L74.0721 47.0082C73.5343 46.4711 72.6625 46.4711 72.1262 47.0082L71.476 47.6569C70.939 48.1947 70.939 49.0666 71.476 49.6037L83.8033 61.9313C84.3411 62.4691 85.2129 62.4691 85.7492 61.9313L86.3979 61.2826C86.9372 60.7462 86.9372 59.8743 86.3994 59.3365Z" fill="black"/>
<path d="M83.8031 47.0086L71.476 59.3358C70.939 59.8736 70.939 60.7455 71.476 61.2826L72.1247 61.9313C72.6625 62.4691 73.5343 62.4691 74.0713 61.9313L86.3992 49.6041C86.937 49.0663 86.937 48.1951 86.3992 47.658L85.7498 47.0094C85.2128 46.4708 84.3409 46.4708 83.8031 47.0086Z" fill="black"/>
<path d="M134.221 58.8392H100.784V60.6827H134.221V58.8392Z" fill="#4ACAE2"/>
<path d="M149.446 62.2423H100.784V64.0858H149.446V62.2423Z" fill="#4ACAE2"/>
<path d="M134.221 70.4675H100.784V72.3108H134.221V70.4675Z" fill="#4ACAE2"/>
<path d="M134.221 84.0808H100.784V85.9246H134.221V84.0808Z" fill="#4ACAE2"/>
<path d="M149.446 73.8708H100.784V75.7141H149.446V73.8708Z" fill="#4ACAE2"/>
<path d="M149.446 77.2742H100.784V79.118H149.446V77.2742Z" fill="#4ACAE2"/>
<path d="M149.446 80.6775H100.784V82.5207H149.446V80.6775Z" fill="#4ACAE2"/>
<path d="M118.285 92.3054H100.784V97.1273H118.285V92.3054Z" fill="#4ACAE2"/>
<path d="M18.2349 33.3114C18.2349 33.3114 20.5115 32.6472 21.0755 31.9774C21.6394 31.3075 24.3256 29.9869 24.7019 30.7298C25.0789 31.4728 29.1714 33.7532 26.5854 34.4444C23.9994 35.1356 20.4597 35.5998 19.6598 35.3593C18.8605 35.1187 18.2349 33.3114 18.2349 33.3114Z" fill="#7D7D7E"/>
<path opacity="0.2" d="M26.5603 34.1582C23.9743 34.8494 20.4346 35.3136 19.6348 35.073C19.026 34.8899 18.518 33.7987 18.3106 33.2885C18.2622 33.3031 18.2349 33.3113 18.2349 33.3113C18.2349 33.3113 18.8605 35.1185 19.6598 35.3591C20.4597 35.5996 23.9994 35.1354 26.5854 34.4442C27.3316 34.2447 27.521 33.9126 27.4045 33.5235C27.3625 33.7877 27.1161 34.0097 26.5603 34.1582Z" fill="black"/>
<path d="M21.6017 32.284C18.5729 20.6549 24.2005 9.15496 34.1834 6.57239L21.6017 32.284Z" fill="#096979"/>
<path d="M21.6011 32.2839C17.7312 17.4246 23.9366 2.98506 35.475 0L21.6011 32.2839Z" fill="#4ACAE2"/>
</svg>
