<svg id="eOHLmTeIPCr1" xmlns="http://www.w3.org/2000/svg" xmlns:xlink="http://www.w3.org/1999/xlink" viewBox="0 0 319 236" shape-rendering="geometricPrecision" text-rendering="geometricPrecision"><style><![CDATA[#eOHLmTeIPCr78_to {animation: eOHLmTeIPCr78_to__to 3000ms linear infinite normal forwards}@keyframes eOHLmTeIPCr78_to__to { 0% {transform: translate(130px,159.116276px)} 6.666667% {transform: translate(130px,159.116276px)} 33.333333% {transform: translate(130px,117.253319px)} 100% {transform: translate(130px,117.253319px)}} #eOHLmTeIPCr78_ts {animation: eOHLmTeIPCr78_ts__ts 3000ms linear infinite normal forwards}@keyframes eOHLmTeIPCr78_ts__ts { 0% {transform: scale(1.256842,1.256842)} 6.666667% {transform: scale(1.256842,1.256842)} 33.333333% {transform: scale(1.766032,1.766032)} 100% {transform: scale(1.766032,1.766032)}}]]></style><defs><clipPath id="eOHLmTeIPCr2"><rect id="eOHLmTeIPCr3" width="319" height="236" rx="0" ry="0" fill="rgb(255,255,255)" stroke="none" stroke-width="1"/></clipPath><linearGradient id="eOHLmTeIPCr14-fill" x1="20745" y1="32320.7" x2="24120" y2="27429.8" spreadMethod="pad" gradientUnits="userSpaceOnUse"><stop id="eOHLmTeIPCr14-fill-0" offset="0%" stop-color="rgba(128,128,128,0.25)"/><stop id="eOHLmTeIPCr14-fill-1" offset="54%" stop-color="rgba(128,128,128,0.12)"/><stop id="eOHLmTeIPCr14-fill-2" offset="100%" stop-color="rgba(128,128,128,0.1)"/></linearGradient><linearGradient id="eOHLmTeIPCr20-fill" x1="29300.5" y1="25628.9" x2="30958.8" y2="19947.5" spreadMethod="pad" gradientUnits="userSpaceOnUse"><stop id="eOHLmTeIPCr20-fill-0" offset="0%" stop-color="rgba(128,128,128,0.25)"/><stop id="eOHLmTeIPCr20-fill-1" offset="54%" stop-color="rgba(128,128,128,0.12)"/><stop id="eOHLmTeIPCr20-fill-2" offset="100%" stop-color="rgba(128,128,128,0.1)"/></linearGradient><linearGradient id="eOHLmTeIPCr26-fill" x1="32425.3" y1="18939.9" x2="32899.3" y2="13041" spreadMethod="pad" gradientUnits="userSpaceOnUse"><stop id="eOHLmTeIPCr26-fill-0" offset="0%" stop-color="rgba(128,128,128,0.25)"/><stop id="eOHLmTeIPCr26-fill-1" offset="54%" stop-color="rgba(128,128,128,0.12)"/><stop id="eOHLmTeIPCr26-fill-2" offset="100%" stop-color="rgba(128,128,128,0.1)"/></linearGradient><linearGradient id="eOHLmTeIPCr32-fill" x1="12791.4" y1="52981.2" x2="11914.3" y2="33717.8" spreadMethod="pad" gradientUnits="userSpaceOnUse"><stop id="eOHLmTeIPCr32-fill-0" offset="0%" stop-color="rgba(128,128,128,0.25)"/><stop id="eOHLmTeIPCr32-fill-1" offset="54%" stop-color="rgba(128,128,128,0.12)"/><stop id="eOHLmTeIPCr32-fill-2" offset="100%" stop-color="rgba(128,128,128,0.1)"/></linearGradient><linearGradient id="eOHLmTeIPCr49-fill" x1="39596.2" y1="34935.7" x2="44124.5" y2="20990.9" spreadMethod="pad" gradientUnits="userSpaceOnUse"><stop id="eOHLmTeIPCr49-fill-0" offset="0%" stop-color="rgba(128,128,128,0.25)"/><stop id="eOHLmTeIPCr49-fill-1" offset="54%" stop-color="rgba(128,128,128,0.12)"/><stop id="eOHLmTeIPCr49-fill-2" offset="100%" stop-color="rgba(128,128,128,0.1)"/></linearGradient></defs><g id="eOHLmTeIPCr4" clip-path="url(#eOHLmTeIPCr2)"><path id="eOHLmTeIPCr5" d="M135.531,15.8426C125.065,11.5931,114.005,8.03538,102.714,8.48818C86.101,9.14066,70.1894,19.1134,62.373,33.7576C55.7504,46.1631,54.9339,60.7061,52.0816,74.4728C48.5676,91.4372,41.838,107.558,34.6467,123.324C30.7836,131.781,26.7092,140.443,26.0757,149.727C25.1944,162.614,31.3636,175.458,41.0356,184.038C50.7075,192.619,63.5612,197.133,76.4487,198.12C83.3106,198.646,90.4794,198.159,96.5754,194.97C103.023,191.595,107.723,185.495,114.196,182.171C120.196,179.077,127.213,178.655,133.948,179.058C142.77,179.585,151.463,181.43,159.737,184.531C169.15,188.063,177.904,193.176,187.298,196.756C196.691,200.336,207.185,202.336,216.786,199.346C225.797,196.534,232.932,189.728,239.36,182.823C249.911,171.491,259.534,159.33,268.137,146.459C273.934,137.786,279.329,128.634,281.894,118.523C286.793,99.1966,280.05,77.3893,265.087,64.1878C252.698,53.2532,236.06,48.5059,219.777,45.626C204.929,42.9992,187.762,42.8361,174.095,35.9907C161.058,29.4518,149.198,21.3943,135.531,15.8426Z" opacity="0.1" fill="rgb(63,147,205)" stroke="none" stroke-width="1"/><g id="eOHLmTeIPCr6" opacity="0.05"><path id="eOHLmTeIPCr7" d="M230.454,59.2768C230.25,59.4444,230.013,59.5679,229.759,59.6396C229.631,59.6727,229.497,59.6744,229.369,59.6445C229.24,59.6146,229.121,59.5541,229.021,59.4681C228.867,59.2587,228.744,59.0286,228.655,58.7847C228.528,58.5569,228.235,58.3656,228.018,58.5034C227.929,58.5787,227.86,58.6755,227.819,58.7847C227.644,59.1587,227.326,59.5328,226.912,59.5243C226.732,59.5053,226.562,59.4322,226.425,59.3147C226.288,59.1972,226.19,59.0408,226.143,58.8662C226.055,58.5149,226.039,58.1496,226.095,57.7919C226.16,57.0607,226.169,56.2198,225.628,55.7248C225.276,55.4686,224.874,55.2894,224.448,55.1989C224.037,55.0639,223.603,54.8501,223.434,54.4508C223.322,54.1695,223.35,53.8714,223.249,53.607C223.083,53.1599,222.612,52.9152,222.153,52.8027C221.613,53.2436,220.933,53.477,220.236,53.4608C219.503,53.4323,218.777,53.3075,218.076,53.0896C217.881,53.0536,217.698,52.9737,217.538,52.8561C217.506,52.8258,217.476,52.7918,217.451,52.7549C217.327,52.8081,217.218,52.8923,217.136,52.9996C217.096,53.0903,217.087,53.1917,217.111,53.2879C217.135,53.3842,217.19,53.4697,217.268,53.5311C217.426,53.6508,217.611,53.7317,217.806,53.7673C218.506,53.9857,219.232,54.1096,219.966,54.1358C220.662,54.1543,221.342,53.9217,221.88,53.4805C222.339,53.593,222.812,53.8348,222.978,54.282C223.08,54.5633,223.052,54.867,223.164,55.1257C223.333,55.5251,223.764,55.7388,224.178,55.8738C224.603,55.9639,225.004,56.1421,225.355,56.3969C225.898,56.8919,225.887,57.7357,225.825,58.4669C225.768,58.8244,225.783,59.1897,225.87,59.5412C225.918,59.7154,226.017,59.8713,226.155,59.9886C226.292,60.1059,226.462,60.1793,226.642,60.1993C227.055,60.1993,227.371,59.8337,227.548,59.4597C227.589,59.3498,227.658,59.2526,227.748,59.1784C227.965,59.035,228.258,59.2262,228.385,59.4597C228.473,59.7038,228.596,59.934,228.751,60.1431C228.85,60.2294,228.97,60.29,229.098,60.3194C229.227,60.3488,229.361,60.3462,229.488,60.3118C229.743,60.2423,229.98,60.1196,230.184,59.9518C230.748,59.5595,231.196,59.0221,231.479,58.3966C231.529,58.2762,231.569,58.1521,231.6,58.0253C231.312,58.5193,230.921,58.946,230.454,59.2768L230.454,59.2768Z" opacity="0.05" fill="rgb(0,0,0)" stroke="none" stroke-width="1"/><path id="eOHLmTeIPCr8" d="M231.016,53.7591C231.075,53.6297,231.131,53.5004,231.185,53.3738C231.238,53.2472,231.258,53.1769,231.289,53.0757C231.185,53.2983,231.094,53.5264,231.016,53.7591L231.016,53.7591Z" opacity="0.05" fill="rgb(0,0,0)" stroke="none" stroke-width="1"/><path id="eOHLmTeIPCr9" d="M217.851,51.9898C218.133,51.7507,218.152,51.3233,218.107,50.9548C218.074,50.7398,218.056,50.5227,218.054,50.3052C217.994,50.3637,217.942,50.4299,217.899,50.502C217.713,50.8395,217.792,51.2501,217.837,51.627C217.852,51.7473,217.856,51.8687,217.851,51.9898L217.851,51.9898Z" opacity="0.05" fill="rgb(0,0,0)" stroke="none" stroke-width="1"/></g><path id="eOHLmTeIPCr10" d="M218.961,93.8584C218.438,93.8949,217.703,93.9343,216.819,93.9653C216.205,93.9849,215.518,93.999,214.783,93.999C214.141,93.999,213.462,93.999,212.758,93.9681C210.532,93.9107,208.313,93.6822,206.122,93.2847C203.196,92.7222,200.49,91.7519,198.801,90.1095C199.082,89.5638,199.339,89.1111,199.434,88.9507C199.434,88.7932,199.434,88.6104,199.417,88.4136C202.388,89.8198,211.649,93.7262,218.747,91.5072C218.747,91.7406,218.781,91.8953,218.781,91.8953L218.942,92.0303C218.86,92.3228,218.911,93.2847,218.961,93.8584Z" opacity="0.05" fill="rgb(0,0,0)" stroke="none" stroke-width="1"/><path id="eOHLmTeIPCr11" d="M218.961,93.5883C218.438,93.6248,217.703,93.6642,216.819,93.6923C216.205,93.7148,215.518,93.7261,214.783,93.7261C214.141,93.7261,213.462,93.7261,212.758,93.6951C210.532,93.6387,208.313,93.4112,206.122,93.0145C203.196,92.4521,200.49,91.479,198.801,89.8365C199.082,89.2909,199.339,88.8409,199.434,88.6778C199.434,88.5203,199.434,88.3403,199.417,88.1406C202.388,89.5468,211.649,93.4561,218.747,91.2484C218.747,91.4818,218.781,91.6365,218.781,91.6365L218.942,91.7715C218.86,92.0527,218.911,93.0146,218.961,93.5883Z" fill="rgb(75,68,66)" stroke="none" stroke-width="1"/><path id="eOHLmTeIPCr12" d="M78.4248,216.679C78.0872,216.273,77.8363,215.802,77.6877,215.296C77.539,214.789,77.4957,214.258,77.5604,213.734L89.9889,112.159L91.0195,103.721C91.135,102.783,91.5883,101.918,92.295,101.289C93.0017,100.66,93.9134,100.309,94.8601,100.301L131.264,100.06C131.783,100.056,132.295,99.9499,132.772,99.7463C133.249,99.5427,133.68,99.246,134.04,98.8738C134.4,98.5016,134.683,98.0612,134.87,97.5786C135.058,97.096,135.147,96.5807,135.133,96.0632L135.119,95.6779C135.101,95.1559,135.189,94.6358,135.377,94.1484C135.564,93.6609,135.848,93.2162,136.212,92.8407C136.575,92.4652,137.01,92.1665,137.492,91.9625C137.973,91.7586,138.49,91.6534,139.013,91.6533L177.267,91.6533C178.299,91.6533,179.288,92.062,180.018,92.7896C180.748,93.5172,181.159,94.5043,181.162,95.5344C181.161,95.7093,181.15,95.8841,181.128,96.0575C181.055,96.5988,181.098,97.1493,181.252,97.6731C181.407,98.197,181.67,98.6824,182.025,99.0979C182.38,99.5133,182.818,99.8495,183.312,100.084C183.805,100.319,184.343,100.448,184.89,100.462L221.629,101.398C222.188,101.412,222.737,101.546,223.239,101.79C223.741,102.035,224.185,102.385,224.54,102.816C224.894,103.247,225.152,103.75,225.295,104.289C225.438,104.829,225.463,105.393,225.368,105.943L207.001,213.096L206.655,215.121C206.569,215.638,206.378,216.132,206.092,216.572L78.4248,216.679Z" fill="rgb(8,82,95)" stroke="none" stroke-width="1"/><g id="eOHLmTeIPCr13" opacity="0.5"><path id="eOHLmTeIPCr14" d="M188.984,69.3108L146.918,130.126L165.534,142.973L207.6,82.1574L188.984,69.3108Z" opacity="0.5" fill="url(#eOHLmTeIPCr14-fill)" stroke="none" stroke-width="1"/></g><path id="eOHLmTeIPCr15" d="M206.996,82.3468L189.297,70.1333L147.794,130.134L165.493,142.348L206.996,82.3468Z" fill="rgb(249,250,251)" stroke="none" stroke-width="1"/><path id="eOHLmTeIPCr16" d="M203.041,81.6343L190.57,72.9761L181.902,85.4317L194.372,94.0899L203.041,81.6343Z" fill="rgb(9,105,121)" stroke="none" stroke-width="1"/><path id="eOHLmTeIPCr17" d="M193.317,96.621L180.805,87.9868L172.16,100.484L184.672,109.118L193.317,96.621Z" opacity="0.5" fill="rgb(9,105,121)" stroke="none" stroke-width="1"/><path id="eOHLmTeIPCr18" d="M182.875,111.709L170.363,103.075L161.719,115.572L174.231,124.206L182.875,111.709Z" opacity="0.3" fill="rgb(9,105,121)" stroke="none" stroke-width="1"/><g id="eOHLmTeIPCr19" opacity="0.5"><path id="eOHLmTeIPCr20" d="M163.716,65.6902L143.035,136.376L164.754,142.716L185.435,72.0296L163.716,65.6902Z" opacity="0.5" fill="url(#eOHLmTeIPCr20-fill)" stroke="none" stroke-width="1"/></g><path id="eOHLmTeIPCr21" d="M184.937,72.403L164.289,66.376L143.886,136.112L164.534,142.139L184.937,72.403Z" fill="rgb(249,250,251)" stroke="none" stroke-width="1"/><path id="eOHLmTeIPCr22" d="M181.597,72.6494L167,68.3887L162.734,82.9687L177.331,87.2294L181.597,72.6494Z" fill="rgb(9,105,121)" stroke="none" stroke-width="1"/><path id="eOHLmTeIPCr23" d="M176.449,90.2514L161.852,85.9907L157.586,100.571L172.183,104.831L176.449,90.2514Z" opacity="0.5" fill="rgb(9,105,121)" stroke="none" stroke-width="1"/><path id="eOHLmTeIPCr24" d="M171.296,107.851L156.699,103.59L152.433,118.17L167.031,122.431L171.296,107.851Z" opacity="0.3" fill="rgb(9,105,121)" stroke="none" stroke-width="1"/><g id="eOHLmTeIPCr25" opacity="0.5"><path id="eOHLmTeIPCr26" d="M148.987,66.9191L143.074,140.325L165.628,142.137L171.541,68.7317L148.987,66.9191Z" opacity="0.5" fill="url(#eOHLmTeIPCr26-fill)" stroke="none" stroke-width="1"/></g><path id="eOHLmTeIPCr27" d="M171.107,69.1983L149.664,67.4751L143.831,139.894L165.273,141.617L171.107,69.1983Z" fill="rgb(249,250,251)" stroke="none" stroke-width="1"/><path id="eOHLmTeIPCr28" d="M167.873,70.1181L152.715,68.8999L151.495,84.0408L166.654,85.259L167.873,70.1181Z" fill="rgb(9,105,121)" stroke="none" stroke-width="1"/><path id="eOHLmTeIPCr29" d="M166.401,88.393L151.242,87.1748L150.023,102.316L165.181,103.534L166.401,88.393Z" opacity="0.5" fill="rgb(9,105,121)" stroke="none" stroke-width="1"/><path id="eOHLmTeIPCr30" d="M164.928,106.674L149.77,105.456L148.55,120.597L163.709,121.815L164.928,106.674Z" opacity="0.3" fill="rgb(9,105,121)" stroke="none" stroke-width="1"/><g id="eOHLmTeIPCr31" opacity="0.5"><path id="eOHLmTeIPCr32" d="M161.857,68.8976L139.254,69.9268L142.611,143.493L165.215,142.464L161.857,68.8976Z" opacity="0.5" fill="url(#eOHLmTeIPCr32-fill)" stroke="none" stroke-width="1"/></g><path id="eOHLmTeIPCr33" d="M161.505,69.4088L140.016,70.3872L143.328,142.965L164.818,141.986L161.505,69.4088Z" fill="rgb(255,255,255)" stroke="none" stroke-width="1"/><path id="eOHLmTeIPCr34" d="M158.411,70.7214L143.219,71.4131L143.911,86.5871L159.103,85.8954L158.411,70.7214Z" fill="rgb(9,105,121)" stroke="none" stroke-width="1"/><path id="eOHLmTeIPCr35" d="M159.86,88.3919L144.652,89.1514L145.413,104.341L160.62,103.582L159.86,88.3919Z" opacity="0.5" fill="rgb(9,105,121)" stroke="none" stroke-width="1"/><path id="eOHLmTeIPCr36" d="M160.086,107.36L144.895,108.052L145.587,123.226L160.779,122.534L160.086,107.36Z" opacity="0.3" fill="rgb(9,105,121)" stroke="none" stroke-width="1"/><path id="eOHLmTeIPCr37" d="M149.143,166.131L130.03,173.517L102.096,184.302C101.04,182.333,99.4855,179.673,97.5624,176.498C90.9454,165.546,79.998,148.512,70.25,133.541C59.2687,116.667,49.8164,102.428,49.8164,102.428L56.6586,100.459L112.55,84.251L149.143,166.131Z" fill="rgb(9,105,121)" stroke="none" stroke-width="1"/><path id="eOHLmTeIPCr38" d="M149.142,166.131L130.029,173.517C119.352,175.738,108.456,176.739,97.5527,176.498C90.9358,165.546,79.9883,148.512,70.2403,133.541L56.6602,100.448L112.549,84.251L149.142,166.131Z" opacity="0.1" fill="rgb(0,0,0)" stroke="none" stroke-width="1"/><path id="eOHLmTeIPCr39" d="M163.362,161.536C163.362,161.536,133.67,179.08,89.3399,175.112L54,89.0522L70.9365,86.1442L129.486,76.1011L162.712,159.863L163.362,161.536Z" fill="rgb(16,137,158)" stroke="none" stroke-width="1"/><path id="eOHLmTeIPCr40" d="M162.701,159.874C155.71,160.217,147.62,160.183,139.483,159.213C130.676,158.178,121.817,156.046,114.223,152.137C107.874,148.872,102.445,145.32,97.7121,141.059C85.399,129.998,77.7797,114.175,70.9375,86.1554L129.487,76.1123L162.701,159.874Z" opacity="0.1" fill="rgb(0,0,0)" stroke="none" stroke-width="1"/><path id="eOHLmTeIPCr41" d="M184.48,155.062C184.48,155.062,162.594,159.342,140.316,156.707C131.508,155.672,122.65,153.54,115.056,149.631C108.707,146.366,103.281,142.814,98.5447,138.553C83.3061,124.86,75.2588,103.873,66.9609,61.4932C66.9609,61.4932,103.346,70.2651,139.325,51.0508C139.313,51.0648,151.441,126.657,184.48,155.062Z" fill="rgb(249,250,251)" stroke="none" stroke-width="1"/><path id="eOHLmTeIPCr42" d="M140.318,156.707C131.51,155.672,122.652,153.541,115.058,149.631C108.709,146.366,103.283,142.814,98.5469,138.553C111.522,137.501,113.386,130.417,113.386,130.417C123.004,145.663,140.318,156.707,140.318,156.707Z" opacity="0.1" fill="rgb(0,0,0)" stroke="none" stroke-width="1"/><path id="eOHLmTeIPCr43" d="M85.7812,77.0514C85.7812,77.0514,115.369,75.3808,123.63,69.0107L124.883,73.0325C124.883,73.0325,105.334,81.6469,85.7812,81.7509L85.7812,77.0514Z" opacity="0.3" fill="rgb(63,147,205)" stroke="none" stroke-width="1"/><path id="eOHLmTeIPCr44" d="M85.7812,96.9069C85.7812,96.9069,114.428,95.3404,136.073,84.8979L136.805,86.5685C136.805,86.5685,119.629,96.5835,85.7812,99.2047L85.7812,96.9069Z" opacity="0.3" fill="rgb(63,147,205)" stroke="none" stroke-width="1"/><path id="eOHLmTeIPCr45" d="M88.0898,104.644C88.0898,104.644,116.737,103.077,138.378,92.6348L139.11,94.3053C139.11,94.3053,121.935,104.317,88.0898,106.941L88.0898,104.644Z" opacity="0.3" fill="rgb(63,147,205)" stroke="none" stroke-width="1"/><path id="eOHLmTeIPCr46" d="M90.3906,112.392C90.3906,112.392,119.038,110.826,140.682,100.383L141.411,102.054C141.411,102.054,124.235,112.069,90.3906,114.69L90.3906,112.392Z" opacity="0.3" fill="rgb(63,147,205)" stroke="none" stroke-width="1"/><path id="eOHLmTeIPCr47" d="M92.6992,120.14C92.6992,120.14,121.346,118.574,142.988,108.131L143.72,109.802C143.72,109.802,126.544,119.817,92.6992,122.438L92.6992,120.14Z" opacity="0.3" fill="rgb(63,147,205)" stroke="none" stroke-width="1"/><path id="eOHLmTeIPCr48" d="M95.0039,127.891C95.0039,127.891,123.651,126.325,145.295,115.882L146.025,117.553C146.025,117.553,128.849,127.565,95.0039,130.189L95.0039,127.891Z" opacity="0.3" fill="rgb(63,147,205)" stroke="none" stroke-width="1"/><path id="eOHLmTeIPCr49" d="M237.217,4.0654L222.359,45.6475L304.143,72.2052L319.001,26.5578L237.217,4.0654Z" fill="url(#eOHLmTeIPCr49-fill)" stroke="none" stroke-width="1"/><path id="eOHLmTeIPCr50" d="M237.681,0.499151L223.027,45.5181L303.681,71.7088L318.334,26.6899L237.681,0.499151Z" fill="rgb(246,247,249)" stroke="none" stroke-width="1"/><g id="eOHLmTeIPCr51" opacity="0.2"><path id="eOHLmTeIPCr52" d="M246.357,34.2356C251.234,34.2356,255.187,30.2869,255.187,25.4159C255.187,20.5449,251.234,16.5962,246.357,16.5962C241.481,16.5962,237.527,20.5449,237.527,25.4159C237.527,30.2869,241.481,34.2356,246.357,34.2356Z" opacity="0.2" fill="rgb(63,147,205)" stroke="none" stroke-width="1"/></g><g id="eOHLmTeIPCr53" opacity="0.2"><path id="eOHLmTeIPCr54" d="M268.232,21.5302L267.484,23.8276L304.07,35.7083L304.818,33.4108L268.232,21.5302Z" opacity="0.2" fill="rgb(63,147,205)" stroke="none" stroke-width="1"/></g><g id="eOHLmTeIPCr55" opacity="0.2"><path id="eOHLmTeIPCr56" d="M266.326,27.3881L265.578,29.6855L284.215,35.7376L284.963,33.4401L266.326,27.3881Z" opacity="0.2" fill="rgb(63,147,205)" stroke="none" stroke-width="1"/></g><g id="eOHLmTeIPCr57" opacity="0.2"><path id="eOHLmTeIPCr58" d="M264.416,33.2494L263.668,35.5469L293.811,45.3354L294.559,43.0379L264.416,33.2494Z" opacity="0.2" fill="rgb(63,147,205)" stroke="none" stroke-width="1"/></g><g id="eOHLmTeIPCr59" opacity="0.2"><path id="eOHLmTeIPCr60" d="M262.51,39.1083L261.762,41.4058L298.348,53.2864L299.096,50.9889L262.51,39.1083Z" opacity="0.2" fill="rgb(63,147,205)" stroke="none" stroke-width="1"/></g><g id="eOHLmTeIPCr61" opacity="0.5"><path id="eOHLmTeIPCr62" d="M286.219,56.1615L284.773,60.604L294.898,63.8918L296.344,59.4493L286.219,56.1615Z" opacity="0.5" fill="rgb(63,147,205)" stroke="none" stroke-width="1"/></g><path id="eOHLmTeIPCr63" d="M210.062,114.943L184.445,154.745L246.48,194.577L272.097,154.775L210.062,114.943Z" fill="rgb(249,250,251)" stroke="none" stroke-width="1"/><path id="eOHLmTeIPCr64" d="M200.824,140.669L193.637,151.968L196.299,153.657L203.486,142.358L200.824,140.669Z" fill="rgb(183,182,204)" stroke="none" stroke-width="1"/><path id="eOHLmTeIPCr65" d="M217.93,129.442L202.145,154.257L204.585,155.806L220.371,130.991L217.93,129.442Z" fill="rgb(183,182,204)" stroke="none" stroke-width="1"/><path id="eOHLmTeIPCr66" d="M223.145,132.748L207.359,157.563L209.8,159.112L225.585,134.297L223.145,132.748Z" fill="rgb(183,182,204)" stroke="none" stroke-width="1"/><path id="eOHLmTeIPCr67" d="M228.36,136.059L212.574,160.875L215.015,162.423L230.8,137.608L228.36,136.059Z" fill="rgb(183,182,204)" stroke="none" stroke-width="1"/><g id="eOHLmTeIPCr68" opacity="0.05"><path id="eOHLmTeIPCr69" d="M231.349,182.32L231.045,180.382C231.045,180.382,219.103,196.092,219.25,199.439C219.396,202.785,216.628,216.032,216.628,216.032C215.606,217.778,215.606,224.188,215.606,224.188C214.996,224.875,214.208,225.38,213.328,225.647C214.474,225.948,215.862,225.726,217.355,224.188C217.355,224.188,217.355,217.787,218.374,216.032C218.374,216.032,221.142,202.794,220.995,199.439C220.883,196.82,228.173,186.623,231.349,182.32Z" opacity="0.05" fill="rgb(0,0,0)" stroke="none" stroke-width="1"/><path id="eOHLmTeIPCr70" d="M250.416,210.348C250.416,210.348,248.813,200.893,243.427,197.411C243.427,197.411,243.937,185.585,245.468,179.004C245.69,177.929,246.031,176.882,246.485,175.882L222.892,173.123C222.892,173.123,222.836,173.185,222.734,173.309L244.736,175.888C244.284,176.888,243.944,177.935,243.723,179.009C242.188,185.59,241.678,197.417,241.678,197.417C247.068,200.907,248.67,210.354,248.67,210.354C248.67,212.826,252.457,221.991,252.457,221.991C251.854,222.762,249.585,222.979,247.819,223.026C249.227,223.063,253.358,223.077,254.203,221.991C254.203,221.986,250.416,212.82,250.416,210.348Z" opacity="0.05" fill="rgb(0,0,0)" stroke="none" stroke-width="1"/></g><path id="eOHLmTeIPCr71" d="M206.086,216.555C205.561,216.985,204.901,217.218,204.222,217.213L78.4248,216.679C78.0872,216.273,77.8363,215.802,77.6877,215.296C77.539,214.789,77.4957,214.258,77.5604,213.734L89.9889,112.159L97.7828,112.074C98.4346,112.068,99.0701,112.277,99.5898,112.67C100.11,113.063,100.484,113.617,100.655,114.245L102.111,119.611C102.283,120.246,102.663,120.805,103.191,121.199C103.719,121.592,104.364,121.798,105.022,121.783L136.127,121.037C136.896,121.019,137.627,120.701,138.164,120.151C138.702,119.602,139.002,118.864,139.002,118.096L139.002,114.541C139.002,113.766,139.308,113.023,139.853,112.472C140.398,111.922,141.138,111.608,141.913,111.599L185.016,111.135C185.706,111.128,186.376,111.364,186.909,111.8C187.443,112.237,187.806,112.846,187.936,113.523L206.998,213.082L207.122,213.723C207.223,214.244,207.18,214.784,206.998,215.283C206.815,215.782,206.5,216.221,206.086,216.555L206.086,216.555Z" opacity="0.1" fill="rgb(0,0,0)" stroke="none" stroke-width="1"/><path id="eOHLmTeIPCr72" d="M183.611,112.544L140.509,113.008C139.733,113.016,138.993,113.329,138.447,113.879C137.901,114.429,137.595,115.172,137.594,115.947L137.594,119.504C137.594,120.272,137.293,121.008,136.757,121.557C136.22,122.106,135.49,122.424,134.722,122.443L103.62,123.189C102.961,123.205,102.315,123,101.787,122.606C101.259,122.213,100.878,121.653,100.706,121.017L99.2444,115.654C99.074,115.025,98.6991,114.47,98.1787,114.077C97.6583,113.684,97.0219,113.475,96.3695,113.483L54.8238,113.93C54.3981,113.934,53.9784,114.031,53.5936,114.213C53.2089,114.394,52.8682,114.658,52.5952,114.984C52.3221,115.31,52.1232,115.692,52.0121,116.102C51.901,116.512,51.8804,116.942,51.9517,117.361L68.6658,215.615C68.7818,216.298,69.1355,216.919,69.6645,217.367C70.1935,217.815,70.8639,218.062,71.5575,218.065L202.809,218.627C203.243,218.629,203.673,218.534,204.066,218.351C204.46,218.167,204.808,217.898,205.085,217.565C205.362,217.231,205.563,216.84,205.671,216.42C205.779,216,205.793,215.561,205.712,215.134L186.531,114.931C186.402,114.255,186.039,113.645,185.505,113.208C184.971,112.772,184.301,112.537,183.611,112.544L183.611,112.544Z" fill="rgb(9,105,121)" stroke="none" stroke-width="1"/><path id="eOHLmTeIPCr73" d="M2.78253,197.042C4.71411,197.059,7.26795,196.744,7.78323,196.429C8.17461,196.193,8.32948,195.338,8.38297,194.941L8.43929,194.941C8.43929,194.941,8.33229,196.319,7.81702,196.629C7.30174,196.938,4.7479,197.259,2.81632,197.242C2.25318,197.242,2.06734,197.039,2.0786,196.747C2.15463,196.93,2.3827,197.028,2.78253,197.042Z" opacity="0.2" fill="rgb(0,0,0)" stroke="none" stroke-width="1"/><path id="eOHLmTeIPCr74" d="M9.55522,41.7192C12.9188,41.7192,15.6456,38.9956,15.6456,35.636C15.6456,32.2763,12.9188,29.5527,9.55522,29.5527C6.1916,29.5527,3.46484,32.2763,3.46484,35.636C3.46484,38.9956,6.1916,41.7192,9.55522,41.7192Z" opacity="0.1" fill="rgb(63,147,205)" stroke="none" stroke-width="1"/><path id="eOHLmTeIPCr75" d="M302.415,90.3315C305.778,90.3315,308.505,87.6079,308.505,84.2483C308.505,80.8886,305.778,78.165,302.415,78.165C299.051,78.165,296.324,80.8886,296.324,84.2483C296.324,87.6079,299.051,90.3315,302.415,90.3315Z" opacity="0.1" fill="rgb(63,147,205)" stroke="none" stroke-width="1"/><path id="eOHLmTeIPCr76" d="M192.938,22.4008C196.302,22.4008,199.028,19.6773,199.028,16.3176C199.028,12.9579,196.302,10.2344,192.938,10.2344C189.574,10.2344,186.848,12.9579,186.848,16.3176C186.848,19.6773,189.574,22.4008,192.938,22.4008Z" opacity="0.1" fill="rgb(63,147,205)" stroke="none" stroke-width="1"/><path id="eOHLmTeIPCr77" d="M21.7382,79.3914C27.3753,79.3914,31.9451,74.8269,31.9451,69.1964C31.9451,63.5659,27.3753,59.0015,21.7382,59.0015C16.1011,59.0015,11.5312,63.5659,11.5312,69.1964C11.5312,74.8269,16.1011,79.3914,21.7382,79.3914Z" opacity="0.1" fill="rgb(63,147,205)" stroke="none" stroke-width="1"/><g id="eOHLmTeIPCr78_to" transform="translate(130,159.116276)"><g id="eOHLmTeIPCr78_ts" transform="scale(1.256842,1.256842)"><g id="eOHLmTeIPCr78" transform="translate(-124.211208,-165.003319)"><path id="eOHLmTeIPCr79" d="M121.131,165.549L120.771,165.189C120.732,165.153,120.701,165.11,120.68,165.061C120.659,165.013,120.648,164.961,120.648,164.908C120.648,164.855,120.659,164.803,120.68,164.755C120.701,164.706,120.732,164.663,120.771,164.627L123.933,161.466C123.969,161.427,124.012,161.397,124.061,161.376C124.109,161.355,124.161,161.344,124.214,161.344C124.267,161.344,124.319,161.355,124.368,161.376C124.416,161.397,124.46,161.427,124.496,161.466L127.658,164.624C127.696,164.66,127.726,164.704,127.746,164.752C127.767,164.801,127.777,164.853,127.777,164.905C127.777,164.958,127.767,165.01,127.746,165.058C127.726,165.106,127.696,165.15,127.658,165.186L127.297,165.546C127.261,165.584,127.217,165.614,127.169,165.635C127.12,165.655,127.068,165.666,127.016,165.666C126.963,165.666,126.911,165.655,126.863,165.635C126.814,165.614,126.771,165.584,126.734,165.546L124.865,163.578L124.865,168.249C124.865,168.3,124.855,168.351,124.836,168.399C124.816,168.446,124.788,168.489,124.752,168.525C124.716,168.562,124.673,168.591,124.625,168.61C124.578,168.63,124.527,168.64,124.476,168.64L123.955,168.64C123.851,168.64,123.752,168.599,123.678,168.526C123.605,168.452,123.564,168.353,123.564,168.249L123.564,163.583L121.694,165.552C121.657,165.59,121.613,165.619,121.565,165.64C121.517,165.66,121.464,165.67,121.412,165.67C121.359,165.67,121.307,165.659,121.259,165.638C121.211,165.617,121.167,165.587,121.131,165.549L121.131,165.549Z" fill="rgb(246,247,249)" stroke="none" stroke-width="1"/><path id="eOHLmTeIPCr80" d="M124.211,158.594C125.48,158.594,126.721,158.97,127.776,159.674C128.831,160.379,129.654,161.38,130.139,162.551C130.625,163.722,130.752,165.011,130.505,166.254C130.257,167.497,129.646,168.639,128.748,169.536C127.851,170.432,126.708,171.043,125.463,171.29C124.218,171.537,122.928,171.41,121.755,170.925C120.583,170.44,119.58,169.619,118.875,168.565C118.17,167.511,117.794,166.271,117.794,165.004C117.795,163.304,118.472,161.675,119.675,160.473C120.878,159.271,122.509,158.596,124.211,158.594ZM124.211,157.75C122.775,157.75,121.371,158.176,120.177,158.973C118.982,159.77,118.052,160.903,117.502,162.228C116.952,163.553,116.809,165.012,117.089,166.419C117.369,167.826,118.061,169.118,119.076,170.132C120.092,171.147,121.386,171.838,122.794,172.117C124.203,172.397,125.663,172.254,126.99,171.705C128.317,171.156,129.451,170.226,130.249,169.033C131.047,167.841,131.473,166.438,131.473,165.004C131.473,163.08,130.708,161.235,129.346,159.875C127.984,158.515,126.137,157.75,124.211,157.75L124.211,157.75Z" fill="rgb(246,247,249)" stroke="none" stroke-width="1"/></g></g></g></g></svg>