<svg width="151" height="120" viewBox="0 0 151 120" fill="none" xmlns="http://www.w3.org/2000/svg">
<path d="M63.7487 11.8026C57.6626 9.3315 51.2311 7.26264 44.6653 7.52595C35.0046 7.90537 25.7519 13.7046 21.2066 22.2204C17.3555 29.4343 16.8807 37.8912 15.222 45.8967C13.1786 55.7616 9.26528 65.1361 5.08346 74.3042C2.83703 79.222 0.467728 84.259 0.0993419 89.6578C-0.413143 97.1511 3.17431 104.621 8.79867 109.61C14.423 114.6 21.8975 117.225 29.3917 117.799C33.382 118.105 37.5507 117.821 41.0956 115.967C44.845 114.004 47.578 110.457 51.3422 108.524C54.8312 106.725 58.9117 106.48 62.8281 106.713C67.9582 107.021 73.0133 108.093 77.8247 109.896C83.2985 111.951 88.389 114.924 93.8517 117.006C99.3138 119.087 105.416 120.25 110.999 118.512C116.239 116.877 120.388 112.919 124.126 108.903C130.262 102.314 135.858 95.242 140.86 87.7574C144.231 82.7134 147.369 77.392 148.86 71.5124C151.709 60.2738 147.788 47.5926 139.087 39.9158C131.882 33.5573 122.207 30.7966 112.739 29.1219C104.104 27.5945 94.1215 27.4996 86.174 23.5189C78.5929 19.7165 71.6962 15.031 63.7487 11.8026Z" fill="#E5F3F6"/>
<path d="M119.231 48.8468H13.9775V103.509H119.231V48.8468Z" fill="#A0D3DB"/>
<path d="M114.578 43.6133H9.3252V98.2752H114.578V43.6133Z" fill="#096979"/>
<path d="M63.9871 83.7374C70.7309 83.7374 76.1988 78.4001 76.1988 71.8161C76.1988 65.2328 70.7309 59.8955 63.9871 59.8955C57.2425 59.8955 51.7754 65.2328 51.7754 71.8161C51.7754 78.4001 57.2425 83.7374 63.9871 83.7374Z" fill="white"/>
<path d="M64.2779 58.151C61.4607 58.151 58.706 58.9865 56.3629 60.5524C54.0205 62.1176 52.1941 64.3424 51.1157 66.946C50.0372 69.549 49.7553 72.4142 50.3052 75.1774C50.8551 77.9413 52.2118 80.48 54.2038 82.4721C56.1965 84.4649 58.7355 85.8218 61.499 86.3714C64.2625 86.9209 67.1268 86.6387 69.7305 85.5603C72.3335 84.4819 74.5582 82.656 76.1239 80.3131C77.6897 77.9701 78.5252 75.2158 78.5252 72.3979C78.5142 68.6227 77.0095 65.0057 74.3403 62.3362C71.6703 59.6668 68.0536 58.1621 64.2779 58.151Z" fill="white"/>
<path d="M62.5262 78.235C62.3597 78.4075 62.1329 78.5038 61.8966 78.5038C61.6603 78.5038 61.4335 78.4075 61.267 78.235L56.2381 73.0528C55.7156 72.515 55.7156 71.6429 56.2381 71.1066L56.8677 70.4574C57.3895 69.9196 58.2348 69.9196 58.7565 70.4574L61.8966 73.6926L70.3812 64.9509C70.9029 64.4132 71.749 64.4132 72.27 64.9509L72.8996 65.6001C73.4221 66.1379 73.4221 67.0093 72.8996 67.5463L62.5262 78.235Z" fill="#4ACAE2"/>
<path d="M134.932 52.3359H102.367V54.0805H134.932V52.3359Z" fill="#4ACAE2"/>
<path d="M150.051 55.2434H102.367V56.9879H150.051V55.2434Z" fill="#4ACAE2"/>
<path d="M134.932 63.3845H102.367V65.1291H134.932V63.3845Z" fill="#4ACAE2"/>
<path d="M134.932 76.7593H102.367V78.5038H134.932V76.7593Z" fill="#4ACAE2"/>
<path d="M150.051 66.8737H102.367V69.1997H150.051V66.8737Z" fill="#4ACAE2"/>
<path d="M150.051 70.3627H102.367V72.1072H150.051V70.3627Z" fill="#4ACAE2"/>
<path d="M150.051 73.8518H102.367V75.5963H150.051V73.8518Z" fill="#4ACAE2"/>
<path d="M119.231 85.4819H102.367V90.134H119.231V85.4819Z" fill="#096979"/>
<path d="M110.446 15.6372C107.457 27.1162 97.8118 34.5356 88.8821 32.2255L110.446 15.6372Z" fill="#4ACAE2"/>
<path d="M104.324 15.1632C101.484 26.067 94.5783 33.6982 88.8842 32.2252L104.324 15.1632Z" fill="#096979"/>
<path d="M92.2446 33.2511C92.2446 33.2511 89.9721 32.588 89.4092 31.9194C88.8463 31.2508 86.1649 29.9326 85.7893 30.6741C85.4131 31.4157 81.3279 33.692 83.9093 34.382C86.4906 35.072 90.0238 35.5352 90.8223 35.2952C91.6201 35.0551 92.2446 33.2511 92.2446 33.2511Z" fill="#7D7D7E"/>
<path opacity="0.2" d="M83.9343 34.0963C86.5156 34.7862 90.0488 35.2496 90.8473 35.0095C91.4549 34.8267 91.962 33.7375 92.169 33.2281C92.2173 33.2427 92.2446 33.2509 92.2446 33.2509C92.2446 33.2509 91.6201 35.0549 90.8223 35.295C90.0238 35.5351 86.4906 35.0718 83.9093 34.3818C83.1644 34.1826 82.9754 33.8512 83.0917 33.4627C83.1335 33.7265 83.3795 33.9481 83.9343 34.0963Z" fill="black"/>
<path d="M88.8842 32.2254C91.9074 20.6174 86.29 9.13832 76.3253 6.56042L88.8842 32.2254Z" fill="#096979"/>
<path d="M88.8848 32.2254C92.7478 17.393 86.5536 2.97965 75.0362 0L88.8848 32.2254Z" fill="#4ACAE2"/>
</svg>
