<svg width="151" height="119" viewBox="0 0 151 119" fill="none" xmlns="http://www.w3.org/2000/svg">
<path d="M64.2882 11.0349C58.1911 8.55931 51.7479 6.48669 45.1701 6.75048C35.492 7.13059 26.2224 12.9404 21.6688 21.4716C17.8107 28.6986 17.3351 37.1709 15.6734 45.1909C13.6263 55.0738 9.70584 64.4653 5.51643 73.65C3.26592 78.5768 0.892314 83.623 0.523258 89.0315C0.0098426 96.5385 3.60381 104.022 9.23839 109.02C14.8729 114.019 22.361 116.649 29.8689 117.224C33.8664 117.53 38.0427 117.246 41.594 115.389C45.3502 113.422 48.0882 109.869 51.8592 107.932C55.3546 106.13 59.4424 105.884 63.366 106.118C68.5054 106.426 73.5697 107.501 78.3898 109.307C83.8735 111.365 88.9733 114.343 94.4459 116.429C99.918 118.515 106.031 119.68 111.625 117.938C116.874 116.3 121.031 112.335 124.776 108.312C130.922 101.711 136.528 94.6259 141.54 87.1277C144.917 82.0745 148.06 76.7435 149.554 70.8531C152.408 59.5942 148.48 46.8899 139.763 39.1992C132.546 32.8291 122.853 30.0634 113.367 28.3857C104.717 26.8554 94.7163 26.7604 86.7543 22.7725C79.1594 18.9632 72.2502 14.2692 64.2882 11.0349Z" fill="#E5F3F6"/>
<path d="M72.5641 6.30554L31.6675 17.7744L46.7898 71.3871L87.6863 59.9183L72.5641 6.30554Z" fill="url(#paint0_linear)"/>
<path d="M72.8284 6.72839L31.6567 18.013L37.3151 38.538L78.4868 27.2534L72.8284 6.72839Z" fill="url(#paint1_linear)"/>
<path d="M72.3866 7.35315L32.3604 18.3238L46.8601 70.9203L86.8862 59.9496L72.3866 7.35315Z" fill="#EEEEEE"/>
<path d="M72.4186 7.29089L32.3003 18.2868L37.8267 38.3333L77.9451 27.3374L72.4186 7.29089Z" fill="#00879D"/>
<path d="M58.705 38.6938L47.8223 41.6764L48.0503 42.5039L58.9331 39.521L58.705 38.6938Z" fill="#197F8E"/>
<path d="M59.6185 42.005L48.7358 44.9879L48.9639 45.815L59.8466 42.8325L59.6185 42.005Z" fill="#F5F5F5"/>
<path d="M60.972 18.4889L50.0894 21.4717L50.3174 22.299L61.2001 19.3162L60.972 18.4889Z" fill="white"/>
<path d="M68.1199 18.5074L50.5967 23.3103L50.8247 24.1377L68.348 19.3348L68.1199 18.5074Z" fill="white"/>
<path opacity="0.2" d="M65.0692 21.9163L54.967 24.6851C54.7515 24.7442 54.6248 24.9663 54.684 25.1812L54.7229 25.3223C54.7821 25.5372 55.0049 25.6635 55.2204 25.6045L65.3226 22.8355C65.5382 22.7765 65.6648 22.5544 65.6056 22.3395L65.5667 22.1984C65.5075 21.9835 65.2847 21.8572 65.0692 21.9163Z" fill="black"/>
<path d="M43.9656 45.8507C45.0356 45.5576 45.6645 44.4547 45.3704 43.3879C45.0763 42.321 43.9705 41.6938 42.9005 41.9873C41.8305 42.2804 41.2016 43.3832 41.4957 44.4501C41.7898 45.517 42.8956 46.1438 43.9656 45.8507Z" fill="#69F0AE"/>
<path d="M60.913 46.6948L50.0303 49.6777L50.2584 50.5048L61.1411 47.5223L60.913 46.6948Z" fill="#BDBDBD"/>
<path d="M61.8241 50.006L50.9414 52.9889L51.1695 53.8164L62.0522 50.8335L61.8241 50.006Z" fill="#F5F5F5"/>
<path d="M78.8927 43.5479L50.4868 51.3334L50.7149 52.1609L79.1208 44.375L78.8927 43.5479Z" fill="#E0E0E0"/>
<path d="M46.1707 53.8519C47.2406 53.5584 47.8696 52.4559 47.5755 51.3891C47.2813 50.3222 46.1755 49.695 45.1056 49.9881C44.0356 50.2816 43.4067 51.384 43.7008 52.4509C43.9949 53.5178 45.1007 54.145 46.1707 53.8519Z" fill="#E0E0E0"/>
<path d="M63.1171 54.6946L52.2344 57.6775L52.4625 58.505L63.3452 55.5221L63.1171 54.6946Z" fill="#BDBDBD"/>
<path d="M64.0306 58.0046L53.1479 60.9875L53.3761 61.8147L64.2587 58.8321L64.0306 58.0046Z" fill="#F5F5F5"/>
<path d="M81.0962 51.5477L52.6904 59.3333L52.9185 60.1608L81.3244 52.3752L81.0962 51.5477Z" fill="#E0E0E0"/>
<path d="M48.3757 61.8525C49.4457 61.5594 50.0747 60.4566 49.7805 59.3897C49.4864 58.3228 48.3807 57.6956 47.3107 57.9891C46.2407 58.2822 45.6117 59.3851 45.9059 60.4519C46.2 61.5188 47.3058 62.1456 48.3757 61.8525Z" fill="#E0E0E0"/>
<path d="M115.192 93.2801H101.382V37.3225H127.169L115.192 93.2801Z" fill="url(#paint2_linear)"/>
<path d="M114.504 93.2801H100.967V37.3225H126.245L114.504 93.2801Z" fill="#096979"/>
<path d="M117.733 19.9243L75.3691 24.4013L81.2723 79.9371L123.635 75.46L117.733 19.9243Z" fill="url(#paint3_linear)"/>
<path d="M117.776 19.8672L75.3145 24.3545L77.5646 45.5223L120.026 41.0348L117.776 19.8672Z" fill="url(#paint4_linear)"/>
<path d="M117.236 20.4113L75.9565 24.7737L81.722 79.0172L123.002 74.6546L117.236 20.4113Z" fill="#F5F5F5"/>
<path d="M117.279 20.3551L75.9038 24.7276L78.1014 45.4017L119.476 41.0294L117.279 20.3551Z" fill="#00879D"/>
<path d="M98.6479 49.1294L87.4243 50.3154L87.5148 51.1688L98.7384 49.9824L98.6479 49.1294Z" fill="#BDBDBD"/>
<path d="M99.0102 52.5433L87.7866 53.7293L87.8775 54.5827L99.1011 53.3964L99.0102 52.5433Z" fill="#F5F5F5"/>
<path d="M116.901 48.9268L87.6055 52.0226L87.696 52.876L116.991 49.7798L116.901 48.9268Z" fill="#69F0AE"/>
<path d="M104.167 29.5571L92.9438 30.7432L93.0347 31.5965L104.258 30.4104L104.167 29.5571Z" fill="white"/>
<path d="M111.215 30.7307L93.1431 32.6406L93.2336 33.4938L111.306 31.584L111.215 30.7307Z" fill="white"/>
<path opacity="0.2" d="M107.649 33.5993L97.2309 34.7004C97.0085 34.7239 96.8477 34.9226 96.8709 35.1442L96.8863 35.2897C96.9099 35.5113 97.1095 35.6719 97.3318 35.6484L107.75 34.5474C107.973 34.5239 108.134 34.3252 108.11 34.1036L108.094 33.9581C108.071 33.7364 107.872 33.5759 107.649 33.5993Z" fill="black"/>
<path d="M82.9385 53.8109C84.0417 53.6945 84.8418 52.7081 84.7246 51.6076C84.6079 50.5074 83.6183 49.7101 82.5151 49.8265C81.4115 49.9432 80.6118 50.9297 80.7286 52.0298C80.8458 53.1303 81.8349 53.9277 82.9385 53.8109Z" fill="#69F0AE"/>
<path d="M99.5254 57.3796L88.3018 58.5656L88.3926 59.419L99.6162 58.2327L99.5254 57.3796Z" fill="#BDBDBD"/>
<path d="M99.8896 60.7938L88.666 61.9798L88.7565 62.8332L99.9801 61.6469L99.8896 60.7938Z" fill="#F5F5F5"/>
<path d="M117.778 57.1771L88.4829 60.2729L88.5738 61.1264L117.869 58.0302L117.778 57.1771Z" fill="#E0E0E0"/>
<path d="M83.8156 62.061C84.9193 61.9446 85.7189 60.9582 85.6021 59.8577C85.485 58.7575 84.4958 57.9602 83.3922 58.0766C82.2886 58.1934 81.489 59.1798 81.6061 60.2799C81.7229 61.3804 82.7124 62.1778 83.8156 62.061Z" fill="#E0E0E0"/>
<path d="M100.401 65.6301L89.1777 66.8161L89.2686 67.6695L100.492 66.4832L100.401 65.6301Z" fill="#BDBDBD"/>
<path d="M100.764 69.0442L89.5405 70.2302L89.631 71.0836L100.855 69.8972L100.764 69.0442Z" fill="#F5F5F5"/>
<path d="M118.656 65.4275L89.3608 68.5233L89.4513 69.3767L118.747 66.2805L118.656 65.4275Z" fill="#E0E0E0"/>
<path d="M84.6934 70.3116C85.797 70.1952 86.5967 69.2088 86.4795 68.1083C86.3627 67.0082 85.3732 66.2108 84.27 66.3272C83.1664 66.444 82.3667 67.4304 82.4835 68.5305C82.6007 69.6311 83.5898 70.4284 84.6934 70.3116Z" fill="#E0E0E0"/>
<path d="M78.8493 34.5028C78.9676 35.5071 79.3601 36.4597 79.9842 37.2567C80.6083 38.0537 81.4401 38.6646 82.3882 39.0225C83.3368 39.3806 84.3654 39.4722 85.3626 39.2874C86.3595 39.1021 87.2864 38.6477 88.042 37.9735C88.7976 37.2992 89.3532 36.4309 89.6479 35.4635C89.9426 34.4959 89.9654 33.4663 89.7132 32.4868C89.4615 31.5074 88.9445 30.6157 88.2191 29.9091C87.4937 29.2024 86.5877 28.708 85.6001 28.4796L85.7675 29.8927C85.8228 30.3833 85.6816 30.8758 85.3746 31.2633C85.068 31.6509 84.6206 31.9021 84.1291 31.9627C83.6353 32.0194 83.1392 31.879 82.749 31.5721C82.3588 31.2653 82.1063 30.8169 82.0464 30.325L81.879 28.9119C80.8581 29.4195 80.0194 30.2289 79.4772 31.2295C78.9347 32.2302 78.7155 33.3733 78.8493 34.5028Z" fill="url(#paint5_linear)"/>
<path d="M89.8047 32.7623C89.6975 31.757 89.3155 30.8005 88.7007 29.9968C88.0858 29.1931 87.2614 28.5732 86.3171 28.2046C85.3732 27.836 84.3458 27.7329 83.347 27.9065C82.3482 28.0801 81.4166 28.5238 80.6533 29.1891C79.89 29.8545 79.3247 30.716 79.0184 31.6797C78.7125 32.6435 78.6777 33.6725 78.9179 34.6546C79.1584 35.6367 79.6642 36.5342 80.3811 37.2493C81.0976 37.9643 81.9975 38.4695 82.982 38.7097L82.8315 37.2954C82.7805 36.8024 82.927 36.3094 83.2395 35.9239C83.5519 35.5385 84.0047 35.2921 84.4989 35.2384C84.9931 35.1875 85.4877 35.3339 85.8744 35.6454C86.2607 35.9569 86.5081 36.4083 86.5619 36.9009L86.7123 38.3153C87.7382 37.8194 88.5854 37.02 89.1392 36.0263C89.6925 35.0325 89.9249 33.8926 89.8047 32.7623Z" fill="#3F93CD"/>
<path d="M84.4458 34.6984C85.6147 34.5748 86.4616 33.5298 86.3378 32.3643C86.2141 31.1987 85.1658 30.354 83.9968 30.4776C82.8279 30.6011 81.981 31.6461 82.1048 32.8117C82.2285 33.9772 83.2768 34.8219 84.4458 34.6984Z" fill="white" stroke="white" stroke-miterlimit="10"/>
<path d="M84.4991 35.2384C84.0049 35.292 83.5525 35.5385 83.2401 35.9239C82.9276 36.3093 82.7807 36.8024 82.8317 37.2953L82.9825 38.7097C84.2338 39.014 85.5525 38.8755 86.7125 38.3179L86.5621 36.9035C86.5087 36.4104 86.262 35.9583 85.8753 35.6463C85.4887 35.3342 84.9941 35.1876 84.4991 35.2384Z" fill="white" stroke="white" stroke-miterlimit="10"/>
<path d="M82.0732 32.6968C81.8686 32.3875 81.7514 32.0288 81.734 31.6586C81.7193 31.2864 81.8508 30.9232 82.1006 30.6464C82.381 30.3513 82.7897 30.2142 83.1907 30.1397C83.5913 30.0653 83.9985 30.047 84.3917 29.9164C84.7135 29.8153 85.0116 29.6515 85.2691 29.4345C85.527 29.2175 85.739 28.9516 85.8925 28.6522C85.9652 28.9566 85.9957 29.2695 85.983 29.5821C85.9756 29.7386 85.9362 29.8919 85.8673 30.0327C85.7985 30.1736 85.7014 30.2988 85.5823 30.4009C85.8874 30.2181 85.8901 30.5694 85.8441 30.7862C86.0236 30.9612 86.4137 30.952 86.4609 31.1989C86.5204 31.4426 86.5204 31.697 86.4609 31.9407C86.3878 32.1797 86.5355 32.5728 86.288 32.6159" fill="white"/>
<path d="M82.0732 32.6968C81.8686 32.3875 81.7514 32.0288 81.734 31.6586C81.7193 31.2864 81.8508 30.9232 82.1006 30.6464C82.381 30.3513 82.7897 30.2142 83.1907 30.1397C83.5913 30.0653 83.9985 30.047 84.3917 29.9164C84.7135 29.8153 85.0116 29.6515 85.2691 29.4345C85.527 29.2175 85.739 28.9516 85.8925 28.6522C85.9652 28.9566 85.9957 29.2695 85.983 29.5821C85.9756 29.7386 85.9362 29.8919 85.8673 30.0327C85.7985 30.1736 85.7014 30.2988 85.5823 30.4009C85.8874 30.2181 85.8901 30.5694 85.8441 30.7862C86.0236 30.9612 86.4137 30.952 86.4609 31.1989C86.5204 31.4426 86.5204 31.697 86.4609 31.9407C86.3878 32.1797 86.5355 32.5728 86.288 32.6159" stroke="white" stroke-miterlimit="10"/>
<path d="M85.6919 30.3421C85.6919 30.3421 87.1826 30.3146 86.364 32.6119L85.6919 30.3421Z" fill="white"/>
<path d="M103.114 0.052124H60.5132V55.8987H103.114V0.052124Z" fill="url(#paint6_linear)"/>
<path d="M103.161 0H60.4619V21.2863H103.161V0Z" fill="url(#paint7_linear)"/>
<path d="M102.568 0.484497H61.0571V55.0317H102.568V0.484497Z" fill="#F5F5F5"/>
<path d="M102.617 0.433594H61.0103V21.2236H102.617V0.433594Z" fill="#00879D"/>
<path d="M81.0469 27.0889H69.7607V27.9469H81.0469V27.0889Z" fill="#197F8E"/>
<path d="M81.0469 30.5222H69.7607V31.3802H81.0469V30.5222Z" fill="#197F8E"/>
<path d="M99.2204 28.8063H69.7607V29.6643H99.2204V28.8063Z" fill="#197F8E"/>
<path d="M88.6036 8.20691H77.3174V9.06497H88.6036V8.20691Z" fill="white"/>
<path d="M95.4905 10.1135H77.3174V10.9715H95.4905V10.1135Z" fill="white"/>
<path opacity="0.2" d="M91.6415 12.5938H81.1646C80.9411 12.5938 80.7598 12.7744 80.7598 12.9973V13.1435C80.7598 13.3664 80.9411 13.5471 81.1646 13.5471H91.6415C91.865 13.5471 92.0464 13.3664 92.0464 13.1435V12.9973C92.0464 12.7744 91.865 12.5938 91.6415 12.5938Z" fill="black"/>
<path d="M64.9316 30.0938C66.0412 30.0938 66.9408 29.1968 66.9408 28.0904C66.9408 26.984 66.0412 26.087 64.9316 26.087C63.8219 26.087 62.9224 26.984 62.9224 28.0904C62.9224 29.1968 63.8219 30.0938 64.9316 30.0938Z" fill="#80B2B9"/>
<path d="M81.0469 35.3856H69.7607V36.2436H81.0469V35.3856Z" fill="#197F8E"/>
<path d="M81.0469 38.8191H69.7607V39.6772H81.0469V38.8191Z" fill="#F5F5F5"/>
<path d="M99.2204 37.103H69.7607V37.961H99.2204V37.103Z" fill="#197F8E"/>
<path d="M64.9316 38.3909C66.0412 38.3909 66.9408 37.494 66.9408 36.3875C66.9408 35.2811 66.0412 34.3842 64.9316 34.3842C63.8219 34.3842 62.9224 35.2811 62.9224 36.3875C62.9224 37.494 63.8219 38.3909 64.9316 38.3909Z" fill="#80B2B9"/>
<path d="M81.0469 43.684H69.7607V44.542H81.0469V43.684Z" fill="#BDBDBD"/>
<path d="M81.0469 47.1162H69.7607V47.9743H81.0469V47.1162Z" fill="#F5F5F5"/>
<path d="M99.2204 45.4001H69.7607V46.2582H99.2204V45.4001Z" fill="#E0E0E0"/>
<path d="M64.9316 46.6878C66.0412 46.6878 66.9408 45.7906 66.9408 44.6843C66.9408 43.578 66.0412 42.6809 64.9316 42.6809C63.8219 42.6809 62.9224 43.578 62.9224 44.6843C62.9224 45.7906 63.8219 46.6878 64.9316 46.6878Z" fill="#E0E0E0"/>
<path d="M56.6218 39.7986L47.3001 33.291H34.3936V39.7986V42.9865V97.4452H115.058V39.7986H56.6218Z" fill="url(#paint8_linear)"/>
<path d="M35.084 40.4567V43.5517V96.4145H114.505V40.4567H56.9704" fill="#96C5CD"/>
<path d="M56.9704 40.4568L47.7915 34.1399H35.084V40.4568" fill="#096979"/>
<path d="M96.6679 48.7145H52.9214V88.1554H96.6679V48.7145Z" fill="url(#paint9_linear)"/>
<path d="M96.2705 49.0021H53.5166V87.4384H96.2705V49.0021Z" fill="white"/>
<path d="M83.5959 64.0643H66.7861V65.4367H83.5959V64.0643Z" fill="#006C7E"/>
<path d="M93.2569 66.8107H56.5254V68.1834H93.2569V66.8107Z" fill="#006C7E"/>
<path d="M93.2569 69.5573H56.5254V70.93H93.2569V69.5573Z" fill="#006C7E"/>
<defs>
<linearGradient id="paint0_linear" x1="67.2375" y1="65.6529" x2="52.1961" y2="12.0174" gradientUnits="userSpaceOnUse">
<stop stop-color="#808080" stop-opacity="0.25"/>
<stop offset="0.54" stop-color="#808080" stop-opacity="0.12"/>
<stop offset="1" stop-color="#808080" stop-opacity="0.1"/>
</linearGradient>
<linearGradient id="paint1_linear" x1="57.9005" y1="32.8945" x2="52.2726" y2="12.3611" gradientUnits="userSpaceOnUse">
<stop stop-color="#B3B3B3" stop-opacity="0.25"/>
<stop offset="0.54" stop-color="#B3B3B3" stop-opacity="0.1"/>
<stop offset="1" stop-color="#B3B3B3" stop-opacity="0.05"/>
</linearGradient>
<linearGradient id="paint2_linear" x1="16367.3" y1="40005.1" x2="16367.3" y2="16028.9" gradientUnits="userSpaceOnUse">
<stop stop-color="#808080" stop-opacity="0.25"/>
<stop offset="0.54" stop-color="#808080" stop-opacity="0.12"/>
<stop offset="1" stop-color="#808080" stop-opacity="0.1"/>
</linearGradient>
<linearGradient id="paint3_linear" x1="35287.2" y1="34081.8" x2="32777.3" y2="10332.1" gradientUnits="userSpaceOnUse">
<stop stop-color="#808080" stop-opacity="0.25"/>
<stop offset="0.54" stop-color="#808080" stop-opacity="0.12"/>
<stop offset="1" stop-color="#808080" stop-opacity="0.1"/>
</linearGradient>
<linearGradient id="paint4_linear" x1="32303.6" y1="5344.79" x2="31938.9" y2="1894.66" gradientUnits="userSpaceOnUse">
<stop stop-color="#B3B3B3" stop-opacity="0.25"/>
<stop offset="0.54" stop-color="#B3B3B3" stop-opacity="0.1"/>
<stop offset="1" stop-color="#B3B3B3" stop-opacity="0.05"/>
</linearGradient>
<linearGradient id="paint5_linear" x1="-7070.09" y1="-2724.8" x2="-7212.31" y2="-3614.46" gradientUnits="userSpaceOnUse">
<stop stop-opacity="0.12"/>
<stop offset="0.55" stop-opacity="0.09"/>
<stop offset="1" stop-opacity="0.02"/>
</linearGradient>
<linearGradient id="paint6_linear" x1="16373.1" y1="23904.1" x2="16373.1" y2="22.392" gradientUnits="userSpaceOnUse">
<stop stop-color="#808080" stop-opacity="0.25"/>
<stop offset="0.54" stop-color="#808080" stop-opacity="0.12"/>
<stop offset="1" stop-color="#808080" stop-opacity="0.1"/>
</linearGradient>
<linearGradient id="paint7_linear" x1="16410.7" y1="3469.46" x2="16410.7" y2="0" gradientUnits="userSpaceOnUse">
<stop stop-color="#B3B3B3" stop-opacity="0.25"/>
<stop offset="0.54" stop-color="#B3B3B3" stop-opacity="0.1"/>
<stop offset="1" stop-color="#B3B3B3" stop-opacity="0.05"/>
</linearGradient>
<linearGradient id="paint8_linear" x1="26557.5" y1="47901.2" x2="26557.5" y2="16386.8" gradientUnits="userSpaceOnUse">
<stop stop-color="#808080" stop-opacity="0.25"/>
<stop offset="0.54" stop-color="#808080" stop-opacity="0.12"/>
<stop offset="1" stop-color="#808080" stop-opacity="0.1"/>
</linearGradient>
<linearGradient id="paint9_linear" x1="14460.4" y1="26671.7" x2="14460.4" y2="14760.6" gradientUnits="userSpaceOnUse">
<stop stop-color="#808080" stop-opacity="0.25"/>
<stop offset="0.54" stop-color="#808080" stop-opacity="0.12"/>
<stop offset="1" stop-color="#808080" stop-opacity="0.1"/>
</linearGradient>
</defs>
</svg>
