<svg width="150" height="120" viewBox="0 0 150 120" fill="none" xmlns="http://www.w3.org/2000/svg">
<path d="M63.8136 11.298C57.7165 8.82238 51.2733 6.74976 44.6955 7.01354C35.0174 7.39365 25.7478 13.2034 21.1942 21.7347C17.3361 28.9617 16.8605 37.434 15.1988 45.454C13.1517 55.3369 9.23123 64.7284 5.04183 73.9131C2.79131 78.8399 0.417705 83.886 0.0486489 89.2946C-0.464767 96.8015 3.1292 104.285 8.76378 109.283C14.3983 114.282 21.8864 116.912 29.3943 117.487C33.3918 117.793 37.5681 117.509 41.1194 115.652C44.8756 113.685 47.6136 110.132 51.3846 108.195C54.88 106.393 58.9678 106.147 62.8914 106.381C68.0308 106.689 73.0951 107.764 77.9152 109.57C83.3989 111.628 88.4987 114.607 93.9713 116.692C99.4434 118.778 105.557 119.943 111.15 118.201C116.4 116.563 120.556 112.598 124.301 108.575C130.448 101.974 136.054 94.889 141.065 87.3908C144.443 82.3376 147.585 77.0065 149.08 71.1162C151.934 59.8572 148.006 47.153 139.289 39.4623C132.071 33.0921 122.378 30.3265 112.893 28.6487C104.243 27.1185 94.2416 27.0234 86.2797 23.0355C78.6848 19.2263 71.7756 14.5322 63.8136 11.298Z" fill="#E5F3F6"/>
<path d="M102.375 96.5995C111.817 96.5995 119.471 88.9265 119.471 79.4613C119.471 69.9966 111.817 62.3231 102.375 62.3231C92.9331 62.3231 85.2788 69.9966 85.2788 79.4613C85.2788 88.9265 92.9331 96.5995 102.375 96.5995Z" fill="white"/>
<path d="M102.375 53.0398L98.1635 63.5947L82.9344 63.7172L77.973 63.757L66.1999 63.8523L61.2405 63.8921L49.4672 63.9874L44.5081 64.0272L32.7347 64.1244L27.7756 64.1648L19.8284 64.2278L18.2912 61.0742L16.297 56.9892L15.1957 54.7288L14.564 53.0398L18.3438 41.039C18.7133 39.8661 19.446 38.842 20.4354 38.1152C21.4248 37.3885 22.6195 36.9963 23.8462 36.9963H92.6169C93.8079 36.9968 94.9696 37.3668 95.9423 38.0558C96.9156 38.7442 97.6524 39.7175 98.0516 40.8424L98.4896 42.0797L102.375 53.0398Z" fill="#096979"/>
<path d="M102.375 53.0399H14.564V75.2056H102.375V53.0399Z" fill="#ADD0E8"/>
<path d="M102.375 53.0399H14.564V75.2056H102.375V53.0399Z" fill="black"/>
<path d="M110.664 78.163H108.074V80.7596H110.664V78.163Z" fill="#096979"/>
<path d="M86.4769 24.436H30.2524V95.3652H86.4769V24.436Z" fill="white"/>
<path d="M58.4699 29.5023H42.0449V31.8248H58.4699V29.5023Z" fill="#197F8E"/>
<path d="M82.8968 39.0018H33.4111V40.0572H82.8968V39.0018Z" fill="#197F8E"/>
<path d="M82.8968 42.3796H33.4111V43.435H82.8968V42.3796Z" fill="#197F8E"/>
<path d="M82.8968 45.7571H33.4111V46.8125H82.8968V45.7571Z" fill="#197F8E"/>
<path d="M82.8968 49.1343H33.4111V50.1902H82.8968V49.1343Z" fill="#197F8E"/>
<path d="M82.8968 52.5122H33.4111V53.5676H82.8968V52.5122Z" fill="#197F8E"/>
<path d="M82.8968 55.8895H33.4111V56.9449H82.8968V55.8895Z" fill="#197F8E"/>
<path d="M35.5164 33.7244C34.8083 33.7244 34.1162 33.5142 33.5275 33.1196C32.9388 32.7255 32.48 32.165 32.209 31.5093C31.9381 30.8536 31.8672 30.1318 32.0053 29.4358C32.1435 28.7398 32.4844 28.1002 32.9851 27.5982C33.4857 27.0963 34.1236 26.7545 34.818 26.6161C35.5124 26.4776 36.2322 26.5487 36.8863 26.8203C37.5404 27.0919 38.0995 27.5518 38.4929 28.142C38.8862 28.7322 39.0962 29.4262 39.0962 30.1359C39.0951 31.0874 38.7176 31.9992 38.0465 32.672C37.3754 33.3449 36.4655 33.7234 35.5164 33.7244ZM35.5164 26.9693C34.8916 26.9693 34.281 27.155 33.7615 27.5029C33.242 27.8507 32.8372 28.3456 32.5981 28.9242C32.359 29.5028 32.2965 30.1394 32.4184 30.7533C32.5403 31.3677 32.8411 31.9321 33.2828 32.3747C33.7246 32.8177 34.2874 33.1191 34.9001 33.2416C35.5128 33.3635 36.1479 33.301 36.7251 33.0611C37.3023 32.8217 37.7956 32.4155 38.1427 31.8949C38.4898 31.3742 38.675 30.7618 38.675 30.1359C38.6741 29.2962 38.341 28.4913 37.7488 27.8976C37.1567 27.3044 36.3538 26.9703 35.5164 26.9693Z" fill="#80B2B9"/>
<path d="M35.5164 26.9693C34.8916 26.9693 34.281 27.155 33.7615 27.5029C33.242 27.8507 32.8372 28.3456 32.5981 28.9242C32.359 29.5028 32.2965 30.1394 32.4184 30.7533C32.5403 31.3677 32.8411 31.9321 33.2828 32.3747C33.7246 32.8177 34.2874 33.1191 34.9001 33.2416C35.5128 33.3635 36.1479 33.301 36.7251 33.0611C37.3023 32.8217 37.7956 32.4155 38.1427 31.8949C38.4898 31.3742 38.675 30.7618 38.675 30.1359C38.6741 29.2962 38.341 28.4913 37.7488 27.8976C37.1567 27.3044 36.3538 26.9703 35.5164 26.9693Z" fill="#80B2B9"/>
<path d="M102.375 97.1596H14.564V53.0399L25.9352 61.9059L91.4249 61.4835L102.375 53.0399V97.1596Z" fill="#00879D"/>
<path d="M35.5174 86.9211H19.0923V89.2431H35.5174V86.9211Z" fill="#096979"/>
<path d="M27.7112 82.5605C27.349 82.5605 26.9951 82.4531 26.694 82.2515C26.393 82.0499 26.1583 81.7631 26.0197 81.428C25.8812 81.0923 25.8449 80.7234 25.9156 80.3675C25.9862 80.0112 26.1606 79.6841 26.4166 79.4276C26.6726 79.171 26.9989 78.9961 27.354 78.9256C27.7092 78.8545 28.0772 78.8908 28.4118 79.0299C28.7463 79.1685 29.0323 79.4039 29.2334 79.7058C29.4346 80.0077 29.542 80.3625 29.542 80.7254C29.5414 81.2118 29.3483 81.6785 29.0051 82.0227C28.6619 82.3664 28.1965 82.56 27.7112 82.5605ZM27.7112 79.1957C27.4094 79.1957 27.1144 79.2854 26.8635 79.4538C26.6126 79.6216 26.4171 79.8605 26.3016 80.1402C26.1862 80.4195 26.156 80.7269 26.2148 81.0238C26.2737 81.3206 26.419 81.5928 26.6324 81.807C26.8457 82.0207 27.1176 82.1663 27.4135 82.2253C27.7095 82.2843 28.0163 82.254 28.295 82.1386C28.5738 82.0227 28.8121 81.8266 28.9797 81.5751C29.1473 81.3236 29.2369 81.0278 29.2369 80.7254C29.2364 80.3197 29.0755 79.9311 28.7895 79.6443C28.5035 79.3575 28.1156 79.1962 27.7112 79.1957Z" fill="#096979"/>
<path d="M27.7112 79.1957C27.4094 79.1957 27.1144 79.2854 26.8635 79.4538C26.6126 79.6216 26.4171 79.8605 26.3016 80.1402C26.1862 80.4195 26.156 80.7269 26.2148 81.0238C26.2737 81.3206 26.419 81.5928 26.6324 81.807C26.8457 82.0207 27.1176 82.1663 27.4135 82.2253C27.7095 82.2843 28.0163 82.254 28.295 82.1386C28.5738 82.0227 28.8121 81.8266 28.9797 81.5751C29.1473 81.3236 29.2369 81.0278 29.2369 80.7254C29.2364 80.3197 29.0755 79.9311 28.7895 79.6443C28.5035 79.3575 28.1156 79.1962 27.7112 79.1957Z" fill="#096979"/>
<path d="M104.346 20.0785H94.2412V30.2041H104.346V20.0785Z" fill="#F2F2F2"/>
<path d="M102.563 21.9392H96.1333V28.3828H102.563V21.9392Z" fill="#096979"/>
<path d="M109.457 0H89.1323V14.1528H109.457V0Z" fill="#096979"/>
<path d="M99.2944 2.76147C98.4426 2.76147 97.61 3.01454 96.9019 3.48865C96.1938 3.96277 95.6419 4.63668 95.3158 5.42514C94.9902 6.21356 94.905 7.08115 95.0708 7.91816C95.2371 8.75516 95.6474 9.52402 96.2497 10.1275C96.8515 10.7309 97.6191 11.1418 98.4542 11.3084C99.2894 11.4748 100.155 11.3894 100.942 11.0628C101.729 10.7362 102.402 10.1832 102.874 9.47357C103.348 8.76398 103.6 7.92975 103.6 7.07637C103.597 5.93298 103.142 4.83742 102.336 4.02895C101.529 3.22047 100.435 2.7648 99.2944 2.76147ZM99.2944 4.05591C99.5499 4.05591 99.7994 4.13187 100.012 4.2741C100.224 4.41633 100.39 4.61848 100.488 4.85501C100.586 5.09154 100.611 5.35186 100.561 5.60296C100.512 5.85405 100.389 6.08469 100.208 6.26572C100.027 6.44676 99.7969 6.57004 99.5464 6.61999C99.2959 6.66994 99.0358 6.64428 98.8 6.54635C98.5641 6.44838 98.362 6.28246 98.2204 6.06956C98.0782 5.85667 98.0026 5.60643 98.0026 5.3504C98.0036 5.00742 98.1402 4.67886 98.3821 4.43633C98.6241 4.19381 98.9522 4.05707 99.2944 4.05591ZM99.2944 10.2876C98.7838 10.2853 98.2819 10.1583 97.8318 9.9175C97.3817 9.67673 96.9966 9.32952 96.7109 8.90606C96.7315 8.04305 98.433 7.56802 99.2944 7.56802C100.155 7.56802 101.857 8.04305 101.878 8.90606C101.592 9.32922 101.207 9.67618 100.757 9.91689C100.306 10.1576 99.8044 10.2849 99.2944 10.2876Z" fill="white"/>
<path d="M124.554 20.0785H114.449V30.2041H124.554V20.0785Z" fill="#F2F2F2"/>
<path d="M122.771 21.9392H116.34V28.3828H122.771V21.9392Z" fill="#096979"/>
<path d="M129.664 0H109.34V14.1528H129.664V0Z" fill="#096979"/>
<path d="M119.502 2.76147C118.65 2.76147 117.818 3.01454 117.11 3.48865C116.401 3.96277 115.85 4.63668 115.524 5.42514C115.198 6.21356 115.112 7.08115 115.279 7.91816C115.445 8.75516 115.855 9.52402 116.457 10.1275C117.059 10.7309 117.826 11.1418 118.662 11.3084C119.497 11.4748 120.363 11.3894 121.15 11.0628C121.936 10.7362 122.609 10.1832 123.082 9.47357C123.555 8.76398 123.808 7.92975 123.808 7.07637C123.804 5.93298 123.35 4.83742 122.543 4.02895C121.736 3.22047 120.643 2.7648 119.502 2.76147ZM119.502 4.05591C119.757 4.05591 120.007 4.13187 120.219 4.2741C120.432 4.41633 120.597 4.61848 120.695 4.85501C120.793 5.09154 120.819 5.35186 120.769 5.60296C120.719 5.85405 120.596 6.08469 120.415 6.26572C120.234 6.44676 120.005 6.57004 119.754 6.61999C119.503 6.66994 119.244 6.64428 119.008 6.54635C118.771 6.44838 118.57 6.28246 118.428 6.06956C118.286 5.85667 118.21 5.60643 118.21 5.3504C118.211 5.00742 118.347 4.67886 118.59 4.43633C118.832 4.19381 119.159 4.05707 119.502 4.05591ZM119.502 10.2876C118.992 10.2853 118.49 10.1583 118.04 9.9175C117.589 9.67673 117.204 9.32952 116.918 8.90606C116.939 8.04305 118.641 7.56802 119.502 7.56802C120.363 7.56802 122.065 8.04305 122.086 8.90606C121.799 9.32922 121.414 9.67618 120.964 9.91689C120.514 10.1576 120.012 10.2849 119.502 10.2876Z" fill="white"/>
<path d="M149.885 0H129.56V14.1528H149.885V0Z" fill="#F5F5F5"/>
<path d="M139.723 2.76147C138.871 2.76147 138.038 3.01454 137.33 3.48865C136.622 3.96277 136.07 4.63668 135.744 5.42514C135.418 6.21356 135.333 7.08115 135.499 7.91816C135.665 8.75516 136.076 9.52402 136.677 10.1275C137.28 10.7309 138.047 11.1418 138.882 11.3084C139.718 11.4748 140.583 11.3894 141.37 11.0628C142.157 10.7362 142.83 10.1832 143.303 9.47357C143.776 8.76398 144.028 7.92975 144.028 7.07637C144.025 5.93303 143.57 4.83742 142.764 4.02895C141.957 3.22047 140.863 2.7648 139.723 2.76147ZM139.723 4.05591C139.978 4.05591 140.228 4.13187 140.44 4.2741C140.652 4.41633 140.818 4.61848 140.916 4.85501C141.014 5.09154 141.039 5.35186 140.989 5.60296C140.94 5.85405 140.816 6.08469 140.636 6.26572C140.455 6.44676 140.225 6.57004 139.975 6.61999C139.724 6.66994 139.464 6.64428 139.228 6.54635C138.992 6.44838 138.79 6.28246 138.649 6.06956C138.506 5.85667 138.431 5.60643 138.431 5.3504C138.432 5.00742 138.568 4.67886 138.81 4.43633C139.052 4.19381 139.38 4.05707 139.723 4.05591ZM139.723 10.2876C139.212 10.2853 138.71 10.1583 138.26 9.9175C137.809 9.67673 137.425 9.32952 137.139 8.90606C137.16 8.04305 138.861 7.56802 139.723 7.56802C140.583 7.56802 142.285 8.04305 142.306 8.90606C142.02 9.32922 141.635 9.67618 141.185 9.91689C140.735 10.1576 140.233 10.2849 139.723 10.2876Z" fill="white"/>
<path d="M144.776 20.0785H134.671V30.2041H144.776V20.0785Z" fill="#F5F5F5"/>
<path d="M142.993 21.9392H136.562V28.3828H142.993V21.9392Z" fill="white"/>
<path d="M98.9645 26.5344L97.8491 25.0976L98.4978 24.5921L99.0255 25.2724L100.809 23.3856L101.406 23.9518L98.9645 26.5344Z" fill="white"/>
<path d="M119.154 26.5344L118.039 25.0976L118.687 24.5921L119.215 25.2724L120.999 23.3856L121.596 23.9518L119.154 26.5344Z" fill="white"/>
<path d="M139.342 26.5344L138.227 25.0976L138.875 24.5921L139.403 25.2724L141.187 23.3856L141.783 23.9518L139.342 26.5344Z" fill="#F5F5F5"/>
</svg>
