<svg width="150" height="120" viewBox="0 0 150 120" fill="none" xmlns="http://www.w3.org/2000/svg">
<path d="M63.8136 11.298C57.7165 8.82238 51.2733 6.74976 44.6955 7.01354C35.0174 7.39365 25.7478 13.2034 21.1942 21.7347C17.3361 28.9617 16.8605 37.434 15.1988 45.454C13.1517 55.3369 9.23123 64.7284 5.04183 73.9131C2.79131 78.8399 0.417705 83.886 0.0486489 89.2946C-0.464767 96.8015 3.1292 104.285 8.76378 109.283C14.3983 114.282 21.8864 116.912 29.3943 117.487C33.3918 117.793 37.5681 117.509 41.1194 115.652C44.8756 113.685 47.6136 110.132 51.3846 108.195C54.88 106.393 58.9678 106.147 62.8914 106.381C68.0308 106.689 73.0951 107.764 77.9152 109.57C83.3989 111.628 88.4987 114.607 93.9713 116.692C99.4434 118.778 105.557 119.943 111.15 118.201C116.4 116.563 120.556 112.598 124.301 108.575C130.448 101.974 136.054 94.889 141.065 87.3908C144.443 82.3376 147.585 77.0065 149.08 71.1162C151.934 59.8572 148.006 47.153 139.289 39.4623C132.071 33.0921 122.378 30.3265 112.893 28.6487C104.243 27.1185 94.2416 27.0234 86.2797 23.0355C78.6848 19.2263 71.7756 14.5322 63.8136 11.298Z" fill="#E5F3F6"/>
<path d="M68.7586 1.08252L111.864 1.08252C111.734 2.27544 111.642 4.31284 111.576 6.97098C111.498 10.1454 111.459 14.2443 111.449 18.9369C111.429 28.3227 111.525 40.0938 111.663 51.6157C111.801 63.1381 111.979 74.4131 112.124 82.8074C112.196 87.0046 112.26 90.4816 112.305 92.9095C112.328 94.1234 112.346 95.075 112.359 95.7231L112.368 96.206H37.982L38.3646 1.08252H38.5168H40.3716H47.1208L68.7586 1.08252Z" fill="white" stroke="#00879E"/>
<path d="M82.7187 79.2587H67.6392V68.9558H79.1892V69.2777H67.9595V78.9369H82.3979V74.1073H82.7187V79.2587Z" fill="#096979"/>
<path d="M46.7846 11.3251C46.4037 11.3251 46.0319 11.2118 45.715 10.9995C45.3987 10.7872 45.1515 10.4856 45.0062 10.1326C44.8604 9.77961 44.8221 9.39119 44.8962 9.01645C44.9709 8.6417 45.154 8.29753 45.4234 8.02732C45.6923 7.75716 46.0354 7.57322 46.4092 7.49866C46.7826 7.42414 47.1695 7.46238 47.5211 7.60859C47.8728 7.75479 48.1735 8.0024 48.3854 8.32008C48.5967 8.63777 48.7098 9.01125 48.7098 9.39331C48.7092 9.90548 48.5059 10.3965 48.1452 10.7586C47.784 11.1208 47.2951 11.3245 46.7846 11.3251ZM46.7846 7.7835C46.4672 7.7835 46.157 7.87794 45.8931 8.05482C45.6293 8.2317 45.4239 8.48309 45.3023 8.77726C45.1808 9.07144 45.1495 9.39508 45.211 9.70736C45.2731 10.0196 45.4259 10.3065 45.6499 10.5316C45.8745 10.7567 46.1605 10.9101 46.4718 10.9722C46.7826 11.0343 47.1054 11.0024 47.3986 10.8806C47.6917 10.7587 47.9419 10.5524 48.1185 10.2877C48.2945 10.0229 48.3889 9.7117 48.3889 9.39331C48.3884 8.9665 48.2189 8.55735 47.9182 8.25556C47.6175 7.95377 47.2099 7.784 46.7846 7.7835Z" fill="#E5F3F6"/>
<path d="M46.7846 7.7835C46.4672 7.7835 46.157 7.87794 45.8931 8.05482C45.6293 8.2317 45.4239 8.48309 45.3023 8.77726C45.1808 9.07144 45.1495 9.39508 45.211 9.70736C45.2731 10.0196 45.4259 10.3065 45.6499 10.5316C45.8745 10.7567 46.1605 10.9101 46.4718 10.9722C46.7826 11.0343 47.1054 11.0024 47.3986 10.8806C47.6917 10.7587 47.9419 10.5524 48.1185 10.2877C48.2945 10.0229 48.3889 9.7117 48.3889 9.39331C48.3884 8.9665 48.2189 8.55735 47.9182 8.25556C47.6175 7.95377 47.2099 7.784 46.7846 7.7835Z" fill="#E5F3F6"/>
<path d="M79.1173 75.7489L75.3008 70.4607L76.3406 69.7055L79.2616 73.7536L90.4404 62.2288L91.3601 63.1268L79.1173 75.7489Z" fill="#00879D"/>
<path d="M46.75 91.7127C47.6596 95.0878 50.7759 97.178 50.7759 97.178C50.7759 97.178 52.4175 93.7963 51.5074 90.4212C50.5978 87.0461 47.4815 84.9559 47.4815 84.9559C47.4815 84.9559 45.8398 88.3376 46.75 91.7127Z" fill="#4ACAE2"/>
<path d="M48.0864 90.9878C50.5831 93.4266 50.8878 97.1756 50.8878 97.1756C50.8878 97.1756 47.1449 96.9702 44.6487 94.5315C42.1519 92.0927 41.8467 88.3438 41.8467 88.3438C41.8467 88.3438 45.5896 88.5486 48.0864 90.9878Z" fill="#E5F3F6"/>
<path d="M83.8896 21.5549H48.353V23.3026H83.8896V21.5549Z" fill="#197F8E"/>
<path d="M100.201 25.0503H48.353V26.798H100.201V25.0503Z" fill="#197F8E"/>
<path d="M83.8896 33.2063H48.353V34.954H83.8896V33.2063Z" fill="#197F8E"/>
<path d="M83.8896 46.6053H48.353V48.353H83.8896V46.6053Z" fill="#197F8E"/>
<path d="M100.201 36.7017H48.353V38.4494H100.201V36.7017Z" fill="#197F8E"/>
<path d="M100.201 40.197H48.353V41.9447H100.201V40.197Z" fill="#197F8E"/>
<path d="M100.201 43.1099H48.353V45.4401H100.201V43.1099Z" fill="#197F8E"/>
</svg>
