<svg id="ewqsnHcAx211" xmlns="http://www.w3.org/2000/svg" xmlns:xlink="http://www.w3.org/1999/xlink" viewBox="0 0 384 265" shape-rendering="geometricPrecision" text-rendering="geometricPrecision"><style><![CDATA[#ewqsnHcAx2154_to {animation: ewqsnHcAx2154_to__to 3000ms linear infinite normal forwards}@keyframes ewqsnHcAx2154_to__to { 0% {transform: translate(0px,0px)} 10% {transform: translate(77px,0px)} 100% {transform: translate(77px,0px)}} #ewqsnHcAx2155 {animation-name: ewqsnHcAx2155__tt, ewqsnHcAx2155_c_o;animation-duration: 3000ms;animation-fill-mode: forwards;animation-timing-function: linear;animation-direction: normal;animation-iteration-count: infinite;}@keyframes ewqsnHcAx2155__tt { 0% {transform: translate(0px,0px) translate(0px,0px)} 16.666667% {transform: translate(0px,0px) translate(0px,0px)} 26.666667% {transform: translate(0px,0px) translate(0px,0px)} 100% {transform: translate(0px,0px) translate(0px,0px)}}@keyframes ewqsnHcAx2155_c_o { 0% {opacity: 0} 16.666667% {opacity: 0} 26.666667% {opacity: 1} 100% {opacity: 1}}]]></style><defs><clipPath id="ewqsnHcAx212"><rect id="ewqsnHcAx213" width="384" height="265" rx="0" ry="0" fill="rgb(255,255,255)" stroke="none" stroke-width="1"/></clipPath></defs><g id="ewqsnHcAx214" clip-path="url(#ewqsnHcAx212)"><path id="ewqsnHcAx215" d="M217.202,36.0783C192.588,36.1112,168.896,29.1364,146.235,21.3881C123.573,13.6397,101.087,4.96318,76.9304,1.28651C61.3948,-1.07683,43.7288,-0.859587,31.5848,7.7215C19.8953,15.9767,16.5102,29.64,14.877,42.2631C13.6488,51.7593,13.0824,61.7261,17.6825,70.4125C20.8765,76.4426,26.3426,81.4129,30.1952,87.16C43.6431,107.153,35.556,132.692,22.4867,153.149C16.3588,162.747,9.18038,171.947,4.54737,182.095C-0.085643,192.243,-1.98561,203.75,2.7396,213.766C7.42201,223.694,17.9986,230.899,29.349,235.82C52.3988,245.833,79.2353,247.979,105.351,248.805C163.16,250.638,221.081,246.899,278.847,243.16C300.224,241.778,321.696,240.385,342.632,236.379C354.256,234.158,366.225,230.859,374.467,223.631C384.929,214.454,387.069,199.471,379.456,188.701C366.69,170.637,333.027,167.23,323.873,147.685C318.825,136.925,323.178,124.585,329.589,114.213C343.34,91.959,367.009,72.0254,367.407,47.1346C367.681,30.0416,355.372,13.3665,336.988,5.93748C317.719,-1.84376,291.445,0.157504,277.944,14.6601C264.062,29.6005,238.934,36.0552,217.202,36.0783Z" opacity="0.1" fill="rgb(9,105,121)" stroke="none" stroke-width="1"/><path id="ewqsnHcAx216" d="M326.825,212.424C326.825,212.424,322.778,209.754,318.768,211.654C318.768,211.654,320.002,214.03,325.08,213.806L326.825,212.424Z" fill="rgb(9,105,121)" stroke="none" stroke-width="1"/><path id="ewqsnHcAx217" d="M327.335,212.565C327.335,212.565,328.566,217.253,325.478,220.442C325.478,220.442,323.621,218.51,325.478,213.777L327.335,212.565Z" fill="rgb(9,105,121)" stroke="none" stroke-width="1"/><path id="ewqsnHcAx218" d="M332.368,208.066C332.368,208.066,332.068,204.08,323.063,205.403C323.063,205.403,323.02,207.974,326.181,209.192C329.342,210.41,330.791,209.383,332.368,208.066Z" fill="rgb(9,105,121)" stroke="none" stroke-width="1"/><path id="ewqsnHcAx219" d="M332.935,208.04C332.935,208.04,336.742,209.261,333.347,217.704C333.347,217.704,330.835,217.144,330.383,213.783C329.932,210.423,331.269,209.264,332.935,208.04Z" fill="rgb(9,105,121)" stroke="none" stroke-width="1"/><path id="ewqsnHcAx2110" d="M338.017,202.385C338.017,202.385,338.534,195.825,329.33,196.496C329.33,196.496,328.672,202.421,336.394,203.962L338.017,202.385Z" fill="rgb(9,105,121)" stroke="none" stroke-width="1"/><path id="ewqsnHcAx2111" d="M344.1,194.979C344.1,194.979,342.839,187.543,333.639,189.758C333.639,189.758,333.606,196.187,342.598,196.75L344.1,194.979Z" fill="rgb(9,105,121)" stroke="none" stroke-width="1"/><path id="ewqsnHcAx2112" d="M348.547,187.323C348.547,187.323,346.433,180.081,337.318,182.247C337.318,182.247,339.488,188.761,347.941,188.659L348.547,187.323Z" fill="rgb(9,105,121)" stroke="none" stroke-width="1"/><path id="ewqsnHcAx2113" d="M352.767,179.844C352.767,179.844,350.702,172.33,341.9,174.578C341.9,174.578,344.838,181.717,352.184,181.115L352.767,179.844Z" fill="rgb(9,105,121)" stroke="none" stroke-width="1"/><path id="ewqsnHcAx2114" d="M355.488,172.741C355.488,172.741,353.901,163.551,345.695,165.585C345.695,165.585,348.079,173.946,354.886,174.081L355.488,172.741Z" fill="rgb(9,105,121)" stroke="none" stroke-width="1"/><path id="ewqsnHcAx2115" d="M358.04,164.16C358.04,164.16,356.133,154.898,347.832,157.577C347.832,157.577,351.085,166.332,357.45,165.427L358.04,164.16Z" fill="rgb(9,105,121)" stroke="none" stroke-width="1"/><path id="ewqsnHcAx2116" d="M359.606,156.174C359.606,156.174,356.58,146.909,350.162,147.159C350.162,147.159,353.254,156.945,359.069,158.021L359.606,156.174Z" fill="rgb(9,105,121)" stroke="none" stroke-width="1"/><path id="ewqsnHcAx2117" d="M360.623,148.38C360.623,148.38,357.33,137.228,352.107,138.087C352.107,138.087,354.386,146.613,360.438,150.118L360.623,148.38Z" fill="rgb(9,105,121)" stroke="none" stroke-width="1"/><path id="ewqsnHcAx2118" d="M361.193,139.081C361.193,139.081,358.104,129.789,352.961,129.417C352.961,129.417,355.062,138.561,361.091,141.497L361.193,139.081Z" fill="rgb(9,105,121)" stroke="none" stroke-width="1"/><path id="ewqsnHcAx2119" d="M361.816,130.405C361.816,130.405,357.967,121.103,354.572,120.892C354.572,120.892,356.245,130.053,361.487,131.932L361.816,130.405Z" fill="rgb(9,105,121)" stroke="none" stroke-width="1"/><path id="ewqsnHcAx2120" d="M362.242,122.334C362.242,122.334,359.874,112.232,356.473,111.393C356.473,111.393,356.937,119.658,361.899,123.091L362.242,122.334Z" fill="rgb(9,105,121)" stroke="none" stroke-width="1"/><path id="ewqsnHcAx2121" d="M363.527,111.762C363.527,111.762,361.037,103.707,358.281,102.479C358.281,102.479,358.825,111.976,362.891,113.73L363.527,111.762Z" fill="rgb(9,105,121)" stroke="none" stroke-width="1"/><path id="ewqsnHcAx2122" d="M364.59,104.849L365.09,90.6495C365.09,90.6495,359.937,101.354,364.218,107.341L364.59,104.849Z" fill="rgb(9,105,121)" stroke="none" stroke-width="1"/><path id="ewqsnHcAx2123" d="M368.567,90.7251C368.567,90.7251,372.278,80.3567,373.177,79.7773C373.177,79.7773,365.9,86.5053,366.611,95.1588L368.567,90.7251Z" fill="rgb(9,105,121)" stroke="none" stroke-width="1"/><path id="ewqsnHcAx2124" d="M338.269,202.335C338.269,202.335,344.795,201.483,344.601,210.702C344.601,210.702,338.704,211.664,336.777,204.037L338.269,202.335Z" fill="rgb(9,105,121)" stroke="none" stroke-width="1"/><path id="ewqsnHcAx2125" d="M344.409,194.728C344.409,194.728,351.95,194.705,351.324,204.142C351.324,204.142,344.992,205.274,342.904,196.512L344.409,194.728Z" fill="rgb(9,105,121)" stroke="none" stroke-width="1"/><path id="ewqsnHcAx2126" d="M348.62,187.932C348.62,187.932,355.465,184.722,359.845,193.007C359.845,193.007,353.523,195.68,348.014,189.271L348.62,187.932Z" fill="rgb(9,105,121)" stroke="none" stroke-width="1"/><path id="ewqsnHcAx2127" d="M352.919,179.913C352.919,179.913,359.93,176.5,364.046,184.591C364.046,184.591,356.742,187.105,352.34,181.194L352.919,179.913Z" fill="rgb(9,105,121)" stroke="none" stroke-width="1"/><path id="ewqsnHcAx2128" d="M355.397,172.942C355.397,172.942,362.144,166.5,367.528,173.014C367.528,173.014,360.636,178.317,355.088,174.377L355.397,172.942Z" fill="rgb(9,105,121)" stroke="none" stroke-width="1"/><path id="ewqsnHcAx2129" d="M357.658,163.939C357.658,163.939,364.444,157.356,369.785,164.242C369.785,164.242,362.169,169.65,357.414,165.322L357.658,163.939Z" fill="rgb(9,105,121)" stroke="none" stroke-width="1"/><path id="ewqsnHcAx2130" d="M358.926,155.911C358.926,155.911,364.155,147.682,370.312,149.519C370.312,149.519,364.886,158.232,358.985,157.843L358.926,155.911Z" fill="rgb(9,105,121)" stroke="none" stroke-width="1"/><path id="ewqsnHcAx2131" d="M360.467,148.328C360.467,148.328,365.736,137.966,370.721,139.769C370.721,139.769,366.921,147.735,360.332,150.075L360.467,148.328Z" fill="rgb(9,105,121)" stroke="none" stroke-width="1"/><path id="ewqsnHcAx2132" d="M360.832,138.542C360.832,138.542,366.248,130.385,371.322,131.383C371.322,131.383,366.894,139.654,360.305,140.902L360.832,138.542Z" fill="rgb(9,105,121)" stroke="none" stroke-width="1"/><path id="ewqsnHcAx2133" d="M361.254,130.224C361.254,130.224,365.452,121.07,368.864,121.008C368.864,121.008,366.848,130.096,361.537,131.778L361.254,130.224Z" fill="rgb(9,105,121)" stroke="none" stroke-width="1"/><path id="ewqsnHcAx2134" d="M362.076,122.137C362.076,122.137,366.742,112.868,370.249,112.848C370.249,112.848,367.862,120.774,362.231,122.95L362.076,122.137Z" fill="rgb(9,105,121)" stroke="none" stroke-width="1"/><path id="ewqsnHcAx2135" d="M362.779,112.341C362.779,112.341,366.27,104.672,369.161,103.803C369.161,103.803,367.416,113.151,363.165,114.375L362.779,112.341Z" fill="rgb(9,105,121)" stroke="none" stroke-width="1"/><path id="ewqsnHcAx2136" d="M365.005,104.569L372.805,92.6902C372.805,92.6902,370.807,104.408,363.865,106.844L365.005,104.569Z" fill="rgb(9,105,121)" stroke="none" stroke-width="1"/><path id="ewqsnHcAx2137" d="M370.359,91.6829C370.359,91.6829,379.424,85.429,379.753,84.4185C379.753,84.4185,375.143,93.1773,366.582,94.7243L370.359,91.6829Z" fill="rgb(9,105,121)" stroke="none" stroke-width="1"/><path id="ewqsnHcAx2138" d="M370.903,88.8688C370.903,88.8688,381.311,78.8657,383.969,78.8756C383.969,78.8756,375.384,79.2673,370.652,88.3355L370.903,88.8688Z" fill="rgb(9,105,121)" stroke="none" stroke-width="1"/><path id="ewqsnHcAx2139" d="M362.879,113.825L363.258,113.875C365.214,98.5722,368.065,89.5171,371.285,88.4078L371.16,88.0458C367.746,89.2307,364.874,98.1476,362.879,113.825Z" fill="rgb(9,105,121)" stroke="none" stroke-width="1"/><path id="ewqsnHcAx2140" d="M360.002,150.421L360.575,150.467C360.697,149.038,360.789,147.577,360.852,146.119C361.398,133.453,362.244,121.821,363.357,113.101L363.028,112.69C361.912,121.429,360.825,133.41,360.279,146.096C360.216,147.544,360.124,148.999,360.002,150.421Z" fill="rgb(9,105,121)" stroke="none" stroke-width="1"/><path id="ewqsnHcAx2141" d="M316.142,219.725C316.24,219.682,326.326,215.179,336.794,204.442C342.927,198.153,348.023,190.932,351.892,183.047C356.732,173.195,359.683,161.089,360.671,149.328L360.075,149.608C357.852,176.006,345.83,194.044,336.271,203.869C325.905,214.511,315.931,218.968,315.832,219.01L316.142,219.725Z" fill="rgb(9,105,121)" stroke="none" stroke-width="1"/><path id="ewqsnHcAx2142" d="M342.255,28.054L25.8538,28.054C25.1063,28.054,24.3893,28.3508,23.8607,28.8792C23.3321,29.4076,23.0352,30.1243,23.0352,30.8715L23.0352,39.0807L345.074,39.0807L345.074,30.8715C345.074,30.1243,344.777,29.4076,344.248,28.8792C343.72,28.3508,343.003,28.054,342.255,28.054Z" fill="rgb(9,105,121)" stroke="none" stroke-width="1"/><path id="ewqsnHcAx2143" d="M23.0352,39.0807L23.0352,223.816C23.0352,225.323,23.6339,226.768,24.6998,227.833C25.7656,228.899,27.2112,229.497,28.7186,229.497L339.391,229.497C340.898,229.497,342.343,228.899,343.409,227.833C344.475,226.768,345.074,225.323,345.074,223.816L345.074,39.0807L23.0352,39.0807Z" fill="rgb(255,255,255)" stroke="none" stroke-width="1"/><path id="ewqsnHcAx2144" d="M28.1374,34.8017C28.8649,34.8017,29.4546,34.2122,29.4546,33.4851C29.4546,32.7579,28.8649,32.1685,28.1374,32.1685C27.41,32.1685,26.8203,32.7579,26.8203,33.4851C26.8203,34.2122,27.41,34.8017,28.1374,34.8017Z" opacity="0.8" fill="rgb(250,89,89)" stroke="none" stroke-width="1"/><path id="ewqsnHcAx2145" d="M31.7605,34.8017C32.4879,34.8017,33.0776,34.2122,33.0776,33.4851C33.0776,32.7579,32.4879,32.1685,31.7605,32.1685C31.0331,32.1685,30.4434,32.7579,30.4434,33.4851C30.4434,34.2122,31.0331,34.8017,31.7605,34.8017Z" opacity="0.8" fill="rgb(254,210,83)" stroke="none" stroke-width="1"/><path id="ewqsnHcAx2146" d="M35.3816,34.8017C36.109,34.8017,36.6987,34.2122,36.6987,33.4851C36.6987,32.7579,36.109,32.1685,35.3816,32.1685C34.6542,32.1685,34.0645,32.7579,34.0645,33.4851C34.0645,34.2122,34.6542,34.8017,35.3816,34.8017Z" opacity="0.8" fill="rgb(140,207,77)" stroke="none" stroke-width="1"/><path id="ewqsnHcAx2147" d="M311.787,69.8831L52.9707,69.8831L52.9707,183.646L311.787,183.646L311.787,69.8831Z" opacity="0.05" fill="rgb(0,0,0)" stroke="none" stroke-width="1"/><path id="ewqsnHcAx2148" d="M309.812,70.7454L54.9473,70.7454L54.9473,182L309.812,182L309.812,70.7454Z" fill="rgb(9,105,121)" stroke="none" stroke-width="1"/><path id="ewqsnHcAx2149" d="M124.425,99.3788C119.41,99.3788,114.508,100.865,110.339,103.65C106.169,106.435,102.919,110.393,101,115.025C99.0813,119.656,98.5792,124.752,99.5575,129.668C100.536,134.585,102.951,139.101,106.497,142.645C110.042,146.19,114.56,148.604,119.479,149.582C124.397,150.56,129.495,150.058,134.128,148.14C138.761,146.221,142.721,142.973,145.507,138.805C148.293,134.637,149.78,129.737,149.78,124.724C149.78,121.395,149.124,118.1,147.85,115.025C146.576,111.95,144.708,109.156,142.354,106.802C139.999,104.449,137.204,102.582,134.128,101.308C131.052,100.034,127.755,99.3788,124.425,99.3788ZM128.973,125.333L128.973,137.334L120.009,137.334L120.009,125.333C118.769,124.394,117.855,123.09,117.396,121.604C116.937,120.118,116.957,118.526,117.452,117.052C117.947,115.578,118.893,114.296,120.156,113.388C121.419,112.481,122.935,111.992,124.491,111.992C126.047,111.992,127.563,112.481,128.826,113.388C130.089,114.296,131.035,115.578,131.53,117.052C132.025,118.526,132.045,120.118,131.586,121.604C131.127,123.09,130.213,124.394,128.973,125.333Z" fill="rgb(9,105,121)" stroke="none" stroke-width="1"/><path id="ewqsnHcAx2150" d="M124.425,99.3788C119.41,99.3788,114.508,100.865,110.339,103.65C106.169,106.435,102.919,110.393,101,115.025C99.0813,119.656,98.5792,124.752,99.5575,129.668C100.536,134.585,102.951,139.101,106.497,142.645C110.042,146.19,114.56,148.604,119.479,149.582C124.397,150.56,129.495,150.058,134.128,148.14C138.761,146.221,142.721,142.973,145.507,138.805C148.293,134.637,149.78,129.737,149.78,124.724C149.78,121.395,149.124,118.1,147.85,115.025C146.576,111.95,144.708,109.156,142.354,106.802C139.999,104.449,137.204,102.582,134.128,101.308C131.052,100.034,127.755,99.3788,124.425,99.3788ZM128.973,125.333L128.973,137.334L120.009,137.334L120.009,125.333C118.769,124.394,117.855,123.09,117.396,121.604C116.937,120.118,116.957,118.526,117.452,117.052C117.947,115.578,118.893,114.296,120.156,113.388C121.419,112.481,122.935,111.992,124.491,111.992C126.047,111.992,127.563,112.481,128.826,113.388C130.089,114.296,131.035,115.578,131.53,117.052C132.025,118.526,132.045,120.118,131.586,121.604C131.127,123.09,130.213,124.394,128.973,125.333Z" opacity="0.05" fill="rgb(0,0,0)" stroke="none" stroke-width="1"/><path id="ewqsnHcAx2151" d="M124.425,92.1373C117.978,92.1373,111.675,94.0485,106.314,97.6291C100.953,101.21,96.775,106.299,94.3076,112.253C91.8403,118.208,91.1947,124.76,92.4526,131.081C93.7104,137.402,96.8152,143.209,101.374,147.766C105.933,152.323,111.742,155.427,118.065,156.684C124.389,157.941,130.944,157.296,136.9,154.83C142.857,152.363,147.948,148.187,151.53,142.828C155.112,137.469,157.024,131.169,157.024,124.724C157.024,116.081,153.59,107.793,147.476,101.682C141.363,95.5705,133.071,92.1373,124.425,92.1373ZM130.27,125.507L130.27,140.935L118.745,140.935L118.745,125.507C117.15,124.3,115.974,122.623,115.384,120.712C114.793,118.801,114.818,116.753,115.455,114.857C116.092,112.962,117.308,111.313,118.932,110.146C120.557,108.978,122.507,108.35,124.508,108.35C126.508,108.35,128.458,108.978,130.083,110.146C131.707,111.313,132.923,112.962,133.56,114.857C134.197,116.753,134.222,118.801,133.632,120.712C133.041,122.623,131.865,124.3,130.27,125.507Z" transform="matrix(1 0 0 1 0.000032 0.711277)" fill="rgb(255,255,255)" stroke="none" stroke-width="1"/><path id="ewqsnHcAx2152" d="M275.896,120.448L170.525,120.448L170.525,131.639L275.896,131.639L275.896,120.448Z" fill="rgb(255,255,255)" stroke="none" stroke-width="1"/><path id="ewqsnHcAx2153" d="M275.896,140.855L253.176,140.855L253.176,152.047L275.896,152.047L275.896,140.855Z" fill="rgb(244,246,247)" stroke="none" stroke-width="1"/><g id="ewqsnHcAx2154_to" transform="translate(0,0)"><path id="ewqsnHcAx2154" d="M180.898,125.876L178.991,125.876L180.687,124.184C180.717,124.153,180.734,124.111,180.734,124.067C180.734,124.023,180.717,123.982,180.687,123.95C180.672,123.935,180.653,123.923,180.633,123.914C180.613,123.906,180.592,123.902,180.57,123.902C180.548,123.902,180.527,123.906,180.507,123.914C180.487,123.923,180.468,123.935,180.453,123.95L178.757,125.645L178.757,123.736C178.757,123.693,178.74,123.651,178.709,123.62C178.678,123.589,178.636,123.572,178.593,123.572C178.549,123.572,178.508,123.59,178.477,123.621C178.446,123.651,178.429,123.693,178.428,123.736L178.428,125.645L176.736,123.94C176.72,123.925,176.702,123.913,176.682,123.904C176.662,123.896,176.64,123.892,176.619,123.892C176.597,123.892,176.575,123.896,176.555,123.904C176.535,123.913,176.517,123.925,176.502,123.94C176.471,123.972,176.454,124.014,176.454,124.057C176.454,124.101,176.471,124.143,176.502,124.174L178.198,125.866L176.288,125.866C176.244,125.867,176.203,125.884,176.172,125.915C176.141,125.946,176.124,125.987,176.123,126.03C176.123,126.074,176.14,126.116,176.171,126.147C176.202,126.178,176.244,126.195,176.288,126.195L178.198,126.195L176.502,127.89C176.471,127.922,176.454,127.963,176.454,128.007C176.454,128.051,176.471,128.093,176.502,128.124C176.533,128.153,176.575,128.17,176.619,128.17C176.662,128.17,176.704,128.153,176.736,128.124L178.428,126.429L178.428,128.335C178.428,128.378,178.445,128.42,178.476,128.451C178.507,128.482,178.549,128.499,178.593,128.499C178.636,128.499,178.678,128.482,178.709,128.451C178.74,128.42,178.757,128.378,178.757,128.335L178.757,126.429L180.453,128.124C180.485,128.153,180.527,128.17,180.57,128.17C180.613,128.17,180.655,128.153,180.687,128.124C180.717,128.093,180.734,128.051,180.734,128.007C180.734,127.963,180.717,127.922,180.687,127.89L178.991,126.195L180.898,126.195C180.941,126.195,180.983,126.178,181.014,126.147C181.045,126.116,181.062,126.074,181.062,126.03C181.06,125.989,181.041,125.949,181.011,125.92C180.98,125.892,180.94,125.876,180.898,125.876Z" transform="translate(0,0)" fill="rgb(63,147,205)" stroke="none" stroke-width="1"/></g><g id="ewqsnHcAx2155" transform="translate(0,0) translate(0,0)" opacity="0"><path id="ewqsnHcAx2156" d="M229.302,125.876L227.395,125.876L229.091,124.184C229.122,124.153,229.139,124.111,229.139,124.067C229.139,124.023,229.122,123.982,229.091,123.95C229.076,123.935,229.058,123.923,229.038,123.914C229.018,123.906,228.996,123.902,228.974,123.902C228.953,123.902,228.931,123.906,228.911,123.914C228.891,123.923,228.873,123.935,228.857,123.95L227.162,125.645L227.162,123.736C227.162,123.693,227.144,123.651,227.113,123.62C227.083,123.589,227.041,123.572,226.997,123.572C226.954,123.572,226.912,123.59,226.881,123.621C226.851,123.651,226.833,123.693,226.832,123.736L226.832,125.645L225.14,123.94C225.125,123.925,225.106,123.913,225.086,123.904C225.066,123.896,225.045,123.892,225.023,123.892C225.001,123.892,224.98,123.896,224.96,123.904C224.94,123.913,224.921,123.925,224.906,123.94C224.876,123.972,224.859,124.014,224.859,124.057C224.859,124.101,224.876,124.143,224.906,124.174L226.602,125.866L224.692,125.866C224.649,125.867,224.607,125.884,224.576,125.915C224.546,125.946,224.528,125.987,224.527,126.03C224.527,126.074,224.545,126.116,224.576,126.147C224.606,126.178,224.648,126.195,224.692,126.195L226.602,126.195L224.906,127.89C224.876,127.922,224.859,127.963,224.859,128.007C224.859,128.051,224.876,128.093,224.906,128.124C224.938,128.153,224.979,128.17,225.023,128.17C225.066,128.17,225.108,128.153,225.14,128.124L226.832,126.429L226.832,128.335C226.832,128.378,226.85,128.42,226.881,128.451C226.911,128.482,226.953,128.499,226.997,128.499C227.041,128.499,227.083,128.482,227.113,128.451C227.144,128.42,227.162,128.378,227.162,128.335L227.162,126.429L228.857,128.124C228.889,128.153,228.931,128.17,228.974,128.17C229.018,128.17,229.059,128.153,229.091,128.124C229.122,128.093,229.139,128.051,229.139,128.007C229.139,127.963,229.122,127.922,229.091,127.89L227.395,126.195L229.302,126.195C229.346,126.195,229.387,126.178,229.418,126.147C229.449,126.116,229.467,126.074,229.467,126.03C229.464,125.989,229.446,125.949,229.415,125.92C229.384,125.892,229.344,125.876,229.302,125.876Z" fill="rgb(63,147,205)" stroke="none" stroke-width="1"/><path id="ewqsnHcAx2157" d="M250.046,125.876L248.14,125.876L249.835,124.184C249.866,124.153,249.883,124.111,249.883,124.067C249.883,124.023,249.866,123.982,249.835,123.95C249.82,123.935,249.802,123.923,249.782,123.914C249.762,123.906,249.74,123.902,249.718,123.902C249.697,123.902,249.675,123.906,249.655,123.914C249.635,123.923,249.617,123.935,249.602,123.95L247.906,125.645L247.906,123.736C247.906,123.693,247.888,123.651,247.858,123.62C247.827,123.589,247.785,123.572,247.741,123.572C247.698,123.572,247.656,123.59,247.626,123.621C247.595,123.651,247.577,123.693,247.576,123.736L247.576,125.645L245.884,123.94C245.869,123.925,245.85,123.913,245.83,123.904C245.81,123.896,245.789,123.892,245.767,123.892C245.745,123.892,245.724,123.896,245.704,123.904C245.684,123.913,245.665,123.925,245.65,123.94C245.62,123.972,245.603,124.014,245.603,124.057C245.603,124.101,245.62,124.143,245.65,124.174L247.346,125.866L245.436,125.866C245.393,125.867,245.351,125.884,245.321,125.915C245.29,125.946,245.272,125.987,245.271,126.03C245.271,126.074,245.289,126.116,245.32,126.147C245.351,126.178,245.392,126.195,245.436,126.195L247.346,126.195L245.65,127.89C245.62,127.922,245.603,127.963,245.603,128.007C245.603,128.051,245.62,128.093,245.65,128.124C245.682,128.153,245.724,128.17,245.767,128.17C245.81,128.17,245.852,128.153,245.884,128.124L247.576,126.429L247.576,128.335C247.576,128.378,247.594,128.42,247.625,128.451C247.656,128.482,247.697,128.499,247.741,128.499C247.785,128.499,247.827,128.482,247.858,128.451C247.888,128.42,247.906,128.378,247.906,128.335L247.906,126.429L249.602,128.124C249.633,128.153,249.675,128.17,249.718,128.17C249.762,128.17,249.804,128.153,249.835,128.124C249.866,128.093,249.883,128.051,249.883,128.007C249.883,127.963,249.866,127.922,249.835,127.89L248.14,126.195L250.046,126.195C250.09,126.195,250.132,126.178,250.163,126.147C250.193,126.116,250.211,126.074,250.211,126.03C250.208,125.989,250.19,125.949,250.159,125.92C250.129,125.892,250.088,125.876,250.046,125.876Z" fill="rgb(63,147,205)" stroke="none" stroke-width="1"/><path id="ewqsnHcAx2158" d="M243.132,125.876L241.225,125.876L242.921,124.184C242.952,124.153,242.969,124.111,242.969,124.067C242.969,124.023,242.952,123.982,242.921,123.95C242.906,123.935,242.888,123.923,242.868,123.914C242.848,123.906,242.826,123.902,242.804,123.902C242.783,123.902,242.761,123.906,242.741,123.914C242.721,123.923,242.703,123.935,242.687,123.95L240.992,125.645L240.992,123.736C240.992,123.693,240.974,123.651,240.943,123.62C240.913,123.589,240.871,123.572,240.827,123.572C240.784,123.572,240.742,123.59,240.712,123.621C240.681,123.651,240.663,123.693,240.662,123.736L240.662,125.645L238.97,123.94C238.955,123.925,238.936,123.913,238.916,123.904C238.896,123.896,238.875,123.892,238.853,123.892C238.831,123.892,238.81,123.896,238.79,123.904C238.77,123.913,238.751,123.925,238.736,123.94C238.706,123.972,238.689,124.014,238.689,124.057C238.689,124.101,238.706,124.143,238.736,124.174L240.432,125.866L238.522,125.866C238.479,125.867,238.437,125.884,238.407,125.915C238.376,125.946,238.358,125.987,238.357,126.03C238.357,126.074,238.375,126.116,238.406,126.147C238.437,126.178,238.478,126.195,238.522,126.195L240.432,126.195L238.736,127.89C238.706,127.922,238.689,127.963,238.689,128.007C238.689,128.051,238.706,128.093,238.736,128.124C238.768,128.153,238.81,128.17,238.853,128.17C238.896,128.17,238.938,128.153,238.97,128.124L240.662,126.429L240.662,128.335C240.662,128.378,240.68,128.42,240.711,128.451C240.741,128.482,240.783,128.499,240.827,128.499C240.871,128.499,240.913,128.482,240.943,128.451C240.974,128.42,240.992,128.378,240.992,128.335L240.992,126.429L242.687,128.124C242.719,128.153,242.761,128.17,242.804,128.17C242.848,128.17,242.89,128.153,242.921,128.124C242.952,128.093,242.969,128.051,242.969,128.007C242.969,127.963,242.952,127.922,242.921,127.89L241.225,126.195L243.132,126.195C243.176,126.195,243.218,126.178,243.248,126.147C243.279,126.116,243.297,126.074,243.297,126.03C243.294,125.989,243.276,125.949,243.245,125.92C243.214,125.892,243.174,125.876,243.132,125.876Z" fill="rgb(63,147,205)" stroke="none" stroke-width="1"/><path id="ewqsnHcAx2159" d="M236.218,125.876L234.311,125.876L236.007,124.184C236.038,124.153,236.055,124.111,236.055,124.067C236.055,124.023,236.038,123.982,236.007,123.95C235.992,123.935,235.974,123.923,235.954,123.914C235.934,123.906,235.912,123.902,235.89,123.902C235.869,123.902,235.847,123.906,235.827,123.914C235.807,123.923,235.789,123.935,235.773,123.95L234.078,125.645L234.078,123.736C234.078,123.693,234.06,123.651,234.029,123.62C233.999,123.589,233.957,123.572,233.913,123.572C233.87,123.572,233.828,123.59,233.797,123.621C233.767,123.651,233.749,123.693,233.748,123.736L233.748,125.645L232.056,123.94C232.041,123.925,232.022,123.913,232.002,123.904C231.982,123.896,231.961,123.892,231.939,123.892C231.917,123.892,231.896,123.896,231.876,123.904C231.856,123.913,231.837,123.925,231.822,123.94C231.792,123.972,231.775,124.014,231.775,124.057C231.775,124.101,231.792,124.143,231.822,124.174L233.518,125.866L231.608,125.866C231.565,125.867,231.523,125.884,231.492,125.915C231.462,125.946,231.444,125.987,231.443,126.03C231.443,126.074,231.461,126.116,231.492,126.147C231.522,126.178,231.564,126.195,231.608,126.195L233.518,126.195L231.822,127.89C231.792,127.922,231.775,127.963,231.775,128.007C231.775,128.051,231.792,128.093,231.822,128.124C231.854,128.153,231.896,128.17,231.939,128.17C231.982,128.17,232.024,128.153,232.056,128.124L233.748,126.429L233.748,128.335C233.748,128.378,233.766,128.42,233.797,128.451C233.827,128.482,233.869,128.499,233.913,128.499C233.957,128.499,233.999,128.482,234.029,128.451C234.06,128.42,234.078,128.378,234.078,128.335L234.078,126.429L235.773,128.124C235.805,128.153,235.847,128.17,235.89,128.17C235.934,128.17,235.976,128.153,236.007,128.124C236.038,128.093,236.055,128.051,236.055,128.007C236.055,127.963,236.038,127.922,236.007,127.89L234.311,126.195L236.218,126.195C236.262,126.195,236.304,126.178,236.334,126.147C236.365,126.116,236.383,126.074,236.383,126.03C236.38,125.989,236.362,125.949,236.331,125.92C236.3,125.892,236.26,125.876,236.218,125.876Z" fill="rgb(63,147,205)" stroke="none" stroke-width="1"/><path id="ewqsnHcAx2160" d="M222.388,125.876L220.481,125.876L222.177,124.184C222.208,124.153,222.224,124.111,222.224,124.067C222.224,124.023,222.208,123.982,222.177,123.95C222.162,123.935,222.144,123.923,222.124,123.914C222.103,123.906,222.082,123.902,222.06,123.902C222.038,123.902,222.017,123.906,221.997,123.914C221.977,123.923,221.959,123.935,221.943,123.95L220.248,125.645L220.248,123.736C220.248,123.693,220.23,123.651,220.199,123.62C220.168,123.589,220.127,123.572,220.083,123.572C220.039,123.572,219.998,123.59,219.967,123.621C219.937,123.651,219.919,123.693,219.918,123.736L219.918,125.645L218.226,123.94C218.21,123.925,218.192,123.913,218.172,123.904C218.152,123.896,218.131,123.892,218.109,123.892C218.087,123.892,218.066,123.896,218.046,123.904C218.025,123.913,218.007,123.925,217.992,123.94C217.962,123.972,217.945,124.014,217.945,124.057C217.945,124.101,217.962,124.143,217.992,124.174L219.688,125.866L217.778,125.866C217.735,125.867,217.693,125.884,217.662,125.915C217.632,125.946,217.614,125.987,217.613,126.03C217.613,126.074,217.631,126.116,217.661,126.147C217.692,126.178,217.734,126.195,217.778,126.195L219.688,126.195L217.992,127.89C217.962,127.922,217.945,127.963,217.945,128.007C217.945,128.051,217.962,128.093,217.992,128.124C218.024,128.153,218.065,128.17,218.109,128.17C218.152,128.17,218.194,128.153,218.226,128.124L219.918,126.429L219.918,128.335C219.918,128.378,219.936,128.42,219.966,128.451C219.997,128.482,220.039,128.499,220.083,128.499C220.127,128.499,220.168,128.482,220.199,128.451C220.23,128.42,220.248,128.378,220.248,128.335L220.248,126.429L221.943,128.124C221.975,128.153,222.017,128.17,222.06,128.17C222.104,128.17,222.145,128.153,222.177,128.124C222.208,128.093,222.224,128.051,222.224,128.007C222.224,127.963,222.208,127.922,222.177,127.89L220.481,126.195L222.388,126.195C222.432,126.195,222.473,126.178,222.504,126.147C222.535,126.116,222.553,126.074,222.553,126.03C222.55,125.989,222.532,125.949,222.501,125.92C222.47,125.892,222.43,125.876,222.388,125.876Z" fill="rgb(63,147,205)" stroke="none" stroke-width="1"/><path id="ewqsnHcAx2161" d="M215.472,125.876L213.565,125.876L215.261,124.184C215.292,124.153,215.308,124.111,215.308,124.067C215.308,124.023,215.292,123.982,215.261,123.95C215.246,123.935,215.228,123.923,215.208,123.914C215.187,123.906,215.166,123.902,215.144,123.902C215.122,123.902,215.101,123.906,215.081,123.914C215.061,123.923,215.043,123.935,215.027,123.95L213.332,125.645L213.332,123.736C213.332,123.693,213.314,123.651,213.283,123.62C213.252,123.589,213.211,123.572,213.167,123.572C213.123,123.572,213.082,123.59,213.051,123.621C213.021,123.651,213.003,123.693,213.002,123.736L213.002,125.645L211.31,123.94C211.294,123.925,211.276,123.913,211.256,123.904C211.236,123.896,211.215,123.892,211.193,123.892C211.171,123.892,211.15,123.896,211.13,123.904C211.109,123.913,211.091,123.925,211.076,123.94C211.046,123.972,211.029,124.014,211.029,124.057C211.029,124.101,211.046,124.143,211.076,124.174L212.772,125.866L210.862,125.866C210.819,125.867,210.777,125.884,210.746,125.915C210.716,125.946,210.698,125.987,210.697,126.03C210.697,126.074,210.715,126.116,210.745,126.147C210.776,126.178,210.818,126.195,210.862,126.195L212.772,126.195L211.076,127.89C211.046,127.922,211.029,127.963,211.029,128.007C211.029,128.051,211.046,128.093,211.076,128.124C211.108,128.153,211.149,128.17,211.193,128.17C211.236,128.17,211.278,128.153,211.31,128.124L213.002,126.429L213.002,128.335C213.002,128.378,213.02,128.42,213.05,128.451C213.081,128.482,213.123,128.499,213.167,128.499C213.211,128.499,213.252,128.482,213.283,128.451C213.314,128.42,213.332,128.378,213.332,128.335L213.332,126.429L215.027,128.124C215.059,128.153,215.101,128.17,215.144,128.17C215.188,128.17,215.229,128.153,215.261,128.124C215.292,128.093,215.308,128.051,215.308,128.007C215.308,127.963,215.292,127.922,215.261,127.89L213.565,126.195L215.472,126.195C215.516,126.195,215.557,126.178,215.588,126.147C215.619,126.116,215.637,126.074,215.637,126.03C215.634,125.989,215.616,125.949,215.585,125.92C215.554,125.892,215.514,125.876,215.472,125.876Z" fill="rgb(63,147,205)" stroke="none" stroke-width="1"/><path id="ewqsnHcAx2162" d="M208.558,125.876L206.651,125.876L208.347,124.184C208.377,124.153,208.394,124.111,208.394,124.067C208.394,124.023,208.377,123.982,208.347,123.95C208.332,123.935,208.314,123.923,208.293,123.914C208.273,123.906,208.252,123.902,208.23,123.902C208.208,123.902,208.187,123.906,208.167,123.914C208.147,123.923,208.129,123.935,208.113,123.95L206.417,125.645L206.417,123.736C206.417,123.693,206.4,123.651,206.369,123.62C206.338,123.589,206.296,123.572,206.253,123.572C206.209,123.572,206.168,123.59,206.137,123.621C206.107,123.651,206.089,123.693,206.088,123.736L206.088,125.645L204.396,123.94C204.38,123.925,204.362,123.913,204.342,123.904C204.322,123.896,204.3,123.892,204.279,123.892C204.257,123.892,204.236,123.896,204.215,123.904C204.195,123.913,204.177,123.925,204.162,123.94C204.131,123.972,204.114,124.014,204.114,124.057C204.114,124.101,204.131,124.143,204.162,124.174L205.858,125.866L203.948,125.866C203.904,125.867,203.863,125.884,203.832,125.915C203.802,125.946,203.784,125.987,203.783,126.03C203.783,126.074,203.801,126.116,203.831,126.147C203.862,126.178,203.904,126.195,203.948,126.195L205.858,126.195L204.162,127.89C204.131,127.922,204.114,127.963,204.114,128.007C204.114,128.051,204.131,128.093,204.162,128.124C204.194,128.153,204.235,128.17,204.279,128.17C204.322,128.17,204.364,128.153,204.396,128.124L206.088,126.429L206.088,128.335C206.088,128.378,206.106,128.42,206.136,128.451C206.167,128.482,206.209,128.499,206.253,128.499C206.296,128.499,206.338,128.482,206.369,128.451C206.4,128.42,206.417,128.378,206.417,128.335L206.417,126.429L208.113,128.124C208.145,128.153,208.187,128.17,208.23,128.17C208.274,128.17,208.315,128.153,208.347,128.124C208.377,128.093,208.394,128.051,208.394,128.007C208.394,127.963,208.377,127.922,208.347,127.89L206.651,126.195L208.558,126.195C208.601,126.195,208.643,126.178,208.674,126.147C208.705,126.116,208.722,126.074,208.722,126.03C208.72,125.989,208.701,125.949,208.671,125.92C208.64,125.892,208.6,125.876,208.558,125.876Z" fill="rgb(63,147,205)" stroke="none" stroke-width="1"/><path id="ewqsnHcAx2163" d="M201.642,125.876L199.735,125.876L201.431,124.184C201.461,124.153,201.478,124.111,201.478,124.067C201.478,124.023,201.461,123.982,201.431,123.95C201.416,123.935,201.398,123.923,201.377,123.914C201.357,123.906,201.336,123.902,201.314,123.902C201.292,123.902,201.271,123.906,201.251,123.914C201.231,123.923,201.213,123.935,201.197,123.95L199.501,125.645L199.501,123.736C199.501,123.693,199.484,123.651,199.453,123.62C199.422,123.589,199.38,123.572,199.337,123.572C199.293,123.572,199.252,123.59,199.221,123.621C199.191,123.651,199.173,123.693,199.172,123.736L199.172,125.645L197.48,123.94C197.464,123.925,197.446,123.913,197.426,123.904C197.406,123.896,197.384,123.892,197.363,123.892C197.341,123.892,197.319,123.896,197.299,123.904C197.279,123.913,197.261,123.925,197.246,123.94C197.215,123.972,197.198,124.014,197.198,124.057C197.198,124.101,197.215,124.143,197.246,124.174L198.942,125.866L197.032,125.866C196.988,125.867,196.947,125.884,196.916,125.915C196.886,125.946,196.868,125.987,196.867,126.03C196.867,126.074,196.885,126.116,196.915,126.147C196.946,126.178,196.988,126.195,197.032,126.195L198.942,126.195L197.246,127.89C197.215,127.922,197.198,127.963,197.198,128.007C197.198,128.051,197.215,128.093,197.246,128.124C197.278,128.153,197.319,128.17,197.363,128.17C197.406,128.17,197.448,128.153,197.48,128.124L199.172,126.429L199.172,128.335C199.172,128.378,199.19,128.42,199.22,128.451C199.251,128.482,199.293,128.499,199.337,128.499C199.38,128.499,199.422,128.482,199.453,128.451C199.484,128.42,199.501,128.378,199.501,128.335L199.501,126.429L201.197,128.124C201.229,128.153,201.271,128.17,201.314,128.17C201.358,128.17,201.399,128.153,201.431,128.124C201.461,128.093,201.478,128.051,201.478,128.007C201.478,127.963,201.461,127.922,201.431,127.89L199.735,126.195L201.642,126.195C201.685,126.195,201.727,126.178,201.758,126.147C201.789,126.116,201.806,126.074,201.806,126.03C201.804,125.989,201.785,125.949,201.755,125.92C201.724,125.892,201.684,125.876,201.642,125.876Z" fill="rgb(63,147,205)" stroke="none" stroke-width="1"/><path id="ewqsnHcAx2164" d="M194.728,125.876L192.821,125.876L194.517,124.184C194.547,124.153,194.564,124.111,194.564,124.067C194.564,124.023,194.547,123.982,194.517,123.95C194.502,123.935,194.483,123.923,194.463,123.914C194.443,123.906,194.422,123.902,194.4,123.902C194.378,123.902,194.357,123.906,194.337,123.914C194.317,123.923,194.298,123.935,194.283,123.95L192.587,125.645L192.587,123.736C192.587,123.693,192.57,123.651,192.539,123.62C192.508,123.589,192.466,123.572,192.423,123.572C192.379,123.572,192.338,123.59,192.307,123.621C192.277,123.651,192.259,123.693,192.258,123.736L192.258,125.645L190.566,123.94C190.55,123.925,190.532,123.913,190.512,123.904C190.492,123.896,190.47,123.892,190.449,123.892C190.427,123.892,190.405,123.896,190.385,123.904C190.365,123.913,190.347,123.925,190.332,123.94C190.301,123.972,190.284,124.014,190.284,124.057C190.284,124.101,190.301,124.143,190.332,124.174L192.028,125.866L190.118,125.866C190.074,125.867,190.033,125.884,190.002,125.915C189.972,125.946,189.954,125.987,189.953,126.03C189.953,126.074,189.97,126.116,190.001,126.147C190.032,126.178,190.074,126.195,190.118,126.195L192.028,126.195L190.332,127.89C190.301,127.922,190.284,127.963,190.284,128.007C190.284,128.051,190.301,128.093,190.332,128.124C190.364,128.153,190.405,128.17,190.449,128.17C190.492,128.17,190.534,128.153,190.566,128.124L192.258,126.429L192.258,128.335C192.258,128.378,192.275,128.42,192.306,128.451C192.337,128.482,192.379,128.499,192.423,128.499C192.466,128.499,192.508,128.482,192.539,128.451C192.57,128.42,192.587,128.378,192.587,128.335L192.587,126.429L194.283,128.124C194.315,128.153,194.357,128.17,194.4,128.17C194.443,128.17,194.485,128.153,194.517,128.124C194.547,128.093,194.564,128.051,194.564,128.007C194.564,127.963,194.547,127.922,194.517,127.89L192.821,126.195L194.728,126.195C194.771,126.195,194.813,126.178,194.844,126.147C194.875,126.116,194.892,126.074,194.892,126.03C194.89,125.989,194.871,125.949,194.841,125.92C194.81,125.892,194.77,125.876,194.728,125.876Z" fill="rgb(63,147,205)" stroke="none" stroke-width="1"/><path id="ewqsnHcAx2165" d="M187.812,125.876L185.905,125.876L187.601,124.184C187.631,124.153,187.648,124.111,187.648,124.067C187.648,124.023,187.631,123.982,187.601,123.95C187.586,123.935,187.567,123.923,187.547,123.914C187.527,123.906,187.506,123.902,187.484,123.902C187.462,123.902,187.441,123.906,187.421,123.914C187.401,123.923,187.382,123.935,187.367,123.95L185.671,125.645L185.671,123.736C185.671,123.693,185.654,123.651,185.623,123.62C185.592,123.589,185.55,123.572,185.507,123.572C185.463,123.572,185.422,123.59,185.391,123.621C185.361,123.651,185.343,123.693,185.342,123.736L185.342,125.645L183.65,123.94C183.634,123.925,183.616,123.913,183.596,123.904C183.576,123.896,183.554,123.892,183.533,123.892C183.511,123.892,183.489,123.896,183.469,123.904C183.449,123.913,183.431,123.925,183.416,123.94C183.385,123.972,183.368,124.014,183.368,124.057C183.368,124.101,183.385,124.143,183.416,124.174L185.112,125.866L183.202,125.866C183.158,125.867,183.117,125.884,183.086,125.915C183.056,125.946,183.038,125.987,183.037,126.03C183.037,126.074,183.054,126.116,183.085,126.147C183.116,126.178,183.158,126.195,183.202,126.195L185.112,126.195L183.416,127.89C183.385,127.922,183.368,127.963,183.368,128.007C183.368,128.051,183.385,128.093,183.416,128.124C183.447,128.153,183.489,128.17,183.533,128.17C183.576,128.17,183.618,128.153,183.65,128.124L185.342,126.429L185.342,128.335C185.342,128.378,185.359,128.42,185.39,128.451C185.421,128.482,185.463,128.499,185.507,128.499C185.55,128.499,185.592,128.482,185.623,128.451C185.654,128.42,185.671,128.378,185.671,128.335L185.671,126.429L187.367,128.124C187.399,128.153,187.441,128.17,187.484,128.17C187.527,128.17,187.569,128.153,187.601,128.124C187.631,128.093,187.648,128.051,187.648,128.007C187.648,127.963,187.631,127.922,187.601,127.89L185.905,126.195L187.812,126.195C187.855,126.195,187.897,126.178,187.928,126.147C187.959,126.116,187.976,126.074,187.976,126.03C187.974,125.989,187.955,125.949,187.925,125.92C187.894,125.892,187.854,125.876,187.812,125.876Z" fill="rgb(63,147,205)" stroke="none" stroke-width="1"/></g><g id="ewqsnHcAx2166" opacity="0.1"><path id="ewqsnHcAx2167" d="M282.16,161.016C281.411,164.59,280.376,168.099,279.064,171.507C279.292,171.056,279.483,170.582,279.664,170.111C280.984,166.69,282.025,163.167,282.776,159.578C283.714,155.102,284.073,150.033,281.34,146.362C280.681,145.487,279.835,144.539,279.865,143.512C279.621,143.823,279.432,144.172,279.305,144.546C278.976,145.734,279.983,146.817,280.721,147.804C283.454,151.468,283.095,156.543,282.16,161.016Z" opacity="0.1" fill="rgb(0,0,0)" stroke="none" stroke-width="1"/><path id="ewqsnHcAx2168" d="M280.45,142.113C280.714,141.785,280.911,141.408,281.029,141.004C281.08,140.515,281.067,140.021,280.99,139.536C280.736,139.727,280.546,139.989,280.443,140.29C280.249,140.872,280.473,141.504,280.45,142.113Z" opacity="0.1" fill="rgb(0,0,0)" stroke="none" stroke-width="1"/></g></g></svg>