<svg width="550" height="350" viewBox="0 0 550 350" fill="none" xmlns="http://www.w3.org/2000/svg">
<path opacity="0.1" d="M469.082 119.937C467.308 53.4311 404.598 0 327.479 0C289.759 0 255.515 12.7885 230.109 33.6538C177.298 37.9167 132.899 67.3077 112.996 107.939C52.5381 121.911 8 169.733 8 226.603C8 294.471 71.4088 349.439 149.632 349.439C172.609 349.416 195.159 344.646 214.938 335.624C233.484 343.675 254.341 348.027 275.618 348.285C296.896 348.542 317.919 344.698 336.784 337.099C356.039 345.524 377.788 349.968 399.923 350C478.147 350 541.556 295.032 541.556 227.163C541.556 181.091 512.326 140.965 469.082 119.937Z" fill="#36ABC5"/>
<path d="M319.9 309.292C316.946 305.074 312.948 301.988 307.921 300.833C303.538 299.826 299.031 299.998 294.575 300.033L238.235 300.476C233.41 300.514 228.784 304.776 229.008 309.885C229.23 314.95 233.063 319.335 238.235 319.294C254.739 319.164 271.242 319.034 287.746 318.905C291.637 318.874 295.53 318.803 299.421 318.816C300.295 318.819 301.165 318.865 302.038 318.876C302.249 318.878 302.402 318.876 302.51 318.871C302.537 318.88 302.559 318.888 302.595 318.897C303.05 319.025 303.517 319.113 303.975 319.234C303.815 319.239 304.272 319.53 304.502 319.628C304.534 319.692 304.601 319.804 304.713 319.978C304.87 320.278 305.335 321.189 305.354 321.16C306.051 322.959 306.627 324.805 307.076 326.684C308.149 330.828 308.384 331.694 308.539 335.583C308.734 340.494 312.643 345.226 317.766 344.992C322.598 344.771 327.202 340.85 326.993 335.583C326.641 326.706 325.113 316.735 319.9 309.292Z" fill="#E6E6E6"/>
<path d="M240.809 330.671C239.745 324.18 238.701 317.686 237.616 311.199C236.515 304.618 234.266 298.592 229.177 294.273C227.817 293.119 226.407 292.042 224.992 290.968C224.494 290.59 223.997 290.212 223.505 289.826C223.475 289.803 223.456 289.789 223.431 289.769C223.377 289.722 223.312 289.666 223.225 289.592C221.104 287.786 219.054 285.899 217.102 283.893C215.368 282.112 213.71 280.255 212.128 278.322C211.732 277.839 211.342 277.352 210.957 276.861C210.891 276.776 210.534 276.312 210.299 276.009C210.08 275.706 209.68 275.159 209.613 275.063C209.163 274.423 208.721 273.776 208.287 273.124C205.331 268.668 202.771 263.957 200.638 259.048C200.426 258.561 200.22 258.071 200.018 257.579C199.964 257.429 199.894 257.235 199.801 256.978C199.371 255.789 198.942 254.6 198.549 253.396C197.714 250.839 196.996 248.245 196.395 245.612C196.098 244.312 195.83 243.006 195.592 241.693C195.47 241.017 195.355 240.341 195.248 239.663C195.231 239.55 195.126 238.819 195.065 238.405C195.02 237.99 194.935 237.254 194.924 237.141C194.856 236.457 194.796 235.773 194.743 235.088C194.624 233.547 194.544 232.004 194.502 230.458C194.431 227.71 194.48 224.962 194.649 222.215C194.745 220.671 194.882 219.132 195.051 217.595C195.061 217.5 195.069 217.425 195.077 217.358C195.087 217.289 195.099 217.211 195.113 217.114C195.238 216.265 195.369 215.417 195.516 214.571C196.073 211.361 196.797 208.183 197.685 205.049C198.106 203.567 198.563 202.097 199.056 200.639C199.276 199.992 199.502 199.347 199.736 198.705C199.721 198.746 200.422 196.944 200.431 196.884C203.213 190.271 207.762 184.243 207.768 176.731C207.772 171.645 203.496 166.773 198.487 167.008C195.989 167.103 193.626 168.169 191.895 169.983C190.163 171.797 189.199 174.216 189.206 176.731C189.206 176.845 189.205 176.943 189.205 177.037C189.158 177.196 189.119 177.328 189.084 177.445C188.542 178.631 187.877 179.758 187.282 180.914C185.652 184.08 184.26 187.349 182.938 190.667C180.774 196.069 179.118 201.664 177.991 207.377C175.541 219.895 175.351 232.755 177.429 245.341C181.028 267.412 192.895 288.539 209.393 302.741C210.824 303.973 212.291 305.164 213.772 306.331C214.384 306.814 215.002 307.288 215.623 307.759C215.916 307.981 217.132 308.946 216.597 308.479C217.747 309.466 218.231 309.963 218.526 310.69C218.569 310.858 218.628 311.086 218.707 311.397C218.915 312.218 219.112 313.036 219.277 313.868C220.713 321.136 221.711 328.525 222.91 335.84C223.735 340.866 229.884 344.137 234.327 342.631C239.499 340.878 241.693 336.056 240.809 330.671Z" fill="#E6E6E6"/>
<path d="M321.93 350C318.007 350.01 314.239 348.455 311.455 345.675C308.67 342.895 307.095 339.118 307.076 335.172V324.453C295.918 325.71 257.71 325.419 246.758 323.649V334.743C246.729 338.686 245.151 342.457 242.368 345.235C239.585 348.013 235.824 349.571 231.903 349.571C227.983 349.571 224.221 348.013 221.438 345.235C218.656 342.457 217.078 338.686 217.048 334.743V312.96C202.215 304.673 189.849 292.554 181.226 277.854C172.604 263.155 168.038 246.408 168 229.342C168 200.079 181.186 172.78 204.178 154.446C219.127 142.486 237.29 135.292 256.335 133.791C258.92 133.587 261.52 133.483 264.065 133.483C273.029 133.483 313.475 134.876 323.622 137.812L346.762 114.72C347.102 114.376 347.536 114.142 348.009 114.047C348.482 113.952 348.973 114.001 349.418 114.188C349.867 114.368 350.251 114.679 350.521 115.082C350.79 115.486 350.932 115.961 350.927 116.447V120.118L355.433 115.631C355.773 115.286 356.207 115.051 356.68 114.956C357.152 114.861 357.643 114.91 358.088 115.097C358.537 115.277 358.922 115.589 359.191 115.992C359.461 116.395 359.603 116.871 359.599 117.357V158.386C371.209 168.913 380.059 182.159 385.363 196.948C390.667 211.738 392.261 227.615 390.005 243.173C387.749 258.731 381.711 273.488 372.428 286.138C363.145 298.788 350.902 308.939 336.785 315.693V335.172C336.766 339.118 335.191 342.895 332.406 345.675C329.622 348.455 325.854 350.01 321.93 350ZM308.244 323.121V335.172C308.273 338.803 309.728 342.276 312.292 344.833C314.855 347.39 318.32 348.825 321.93 348.825C325.541 348.825 329.006 347.39 331.569 344.833C334.133 342.276 335.588 338.803 335.617 335.172V314.951L335.951 314.792C351.791 307.232 365.238 295.405 374.799 280.624C386.982 261.762 392.049 239.137 389.082 216.843C386.115 194.55 375.311 174.061 358.625 159.085L358.431 158.91V117.357C358.435 117.105 358.362 116.857 358.222 116.647C358.082 116.438 357.881 116.277 357.647 116.185C357.415 116.085 357.157 116.058 356.909 116.108C356.661 116.157 356.434 116.281 356.257 116.463L349.76 122.935V116.447C349.764 116.194 349.691 115.947 349.551 115.737C349.411 115.528 349.21 115.366 348.976 115.275C348.743 115.175 348.485 115.148 348.237 115.198C347.988 115.248 347.76 115.373 347.583 115.555L323.949 139.141L323.613 139.035C314.179 136.066 273.097 134.658 264.065 134.658C261.551 134.658 258.981 134.76 256.426 134.962C237.614 136.445 219.671 143.551 204.904 155.367C182.193 173.476 169.168 200.439 169.168 229.342C169.207 246.257 173.748 262.854 182.32 277.407C190.893 291.96 203.183 303.94 217.915 312.101L218.216 312.269V334.743C218.246 338.374 219.702 341.846 222.265 344.403C224.829 346.96 228.293 348.394 231.903 348.394C235.514 348.394 238.978 346.96 241.541 344.403C244.105 341.846 245.56 338.374 245.59 334.743V322.243L246.282 322.374C256.124 324.236 297.568 324.53 307.584 323.208L308.244 323.121Z" fill="#3F3D56"/>
<path d="M242.386 69.1658L177.761 88.893C175.706 89.5229 173.98 90.9559 172.964 92.8771C171.948 94.7984 171.725 97.0506 172.343 99.1392C172.961 101.228 174.369 102.982 176.26 104.016C178.15 105.05 180.367 105.28 182.424 104.655L238.977 87.3873L240.162 87.0257C240.402 80.8245 242.058 74.765 245 69.3258C244.631 69.1571 244.236 69.0529 243.833 69.0176C243.346 68.9696 242.854 69.02 242.386 69.1658Z" fill="#36ABC5"/>
<path d="M181.146 109C180.285 108.998 179.447 108.725 178.75 108.219C178.053 107.714 177.532 107.002 177.261 106.183L173.208 93.9235C173.039 93.4116 172.972 92.8712 173.011 92.3333C173.05 91.7953 173.194 91.2704 173.436 90.7884C173.677 90.3064 174.011 89.8769 174.418 89.5242C174.825 89.1716 175.298 88.9028 175.808 88.7332L228.558 71.2086C229.069 71.0389 229.608 70.9717 230.144 71.0108C230.681 71.05 231.204 71.1946 231.685 71.4366C232.166 71.6786 232.594 72.0132 232.946 72.4212C233.298 72.8292 233.566 73.3027 233.736 73.8146L237.788 86.0742C238.125 87.0825 238.058 88.1828 237.6 89.1421C237.142 90.1013 236.329 90.8442 235.334 91.2132C235.286 91.2316 235.236 91.2488 235.187 91.2651L182.438 108.789C182.021 108.928 181.585 109 181.146 109Z" fill="#2F2E41"/>
<path d="M280 48C269.345 48.0041 259.11 52.154 251.461 59.5713C243.812 66.9885 239.349 77.0911 239.017 87.7407C239.006 88.1566 239 88.5783 239 89C239 97.109 241.405 105.036 245.91 111.778C250.415 118.521 256.818 123.776 264.31 126.879C271.802 129.982 280.045 130.794 287.999 129.212C295.952 127.63 303.257 123.725 308.991 117.991C314.725 112.257 318.63 104.952 320.212 96.9987C321.794 89.0455 320.982 80.8017 317.879 73.31C314.776 65.8182 309.521 59.4149 302.778 54.9097C296.036 50.4046 288.109 48 280 48ZM280 128.829C269.44 128.818 259.316 124.618 251.849 117.151C244.382 109.684 240.182 99.5598 240.171 89C240.171 88.4553 240.183 87.9164 240.207 87.3834C240.524 79.5816 243.127 72.0451 247.693 65.7111C252.259 59.377 258.587 54.5249 265.888 51.7581C273.19 48.9912 281.144 48.4317 288.761 50.149C296.378 51.8664 303.322 55.7849 308.73 61.4172C314.138 67.0496 317.771 74.1474 319.177 81.828C320.584 89.5085 319.701 97.4331 316.64 104.616C313.578 111.799 308.473 117.924 301.959 122.229C295.444 126.534 287.808 128.829 280 128.829Z" fill="#3F3D56"/>
<path d="M314 88.4999C314 97.6499 310.365 106.425 303.895 112.895C297.425 119.365 288.65 123 279.5 123C270.35 123 261.575 119.365 255.105 112.895C248.635 106.425 245 97.6499 245 88.4999C245 87.4065 245.053 86.3305 245.152 85.2663C245.983 76.4356 250.184 68.2644 256.881 62.4492C263.579 56.6341 272.259 53.6219 281.119 54.038C289.979 54.4542 298.338 58.2667 304.461 64.684C310.584 71.1012 314 79.6302 314 88.4999Z" fill="#E6E6E6"/>
<path d="M289.703 91.8006C288.872 90.6971 287.78 89.8231 286.526 89.2594C284.98 88.6009 283.384 88.071 281.752 87.6748V78.2494C284.26 78.6314 286.612 79.715 288.541 81.3775L290.435 77.2986C289.346 76.3183 288.096 75.5377 286.741 74.9921C285.239 74.3777 283.663 73.9691 282.054 73.7773V69H277.67V73.8242C275.977 74.0164 274.343 74.5706 272.878 75.4499C271.555 76.2414 270.441 77.3449 269.632 78.666C268.859 79.9554 268.459 81.4373 268.476 82.9445C268.401 84.5777 268.869 86.1894 269.806 87.5222C270.669 88.6761 271.808 89.5891 273.116 90.1749C274.687 90.8528 276.311 91.3966 277.972 91.8006V100.833C275.013 100.607 272.193 99.4704 269.893 97.5756L268 101.66C269.286 102.735 270.748 103.573 272.321 104.137C274.044 104.76 275.844 105.139 277.67 105.264V110H282.054V105.176C284.49 104.907 286.774 103.849 288.565 102.159C289.353 101.395 289.976 100.473 290.394 99.4529C290.812 98.4326 291.016 97.3357 290.992 96.2316C291.065 94.6504 290.611 93.0902 289.703 91.8006ZM277.972 86.6771C276.904 86.3497 275.911 85.8111 275.05 85.0925C274.709 84.786 274.44 84.4071 274.261 83.983C274.083 83.5588 273.999 83.0999 274.017 82.6393C273.985 81.594 274.365 80.5787 275.074 79.8164C275.859 79.0166 276.872 78.485 277.972 78.2963V86.6771ZM284.505 99.1661C283.764 99.9339 282.8 100.442 281.752 100.616V92.8453C282.753 93.1167 283.69 93.5898 284.505 94.2362C284.814 94.503 285.06 94.8368 285.224 95.2127C285.388 95.5887 285.466 95.9971 285.452 96.4077C285.492 97.4149 285.154 98.4003 284.505 99.1661Z" fill="#36ABC5"/>
<path d="M183.264 159C182.366 158.998 181.493 158.689 180.781 158.121C180.068 157.552 179.557 156.755 179.326 155.854L177.134 147.249C176.86 146.167 177.01 145.016 177.552 144.05C178.095 143.083 178.984 142.379 180.026 142.092L249.172 123.137C250.216 122.855 251.324 123.012 252.256 123.576C253.188 124.139 253.866 125.063 254.143 126.144L256 133.435L255.652 133.463C237.918 134.893 220.951 141.563 206.756 152.683L206.656 152.734L184.297 158.861C183.96 158.953 183.613 159 183.264 159Z" fill="#2F2E41"/>
<path d="M170.995 200.293C162.834 199.077 155.028 196.1 148.11 191.566C144.683 189.322 141.511 186.705 138.649 183.762C135.825 180.857 133.124 177.555 131.725 173.686C130.379 170.107 130.448 166.143 131.919 162.613C133.369 159.106 136.139 156.321 139.622 154.87C143.125 153.461 147.358 153.31 150.768 154.853C152.393 155.572 153.799 156.713 154.842 158.16C155.327 158.828 155.686 159.579 155.901 160.378C156.101 161.101 156.119 161.863 155.954 162.595C155.754 163.326 155.401 164.006 154.92 164.588C154.438 165.17 153.839 165.642 153.161 165.972C151.671 166.743 150.056 167.239 148.393 167.438C146.72 167.668 144.316 167.878 142.971 166.523C142.695 166.255 142.477 165.932 142.332 165.573C142.231 165.298 142.197 165.004 142.231 164.713C142.212 164.841 142.313 164.434 142.307 164.45C142.286 164.51 142.194 164.657 142.324 164.432C142.365 164.358 142.411 164.286 142.461 164.218C142.416 164.276 142.319 164.372 142.493 164.206C142.637 164.047 142.822 163.932 143.028 163.873C143.109 163.85 143.191 163.831 143.272 163.808C143.479 163.752 143.066 163.811 143.278 163.805C143.359 163.802 143.442 163.804 143.523 163.8C143.73 163.791 143.318 163.743 143.517 163.794C143.594 163.813 143.67 163.832 143.746 163.856C143.911 163.909 143.629 163.734 143.741 163.865C143.872 164.018 143.604 163.716 143.752 163.864C143.827 163.938 143.896 164.015 143.962 164.097C144.22 164.354 144.568 164.498 144.931 164.498C145.294 164.498 145.643 164.354 145.901 164.097C146.15 163.834 146.29 163.483 146.29 163.119C146.29 162.755 146.15 162.405 145.901 162.141C144.549 160.451 141.878 160.868 140.51 162.297C138.766 164.119 139.457 167.007 141.153 168.597C143.074 170.396 145.795 170.522 148.266 170.22C150.354 170.018 152.389 169.438 154.273 168.508C156.145 167.58 157.609 165.985 158.381 164.031C158.73 162.988 158.855 161.883 158.749 160.788C158.642 159.692 158.306 158.632 157.763 157.678C155.582 153.542 151.065 151.421 146.6 151.054C144.301 150.872 141.989 151.152 139.799 151.877C137.608 152.603 135.582 153.759 133.837 155.279C130.474 158.333 128.403 162.573 128.053 167.123C127.663 171.84 129.478 176.421 132.124 180.228C134.893 184.096 138.199 187.544 141.939 190.466C149.25 196.353 157.827 200.432 166.982 202.377C168.071 202.604 169.166 202.798 170.266 202.96C170.616 203.045 170.986 202.993 171.299 202.814C171.613 202.634 171.846 202.341 171.953 201.994C172.047 201.64 171.999 201.264 171.82 200.945C171.641 200.627 171.344 200.393 170.995 200.293L170.995 200.293Z" fill="#3F3D56"/>
<path d="M301.636 140.049C289.596 139.866 277.593 140.196 265.628 141.038C261.538 141.327 258 142.886 258 145.508C258 147.7 261.51 150.268 265.628 149.977C277.587 149.135 289.59 148.805 301.636 148.988C311.457 149.138 311.452 140.199 301.636 140.049Z" fill="#CCCCCC"/>
<path d="M284.5 148C283.214 148 253 147.949 253 143.5C253 139.051 283.214 139 284.5 139C285.786 139 316 139.051 316 143.5C316 147.949 285.786 148 284.5 148ZM254.181 143.5C255.008 144.849 266.114 146.759 284.5 146.759C302.886 146.759 313.992 144.849 314.819 143.5C313.992 142.151 302.886 140.241 284.5 140.241C266.114 140.241 255.008 142.151 254.181 143.5V143.5Z" fill="#3F3D56"/>
<path d="M381.109 258C387.553 257.814 395.574 257.581 401.753 252.889C403.593 251.434 405.105 249.579 406.183 247.453C407.26 245.327 407.878 242.982 407.992 240.582C408.118 236.876 406.83 233.641 404.365 231.475C401.138 228.64 396.425 227.975 391.346 229.527L396.608 189.55L392.745 189L386.559 235.998L389.785 234.459C393.525 232.676 398.658 231.768 401.848 234.571C402.631 235.304 403.242 236.214 403.631 237.232C404.021 238.25 404.18 239.347 404.095 240.439C404.001 242.225 403.537 243.97 402.736 245.553C401.935 247.137 400.815 248.522 399.453 249.615C394.645 253.267 388.251 253.738 381 253.949L381.109 258Z" fill="#3F3D56"/>
<path d="M369 194H348V197H369V194Z" fill="#3F3D56"/>
<path d="M192.382 178C191.415 177.997 190.481 177.645 189.746 177.008C189.012 176.37 188.526 175.489 188.375 174.521L187.048 165.948C186.883 164.87 187.146 163.769 187.781 162.887C188.416 162.005 189.37 161.415 190.434 161.245L260.982 150.049C262.047 149.881 263.133 150.148 264.004 150.791C264.874 151.434 265.457 152.4 265.625 153.478L266.952 162.051C267.117 163.129 266.854 164.23 266.219 165.112C265.585 165.994 264.63 166.584 263.566 166.754L193.018 177.95C192.808 177.983 192.595 178 192.382 178Z" fill="#2F2E41"/>
<path d="M164 77C180.569 77 194 63.5685 194 47C194 30.4315 180.569 17 164 17C147.431 17 134 30.4315 134 47C134 63.5685 147.431 77 164 77Z" fill="#36ABC5"/>
<path d="M180.817 55.1482C181.841 54.802 182.775 54.2479 183.559 53.5232C184.077 53.0065 184.472 52.3864 184.717 51.7064C184.961 51.0265 185.049 50.303 184.974 49.5867C184.93 49.0762 184.766 48.5823 184.492 48.1437C184.218 47.7051 183.844 47.3336 183.397 47.0582C182.238 46.369 180.707 46.395 179.162 47.0882L178.983 35L177.728 35.0173L177.938 49.2282L178.893 48.6219C180.001 47.9201 181.594 47.4111 182.739 48.0927C183.023 48.2731 183.259 48.5144 183.43 48.7976C183.602 49.0808 183.703 49.3985 183.727 49.7258C183.779 50.2594 183.713 50.7978 183.531 51.3043C183.35 51.8107 183.057 52.2734 182.674 52.6608C181.313 53.967 179.299 54.4046 177 54.8049L177.222 56C178.445 55.8205 179.648 55.5354 180.817 55.1482Z" fill="#2F2E41"/>
<path d="M190.613 34.8555L184.396 35.8008L184.571 36.9596L190.788 36.0143L190.613 34.8555Z" fill="#2F2E41"/>
<path d="M170.99 37.8379L164.773 38.7832L164.948 39.942L171.165 38.9967L170.99 37.8379Z" fill="#2F2E41"/>
<path d="M183.349 177C182.27 176.998 181.218 176.669 180.332 176.058C179.447 175.446 178.769 174.581 178.39 173.578L157.718 118.532C155.191 111.781 155.461 104.309 158.468 97.756C161.475 91.2026 166.974 86.1028 173.758 83.5756L190.567 77.3349C191.217 77.092 191.909 76.9792 192.603 77.0032C193.297 77.0271 193.979 77.1873 194.61 77.4745C195.24 77.7543 195.808 78.1562 196.28 78.6566C196.752 79.157 197.119 79.7459 197.359 80.3889L235.653 152.278C235.901 152.926 236.019 153.617 235.998 154.31C235.977 155.004 235.818 155.686 235.531 156.318C235.244 156.951 234.834 157.52 234.324 157.994C233.815 158.468 233.216 158.837 232.562 159.081L185.198 176.666C184.606 176.886 183.98 176.999 183.349 177Z" fill="#2F2E41"/>
<path d="M185 78.5799L223 129L197.287 79.1091C197.075 78.527 196.749 77.992 196.328 77.5349C195.907 77.0777 195.4 76.7073 194.835 76.4448C194.27 76.1823 193.658 76.0327 193.035 76.0048C192.412 75.9769 191.789 76.071 191.202 76.282L185 78.5799Z" fill="#E6E6E6"/>
<path d="M244.439 117.992L177.53 113.343C176.476 113.27 175.445 112.973 174.496 112.47C173.548 111.967 172.701 111.267 172.003 110.411C171.305 109.555 170.771 108.559 170.43 107.48C170.089 106.401 169.949 105.26 170.017 104.122C170.085 102.985 170.36 101.873 170.826 100.85C171.292 99.827 171.941 98.9132 172.735 98.1606C173.528 97.408 174.452 96.8315 175.452 96.4638C176.453 96.0962 177.51 95.9447 178.565 96.018L245.473 100.666C245.967 100.701 246.45 100.84 246.894 101.075C247.338 101.311 247.735 101.638 248.062 102.039C248.389 102.44 248.639 102.907 248.799 103.412C248.958 103.917 249.024 104.452 248.992 104.984L248.442 114.196C248.378 115.272 247.92 116.276 247.169 116.988C246.418 117.7 245.436 118.061 244.439 117.992Z" fill="#36ABC5"/>
<path d="M227.007 120C226.918 120 226.83 119.997 226.741 119.992H226.741L171.798 116.485C171.266 116.452 170.746 116.314 170.268 116.081C169.789 115.848 169.362 115.524 169.01 115.128C168.658 114.731 168.389 114.27 168.217 113.77C168.045 113.27 167.974 112.741 168.008 112.214L168.948 97.7624C168.982 97.2355 169.121 96.7203 169.356 96.2464C169.591 95.7726 169.919 95.3493 170.319 95.0007C170.719 94.6521 171.185 94.385 171.69 94.2147C172.194 94.0445 172.728 93.9743 173.26 94.0083L228.202 97.5142C229.276 97.5839 230.278 98.0727 230.989 98.8734C231.699 99.6741 232.06 100.721 231.992 101.785L231.052 116.237C231.001 117.012 230.724 117.755 230.257 118.378C229.789 119 229.15 119.476 228.416 119.748C227.966 119.915 227.488 120 227.007 120Z" fill="#2F2E41"/>
<path d="M162.651 27.6967C166.572 24.292 171.958 27.3377 176.455 26.8046C180.758 26.2944 184.155 22.3984 185.023 18.2594C186.036 13.4305 183.553 8.59268 179.893 5.58196C175.885 2.28449 170.569 1.33786 165.531 1.94792C159.757 2.64711 154.477 5.36386 149.739 8.64989C145.166 11.7235 140.96 15.3209 137.206 19.3704C133.845 23.1181 130.997 27.5853 130.087 32.6284C129.261 37.2116 129.892 42.2903 132.576 46.1728C133.999 48.1628 135.906 49.749 138.113 50.7783C140.415 51.9191 142.87 52.7346 145.1 54.0245C148.471 55.9747 151.748 60.0186 150.692 64.2268C150.465 65.1461 150.018 65.9951 149.39 66.6991C148.636 67.5444 147.275 66.4273 148.032 65.5797C149.36 64.091 149.308 62.1056 148.6 60.3282C147.758 58.3254 146.267 56.6706 144.372 55.6349C142.038 54.2879 139.461 53.4564 137.069 52.2295C134.779 51.1086 132.792 49.446 131.275 47.383C128.412 43.3666 127.556 38.1395 128.205 33.3041C128.908 28.0714 131.571 23.3164 134.91 19.3317C138.543 14.9952 143.007 11.3245 147.566 8.02692C152.459 4.48855 157.864 1.4971 163.845 0.415139C169.03 -0.522751 174.65 0.0546735 179.184 2.90683C183.416 5.56914 186.661 10.1488 186.984 15.2662C187.1 17.5946 186.599 19.9121 185.533 21.9802C184.467 24.0483 182.874 25.7923 180.919 27.0328C178.912 28.2448 176.579 28.7904 174.249 28.5924C171.758 28.4315 169.265 27.6615 166.758 27.8753C165.624 27.9448 164.543 28.3857 163.679 29.1312C162.822 29.875 161.801 28.4345 162.651 27.6967V27.6967Z" fill="#2F2E41"/>
<path d="M505.305 350H74.6925C74.5086 350 74.3325 349.947 74.2027 349.853C74.0729 349.759 74 349.632 74 349.5C74 349.368 74.0729 349.241 74.2027 349.147C74.3325 349.053 74.5086 349 74.6925 349H505.305C505.49 349 505.666 349.053 505.797 349.146C505.927 349.24 506 349.367 506 349.5C506 349.633 505.927 349.76 505.797 349.854C505.666 349.947 505.49 350 505.305 350Z" fill="#3F3D56"/>
</svg>
