<svg width="550" height="350" viewBox="0 0 550 350" fill="none" xmlns="http://www.w3.org/2000/svg">
<path opacity="0.1" d="M473.984 199.662C458.093 221.193 463.337 251.928 472.523 276.413C475.6 284.61 479.095 293.279 477.499 302.197C475.551 313.099 466.394 321.268 456.875 325.717C439.523 333.825 419.025 332.531 403.503 322.314C390.108 313.496 380.679 298.842 367.024 290.445C344.171 276.397 314.504 282.674 289.069 293.399C271.076 300.987 251.365 310.759 233.83 303.752C221.49 298.822 213.181 286.273 208.81 272.858C206.699 266.381 205.221 259.351 201.016 254.28C198.516 251.266 195.212 249.166 191.814 247.41C160.807 231.378 120.923 241.398 90.8612 223.51C70.5658 211.43 57.934 187.986 52.6856 163.34C47.4372 138.694 48.7362 112.678 50.8266 87.1062C52.3122 68.9334 54.6624 49.5141 65.7274 35.2332C77.4297 20.1347 97.0431 14.1346 114.582 16.4993C132.122 18.8641 147.846 28.4836 161.603 39.9668C178.809 54.2918 194.639 72.2762 216.039 77.7152C230.615 81.4187 246.1 78.7973 261.253 77.639C286.581 75.7071 311.821 77.9316 336.906 80.4447C360.919 82.8495 385.099 85.535 407.842 93.4189C423.936 98.9982 436.694 109.544 451.846 116.75C461.722 121.448 472.588 122.538 481.883 128.606C493.354 136.081 503.721 149.324 500.356 165.216C497.178 180.323 482.427 188.235 473.984 199.662Z" fill="#36ABC5"/>
<g opacity="0.5">
<path opacity="0.5" d="M396.037 297.44C396.037 297.44 397.377 258.316 418.846 236.209C427.857 226.932 433.776 215.15 435.343 202.399C436.075 196.348 436.244 190.244 435.846 184.162" stroke="#535461" stroke-width="2" stroke-miterlimit="10"/>
<path opacity="0.5" d="M449.295 170.158C447.825 174.529 435.542 184.566 435.542 184.566C435.542 184.566 431.779 169.274 433.249 164.908C433.598 163.869 434.152 162.908 434.878 162.08C435.604 161.252 436.488 160.574 437.48 160.083C438.472 159.592 439.553 159.298 440.66 159.219C441.767 159.14 442.879 159.276 443.933 159.621C444.986 159.965 445.961 160.511 446.8 161.227C447.64 161.943 448.328 162.815 448.826 163.793C449.324 164.771 449.622 165.836 449.702 166.928C449.783 168.019 449.644 169.116 449.295 170.154V170.158Z" fill="#36ABC5"/>
<path opacity="0.5" d="M454.412 198.692C450.759 201.574 434.928 203.423 434.928 203.423C434.928 203.423 440.205 188.571 443.858 185.694C444.717 184.956 445.719 184.398 446.803 184.052C447.886 183.706 449.03 183.579 450.164 183.68C451.299 183.781 452.401 184.106 453.405 184.638C454.408 185.169 455.293 185.895 456.004 186.772C456.716 187.648 457.241 188.658 457.547 189.74C457.853 190.822 457.934 191.953 457.786 193.067C457.637 194.18 457.261 195.253 456.682 196.219C456.102 197.186 455.33 198.027 454.412 198.692V198.692Z" fill="#36ABC5"/>
<path opacity="0.5" d="M439.93 239.851C435.311 240.523 420.686 234.248 420.686 234.248C420.686 234.248 432.839 224.051 437.458 223.379C438.556 223.219 439.676 223.273 440.752 223.54C441.829 223.806 442.842 224.279 443.733 224.932C444.624 225.584 445.377 226.403 445.947 227.342C446.517 228.281 446.894 229.322 447.056 230.404C447.219 231.487 447.163 232.59 446.893 233.652C446.623 234.713 446.143 235.712 445.481 236.591C444.819 237.469 443.989 238.211 443.036 238.773C442.084 239.335 441.028 239.707 439.93 239.867V239.851Z" fill="#36ABC5"/>
<path opacity="0.5" d="M421.853 268.561C417.416 269.994 401.922 266.232 401.922 266.232C401.922 266.232 412.155 254.158 416.592 252.725C418.722 252.035 421.043 252.208 423.044 253.205C425.045 254.202 426.562 255.942 427.262 258.042C427.961 260.142 427.786 262.43 426.775 264.403C425.764 266.375 423.999 267.871 421.869 268.561H421.853Z" fill="#36ABC5"/>
<path opacity="0.5" d="M417.795 198.761C419.951 202.843 433.712 210.835 433.712 210.835C433.712 210.835 434.962 195.151 432.806 191.065C432.294 190.094 431.593 189.232 430.743 188.529C429.893 187.825 428.91 187.294 427.852 186.964C426.794 186.635 425.68 186.515 424.574 186.61C423.468 186.705 422.393 187.014 421.408 187.519C420.423 188.024 419.549 188.715 418.836 189.553C418.122 190.391 417.583 191.36 417.249 192.403C416.915 193.447 416.793 194.545 416.889 195.635C416.986 196.725 417.299 197.786 417.812 198.757L417.795 198.761Z" fill="#36ABC5"/>
<path opacity="0.5" d="M397.087 232.598C400.383 235.86 415.922 239.43 415.922 239.43C415.922 239.43 412.354 224.094 409.062 220.832C407.48 219.267 405.332 218.385 403.09 218.381C400.849 218.377 398.698 219.251 397.11 220.81C395.522 222.37 394.627 224.488 394.623 226.698C394.619 228.908 395.505 231.029 397.087 232.594V232.598Z" fill="#36ABC5"/>
<path opacity="0.5" d="M381.541 268.213C384.228 271.975 398.935 278.086 398.935 278.086C398.935 278.086 398.05 262.378 395.359 258.612C394.736 257.678 393.929 256.878 392.986 256.258C392.043 255.638 390.984 255.211 389.87 255.003C388.757 254.795 387.612 254.81 386.505 255.047C385.397 255.284 384.349 255.738 383.423 256.383C382.497 257.027 381.712 257.848 381.115 258.798C380.518 259.747 380.12 260.806 379.946 261.91C379.772 263.014 379.825 264.141 380.102 265.225C380.378 266.308 380.873 267.326 381.557 268.217L381.541 268.213Z" fill="#36ABC5"/>
<path opacity="0.5" d="M400.753 281.249C400.753 281.249 388.575 263.784 390.711 247.351C391.652 240.465 390.301 233.463 386.863 227.397C385.207 224.53 383.288 221.819 381.131 219.297" stroke="#535461" stroke-width="2" stroke-miterlimit="10"/>
<path opacity="0.5" d="M382.417 208.931C383.201 211.3 381.13 219.568 381.13 219.568C381.13 219.568 374.502 214.101 373.718 211.736C373.342 210.599 373.438 209.361 373.988 208.294C374.537 207.227 375.494 206.419 376.647 206.047C377.801 205.676 379.057 205.771 380.139 206.313C381.221 206.854 382.04 207.797 382.417 208.935V208.931Z" fill="#36ABC5"/>
<path opacity="0.5" d="M393.96 219.731C393.314 222.133 387.014 227.972 387.014 227.972C387.014 227.972 384.465 219.832 385.111 217.422C385.421 216.265 386.185 215.277 387.235 214.676C388.284 214.074 389.533 213.908 390.706 214.215C391.88 214.521 392.882 215.274 393.492 216.309C394.102 217.343 394.27 218.575 393.96 219.731V219.731Z" fill="#36ABC5"/>
<path opacity="0.5" d="M401.078 242.246C399.288 244.003 390.865 245.904 390.865 245.904C390.865 245.904 392.83 237.608 394.624 235.851C395.051 235.433 395.556 235.102 396.112 234.877C396.669 234.652 397.264 234.537 397.866 234.539C398.467 234.541 399.062 234.66 399.616 234.888C400.171 235.117 400.675 235.451 401.099 235.871C401.522 236.292 401.858 236.79 402.086 237.339C402.315 237.887 402.431 238.474 402.429 239.067C402.427 239.66 402.307 240.246 402.075 240.793C401.843 241.34 401.505 241.837 401.078 242.254V242.246Z" fill="#36ABC5"/>
<path opacity="0.5" d="M402.575 260.485C401.11 262.514 393.117 265.783 393.117 265.783C393.117 265.783 393.633 257.279 395.098 255.25C395.446 254.767 395.887 254.356 396.396 254.041C396.905 253.727 397.472 253.514 398.065 253.415C398.658 253.316 399.264 253.333 399.85 253.465C400.436 253.598 400.989 253.842 401.479 254.185C401.969 254.529 402.386 254.964 402.705 255.466C403.024 255.967 403.24 256.526 403.341 257.111C403.441 257.695 403.423 258.293 403.289 258.87C403.155 259.448 402.907 259.994 402.559 260.477L402.575 260.485Z" fill="#36ABC5"/>
<path opacity="0.5" d="M378.034 231.367C380.303 232.464 388.897 231.583 388.897 231.583C388.897 231.583 384.322 224.356 382.053 223.263C380.963 222.738 379.706 222.661 378.558 223.049C377.411 223.437 376.467 224.259 375.934 225.334C375.401 226.409 375.323 227.648 375.717 228.78C376.111 229.911 376.944 230.842 378.034 231.367V231.367Z" fill="#36ABC5"/>
<path opacity="0.5" d="M380.06 252.677C382.56 253.053 390.492 249.679 390.492 249.679C390.492 249.679 383.932 244.132 381.436 243.772C380.236 243.592 379.013 243.889 378.035 244.599C377.058 245.308 376.406 246.371 376.224 247.554C376.041 248.737 376.343 249.943 377.062 250.907C377.782 251.87 378.86 252.513 380.06 252.693V252.677Z" fill="#36ABC5"/>
<path opacity="0.5" d="M384.905 273.114C387.304 273.915 395.703 271.914 395.703 271.914C395.703 271.914 390.19 265.355 387.791 264.566C386.639 264.189 385.383 264.278 384.297 264.814C383.212 265.351 382.388 266.29 382.005 267.426C381.622 268.561 381.713 269.8 382.257 270.87C382.801 271.94 383.753 272.753 384.905 273.13V273.114Z" fill="#36ABC5"/>
<path opacity="0.5" d="M382.417 208.931C383.201 211.3 381.13 219.568 381.13 219.568C381.13 219.568 374.502 214.101 373.718 211.736C373.342 210.599 373.438 209.361 373.988 208.294C374.537 207.227 375.494 206.419 376.647 206.047C377.801 205.676 379.057 205.771 380.139 206.313C381.221 206.854 382.04 207.797 382.417 208.935V208.931Z" fill="white"/>
<path opacity="0.5" d="M393.96 219.731C393.314 222.133 387.014 227.972 387.014 227.972C387.014 227.972 384.465 219.832 385.111 217.422C385.421 216.265 386.185 215.277 387.235 214.676C388.284 214.074 389.533 213.908 390.706 214.215C391.88 214.521 392.882 215.274 393.492 216.309C394.102 217.343 394.27 218.575 393.96 219.731V219.731Z" fill="white"/>
<path opacity="0.5" d="M401.078 242.246C399.288 244.003 390.865 245.904 390.865 245.904C390.865 245.904 392.83 237.608 394.624 235.851C395.051 235.433 395.556 235.102 396.112 234.877C396.669 234.652 397.264 234.537 397.866 234.539C398.467 234.541 399.062 234.66 399.616 234.888C400.171 235.117 400.675 235.451 401.099 235.871C401.522 236.292 401.858 236.79 402.086 237.339C402.315 237.887 402.431 238.474 402.429 239.067C402.427 239.66 402.307 240.246 402.075 240.793C401.843 241.34 401.505 241.837 401.078 242.254V242.246Z" fill="white"/>
<path opacity="0.5" d="M402.575 260.485C401.11 262.514 393.117 265.783 393.117 265.783C393.117 265.783 393.633 257.279 395.098 255.25C395.446 254.767 395.887 254.356 396.396 254.041C396.905 253.727 397.472 253.514 398.065 253.415C398.658 253.316 399.264 253.333 399.85 253.465C400.436 253.598 400.989 253.842 401.479 254.185C401.969 254.529 402.386 254.964 402.705 255.466C403.024 255.967 403.24 256.526 403.341 257.111C403.441 257.695 403.423 258.293 403.289 258.87C403.155 259.448 402.907 259.994 402.559 260.477L402.575 260.485Z" fill="white"/>
<path opacity="0.5" d="M378.034 231.367C380.303 232.464 388.897 231.583 388.897 231.583C388.897 231.583 384.322 224.356 382.053 223.263C380.963 222.738 379.706 222.661 378.558 223.049C377.411 223.437 376.467 224.259 375.934 225.334C375.401 226.409 375.323 227.648 375.717 228.78C376.111 229.911 376.944 230.842 378.034 231.367V231.367Z" fill="white"/>
<path opacity="0.5" d="M380.06 252.677C382.56 253.053 390.492 249.679 390.492 249.679C390.492 249.679 383.932 244.132 381.436 243.772C380.236 243.592 379.013 243.889 378.035 244.599C377.058 245.308 376.406 246.371 376.224 247.554C376.041 248.737 376.343 249.943 377.062 250.907C377.782 251.87 378.86 252.513 380.06 252.693V252.677Z" fill="white"/>
<path opacity="0.5" d="M384.905 273.114C387.304 273.915 395.703 271.914 395.703 271.914C395.703 271.914 390.19 265.355 387.791 264.566C386.639 264.189 385.383 264.278 384.297 264.814C383.212 265.351 382.388 266.29 382.005 267.426C381.622 268.561 381.713 269.8 382.257 270.87C382.801 271.94 383.753 272.753 384.905 273.13V273.114Z" fill="white"/>
<path opacity="0.5" d="M378.221 328.604H412.858L421.521 276.525H369.562L378.221 328.604Z" fill="#474059"/>
<path opacity="0.1" d="M376.191 276.525L384.281 325.19H413.427L412.858 328.604H378.221L369.562 276.525H376.191Z" fill="black"/>
</g>
<path d="M385 32H131V334H385V32Z" fill="url(#paint0_linear)"/>
<path d="M382 36H134V330H382V36Z" fill="white"/>
<path d="M330 69H230V74H330V69Z" fill="#C0BCCF"/>
<path d="M330 84H230V89H330V84Z" fill="#C0BCCF"/>
<path d="M306 99H254V104H306V99Z" fill="#36ABC5"/>
<path opacity="0.5" d="M330 165H230V170H330V165Z" fill="#C0BCCF"/>
<path opacity="0.5" d="M330 180H230V185H330V180Z" fill="#C0BCCF"/>
<path opacity="0.5" d="M306 196H254V200H306V196Z" fill="#36ABC5"/>
<path opacity="0.5" d="M330 262H230V267H330V262Z" fill="#C0BCCF"/>
<path opacity="0.5" d="M330 277H230V282H330V277Z" fill="#C0BCCF"/>
<path opacity="0.5" d="M306 292H254V297H306V292Z" fill="#36ABC5"/>
<g opacity="0.5">
<path opacity="0.5" d="M194.977 192.041L192.883 191.113C192.915 190.799 192.928 190.483 192.923 190.168C192.938 189.901 192.938 189.634 192.923 189.368C192.716 187.263 191.357 185.43 190.395 183.505C189.514 181.747 188.954 179.851 188.742 177.902C188.487 175.501 188.742 173.011 187.849 170.754C187.123 168.933 185.686 167.412 184.147 166.068C182.421 164.47 180.403 163.209 178.201 162.35C175.952 161.549 173.366 161.345 171.117 162.162C169.088 162.898 167.525 164.367 166.015 165.796C164.918 166.748 163.95 167.835 163.133 169.029C162.211 170.518 161.818 172.231 161.509 173.92C161.024 176.624 160.691 179.352 160.511 182.092C160.352 184.377 160.105 186.97 158.124 188.371C157.158 189.056 155.798 189.44 155.355 190.476C155.23 190.787 155.18 191.123 155.209 191.457C155.197 191.734 155.217 192.012 155.27 192.285C155.298 192.445 155.331 192.601 155.372 192.761C154.803 194.155 154.326 195.582 153.943 197.036C153.646 198.116 153.374 199.177 153.131 200.205H153.788H154.138L157.921 200.293H157.974L162.033 200.385H162.053L165.836 200.473H165.93L167.022 200.549H167.379L182.507 200.894H182.589L183.595 200.918H183.949L186.977 200.986L191.442 201.086H191.474L194.835 201.166H195.193H195.883L195.704 197.692C196.443 192.373 194.977 192.041 194.977 192.041ZM177.981 191.617C177.981 194.562 174.783 198.168 174.783 198.168L171.564 193.846L171.682 193.678L174.783 197.84C174.783 197.84 177.981 194.238 177.981 191.289C178.056 191.139 178.141 190.994 178.237 190.856L178.31 191.081C178.187 191.251 178.078 191.43 177.981 191.617V191.617ZM182.901 203.175C182.901 203.027 182.901 202.875 182.873 202.727C182.844 202.578 182.848 202.446 182.828 202.302C182.808 202.158 182.792 202.018 182.771 201.874C182.751 201.73 182.723 201.59 182.694 201.446C182.666 201.302 182.637 201.162 182.605 201.018C182.605 200.97 182.585 200.926 182.572 200.874C182.528 200.685 182.479 200.497 182.426 200.309C182.374 200.121 182.341 200.005 182.292 199.857C182.292 199.789 182.252 199.721 182.227 199.657C182.203 199.593 182.158 199.441 182.122 199.333L182.049 199.125C182.016 199.033 181.984 198.937 181.947 198.845C181.886 198.676 181.821 198.512 181.757 198.344C181.692 198.176 181.623 198.012 181.554 197.848C181.416 197.512 181.265 197.18 181.115 196.844C180.527 195.547 179.865 194.27 179.256 193.006C178.93 192.344 178.64 191.665 178.387 190.973L178.31 191.073C178.187 191.244 178.077 191.425 177.981 191.613C177.981 194.558 174.783 198.164 174.783 198.164L171.564 193.842L168.747 197.844C168.341 198.044 167.935 198.724 167.618 199.693C167.529 199.953 167.444 200.241 167.363 200.541C167.306 200.746 167.253 200.942 167.204 201.17C167.176 201.278 167.151 201.386 167.127 201.498L167.054 201.838V201.89C167.005 202.122 166.957 202.362 166.912 202.606C166.867 202.851 166.815 203.131 166.77 203.407C166.737 203.58 166.709 203.752 166.685 203.923C166.628 204.255 166.579 204.591 166.53 204.928C166.502 205.124 166.474 205.328 166.449 205.508L166.352 206.252C166.559 206.865 166.79 207.453 167.03 208.069C167.182 208.393 167.271 208.742 167.294 209.098C172.287 210.41 177.542 210.41 182.536 209.098C182.534 209.086 182.534 209.074 182.536 209.062C182.461 208.727 182.428 208.384 182.438 208.041C182.521 207.079 182.656 206.123 182.844 205.176C182.904 204.709 182.93 204.238 182.922 203.767V203.599C182.909 203.447 182.905 203.311 182.901 203.179V203.175ZM182.901 203.175C182.901 203.027 182.901 202.875 182.873 202.727C182.844 202.578 182.848 202.446 182.828 202.302C182.808 202.158 182.792 202.018 182.771 201.874C182.751 201.73 182.723 201.59 182.694 201.446C182.666 201.302 182.637 201.162 182.605 201.018C182.605 200.97 182.585 200.926 182.572 200.874C182.528 200.685 182.479 200.497 182.426 200.309C182.374 200.121 182.341 200.005 182.292 199.857C182.292 199.789 182.252 199.721 182.227 199.657C182.203 199.593 182.158 199.441 182.122 199.333L182.049 199.125C182.016 199.033 181.984 198.937 181.947 198.845C181.886 198.676 181.821 198.512 181.757 198.344C181.692 198.176 181.623 198.012 181.554 197.848C181.416 197.512 181.265 197.18 181.115 196.844C180.527 195.547 179.865 194.27 179.256 193.006C178.93 192.344 178.64 191.665 178.387 190.973L178.31 191.073C178.187 191.244 178.077 191.425 177.981 191.613C177.981 194.558 174.783 198.164 174.783 198.164L171.564 193.842L168.747 197.844C168.341 198.044 167.935 198.724 167.618 199.693C167.529 199.953 167.444 200.241 167.363 200.541C167.306 200.746 167.253 200.942 167.204 201.17C167.176 201.278 167.151 201.386 167.127 201.498L167.054 201.838V201.89C167.005 202.122 166.957 202.362 166.912 202.606C166.867 202.851 166.815 203.131 166.77 203.407C166.737 203.58 166.709 203.752 166.685 203.923C166.628 204.255 166.579 204.591 166.53 204.928C166.502 205.124 166.474 205.328 166.449 205.508L166.352 206.252C166.559 206.865 166.79 207.453 167.03 208.069C167.182 208.393 167.271 208.742 167.294 209.098C172.287 210.41 177.542 210.41 182.536 209.098C182.534 209.086 182.534 209.074 182.536 209.062C182.461 208.727 182.428 208.384 182.438 208.041C182.521 207.079 182.656 206.123 182.844 205.176C182.904 204.709 182.93 204.238 182.922 203.767V203.599C182.909 203.447 182.905 203.311 182.901 203.179V203.175ZM182.901 203.175C182.901 203.027 182.901 202.875 182.873 202.727C182.844 202.578 182.848 202.446 182.828 202.302C182.808 202.158 182.792 202.018 182.771 201.874C182.751 201.73 182.723 201.59 182.694 201.446C182.666 201.302 182.637 201.162 182.605 201.018C182.605 200.97 182.585 200.926 182.572 200.874C182.528 200.685 182.479 200.497 182.426 200.309C182.374 200.121 182.341 200.005 182.292 199.857C182.292 199.789 182.252 199.721 182.227 199.657C182.203 199.593 182.158 199.441 182.122 199.333L182.049 199.125C182.016 199.033 181.984 198.937 181.947 198.845C181.886 198.676 181.821 198.512 181.757 198.344C181.692 198.176 181.623 198.012 181.554 197.848C181.416 197.512 181.265 197.18 181.115 196.844C180.527 195.547 179.865 194.27 179.256 193.006C178.93 192.344 178.64 191.665 178.387 190.973L178.31 191.073C178.187 191.244 178.077 191.425 177.981 191.613C177.981 194.558 174.783 198.164 174.783 198.164L171.564 193.842L168.747 197.844C168.341 198.044 167.935 198.724 167.618 199.693C167.529 199.953 167.444 200.241 167.363 200.541C167.306 200.746 167.253 200.942 167.204 201.17C167.176 201.278 167.151 201.386 167.127 201.498L167.054 201.838V201.89C167.005 202.122 166.957 202.362 166.912 202.606C166.867 202.851 166.815 203.131 166.77 203.407C166.737 203.58 166.709 203.752 166.685 203.923C166.628 204.255 166.579 204.591 166.53 204.928C166.502 205.124 166.474 205.328 166.449 205.508L166.352 206.252C166.559 206.865 166.79 207.453 167.03 208.069C167.182 208.393 167.271 208.742 167.294 209.098C172.287 210.41 177.542 210.41 182.536 209.098C182.534 209.086 182.534 209.074 182.536 209.062C182.461 208.727 182.428 208.384 182.438 208.041C182.521 207.079 182.656 206.123 182.844 205.176C182.904 204.709 182.93 204.238 182.922 203.767V203.599C182.909 203.447 182.905 203.311 182.901 203.179V203.175ZM182.901 203.175C182.901 203.027 182.901 202.875 182.873 202.727C182.844 202.578 182.848 202.446 182.828 202.302C182.808 202.158 182.792 202.018 182.771 201.874C182.751 201.73 182.723 201.59 182.694 201.446C182.666 201.302 182.637 201.162 182.605 201.018C182.605 200.97 182.585 200.926 182.572 200.874C182.528 200.685 182.479 200.497 182.426 200.309C182.374 200.121 182.341 200.005 182.292 199.857C182.292 199.789 182.252 199.721 182.227 199.657C182.203 199.593 182.158 199.441 182.122 199.333L182.049 199.125C182.016 199.033 181.984 198.937 181.947 198.845C181.886 198.676 181.821 198.512 181.757 198.344C181.692 198.176 181.623 198.012 181.554 197.848C181.416 197.512 181.265 197.18 181.115 196.844C180.527 195.547 179.865 194.27 179.256 193.006C178.93 192.344 178.64 191.665 178.387 190.973L178.31 191.073C178.187 191.244 178.077 191.425 177.981 191.613C177.981 194.558 174.783 198.164 174.783 198.164L171.564 193.842L168.747 197.844C168.341 198.044 167.935 198.724 167.618 199.693C167.529 199.953 167.444 200.241 167.363 200.541C167.306 200.746 167.253 200.942 167.204 201.17C167.176 201.278 167.151 201.386 167.127 201.498L167.054 201.838V201.89C167.005 202.122 166.957 202.362 166.912 202.606C166.867 202.851 166.815 203.131 166.77 203.407C166.737 203.58 166.709 203.752 166.685 203.923C166.628 204.255 166.579 204.591 166.53 204.928C166.502 205.124 166.474 205.328 166.449 205.508L166.352 206.252C166.559 206.865 166.79 207.453 167.03 208.069C167.182 208.393 167.271 208.742 167.294 209.098C172.287 210.41 177.542 210.41 182.536 209.098C182.534 209.086 182.534 209.074 182.536 209.062C182.461 208.727 182.428 208.384 182.438 208.041C182.521 207.079 182.656 206.123 182.844 205.176C182.904 204.709 182.93 204.238 182.922 203.767V203.599C182.909 203.447 182.905 203.311 182.901 203.179V203.175Z" fill="url(#paint1_linear)"/>
<path opacity="0.5" d="M183.047 175.262H164.375V187.668H183.047V175.262Z" fill="#493545"/>
<path opacity="0.5" d="M186.149 188.944L178.335 199.798L170.168 199.098C170.168 199.098 159.512 199.794 166.616 191.746C170.03 187.876 171.146 184.65 171.385 182.349C171.645 179.86 170.878 178.443 170.878 178.443L179.755 177.395C179.355 178.574 179.304 179.842 179.609 181.048C180.722 185.595 186.149 188.944 186.149 188.944Z" fill="#C77485"/>
<path opacity="0.1" d="M179.604 181.035C178.447 181.899 177.091 182.47 175.657 182.698C174.223 182.925 172.755 182.802 171.38 182.339C171.64 179.85 170.873 178.433 170.873 178.433L179.751 177.385C179.351 178.563 179.3 179.829 179.604 181.035Z" fill="black"/>
<path opacity="0.5" d="M174.253 182.46C179.155 182.46 183.13 178.541 183.13 173.708C183.13 168.874 179.155 164.955 174.253 164.955C169.35 164.955 165.375 168.874 165.375 173.708C165.375 178.541 169.35 182.46 174.253 182.46Z" fill="#C77485"/>
<path opacity="0.1" d="M185.824 189.392L185.617 188.591L185.438 187.887L185.175 186.846L185.126 186.654L185.085 186.494C185.085 186.494 185.296 185.866 183.904 186.07L183.644 186.114C183.425 186.158 183.169 186.218 182.877 186.298L182.613 186.378L182.264 186.486C181.159 186.841 180.151 187.441 179.317 188.239C178.943 188.592 178.612 188.987 178.331 189.416C178.302 189.456 178.282 189.492 178.258 189.524C178.161 189.673 178.076 189.828 178.002 189.988C178.002 193.142 174.803 196.992 174.803 196.992L171.682 192.545L171.621 192.457L170.878 191.393L170.614 191.049L170.525 190.929L168.901 188.779L168.495 188.243L168.361 188.063L168.162 187.803L167.696 187.191L165.869 188.243L163.433 189.644L162.013 198.749V199.001L162.057 199.753L162.354 204.7V204.768L161.834 206.817L161.911 206.857C163.137 207.509 164.413 208.065 165.727 208.522L166.072 208.642C166.478 208.774 166.859 208.894 167.257 209.01C167.272 209.069 167.283 209.129 167.29 209.19C167.29 209.134 167.29 209.074 167.29 209.018C172.271 210.421 177.551 210.421 182.532 209.018L182.625 208.99C182.857 208.926 183.092 208.858 183.319 208.782L183.689 208.666C184.691 208.335 185.672 207.948 186.628 207.505L186.969 200.341L187.212 195.175V194.879L185.824 189.392Z" fill="black"/>
<path opacity="0.5" d="M182.9 202.699C182.9 202.539 182.9 202.379 182.872 202.219C182.843 202.059 182.847 201.919 182.827 201.767C182.807 201.615 182.79 201.463 182.77 201.311C182.75 201.159 182.721 201.007 182.693 200.854C182.665 200.702 182.636 200.55 182.604 200.398C182.604 200.346 182.583 200.298 182.571 200.246C182.527 200.046 182.478 199.846 182.425 199.642C182.372 199.438 182.34 199.318 182.291 199.158C182.291 199.086 182.25 199.013 182.226 198.945C182.202 198.877 182.157 198.713 182.121 198.597L182.048 198.373C182.015 198.273 181.983 198.173 181.946 198.073C181.885 197.893 181.82 197.717 181.755 197.537C181.69 197.357 181.621 197.181 181.552 197.004C181.414 196.644 181.264 196.288 181.114 195.932C180.525 194.547 179.864 193.182 179.255 191.83C178.928 191.121 178.638 190.395 178.386 189.657L178.309 189.765C178.186 189.949 178.076 190.141 177.98 190.341C177.98 193.491 174.782 197.345 174.782 197.345L171.563 192.722L168.745 196.992C168.34 197.205 167.934 197.933 167.617 198.969C167.528 199.25 167.442 199.554 167.361 199.878C167.304 200.094 167.252 200.322 167.203 200.55C167.175 200.666 167.15 200.782 167.126 200.902L167.053 201.267V201.323C167.004 201.571 166.955 201.827 166.911 202.087C166.866 202.347 166.813 202.647 166.769 202.932C166.736 203.116 166.708 203.3 166.683 203.484C166.627 203.84 166.578 204.2 166.529 204.556C166.501 204.764 166.472 204.957 166.448 205.177L166.35 205.977C166.558 206.633 166.789 207.282 167.028 207.918C167.181 208.267 167.271 208.639 167.292 209.019C172.273 210.422 177.554 210.422 182.535 209.019C182.533 209.005 182.533 208.992 182.535 208.979C182.46 208.619 182.427 208.253 182.437 207.886V207.886C182.519 206.859 182.655 205.837 182.843 204.824C182.903 204.325 182.929 203.822 182.92 203.32V203.14C182.908 202.988 182.904 202.843 182.9 202.699ZM182.9 202.699C182.9 202.539 182.9 202.379 182.872 202.219C182.843 202.059 182.847 201.919 182.827 201.767C182.807 201.615 182.79 201.463 182.77 201.311C182.75 201.159 182.721 201.007 182.693 200.854C182.665 200.702 182.636 200.55 182.604 200.398C182.604 200.346 182.583 200.298 182.571 200.246C182.527 200.046 182.478 199.846 182.425 199.642C182.372 199.438 182.34 199.318 182.291 199.158C182.291 199.086 182.25 199.013 182.226 198.945C182.202 198.877 182.157 198.713 182.121 198.597L182.048 198.373C182.015 198.273 181.983 198.173 181.946 198.073C181.885 197.893 181.82 197.717 181.755 197.537C181.69 197.357 181.621 197.181 181.552 197.004C181.414 196.644 181.264 196.288 181.114 195.932C180.525 194.547 179.864 193.182 179.255 191.83C178.928 191.121 178.638 190.395 178.386 189.657L178.309 189.765C178.186 189.949 178.076 190.141 177.98 190.341C177.98 193.491 174.782 197.345 174.782 197.345L171.563 192.722L168.745 196.992C168.34 197.205 167.934 197.933 167.617 198.969C167.528 199.25 167.442 199.554 167.361 199.878C167.304 200.094 167.252 200.322 167.203 200.55C167.175 200.666 167.15 200.782 167.126 200.902L167.053 201.267V201.323C167.004 201.571 166.955 201.827 166.911 202.087C166.866 202.347 166.813 202.647 166.769 202.932C166.736 203.116 166.708 203.3 166.683 203.484C166.627 203.84 166.578 204.2 166.529 204.556C166.501 204.764 166.472 204.957 166.448 205.177L166.35 205.977C166.558 206.633 166.789 207.282 167.028 207.918C167.181 208.267 167.271 208.639 167.292 209.019C172.273 210.422 177.554 210.422 182.535 209.019C182.533 209.005 182.533 208.992 182.535 208.979C182.46 208.619 182.427 208.253 182.437 207.886V207.886C182.519 206.859 182.655 205.837 182.843 204.824C182.903 204.325 182.929 203.822 182.92 203.32V203.14C182.908 202.988 182.904 202.843 182.9 202.699ZM182.9 202.699C182.9 202.539 182.9 202.379 182.872 202.219C182.843 202.059 182.847 201.919 182.827 201.767C182.807 201.615 182.79 201.463 182.77 201.311C182.75 201.159 182.721 201.007 182.693 200.854C182.665 200.702 182.636 200.55 182.604 200.398C182.604 200.346 182.583 200.298 182.571 200.246C182.527 200.046 182.478 199.846 182.425 199.642C182.372 199.438 182.34 199.318 182.291 199.158C182.291 199.086 182.25 199.013 182.226 198.945C182.202 198.877 182.157 198.713 182.121 198.597L182.048 198.373C182.015 198.273 181.983 198.173 181.946 198.073C181.885 197.893 181.82 197.717 181.755 197.537C181.69 197.357 181.621 197.181 181.552 197.004C181.414 196.644 181.264 196.288 181.114 195.932C180.525 194.547 179.864 193.182 179.255 191.83C178.928 191.121 178.638 190.395 178.386 189.657L178.309 189.765C178.186 189.949 178.076 190.141 177.98 190.341C177.98 193.491 174.782 197.345 174.782 197.345L171.563 192.722L168.745 196.992C168.34 197.205 167.934 197.933 167.617 198.969C167.528 199.25 167.442 199.554 167.361 199.878C167.304 200.094 167.252 200.322 167.203 200.55C167.175 200.666 167.15 200.782 167.126 200.902L167.053 201.267V201.323C167.004 201.571 166.955 201.827 166.911 202.087C166.866 202.347 166.813 202.647 166.769 202.932C166.736 203.116 166.708 203.3 166.683 203.484C166.627 203.84 166.578 204.2 166.529 204.556C166.501 204.764 166.472 204.957 166.448 205.177L166.35 205.977C166.558 206.633 166.789 207.282 167.028 207.918C167.181 208.267 167.271 208.639 167.292 209.019C172.273 210.422 177.554 210.422 182.535 209.019C182.533 209.005 182.533 208.992 182.535 208.979C182.46 208.619 182.427 208.253 182.437 207.886V207.886C182.519 206.859 182.655 205.837 182.843 204.824C182.903 204.325 182.929 203.822 182.92 203.32V203.14C182.908 202.988 182.904 202.843 182.9 202.699ZM187.203 195.188L185.754 189.485L185.506 188.508L185.437 188.24L185.084 186.847C185.085 186.835 185.085 186.823 185.084 186.811C185.092 186.75 185.082 186.687 185.055 186.631C185.003 186.527 184.869 186.419 184.556 186.391C184.437 186.383 184.318 186.383 184.199 186.391V186.391C183.846 186.425 183.497 186.49 183.156 186.583C182.989 186.627 182.811 186.675 182.62 186.735L182.271 186.843H182.238C181.303 187.146 180.435 187.621 179.681 188.244C179.183 188.654 178.745 189.131 178.382 189.661L178.305 189.769C178.181 189.953 178.072 190.145 177.976 190.345C177.976 193.495 174.777 197.349 174.777 197.349L171.558 192.726L171.376 192.466L171.343 192.422L170.877 191.746L170.523 191.282L170.43 191.161L168.766 188.972L168.238 188.264V188.24L168.055 187.996L167.706 187.54L166.489 188.24L163.444 189.989L162.04 198.997V199.094L162.08 199.75L162.381 204.764V205.049L161.922 206.854C163.148 207.506 164.424 208.062 165.738 208.518L166.083 208.638C166.489 208.771 166.87 208.891 167.268 209.007C167.283 209.066 167.293 209.126 167.3 209.187C167.3 209.131 167.3 209.071 167.3 209.015C172.281 210.418 177.562 210.418 182.543 209.015L182.636 208.987C182.867 208.923 183.103 208.855 183.33 208.779L183.7 208.662C184.701 208.332 185.683 207.945 186.639 207.502L186.975 200.346L187.219 195.236L187.203 195.188ZM167.239 209.007C167.254 209.066 167.265 209.126 167.272 209.187C167.272 209.131 167.272 209.071 167.272 209.015L167.239 209.007ZM182.9 202.699C182.9 202.539 182.9 202.379 182.872 202.219C182.843 202.059 182.847 201.919 182.827 201.767C182.807 201.615 182.79 201.463 182.77 201.311C182.75 201.159 182.721 201.007 182.693 200.854C182.665 200.702 182.636 200.55 182.604 200.398C182.604 200.346 182.583 200.298 182.571 200.246C182.527 200.046 182.478 199.846 182.425 199.642C182.372 199.438 182.34 199.318 182.291 199.158C182.291 199.086 182.25 199.013 182.226 198.945C182.202 198.877 182.157 198.713 182.121 198.597L182.048 198.373C182.015 198.273 181.983 198.173 181.946 198.073C181.885 197.893 181.82 197.717 181.755 197.537C181.69 197.357 181.621 197.181 181.552 197.004C181.414 196.644 181.264 196.288 181.114 195.932C180.525 194.547 179.864 193.182 179.255 191.83C178.928 191.121 178.638 190.395 178.386 189.657L178.309 189.765C178.186 189.949 178.076 190.141 177.98 190.341C177.98 193.491 174.782 197.345 174.782 197.345L171.563 192.722L168.745 196.992C168.34 197.205 167.934 197.933 167.617 198.969C167.528 199.25 167.442 199.554 167.361 199.878C167.304 200.094 167.252 200.322 167.203 200.55C167.175 200.666 167.15 200.782 167.126 200.902L167.053 201.267V201.323C167.004 201.571 166.955 201.827 166.911 202.087C166.866 202.347 166.813 202.647 166.769 202.932C166.736 203.116 166.708 203.3 166.683 203.484C166.627 203.84 166.578 204.2 166.529 204.556C166.501 204.764 166.472 204.957 166.448 205.177L166.35 205.977C166.558 206.633 166.789 207.282 167.028 207.918C167.181 208.267 167.271 208.639 167.292 209.019C172.273 210.422 177.554 210.422 182.535 209.019C182.533 209.005 182.533 208.992 182.535 208.979C182.46 208.619 182.427 208.253 182.437 207.886V207.886C182.519 206.859 182.655 205.837 182.843 204.824C182.903 204.325 182.929 203.822 182.92 203.32V203.14C182.908 202.988 182.904 202.843 182.9 202.699ZM182.9 202.699C182.9 202.539 182.9 202.379 182.872 202.219C182.843 202.059 182.847 201.919 182.827 201.767C182.807 201.615 182.79 201.463 182.77 201.311C182.75 201.159 182.721 201.007 182.693 200.854C182.665 200.702 182.636 200.55 182.604 200.398C182.604 200.346 182.583 200.298 182.571 200.246C182.527 200.046 182.478 199.846 182.425 199.642C182.372 199.438 182.34 199.318 182.291 199.158C182.291 199.086 182.25 199.013 182.226 198.945C182.202 198.877 182.157 198.713 182.121 198.597L182.048 198.373C182.015 198.273 181.983 198.173 181.946 198.073C181.885 197.893 181.82 197.717 181.755 197.537C181.69 197.357 181.621 197.181 181.552 197.004C181.414 196.644 181.264 196.288 181.114 195.932C180.525 194.547 179.864 193.182 179.255 191.83C178.928 191.121 178.638 190.395 178.386 189.657L178.309 189.765C178.186 189.949 178.076 190.141 177.98 190.341C177.98 193.491 174.782 197.345 174.782 197.345L171.563 192.722L168.745 196.992C168.34 197.205 167.934 197.933 167.617 198.969C167.528 199.25 167.442 199.554 167.361 199.878C167.304 200.094 167.252 200.322 167.203 200.55C167.175 200.666 167.15 200.782 167.126 200.902L167.053 201.267V201.323C167.004 201.571 166.955 201.827 166.911 202.087C166.866 202.347 166.813 202.647 166.769 202.932C166.736 203.116 166.708 203.3 166.683 203.484C166.627 203.84 166.578 204.2 166.529 204.556C166.501 204.764 166.472 204.957 166.448 205.177L166.35 205.977C166.558 206.633 166.789 207.282 167.028 207.918C167.181 208.267 167.271 208.639 167.292 209.019C172.273 210.422 177.554 210.422 182.535 209.019C182.533 209.005 182.533 208.992 182.535 208.979C182.46 208.619 182.427 208.253 182.437 207.886V207.886C182.519 206.859 182.655 205.837 182.843 204.824C182.903 204.325 182.929 203.822 182.92 203.32V203.14C182.908 202.988 182.904 202.843 182.9 202.699ZM182.9 202.699C182.9 202.539 182.9 202.379 182.872 202.219C182.843 202.059 182.847 201.919 182.827 201.767C182.807 201.615 182.79 201.463 182.77 201.311C182.75 201.159 182.721 201.007 182.693 200.854C182.665 200.702 182.636 200.55 182.604 200.398C182.604 200.346 182.583 200.298 182.571 200.246C182.527 200.046 182.478 199.846 182.425 199.642C182.372 199.438 182.34 199.318 182.291 199.158C182.291 199.086 182.25 199.013 182.226 198.945C182.202 198.877 182.157 198.713 182.121 198.597L182.048 198.373C182.015 198.273 181.983 198.173 181.946 198.073C181.885 197.893 181.82 197.717 181.755 197.537C181.69 197.357 181.621 197.181 181.552 197.004C181.414 196.644 181.264 196.288 181.114 195.932C180.525 194.547 179.864 193.182 179.255 191.83C178.928 191.121 178.638 190.395 178.386 189.657L178.309 189.765C178.186 189.949 178.076 190.141 177.98 190.341C177.98 193.491 174.782 197.345 174.782 197.345L171.563 192.722L168.745 196.992C168.34 197.205 167.934 197.933 167.617 198.969C167.528 199.25 167.442 199.554 167.361 199.878C167.304 200.094 167.252 200.322 167.203 200.55C167.175 200.666 167.15 200.782 167.126 200.902L167.053 201.267V201.323C167.004 201.571 166.955 201.827 166.911 202.087C166.866 202.347 166.813 202.647 166.769 202.932C166.736 203.116 166.708 203.3 166.683 203.484C166.627 203.84 166.578 204.2 166.529 204.556C166.501 204.764 166.472 204.957 166.448 205.177L166.35 205.977C166.558 206.633 166.789 207.282 167.028 207.918C167.181 208.267 167.271 208.639 167.292 209.019C172.273 210.422 177.554 210.422 182.535 209.019C182.533 209.005 182.533 208.992 182.535 208.979C182.46 208.619 182.427 208.253 182.437 207.886V207.886C182.519 206.859 182.655 205.837 182.843 204.824C182.903 204.325 182.929 203.822 182.92 203.32V203.14C182.908 202.988 182.904 202.843 182.9 202.699ZM182.9 202.699C182.9 202.539 182.9 202.379 182.872 202.219C182.843 202.059 182.847 201.919 182.827 201.767C182.807 201.615 182.79 201.463 182.77 201.311C182.75 201.159 182.721 201.007 182.693 200.854C182.665 200.702 182.636 200.55 182.604 200.398C182.604 200.346 182.583 200.298 182.571 200.246C182.527 200.046 182.478 199.846 182.425 199.642C182.372 199.438 182.34 199.318 182.291 199.158C182.291 199.086 182.25 199.013 182.226 198.945C182.202 198.877 182.157 198.713 182.121 198.597L182.048 198.373C182.015 198.273 181.983 198.173 181.946 198.073C181.885 197.893 181.82 197.717 181.755 197.537C181.69 197.357 181.621 197.181 181.552 197.004C181.414 196.644 181.264 196.288 181.114 195.932C180.525 194.547 179.864 193.182 179.255 191.83C178.928 191.121 178.638 190.395 178.386 189.657L178.309 189.765C178.186 189.949 178.076 190.141 177.98 190.341C177.98 193.491 174.782 197.345 174.782 197.345L171.563 192.722L168.745 196.992C168.34 197.205 167.934 197.933 167.617 198.969C167.528 199.25 167.442 199.554 167.361 199.878C167.304 200.094 167.252 200.322 167.203 200.55C167.175 200.666 167.15 200.782 167.126 200.902L167.053 201.267V201.323C167.004 201.571 166.955 201.827 166.911 202.087C166.866 202.347 166.813 202.647 166.769 202.932C166.736 203.116 166.708 203.3 166.683 203.484C166.627 203.84 166.578 204.2 166.529 204.556C166.501 204.764 166.472 204.957 166.448 205.177L166.35 205.977C166.558 206.633 166.789 207.282 167.028 207.918C167.181 208.267 167.271 208.639 167.292 209.019C172.273 210.422 177.554 210.422 182.535 209.019C182.533 209.005 182.533 208.992 182.535 208.979C182.46 208.619 182.427 208.253 182.437 207.886V207.886C182.519 206.859 182.655 205.837 182.843 204.824C182.903 204.325 182.929 203.822 182.92 203.32V203.14C182.908 202.988 182.904 202.843 182.9 202.699ZM182.9 202.699C182.9 202.539 182.9 202.379 182.872 202.219C182.843 202.059 182.847 201.919 182.827 201.767C182.807 201.615 182.79 201.463 182.77 201.311C182.75 201.159 182.721 201.007 182.693 200.854C182.665 200.702 182.636 200.55 182.604 200.398C182.604 200.346 182.583 200.298 182.571 200.246C182.527 200.046 182.478 199.846 182.425 199.642C182.372 199.438 182.34 199.318 182.291 199.158C182.291 199.086 182.25 199.013 182.226 198.945C182.202 198.877 182.157 198.713 182.121 198.597L182.048 198.373C182.015 198.273 181.983 198.173 181.946 198.073C181.885 197.893 181.82 197.717 181.755 197.537C181.69 197.357 181.621 197.181 181.552 197.004C181.414 196.644 181.264 196.288 181.114 195.932C180.525 194.547 179.864 193.182 179.255 191.83C178.928 191.121 178.638 190.395 178.386 189.657L178.309 189.765C178.186 189.949 178.076 190.141 177.98 190.341C177.98 193.491 174.782 197.345 174.782 197.345L171.563 192.722L168.745 196.992C168.34 197.205 167.934 197.933 167.617 198.969C167.528 199.25 167.442 199.554 167.361 199.878C167.304 200.094 167.252 200.322 167.203 200.55C167.175 200.666 167.15 200.782 167.126 200.902L167.053 201.267V201.323C167.004 201.571 166.955 201.827 166.911 202.087C166.866 202.347 166.813 202.647 166.769 202.932C166.736 203.116 166.708 203.3 166.683 203.484C166.627 203.84 166.578 204.2 166.529 204.556C166.501 204.764 166.472 204.957 166.448 205.177L166.35 205.977C166.558 206.633 166.789 207.282 167.028 207.918C167.181 208.267 167.271 208.639 167.292 209.019C172.273 210.422 177.554 210.422 182.535 209.019C182.533 209.005 182.533 208.992 182.535 208.979C182.46 208.619 182.427 208.253 182.437 207.886V207.886C182.519 206.859 182.655 205.837 182.843 204.824C182.903 204.325 182.929 203.822 182.92 203.32V203.14C182.908 202.988 182.904 202.843 182.9 202.699ZM182.9 202.699C182.9 202.539 182.9 202.379 182.872 202.219C182.843 202.059 182.847 201.919 182.827 201.767C182.807 201.615 182.79 201.463 182.77 201.311C182.75 201.159 182.721 201.007 182.693 200.854C182.665 200.702 182.636 200.55 182.604 200.398C182.604 200.346 182.583 200.298 182.571 200.246C182.527 200.046 182.478 199.846 182.425 199.642C182.372 199.438 182.34 199.318 182.291 199.158C182.291 199.086 182.25 199.013 182.226 198.945C182.202 198.877 182.157 198.713 182.121 198.597L182.048 198.373C182.015 198.273 181.983 198.173 181.946 198.073C181.885 197.893 181.82 197.717 181.755 197.537C181.69 197.357 181.621 197.181 181.552 197.004C181.414 196.644 181.264 196.288 181.114 195.932C180.525 194.547 179.864 193.182 179.255 191.83C178.928 191.121 178.638 190.395 178.386 189.657L178.309 189.765C178.186 189.949 178.076 190.141 177.98 190.341C177.98 193.491 174.782 197.345 174.782 197.345L171.563 192.722L168.745 196.992C168.34 197.205 167.934 197.933 167.617 198.969C167.528 199.25 167.442 199.554 167.361 199.878C167.304 200.094 167.252 200.322 167.203 200.55C167.175 200.666 167.15 200.782 167.126 200.902L167.053 201.267V201.323C167.004 201.571 166.955 201.827 166.911 202.087C166.866 202.347 166.813 202.647 166.769 202.932C166.736 203.116 166.708 203.3 166.683 203.484C166.627 203.84 166.578 204.2 166.529 204.556C166.501 204.764 166.472 204.957 166.448 205.177L166.35 205.977C166.558 206.633 166.789 207.282 167.028 207.918C167.181 208.267 167.271 208.639 167.292 209.019C172.273 210.422 177.554 210.422 182.535 209.019C182.533 209.005 182.533 208.992 182.535 208.979C182.46 208.619 182.427 208.253 182.437 207.886V207.886C182.519 206.859 182.655 205.837 182.843 204.824C182.903 204.325 182.929 203.822 182.92 203.32V203.14C182.908 202.988 182.904 202.843 182.9 202.699ZM182.9 202.699C182.9 202.539 182.9 202.379 182.872 202.219C182.843 202.059 182.847 201.919 182.827 201.767C182.807 201.615 182.79 201.463 182.77 201.311C182.75 201.159 182.721 201.007 182.693 200.854C182.665 200.702 182.636 200.55 182.604 200.398C182.604 200.346 182.583 200.298 182.571 200.246C182.527 200.046 182.478 199.846 182.425 199.642C182.372 199.438 182.34 199.318 182.291 199.158C182.291 199.086 182.25 199.013 182.226 198.945C182.202 198.877 182.157 198.713 182.121 198.597L182.048 198.373C182.015 198.273 181.983 198.173 181.946 198.073C181.885 197.893 181.82 197.717 181.755 197.537C181.69 197.357 181.621 197.181 181.552 197.004C181.414 196.644 181.264 196.288 181.114 195.932C180.525 194.547 179.864 193.182 179.255 191.83C178.928 191.121 178.638 190.395 178.386 189.657L178.309 189.765C178.186 189.949 178.076 190.141 177.98 190.341C177.98 193.491 174.782 197.345 174.782 197.345L171.563 192.722L168.745 196.992C168.34 197.205 167.934 197.933 167.617 198.969C167.528 199.25 167.442 199.554 167.361 199.878C167.304 200.094 167.252 200.322 167.203 200.55C167.175 200.666 167.15 200.782 167.126 200.902L167.053 201.267V201.323C167.004 201.571 166.955 201.827 166.911 202.087C166.866 202.347 166.813 202.647 166.769 202.932C166.736 203.116 166.708 203.3 166.683 203.484C166.627 203.84 166.578 204.2 166.529 204.556C166.501 204.764 166.472 204.957 166.448 205.177L166.35 205.977C166.558 206.633 166.789 207.282 167.028 207.918C167.181 208.267 167.271 208.639 167.292 209.019C172.273 210.422 177.554 210.422 182.535 209.019C182.533 209.005 182.533 208.992 182.535 208.979C182.46 208.619 182.427 208.253 182.437 207.886V207.886C182.519 206.859 182.655 205.837 182.843 204.824C182.903 204.325 182.929 203.822 182.92 203.32V203.14C182.908 202.988 182.904 202.843 182.9 202.699ZM182.9 202.699C182.9 202.539 182.9 202.379 182.872 202.219C182.843 202.059 182.847 201.919 182.827 201.767C182.807 201.615 182.79 201.463 182.77 201.311C182.75 201.159 182.721 201.007 182.693 200.854C182.665 200.702 182.636 200.55 182.604 200.398C182.604 200.346 182.583 200.298 182.571 200.246C182.527 200.046 182.478 199.846 182.425 199.642C182.372 199.438 182.34 199.318 182.291 199.158C182.291 199.086 182.25 199.013 182.226 198.945C182.202 198.877 182.157 198.713 182.121 198.597L182.048 198.373C182.015 198.273 181.983 198.173 181.946 198.073C181.885 197.893 181.82 197.717 181.755 197.537C181.69 197.357 181.621 197.181 181.552 197.004C181.414 196.644 181.264 196.288 181.114 195.932C180.525 194.547 179.864 193.182 179.255 191.83C178.928 191.121 178.638 190.395 178.386 189.657L178.309 189.765C178.186 189.949 178.076 190.141 177.98 190.341C177.98 193.491 174.782 197.345 174.782 197.345L171.563 192.722L168.745 196.992C168.34 197.205 167.934 197.933 167.617 198.969C167.528 199.25 167.442 199.554 167.361 199.878C167.304 200.094 167.252 200.322 167.203 200.55C167.175 200.666 167.15 200.782 167.126 200.902L167.053 201.267V201.323C167.004 201.571 166.955 201.827 166.911 202.087C166.866 202.347 166.813 202.647 166.769 202.932C166.736 203.116 166.708 203.3 166.683 203.484C166.627 203.84 166.578 204.2 166.529 204.556C166.501 204.764 166.472 204.957 166.448 205.177L166.35 205.977C166.558 206.633 166.789 207.282 167.028 207.918C167.181 208.267 167.271 208.639 167.292 209.019C172.273 210.422 177.554 210.422 182.535 209.019C182.533 209.005 182.533 208.992 182.535 208.979C182.46 208.619 182.427 208.253 182.437 207.886V207.886C182.519 206.859 182.655 205.837 182.843 204.824C182.903 204.325 182.929 203.822 182.92 203.32V203.14C182.908 202.988 182.904 202.843 182.9 202.699Z" fill="white"/>
<path opacity="0.1" d="M171.622 192.453L171.35 192.417C170.94 192.363 170.533 192.282 170.132 192.177L169.982 192.137C168.992 191.861 167.908 191.365 167.664 190.492C167.592 190.212 167.6 189.916 167.689 189.64C167.825 189.164 168.01 188.703 168.241 188.263V188.239C168.271 188.177 168.305 188.117 168.342 188.059C168.677 187.414 169.184 186.87 169.808 186.486L169.321 186.562L165.196 187.223L158.803 188.239C158.803 188.239 157.667 188.015 156.12 192.217C156.12 192.269 156.083 192.317 156.067 192.373C155.694 193.402 155.3 194.687 154.894 196.291C154.614 197.404 154.358 198.496 154.123 199.557C154.054 199.877 153.985 200.193 153.92 200.506C154.652 201.356 155.44 202.158 156.278 202.907L156.412 203.031C158.055 204.497 159.87 205.765 161.819 206.805L161.896 206.845C163.122 207.497 164.398 208.053 165.712 208.51L166.057 208.63C166.13 207.889 166.211 207.069 166.309 206.228C166.309 206.144 166.309 206.06 166.341 205.976L166.439 205.176C166.463 204.972 166.491 204.776 166.52 204.556C166.568 204.199 166.617 203.839 166.674 203.483C166.698 203.299 166.727 203.115 166.759 202.931C166.804 202.647 166.853 202.362 166.901 202.086C166.95 201.81 166.995 201.57 167.043 201.322V201.266L167.116 200.902C167.141 200.782 167.165 200.666 167.194 200.55C167.242 200.321 167.295 200.093 167.352 199.877C167.433 199.553 167.518 199.249 167.608 198.969C167.932 197.932 168.31 197.204 168.736 196.992L171.553 192.722L171.671 192.541L171.724 192.461L171.622 192.453Z" fill="black"/>
<path opacity="0.1" d="M166.495 164.106C166.089 164.659 166.122 165.419 165.939 166.108C165.505 167.672 163.784 168.653 163.39 170.23C163.158 171.15 163.426 172.127 163.268 173.063C162.98 174.788 161.381 175.957 160.488 177.465C160.035 178.243 159.766 179.111 159.702 180.005C159.638 180.899 159.781 181.796 160.118 182.628C160.327 183.048 160.5 183.484 160.634 183.933C160.736 184.601 160.693 185.283 160.508 185.934C160.203 187.358 159.891 188.927 160.589 190.212C161.178 191.296 162.399 191.933 163.629 192.133C164.871 192.271 166.128 192.215 167.352 191.965C168.695 191.761 170.071 191.525 171.24 190.844L166.844 180.383C166.402 179.326 165.947 178.234 165.951 177.089C165.987 176.245 166.173 175.413 166.499 174.632C167.35 172.368 168.586 170.264 170.153 168.409C170.79 169.137 170.741 170.246 171.273 171.054C171.743 171.652 172.369 172.112 173.083 172.387C175.166 173.389 177.306 174.27 179.493 175.028C179.63 175.045 179.761 175.095 179.874 175.174C179.987 175.253 180.078 175.358 180.14 175.48C180.202 175.601 180.232 175.737 180.228 175.873C180.224 176.009 180.186 176.142 180.118 176.261L178.462 183C178.096 184.485 177.776 186.202 178.713 187.402C179.651 188.603 181.766 189.171 181.778 190.72C181.761 190.965 181.761 191.211 181.778 191.457C181.888 192.181 182.761 192.529 183.503 192.565C184.723 192.589 185.911 192.184 186.856 191.424C187.801 190.664 188.441 189.598 188.663 188.415C189.069 185.766 187.291 183.324 186.548 180.743C185.298 176.401 186.954 171.306 184.498 167.492C182.509 164.399 178.884 163.558 175.442 163.174C173.026 162.894 168.196 161.893 166.495 164.106Z" fill="black"/>
<path opacity="0.5" d="M166.495 163.706C166.089 164.258 166.122 165.019 165.939 165.707C165.505 167.272 163.784 168.252 163.39 169.829C163.158 170.75 163.426 171.726 163.268 172.663C162.98 174.388 161.381 175.556 160.488 177.065C160.035 177.842 159.766 178.71 159.702 179.604C159.638 180.499 159.781 181.395 160.118 182.228C160.327 182.647 160.5 183.084 160.634 183.532C160.736 184.201 160.693 184.883 160.508 185.533C160.203 186.958 159.891 188.527 160.589 189.811C161.178 190.896 162.399 191.532 163.629 191.732C164.871 191.871 166.128 191.814 167.352 191.564C168.695 191.36 170.071 191.124 171.24 190.444L166.844 179.982C166.402 178.926 165.947 177.833 165.951 176.689C165.987 175.844 166.173 175.013 166.499 174.231C167.35 171.968 168.586 169.863 170.153 168.008C170.79 168.737 170.741 169.845 171.273 170.654C171.743 171.251 172.369 171.712 173.083 171.986C175.166 172.988 177.306 173.87 179.493 174.628C179.63 174.645 179.761 174.695 179.874 174.773C179.987 174.852 180.078 174.957 180.14 175.079C180.202 175.201 180.232 175.336 180.228 175.472C180.224 175.609 180.186 175.742 180.118 175.86L178.462 182.6C178.096 184.085 177.776 185.801 178.713 187.002C179.651 188.203 181.766 188.771 181.778 190.32C181.761 190.565 181.761 190.811 181.778 191.056C181.888 191.78 182.761 192.129 183.503 192.165C184.723 192.188 185.911 191.784 186.856 191.024C187.801 190.264 188.441 189.197 188.663 188.015C189.069 185.365 187.291 182.924 186.548 180.343C185.298 176 186.954 170.906 184.498 167.092C182.509 163.998 178.884 163.158 175.442 162.774C173.026 162.493 168.196 161.493 166.495 163.706Z" fill="#493545"/>
</g>
<g opacity="0.5">
<path opacity="0.5" d="M163.997 270.901C164.033 272.241 163.108 273.386 162.373 274.502C161.638 275.619 161.095 277.144 161.85 278.26C162.097 278.629 162.471 278.913 162.694 279.297C163.477 280.638 162.174 282.178 161.699 283.651C161.151 285.352 161.789 287.253 162.941 288.634C164.094 290.014 165.685 290.947 167.293 291.767C170.673 293.543 174.3 294.816 178.058 295.545C180.023 295.901 182.117 296.061 183.96 295.285C185.239 294.707 186.283 293.722 186.926 292.488C187.569 291.254 187.772 289.843 187.504 288.482C187.037 286.376 185.474 284.684 184.662 282.695C184.473 282.304 184.381 281.875 184.394 281.442C184.463 280.686 185.052 280.093 185.511 279.481C186.661 277.814 187.131 275.78 186.826 273.786C186.505 271.792 185.731 269.896 184.561 268.239C184.143 267.552 183.591 266.954 182.937 266.478C182.052 265.89 180.956 265.722 179.901 265.574C175.493 264.965 170.926 264.301 166.481 264.077C165.077 264.005 164.046 264.277 163.351 265.574C162.292 267.507 163.944 268.96 163.997 270.901Z" fill="#444176"/>
<path opacity="0.5" d="M186.698 284.513L178.332 296.243L170.165 295.543C170.165 295.543 169.897 298.345 166.613 288.191C164.779 282.512 168.509 284.485 169.244 282.913C169.978 281.34 171.273 279.951 171.383 278.79C171.643 276.301 170.876 274.884 170.876 274.884L179.753 273.836C179.352 275.015 179.302 276.283 179.607 277.49C180.719 282.044 186.698 284.513 186.698 284.513Z" fill="#C77485"/>
<path opacity="0.5" d="M174.116 274.512C179.945 274.512 184.67 270.839 184.67 266.308C184.67 261.777 179.945 258.104 174.116 258.104C168.288 258.104 163.562 261.777 163.562 266.308C163.562 270.839 168.288 274.512 174.116 274.512Z" fill="#444176"/>
<path opacity="0.1" d="M179.603 277.486C178.445 278.35 177.089 278.921 175.655 279.149C174.222 279.376 172.753 279.253 171.378 278.79C171.638 276.301 170.871 274.884 170.871 274.884L179.749 273.836C179.349 275.014 179.298 276.28 179.603 277.486V277.486Z" fill="black"/>
<path opacity="0.5" d="M174.251 278.909C179.154 278.909 183.128 274.991 183.128 270.157C183.128 265.323 179.154 261.404 174.251 261.404C169.348 261.404 165.373 265.323 165.373 270.157C165.373 274.991 169.348 278.909 174.251 278.909Z" fill="#C77485"/>
<path opacity="0.1" d="M185.822 285.841L185.615 285.041L185.436 284.336L185.173 283.296L185.124 283.104L185.083 282.944C185.083 282.944 185.294 282.315 183.902 282.519L183.642 282.563C183.423 282.607 183.167 282.667 182.875 282.747L182.611 282.827L182.262 282.936C181.157 283.29 180.149 283.89 179.315 284.688C178.941 285.041 178.61 285.436 178.329 285.865C178.3 285.905 178.28 285.941 178.256 285.973C178.16 286.122 178.074 286.277 178 286.437C178 289.591 174.801 293.441 174.801 293.441L171.68 288.995L171.619 288.907L170.876 287.842L170.612 287.498L170.523 287.378L168.899 285.229L168.493 284.692L168.359 284.512L168.16 284.252L167.694 283.64L165.867 284.692L163.431 286.093L162.011 295.198V295.45L162.055 296.202L162.352 301.149V301.217L161.832 303.266L161.909 303.306C163.135 303.958 164.411 304.515 165.725 304.971L166.07 305.091C166.476 305.223 166.857 305.343 167.255 305.459C167.27 305.518 167.281 305.579 167.288 305.639C167.288 305.583 167.288 305.523 167.288 305.467C172.269 306.871 177.549 306.871 182.53 305.467L182.623 305.439C182.855 305.375 183.09 305.307 183.318 305.231L183.687 305.115C184.689 304.785 185.67 304.397 186.626 303.954L186.967 296.791L187.21 291.624V291.328L185.822 285.841Z" fill="black"/>
<path opacity="0.5" d="M182.9 299.147C182.9 298.987 182.9 298.826 182.872 298.666C182.843 298.506 182.847 298.366 182.827 298.214C182.807 298.062 182.79 297.91 182.77 297.758C182.75 297.606 182.721 297.454 182.693 297.302C182.665 297.15 182.636 296.998 182.604 296.845C182.604 296.793 182.583 296.745 182.571 296.693C182.527 296.493 182.478 296.293 182.425 296.089C182.372 295.885 182.34 295.765 182.291 295.605C182.291 295.533 182.25 295.461 182.226 295.393C182.202 295.325 182.157 295.161 182.121 295.045L182.048 294.82C182.015 294.72 181.983 294.62 181.946 294.52C181.885 294.34 181.82 294.164 181.755 293.984C181.69 293.804 181.621 293.628 181.552 293.452C181.414 293.092 181.264 292.735 181.114 292.379C180.525 290.994 179.864 289.63 179.255 288.277C178.928 287.568 178.638 286.843 178.386 286.104L178.309 286.212C178.186 286.396 178.076 286.589 177.98 286.788C177.98 289.938 174.782 293.792 174.782 293.792L171.563 289.17L168.745 293.44C168.34 293.652 167.934 294.38 167.617 295.417C167.528 295.697 167.442 296.001 167.361 296.325C167.304 296.541 167.252 296.769 167.203 296.998C167.175 297.114 167.15 297.23 167.126 297.35L167.053 297.714V297.77C167.004 298.018 166.955 298.274 166.911 298.534C166.866 298.794 166.813 299.095 166.769 299.379C166.736 299.563 166.708 299.747 166.683 299.931C166.627 300.287 166.578 300.647 166.529 301.004C166.501 301.212 166.472 301.404 166.448 301.624L166.35 302.424C166.558 303.081 166.789 303.729 167.028 304.365C167.181 304.714 167.271 305.087 167.292 305.466C172.273 306.869 177.554 306.869 182.535 305.466C182.533 305.453 182.533 305.439 182.535 305.426C182.46 305.067 182.427 304.7 182.437 304.333V304.333C182.519 303.307 182.655 302.285 182.843 301.272C182.903 300.772 182.929 300.27 182.92 299.767V299.587C182.908 299.435 182.904 299.291 182.9 299.147ZM182.9 299.147C182.9 298.987 182.9 298.826 182.872 298.666C182.843 298.506 182.847 298.366 182.827 298.214C182.807 298.062 182.79 297.91 182.77 297.758C182.75 297.606 182.721 297.454 182.693 297.302C182.665 297.15 182.636 296.998 182.604 296.845C182.604 296.793 182.583 296.745 182.571 296.693C182.527 296.493 182.478 296.293 182.425 296.089C182.372 295.885 182.34 295.765 182.291 295.605C182.291 295.533 182.25 295.461 182.226 295.393C182.202 295.325 182.157 295.161 182.121 295.045L182.048 294.82C182.015 294.72 181.983 294.62 181.946 294.52C181.885 294.34 181.82 294.164 181.755 293.984C181.69 293.804 181.621 293.628 181.552 293.452C181.414 293.092 181.264 292.735 181.114 292.379C180.525 290.994 179.864 289.63 179.255 288.277C178.928 287.568 178.638 286.843 178.386 286.104L178.309 286.212C178.186 286.396 178.076 286.589 177.98 286.788C177.98 289.938 174.782 293.792 174.782 293.792L171.563 289.17L168.745 293.44C168.34 293.652 167.934 294.38 167.617 295.417C167.528 295.697 167.442 296.001 167.361 296.325C167.304 296.541 167.252 296.769 167.203 296.998C167.175 297.114 167.15 297.23 167.126 297.35L167.053 297.714V297.77C167.004 298.018 166.955 298.274 166.911 298.534C166.866 298.794 166.813 299.095 166.769 299.379C166.736 299.563 166.708 299.747 166.683 299.931C166.627 300.287 166.578 300.647 166.529 301.004C166.501 301.212 166.472 301.404 166.448 301.624L166.35 302.424C166.558 303.081 166.789 303.729 167.028 304.365C167.181 304.714 167.271 305.087 167.292 305.466C172.273 306.869 177.554 306.869 182.535 305.466C182.533 305.453 182.533 305.439 182.535 305.426C182.46 305.067 182.427 304.7 182.437 304.333V304.333C182.519 303.307 182.655 302.285 182.843 301.272C182.903 300.772 182.929 300.27 182.92 299.767V299.587C182.908 299.435 182.904 299.291 182.9 299.147ZM182.9 299.147C182.9 298.987 182.9 298.826 182.872 298.666C182.843 298.506 182.847 298.366 182.827 298.214C182.807 298.062 182.79 297.91 182.77 297.758C182.75 297.606 182.721 297.454 182.693 297.302C182.665 297.15 182.636 296.998 182.604 296.845C182.604 296.793 182.583 296.745 182.571 296.693C182.527 296.493 182.478 296.293 182.425 296.089C182.372 295.885 182.34 295.765 182.291 295.605C182.291 295.533 182.25 295.461 182.226 295.393C182.202 295.325 182.157 295.161 182.121 295.045L182.048 294.82C182.015 294.72 181.983 294.62 181.946 294.52C181.885 294.34 181.82 294.164 181.755 293.984C181.69 293.804 181.621 293.628 181.552 293.452C181.414 293.092 181.264 292.735 181.114 292.379C180.525 290.994 179.864 289.63 179.255 288.277C178.928 287.568 178.638 286.843 178.386 286.104L178.309 286.212C178.186 286.396 178.076 286.589 177.98 286.788C177.98 289.938 174.782 293.792 174.782 293.792L171.563 289.17L168.745 293.44C168.34 293.652 167.934 294.38 167.617 295.417C167.528 295.697 167.442 296.001 167.361 296.325C167.304 296.541 167.252 296.769 167.203 296.998C167.175 297.114 167.15 297.23 167.126 297.35L167.053 297.714V297.77C167.004 298.018 166.955 298.274 166.911 298.534C166.866 298.794 166.813 299.095 166.769 299.379C166.736 299.563 166.708 299.747 166.683 299.931C166.627 300.287 166.578 300.647 166.529 301.004C166.501 301.212 166.472 301.404 166.448 301.624L166.35 302.424C166.558 303.081 166.789 303.729 167.028 304.365C167.181 304.714 167.271 305.087 167.292 305.466C172.273 306.869 177.554 306.869 182.535 305.466C182.533 305.453 182.533 305.439 182.535 305.426C182.46 305.067 182.427 304.7 182.437 304.333V304.333C182.519 303.307 182.655 302.285 182.843 301.272C182.903 300.772 182.929 300.27 182.92 299.767V299.587C182.908 299.435 182.904 299.291 182.9 299.147ZM187.203 291.635L185.754 285.932L185.506 284.955L185.437 284.687L185.084 283.295C185.085 283.283 185.085 283.27 185.084 283.258V283.258C185.092 283.197 185.082 283.134 185.055 283.078C185.003 282.974 184.869 282.866 184.556 282.838C184.437 282.83 184.318 282.83 184.199 282.838V282.838C183.846 282.873 183.497 282.937 183.156 283.03C182.989 283.074 182.811 283.122 182.62 283.182L182.271 283.291H182.238C181.303 283.593 180.435 284.068 179.681 284.691C179.183 285.101 178.745 285.578 178.382 286.108L178.305 286.216C178.181 286.4 178.072 286.593 177.976 286.792C177.976 289.942 174.777 293.796 174.777 293.796L171.558 289.174L171.376 288.913L171.343 288.869L170.877 288.193L170.523 287.729L170.43 287.609L168.766 285.42L168.238 284.711V284.687L168.055 284.443L167.706 283.987L166.489 284.687L163.444 286.436L162.04 295.445V295.541L162.08 296.197L162.381 301.212V301.496L161.922 303.301C163.148 303.953 164.424 304.509 165.738 304.966L166.083 305.086C166.489 305.218 166.87 305.338 167.268 305.454C167.283 305.513 167.293 305.573 167.3 305.634C167.3 305.578 167.3 305.518 167.3 305.462C172.281 306.865 177.562 306.865 182.543 305.462L182.636 305.434C182.867 305.37 183.103 305.302 183.33 305.226L183.7 305.11C184.701 304.779 185.683 304.392 186.639 303.949L186.975 296.793L187.219 291.683L187.203 291.635ZM167.239 305.454C167.254 305.513 167.265 305.573 167.272 305.634C167.272 305.578 167.272 305.518 167.272 305.462L167.239 305.454ZM182.9 299.147C182.9 298.987 182.9 298.826 182.872 298.666C182.843 298.506 182.847 298.366 182.827 298.214C182.807 298.062 182.79 297.91 182.77 297.758C182.75 297.606 182.721 297.454 182.693 297.302C182.665 297.15 182.636 296.998 182.604 296.845C182.604 296.793 182.583 296.745 182.571 296.693C182.527 296.493 182.478 296.293 182.425 296.089C182.372 295.885 182.34 295.765 182.291 295.605C182.291 295.533 182.25 295.461 182.226 295.393C182.202 295.325 182.157 295.161 182.121 295.045L182.048 294.82C182.015 294.72 181.983 294.62 181.946 294.52C181.885 294.34 181.82 294.164 181.755 293.984C181.69 293.804 181.621 293.628 181.552 293.452C181.414 293.092 181.264 292.735 181.114 292.379C180.525 290.994 179.864 289.63 179.255 288.277C178.928 287.568 178.638 286.843 178.386 286.104L178.309 286.212C178.186 286.396 178.076 286.589 177.98 286.788C177.98 289.938 174.782 293.792 174.782 293.792L171.563 289.17L168.745 293.44C168.34 293.652 167.934 294.38 167.617 295.417C167.528 295.697 167.442 296.001 167.361 296.325C167.304 296.541 167.252 296.769 167.203 296.998C167.175 297.114 167.15 297.23 167.126 297.35L167.053 297.714V297.77C167.004 298.018 166.955 298.274 166.911 298.534C166.866 298.794 166.813 299.095 166.769 299.379C166.736 299.563 166.708 299.747 166.683 299.931C166.627 300.287 166.578 300.647 166.529 301.004C166.501 301.212 166.472 301.404 166.448 301.624L166.35 302.424C166.558 303.081 166.789 303.729 167.028 304.365C167.181 304.714 167.271 305.087 167.292 305.466C172.273 306.869 177.554 306.869 182.535 305.466C182.533 305.453 182.533 305.439 182.535 305.426C182.46 305.067 182.427 304.7 182.437 304.333V304.333C182.519 303.307 182.655 302.285 182.843 301.272C182.903 300.772 182.929 300.27 182.92 299.767V299.587C182.908 299.435 182.904 299.291 182.9 299.147ZM182.9 299.147C182.9 298.987 182.9 298.826 182.872 298.666C182.843 298.506 182.847 298.366 182.827 298.214C182.807 298.062 182.79 297.91 182.77 297.758C182.75 297.606 182.721 297.454 182.693 297.302C182.665 297.15 182.636 296.998 182.604 296.845C182.604 296.793 182.583 296.745 182.571 296.693C182.527 296.493 182.478 296.293 182.425 296.089C182.372 295.885 182.34 295.765 182.291 295.605C182.291 295.533 182.25 295.461 182.226 295.393C182.202 295.325 182.157 295.161 182.121 295.045L182.048 294.82C182.015 294.72 181.983 294.62 181.946 294.52C181.885 294.34 181.82 294.164 181.755 293.984C181.69 293.804 181.621 293.628 181.552 293.452C181.414 293.092 181.264 292.735 181.114 292.379C180.525 290.994 179.864 289.63 179.255 288.277C178.928 287.568 178.638 286.843 178.386 286.104L178.309 286.212C178.186 286.396 178.076 286.589 177.98 286.788C177.98 289.938 174.782 293.792 174.782 293.792L171.563 289.17L168.745 293.44C168.34 293.652 167.934 294.38 167.617 295.417C167.528 295.697 167.442 296.001 167.361 296.325C167.304 296.541 167.252 296.769 167.203 296.998C167.175 297.114 167.15 297.23 167.126 297.35L167.053 297.714V297.77C167.004 298.018 166.955 298.274 166.911 298.534C166.866 298.794 166.813 299.095 166.769 299.379C166.736 299.563 166.708 299.747 166.683 299.931C166.627 300.287 166.578 300.647 166.529 301.004C166.501 301.212 166.472 301.404 166.448 301.624L166.35 302.424C166.558 303.081 166.789 303.729 167.028 304.365C167.181 304.714 167.271 305.087 167.292 305.466C172.273 306.869 177.554 306.869 182.535 305.466C182.533 305.453 182.533 305.439 182.535 305.426C182.46 305.067 182.427 304.7 182.437 304.333V304.333C182.519 303.307 182.655 302.285 182.843 301.272C182.903 300.772 182.929 300.27 182.92 299.767V299.587C182.908 299.435 182.904 299.291 182.9 299.147ZM182.9 299.147C182.9 298.987 182.9 298.826 182.872 298.666C182.843 298.506 182.847 298.366 182.827 298.214C182.807 298.062 182.79 297.91 182.77 297.758C182.75 297.606 182.721 297.454 182.693 297.302C182.665 297.15 182.636 296.998 182.604 296.845C182.604 296.793 182.583 296.745 182.571 296.693C182.527 296.493 182.478 296.293 182.425 296.089C182.372 295.885 182.34 295.765 182.291 295.605C182.291 295.533 182.25 295.461 182.226 295.393C182.202 295.325 182.157 295.161 182.121 295.045L182.048 294.82C182.015 294.72 181.983 294.62 181.946 294.52C181.885 294.34 181.82 294.164 181.755 293.984C181.69 293.804 181.621 293.628 181.552 293.452C181.414 293.092 181.264 292.735 181.114 292.379C180.525 290.994 179.864 289.63 179.255 288.277C178.928 287.568 178.638 286.843 178.386 286.104L178.309 286.212C178.186 286.396 178.076 286.589 177.98 286.788C177.98 289.938 174.782 293.792 174.782 293.792L171.563 289.17L168.745 293.44C168.34 293.652 167.934 294.38 167.617 295.417C167.528 295.697 167.442 296.001 167.361 296.325C167.304 296.541 167.252 296.769 167.203 296.998C167.175 297.114 167.15 297.23 167.126 297.35L167.053 297.714V297.77C167.004 298.018 166.955 298.274 166.911 298.534C166.866 298.794 166.813 299.095 166.769 299.379C166.736 299.563 166.708 299.747 166.683 299.931C166.627 300.287 166.578 300.647 166.529 301.004C166.501 301.212 166.472 301.404 166.448 301.624L166.35 302.424C166.558 303.081 166.789 303.729 167.028 304.365C167.181 304.714 167.271 305.087 167.292 305.466C172.273 306.869 177.554 306.869 182.535 305.466C182.533 305.453 182.533 305.439 182.535 305.426C182.46 305.067 182.427 304.7 182.437 304.333V304.333C182.519 303.307 182.655 302.285 182.843 301.272C182.903 300.772 182.929 300.27 182.92 299.767V299.587C182.908 299.435 182.904 299.291 182.9 299.147ZM182.9 299.147C182.9 298.987 182.9 298.826 182.872 298.666C182.843 298.506 182.847 298.366 182.827 298.214C182.807 298.062 182.79 297.91 182.77 297.758C182.75 297.606 182.721 297.454 182.693 297.302C182.665 297.15 182.636 296.998 182.604 296.845C182.604 296.793 182.583 296.745 182.571 296.693C182.527 296.493 182.478 296.293 182.425 296.089C182.372 295.885 182.34 295.765 182.291 295.605C182.291 295.533 182.25 295.461 182.226 295.393C182.202 295.325 182.157 295.161 182.121 295.045L182.048 294.82C182.015 294.72 181.983 294.62 181.946 294.52C181.885 294.34 181.82 294.164 181.755 293.984C181.69 293.804 181.621 293.628 181.552 293.452C181.414 293.092 181.264 292.735 181.114 292.379C180.525 290.994 179.864 289.63 179.255 288.277C178.928 287.568 178.638 286.843 178.386 286.104L178.309 286.212C178.186 286.396 178.076 286.589 177.98 286.788C177.98 289.938 174.782 293.792 174.782 293.792L171.563 289.17L168.745 293.44C168.34 293.652 167.934 294.38 167.617 295.417C167.528 295.697 167.442 296.001 167.361 296.325C167.304 296.541 167.252 296.769 167.203 296.998C167.175 297.114 167.15 297.23 167.126 297.35L167.053 297.714V297.77C167.004 298.018 166.955 298.274 166.911 298.534C166.866 298.794 166.813 299.095 166.769 299.379C166.736 299.563 166.708 299.747 166.683 299.931C166.627 300.287 166.578 300.647 166.529 301.004C166.501 301.212 166.472 301.404 166.448 301.624L166.35 302.424C166.558 303.081 166.789 303.729 167.028 304.365C167.181 304.714 167.271 305.087 167.292 305.466C172.273 306.869 177.554 306.869 182.535 305.466C182.533 305.453 182.533 305.439 182.535 305.426C182.46 305.067 182.427 304.7 182.437 304.333V304.333C182.519 303.307 182.655 302.285 182.843 301.272C182.903 300.772 182.929 300.27 182.92 299.767V299.587C182.908 299.435 182.904 299.291 182.9 299.147ZM182.9 299.147C182.9 298.987 182.9 298.826 182.872 298.666C182.843 298.506 182.847 298.366 182.827 298.214C182.807 298.062 182.79 297.91 182.77 297.758C182.75 297.606 182.721 297.454 182.693 297.302C182.665 297.15 182.636 296.998 182.604 296.845C182.604 296.793 182.583 296.745 182.571 296.693C182.527 296.493 182.478 296.293 182.425 296.089C182.372 295.885 182.34 295.765 182.291 295.605C182.291 295.533 182.25 295.461 182.226 295.393C182.202 295.325 182.157 295.161 182.121 295.045L182.048 294.82C182.015 294.72 181.983 294.62 181.946 294.52C181.885 294.34 181.82 294.164 181.755 293.984C181.69 293.804 181.621 293.628 181.552 293.452C181.414 293.092 181.264 292.735 181.114 292.379C180.525 290.994 179.864 289.63 179.255 288.277C178.928 287.568 178.638 286.843 178.386 286.104L178.309 286.212C178.186 286.396 178.076 286.589 177.98 286.788C177.98 289.938 174.782 293.792 174.782 293.792L171.563 289.17L168.745 293.44C168.34 293.652 167.934 294.38 167.617 295.417C167.528 295.697 167.442 296.001 167.361 296.325C167.304 296.541 167.252 296.769 167.203 296.998C167.175 297.114 167.15 297.23 167.126 297.35L167.053 297.714V297.77C167.004 298.018 166.955 298.274 166.911 298.534C166.866 298.794 166.813 299.095 166.769 299.379C166.736 299.563 166.708 299.747 166.683 299.931C166.627 300.287 166.578 300.647 166.529 301.004C166.501 301.212 166.472 301.404 166.448 301.624L166.35 302.424C166.558 303.081 166.789 303.729 167.028 304.365C167.181 304.714 167.271 305.087 167.292 305.466C172.273 306.869 177.554 306.869 182.535 305.466C182.533 305.453 182.533 305.439 182.535 305.426C182.46 305.067 182.427 304.7 182.437 304.333V304.333C182.519 303.307 182.655 302.285 182.843 301.272C182.903 300.772 182.929 300.27 182.92 299.767V299.587C182.908 299.435 182.904 299.291 182.9 299.147ZM182.9 299.147C182.9 298.987 182.9 298.826 182.872 298.666C182.843 298.506 182.847 298.366 182.827 298.214C182.807 298.062 182.79 297.91 182.77 297.758C182.75 297.606 182.721 297.454 182.693 297.302C182.665 297.15 182.636 296.998 182.604 296.845C182.604 296.793 182.583 296.745 182.571 296.693C182.527 296.493 182.478 296.293 182.425 296.089C182.372 295.885 182.34 295.765 182.291 295.605C182.291 295.533 182.25 295.461 182.226 295.393C182.202 295.325 182.157 295.161 182.121 295.045L182.048 294.82C182.015 294.72 181.983 294.62 181.946 294.52C181.885 294.34 181.82 294.164 181.755 293.984C181.69 293.804 181.621 293.628 181.552 293.452C181.414 293.092 181.264 292.735 181.114 292.379C180.525 290.994 179.864 289.63 179.255 288.277C178.928 287.568 178.638 286.843 178.386 286.104L178.309 286.212C178.186 286.396 178.076 286.589 177.98 286.788C177.98 289.938 174.782 293.792 174.782 293.792L171.563 289.17L168.745 293.44C168.34 293.652 167.934 294.38 167.617 295.417C167.528 295.697 167.442 296.001 167.361 296.325C167.304 296.541 167.252 296.769 167.203 296.998C167.175 297.114 167.15 297.23 167.126 297.35L167.053 297.714V297.77C167.004 298.018 166.955 298.274 166.911 298.534C166.866 298.794 166.813 299.095 166.769 299.379C166.736 299.563 166.708 299.747 166.683 299.931C166.627 300.287 166.578 300.647 166.529 301.004C166.501 301.212 166.472 301.404 166.448 301.624L166.35 302.424C166.558 303.081 166.789 303.729 167.028 304.365C167.181 304.714 167.271 305.087 167.292 305.466C172.273 306.869 177.554 306.869 182.535 305.466C182.533 305.453 182.533 305.439 182.535 305.426C182.46 305.067 182.427 304.7 182.437 304.333V304.333C182.519 303.307 182.655 302.285 182.843 301.272C182.903 300.772 182.929 300.27 182.92 299.767V299.587C182.908 299.435 182.904 299.291 182.9 299.147ZM182.9 299.147C182.9 298.987 182.9 298.826 182.872 298.666C182.843 298.506 182.847 298.366 182.827 298.214C182.807 298.062 182.79 297.91 182.77 297.758C182.75 297.606 182.721 297.454 182.693 297.302C182.665 297.15 182.636 296.998 182.604 296.845C182.604 296.793 182.583 296.745 182.571 296.693C182.527 296.493 182.478 296.293 182.425 296.089C182.372 295.885 182.34 295.765 182.291 295.605C182.291 295.533 182.25 295.461 182.226 295.393C182.202 295.325 182.157 295.161 182.121 295.045L182.048 294.82C182.015 294.72 181.983 294.62 181.946 294.52C181.885 294.34 181.82 294.164 181.755 293.984C181.69 293.804 181.621 293.628 181.552 293.452C181.414 293.092 181.264 292.735 181.114 292.379C180.525 290.994 179.864 289.63 179.255 288.277C178.928 287.568 178.638 286.843 178.386 286.104L178.309 286.212C178.186 286.396 178.076 286.589 177.98 286.788C177.98 289.938 174.782 293.792 174.782 293.792L171.563 289.17L168.745 293.44C168.34 293.652 167.934 294.38 167.617 295.417C167.528 295.697 167.442 296.001 167.361 296.325C167.304 296.541 167.252 296.769 167.203 296.998C167.175 297.114 167.15 297.23 167.126 297.35L167.053 297.714V297.77C167.004 298.018 166.955 298.274 166.911 298.534C166.866 298.794 166.813 299.095 166.769 299.379C166.736 299.563 166.708 299.747 166.683 299.931C166.627 300.287 166.578 300.647 166.529 301.004C166.501 301.212 166.472 301.404 166.448 301.624L166.35 302.424C166.558 303.081 166.789 303.729 167.028 304.365C167.181 304.714 167.271 305.087 167.292 305.466C172.273 306.869 177.554 306.869 182.535 305.466C182.533 305.453 182.533 305.439 182.535 305.426C182.46 305.067 182.427 304.7 182.437 304.333V304.333C182.519 303.307 182.655 302.285 182.843 301.272C182.903 300.772 182.929 300.27 182.92 299.767V299.587C182.908 299.435 182.904 299.291 182.9 299.147ZM182.9 299.147C182.9 298.987 182.9 298.826 182.872 298.666C182.843 298.506 182.847 298.366 182.827 298.214C182.807 298.062 182.79 297.91 182.77 297.758C182.75 297.606 182.721 297.454 182.693 297.302C182.665 297.15 182.636 296.998 182.604 296.845C182.604 296.793 182.583 296.745 182.571 296.693C182.527 296.493 182.478 296.293 182.425 296.089C182.372 295.885 182.34 295.765 182.291 295.605C182.291 295.533 182.25 295.461 182.226 295.393C182.202 295.325 182.157 295.161 182.121 295.045L182.048 294.82C182.015 294.72 181.983 294.62 181.946 294.52C181.885 294.34 181.82 294.164 181.755 293.984C181.69 293.804 181.621 293.628 181.552 293.452C181.414 293.092 181.264 292.735 181.114 292.379C180.525 290.994 179.864 289.63 179.255 288.277C178.928 287.568 178.638 286.843 178.386 286.104L178.309 286.212C178.186 286.396 178.076 286.589 177.98 286.788C177.98 289.938 174.782 293.792 174.782 293.792L171.563 289.17L168.745 293.44C168.34 293.652 167.934 294.38 167.617 295.417C167.528 295.697 167.442 296.001 167.361 296.325C167.304 296.541 167.252 296.769 167.203 296.998C167.175 297.114 167.15 297.23 167.126 297.35L167.053 297.714V297.77C167.004 298.018 166.955 298.274 166.911 298.534C166.866 298.794 166.813 299.095 166.769 299.379C166.736 299.563 166.708 299.747 166.683 299.931C166.627 300.287 166.578 300.647 166.529 301.004C166.501 301.212 166.472 301.404 166.448 301.624L166.35 302.424C166.558 303.081 166.789 303.729 167.028 304.365C167.181 304.714 167.271 305.087 167.292 305.466C172.273 306.869 177.554 306.869 182.535 305.466C182.533 305.453 182.533 305.439 182.535 305.426C182.46 305.067 182.427 304.7 182.437 304.333V304.333C182.519 303.307 182.655 302.285 182.843 301.272C182.903 300.772 182.929 300.27 182.92 299.767V299.587C182.908 299.435 182.904 299.291 182.9 299.147Z" fill="#444176"/>
<path opacity="0.1" d="M171.62 288.903L171.348 288.867C170.938 288.812 170.531 288.732 170.131 288.626L169.98 288.586C168.99 288.31 167.906 287.814 167.663 286.942C167.59 286.661 167.598 286.366 167.687 286.089C167.823 285.613 168.008 285.152 168.239 284.712V284.688C168.269 284.627 168.303 284.567 168.34 284.508C168.675 283.863 169.182 283.319 169.806 282.936L169.319 283.012L165.195 283.672L158.801 284.688C158.801 284.688 157.665 284.464 156.118 288.666C156.118 288.719 156.082 288.767 156.065 288.823C155.692 289.851 155.298 291.136 154.892 292.741C154.612 293.853 154.356 294.946 154.121 296.006C154.052 296.326 153.983 296.643 153.918 296.955C154.65 297.805 155.438 298.607 156.276 299.356L156.41 299.48C158.053 300.947 159.868 302.214 161.817 303.254L161.894 303.294C163.12 303.946 164.396 304.503 165.71 304.959L166.055 305.079C166.128 304.339 166.209 303.518 166.307 302.678C166.307 302.594 166.307 302.51 166.339 302.426L166.437 301.625C166.461 301.421 166.489 301.225 166.518 301.005C166.567 300.649 166.615 300.288 166.672 299.932C166.696 299.748 166.725 299.564 166.757 299.38C166.802 299.096 166.851 298.812 166.899 298.536C166.948 298.259 166.993 298.019 167.041 297.771V297.715L167.115 297.351C167.139 297.231 167.163 297.115 167.192 296.999C167.24 296.771 167.293 296.543 167.35 296.326C167.431 296.002 167.516 295.698 167.606 295.418C167.93 294.381 168.308 293.653 168.734 293.441L171.551 289.171L171.669 288.991L171.722 288.911L171.62 288.903Z" fill="black"/>
<path opacity="0.1" d="M172.297 267.595C173.564 267.383 174.838 266.927 176.097 267.195C177.152 267.411 178.033 268.103 178.999 268.584C179.932 269.046 180.952 269.312 181.995 269.364C182.375 269.413 182.761 269.339 183.095 269.152C183.598 268.808 183.671 268.103 183.586 267.503C183.342 265.798 182.262 264.333 181.15 263.005C180.706 262.437 180.194 261.925 179.624 261.48C178.167 260.419 176.239 260.239 174.432 260.319C172.37 260.411 170.276 260.804 168.485 261.824C167.268 262.513 164.475 264.682 165.445 266.25C166.464 267.891 170.702 267.863 172.297 267.595Z" fill="black"/>
<path opacity="0.5" d="M172.297 267.195C173.564 266.983 174.838 266.526 176.097 266.795C177.152 267.011 178.033 267.703 178.999 268.183C179.932 268.646 180.952 268.912 181.995 268.964C182.375 269.013 182.761 268.938 183.095 268.752C183.598 268.407 183.671 267.703 183.586 267.103C183.342 265.398 182.262 263.933 181.15 262.604C180.706 262.037 180.194 261.525 179.624 261.08C178.167 260.019 176.239 259.839 174.432 259.919C172.37 260.011 170.276 260.403 168.485 261.424C167.268 262.112 164.475 264.281 165.445 265.85C166.464 267.491 170.702 267.463 172.297 267.195Z" fill="#444176"/>
</g>
<path d="M338.984 214.199L228.115 125.924C227.47 125.287 226.704 124.782 225.86 124.438C225.017 124.093 224.113 123.917 223.201 123.918H218.49C227.904 111.999 232.362 96.98 230.955 81.9249C229.548 66.8697 222.382 52.9116 210.919 42.8966C199.455 32.8817 184.556 27.564 169.261 28.028C153.965 28.4919 139.425 34.7025 128.604 45.3934C117.784 56.0843 111.498 70.4504 111.028 85.5625C110.559 100.675 115.941 115.395 126.077 126.721C136.214 138.048 150.341 145.128 165.579 146.518C180.817 147.908 196.017 143.503 208.081 134.202V138.853C208.08 139.754 208.259 140.647 208.607 141.48C208.956 142.313 209.467 143.07 210.112 143.708L320.981 231.982C321.623 232.622 322.387 233.129 323.228 233.475C324.069 233.822 324.972 234 325.883 234C326.795 234 327.697 233.822 328.538 233.475C329.38 233.129 330.143 232.622 330.785 231.982L338.956 223.917C340.26 222.63 340.995 220.885 341 219.064C341.005 217.243 340.281 215.494 338.984 214.199V214.199ZM171.068 123.918C163.748 123.918 156.591 121.773 150.505 117.755C144.418 113.737 139.674 108.025 136.872 101.343C134.071 94.6607 133.338 87.3078 134.766 80.2139C136.194 73.1201 139.719 66.604 144.896 61.4896C150.072 56.3752 156.667 52.8923 163.847 51.4813C171.027 50.0702 178.469 50.7944 185.233 53.5623C191.996 56.3302 197.777 61.0174 201.844 67.0313C205.911 73.0451 208.081 80.1155 208.081 87.3483C208.085 92.1522 207.13 96.9096 205.272 101.349C203.413 105.788 200.687 109.821 197.249 113.218C193.812 116.615 189.73 119.31 185.238 121.147C180.745 122.984 175.93 123.929 171.068 123.926V123.918Z" fill="url(#paint2_linear)"/>
<path d="M338.993 213.295L228.606 125.449C227.963 124.815 227.201 124.312 226.361 123.969C225.521 123.627 224.622 123.451 223.713 123.452H219.023C228.396 111.591 232.835 96.6452 231.434 81.6631C230.033 66.681 222.898 52.7907 211.484 42.8243C200.07 32.858 185.236 27.5662 170.007 28.0279C154.778 28.4895 140.301 34.67 129.528 45.309C118.754 55.948 112.496 70.2443 112.028 85.2831C111.561 100.322 116.919 114.97 127.012 126.242C137.104 137.514 151.17 144.559 166.342 145.943C181.513 147.326 196.648 142.943 208.659 133.687V138.314C208.658 139.212 208.836 140.1 209.183 140.929C209.53 141.758 210.039 142.512 210.681 143.146L321.068 230.992C321.707 231.628 322.468 232.133 323.305 232.478C324.143 232.823 325.041 233 325.949 233C326.856 233 327.755 232.823 328.592 232.478C329.43 232.133 330.19 231.628 330.829 230.992L338.965 222.966C340.263 221.685 340.995 219.949 341 218.136C341.005 216.324 340.284 214.584 338.993 213.295ZM171.807 123.452C164.518 123.452 157.393 121.318 151.333 117.319C145.273 113.32 140.549 107.637 137.76 100.987C134.971 94.3371 134.241 87.0199 135.663 79.9605C137.085 72.9011 140.595 66.4166 145.748 61.327C150.902 56.2375 157.469 52.7715 164.617 51.3673C171.766 49.9631 179.176 50.6838 185.91 53.4382C192.644 56.1926 198.399 60.8571 202.449 66.8418C206.498 72.8265 208.659 79.8625 208.659 87.0602C208.663 91.8407 207.712 96.5751 205.862 100.993C204.011 105.41 201.297 109.424 197.874 112.804C194.452 116.185 190.388 118.866 185.915 120.695C181.442 122.523 176.648 123.463 171.807 123.46V123.452Z" fill="#36ABC5"/>
<path d="M175.256 102L184 95.4567C184 95.4567 178.142 96.6754 178.309 87.5922C178.307 87.562 178.307 87.5316 178.309 87.5014C178.309 86.6811 178.39 85.7818 178.512 84.7918C180.012 72.6716 168.02 83.3365 168.02 83.3365C168.123 84.4096 168.123 85.4897 168.02 86.5627C168.02 86.5904 168.02 86.6219 168.02 86.6495C167.783 89.6363 166.934 92.5473 165.524 95.2122C162.268 101.27 175.256 102 175.256 102Z" fill="#FDC2CC"/>
<path opacity="0.1" d="M169.166 84.3862C170.703 85.6691 171.641 88 173.953 88C175.625 88.0031 177.261 87.5819 178.655 86.7894C178.655 86.0377 178.739 85.2138 178.866 84.3067C180.419 73.2016 168 82.9732 168 82.9732C168 82.9732 169.33 82.5793 169.166 84.3862Z" fill="black"/>
<path d="M174 88C178.418 88 182 84.4183 182 80C182 75.5817 178.418 72 174 72C169.582 72 166 75.5817 166 80C166 84.4183 169.582 88 174 88Z" fill="#FDC2CC"/>
<path opacity="0.1" d="M181.729 69.1147C181.261 68.524 180.72 67.9948 180.119 67.5395C179.177 66.7559 178.131 65.9321 176.96 66.0044C176.297 66.0925 175.66 66.3199 175.092 66.6715C172.174 68.2065 169.756 66.7559 166.363 71.3208C165.638 72.2973 164.186 72.5264 163.437 73.5511C162.688 74.5758 162.387 75.922 162.173 77.232C161.997 78.1181 161.955 79.0257 162.049 79.9243C162.138 80.8063 162.572 81.6177 163.256 82.1827C164.037 82.7493 165.111 82.7533 165.767 83.4967C166.097 83.9809 166.367 84.5031 166.572 85.0519C166.838 85.5743 167.305 86.0685 167.836 85.9922C168.367 85.9158 168.685 85.3412 168.761 84.7866C168.795 84.2127 168.761 83.6369 168.661 83.0708C168.56 82.0541 168.689 80.945 169.289 80.1775C169.691 79.6511 170.295 79.3376 170.693 78.8032C171.651 77.5133 171.217 75.3473 172.267 74.1498C172.574 73.8349 172.959 73.6068 173.384 73.489C173.808 73.3711 174.256 73.3676 174.682 73.4787C175.528 73.7198 176.339 74.0683 177.096 74.5155C178.153 75.048 179.26 75.4747 180.401 75.7893C181.358 76.0505 182.469 76.6774 182.795 75.3875C183.306 73.4908 182.827 70.6297 181.729 69.1147Z" fill="black"/>
<path d="M181.729 69.1147C181.261 68.524 180.72 67.9948 180.119 67.5395C179.177 66.7559 178.131 65.9321 176.96 66.0044C176.297 66.0925 175.66 66.3199 175.092 66.6715C172.174 68.2065 169.756 66.7559 166.363 71.3208C165.638 72.2973 164.186 72.5264 163.437 73.5511C162.688 74.5758 162.387 75.922 162.173 77.232C161.997 78.1181 161.955 79.0257 162.049 79.9243C162.138 80.8063 162.572 81.6177 163.256 82.1827C164.037 82.7493 165.111 82.7533 165.767 83.4967C166.097 83.9809 166.367 84.5031 166.572 85.0519C166.838 85.5743 167.305 86.0685 167.836 85.9922C168.367 85.9158 168.685 85.3412 168.761 84.7866C168.795 84.2127 168.761 83.6369 168.661 83.0708C168.56 82.0541 168.689 80.945 169.289 80.1775C169.691 79.6511 170.295 79.3376 170.693 78.8032C171.651 77.5133 171.217 75.3473 172.267 74.1498C172.574 73.8349 172.959 73.6068 173.384 73.489C173.808 73.3711 174.256 73.3676 174.682 73.4787C175.528 73.7198 176.339 74.0683 177.096 74.5155C178.153 75.048 179.26 75.4747 180.401 75.7893C181.358 76.0505 182.469 76.6774 182.795 75.3875C183.306 73.4908 182.827 70.6297 181.729 69.1147Z" fill="#865A61"/>
<path opacity="0.1" d="M166.213 105.855L166.052 112.044C168.391 112.681 170.805 113.003 173.228 113C173.631 113 174.053 113 174.464 112.972C176.613 112.879 178.744 112.53 180.81 111.931H180.851C181.233 111.819 181.611 111.702 181.985 111.573H182.026L182.368 111.452C183.67 110.992 184.935 110.431 186.151 109.774L186.227 109.734C186.36 109.661 186.493 109.589 186.63 109.512L186.006 101.169L187 95.4476L181.559 91.7339C181.253 92.1758 180.911 92.5912 180.537 92.9758C180 93.5379 179.371 94.0042 178.677 94.3548C174.774 96.2823 170.331 93.2177 168.121 91.3226L167.618 90.875C167.047 90.3548 166.721 90 166.721 90L164 94.2097L166.213 105.855Z" fill="black"/>
<path d="M166.213 106.855L166.052 113.044C168.391 113.681 170.805 114.003 173.228 114C173.631 114 174.053 114 174.464 113.972C176.613 113.879 178.744 113.53 180.81 112.931H180.851C181.233 112.819 181.611 112.702 181.985 112.573H182.026L182.368 112.452C183.67 111.992 184.935 111.431 186.151 110.774L186.227 110.734C186.36 110.661 186.493 110.589 186.63 110.512L186.006 102.169L187 96.4476L181.559 92.7339C181.253 93.1758 180.911 93.5912 180.537 93.9758C180 94.5379 179.371 95.0042 178.677 95.3548C174.774 97.2823 170.331 94.2177 168.121 92.3226L167.618 91.875C167.047 91.3548 166.721 91 166.721 91L164 95.2097L166.213 106.855Z" fill="#53526B"/>
<path d="M181.224 106.838C181.224 106.838 181.52 109.189 181.908 112H181.948L182.288 111.88C183.583 111.425 184.84 110.87 186.048 110.219L186.124 110.179C186.256 110.108 186.388 110.036 186.524 109.96C188.297 108.967 189.953 107.777 191.46 106.415L191.592 106.291C192.418 105.544 193.195 104.744 193.916 103.896L194 103.796C192.572 98.8492 189.6 97.2921 189.6 97.2921C189.6 97.2921 186.896 96.0625 186.156 94.3458C185.416 92.6291 178.884 89 178.884 89V89.0279C178.884 89.3354 178.78 92.15 178.624 94.9806C178.524 96.821 178.4 98.6695 178.256 99.8433C178.225 100.225 178.155 100.602 178.048 100.969C177.54 102.179 181.224 106.838 181.224 106.838Z" fill="#555388"/>
<defs>
<linearGradient id="paint0_linear" x1="258" y1="334.004" x2="258" y2="32" gradientUnits="userSpaceOnUse">
<stop stop-color="#808080" stop-opacity="0.25"/>
<stop offset="0.54" stop-color="#808080" stop-opacity="0.12"/>
<stop offset="1" stop-color="#808080" stop-opacity="0.1"/>
</linearGradient>
<linearGradient id="paint1_linear" x1="15231.8" y1="24808.7" x2="15231.8" y2="18947.3" gradientUnits="userSpaceOnUse">
<stop stop-color="#808080" stop-opacity="0.25"/>
<stop offset="0.54" stop-color="#808080" stop-opacity="0.12"/>
<stop offset="1" stop-color="#808080" stop-opacity="0.1"/>
</linearGradient>
<linearGradient id="paint2_linear" x1="110168" y1="117067" x2="110168" y2="11269.4" gradientUnits="userSpaceOnUse">
<stop stop-color="#808080" stop-opacity="0.25"/>
<stop offset="0.54" stop-color="#808080" stop-opacity="0.12"/>
<stop offset="1" stop-color="#808080" stop-opacity="0.1"/>
</linearGradient>
</defs>
</svg>
