<svg width="550" height="350" viewBox="0 0 550 350" fill="none" xmlns="http://www.w3.org/2000/svg">
<path opacity="0.1" d="M469.082 119.937C467.308 53.4311 404.598 0 327.479 0C289.759 0 255.515 12.7885 230.109 33.6538C177.298 37.9167 132.899 67.3077 112.996 107.939C52.5381 121.911 8 169.733 8 226.603C8 294.471 71.4088 349.439 149.632 349.439C172.609 349.416 195.159 344.646 214.938 335.624C233.484 343.675 254.341 348.027 275.618 348.285C296.896 348.542 317.919 344.698 336.784 337.099C356.039 345.524 377.788 349.968 399.923 350C478.147 350 541.556 295.032 541.556 227.163C541.556 181.091 512.326 140.965 469.082 119.937Z" fill="#36ABC5"/>
<path d="M177.957 33.9531C171.87 33.96 166.035 36.3809 161.731 40.6846C157.428 44.9883 155.007 50.8234 155 56.9098V321.384C155.007 327.471 157.428 333.306 161.732 337.609C166.035 341.913 171.87 344.334 177.957 344.341H371.968C378.054 344.334 383.889 341.913 388.193 337.609C392.496 333.305 394.917 327.47 394.924 321.384V56.9098C394.917 50.8235 392.497 44.9884 388.193 40.6847C383.889 36.381 378.054 33.9601 371.968 33.9531H177.957Z" fill="#3F3D56"/>
<path d="M382.986 50.2578H166.938V328.034H382.986V50.2578Z" fill="white"/>
<path d="M354.743 100.047H195.182V110.529H354.743V100.047Z" fill="#36ABC5"/>
<path d="M354.743 128H195.182V138.482H354.743V128Z" fill="#36ABC5"/>
<path d="M354.743 155.953H195.182V166.435H354.743V155.953Z" fill="#36ABC5"/>
<path d="M354.743 183.906H195.182V194.388H354.743V183.906Z" fill="#36ABC5"/>
<path d="M354.743 211.857H195.182V222.34H354.743V211.857Z" fill="#36ABC5"/>
<path d="M354.743 239.809H195.182V250.291H354.743V239.809Z" fill="#36ABC5"/>
<path d="M354.743 267.762H195.182V278.244H354.743V267.762Z" fill="#36ABC5"/>
<path d="M356.989 32.6449L198.77 61.5996L235.997 265.025L394.217 236.071L356.989 32.6449Z" fill="#F0F0F0"/>
<path d="M342.977 72.893L226.125 94.2773L227.53 101.954L344.382 80.5695L342.977 72.893Z" fill="#36ABC5"/>
<path d="M346.724 93.3637L229.871 114.748L231.276 122.424L348.128 101.04L346.724 93.3637Z" fill="#36ABC5"/>
<path d="M350.47 113.834L233.617 135.219L235.022 142.895L351.874 121.511L350.47 113.834Z" fill="#36ABC5"/>
<path d="M354.216 134.305L237.363 155.689L238.768 163.366L355.621 141.982L354.216 134.305Z" fill="#36ABC5"/>
<path d="M357.961 154.776L241.109 176.16L242.514 183.837L359.366 162.453L357.961 154.776Z" fill="#36ABC5"/>
<path d="M361.708 175.245L244.855 196.629L246.26 204.305L363.113 182.921L361.708 175.245Z" fill="#36ABC5"/>
<path d="M365.454 195.717L248.602 217.102L250.006 224.778L366.859 203.394L365.454 195.717Z" fill="#36ABC5"/>
<path d="M314.965 20.5585H295.927V16.661C295.927 13.8335 294.803 11.1218 292.804 9.12252C290.805 7.1232 288.093 6 285.266 6H264.659C261.832 6 259.12 7.12321 257.121 9.12252C255.121 11.1218 253.998 13.8335 253.998 16.661V20.5585H234.96C233.56 20.5585 232.173 20.8343 230.88 21.37C229.587 21.9058 228.411 22.6911 227.421 23.681C226.431 24.671 225.646 25.8462 225.11 27.1397C224.575 28.4331 224.299 29.8195 224.299 31.2195V60.74H325.626V31.2195C325.626 29.8195 325.35 28.4331 324.815 27.1397C324.279 25.8462 323.494 24.671 322.504 23.681C321.514 22.6911 320.338 21.9058 319.045 21.37C317.751 20.8343 316.365 20.5585 314.965 20.5585Z" fill="#3F3D56"/>
<path d="M268.127 307.835C271.275 305.681 274.51 303.44 278.249 302.461C281.659 301.567 285.575 301.804 288.273 304.301C290.45 306.316 291.369 309.414 289.756 312.065C289.41 312.67 288.94 313.195 288.376 313.605C287.813 314.015 287.169 314.3 286.487 314.444C285.828 314.531 285.158 314.449 284.539 314.207C283.92 313.966 283.372 313.571 282.947 313.061C282.101 312.126 281.595 310.745 282.045 309.513C282.517 308.218 283.781 307.426 285.023 306.983C286.468 306.526 287.956 306.218 289.464 306.066L295.642 305.22L320.925 301.759L349.081 297.905C349.303 297.842 349.492 297.694 349.606 297.493C349.721 297.291 349.751 297.053 349.691 296.83C349.625 296.61 349.476 296.424 349.276 296.31C349.076 296.197 348.84 296.164 348.617 296.22L292.591 303.89C290.565 304.167 288.51 304.366 286.504 304.773C284.926 305.029 283.429 305.65 282.134 306.589C279.45 308.713 279.642 312.472 282.112 314.695C284.612 316.945 288.237 316.557 290.431 314.072C291.54 312.814 292.198 311.223 292.302 309.549C292.406 307.875 291.948 306.214 291.003 304.829C288.608 301.218 284.244 299.83 280.074 300.343C275.251 300.935 271.163 303.646 267.246 306.326C266.324 306.957 267.196 308.472 268.127 307.835Z" fill="#3F3D56"/>
</svg>
