<svg width="550" height="350" viewBox="0 0 550 350" fill="none" xmlns="http://www.w3.org/2000/svg">
<path opacity="0.1" d="M469.102 119.937C467.328 53.4311 404.615 0 327.493 0C289.772 0 255.525 12.7885 230.118 33.6538C177.306 37.9167 132.904 67.3077 113 107.939C52.54 121.911 8 169.733 8 226.603C8 294.471 71.4115 349.439 149.638 349.439C172.616 349.416 195.167 344.646 214.947 335.624C233.494 343.675 254.352 348.027 275.63 348.285C296.908 348.542 317.933 344.698 336.798 337.099C356.054 345.524 377.804 349.968 399.94 350C478.167 350 541.578 295.032 541.578 227.163C541.578 181.091 512.348 140.965 469.102 119.937Z" fill="#36ABC5"/>
<path d="M240 296C238.724 296 237.434 295.98 236.168 295.94L236.197 295.021C238.015 295.078 239.869 295.093 241.695 295.068L241.708 295.988C241.139 295.996 240.57 296 240 296ZM247.244 295.787L247.19 294.868C249.01 294.761 250.854 294.61 252.669 294.42L252.765 295.335C250.936 295.526 249.078 295.679 247.244 295.787ZM230.637 295.643C228.802 295.503 226.947 295.318 225.124 295.095L225.237 294.182C227.046 294.403 228.886 294.587 230.707 294.726L230.637 295.643ZM258.26 294.631L258.122 293.722C259.93 293.448 261.753 293.129 263.537 292.775L263.716 293.677C261.918 294.034 260.082 294.355 258.26 294.631ZM219.643 294.295C217.83 293.988 216 293.634 214.204 293.244L214.399 292.345C216.181 292.732 217.997 293.083 219.797 293.387L219.643 294.295ZM269.124 292.472L268.903 291.579C270.678 291.14 272.463 290.655 274.208 290.137L274.47 291.02C272.711 291.541 270.912 292.03 269.124 292.472ZM208.819 291.945C207.04 291.472 205.25 290.951 203.499 290.397L203.776 289.52C205.514 290.07 207.29 290.586 209.055 291.055L208.819 291.945ZM279.743 289.322L279.441 288.453C281.164 287.854 282.896 287.206 284.591 286.528L284.933 287.383C283.225 288.066 281.479 288.718 279.743 289.322ZM198.243 288.601C196.515 287.966 194.777 287.281 193.077 286.565L193.434 285.717C195.121 286.427 196.846 287.107 198.56 287.738L198.243 288.601ZM290.016 285.211L289.635 284.374C291.289 283.622 292.952 282.82 294.577 281.989L294.996 282.808C293.358 283.645 291.683 284.454 290.016 285.211ZM299.861 280.179L299.406 279.38C300.992 278.474 302.576 277.523 304.112 276.551L304.603 277.328C303.056 278.308 301.46 279.267 299.861 280.179ZM309.211 274.263L308.685 273.509C310.179 272.466 311.669 271.372 313.116 270.261L313.676 270.991C312.219 272.111 310.717 273.212 309.211 274.263ZM168.968 272.967C167.483 271.889 166 270.759 164.559 269.608L165.133 268.889C166.563 270.031 168.035 271.152 169.509 272.223L168.968 272.967ZM317.988 267.518L317.395 266.814C318.788 265.639 320.173 264.415 321.514 263.175L322.139 263.85C320.788 265.1 319.391 266.334 317.988 267.518ZM160.307 266.052C158.924 264.841 157.55 263.581 156.223 262.307L156.86 261.643C158.177 262.907 159.541 264.158 160.913 265.36L160.307 266.052ZM326.119 259.997L325.464 259.351C326.748 258.05 328.017 256.704 329.237 255.35L329.921 255.966C328.692 257.33 327.413 258.686 326.119 259.997ZM152.315 258.381C151.046 257.047 149.793 255.667 148.59 254.282L149.285 253.679C150.478 255.054 151.722 256.423 152.982 257.747L152.315 258.381ZM333.536 251.765L332.825 251.181C333.984 249.77 335.126 248.314 336.219 246.852L336.956 247.403C335.855 248.876 334.704 250.344 333.536 251.765ZM145.056 250.018C143.916 248.578 142.794 247.092 141.721 245.6L142.467 245.062C143.533 246.543 144.646 248.018 145.777 249.448L145.056 250.018ZM340.174 242.889L339.413 242.372C340.439 240.861 341.444 239.306 342.4 237.749L343.184 238.231C342.22 239.799 341.208 241.366 340.174 242.889ZM138.591 241.035C137.589 239.498 136.607 237.916 135.674 236.333L136.467 235.866C137.393 237.437 138.367 239.007 139.362 240.532L138.591 241.035ZM345.978 233.439L345.173 232.994C346.056 231.395 346.914 229.754 347.724 228.114L348.549 228.522C347.733 230.174 346.868 231.828 345.978 233.439ZM350.892 223.491L350.049 223.122C350.782 221.447 351.486 219.733 352.142 218.025L353.001 218.355C352.34 220.076 351.63 221.804 350.892 223.491ZM128.26 221.506C127.555 219.813 126.879 218.081 126.252 216.357L127.117 216.043C127.739 217.753 128.409 219.472 129.109 221.152L128.26 221.506ZM354.871 213.125L353.997 212.836C354.571 211.106 355.113 209.337 355.608 207.579L356.494 207.828C355.995 209.6 355.449 211.382 354.871 213.125ZM124.48 211.109C123.932 209.355 123.418 207.564 122.951 205.784L123.841 205.55C124.304 207.317 124.815 209.095 125.358 210.835L124.48 211.109ZM357.87 202.462L356.973 202.253C357.385 200.48 357.762 198.669 358.093 196.871L358.998 197.037C358.665 198.849 358.285 200.674 357.87 202.462ZM121.67 200.394C121.286 198.597 120.939 196.766 120.637 194.951L121.545 194.8C121.844 196.602 122.189 198.419 122.569 200.202L121.67 200.394ZM359.875 191.568L358.963 191.443C359.21 189.641 359.419 187.803 359.584 185.981L360.501 186.064C360.335 187.901 360.124 189.752 359.875 191.568ZM119.856 189.467C119.639 187.646 119.461 185.791 119.326 183.953L120.244 183.886C120.378 185.71 120.555 187.551 120.77 189.358L119.856 189.467ZM360.876 180.538L359.956 180.496C360.038 178.673 360.08 176.824 360.08 175H361C361 176.838 360.958 178.701 360.876 180.538ZM119.048 178.42C119.016 177.292 119 176.141 119 175C119 174.292 119.006 173.585 119.018 172.88L119.938 172.896C119.926 173.596 119.92 174.297 119.92 175C119.92 176.133 119.936 177.275 119.967 178.395L119.048 178.42ZM120.157 167.403L119.238 167.345C119.353 165.507 119.512 163.65 119.709 161.826L120.624 161.925C120.428 163.735 120.271 165.578 120.157 167.403ZM359.486 161.789C359.302 159.975 359.049 159.091 358.782 157.284L359.693 157.15C359.961 158.97 360.192 160.359 360.377 162.187L359.486 161.789ZM121.34 156.475L120.431 156.334C120.713 154.514 121.04 152.679 121.405 150.88L122.306 151.063C121.945 152.848 121.62 154.668 121.34 156.475ZM357.854 151.867C357.503 150.072 357.107 148.265 356.676 146.496L357.571 146.279C358.004 148.061 358.403 149.882 358.757 151.69L357.854 151.867ZM123.52 145.701L122.627 145.477C123.074 143.695 123.569 141.898 124.098 140.136L124.979 140.401C124.454 142.149 123.963 143.933 123.52 145.701ZM355.253 141.186C354.74 139.434 354.179 137.672 353.587 135.947L354.456 135.648C355.054 137.386 355.619 139.162 356.136 140.927L355.253 141.186ZM126.687 135.159L125.819 134.854C126.431 133.114 127.091 131.367 127.782 129.659L128.635 130.004C127.949 131.698 127.294 133.433 126.687 135.159ZM351.68 130.791C351.009 129.097 350.29 127.398 349.543 125.739L350.382 125.361C351.135 127.033 351.859 128.745 352.535 130.451L351.68 130.791ZM130.817 124.946L129.981 124.562C130.75 122.889 131.568 121.21 132.412 119.574L133.23 119.996C132.392 121.62 131.58 123.285 130.817 124.946ZM347.177 120.789C346.353 119.165 345.481 117.537 344.583 115.952L345.384 115.499C346.288 117.096 347.167 118.736 347.997 120.373L347.177 120.789ZM135.868 115.163L135.07 114.704C135.988 113.11 136.956 111.514 137.947 109.962L138.723 110.457C137.739 111.998 136.778 113.581 135.868 115.163ZM341.771 111.236C340.798 109.688 339.78 108.146 338.745 106.653L339.5 106.129C340.544 107.633 341.57 109.187 342.55 110.747L341.771 111.236ZM141.79 105.888L141.038 105.358C142.099 103.854 143.208 102.354 144.335 100.901L145.062 101.465C143.944 102.907 142.843 104.395 141.79 105.888ZM335.512 102.211C334.403 100.759 333.248 99.3152 332.079 97.9202L332.784 97.3291C333.962 98.735 335.126 100.19 336.243 101.653L335.512 102.211ZM148.532 97.197L147.831 96.6004C149.022 95.2022 150.262 93.8105 151.519 92.464L152.192 93.0916C150.945 94.428 149.713 95.8094 148.532 97.197ZM328.454 93.7887C327.218 92.4433 325.935 91.1098 324.643 89.8257L325.292 89.1729C326.594 90.4671 327.886 91.8105 329.131 93.166L328.454 93.7887ZM156.033 89.1585L155.39 88.5007C156.706 87.2135 158.067 85.9409 159.436 84.7184L160.049 85.4049C158.69 86.618 157.339 87.8809 156.033 89.1585ZM320.657 86.0393C319.302 84.8107 317.903 83.599 316.5 82.4378L317.087 81.7288C318.5 82.8987 319.91 84.1197 321.275 85.3577L320.657 86.0393ZM164.231 81.8379L163.65 81.1245C165.073 79.9655 166.544 78.8225 168.022 77.7271L168.57 78.4662C167.103 79.5535 165.643 80.6878 164.231 81.8379ZM173.056 75.2969L172.543 74.5336C174.066 73.5087 175.634 72.5052 177.203 71.5503L177.681 72.3365C176.124 73.2841 174.568 74.2802 173.056 75.2969ZM182.436 69.5913L181.994 68.784C183.606 67.9022 185.258 67.0468 186.905 66.241L187.31 67.0677C185.675 67.8672 184.035 68.7161 182.436 69.5913ZM293.485 67.4594C291.848 66.6438 290.17 65.8557 288.5 65.1173L288.872 64.2758C290.555 65.0198 292.246 65.8139 293.895 66.6359L293.485 67.4594ZM192.292 64.7707L191.926 63.9264C193.61 63.1966 195.333 62.4965 197.046 61.8457L197.372 62.7061C195.672 63.3518 193.963 64.0464 192.292 64.7707ZM283.411 63.0065C281.707 62.3458 279.963 61.7155 278.228 61.1332L278.521 60.2606C280.269 60.8477 282.026 61.4827 283.743 62.1488L283.411 63.0065ZM202.555 60.8733L202.269 59.9989C204.018 59.4256 205.802 58.8858 207.571 58.395L207.817 59.2814C206.061 59.7687 204.291 60.3042 202.555 60.8733ZM272.976 59.5052C271.221 59.0049 269.431 58.539 267.656 58.1204L267.867 57.225C269.657 57.6467 271.46 58.1162 273.229 58.6201L272.976 59.5052ZM213.147 57.9338L212.942 57.0367C214.735 56.6272 216.561 56.2541 218.37 55.9279L218.533 56.8332C216.738 57.1572 214.926 57.5274 213.147 57.9338ZM262.278 56.9828C260.486 56.6465 258.661 56.3473 256.853 56.0935L256.981 55.1823C258.802 55.4382 260.642 55.7396 262.448 56.0784L262.278 56.9828ZM223.965 55.9816L223.843 55.0695C225.664 54.8265 227.517 54.622 229.349 54.4625L229.429 55.3791C227.611 55.5377 225.773 55.7403 223.965 55.9816ZM251.393 55.4537C249.58 55.2829 247.735 55.1513 245.909 55.063L245.954 54.1437C247.794 54.2329 249.653 54.3655 251.479 54.5376L251.393 55.4537ZM234.915 55.0262L234.877 54.1069C236.568 54.0364 238.291 54.0005 240 54L240.416 54.0007L240.414 54.9208L240 54.9202C238.304 54.9206 236.593 54.9563 234.915 55.0262Z" fill="#3F3D56"/>
<path d="M232.54 231.197C232.131 231.198 231.74 231.36 231.451 231.649C231.163 231.937 231 232.329 231 232.737V285.248C231 285.656 231.163 286.048 231.451 286.336C231.74 286.625 232.131 286.787 232.54 286.788H411.594C412.002 286.787 412.393 286.625 412.682 286.336C412.971 286.048 413.133 285.656 413.133 285.248V232.737C413.133 232.329 412.971 231.937 412.682 231.649C412.393 231.36 412.002 231.198 411.594 231.197L232.54 231.197Z" fill="#E6E6E6"/>
<path d="M234.857 282.929H409.274V235.055H234.857V282.929Z" fill="white"/>
<path d="M387.258 272.998C386.923 272.998 386.591 273.063 386.282 273.191C385.972 273.319 385.69 273.507 385.453 273.744C385.216 273.981 385.028 274.262 384.9 274.572C384.771 274.881 384.705 275.213 384.705 275.548C384.705 275.884 384.771 276.215 384.9 276.525C385.028 276.835 385.216 277.116 385.453 277.353C385.69 277.59 385.972 277.777 386.282 277.905C386.591 278.033 386.923 278.099 387.258 278.099H397.46C398.136 278.099 398.785 277.83 399.263 277.352C399.741 276.873 400.01 276.225 400.01 275.548C400.01 274.872 399.741 274.223 399.263 273.745C398.785 273.267 398.136 272.998 397.46 272.998H387.258Z" fill="#36ABC5"/>
<path d="M400.011 268.051H282.25V268.722H400.011V268.051Z" fill="#E6E6E6"/>
<path d="M257.633 273.847C265.837 273.847 272.488 267.197 272.488 258.993C272.488 250.789 265.837 244.139 257.633 244.139C249.43 244.139 242.779 250.789 242.779 258.993C242.779 267.197 249.43 273.847 257.633 273.847Z" fill="#36ABC5"/>
<path d="M282.436 264.306L282.064 263.747L294.301 255.589L302.693 259.617L314.763 251.906L338.773 262.148L357.893 252.755L376.459 260.282L399.789 239.619L400.234 240.121L376.593 261.061L357.919 253.49L338.792 262.885L314.825 252.662L302.739 260.384L294.356 256.36L282.436 264.306Z" fill="#3F3D56"/>
<path d="M284.432 273.348C284.145 273.347 283.861 273.403 283.596 273.513C283.331 273.622 283.091 273.783 282.888 273.985C282.685 274.188 282.524 274.428 282.414 274.693C282.305 274.958 282.248 275.242 282.248 275.528C282.248 275.815 282.305 276.099 282.414 276.364C282.524 276.628 282.685 276.869 282.888 277.071C283.091 277.274 283.331 277.435 283.596 277.544C283.861 277.653 284.145 277.71 284.432 277.709H307.246C307.824 277.708 308.378 277.478 308.786 277.069C309.194 276.661 309.424 276.106 309.424 275.528C309.424 274.951 309.194 274.396 308.786 273.987C308.378 273.578 307.824 273.348 307.246 273.348H284.432Z" fill="#E6E6E6"/>
<path d="M263.307 252.348H265.628L260.799 257.127C259.955 257.959 258.818 258.425 257.633 258.425C256.449 258.425 255.312 257.959 254.468 257.127L249.639 252.348H251.96L255.629 255.979C256.163 256.505 256.883 256.801 257.634 256.801C258.384 256.801 259.104 256.505 259.638 255.979L263.307 252.348ZM251.93 265.638H249.609L254.468 260.829C255.312 259.998 256.449 259.532 257.634 259.532C258.818 259.532 259.956 259.998 260.799 260.829L265.658 265.638H263.337L259.638 261.978C259.104 261.451 258.384 261.156 257.634 261.156C256.883 261.156 256.163 261.451 255.629 261.978L251.93 265.638Z" fill="white"/>
<path d="M255.856 63C255.448 63.0005 255.057 63.1629 254.768 63.4515C254.479 63.7401 254.317 64.1314 254.316 64.5396V117.051C254.317 117.459 254.479 117.85 254.768 118.139C255.057 118.428 255.448 118.59 255.856 118.59H434.91C435.318 118.59 435.71 118.428 435.998 118.139C436.287 117.85 436.449 117.459 436.45 117.051V64.5396C436.449 64.1314 436.287 63.7401 435.998 63.4515C435.71 63.1628 435.318 63.0005 434.91 63L255.856 63Z" fill="#E6E6E6"/>
<path d="M258.174 114.731H432.591V66.8574H258.174V114.731Z" fill="white"/>
<path d="M410.576 104.799C409.899 104.799 409.251 105.068 408.772 105.546C408.294 106.024 408.025 106.673 408.025 107.349C408.025 108.026 408.294 108.674 408.772 109.152C409.251 109.631 409.899 109.899 410.576 109.899H420.777C421.453 109.899 422.102 109.631 422.58 109.152C423.059 108.674 423.327 108.026 423.327 107.349C423.327 106.673 423.059 106.024 422.58 105.546C422.102 105.068 421.453 104.799 420.777 104.799H410.576Z" fill="#36ABC5"/>
<path d="M423.327 99.8535H305.566V100.525H423.327V99.8535Z" fill="#E6E6E6"/>
<path d="M280.854 105.708C289.058 105.708 295.708 99.0579 295.708 90.8542C295.708 82.6505 289.058 76 280.854 76C272.65 76 266 82.6505 266 90.8542C266 99.0579 272.65 105.708 280.854 105.708Z" fill="#36ABC5"/>
<path d="M305.751 96.1063L305.379 95.548L317.616 87.39L326.007 91.418L338.077 83.7068L338.24 83.7761L362.087 93.9487L381.207 84.5563L399.774 92.0834L423.103 71.4199L423.548 71.9223L399.907 92.8615L381.233 85.2909L362.107 94.6866L338.14 84.4629L326.054 92.1846L317.67 88.1602L305.751 96.1063Z" fill="#3F3D56"/>
<path d="M307.746 105.15C307.168 105.151 306.614 105.381 306.206 105.79C305.798 106.199 305.568 106.753 305.568 107.331C305.568 107.909 305.798 108.463 306.206 108.872C306.614 109.281 307.168 109.511 307.746 109.512H330.56C331.139 109.512 331.693 109.282 332.102 108.873C332.511 108.464 332.741 107.91 332.741 107.331C332.741 106.753 332.511 106.198 332.102 105.789C331.693 105.38 331.139 105.15 330.56 105.15H307.746Z" fill="#E6E6E6"/>
<path d="M326.297 147.098C325.889 147.098 325.498 147.26 325.209 147.549C324.921 147.838 324.758 148.229 324.758 148.637V201.149C324.758 201.557 324.921 201.948 325.209 202.237C325.498 202.525 325.889 202.688 326.297 202.688H505.352C505.76 202.688 506.151 202.525 506.44 202.237C506.728 201.948 506.891 201.557 506.891 201.149V148.637C506.891 148.229 506.728 147.838 506.44 147.549C506.151 147.26 505.76 147.098 505.352 147.098L326.297 147.098Z" fill="#E6E6E6"/>
<path d="M328.617 198.831H503.034V150.957H328.617V198.831Z" fill="white"/>
<path d="M481.019 188.898C480.343 188.898 479.694 189.167 479.216 189.645C478.737 190.124 478.469 190.772 478.469 191.449C478.469 192.125 478.737 192.774 479.216 193.252C479.694 193.73 480.343 193.999 481.019 193.999H491.22C491.897 193.999 492.545 193.73 493.024 193.252C493.502 192.774 493.771 192.125 493.771 191.449C493.771 190.772 493.502 190.124 493.024 189.645C492.545 189.167 491.897 188.898 491.22 188.898H481.019Z" fill="#36ABC5"/>
<path d="M493.771 183.951H376.01V184.622H493.771V183.951Z" fill="#E6E6E6"/>
<path d="M351.854 189.708C360.058 189.708 366.708 183.058 366.708 174.854C366.708 166.65 360.058 160 351.854 160C343.65 160 337 166.65 337 174.854C337 183.058 343.65 189.708 351.854 189.708Z" fill="#36ABC5"/>
<path d="M376.197 180.204L375.824 179.646L388.061 171.488L396.453 175.516L408.522 167.804L408.686 167.874L432.532 178.046L451.653 168.654L470.219 176.181L493.549 155.518L493.994 156.02L470.353 176.959L451.679 169.389L432.552 178.784L408.586 168.561L396.499 176.282L388.116 172.258L376.197 180.204Z" fill="#3F3D56"/>
<path d="M378.191 189.248C377.612 189.248 377.057 189.478 376.648 189.887C376.24 190.296 376.01 190.85 376.01 191.429C376.01 192.007 376.24 192.562 376.648 192.971C377.057 193.38 377.612 193.61 378.191 193.61H401.005C401.583 193.61 402.138 193.38 402.547 192.971C402.956 192.562 403.185 192.007 403.185 191.429C403.185 190.85 402.956 190.296 402.547 189.887C402.138 189.478 401.583 189.248 401.005 189.248H378.191Z" fill="#E6E6E6"/>
<path d="M356.698 168H359.019L354.189 172.78C353.345 173.611 352.208 174.077 351.024 174.077C349.839 174.077 348.702 173.611 347.858 172.78L343.03 168H345.351L349.019 171.631C349.554 172.158 350.274 172.453 351.024 172.453C351.774 172.453 352.495 172.158 353.029 171.631L356.698 168ZM345.321 181.291H343L347.859 176.482C348.703 175.65 349.84 175.184 351.024 175.184C352.209 175.184 353.346 175.65 354.19 176.482L359.049 181.291H356.728L353.029 177.63C352.495 177.104 351.774 176.808 351.024 176.808C350.274 176.808 349.554 177.104 349.019 177.63L345.321 181.291Z" fill="white"/>
<path d="M286.698 84H289.019L284.189 88.7795C283.345 89.6111 282.208 90.0773 281.024 90.0773C279.839 90.0773 278.702 89.6111 277.858 88.7795L273.03 84H275.351L279.019 87.6309C279.554 88.1576 280.274 88.4529 281.024 88.4529C281.774 88.4529 282.495 88.1576 283.029 87.6309L286.698 84ZM275.321 97.2907H273L277.859 92.4816C278.703 91.65 279.84 91.1839 281.024 91.1839C282.209 91.1839 283.346 91.65 284.19 92.4816L289.049 97.2907H286.728L283.029 93.6303C282.495 93.1036 281.774 92.8083 281.024 92.8083C280.274 92.8083 279.554 93.1036 279.019 93.6303L275.321 97.2907Z" fill="white"/>
<path d="M64.7384 167.998C64.7384 167.998 64.484 183.781 67.2824 188.974C70.0808 194.167 71.2801 216.758 71.2801 216.758C71.2801 216.758 100.616 219.792 121.058 213.124C141.501 206.455 184.999 203.728 184.999 203.728L177.669 154.325C177.669 154.325 141.455 152.003 120.855 161.828C100.254 171.652 64.7384 167.998 64.7384 167.998Z" fill="#36ABC5"/>
<path opacity="0.2" d="M64.7384 167.998C64.7384 167.998 64.484 183.781 67.2824 188.974C70.0808 194.167 71.2801 216.758 71.2801 216.758C71.2801 216.758 100.616 219.792 121.058 213.124C141.501 206.455 184.999 203.728 184.999 203.728L177.669 154.325C177.669 154.325 141.455 152.003 120.855 161.828C100.254 171.652 64.7384 167.998 64.7384 167.998Z" fill="black"/>
<path d="M71.2313 173.764C71.2313 173.764 70.3137 186.786 72.616 190.947C74.9183 195.108 75.0255 213.683 75.0255 213.683C75.0255 213.683 101.426 214.908 120.206 208.516C138.986 202.123 178.45 197.977 178.45 197.977L173.966 157.576C173.966 157.576 141.312 157.24 122.254 166.238C103.196 175.235 71.2313 173.764 71.2313 173.764Z" fill="#36ABC5"/>
<path opacity="0.1" d="M121.965 201.12C125.721 200.652 127.953 193.742 126.95 185.686C125.946 177.629 122.087 171.478 118.331 171.946C114.574 172.414 112.343 179.324 113.346 187.38C114.35 195.436 118.208 201.587 121.965 201.12Z" fill="black"/>
<path opacity="0.2" d="M157.816 130.258C157.816 130.258 122.635 139.161 106.045 154.833C89.4543 170.505 54.5293 177.925 54.5293 177.925C54.5293 177.925 59.1302 193.023 63.3859 197.107C67.6416 201.192 75.7133 222.328 75.7133 222.328C75.7133 222.328 104.564 216.211 121.972 203.587C139.38 190.962 179.95 175.018 179.95 175.018L157.816 130.258Z" fill="black"/>
<path d="M54 175.666C54 175.666 58.5991 190.765 62.8512 194.85C67.1032 198.934 75.1785 220.068 75.1785 220.068C75.1785 220.068 104.033 213.954 121.442 201.329C138.852 188.704 179.419 172.766 179.419 172.766L157.285 128C157.285 128 122.106 136.903 105.515 152.575C88.925 168.247 54 175.666 54 175.666Z" fill="#36ABC5"/>
<path opacity="0.2" d="M54 175.666C54 175.666 58.5991 190.765 62.8512 194.85C67.1032 198.934 75.1785 220.068 75.1785 220.068C75.1785 220.068 104.033 213.954 121.442 201.329C138.852 188.704 179.419 172.766 179.419 172.766L168.352 150.383L157.285 128C157.285 128 122.106 136.903 105.515 152.575C88.925 168.247 54 175.666 54 175.666Z" fill="black"/>
<path d="M61.9434 179.162C61.9434 179.162 65.067 191.839 68.5359 195.092C72.0047 198.344 77.8032 215.987 77.8032 215.987C77.8032 215.987 103.305 209.05 119.217 197.203C135.13 185.356 171.421 169.317 171.421 169.317L154.756 132.229C154.756 132.229 123.576 141.926 108.198 156.338C92.8198 170.751 61.9434 179.162 61.9434 179.162Z" fill="#36ABC5"/>
<path opacity="0.2" d="M118.629 189.629C122.06 188.031 122.064 180.77 118.637 173.41C115.209 166.051 109.649 161.38 106.217 162.978C102.786 164.576 102.782 171.837 106.21 179.197C109.637 186.556 115.197 191.227 118.629 189.629Z" fill="black"/>
</svg>
