<svg width="550" height="350" viewBox="0 0 550 350" fill="none" xmlns="http://www.w3.org/2000/svg">
<g opacity="0.1">
<path opacity="0.1" d="M389.674 304.071C394.881 304.071 399.102 298.904 399.102 292.529C399.102 286.154 394.881 280.986 389.674 280.986C384.467 280.986 380.246 286.154 380.246 292.529C380.246 298.904 384.467 304.071 389.674 304.071Z" fill="#3F3D56"/>
<path opacity="0.1" d="M397.136 243.148C398.457 241.004 399.142 238.568 399.12 236.093C399.12 229.705 394.899 224.551 389.692 224.551C384.485 224.551 380.268 229.717 380.268 236.093C380.242 238.567 380.921 241.002 382.236 243.148C380.946 245.303 380.268 247.731 380.268 250.201C380.268 252.671 380.946 255.099 382.236 257.254C380.946 259.409 380.268 261.838 380.268 264.309C380.268 266.779 380.946 269.208 382.236 271.363C380.921 273.509 380.242 275.945 380.268 278.418C380.268 284.806 384.489 289.961 389.692 289.961C394.895 289.961 399.12 284.794 399.12 278.418C399.147 275.945 398.468 273.509 397.153 271.363C398.443 269.208 399.12 266.779 399.12 264.309C399.12 261.838 398.443 259.409 397.153 257.254C398.443 255.099 399.12 252.671 399.12 250.201C399.12 247.731 398.443 245.303 397.153 243.148H397.136Z" fill="#3F3D56"/>
<path opacity="0.1" d="M389.674 233.53C394.881 233.53 399.102 228.362 399.102 221.988C399.102 215.613 394.881 210.445 389.674 210.445C384.467 210.445 380.246 215.613 380.246 221.988C380.246 228.362 384.467 233.53 389.674 233.53Z" fill="#3F3D56"/>
<path opacity="0.1" d="M389.674 219.421C394.881 219.421 399.102 214.253 399.102 207.878C399.102 201.504 394.881 196.336 389.674 196.336C384.467 196.336 380.246 201.504 380.246 207.878C380.246 214.253 384.467 219.421 389.674 219.421Z" fill="#3F3D56"/>
<path opacity="0.1" d="M424.963 111.331C426.249 109.796 427.422 108.181 428.471 106.496L403.716 102.691L430.507 102.879C433.075 97.6479 434.475 91.9823 434.621 86.2281C434.768 80.474 433.659 74.7524 431.361 69.4131L395.415 86.8445L428.569 64.0631C425.462 59.0472 421.285 54.6833 416.297 51.2429C411.309 47.8025 405.618 45.3594 399.577 44.0655C393.536 42.7717 387.275 42.6548 381.184 43.7222C375.093 44.7896 369.302 47.0184 364.171 50.2699C359.041 53.5214 354.681 57.726 351.362 62.6219C348.044 67.5178 345.838 73.0003 344.883 78.7281C343.927 84.4559 344.242 90.3063 345.808 95.9152C347.374 101.524 350.157 106.772 353.985 111.331C351.979 113.718 350.253 116.3 348.838 119.032L380.989 134.659L346.708 123.879C344.296 130.533 343.696 137.645 344.963 144.57C346.23 151.496 349.324 158.016 353.964 163.541C348.725 169.771 345.466 177.255 344.56 185.136C343.653 193.017 345.136 200.977 348.838 208.107C352.54 215.237 358.312 221.249 365.494 225.455C372.677 229.66 380.979 231.891 389.453 231.891C397.926 231.891 406.229 229.66 413.411 225.455C420.593 221.249 426.365 215.237 430.067 208.107C433.769 200.977 435.252 193.017 434.345 185.136C433.439 177.255 430.18 169.771 424.941 163.541C431.202 156.097 434.605 146.9 434.605 137.428C434.605 127.956 431.202 118.759 424.941 111.315L424.963 111.331Z" fill="#36ABC5"/>
<path opacity="0.1" d="M344.322 137.445C344.307 146.919 347.712 156.12 353.985 163.556C348.747 169.787 345.488 177.27 344.581 185.151C343.675 193.032 345.158 200.992 348.86 208.122C352.562 215.252 358.334 221.264 365.516 225.47C372.698 229.676 381.001 231.906 389.474 231.906C397.948 231.906 406.25 229.676 413.432 225.47C420.614 221.264 426.387 215.252 430.089 208.122C433.791 200.992 435.273 193.032 434.367 185.151C433.46 177.27 430.202 169.787 424.963 163.556C431.015 156.37 344.322 132.702 344.322 137.445Z" fill="#222222"/>
</g>
<g opacity="0.1">
<path opacity="0.1" d="M125.242 291.726C128.41 291.726 130.978 288.58 130.978 284.699C130.978 280.818 128.41 277.672 125.242 277.672C122.074 277.672 119.506 280.818 119.506 284.699C119.506 288.58 122.074 291.726 125.242 291.726Z" fill="#3F3D56"/>
<path opacity="0.1" d="M129.803 254.639C130.604 253.332 131.018 251.85 131.003 250.343C131.003 246.463 128.442 243.316 125.262 243.316C122.082 243.316 119.526 246.463 119.526 250.343C119.509 251.849 119.922 253.332 120.721 254.639C119.938 255.952 119.526 257.43 119.526 258.933C119.526 260.436 119.938 261.915 120.721 263.227C119.938 264.54 119.526 266.018 119.526 267.521C119.526 269.024 119.938 270.503 120.721 271.815C119.921 273.121 119.509 274.602 119.526 276.107C119.526 279.992 122.087 283.138 125.262 283.138C128.438 283.138 131.003 279.992 131.003 276.107C131.019 274.602 130.605 273.12 129.803 271.815C130.589 270.503 131.002 269.025 131.002 267.521C131.002 266.017 130.589 264.539 129.803 263.227C130.589 261.915 131.002 260.437 131.002 258.933C131.002 257.43 130.589 255.951 129.803 254.639Z" fill="#3F3D56"/>
<path opacity="0.1" d="M125.242 248.782C128.41 248.782 130.978 245.636 130.978 241.755C130.978 237.875 128.41 234.729 125.242 234.729C122.074 234.729 119.506 237.875 119.506 241.755C119.506 245.636 122.074 248.782 125.242 248.782Z" fill="#3F3D56"/>
<path opacity="0.1" d="M125.242 240.194C128.41 240.194 130.978 237.048 130.978 233.168C130.978 229.287 128.41 226.141 125.242 226.141C122.074 226.141 119.506 229.287 119.506 233.168C119.506 237.048 122.074 240.194 125.242 240.194Z" fill="#3F3D56"/>
<path opacity="0.1" d="M103.769 174.389C102.986 173.456 102.273 172.473 101.635 171.447L116.714 169.131L100.406 169.247C98.8447 166.064 97.993 162.617 97.9027 159.116C97.8125 155.616 98.4856 152.134 99.8811 148.885L121.746 159.509L101.571 145.615C103.464 142.563 106.007 139.909 109.043 137.816C112.079 135.724 115.543 134.238 119.219 133.452C122.895 132.665 126.705 132.595 130.412 133.245C134.118 133.895 137.642 135.252 140.764 137.23C143.886 139.209 146.54 141.768 148.559 144.747C150.579 147.726 151.921 151.062 152.504 154.548C153.086 158.033 152.895 161.593 151.943 165.007C150.991 168.42 149.299 171.614 146.971 174.389C148.192 175.84 149.242 177.41 150.103 179.072L130.53 188.591L151.401 182.039C152.867 186.091 153.229 190.421 152.456 194.637C151.682 198.853 149.797 202.823 146.971 206.186C150.159 209.978 152.143 214.534 152.694 219.331C153.246 224.129 152.343 228.975 150.09 233.315C147.836 237.655 144.322 241.315 139.95 243.875C135.578 246.435 130.524 247.793 125.366 247.793C120.208 247.793 115.154 246.435 110.781 243.875C106.409 241.315 102.895 237.655 100.642 233.315C98.3881 228.975 97.4854 224.129 98.0369 219.331C98.5885 214.534 100.572 209.978 103.761 206.186C99.9504 201.653 97.8789 196.054 97.8789 190.287C97.8789 184.521 99.9504 178.922 103.761 174.389H103.769Z" fill="#36ABC5"/>
<path opacity="0.1" d="M152.852 190.287C152.861 196.055 150.788 201.656 146.97 206.185C150.159 209.978 152.142 214.533 152.694 219.331C153.245 224.128 152.343 228.974 150.089 233.314C147.835 237.655 144.322 241.314 139.95 243.874C135.577 246.434 130.523 247.792 125.365 247.792C120.207 247.792 115.153 246.434 110.781 243.874C106.409 241.314 102.895 237.655 100.641 233.314C98.3876 228.974 97.485 224.128 98.0365 219.331C98.5881 214.533 100.572 209.978 103.76 206.185C100.077 201.829 152.852 187.4 152.852 190.287Z" fill="#222222"/>
</g>
<g opacity="0.1">
<path opacity="0.1" d="M254.565 297.842C258.806 297.842 262.243 293.632 262.243 288.44C262.243 283.247 258.806 279.037 254.565 279.037C250.324 279.037 246.887 283.247 246.887 288.44C246.887 293.632 250.324 297.842 254.565 297.842Z" fill="#3F3D56"/>
<path opacity="0.1" d="M260.642 248.21C261.712 246.461 262.265 244.476 262.243 242.461C262.243 237.271 258.828 233.059 254.56 233.059C250.292 233.059 246.878 237.271 246.878 242.461C246.855 244.477 247.409 246.462 248.482 248.21C247.43 249.966 246.878 251.945 246.878 253.958C246.878 255.97 247.43 257.949 248.482 259.705C247.43 261.46 246.878 263.438 246.878 265.45C246.878 267.462 247.43 269.44 248.482 271.195C247.409 272.944 246.855 274.929 246.878 276.945C246.878 282.135 250.318 286.347 254.56 286.347C258.803 286.347 262.243 282.135 262.243 276.945C262.265 274.929 261.712 272.945 260.642 271.195C261.692 269.44 262.243 267.462 262.243 265.45C262.243 263.439 261.692 261.461 260.642 259.705C261.692 257.948 262.243 255.97 262.243 253.958C262.243 251.945 261.692 249.967 260.642 248.21Z" fill="#3F3D56"/>
<path opacity="0.1" d="M254.565 240.373C258.806 240.373 262.243 236.164 262.243 230.971C262.243 225.778 258.806 221.568 254.565 221.568C250.324 221.568 246.887 225.778 246.887 230.971C246.887 236.164 250.324 240.373 254.565 240.373Z" fill="#3F3D56"/>
<path opacity="0.1" d="M254.565 228.879C258.806 228.879 262.243 224.669 262.243 219.477C262.243 214.284 258.806 210.074 254.565 210.074C250.324 210.074 246.887 214.284 246.887 219.477C246.887 224.669 250.324 228.879 254.565 228.879Z" fill="#3F3D56"/>
<path opacity="0.1" d="M225.837 140.823C224.787 139.575 223.832 138.259 222.977 136.887L243.152 133.788L221.334 133.94C219.24 129.679 218.098 125.064 217.977 120.375C217.856 115.687 218.759 111.026 220.63 106.675L249.909 120.881L222.904 102.315C225.427 98.2139 228.827 94.6434 232.892 91.8268C236.957 89.0102 241.599 87.008 246.528 85.9454C251.457 84.8827 256.567 84.7825 261.54 85.6509C266.512 86.5192 271.24 88.3376 275.427 90.9923C279.615 93.6471 283.172 97.0811 285.876 101.08C288.581 105.079 290.374 109.556 291.145 114.233C291.916 118.909 291.648 123.684 290.357 128.26C289.067 132.835 286.781 137.112 283.643 140.823C285.277 142.769 286.682 144.873 287.834 147.1L261.646 159.828L289.572 151.044C291.533 156.466 292.019 162.261 290.983 167.903C289.948 173.544 287.425 178.856 283.643 183.356C287.91 188.431 290.565 194.527 291.303 200.947C292.041 207.367 290.833 213.852 287.817 219.66C284.801 225.468 280.099 230.365 274.248 233.791C268.397 237.217 261.634 239.034 254.731 239.034C247.829 239.034 241.066 237.217 235.215 233.791C229.364 230.365 224.662 225.468 221.646 219.66C218.63 213.852 217.422 207.367 218.16 200.947C218.898 194.527 221.552 188.431 225.82 183.356C220.721 177.29 217.95 169.798 217.95 162.082C217.95 154.365 220.721 146.873 225.82 140.807L225.837 140.823Z" fill="#36ABC5"/>
<path opacity="0.1" d="M291.514 162.099C291.526 169.817 288.753 177.313 283.643 183.372C287.91 188.447 290.565 194.543 291.303 200.963C292.041 207.383 290.833 213.868 287.817 219.676C284.801 225.484 280.099 230.381 274.248 233.807C268.397 237.233 261.634 239.05 254.731 239.05C247.829 239.05 241.066 237.233 235.215 233.807C229.364 230.381 224.662 225.484 221.646 219.676C218.63 213.868 217.422 207.383 218.16 200.963C218.898 194.543 221.552 188.447 225.82 183.372C220.89 177.519 291.514 158.235 291.514 162.099Z" fill="#222222"/>
</g>
<path d="M519 296.988C519 299.736 497.544 302.248 462.071 304.188C455.619 304.536 448.707 304.868 441.375 305.18C435.041 305.446 428.401 305.698 421.457 305.936C414.73 306.16 407.745 306.368 400.501 306.56C377.627 307.172 352.339 307.612 325.474 307.832C318.955 307.888 312.348 307.93 305.655 307.96C298.682 307.989 291.63 308.002 284.498 308C154.985 308 50 303.076 50 297C50 290.924 154.985 286 284.498 286C340.257 286 391.461 286.916 431.707 288.436L436.107 288.604H436.133C486.829 290.616 519 293.644 519 296.988Z" fill="#3F3D56"/>
<path opacity="0.15" d="M519 296.988C519 299.736 497.544 302.248 462.071 304.188C455.619 304.536 448.707 304.868 441.375 305.18C435.041 305.446 428.401 305.698 421.457 305.936C414.73 306.16 407.745 306.368 400.501 306.56C377.627 307.172 352.339 307.612 325.474 307.832C318.955 307.888 312.348 307.93 305.655 307.96C298.682 307.989 291.63 308.002 284.498 308C154.985 308 50 303.076 50 297C50 290.924 154.985 286 284.498 286C340.257 286 391.461 286.916 431.707 288.436L436.107 288.604H436.133C486.829 290.616 519 293.644 519 296.988Z" fill="#222222"/>
<path d="M500 295.012C500 297.258 478.544 299.316 443.071 300.881C436.624 301.167 429.707 301.437 422.379 301.691C416.042 301.91 409.403 302.117 402.462 302.31C395.734 302.492 388.749 302.663 381.506 302.822C358.627 303.323 333.339 303.683 306.474 303.863C299.96 303.907 293.354 303.941 286.655 303.965C279.682 303.988 272.631 304 265.502 304C135.989 304 31 299.973 31 295C31 290.027 135.989 286 265.502 286C321.257 286 372.461 286.747 412.707 287.992L417.107 288.129H417.137C467.85 289.8 500 292.261 500 295.012Z" fill="#3F3D56"/>
<path d="M91.8567 212L86 194.498L226.254 193L232 210.328L91.8567 212Z" fill="#3F3D56"/>
<path opacity="0.15" d="M91.8567 212L86 194.498L226.254 193L232 210.328L91.8567 212Z" fill="#222222"/>
<path d="M81.8968 212L76 194.498L217.214 193L223 210.328L81.8968 212Z" fill="#3F3D56"/>
<path d="M322.859 185.598C308.346 185.598 296.907 180.196 288.544 169.394C280.181 158.591 276 145.504 276 130.133C276 114.659 280.044 101.599 288.132 90.953C296.22 80.307 307.628 74.9894 322.357 75C337.977 75 349.746 80.6088 357.664 91.8264C365.581 103.044 369.541 116.027 369.544 130.776C369.544 145.418 365.447 158.217 357.251 169.174C349.055 180.131 337.592 185.606 322.859 185.598ZM323.285 173.446C332.833 173.446 339.969 169.544 344.694 161.74C349.418 153.937 351.781 144.099 351.781 132.227C351.781 119.013 349.363 108.193 344.528 99.767C339.693 91.3411 332.277 87.1269 322.281 87.1243C303.281 87.1243 293.781 101.275 293.781 129.575C293.781 158.825 303.613 173.448 323.276 173.446H323.285ZM328.066 289.818H307.074L444.504 77.1656H465.101L328.066 289.818ZM449.647 292C434.915 292 423.429 286.549 415.191 275.648C406.953 264.747 402.817 251.659 402.783 236.384C402.783 221.013 406.799 208.005 414.83 197.359C422.861 186.713 434.298 181.396 449.141 181.406C464.65 181.406 476.336 187.015 484.2 198.233C492.064 209.45 495.997 222.432 496 237.178C496 251.724 491.929 264.5 483.787 275.505C475.646 286.51 464.263 292.008 449.638 292H449.647ZM449.894 279.537C459.396 279.537 466.495 275.701 471.188 268.031C475.881 260.36 478.228 250.562 478.228 238.637C478.228 225.875 475.853 215.172 471.103 206.528C466.353 197.884 458.953 193.556 448.902 193.542C429.792 193.542 420.236 207.693 420.236 235.993C420.231 265.025 430.114 279.539 449.885 279.537H449.894Z" fill="#3F3D56"/>
<path d="M322.859 185.598C308.346 185.598 296.907 180.196 288.544 169.394C280.181 158.591 276 145.504 276 130.133C276 114.659 280.044 101.599 288.132 90.953C296.22 80.307 307.628 74.9894 322.357 75C337.977 75 349.746 80.6088 357.664 91.8264C365.581 103.044 369.541 116.027 369.544 130.776C369.544 145.418 365.447 158.217 357.251 169.174C349.055 180.131 337.592 185.606 322.859 185.598ZM323.285 173.446C332.833 173.446 339.969 169.544 344.694 161.74C349.418 153.937 351.781 144.099 351.781 132.227C351.781 119.013 349.363 108.193 344.528 99.767C339.693 91.3411 332.277 87.1269 322.281 87.1243C303.281 87.1243 293.781 101.275 293.781 129.575C293.781 158.825 303.613 173.448 323.276 173.446H323.285ZM328.066 289.818H307.074L444.504 77.1656H465.101L328.066 289.818ZM449.647 292C434.915 292 423.429 286.549 415.191 275.648C406.953 264.747 402.817 251.659 402.783 236.384C402.783 221.013 406.799 208.005 414.83 197.359C422.861 186.713 434.298 181.396 449.141 181.406C464.65 181.406 476.336 187.015 484.2 198.233C492.064 209.45 495.997 222.432 496 237.178C496 251.724 491.929 264.5 483.787 275.505C475.646 286.51 464.263 292.008 449.638 292H449.647ZM449.894 279.537C459.396 279.537 466.495 275.701 471.188 268.031C475.881 260.36 478.228 250.562 478.228 238.637C478.228 225.875 475.853 215.172 471.103 206.528C466.353 197.884 458.953 193.556 448.902 193.542C429.792 193.542 420.236 207.693 420.236 235.993C420.231 265.025 430.114 279.539 449.885 279.537H449.894Z" fill="#3F3D56"/>
<path opacity="0.15" d="M322.859 185.598C308.346 185.598 296.907 180.196 288.544 169.394C280.181 158.591 276 145.504 276 130.133C276 114.659 280.044 101.599 288.132 90.953C296.22 80.307 307.628 74.9894 322.357 75C337.977 75 349.746 80.6088 357.664 91.8264C365.581 103.044 369.541 116.027 369.544 130.776C369.544 145.418 365.447 158.217 357.251 169.174C349.055 180.131 337.592 185.606 322.859 185.598ZM323.285 173.446C332.833 173.446 339.969 169.544 344.694 161.74C349.418 153.937 351.781 144.099 351.781 132.227C351.781 119.013 349.363 108.193 344.528 99.767C339.693 91.3411 332.277 87.1269 322.281 87.1243C303.281 87.1243 293.781 101.275 293.781 129.575C293.781 158.825 303.613 173.448 323.276 173.446H323.285ZM328.066 289.818H307.074L444.504 77.1656H465.101L328.066 289.818ZM449.647 292C434.915 292 423.429 286.549 415.191 275.648C406.953 264.747 402.817 251.659 402.783 236.384C402.783 221.013 406.799 208.005 414.83 197.359C422.861 186.713 434.298 181.396 449.141 181.406C464.65 181.406 476.336 187.015 484.2 198.233C492.064 209.45 495.997 222.432 496 237.178C496 251.724 491.929 264.5 483.787 275.505C475.646 286.51 464.263 292.008 449.638 292H449.647ZM449.894 279.537C459.396 279.537 466.495 275.701 471.188 268.031C475.881 260.36 478.228 250.562 478.228 238.637C478.228 225.875 475.853 215.172 471.103 206.528C466.353 197.884 458.953 193.556 448.902 193.542C429.792 193.542 420.236 207.693 420.236 235.993C420.231 265.025 430.114 279.539 449.885 279.537H449.894Z" fill="#222222"/>
<path d="M309.072 185.598C294.493 185.598 283.002 180.196 274.601 169.394C266.2 158.591 262 145.504 262 130.133C262 114.659 266.062 101.599 274.187 90.953C282.311 80.307 293.772 74.9894 308.568 75C324.259 75 336.081 80.6088 344.035 91.8264C351.988 103.044 355.967 116.027 355.97 130.776C355.97 145.418 351.853 158.217 343.62 169.174C335.387 180.131 323.871 185.606 309.072 185.598ZM309.5 173.446C319.091 173.446 326.26 169.544 331.006 161.74C335.752 153.937 338.125 144.099 338.125 132.227C338.125 119.013 335.697 108.193 330.839 99.767C325.982 91.3411 318.533 87.1269 308.491 87.1243C289.405 87.1243 279.862 101.275 279.862 129.575C279.862 158.825 289.738 173.448 309.491 173.446H309.5ZM314.303 289.818H293.215L431.27 77.1656H451.96L314.303 289.818ZM436.436 292C421.637 292 410.1 286.549 401.824 275.648C393.549 264.747 389.394 251.659 389.359 236.384C389.359 221.013 393.393 208.005 401.461 197.359C409.528 186.713 421.017 181.396 435.928 181.406C451.507 181.406 463.247 187.015 471.146 198.233C479.046 209.45 482.997 222.432 483 237.178C483 251.724 478.911 264.5 470.732 275.505C462.553 286.51 451.118 292.008 436.428 292H436.436ZM436.684 279.537C446.23 279.537 453.36 275.701 458.075 268.031C462.79 260.36 465.147 250.562 465.147 238.637C465.147 225.875 462.761 215.172 457.99 206.528C453.218 197.884 445.781 193.556 435.68 193.542C416.482 193.542 406.883 207.693 406.883 235.993C406.883 265.025 416.814 279.539 436.675 279.537H436.684Z" fill="#3F3D56"/>
<path d="M355.521 295C357.267 291.957 355.283 288.229 353.003 285.513C350.722 282.796 347.942 279.977 348.001 276.515C348.086 271.549 353.698 268.613 358.174 265.977C361.503 264.023 364.574 261.704 367.321 259.07C368.472 258.056 369.423 256.859 370.132 255.534C371.06 253.59 371.03 251.379 370.979 249.253C370.784 242.158 370.411 235.074 369.86 228" stroke="#3F3D56" stroke-width="4" stroke-miterlimit="10"/>
<path d="M377.991 227.626C377.929 226.287 377.531 224.984 376.834 223.839C376.136 222.694 375.161 221.742 373.999 221.073L372.207 224.617L372.261 220.325C371.406 220.075 370.515 219.968 369.625 220.008C368.045 220.082 366.522 220.623 365.249 221.563C363.976 222.503 363.01 223.799 362.474 225.287C361.937 226.776 361.854 228.39 362.235 229.926C362.616 231.462 363.444 232.85 364.614 233.915C365.784 234.98 367.243 235.675 368.808 235.911C370.372 236.146 371.972 235.913 373.403 235.24C374.835 234.567 376.035 233.484 376.852 232.129C377.669 230.774 378.065 229.207 377.991 227.626Z" fill="#36ABC5"/>
<path d="M364.048 280.661C363.156 282.293 361.696 283.586 359.911 284.324C358.127 285.063 356.128 285.201 354.249 284.715C352.369 284.23 350.724 283.151 349.589 281.659C348.454 280.167 347.899 278.353 348.015 276.521C348.132 274.689 348.914 272.951 350.23 271.597C351.546 270.244 353.316 269.357 355.244 269.087C357.171 268.817 359.139 269.179 360.817 270.113C362.494 271.047 363.78 272.495 364.458 274.216L359.148 278.284L365 277C364.998 278.275 364.671 279.53 364.048 280.661Z" fill="#36ABC5"/>
<path d="M359.394 264.992C358.342 265.038 357.291 264.89 356.3 264.556C355.31 264.223 354.399 263.71 353.621 263.047C352.842 262.385 352.211 261.585 351.763 260.694C351.315 259.804 351.059 258.839 351.01 257.856C350.947 256.682 351.185 255.512 351.702 254.44C352.181 253.439 352.889 252.549 353.776 251.831C354.663 251.113 355.707 250.585 356.835 250.285L356.79 253.366L358.607 250.008C360.731 249.915 362.808 250.615 364.38 251.953C365.953 253.291 366.892 255.158 366.991 257.144C367.091 259.129 366.342 261.07 364.91 262.54C363.479 264.009 361.481 264.887 359.357 264.98L359.394 264.992Z" fill="#36ABC5"/>
<path d="M379.973 252.982C378.856 253.053 377.736 252.911 376.678 252.565C375.62 252.219 374.645 251.676 373.81 250.968C372.976 250.26 372.298 249.401 371.817 248.441C371.336 247.481 371.062 246.439 371.009 245.377C370.957 244.315 371.128 243.253 371.513 242.255C371.897 241.256 372.487 240.341 373.249 239.562C374.01 238.782 374.927 238.155 375.947 237.717C376.966 237.279 378.068 237.038 379.186 237.009C380.758 236.937 382.319 237.288 383.69 238.024L382.203 241.893L385.263 239.104C386.905 240.527 387.886 242.511 387.99 244.62C388.028 245.36 387.956 246.101 387.774 246.822C387.356 248.515 386.368 250.033 384.96 251.145C383.552 252.256 381.801 252.902 379.973 252.982Z" fill="#36ABC5"/>
<path opacity="0.1" d="M377.081 230.093C375.214 230.284 373.401 230.829 371.526 230.938C369.651 231.047 367.592 230.626 366.407 229.26C365.767 228.528 365.451 227.597 364.91 226.795C364.4 226.048 363.7 225.432 362.873 225C362.353 225.96 362.059 227.013 362.008 228.089C361.957 229.164 362.152 230.238 362.579 231.237C363.006 232.237 363.655 233.14 364.484 233.886C365.313 234.632 366.302 235.204 367.386 235.564C368.469 235.924 369.622 236.063 370.768 235.974C371.913 235.884 373.025 235.566 374.03 235.042C375.034 234.518 375.908 233.8 376.592 232.935C377.277 232.07 377.757 231.079 378 230.027C377.692 230.042 377.389 230.062 377.081 230.093Z" fill="#222222"/>
<path opacity="0.1" d="M379.478 252.992C378.082 253.053 376.693 252.769 375.447 252.169C374.2 251.568 373.137 250.672 372.362 249.566C371.587 248.46 371.125 247.182 371.022 245.857C370.919 244.531 371.178 243.203 371.773 242C372.415 242.414 372.967 242.941 373.401 243.552C373.979 244.38 374.329 245.338 375.007 246.098C376.256 247.512 378.425 247.971 380.377 247.888C382.329 247.805 384.219 247.274 386.167 247.096C386.438 247.072 386.713 247.056 387 247.049C386.598 248.683 385.645 250.148 384.287 251.221C382.93 252.294 381.241 252.916 379.478 252.992Z" fill="#222222"/>
<path opacity="0.1" d="M359.564 264.991C358.491 265.039 357.418 264.885 356.408 264.538C355.397 264.19 354.468 263.656 353.674 262.966C352.879 262.275 352.235 261.443 351.778 260.515C351.321 259.587 351.06 258.582 351.01 257.558C350.946 256.335 351.188 255.116 351.716 254C352.391 254.429 352.976 254.973 353.444 255.605C354.079 256.459 354.478 257.446 355.222 258.236C356.601 259.7 358.921 260.218 361.01 260.17C363.099 260.122 364.987 259.656 367 259.508C366.501 261.04 365.519 262.388 364.189 263.37C362.858 264.351 361.244 264.917 359.564 264.991Z" fill="#222222"/>
<path opacity="0.1" d="M364 280.588C363.016 282.434 361.325 283.849 359.278 284.539C357.232 285.229 354.985 285.142 353.004 284.296C351.023 283.449 349.458 281.909 348.634 279.992C347.809 278.076 347.789 275.931 348.576 274C349.272 274.437 349.897 274.97 350.432 275.581C351.236 276.518 351.766 277.58 352.697 278.451C354.436 280.069 357.218 280.737 359.705 280.8C361.14 280.811 362.574 280.74 364 280.588Z" fill="#222222"/>
<path d="M483.521 295C485.267 291.957 483.283 288.229 481.003 285.513C478.722 282.796 475.942 279.977 476.001 276.515C476.086 271.549 481.698 268.613 486.174 265.977C489.503 264.023 492.574 261.704 495.321 259.07C496.472 258.056 497.423 256.859 498.132 255.534C499.06 253.59 499.03 251.379 498.979 249.253C498.784 242.158 498.411 235.074 497.86 228" stroke="#3F3D56" stroke-width="4" stroke-miterlimit="10"/>
<path d="M506.991 227.626C506.925 226.287 506.502 224.984 505.761 223.839C505.02 222.694 503.984 221.742 502.749 221.073L500.845 224.617L500.902 220.325C499.993 220.075 499.047 219.968 498.102 220.008C496.423 220.082 494.805 220.623 493.452 221.563C492.099 222.503 491.073 223.799 490.503 225.287C489.933 226.776 489.845 228.39 490.25 229.926C490.655 231.462 491.534 232.85 492.777 233.915C494.02 234.98 495.571 235.675 497.233 235.911C498.896 236.146 500.595 235.913 502.116 235.24C503.638 234.567 504.913 233.484 505.78 232.129C506.648 230.774 507.069 229.207 506.991 227.626Z" fill="#36ABC5"/>
<path d="M492.048 279.932C491.156 281.462 489.696 282.675 487.911 283.367C486.127 284.059 484.128 284.188 482.248 283.733C480.369 283.278 478.724 282.266 477.589 280.868C476.454 279.469 475.899 277.768 476.015 276.051C476.132 274.333 476.914 272.704 478.23 271.435C479.546 270.166 481.316 269.335 483.244 269.082C485.171 268.828 487.139 269.168 488.817 270.043C490.494 270.919 491.78 272.277 492.458 273.89L487.148 277.703L493 276.5C492.998 277.695 492.671 278.872 492.048 279.932Z" fill="#36ABC5"/>
<path d="M487.907 264.991C486.791 265.04 485.676 264.883 484.624 264.527C483.573 264.171 482.607 263.624 481.781 262.917C480.955 262.21 480.285 261.357 479.809 260.407C479.334 259.457 479.063 258.429 479.01 257.38C478.944 256.128 479.196 254.879 479.745 253.737C480.253 252.669 481.004 251.719 481.945 250.953C482.886 250.187 483.995 249.624 485.192 249.304L485.144 252.591L487.072 249.009H487.094C488.21 248.96 489.326 249.118 490.377 249.474C491.428 249.829 492.394 250.376 493.22 251.083C494.046 251.79 494.716 252.643 495.192 253.593C495.667 254.543 495.938 255.571 495.991 256.62C496.043 257.669 495.875 258.717 495.496 259.704C495.117 260.692 494.535 261.6 493.783 262.376C493.031 263.152 492.123 263.781 491.112 264.228C490.101 264.675 489.006 264.93 487.89 264.979L487.907 264.991Z" fill="#36ABC5"/>
<path d="M507.973 251.984C506.856 252.05 505.736 251.917 504.678 251.592C503.62 251.268 502.645 250.759 501.81 250.095C500.976 249.431 500.298 248.626 499.817 247.726C499.336 246.826 499.062 245.849 499.009 244.853C498.957 243.858 499.128 242.863 499.513 241.927C499.897 240.99 500.487 240.132 501.249 239.402C502.01 238.671 502.927 238.083 503.947 237.672C504.966 237.262 506.068 237.036 507.186 237.009C508.758 236.941 510.319 237.27 511.69 237.96L510.203 241.587L513.263 238.973C514.905 240.306 515.886 242.166 515.99 244.144C516.028 244.837 515.956 245.532 515.774 246.208C515.356 247.795 514.368 249.218 512.96 250.261C511.552 251.303 509.801 251.908 507.973 251.984Z" fill="#36ABC5"/>
<path opacity="0.1" d="M506.024 229.556C504.04 229.764 502.114 230.359 500.121 230.477C498.129 230.596 495.942 230.138 494.683 228.647C494.002 227.848 493.667 226.833 493.092 225.958C492.55 225.144 491.806 224.471 490.927 224C490.376 225.048 490.062 226.196 490.008 227.37C489.954 228.543 490.161 229.714 490.615 230.804C491.069 231.895 491.759 232.88 492.639 233.693C493.52 234.507 494.571 235.131 495.722 235.524C496.873 235.917 498.098 236.069 499.316 235.971C500.533 235.873 501.714 235.527 502.781 234.955C503.849 234.384 504.777 233.6 505.504 232.656C506.232 231.713 506.741 230.631 507 229.484C506.673 229.501 506.351 229.522 506.024 229.556Z" fill="#222222"/>
<path opacity="0.1" d="M508.008 251.992C506.525 252.053 505.049 251.769 503.725 251.169C502.4 250.568 501.271 249.672 500.447 248.566C499.624 247.46 499.133 246.182 499.024 244.857C498.914 243.531 499.189 242.203 499.821 241C500.503 241.414 501.09 241.941 501.551 242.552C502.165 243.38 502.537 244.338 503.258 245.098C504.585 246.512 506.889 246.971 508.963 246.888C511.038 246.805 513.046 246.274 515.115 246.096C515.403 246.072 515.695 246.056 516 246.049C515.572 247.683 514.56 249.148 513.118 250.221C511.675 251.294 509.881 251.916 508.008 251.992Z" fill="#222222"/>
<path opacity="0.1" d="M488.099 264.991C486.959 265.039 485.82 264.885 484.746 264.538C483.672 264.19 482.685 263.656 481.841 262.966C480.997 262.275 480.313 261.443 479.827 260.515C479.341 259.587 479.064 258.582 479.011 257.558C478.943 256.335 479.2 255.116 479.761 254C480.478 254.429 481.1 254.973 481.597 255.605C482.271 256.459 482.695 257.446 483.486 258.236C484.951 259.7 487.416 260.218 489.636 260.17C491.788 260.13 493.861 259.656 496 259.508C495.47 261.04 494.427 262.388 493.013 263.37C491.6 264.351 489.884 264.917 488.099 264.991Z" fill="#222222"/>
<path opacity="0.1" d="M492 279.989C491.016 281.667 489.325 282.953 487.278 283.581C485.232 284.208 482.985 284.129 481.004 283.36C479.023 282.59 477.458 281.19 476.634 279.448C475.809 277.705 475.789 275.755 476.576 274C477.272 274.398 477.897 274.882 478.432 275.437C479.236 276.289 479.766 277.255 480.697 278.047C482.436 279.518 485.218 280.125 487.705 280.181C489.14 280.192 490.574 280.127 492 279.989Z" fill="#222222"/>
<path d="M77.4794 290C75.7331 286.957 77.7168 283.229 79.9973 280.513C82.2778 277.796 85.0584 274.977 84.9991 271.515C84.9143 266.549 79.3021 263.613 74.826 260.977C71.4969 259.023 68.4263 256.704 65.6786 254.07C64.528 253.056 63.5767 251.859 62.8683 250.534C61.94 248.59 61.9697 246.379 62.0206 244.253C62.2156 237.158 62.5886 230.074 63.1396 223" stroke="#3F3D56" stroke-width="4" stroke-miterlimit="10"/>
<path d="M55.0087 222.15C55.0706 220.894 55.4686 219.673 56.1663 218.599C56.8639 217.525 57.8386 216.634 59.0005 216.006L60.7929 219.328L60.7395 215.305C61.5944 215.07 62.4848 214.97 63.3746 215.008C64.9551 215.077 66.4781 215.584 67.7511 216.465C69.024 217.346 69.9898 218.561 70.5262 219.957C71.0626 221.352 71.1456 222.866 70.7647 224.305C70.3838 225.745 69.556 227.047 68.3862 228.045C67.2163 229.044 65.7568 229.695 64.1923 229.916C62.6277 230.137 61.0284 229.918 59.5965 229.287C58.1646 228.656 56.9645 227.641 56.1479 226.371C55.3313 225.1 54.9348 223.631 55.0087 222.15Z" fill="#36ABC5"/>
<path d="M69.8961 274.932C70.7354 276.462 72.11 277.675 73.7892 278.367C75.4684 279.059 77.3502 279.188 79.1191 278.733C80.8879 278.278 82.4362 277.266 83.5043 275.868C84.5725 274.469 85.0955 272.768 84.9856 271.051C84.8758 269.333 84.1398 267.704 82.9011 266.435C81.6624 265.166 79.9963 264.335 78.1822 264.082C76.368 263.828 74.5162 264.168 72.9372 265.043C71.3582 265.919 70.1481 267.277 69.5097 268.89L74.5082 272.703L69 271.5C69.0023 272.695 69.3096 273.872 69.8961 274.932Z" fill="#36ABC5"/>
<path d="M73.606 259.991C74.6579 260.04 75.7091 259.883 76.6997 259.527C77.6903 259.171 78.6009 258.624 79.3794 257.917C80.158 257.21 80.7893 256.357 81.2372 255.407C81.6852 254.457 81.9411 253.429 81.9902 252.38C82.0526 251.128 81.8154 249.879 81.2981 248.737C80.8191 247.669 80.1113 246.719 79.2244 245.953C78.3375 245.187 77.293 244.624 76.1646 244.304L76.2099 247.591L74.393 244.009C72.2688 243.91 70.1921 244.656 68.6197 246.083C67.0474 247.511 66.1082 249.502 66.0088 251.62C65.9093 253.738 66.6578 255.808 68.0895 257.376C69.5213 258.943 71.5189 259.88 73.6431 259.979L73.606 259.991Z" fill="#36ABC5"/>
<path d="M54.0274 246.984C55.1438 247.05 56.2639 246.917 57.3219 246.592C58.38 246.268 59.3549 245.759 60.1895 245.095C61.0242 244.431 61.7018 243.626 62.1828 242.726C62.6638 241.825 62.9385 240.849 62.9908 239.853C63.0431 238.857 62.872 237.862 62.4874 236.926C62.1029 235.99 61.5127 235.131 60.7513 234.401C59.9899 233.67 59.0726 233.082 58.0531 232.672C57.0337 232.261 55.9325 232.035 54.814 232.008C53.2493 231.943 51.696 232.273 50.332 232.959L51.8188 236.586L48.7371 233.983C47.0979 235.314 46.1173 237.17 46.0099 239.143C45.9716 239.837 46.0444 240.532 46.226 241.207C46.6443 242.795 47.6322 244.218 49.0401 245.26C50.4479 246.303 52.1988 246.908 54.0274 246.984Z" fill="#36ABC5"/>
<path opacity="0.1" d="M55.9189 224.093C57.7859 224.284 59.5988 224.829 61.4741 224.938C63.3494 225.047 65.4077 224.626 66.5927 223.26C67.2331 222.528 67.5491 221.597 68.0896 220.795C68.6001 220.048 69.3001 219.432 70.1271 219C70.6465 219.96 70.9414 221.013 70.9921 222.089C71.0428 223.164 70.8482 224.238 70.4212 225.237C69.9943 226.237 69.3447 227.14 68.5159 227.886C67.687 228.632 66.6979 229.204 65.6145 229.564C64.531 229.924 63.378 230.063 62.2324 229.974C61.0867 229.884 59.9747 229.566 58.9704 229.042C57.966 228.518 57.0925 227.8 56.4079 226.935C55.7232 226.07 55.2433 225.079 55 224.027C55.3077 224.042 55.6112 224.062 55.9189 224.093Z" fill="#222222"/>
<path opacity="0.1" d="M53.522 246.992C54.9179 247.053 56.3065 246.769 57.5533 246.169C58.8 245.568 59.8625 244.672 60.6377 243.566C61.413 242.46 61.8746 241.182 61.9778 239.857C62.0811 238.531 61.8225 237.203 61.2271 236C60.5853 236.414 60.0328 236.941 59.5995 237.552C59.0209 238.38 58.6712 239.338 57.9927 240.098C56.7439 241.512 54.5751 241.971 52.6228 241.888C50.6705 241.805 48.7807 241.274 46.8325 241.096C46.562 241.072 46.2872 241.056 46 241.049C46.4025 242.683 47.3549 244.148 48.7125 245.221C50.0702 246.294 51.7588 246.916 53.522 246.992Z" fill="#222222"/>
<path opacity="0.1" d="M73.9007 259.991C75.0409 260.039 76.1804 259.885 77.2543 259.538C78.3281 259.19 79.3152 258.656 80.1592 257.966C81.0032 257.275 81.6875 256.443 82.1731 255.515C82.6587 254.587 82.9361 253.582 82.9894 252.558C83.057 251.335 82.7999 250.116 82.2391 249C81.5225 249.429 80.9002 249.973 80.4035 250.605C79.7291 251.459 79.3048 252.446 78.5143 253.236C77.0494 254.7 74.584 255.218 72.3643 255.17C70.2116 255.13 68.1393 254.656 66 254.508C66.5303 256.04 67.5731 257.388 68.9867 258.37C70.4004 259.351 72.1161 259.917 73.9007 259.991Z" fill="#222222"/>
<path opacity="0.1" d="M70 274.989C70.9229 276.667 72.5077 277.953 74.4265 278.581C76.3453 279.208 78.4514 279.129 80.3089 278.36C82.1664 277.59 83.6332 276.19 84.406 274.448C85.1787 272.705 85.1982 270.755 84.4604 269C83.8075 269.398 83.2211 269.882 82.7201 270.437C81.9661 271.289 81.4689 272.255 80.5967 273.047C78.9665 274.518 76.358 275.125 74.0268 275.181C72.6816 275.192 71.3369 275.127 70 274.989Z" fill="#222222"/>
<path d="M164.533 278.416L170.152 275.302C169.393 274.078 168.422 272.982 167.279 272.06L156.682 275.166L164.984 270.564C162.928 269.503 160.615 268.964 158.271 269.002C155.927 269.039 153.634 269.652 151.618 270.778C149.601 271.905 147.931 273.507 146.77 275.427C145.61 277.347 145 279.519 145 281.729C145 288.757 151.045 289 158.5 289C165.955 289 172 288.757 172 281.729C172.004 279.948 171.609 278.186 170.84 276.558L164.533 278.416Z" fill="#36ABC5"/>
<path opacity="0.1" d="M166.121 285.204C165.518 284.632 164.845 284.13 164.115 283.71C163.091 283.062 162.024 282.402 160.812 282.185C159.75 281.992 158.653 282.157 157.569 282.096C155.687 281.987 153.915 281.218 152.6 279.939C151.826 279.182 151.219 278.252 150.288 277.672C149.247 277.087 148.02 276.874 146.828 277.072C146.482 277.118 146.14 277.184 145.803 277.27C145.271 278.672 144.999 280.151 145 281.641C145 288.754 151.091 289 158.602 289C162.249 289 165.556 288.944 168 288.07L167.575 287.35C167.189 286.579 166.7 285.858 166.121 285.204Z" fill="#222222"/>
<path opacity="0.1" d="M88.261 152.822C82.0022 154.717 76.1442 159.307 74.5807 165.675C72.7925 172.993 76.9161 180.37 77.5122 187.884C79.4372 212.504 44.5037 229.873 49.4872 254.057C51.466 263.672 59.464 270.745 67.3448 276.589C79.9698 285.921 93.9774 294.165 109.49 296.491C133.034 300.028 157.634 289.634 180.52 296.202C198.978 301.502 213.103 317.035 231.435 322.766C245.388 327.131 260.422 325.411 274.918 323.643C282.735 322.693 290.924 321.596 297.232 316.893C308.958 308.14 309.695 290.853 317.547 278.465C329.673 259.362 356.262 255.609 378.556 259.322C400.85 263.035 422.499 272.176 445.086 271.431C449.913 271.27 454.857 270.613 459.069 268.237C464.189 265.352 467.648 260.268 470.707 255.237C489.823 223.676 500.315 187.626 501.131 150.71C501.263 144.367 501.038 137.749 498.063 132.15C494.301 125.067 486.781 120.83 479.296 117.979C461.321 111.122 441.465 110 423.852 102.265C406.864 94.805 393.106 81.7214 378.312 70.5089C348.83 48.2077 314.658 32.9501 278.402 25.8993C269.905 24.2534 261.086 23.0778 252.644 24.9784C242.916 27.168 234.532 33.2469 226.993 39.7911C206.937 57.2 190.863 78.6795 172.38 97.7587C159.629 110.916 145.745 122.92 130.89 133.63C124.049 138.572 116.779 144.44 109.158 148.095C102.181 151.435 95.6385 150.593 88.261 152.822Z" fill="#36ABC5"/>
</svg>
