<svg width="300" height="190" viewBox="0 0 300 190" fill="none" xmlns="http://www.w3.org/2000/svg">
<path opacity="0.1" d="M256.409 65.1087C255.441 29.0055 221.236 0 179.171 0C158.596 0 139.918 6.94233 126.06 18.2692C97.254 20.5834 73.0364 36.5385 62.1802 58.5955C29.2032 66.1803 4.90967 92.1408 4.90967 123.013C4.90967 159.856 39.4963 189.695 82.1635 189.695C94.6964 189.683 106.996 187.094 117.785 182.196C127.901 186.566 139.277 188.929 150.883 189.069C162.489 189.209 173.956 187.122 184.246 182.997C194.749 187.57 206.612 189.983 218.686 190C261.353 190 295.94 160.16 295.94 123.317C295.94 98.3065 279.997 76.5239 256.409 65.1087Z" fill="#36ABC5"/>
<path d="M220.909 27.1431H100.909V162.857H220.909V27.1431Z" fill="url(#paint0_linear)"/>
<path d="M219.273 29.8569H102.545V160.686H219.273V29.8569Z" fill="white"/>
<path opacity="0.2" d="M157.091 51.0283H91.0908V92.8283H157.091V51.0283Z" fill="#36ABC5"/>
<path d="M154.909 45.6001H79.0903V88.4858H154.909V45.6001Z" fill="url(#paint1_linear)"/>
<path d="M153.818 51.5713H80.1816V87.3999H153.818V51.5713Z" fill="white"/>
<path d="M110.728 54.8286H85.0913V81.4286H110.728V54.8286Z" fill="url(#paint2_linear)"/>
<path d="M110.182 55.3716H85.6367V80.8859H110.182V55.3716Z" fill="#36ABC5"/>
<path d="M104.548 65.4883C104.371 63.9776 104.105 62.463 103.528 61.0499C102.952 59.6374 102.026 58.3378 100.737 57.5355C100.277 57.2266 99.745 57.0426 99.1935 57.0013C98.1839 56.966 97.2512 57.6495 96.7314 58.518C96.5552 58.8188 96.4019 59.132 96.2721 59.4556C95.791 59.5381 95.3519 59.7797 95.0241 60.1423C94.6968 60.5049 94.5005 60.968 94.4661 61.456C93.4003 61.9115 92.5035 62.6905 91.9008 63.6833C91.2986 64.6762 91.0216 65.8336 91.1077 66.9926C91.1945 68.1521 91.6401 69.2547 92.383 70.1471C93.1259 71.0391 94.1285 71.6753 95.2505 71.9663V72.9152C94.0619 73.2268 93.0092 73.9243 92.257 74.8982C91.5048 75.8727 91.0946 77.0697 91.0908 78.3019V80.8859H102.182V78.2981C102.178 77.0664 101.769 75.8699 101.017 74.8955C100.265 73.9216 99.2143 73.2241 98.0263 72.9114V71.963C99.2165 71.6541 100.271 70.9571 101.024 69.9821C101.777 69.0066 102.185 67.808 102.185 66.5741C102.185 66.5616 102.185 66.5475 102.185 66.535L102.81 67.9285C103.404 69.2563 104.013 70.6797 103.78 72.1177C104.919 70.1602 104.825 67.7379 104.548 65.4883Z" fill="white"/>
<path d="M153.818 46.1431H80.1816V51.5716H153.818V46.1431Z" fill="#36ABC5"/>
<path d="M147.819 62.9717H120V64.6002H147.819V62.9717Z" fill="#E0E0E0"/>
<path d="M147.819 70.5713H120V72.1999H147.819V70.5713Z" fill="#F5F5F5"/>
<path opacity="0.2" d="M136.364 66.7715H120V68.4H136.364V66.7715Z" fill="#36ABC5"/>
<path opacity="0.2" d="M130.91 74.3716H120V76.0002H130.91V74.3716Z" fill="#36ABC5"/>
<path d="M144.545 74.3716H133.091V76.0002H144.545V74.3716Z" fill="#36ABC5"/>
<path d="M210 102.6H112.909V106.4H210V102.6Z" fill="#E0E0E0"/>
<path d="M145.091 110.2H112.909V113.457H145.091V110.2Z" fill="#E0E0E0"/>
<path d="M210 110.2H177.818V113.457H210V110.2Z" fill="#36ABC5"/>
<path d="M210 117.8H112.909V121.057H210V117.8Z" fill="#E0E0E0"/>
<path d="M210 124.857H112.909V128.657H210V124.857Z" fill="#E0E0E0"/>
<path d="M122.727 131.914H112.364V136.257H122.727V131.914Z" fill="url(#paint3_linear)"/>
<path d="M122.182 132.457H112.909V135.714H122.182V132.457Z" fill="#36ABC5"/>
<path d="M165.818 132.457H156.545V135.714H165.818V132.457Z" fill="#36ABC5"/>
<path d="M209.999 132.457H200.727V135.714H209.999V132.457Z" fill="#36ABC5"/>
<path d="M211.637 143.314H153.818V156.343H211.637V143.314Z" fill="url(#paint4_linear)"/>
<path d="M210 144.943H154.909V154.714H210V144.943Z" fill="#36ABC5"/>
<path opacity="0.2" d="M210 144.943H154.909V154.714H210V144.943Z" fill="#222222"/>
<path d="M211.636 43.4287H175.091V71.1144H211.636V43.4287Z" fill="url(#paint5_linear)"/>
<path d="M210 45.6001H176.182V69.4858H210V45.6001Z" fill="#36ABC5"/>
<path opacity="0.2" d="M210 45.6001H176.182V69.4858H210V45.6001Z" fill="white"/>
<defs>
<linearGradient id="paint0_linear" x1="160.909" y1="162.857" x2="160.909" y2="27.1431" gradientUnits="userSpaceOnUse">
<stop stop-color="#808080" stop-opacity="0.25"/>
<stop offset="0.54" stop-color="#808080" stop-opacity="0.12"/>
<stop offset="1" stop-color="#808080" stop-opacity="0.1"/>
</linearGradient>
<linearGradient id="paint1_linear" x1="15953.1" y1="14603.6" x2="15953.1" y2="4403.22" gradientUnits="userSpaceOnUse">
<stop stop-color="#808080" stop-opacity="0.25"/>
<stop offset="0.54" stop-color="#808080" stop-opacity="0.12"/>
<stop offset="1" stop-color="#808080" stop-opacity="0.1"/>
</linearGradient>
<linearGradient id="paint2_linear" x1="915.197" y1="6114.3" x2="4550.95" y2="6114.3" gradientUnits="userSpaceOnUse">
<stop stop-color="#808080" stop-opacity="0.25"/>
<stop offset="0.54" stop-color="#808080" stop-opacity="0.12"/>
<stop offset="1" stop-color="#808080" stop-opacity="0.1"/>
</linearGradient>
<linearGradient id="paint3_linear" x1="2305.31" y1="2765.14" x2="2305.31" y2="2663.3" gradientUnits="userSpaceOnUse">
<stop stop-color="#808080" stop-opacity="0.25"/>
<stop offset="0.54" stop-color="#808080" stop-opacity="0.12"/>
<stop offset="1" stop-color="#808080" stop-opacity="0.1"/>
</linearGradient>
<linearGradient id="paint4_linear" x1="33242" y1="9497.81" x2="33242" y2="8566.81" gradientUnits="userSpaceOnUse">
<stop stop-color="#808080" stop-opacity="0.25"/>
<stop offset="0.54" stop-color="#808080" stop-opacity="0.12"/>
<stop offset="1" stop-color="#808080" stop-opacity="0.1"/>
</linearGradient>
<linearGradient id="paint5_linear" x1="23211.2" y1="6844.72" x2="23211.2" y2="2578.33" gradientUnits="userSpaceOnUse">
<stop stop-color="#808080" stop-opacity="0.25"/>
<stop offset="0.54" stop-color="#808080" stop-opacity="0.12"/>
<stop offset="1" stop-color="#808080" stop-opacity="0.1"/>
</linearGradient>
</defs>
</svg>
