<svg width="150" height="96" viewBox="0 0 150 96" fill="none" xmlns="http://www.w3.org/2000/svg">
<g clip-path="url(#clip0_1333_9315)">
<path opacity="0.1" d="M128.204 32.6614C127.72 14.5504 110.618 0 89.5852 0C79.298 0 69.9587 3.48258 63.0298 9.16465C48.6268 10.3255 36.518 18.3293 31.0899 29.3941C14.6013 33.199 2.45459 46.2219 2.45459 61.7089C2.45459 80.1908 19.7479 95.1597 41.0815 95.1597C47.3479 95.1535 53.498 93.8545 58.8922 91.3976C63.9502 93.5901 69.6385 94.7752 75.4413 94.8455C81.2444 94.9155 86.9779 93.8687 92.1229 91.7993C97.3743 94.0936 103.306 95.3038 109.343 95.3125C130.676 95.3125 147.97 80.3435 147.97 61.8614C147.97 49.315 139.998 38.3878 128.204 32.6614Z" fill="#00879E"/>
<path d="M118.248 23.3547H28.564C27.1878 23.3547 26.0723 24.4707 26.0723 25.8473V84.982C26.0723 86.3585 27.1878 87.4745 28.564 87.4745H118.248C119.625 87.4745 120.74 86.3585 120.74 84.982V25.8473C120.74 24.4707 119.625 23.3547 118.248 23.3547Z" fill="#F2F2F2"/>
<path d="M115.358 19.3071H25.6733C24.2972 19.3071 23.1816 20.4231 23.1816 21.7997V80.9342C23.1816 82.3108 24.2972 83.4267 25.6733 83.4267H115.358C116.734 83.4267 117.85 82.3108 117.85 80.9342V21.7997C117.85 20.4231 116.734 19.3071 115.358 19.3071Z" stroke="#36ABC5" stroke-opacity="0.1" stroke-miterlimit="10"/>
<path d="M23.1816 25.4546H117.85" stroke="#36ABC5" stroke-opacity="0.1" stroke-miterlimit="10"/>
<path opacity="0.3" d="M104.672 39.8665H80.6751C80.1719 39.8665 79.7642 40.2744 79.7642 40.7776V42.9382C79.7642 43.4418 80.1719 43.8497 80.6751 43.8497H104.672C105.175 43.8497 105.583 43.4418 105.583 42.9382V40.7776C105.583 40.2744 105.175 39.8665 104.672 39.8665Z" fill="#00879E"/>
<path opacity="0.3" d="M109.617 50.9172H75.7298C75.2268 50.9172 74.8188 51.3252 74.8188 51.8284V53.2181C74.8188 53.7216 75.2268 54.1295 75.7298 54.1295H109.617C110.12 54.1295 110.528 53.7216 110.528 53.2181V51.8284C110.528 51.3252 110.12 50.9172 109.617 50.9172Z" fill="#00879E"/>
<path opacity="0.3" d="M109.617 59.655H75.7298C75.2268 59.655 74.8188 60.063 74.8188 60.5662V61.9559C74.8188 62.4594 75.2268 62.8673 75.7298 62.8673H109.617C110.12 62.8673 110.528 62.4594 110.528 61.9559V60.5662C110.528 60.063 110.12 59.655 109.617 59.655Z" fill="#00879E"/>
<path opacity="0.3" d="M109.617 68.3931H75.7298C75.2268 68.3931 74.8188 68.8013 74.8188 69.3045V70.6942C74.8188 71.1975 75.2268 71.6057 75.7298 71.6057H109.617C110.12 71.6057 110.528 71.1975 110.528 70.6942V69.3045C110.528 68.8013 110.12 68.3931 109.617 68.3931Z" fill="#00879E"/>
<path d="M105.957 38.5813H81.9602C81.457 38.5813 81.0493 38.9892 81.0493 39.4925V41.6534C81.0493 42.1566 81.457 42.5645 81.9602 42.5645H105.957C106.46 42.5645 106.868 42.1566 106.868 41.6534V39.4925C106.868 38.9892 106.46 38.5813 105.957 38.5813Z" stroke="#36ABC5" stroke-opacity="0.1" stroke-miterlimit="10"/>
<path d="M110.902 49.6323H77.0149C76.5117 49.6323 76.104 50.0403 76.104 50.5438V51.9334C76.104 52.4367 76.5117 52.8446 77.0149 52.8446H110.902C111.405 52.8446 111.813 52.4367 111.813 51.9334V50.5438C111.813 50.0403 111.405 49.6323 110.902 49.6323Z" stroke="#36ABC5" stroke-opacity="0.1" stroke-miterlimit="10"/>
<path d="M110.902 58.3699H77.0149C76.5117 58.3699 76.104 58.7778 76.104 59.2811V60.671C76.104 61.1742 76.5117 61.5822 77.0149 61.5822H110.902C111.405 61.5822 111.813 61.1742 111.813 60.671V59.2811C111.813 58.7778 111.405 58.3699 110.902 58.3699Z" stroke="#36ABC5" stroke-opacity="0.1" stroke-miterlimit="10"/>
<path d="M110.902 67.1082H77.0149C76.5117 67.1082 76.104 67.5161 76.104 68.0193V69.409C76.104 69.9125 76.5117 70.3205 77.0149 70.3205H110.902C111.405 70.3205 111.813 69.9125 111.813 69.409V68.0193C111.813 67.5161 111.405 67.1082 110.902 67.1082Z" stroke="#36ABC5" stroke-opacity="0.1" stroke-miterlimit="10"/>
<path opacity="0.3" d="M30.3748 25.0895C31.439 25.0895 32.3016 24.2266 32.3016 23.1621C32.3016 22.0976 31.439 21.2346 30.3748 21.2346C29.3109 21.2346 28.4482 22.0976 28.4482 23.1621C28.4482 24.2266 29.3109 25.0895 30.3748 25.0895Z" fill="#00879E"/>
<path opacity="0.3" d="M35.7701 25.0895C36.834 25.0895 37.6966 24.2266 37.6966 23.1621C37.6966 22.0976 36.834 21.2346 35.7701 21.2346C34.7059 21.2346 33.8433 22.0976 33.8433 23.1621C33.8433 24.2266 34.7059 25.0895 35.7701 25.0895Z" fill="#00879E"/>
<path opacity="0.3" d="M41.1651 25.0895C42.2293 25.0895 43.0919 24.2266 43.0919 23.1621C43.0919 22.0976 42.2293 21.2346 41.1651 21.2346C40.1009 21.2346 39.2383 22.0976 39.2383 23.1621C39.2383 24.2266 40.1009 25.0895 41.1651 25.0895Z" fill="#00879E"/>
<path d="M31.1458 24.3183C32.21 24.3183 33.0726 23.4553 33.0726 22.3908C33.0726 21.3263 32.21 20.4634 31.1458 20.4634C30.0819 20.4634 29.2192 21.3263 29.2192 22.3908C29.2192 23.4553 30.0819 24.3183 31.1458 24.3183Z" stroke="#36ABC5" stroke-opacity="0.1" stroke-miterlimit="10"/>
<path d="M36.5411 24.3183C37.6053 24.3183 38.4679 23.4553 38.4679 22.3908C38.4679 21.3263 37.6053 20.4634 36.5411 20.4634C35.4769 20.4634 34.6143 21.3263 34.6143 22.3908C34.6143 23.4553 35.4769 24.3183 36.5411 24.3183Z" stroke="#36ABC5" stroke-opacity="0.1" stroke-miterlimit="10"/>
<path d="M41.9356 24.3183C42.9998 24.3183 43.8624 23.4553 43.8624 22.3908C43.8624 21.3263 42.9998 20.4634 41.9356 20.4634C40.8714 20.4634 40.0088 21.3263 40.0088 22.3908C40.0088 23.4553 40.8714 24.3183 41.9356 24.3183Z" stroke="#36ABC5" stroke-opacity="0.1" stroke-miterlimit="10"/>
<path d="M53.0917 80.7286C52.7691 79.242 52.6837 77.2118 52.792 75.7996C52.792 75.7996 51.1611 68.631 49.8776 67.9622L49.8771 67.9627C49.8574 67.988 49.2345 68.8047 49.1557 71.3324C49.0755 73.9001 48.1665 75.5853 48.1665 75.5853C48.1665 75.5853 48.4608 78.7859 48.2925 80.7286H53.0917Z" fill="#00879E"/>
<path d="M64.9576 35.1125H35.3555C34.9543 35.1123 34.5572 35.1915 34.1868 35.3448C33.8165 35.4984 33.4797 35.7234 33.1963 36.0071C32.9127 36.2906 32.6877 36.6275 32.5344 36.9981C32.3808 37.3687 32.3018 37.7658 32.3018 38.1669V77.6739C32.3018 78.0751 32.3808 78.4724 32.5344 78.843C32.6877 79.2136 32.9127 79.5502 33.1963 79.834C33.4797 80.1175 33.8165 80.3427 34.1868 80.496C34.5572 80.6496 34.9543 80.7286 35.3555 80.7286H45.7412C45.3943 79.2896 44.9631 77.0419 45.3998 75.4793V75.4782L45.4 75.4788C45.4205 75.406 45.442 75.3339 45.4663 75.2642C45.7663 74.25 45.8661 73.1872 45.7606 72.1349C45.9534 71.2357 45.9534 70.3057 45.7606 69.4065C45.4398 67.9088 45.2151 66.4377 45.2151 66.4377C45.2151 66.4377 45.0384 64.4585 45.1928 63.2453C45.196 63.2186 45.2001 63.1932 45.2039 63.1674C45.1494 63.1551 45.1189 63.148 45.1189 63.148C45.1189 63.148 45.5735 61.0885 45.7339 59.7778C45.7718 59.4684 45.8214 59.076 45.8754 58.658C45.7273 58.6332 45.5817 58.5965 45.4396 58.5474C43.9958 58.0393 43.5414 53.4387 43.5414 53.4387V51.981C43.5414 51.981 43.06 49.7477 44.7444 48.758C46.3666 47.8049 47.014 47.5443 47.0599 47.5261C47.0724 47.5173 47.0844 47.5092 47.0969 47.4996C47.2802 47.3556 47.4253 47.1688 47.5197 46.9555C47.5219 46.9188 47.5224 46.8823 47.521 46.8461C47.4938 46.3235 47.1302 45.8483 46.7849 45.4335C46.4907 45.0798 46.1964 44.7263 45.9021 44.3726C45.8012 44.2672 45.7238 44.1416 45.6747 44.0044C45.6561 43.9287 45.6479 43.8505 45.6507 43.7726C45.6504 43.7438 45.6507 43.7149 45.6512 43.686C45.6561 43.4224 45.6632 43.1588 45.6728 42.8952C45.6809 42.6648 45.739 42.3743 45.9643 42.3269C46.0816 42.3024 46.2368 42.3454 46.2989 42.2427C46.3197 42.2005 46.3249 42.1523 46.3139 42.1066C46.3131 42.1098 46.3129 42.1134 46.312 42.1169C46.3112 42.1126 46.3104 42.1082 46.3096 42.1039C46.2632 41.9192 46.2354 41.7305 46.2261 41.5404C46.2237 41.4546 46.2359 41.3689 46.2624 41.2872C46.393 40.9048 46.8428 40.748 47.2401 40.6758C47.6375 40.6039 48.0834 40.5418 48.3329 40.224C48.3998 40.1184 48.472 40.0168 48.5498 39.919C48.6643 39.815 48.8048 39.7439 48.9564 39.7137C49.4498 39.589 49.9709 39.6353 50.4346 39.8449C50.6266 39.9326 50.8197 40.0508 51.0308 40.0375C51.2498 40.0236 51.4369 39.8695 51.6529 39.8319C52.0022 39.7714 52.3363 40.0331 52.5084 40.343C52.6175 40.5405 52.6723 40.7632 52.6666 40.9887C52.6707 41.2131 52.5899 41.4307 52.4399 41.5979C52.2897 41.7572 52.0655 41.8669 52.003 42.0772C51.9777 42.1627 51.9834 42.2547 51.961 42.341C51.9583 42.3519 51.9537 42.362 51.9501 42.3724C51.9542 42.3778 51.9586 42.3827 51.9627 42.3882C52.2256 42.7348 52.4018 43.1392 52.4768 43.5679C52.5515 43.9965 52.5229 44.4368 52.393 44.8519C52.2629 45.2671 52.0358 45.6454 51.73 45.9548C51.4243 46.2644 51.049 46.4961 50.6356 46.6309C50.6345 46.6582 50.6334 46.6851 50.6337 46.7124C50.6258 46.8809 50.6544 47.0492 50.7174 47.2058C50.7804 47.3624 50.8761 47.5037 50.9983 47.6203L53.3809 48.5974C53.3809 48.5974 54.8149 48.4236 55.3325 50.5646C55.4154 50.9205 55.4454 51.2868 55.4211 51.6514C55.4023 51.9744 55.4462 52.5428 55.8139 53.2783C56.4021 54.455 56.2685 57.1564 55.0652 57.4241C53.9255 57.6774 53.4823 57.5709 53.4384 57.5589L53.4359 57.6063C53.4548 58.1131 53.635 62.4852 54.2899 63.0141C54.4709 63.1606 54.4363 63.2591 54.2877 63.3259L54.2879 63.3264C54.2879 63.3264 54.2893 63.3545 54.292 63.4048C54.3117 63.7248 54.4129 64.9424 54.8511 65.6352C55.3592 66.4377 55.306 71.0652 55.306 71.0652L55.6532 73.7934C55.6532 73.7934 55.4394 75.4785 55.6532 75.7726C55.7749 75.9393 55.9219 78.5228 56.0263 80.7286H64.9576C65.7676 80.7286 66.544 80.4067 67.1168 79.834C67.6895 79.261 68.011 78.4841 68.011 77.6739V38.1669C68.011 37.7658 67.9322 37.3687 67.7787 36.9981C67.6251 36.6275 67.4004 36.2906 67.1168 36.0071C66.8331 35.7234 66.4966 35.4984 66.1262 35.3448C65.7556 35.1915 65.3585 35.1123 64.9576 35.1125Z" fill="#00879E"/>
<path d="M61.8748 31.6428H32.2727C30.5861 31.6428 29.2192 33.0104 29.2192 34.6975V74.2045C29.2192 75.8915 30.5861 77.2591 32.2727 77.2591H61.8748C63.5613 77.2591 64.9282 75.8915 64.9282 74.2045V34.6975C64.9282 33.0104 63.5613 31.6428 61.8748 31.6428Z" stroke="#36ABC5" stroke-opacity="0.1" stroke-miterlimit="10"/>
<path d="M114.944 7.89722C114.397 7.92815 113.869 8.11107 113.419 8.42544C112.97 8.73981 112.617 9.17318 112.4 9.67703C111.763 11.2156 112.583 13.0229 113.812 14.1449C115.042 15.2668 116.622 15.9081 118.057 16.7511C119.986 17.8833 121.718 19.455 122.683 21.4725C123.647 23.49 123.75 25.9892 122.616 27.9167C121.564 29.7055 119.65 30.7763 117.825 31.7637" stroke="#36ABC5" stroke-opacity="0.1" stroke-miterlimit="10"/>
<path d="M118.364 16.3197C119.605 16.3197 120.611 15.8307 120.611 15.2275C120.611 14.6243 119.605 14.1353 118.364 14.1353C117.122 14.1353 116.116 14.6243 116.116 15.2275C116.116 15.8307 117.122 16.3197 118.364 16.3197Z" fill="#00879E"/>
<path d="M114.253 17.476C115.495 17.476 116.501 16.987 116.501 16.3837C116.501 15.7805 115.495 15.2915 114.253 15.2915C113.012 15.2915 112.005 15.7805 112.005 16.3837C112.005 16.987 113.012 17.476 114.253 17.476Z" fill="#00879E"/>
<path d="M120.676 23.5148C121.917 23.5148 122.924 23.0258 122.924 22.4225C122.924 21.8193 121.917 21.3303 120.676 21.3303C119.434 21.3303 118.428 21.8193 118.428 22.4225C118.428 23.0258 119.434 23.5148 120.676 23.5148Z" fill="#00879E"/>
<path d="M125.171 23.5148C126.413 23.5148 127.419 23.0258 127.419 22.4225C127.419 21.8193 126.413 21.3303 125.171 21.3303C123.93 21.3303 122.923 21.8193 122.923 22.4225C122.923 23.0258 123.93 23.5148 125.171 23.5148Z" fill="#00879E"/>
</g>
<defs>
<clipPath id="clip0_1333_9315">
<rect width="150" height="95.3125" fill="white"/>
</clipPath>
</defs>
</svg>
