<svg width="550" height="350" viewBox="0 0 550 350" fill="none" xmlns="http://www.w3.org/2000/svg">
<path opacity="0.1" d="M88.261 152.822C82.0022 154.717 76.1442 159.307 74.5807 165.675C72.7925 172.993 76.9161 180.37 77.5122 187.884C79.4372 212.504 44.5037 229.873 49.4872 254.057C51.466 263.672 59.464 270.745 67.3448 276.589C79.9698 285.921 93.9774 294.165 109.49 296.491C133.034 300.028 157.634 289.634 180.52 296.202C198.978 301.502 213.103 317.035 231.435 322.766C245.388 327.131 260.422 325.411 274.918 323.643C282.735 322.693 290.924 321.596 297.232 316.893C308.958 308.14 309.695 290.853 317.547 278.465C329.673 259.362 356.262 255.609 378.556 259.322C400.85 263.035 422.499 272.176 445.086 271.431C449.913 271.27 454.857 270.613 459.069 268.237C464.189 265.352 467.648 260.268 470.707 255.237C489.823 223.676 500.315 187.626 501.131 150.71C501.263 144.367 501.038 137.749 498.063 132.15C494.301 125.067 486.781 120.83 479.296 117.979C461.321 111.122 441.465 110 423.852 102.265C406.864 94.805 393.106 81.7214 378.312 70.5089C348.83 48.2077 314.658 32.9501 278.402 25.8993C269.905 24.2534 261.086 23.0778 252.644 24.9784C242.916 27.168 234.532 33.2469 226.993 39.7911C206.937 57.2 190.863 78.6795 172.38 97.7587C159.629 110.916 145.745 122.92 130.89 133.63C124.049 138.572 116.779 144.44 109.158 148.095C102.181 151.435 95.6385 150.593 88.261 152.822Z" fill="#36ABC5"/>
<g opacity="0.5">
<path opacity="0.5" d="M291.394 51.0003L261.369 250.002L405.397 271.733L435.422 72.731L291.394 51.0003Z" fill="url(#paint0_linear)"/>
</g>
<path d="M293.006 52.7431L263.645 247.346L404.008 268.524L433.369 73.9209L293.006 52.7431Z" fill="#F5F5F5"/>
<path d="M400.271 155.242L298.965 139.957L298.038 146.098L399.344 161.382L400.271 155.242Z" fill="#E0E0E0"/>
<path d="M397.954 170.59L296.648 155.305L295.722 161.445L397.028 176.73L397.954 170.59Z" fill="#E0E0E0"/>
<path d="M407.679 106.122L355.49 98.248L354.564 104.389L406.753 112.263L407.679 106.122Z" fill="#E0E0E0"/>
<path d="M400.761 120.778L357.781 114.293L356.855 120.433L399.835 126.918L400.761 120.778Z" fill="#36ABC5"/>
<path d="M383.361 184.087L294.332 170.654L293.406 176.795L382.434 190.227L383.361 184.087Z" fill="#E0E0E0"/>
<path d="M368.761 197.583L292.014 186.004L291.087 192.144L367.835 203.724L368.761 197.583Z" fill="#E0E0E0"/>
<path d="M357.236 211.544L289.697 201.354L288.771 207.494L356.309 217.684L357.236 211.544Z" fill="#E0E0E0"/>
<path d="M373.339 229.672L287.383 216.703L286.456 222.844L372.413 235.813L373.339 229.672Z" fill="#E0E0E0"/>
<path d="M318.836 237.146L285.068 232.051L284.142 238.191L317.909 243.286L318.836 237.146Z" fill="#36ABC5"/>
<g opacity="0.5">
<path opacity="0.5" d="M258.201 79.5932L114 102.898L146.201 302.14L290.402 278.835L258.201 79.5932Z" fill="url(#paint1_linear)"/>
</g>
<path d="M256.033 80.7563L115.951 103.721L147.79 297.933L287.871 274.969L256.033 80.7563Z" fill="#F5F5F5"/>
<path d="M249.54 168.295L148.438 184.869L149.442 190.997L250.545 174.423L249.54 168.295Z" fill="#E0E0E0"/>
<path d="M252.05 183.615L150.947 200.189L151.952 206.318L253.055 189.743L252.05 183.615Z" fill="#E0E0E0"/>
<path d="M241.506 119.276L189.422 127.814L190.427 133.943L242.511 125.404L241.506 119.276Z" fill="#E0E0E0"/>
<path d="M239.421 135.349L196.527 142.381L197.532 148.509L240.426 141.477L239.421 135.349Z" fill="#36ABC5"/>
<path d="M242.309 200.942L153.459 215.508L154.464 221.636L243.314 207.07L242.309 200.942Z" fill="#E0E0E0"/>
<path d="M232.562 218.268L155.969 230.824L156.973 236.952L233.567 224.396L232.562 218.268Z" fill="#E0E0E0"/>
<path d="M225.884 235.095L158.48 246.145L159.485 252.273L226.888 241.223L225.884 235.095Z" fill="#E0E0E0"/>
<path d="M246.776 247.398L160.992 261.461L161.997 267.589L247.781 253.526L246.776 247.398Z" fill="#E0E0E0"/>
<path d="M197.206 271.257L163.506 276.781L164.51 282.909L198.21 277.385L197.206 271.257Z" fill="#36ABC5"/>
<g opacity="0.5">
<path opacity="0.5" d="M363.453 111.83H217.795V313.084H363.453V111.83Z" fill="url(#paint2_linear)"/>
</g>
<path d="M361.168 113H219.168V310H361.168V113Z" fill="white"/>
<path d="M341.168 199H238.168V205H341.168V199Z" fill="#E0E0E0"/>
<path d="M341.168 214H238.168V220H341.168V214Z" fill="#E0E0E0"/>
<path d="M341.168 149H239.168V155H341.168V149Z" fill="#E0E0E0"/>
<path d="M332.168 165H248.168V171H332.168V165Z" fill="#36ABC5"/>
<path d="M328.168 230H238.168V236H328.168V230Z" fill="#E0E0E0"/>
<path d="M316.168 245H238.168V251H316.168V245Z" fill="#E0E0E0"/>
<path d="M307.168 261H238.168V267H307.168V261Z" fill="#E0E0E0"/>
<path d="M325.168 276H238.168V282H325.168V276Z" fill="#E0E0E0"/>
<path d="M273.168 292H238.168V298H273.168V292Z" fill="#36ABC5"/>
<g opacity="0.5">
<path opacity="0.5" d="M353.63 325.994C370.766 325.994 384.658 312.102 384.658 294.966C384.658 277.829 370.766 263.938 353.63 263.938C336.493 263.938 322.602 277.829 322.602 294.966C322.602 312.102 336.493 325.994 353.63 325.994Z" fill="url(#paint3_linear)"/>
</g>
<path d="M353.668 324C369.96 324 383.168 311.016 383.168 295C383.168 278.984 369.96 266 353.668 266C337.376 266 324.168 278.984 324.168 295C324.168 311.016 337.376 324 353.668 324Z" fill="#36ABC5"/>
<path d="M340.793 290.799L351.891 300.856L367.615 278L373.168 282.572L351.891 310L336.168 292.63L340.793 290.799Z" fill="white"/>
<defs>
<linearGradient id="paint0_linear" x1="333.383" y1="260.867" x2="363.408" y2="61.8657" gradientUnits="userSpaceOnUse">
<stop stop-color="#808080" stop-opacity="0.25"/>
<stop offset="0.54" stop-color="#808080" stop-opacity="0.12"/>
<stop offset="1" stop-color="#808080" stop-opacity="0.1"/>
</linearGradient>
<linearGradient id="paint1_linear" x1="81015.8" y1="65753.3" x2="63390.1" y2="-43305.5" gradientUnits="userSpaceOnUse">
<stop stop-color="#808080" stop-opacity="0.25"/>
<stop offset="0.54" stop-color="#808080" stop-opacity="0.12"/>
<stop offset="1" stop-color="#808080" stop-opacity="0.1"/>
</linearGradient>
<linearGradient id="paint2_linear" x1="70237" y1="143574" x2="70237" y2="33413.3" gradientUnits="userSpaceOnUse">
<stop stop-color="#808080" stop-opacity="0.25"/>
<stop offset="0.54" stop-color="#808080" stop-opacity="0.12"/>
<stop offset="1" stop-color="#808080" stop-opacity="0.1"/>
</linearGradient>
<linearGradient id="paint3_linear" x1="40787.5" y1="46678.2" x2="40787.5" y2="36205" gradientUnits="userSpaceOnUse">
<stop stop-color="#808080" stop-opacity="0.25"/>
<stop offset="0.54" stop-color="#808080" stop-opacity="0.12"/>
<stop offset="1" stop-color="#808080" stop-opacity="0.1"/>
</linearGradient>
</defs>
</svg>
