<svg width="150" height="96" viewBox="0 0 150 96" fill="none" xmlns="http://www.w3.org/2000/svg">
<g clip-path="url(#clip0_3826_40574)">
<path opacity="0.1" d="M127.931 32.8324C127.447 14.6266 110.345 0 89.3123 0C79.025 0 69.6857 3.50082 62.7568 9.21263C48.3538 10.3796 36.245 18.4253 30.8169 29.548C14.3284 33.3728 2.18164 46.4639 2.18164 62.0319C2.18164 80.6106 19.475 95.6579 40.8086 95.6579C47.075 95.6516 53.225 94.3459 58.6193 91.8761C63.6773 94.0801 69.3656 95.2714 75.1684 95.342C80.9715 95.4124 86.705 94.3601 91.85 92.2799C97.1014 94.5862 103.033 95.8027 109.07 95.8115C130.404 95.8115 147.697 80.7642 147.697 62.1852C147.697 49.5731 139.725 38.5888 127.931 32.8324Z" fill="#00879E"/>
<path d="M107 29H43V75H107V29Z" fill="white"/>
<path opacity="0.5" d="M81.182 41.3186H68.3638V42.6873H81.182V41.3186Z" fill="#CBCBCB"/>
<path d="M73.2726 47.3411H59.0908V48.7098H73.2726V47.3411Z" fill="#E0E0E0"/>
<path d="M76.5454 48.7098H90.4545V47.3411H76.5454V48.7098Z" fill="#E0E0E0"/>
<path d="M73.1818 56H59V57.3687H73.1818V56Z" fill="#E0E0E0"/>
<path d="M76.4546 57.3687H90.3637V56H76.4546V57.3687Z" fill="#E0E0E0"/>
<path d="M90.4545 50.3523H59.0908V51.721H90.4545V50.3523Z" fill="#E0E0E0"/>
<path d="M90.4545 53.0898H59.0908V54.4586H90.4545V53.0898Z" fill="#E0E0E0"/>
<path d="M90.3636 59H59V60.3687H90.3636V59Z" fill="#E0E0E0"/>
<path d="M96.8718 68.0467L92.9533 64.128C92.7823 63.9573 92.5052 63.9573 92.3347 64.128L92.128 64.3342C91.9573 64.5052 91.9573 64.7823 92.128 64.9531L96.0466 68.8715C96.2175 69.0424 96.4946 69.0424 96.6651 68.8715L96.8713 68.6653C97.0427 68.4948 97.0427 68.2176 96.8718 68.0467Z" fill="#00879E"/>
<path d="M96.0466 64.1284L92.128 68.0468C91.9573 68.2178 91.9573 68.4949 92.128 68.6657L92.3342 68.8719C92.5052 69.0428 92.7823 69.0428 92.953 68.8719L96.8718 64.9534C97.0427 64.7825 97.0427 64.5056 96.8718 64.3349L96.6654 64.1287C96.4946 63.9575 96.2175 63.9575 96.0466 64.1284Z" fill="#00879E"/>
<path d="M107 25H43V29H107V25Z" fill="#F5F5F5"/>
<path d="M44.8182 27.6425C45.2701 27.6425 45.6364 27.2748 45.6364 26.8212C45.6364 26.3676 45.2701 26 44.8182 26C44.3663 26 44 26.3676 44 26.8212C44 27.2748 44.3663 27.6425 44.8182 27.6425Z" fill="#FF5252"/>
<path d="M47.4544 27.6425C47.9063 27.6425 48.2726 27.2748 48.2726 26.8212C48.2726 26.3676 47.9063 26 47.4544 26C47.0025 26 46.6362 26.3676 46.6362 26.8212C46.6362 27.2748 47.0025 27.6425 47.4544 27.6425Z" fill="#CBCBCB"/>
<path d="M50.0906 27.6425C50.5425 27.6425 50.9088 27.2748 50.9088 26.8212C50.9088 26.3676 50.5425 26 50.0906 26C49.6387 26 49.2725 26.3676 49.2725 26.8212C49.2725 27.2748 49.6387 27.6425 50.0906 27.6425Z" fill="#CBCBCB"/>
<path d="M115.746 81.597L101.767 70.884C101.685 70.8067 101.589 70.7454 101.482 70.7035C101.376 70.6618 101.262 70.6404 101.147 70.6405H100.553C101.74 69.194 102.302 67.3713 102.125 65.5443C101.947 63.7172 101.044 62.0233 99.5984 60.8078C98.153 59.5924 96.2744 58.9471 94.3459 59.0034C92.4173 59.0597 90.584 59.8134 89.2197 61.1108C87.8553 62.4083 87.0628 64.1517 87.0036 65.9857C86.9444 67.8198 87.623 69.6061 88.9011 70.9807C90.1791 72.3554 91.9604 73.2145 93.8818 73.3833C95.803 73.5519 97.7196 73.0174 99.2407 71.8887V72.4529C99.2405 72.5624 99.2631 72.6707 99.307 72.7718C99.351 72.8729 99.4154 72.9649 99.4967 73.0422L113.476 83.7551C113.557 83.8327 113.653 83.8943 113.759 83.9363C113.865 83.9784 113.979 84 114.094 84C114.209 84 114.323 83.9784 114.429 83.9363C114.535 83.8943 114.631 83.8327 114.712 83.7551L115.742 82.7763C115.907 82.6201 115.999 82.4084 116 82.1873C116.001 81.9663 115.909 81.7541 115.746 81.597ZM94.5738 70.6405C93.6508 70.6405 92.7485 70.3802 91.9811 69.8926C91.2136 69.4049 90.6154 68.7118 90.2622 67.9008C89.909 67.0899 89.8166 66.1976 89.9966 65.3366C90.1767 64.4757 90.6212 63.6849 91.2738 63.0643C91.9265 62.4436 92.7581 62.0209 93.6633 61.8497C94.5686 61.6784 95.507 61.7663 96.3598 62.1022C97.2126 62.4381 97.9414 63.007 98.4543 63.7368C98.967 64.4666 99.2407 65.3248 99.2407 66.2024C99.2412 66.7855 99.1207 67.3628 98.8865 67.9016C98.6521 68.4402 98.3084 68.9298 97.8749 69.3419C97.4415 69.7543 96.9269 70.0812 96.3604 70.3043C95.794 70.5272 95.1869 70.6408 94.5738 70.6405Z" fill="#00879E"/>
</g>
<defs>
<clipPath id="clip0_3826_40574">
<rect width="150" height="95.8115" fill="white"/>
</clipPath>
</defs>
</svg>
