<svg width="547" height="350" viewBox="0 0 547 350" fill="none" xmlns="http://www.w3.org/2000/svg">
<path opacity="0.1" d="M492.878 61.002H120.898V302.676H492.878V61.002Z" fill="#36ABC5"/>
<path d="M142.031 59.6504H113.625V303.579H142.031V59.6504Z" fill="#394264"/>
<path d="M266.986 126.83H192.59V127.732H266.986V126.83Z" fill="#394264"/>
<path d="M436.515 257.587H334.164V162H436.515V257.587ZM335.066 256.686H435.613V162.902H335.066V256.686Z" fill="#394264"/>
<path d="M334.924 162.12L334.309 162.779L435.757 257.465L436.373 256.806L334.924 162.12Z" fill="#394264"/>
<path d="M435.762 162.122L334.309 256.803L334.924 257.462L436.377 162.781L435.762 162.122Z" fill="#394264"/>
<path d="M297.646 193.111H192.59V194.013H297.646V193.111Z" fill="#394264"/>
<path d="M297.646 209.342H192.59V210.244H297.646V209.342Z" fill="#394264"/>
<path d="M297.646 225.576H192.59V226.478H297.646V225.576Z" fill="#394264"/>
<path d="M374.441 302.955H54V304.091H374.441V302.955Z" fill="#3F3D56"/>
<path d="M436.516 114.206H192.137V97.5234H436.516V114.206ZM193.038 113.304H435.614V98.4252H193.038V113.304Z" fill="#394264"/>
<path d="M216.342 147.502H192.293C194.149 140.031 193.925 131.949 192.293 123.453H216.342C212.976 131.47 212.976 139.486 216.342 147.502Z" fill="white"/>
<path d="M210.513 128.557H195.938V131.472H210.513V128.557Z" fill="#3F3D56"/>
<path d="M210.513 134.385H195.938V137.3H210.513V134.385Z" fill="#3F3D56"/>
<path d="M210.513 140.215H195.938V143.13H210.513V140.215Z" fill="#3F3D56"/>
<path d="M397.448 183.821H373.398C375.255 176.35 375.031 168.267 373.398 159.771H397.448C394.081 167.788 394.081 175.804 397.448 183.821Z" fill="white"/>
<path d="M391.622 164.875H377.047V167.79H391.622V164.875Z" fill="#3F3D56"/>
<path d="M391.622 170.703H377.047V173.618H391.622V170.703Z" fill="#3F3D56"/>
<path d="M391.622 176.533H377.047V179.448H391.622V176.533Z" fill="#3F3D56"/>
<path d="M428.37 132.288H404.32C406.177 124.816 405.953 116.734 404.32 108.238H428.37C425.003 116.255 425.003 124.271 428.37 132.288Z" fill="white"/>
<path d="M422.536 113.34H407.961V116.255H422.536V113.34Z" fill="#3F3D56"/>
<path d="M422.536 119.17H407.961V122.085H422.536V119.17Z" fill="#3F3D56"/>
<path d="M422.536 125H407.961V127.915H422.536V125Z" fill="#3F3D56"/>
<path d="M134.206 159.526H121.445V146.766H134.206V159.526ZM122.427 158.545H133.225V147.747H122.427V158.545Z" fill="#CFDAE6"/>
<path d="M134.452 187.993H121.691V175.232H134.452V187.993ZM122.673 187.012H133.471V176.214H122.673V187.012Z" fill="#CFDAE6"/>
<path d="M134.694 216.46H121.934V203.699H134.694V216.46ZM122.915 215.478H133.713V204.681H122.915V215.478Z" fill="#CFDAE6"/>
<path d="M122.184 207.872C124.353 207.872 126.111 206.114 126.111 203.946C126.111 201.777 124.353 200.02 122.184 200.02C120.016 200.02 118.258 201.777 118.258 203.946C118.258 206.114 120.016 207.872 122.184 207.872Z" fill="#36ABC5"/>
<path d="M88.2678 74C88.2678 74 122.757 108.578 103.287 159.888C83.8168 211.199 136.662 296.524 136.662 296.524C136.662 296.524 136.095 296.441 135.044 296.255C64.2003 283.72 29.0225 202.495 68.4021 142.156C83.0253 119.722 95.0688 93.4074 88.2678 74Z" fill="#308294"/>
<path d="M18 227.854C18 227.854 57.3551 221.569 60.9413 256.931C64.5275 292.292 136.618 297.196 136.618 297.196C136.618 297.196 136.129 297.519 135.264 298.097C75.7404 337.284 18.8404 323.049 27.4149 271.033C30.6103 251.69 30.3464 232.268 18 227.854Z" fill="#308294"/>
<g opacity="0.3">
<path opacity="0.3" d="M18 227.854C18 227.854 57.3551 221.569 60.9413 256.931C64.5275 292.292 136.618 297.196 136.618 297.196C136.618 297.196 136.129 297.519 135.264 298.097C75.7404 337.284 18.8404 323.049 27.4149 271.033C30.6103 251.69 30.3464 232.268 18 227.854Z" fill="white"/>
</g>
<path d="M69.4666 227.418C75.4434 227.418 80.2886 214.744 80.2886 199.111C80.2886 183.477 75.4434 170.803 69.4666 170.803C63.4897 170.803 58.6445 183.477 58.6445 199.111C58.6445 214.744 63.4897 227.418 69.4666 227.418Z" fill="#308294"/>
<path opacity="0.3" d="M69.4666 227.418C75.4434 227.418 80.2886 214.744 80.2886 199.111C80.2886 183.477 75.4434 170.803 69.4666 170.803C63.4897 170.803 58.6445 183.477 58.6445 199.111C58.6445 214.744 63.4897 227.418 69.4666 227.418Z" fill="#CFDAE6"/>
<path d="M68.4779 301.919C71.3265 299.063 68.496 291.594 62.1556 285.238C55.8152 278.881 48.366 276.043 45.5174 278.899C42.6687 281.755 45.4992 289.223 51.8396 295.58C58.18 301.937 65.6292 304.775 68.4779 301.919Z" fill="#308294"/>
<path opacity="0.3" d="M68.4779 301.919C71.3265 299.063 68.496 291.594 62.1556 285.238C55.8152 278.881 48.366 276.043 45.5174 278.899C42.6687 281.755 45.4992 289.223 51.8396 295.58C58.18 301.937 65.6292 304.775 68.4779 301.919Z" fill="#CFDAE6"/>
<path d="M165.612 169.602C165.612 169.602 146.729 194.745 160.238 224.052C173.747 253.359 136.693 300.447 136.693 300.447" stroke="#535461" stroke-width="2" stroke-miterlimit="10"/>
<path d="M174.079 160.192C172.579 166.662 165.402 170.517 165.402 170.517C165.402 170.517 160.663 163.88 162.163 157.409C163.662 150.939 167.537 146.315 170.84 147.084C174.143 147.853 175.579 153.721 174.079 160.192Z" fill="#308294"/>
<path d="M170.816 188.941C164.582 191.195 157.453 187.246 157.453 187.246C157.453 187.246 160.433 179.649 166.673 177.401C172.912 175.152 178.887 175.931 180.035 179.096C181.184 182.26 177.05 186.688 170.816 188.941Z" fill="#308294"/>
<path d="M169.066 183.952C171.021 183.242 172.392 182.072 172.126 181.337C171.861 180.602 170.061 180.581 168.105 181.29C166.15 181.999 164.779 183.17 165.045 183.905C165.31 184.64 167.11 184.661 169.066 183.952Z" fill="#308294"/>
<path opacity="0.3" d="M169.066 183.952C171.021 183.242 172.392 182.072 172.126 181.337C171.861 180.602 170.061 180.581 168.105 181.29C166.15 181.999 164.779 183.17 165.045 183.905C165.31 184.64 167.11 184.661 169.066 183.952Z" fill="#308294"/>
<path d="M169.365 211.849C163.13 214.103 156.002 210.155 156.002 210.155C156.002 210.155 158.982 202.557 165.221 200.309C171.461 198.061 177.436 198.839 178.584 202.004C179.732 205.168 175.599 209.601 169.365 211.849Z" fill="#308294"/>
<path d="M167.686 207.207C169.644 206.5 171.016 205.331 170.752 204.596C170.488 203.86 168.687 203.836 166.73 204.543C164.772 205.25 163.4 206.419 163.664 207.154C163.928 207.89 165.729 207.913 167.686 207.207Z" fill="#308294"/>
<path opacity="0.3" d="M167.686 207.207C169.644 206.5 171.016 205.331 170.752 204.596C170.488 203.86 168.687 203.836 166.73 204.543C164.772 205.25 163.4 206.419 163.664 207.154C163.928 207.89 165.729 207.913 167.686 207.207Z" fill="#308294"/>
<path d="M176.65 238.728C170.415 240.982 163.287 237.034 163.287 237.034C163.287 237.034 166.267 229.436 172.507 227.188C178.746 224.939 184.721 225.718 185.869 228.883C187.017 232.047 182.884 236.49 176.65 238.728Z" fill="#308294"/>
<path d="M174.972 234.097C176.929 233.391 178.302 232.222 178.037 231.486C177.773 230.751 175.972 230.727 174.015 231.434C172.058 232.14 170.685 233.309 170.949 234.045C171.213 234.78 173.014 234.804 174.972 234.097Z" fill="#308294"/>
<path opacity="0.3" d="M174.972 234.097C176.929 233.391 178.302 232.222 178.037 231.486C177.773 230.751 175.972 230.727 174.015 231.434C172.058 232.14 170.685 233.309 170.949 234.045C171.213 234.78 173.014 234.804 174.972 234.097Z" fill="#308294"/>
<path d="M171.911 263.308C165.677 265.562 158.549 261.614 158.549 261.614C158.549 261.614 161.529 254.016 167.768 251.768C174.007 249.52 179.983 250.298 181.131 253.463C182.279 256.627 178.151 261.06 171.911 263.308Z" fill="#308294"/>
<path d="M170.247 258.26C172.203 257.551 173.573 256.38 173.308 255.645C173.043 254.91 171.243 254.89 169.287 255.599C167.331 256.308 165.961 257.479 166.226 258.214C166.491 258.948 168.292 258.969 170.247 258.26Z" fill="#308294"/>
<path opacity="0.3" d="M170.247 258.26C172.203 257.551 173.573 256.38 173.308 255.645C173.043 254.91 171.243 254.89 169.287 255.599C167.331 256.308 165.961 257.479 166.226 258.214C166.491 258.948 168.292 258.969 170.247 258.26Z" fill="#308294"/>
<path d="M142.669 195.45C147.272 200.231 155.407 199.859 155.407 199.859C155.407 199.859 156.076 191.723 151.473 186.942C146.871 182.161 141.169 180.192 138.736 182.533C136.303 184.875 138.067 190.669 142.669 195.45Z" fill="#308294"/>
<path d="M149.862 193.754C150.423 193.211 149.706 191.554 148.261 190.053C146.816 188.553 145.19 187.777 144.629 188.32C144.068 188.863 144.785 190.519 146.23 192.02C147.674 193.521 149.301 194.297 149.862 193.754Z" fill="#308294"/>
<path opacity="0.3" d="M149.862 193.754C150.423 193.211 149.706 191.554 148.261 190.053C146.816 188.553 145.19 187.777 144.629 188.32C144.068 188.863 144.785 190.519 146.23 192.02C147.674 193.521 149.301 194.297 149.862 193.754Z" fill="#308294"/>
<path d="M140.027 271.37C144.629 276.151 152.764 275.779 152.764 275.779C152.764 275.779 153.433 267.642 148.831 262.862C144.228 258.081 138.527 256.112 136.094 258.453C133.66 260.794 135.424 266.589 140.027 271.37Z" fill="#308294"/>
<path d="M147.213 269.682C147.774 269.139 147.058 267.482 145.613 265.981C144.168 264.481 142.542 263.704 141.981 264.247C141.42 264.79 142.136 266.447 143.581 267.948C145.026 269.448 146.652 270.225 147.213 269.682Z" fill="#308294"/>
<path opacity="0.3" d="M147.213 269.682C147.774 269.139 147.058 267.482 145.613 265.981C144.168 264.481 142.542 263.704 141.981 264.247C141.42 264.79 142.136 266.447 143.581 267.948C145.026 269.448 146.652 270.225 147.213 269.682Z" fill="#308294"/>
<path d="M146.128 222.284C152.059 225.252 159.598 222.166 159.598 222.166C159.598 222.166 157.521 214.275 151.595 211.306C145.668 208.338 139.634 208.367 138.125 211.424C136.615 214.481 140.196 219.315 146.128 222.284Z" fill="#308294"/>
<path d="M152.329 218.264C152.677 217.565 151.45 216.242 149.589 215.311C147.727 214.38 145.936 214.192 145.587 214.892C145.239 215.591 146.466 216.913 148.328 217.845C150.189 218.776 151.98 218.964 152.329 218.264Z" fill="#308294"/>
<path opacity="0.3" d="M152.329 218.264C152.677 217.565 151.45 216.242 149.589 215.311C147.727 214.38 145.936 214.192 145.587 214.892C145.239 215.591 146.466 216.913 148.328 217.845C150.189 218.776 151.98 218.964 152.329 218.264Z" fill="#308294"/>
<path d="M148.614 249.014C154.546 251.983 162.084 248.897 162.084 248.897C162.084 248.897 160.008 241.005 154.082 238.037C148.155 235.068 142.121 235.098 140.611 238.154C139.102 241.211 142.707 246.075 148.614 249.014Z" fill="#308294"/>
<path d="M154.817 244.999C155.165 244.299 153.938 242.977 152.077 242.046C150.215 241.114 148.424 240.926 148.076 241.626C147.728 242.325 148.954 243.648 150.816 244.579C152.677 245.51 154.469 245.698 154.817 244.999Z" fill="#308294"/>
<path opacity="0.3" d="M154.817 244.999C155.165 244.299 153.938 242.977 152.077 242.046C150.215 241.114 148.424 240.926 148.076 241.626C147.728 242.325 148.954 243.648 150.816 244.579C152.677 245.51 154.469 245.698 154.817 244.999Z" fill="#308294"/>
</svg>
