<svg width="20" height="20" viewBox="0 0 20 20" fill="none" xmlns="http://www.w3.org/2000/svg">
<path d="M17.9182 2.99085V0.181763V0.0817627H17.8182H0H-0.1V0.181763V17.2727V17.3727H0H2.44545V19.8181V19.9181H2.54545H20H20.1V19.8181V3.09085V2.99085H20H17.9182ZM2.44545 3.09085V16.4454H0.827273V1.00904H16.9909V2.99085H2.54545H2.44545V3.09085ZM19.1727 18.9909H3.37273V17.2727V3.91813H17.8182H19.1727V18.9909Z" fill="#373D4D" stroke="#373D4D" stroke-width="0.2"/>
<path d="M15.2718 10.9908H11.7355V7.45446C11.7355 7.19814 11.5282 6.99082 11.2718 6.99082C11.0155 6.99082 10.8082 7.19814 10.8082 7.45446V10.9908H7.27184C7.01552 10.9908 6.8082 11.1981 6.8082 11.4545C6.8082 11.7108 7.01552 11.9181 7.27184 11.9181H10.8082V15.4545C10.8082 15.7108 11.0155 15.9181 11.2718 15.9181C11.5282 15.9181 11.7355 15.7108 11.7355 15.4545V11.9181H15.2718C15.5282 11.9181 15.7355 11.7108 15.7355 11.4545C15.7355 11.1981 15.5282 10.9908 15.2718 10.9908Z" fill="#373D4D" stroke="#373D4D" stroke-width="0.2"/>
</svg>
