<svg xmlns="http://www.w3.org/2000/svg" xmlns:xlink="http://www.w3.org/1999/xlink" width="640" height="527.702" viewBox="0 0 640 527.702"><defs><linearGradient id="a" x1="0.393" y1="-16.13" x2="0.781" y2="-14.983" gradientUnits="objectBoundingBox"><stop offset="0" stop-color="#c7d1e0"/><stop offset="1" stop-color="#b3cade"/></linearGradient><linearGradient id="b" x1="0.024" y1="-15.742" x2="1.024" y2="-15.742" gradientUnits="objectBoundingBox"><stop offset="0" stop-color="#9abed8"/><stop offset="1" stop-color="#9abed8" stop-opacity="0.698"/></linearGradient><linearGradient id="c" x1="0.382" y1="-15.818" x2="0.882" y2="-15.437" gradientUnits="objectBoundingBox"><stop offset="0" stop-color="#d7e6f2"/><stop offset="1" stop-color="#dee2f3"/></linearGradient><linearGradient id="d" x1="-0.018" y1="-10.353" x2="1.242" y2="-10.492" xlink:href="#a"/><linearGradient id="e" x1="0.039" y1="-10.388" x2="1.039" y2="-10.388" xlink:href="#b"/><linearGradient id="f" x1="0.094" y1="-67.073" x2="1.259" y2="-66.648" xlink:href="#a"/><linearGradient id="g" x1="0.099" y1="-105.951" x2="1.099" y2="-105.951" xlink:href="#b"/><linearGradient id="h" x1="0.354" y1="-21.209" x2="1.612" y2="-20.483" xlink:href="#a"/><linearGradient id="i" x1="0.481" y1="-1.362" x2="1.481" y2="-1.362" xlink:href="#b"/><linearGradient id="j" x1="0.352" y1="-81.355" x2="0.639" y2="-81.078" xlink:href="#b"/><linearGradient id="k" x1="0.631" y1="-167.276" x2="0.819" y2="-166.976" xlink:href="#b"/><linearGradient id="l" x1="0.806" y1="-23.357" x2="0.227" y2="-23.87" gradientUnits="objectBoundingBox"><stop offset="0" stop-color="#f5f8fd"/><stop offset="1" stop-color="#fff"/></linearGradient><linearGradient id="m" x1="0.37" y1="-22.584" x2="0.882" y2="-22.861" xlink:href="#l"/><linearGradient id="n" x1="0.381" y1="-33.997" x2="0.566" y2="-33.794" xlink:href="#b"/><linearGradient id="o" x1="0.365" y1="-53.444" x2="1.438" y2="-54.416" gradientUnits="objectBoundingBox"><stop offset="0" stop-color="#efecf7"/><stop offset="1" stop-color="#fbf9fc"/></linearGradient><linearGradient id="q" x1="0.301" y1="-77.34" x2="0.609" y2="-77.196" xlink:href="#b"/><linearGradient id="r" x1="0.599" y1="-179.843" x2="0.897" y2="-179.552" xlink:href="#b"/><linearGradient id="s" x1="0.597" y1="-231.221" x2="0.94" y2="-231.012" xlink:href="#b"/><linearGradient id="t" x1="0.002" y1="-32.222" x2="1.105" y2="-32.222" gradientUnits="objectBoundingBox"><stop offset="0" stop-color="#c18285"/><stop offset="1" stop-color="#d6999f" stop-opacity="0"/></linearGradient><linearGradient id="u" x1="0.321" y1="-50.456" x2="1.322" y2="-50.456" xlink:href="#t"/><linearGradient id="v" x1="1.032" y1="-79.489" x2="-0.024" y2="-79.626" xlink:href="#t"/><linearGradient id="w" x1="0.309" y1="-56.161" x2="0.541" y2="-55.967" xlink:href="#b"/><linearGradient id="x" x1="0.829" y1="-155.694" x2="1.037" y2="-155.404" xlink:href="#b"/><linearGradient id="y" x1="0.827" y1="-128.749" x2="0.967" y2="-128.555" xlink:href="#b"/><linearGradient id="z" x1="0.785" y1="-130.105" x2="0.985" y2="-129.899" xlink:href="#b"/><linearGradient id="aa" x1="1.171" y1="-15.694" x2="0.083" y2="-15.959" gradientUnits="objectBoundingBox"><stop offset="0.001" stop-color="#006eff"/><stop offset="0.78" stop-color="#00d4ff"/><stop offset="1" stop-color="#00e2ff"/></linearGradient><linearGradient id="ab" x1="0.115" y1="-32.143" x2="1.316" y2="-31.466" xlink:href="#a"/><linearGradient id="ac" x1="0.107" y1="-44.997" x2="1.187" y2="-43.993" xlink:href="#a"/><linearGradient id="ad" x1="0.235" y1="-24.678" x2="1.734" y2="-25.341" gradientUnits="objectBoundingBox"><stop offset="0" stop-color="#a5bdcb"/><stop offset="1" stop-color="#d8e9f4" stop-opacity="0"/></linearGradient><linearGradient id="ae" x1="0.343" y1="-25.327" x2="3.181" y2="-26.16" xlink:href="#ad"/><linearGradient id="af" x1="-0.499" y1="-223.812" x2="0.5" y2="-223.812" gradientUnits="objectBoundingBox"><stop offset="0" stop-color="#ffec5e"/><stop offset="1" stop-color="#ffcf48"/></linearGradient><linearGradient id="ag" x1="0.042" y1="-1689.09" x2="1.069" y2="-1687.786" gradientUnits="objectBoundingBox"><stop offset="0" stop-color="#59d9ff"/><stop offset="1" stop-color="#5dbbeb"/></linearGradient><linearGradient id="ah" x1="1.391" y1="-767.715" x2="2.493" y2="-767.084" xlink:href="#a"/><linearGradient id="ai" x1="1.392" y1="-749.622" x2="2.492" y2="-749.004" xlink:href="#a"/><linearGradient id="aj" x1="0.412" y1="-1112.602" x2="1.695" y2="-1112.171" xlink:href="#a"/><linearGradient id="ak" x1="0.718" y1="-225.797" x2="0.277" y2="-226.086" xlink:href="#l"/><linearGradient id="al" x1="1.069" y1="-243.258" x2="0.064" y2="-243.625" gradientUnits="objectBoundingBox"><stop offset="0" stop-color="#ffec5e"/><stop offset="1" stop-color="#ffce4a"/></linearGradient><linearGradient id="am" x1="0.561" y1="-152.332" x2="1.05" y2="-151.951" xlink:href="#c"/><linearGradient id="an" x1="0.14" y1="-78.216" x2="1.139" y2="-78.216" xlink:href="#b"/><linearGradient id="ao" x1="0.825" y1="-66.617" x2="0.344" y2="-67.091" xlink:href="#l"/></defs><g transform="translate(-833.323 -271.3)"><path d="M1708.118,962.733v1.35l-12.1-6.983-10.614,6.145,19.04,11.033,10.614-6.145v-5.4Z" transform="translate(-455.41 -366.54)" fill="#bfd2e2"/><path d="M1708.118,962.733v1.35l-12.1-6.983-10.614,6.145,19.04,11.033,10.614-6.145v-5.4Z" transform="translate(-455.41 -366.54)" fill="none"/><path d="M1055.277,983.416,1238.7,877.6a3.292,3.292,0,0,0,1.21-4.516,3.479,3.479,0,0,0-1.164-1.164L1024.6,742.644a3.351,3.351,0,0,0-3.305-.093L835.035,850.041a3.34,3.34,0,0,0-1.3,4.516,2.976,2.976,0,0,0,1.257,1.257l217.03,127.6A3.151,3.151,0,0,0,1055.277,983.416Z" transform="translate(0 -251.66)" fill="#969696" opacity="0.2"/><path d="M1704.44,962.732,1685.4,951.7l10.614-6.1,19.04,10.987Z" transform="translate(-455.41 -360.393)" fill="#eef6ff"/><path d="M1704.44,962.732,1685.4,951.7l10.614-6.1,19.04,10.987Z" transform="translate(-455.41 -360.393)" fill="none"/><path d="M1370.677,909.109V912l-118.291-71.552a3.35,3.35,0,0,0-3.305-.093L1065.523,945.886l-.559-2.654-3.864,4.143v3.4h0a3.324,3.324,0,0,0,1.629,2.84l126.159,72.809a3.235,3.235,0,0,0,3.305,0l183.419-105.768a3.27,3.27,0,0,0,1.676-2.84V914.37Z" transform="translate(-121.74 -303.932)" fill="url(#a)"/><path d="M1370.677,909.016v3.026l-118.291-71.6a3.351,3.351,0,0,0-3.305-.093L1068.595,942.3l-3.631.978-3.864,3.538v4h0a3.324,3.324,0,0,0,1.629,2.84l126.112,72.809a3.235,3.235,0,0,0,3.305,0L1375.565,920.7a3.27,3.27,0,0,0,1.676-2.84v-3.445Z" transform="translate(-121.74 -303.932)" opacity="0.7" fill="url(#b)"/><path d="M1192.259,1019.1l183.419-105.768a3.282,3.282,0,0,0,1.21-4.516,3.62,3.62,0,0,0-1.164-1.21l-123.272-74.531a3.348,3.348,0,0,0-3.305-.047L1062.935,940.516a3.34,3.34,0,0,0-1.3,4.516,2.976,2.976,0,0,0,1.257,1.257L1189,1019.1A3.151,3.151,0,0,0,1192.259,1019.1Z" transform="translate(-121.806 -300.005)" fill="url(#c)"/><path d="M1247.291,513.949l-1.21-.559h0a3.321,3.321,0,0,0-3.166.093L1059.729,622.278a3.282,3.282,0,0,0-1.629,2.84V767.663a1.712,1.712,0,0,0,.931,1.49h0l1.4.605,6.378-4.236L1247.9,661.1V522.142l1.024.652Z" transform="translate(-120.137 -129.2)" fill="url(#d)"/><path d="M1246.009,513.254l-2.328-1.164h0a3.321,3.321,0,0,0-3.166.093L1057.329,620.978a3.282,3.282,0,0,0-1.629,2.84V766.363a1.712,1.712,0,0,0,.931,1.49h0l2.607,1.164,5.167-4.795L1245.5,659.8V520.842l1.024.652Z" transform="translate(-118.854 -128.505)" opacity="0.7" fill="url(#e)"/><path d="M1192.259,1006.5l183.419-105.768a3.282,3.282,0,0,0,1.21-4.516,3.62,3.62,0,0,0-1.164-1.21l-123.272-74.531a3.348,3.348,0,0,0-3.305-.047L1062.935,927.916a3.34,3.34,0,0,0-1.3,4.516,2.976,2.976,0,0,0,1.257,1.257L1189,1006.5A3.377,3.377,0,0,0,1192.259,1006.5Z" transform="translate(-121.806 -293.271)" fill="none"/><path d="M1483.593,1052.145l-43.806,25.557a3.378,3.378,0,0,1-3.259,0l-25.977-14.385a3.285,3.285,0,0,1-1.257-4.516,3.474,3.474,0,0,1,1.21-1.257l42.13-24.627a3.378,3.378,0,0,1,3.259,0l27.652,15.176a2.312,2.312,0,0,1,.885,3.166A2.2,2.2,0,0,1,1483.593,1052.145Z" transform="translate(-307.604 -406.839)" fill="url(#f)"/><path d="M1410.463,1058.058l42.13-24.627a3.261,3.261,0,0,1,3.259-.047l27.653,15.176c.465.279.838,1.862,1.024,2.374a2.271,2.271,0,0,0-1.024-2.84l-27.7-15.176a3.378,3.378,0,0,0-3.259,0l-42.13,24.627a3.32,3.32,0,0,0-1.536,3.678C1409.113,1060.385,1409.672,1058.477,1410.463,1058.058Z" transform="translate(-307.563 -406.839)" opacity="0.7" fill="url(#g)"/><path d="M1355.026,907.609l-163.308,95.946a3.825,3.825,0,0,1-3.864,0l-60.612-35.939a3.8,3.8,0,0,1-1.35-5.214,3.755,3.755,0,0,1,1.35-1.35L1290.317,865.2a3.825,3.825,0,0,1,3.864,0l60.845,35.846a3.8,3.8,0,0,1,1.35,5.214A3.752,3.752,0,0,1,1355.026,907.609Z" transform="translate(-156.087 -317.141)" fill="url(#h)"/><path d="M1127.027,961.7l163.308-95.946a3.825,3.825,0,0,1,3.864,0l60.565,35.939c.885.512,1.536,3.166,1.769,4.236a3.75,3.75,0,0,0-1.49-4.888L1294.431,865.1a3.825,3.825,0,0,0-3.864,0L1127.26,961.044a3.788,3.788,0,0,0-1.769,4.1C1125.816,964.4,1126.375,962.069,1127.027,961.7Z" transform="translate(-156.104 -317.088)" opacity="0.7" fill="url(#i)"/><path d="M1256.111,860.527l-142.452,83.656a3.321,3.321,0,0,1-3.352,0l-6.7-3.678c-2.188-1.3,1.3-2.56,3.491-3.817l142.219-83.609a3.321,3.321,0,0,1,3.352,0l3.4,1.722a3.292,3.292,0,0,1,1.21,4.516A2.917,2.917,0,0,1,1256.111,860.527Z" transform="translate(-144.086 -310.701)" fill="#2a3c67"/><path d="M1250.1,661.885l-187.283,108a1.673,1.673,0,0,1-2.281-.605,1.57,1.57,0,0,1-.233-.791V625.9a3.282,3.282,0,0,1,1.629-2.84l183.14-108.794a3.371,3.371,0,0,1,4.562,1.117,3.2,3.2,0,0,1,.465,1.722Z" transform="translate(-121.313 -129.609)" fill="#2a3c67"/><path d="M1255.253,675.3l-169.965,97.9a1.428,1.428,0,0,1-2-.559,1.365,1.365,0,0,1-.186-.745V648.667a3.282,3.282,0,0,1,1.629-2.84l166.1-98.506a2.939,2.939,0,0,1,4.423,2.514Z" transform="translate(-133.499 -147.302)" fill="#cdebff"/><g transform="translate(1095.791 711.039)"><path d="M1462.01,1274.945c-6.936,11.824-15.037,14.757-29.608,14.664a24.009,24.009,0,0,1-7.03-1.024c-.093.14-.14.279-.233.419-3.492,5.959-12.29,10.754-19.6,10.707-7.355-.047-10.474-4.935-6.983-10.893,3.119-5.307,10.474-9.73,17.225-10.568-.279-3.026.605-6.564,2.793-10.335,6.936-11.824,15.037-14.711,29.608-14.618C1462.755,1253.437,1468.946,1263.12,1462.01,1274.945Z" transform="translate(-1397.128 -1235.887)" fill="#969696" opacity="0.3"/><ellipse cx="24.813" cy="22.811" rx="24.813" ry="22.811" transform="translate(17.631)" fill="#38adff"/><path d="M1471.292,1249.642c-10.009,0-18.249-7.5-18.249-16.759a15.673,15.673,0,0,1,3.352-9.683c-9.031,2.56-15.6,10.288-15.6,19.459,0,11.219,9.916,20.344,22.113,20.344,11.778,0,21.368-8.426,22.066-19.04A18.847,18.847,0,0,1,1471.292,1249.642Z" transform="translate(-1420.469 -1219.802)" opacity="0.7" fill="url(#j)"/><ellipse cx="12.523" cy="11.499" rx="12.523" ry="11.499" transform="translate(5.713 29.328)" fill="#38adff"/><path d="M1428.15,1295.735c-4.655,0-8.38-3.445-8.38-7.728a7.266,7.266,0,0,1,2.328-5.307,10.141,10.141,0,0,0-8.8,9.729c0,5.447,4.8,9.869,10.754,9.869s10.474-4.236,10.707-9.5A8.664,8.664,0,0,1,1428.15,1295.735Z" transform="translate(-1405.771 -1251.603)" opacity="0.7" fill="url(#k)"/></g><g transform="translate(1442.877 396.341)" opacity="0.25"><path d="M2157.318,555.4l-14.618-8.426,12.1-7.076,14.618,8.426Z" transform="translate(-2142.7 -539.9)" fill="#7e9daa"/></g><path d="M2005.081,736.327c-11.173,6.192-12.662,15.781-3.119,21.508,9.5,5.726,26.209,5.447,37.429-.7,10.893-5.959,12.523-15.223,4-21l7.169-3.91c1.536-.838,1.722-2.188.419-2.979a5.771,5.771,0,0,0-5.167.093l-7.774,4.19C2028.4,730.089,2014.717,731.066,2005.081,736.327Z" transform="translate(-621.233 -244.459)" fill="#969696" opacity="0.3"/><g transform="translate(1446.648 389.87)"><path d="M2165.371,541.456l-14.571-8.426L2162.9,526l14.571,8.426Z" transform="translate(-2150.8 -526)" fill="#bfd2e2"/><path d="M2168.164,544.229v1.024l-9.218-5.354-4.562,2.654v-2.095H2150.8V544.6h0l14.571,8.426,12.1-7.03v-4.143Z" transform="translate(-2150.8 -533.429)" fill="#bfd2e2"/></g><path d="M2168.164,544.229v1.024l-9.218-5.354-4.562,2.654v-2.095H2150.8V544.6h0l14.571,8.426,12.1-7.03v-4.143Z" transform="translate(-704.152 -143.559)" fill="none"/><path d="M2165.371,541.456l-14.571-8.426L2162.9,526l14.571,8.426Z" transform="translate(-704.152 -136.13)" fill="#eef6ff"/><path d="M2165.371,541.456l-14.571-8.426L2162.9,526l14.571,8.426Z" transform="translate(-704.152 -136.13)" fill="none"/><path d="M1782.093,744.675a14.713,14.713,0,0,1-7.4-2l-15.781-9.078a13.838,13.838,0,0,0-13.826,0l-16.061,9.264a.525.525,0,0,1-.7-.186.471.471,0,0,1,.186-.652h0l16.061-9.264a14.847,14.847,0,0,1,14.85,0l15.781,9.171a13.926,13.926,0,0,0,13.873,0l136.54-79.233a23.6,23.6,0,0,0,0-40.827l-32.028-18.528a14.793,14.793,0,0,1-.047-25.6l38.965-22.811a.511.511,0,0,1,.512.885l-38.965,22.811a13.831,13.831,0,0,0-4.935,18.947,14.181,14.181,0,0,0,4.981,4.981l32.029,18.528a24.542,24.542,0,0,1,8.938,33.611,24.215,24.215,0,0,1-8.938,8.938l-136.54,79.233A16.786,16.786,0,0,1,1782.093,744.675Z" transform="translate(-478.317 -151.554)" fill="#a7c3d6"/><path d="M1671.062,617.8,1549,690.1l75.6,46.413,126.019-72.762Z" transform="translate(-382.508 -185.194)" fill="#7e9daa" opacity="0.25"/><path d="M1810.746,658.2,1693.2,726.307l79.559,45.9,70.016-40.454,18.854-13.78-26.023-25.139,16.061-11.033Z" transform="translate(-459.579 -206.787)" fill="#7e9daa" opacity="0.4"/><path d="M1813.615,649.2,1694.3,718.61l79.559,45.948,98.692-57.121-12.2-19.319,6.75-9.171Z" transform="translate(-460.167 -201.977)" fill="url(#l)"/><g transform="translate(1287.289 470.089)" opacity="0.3"><g transform="translate(0)"><g transform="translate(41.851)" opacity="0.4"><path d="M1934.935,719.445h0a3.176,3.176,0,0,1-3.026-.14l-32.773-18.947c-.885-.512-1.024-1.3-.233-1.722h0a3.175,3.175,0,0,1,3.026.14l32.773,18.947C1935.54,718.234,1935.634,719.026,1934.935,719.445Z" transform="translate(-1898.383 -698.318)" fill="#7e9daa"/></g><g transform="translate(33.518 4.876)" opacity="0.4"><path d="M1918.572,730.862h0a3.176,3.176,0,0,1-3.026-.14l-34.31-19.925c-.885-.512-1.024-1.3-.233-1.723h0a3.456,3.456,0,0,1,3.026.14l34.263,19.925C1919.27,729.605,1919.363,730.4,1918.572,730.862Z" transform="translate(-1880.484 -708.793)" fill="#7e9daa"/></g><g transform="translate(25.139 9.764)" opacity="0.4"><path d="M1908.253,745.692h0a3.456,3.456,0,0,1-3.026-.14L1863.236,721.3c-.885-.512-1.024-1.3-.233-1.723h0a3.456,3.456,0,0,1,3.026.14l41.991,24.254C1908.951,744.481,1909.044,745.273,1908.253,745.692Z" transform="translate(-1862.484 -719.293)" fill="#7e9daa"/></g><g transform="translate(16.759 14.618)" opacity="0.4"><path d="M1890.253,756.152h0a3.456,3.456,0,0,1-3.026-.14l-41.991-24.254c-.885-.512-1.024-1.3-.233-1.722h0a3.176,3.176,0,0,1,3.026.14l42.037,24.254C1890.951,754.895,1891.091,755.686,1890.253,756.152Z" transform="translate(-1844.484 -729.718)" fill="#7e9daa"/></g><g transform="translate(8.426 19.413)" opacity="0.4"><path d="M1872.306,766.452h0a3.175,3.175,0,0,1-3.026-.14l-41.944-24.254c-.885-.512-1.024-1.3-.233-1.723h0a3.176,3.176,0,0,1,3.026.14l41.991,24.254C1872.958,765.241,1873.051,766.033,1872.306,766.452Z" transform="translate(-1826.583 -740.018)" fill="#7e9daa"/></g><g transform="translate(0 24.254)" opacity="0.4"><path d="M1854.253,776.852h0a3.175,3.175,0,0,1-3.026-.14l-41.991-24.254c-.885-.512-1.024-1.3-.233-1.723h0a3.176,3.176,0,0,1,3.026.14l42.037,24.3C1854.9,775.641,1855,776.386,1854.253,776.852Z" transform="translate(-1808.484 -750.418)" fill="#7e9daa"/></g></g></g><path d="M1813.615,649.2,1694.3,718.61l79.559,45.948,88.358-51.395-23.742-29.328,16.061-10.987Z" transform="translate(-460.167 -201.977)" fill="none"/><path d="M2039.579,745.927l-4.7-24.627-9.078,9.217a34.688,34.688,0,0,0-10.847,3.631c-9.683,5.307-10.893,13.64-2.747,18.621a26.4,26.4,0,0,0,10.009,3.259l17.411-10.009Z" transform="translate(-627.194 -240.512)" fill="#7e9daa" opacity="0.17"/><path d="M1689.969,625.6,1576.1,691.333l76.3,46.553,113.077-68.666Z" transform="translate(-396.992 -189.363)" fill="#7e9daa" opacity="0.4"/><path d="M1675.019,613.6,1549,686.362l79.513,45.9L1754.531,659.5Z" transform="translate(-382.508 -182.949)" fill="url(#m)"/><path d="M1675.019,613.6,1549,686.362l79.513,45.9L1754.531,659.5Z" transform="translate(-382.508 -182.949)" fill="none"/><path d="M2052.459,713.1l5.447,28.49L2041.1,720.874Z" transform="translate(-645.521 -236.129)" fill="#cdebff"/><path d="M1914.05,700.162h0a3.176,3.176,0,0,1-3.026-.14l-15.688-9.264c-.885-.512-1.024-1.3-.233-1.723h0a3.176,3.176,0,0,1,3.026.14l15.688,9.264C1914.749,698.951,1914.842,699.743,1914.05,700.162Z" transform="translate(-567.212 -223.098)" fill="#7e9daa" opacity="0.21"/><path d="M1901.85,707.5h0a3.456,3.456,0,0,1-3.026-.14l-15.688-9.264c-.885-.512-1.024-1.257-.233-1.723h0a3.456,3.456,0,0,1,3.026.14l15.688,9.264C1902.549,706.291,1902.642,707.083,1901.85,707.5Z" transform="translate(-560.692 -227.039)" fill="#7e9daa" opacity="0.21"/><path d="M1895.752,719.057h0a3.176,3.176,0,0,1-3.026-.14l-9.59-5.819c-.885-.512-1.024-1.3-.233-1.722h0a3.456,3.456,0,0,1,3.026.14l9.59,5.819C1896.45,717.846,1896.543,718.591,1895.752,719.057Z" transform="translate(-560.692 -235.056)" fill="#7e9daa" opacity="0.21"/><path d="M1798.014,604l-.885-.372-.233-.093-.931-.372-.186-.047-1.024-.326h-.14l-1.071-.326h-.093l-1.164-.326h0l-1.21-.279h0c-9.311-2-20.39-1.117-28.863,2.886-24.161,11.312-28.909,26.861-29.84,32.541-.233,1.257,1.35,2.374,3.538,2.467,2,.14,4.655.233,7.867.233h7.542l1.35-.093h.745l1.3-.093h.7l1.117-.093.791-.093,1.071-.093.791-.093,1.117-.093.791-.093,1.21-.14.745-.093,1.443-.186.512-.093,2-.279.419-.093,1.629-.279.7-.14,1.35-.233.791-.14,1.3-.279.838-.186,1.3-.279.791-.186,1.4-.326.7-.186,1.815-.466.326-.093,2.141-.605.559-.186,1.583-.466.791-.233,1.4-.419.838-.279,1.3-.466.838-.326,1.35-.512.792-.326,1.443-.559.7-.279c.7-.279,1.4-.605,2.095-.931s1.583-.745,2.328-1.164a27.647,27.647,0,0,0,3.957-2.607c7.029-5.633,7.914-13.035,1.164-18.668l8.752-4.1c1.769-.838,2.095-2.281.7-3.259a6.271,6.271,0,0,0-5.679-.233l-9.218,4h-.093Z" transform="translate(-480.504 -175.347)" fill="#969696" opacity="0.2"/><path d="M1881.53,505a3.854,3.854,0,0,0-3.864,3.864v12.9l-7.495-5.26a3.25,3.25,0,0,0-4,5.121c.093.047.14.14.233.186l10.614,7.448a3.845,3.845,0,0,0,.605.326v19.645a3.846,3.846,0,0,0,7.681.419V508.91A3.732,3.732,0,0,0,1881.53,505Z" transform="translate(-551.357 -124.906)" fill="#5b5b2e"/><path d="M1863.24,399.9c-6.75,6.378-23.742,25.278-24.347,53.489-.326,15.5,11.778,28.723,27.233,28.63a27.08,27.08,0,0,0,26.908-27.094c0-29.1-17.457-48.508-24.347-55.026A4.064,4.064,0,0,0,1863.24,399.9Z" transform="translate(-537.444 -68.172)" fill="#38adff"/><path d="M1883.615,469.7c-13.826.093-24.58-11.685-24.3-25.511a65.952,65.952,0,0,1,10.009-33.285,3.329,3.329,0,0,0-1.536.838c-6.005,5.726-21.182,22.532-21.694,47.717-.279,13.826,10.474,25.6,24.254,25.511a24.176,24.176,0,0,0,23.09-17.457A23.1,23.1,0,0,1,1883.615,469.7Z" transform="translate(-541.293 -74.612)" opacity="0.7" fill="url(#n)"/><g transform="translate(1043.08 271.3)"><path d="M1419.928,315.153H1283.9s2.7-22.671,21.647-22.857c11.824-.093,16.945,8.007,16.945,8.007s3.538-28.863,31.982-29c18.807-.093,24.813,28.351,24.813,28.351S1412.9,285.638,1419.928,315.153Z" transform="translate(-1283.9 -271.3)" fill="url(#o)"/><path d="M1419.928,315.153H1283.9s2.7-22.671,21.647-22.857c11.824-.093,16.945,8.007,16.945,8.007s3.538-28.863,31.982-29c18.807-.093,24.813,28.351,24.813,28.351S1412.9,285.638,1419.928,315.153Z" transform="translate(-1283.9 -271.3)" fill="url(#o)"/></g><path d="M1533.085,1152.049l1.164-.652-22.811-14.9-1.257.745,6.471,4.236-10.474,5.028-5.307-3.911-1.071.652,20.576,16.2,1.164-.652-5.912-4.562,11.778-5.773Zm-18.388,1.3-7.495-6.052,10.568-5.074,8.519,5.54Z" transform="translate(-356.212 -462.424)" fill="#7e9daa" opacity="0.45"/><path d="M1645.422,852.19l-44.691,24.72L1553.2,848.187l35.008-19.087" transform="translate(-384.753 -298.128)" fill="#969696" opacity="0.3"/><path d="M1569.88,890.777l-11.731,7.262a41.236,41.236,0,0,1-41.386-.7h0a18.242,18.242,0,0,1,.605-31.609l5.959-3.631" transform="translate(-360.559 -315.765)" fill="#969696" opacity="0.3"/><path d="M1130.508,1175.908c.559-.791,1.071-1.583,1.629-2.514,5.633-9.636.605-17.5-11.266-17.6s-18.481,2.328-24.115,11.964a14.229,14.229,0,0,0-2.281,8.426c-5.54.7-11.5,4.283-14.059,8.612-2.84,4.888-.512,9.683,5.447,9.683,6.005.047,13.593-2.7,16.433-7.542a1.166,1.166,0,0,0,.186-.326,21.78,21.78,0,0,0,5.726.791,55.932,55.932,0,0,0,6.238-.279c1.769,3.026,6.657,5.074,13.221,5.074,8.007,0,14.9-5.167,14.9-9.171C1142.565,1179.4,1137.352,1176.467,1130.508,1175.908Z" transform="translate(-131.421 -472.736)" fill="#969696" opacity="0.3"/><ellipse cx="24.114" cy="22.206" rx="24.114" ry="22.206" transform="translate(960.635 665.231)" fill="#38adff"/><path d="M1145.13,1152.411a8.521,8.521,0,0,1-1.536-.093l7.123-3.678a16.452,16.452,0,0,0-13.966,4c-5.912-3.072-10.94-11.405-10.94-18.109A17.059,17.059,0,0,1,1132,1121.5c-11.638.559-20.9,9.45-20.9,20.3,0,11.219,9.869,20.3,22.066,20.3a22.38,22.38,0,0,0,19.785-11.266A19.9,19.9,0,0,1,1145.13,1152.411Z" transform="translate(-148.464 -454.407)" opacity="0.7" fill="url(#q)"/><ellipse cx="11.918" cy="10.335" rx="11.918" ry="10.335" transform="translate(992.291 693.628)" fill="#38adff"/><path d="M1193.437,1194.13c-4.422,0-8.007-3.119-8.007-6.936a6.641,6.641,0,0,1,3.166-5.493h0c-5.633,0-10.2,3.957-10.2,8.845s4.562,8.845,10.2,8.845c4.841,0,8.892-2.933,9.962-6.843A9.225,9.225,0,0,1,1193.437,1194.13Z" transform="translate(-184.434 -486.582)" opacity="0.7" fill="url(#r)"/><ellipse cx="9.357" cy="8.1" rx="9.357" ry="8.1" transform="translate(953.558 698.749)" fill="#38adff"/><path d="M1106.983,1201.6c-3.724,0-6.75-2.607-6.75-5.866a5.294,5.294,0,0,1,1.4-3.538c-3.957.419-7.029,3.352-7.029,6.843,0,3.817,3.585,6.936,8.007,6.936a7.908,7.908,0,0,0,7.728-5.121A8.544,8.544,0,0,1,1106.983,1201.6Z" transform="translate(-139.645 -492.194)" opacity="0.7" fill="url(#s)"/><path d="M1628.4,704.1v65.314c0,11.406,15.688,20.623,35.1,20.623s35.1-9.217,35.1-20.623V704.1Z" transform="translate(-424.945 -231.319)" fill="#f9737a"/><path d="M1749.1,785.847a36.436,36.436,0,0,0,5.586-3.119V704.1H1749.1Z" transform="translate(-489.456 -231.319)" fill="#ff9fa8"/><path d="M1732.4,794.747l2.793-.838V715.7H1732.4Z" transform="translate(-480.53 -237.519)" fill="#ff9fa8"/><path d="M1667.651,723.419l-2.328-1.024-30.12-18.3h-6.7v.791l.885.559,2.328,1.024s.14,61.124.419,72.111a24.006,24.006,0,0,0,3.724,3.491h0a34.544,34.544,0,0,0,8.566,4.609h.093l1.536.559.186.047c.512.186,1.024.326,1.536.466l.186.047a52.582,52.582,0,0,0,5.354,1.257l.419.093,1.4.233.605.093,1.257.14.7.093,1.257.093.7.047,1.3.093h5.121l2.141-.14h0C1667.837,788.733,1667.651,723.419,1667.651,723.419Z" transform="translate(-424.999 -231.319)" fill="url(#t)"/><path d="M1628.4,704.1v65.314c0,11.406,15.688,20.623,35.1,20.623s35.1-9.217,35.1-20.623V704.1Z" transform="translate(-424.945 -231.319)" fill="none"/><path d="M1779,719.5" transform="translate(-505.436 -239.55)" fill="none"/><path d="M1785.471,766.353H1779V758.02h6.471c5.354,0,8.705-4.376,8.705-9.73V729.762c0-5.354-3.352-9.73-8.705-9.73H1779V711.7h6.471a17.047,17.047,0,0,1,17.038,17.038v20.53A17,17,0,0,1,1785.471,766.353Z" transform="translate(-505.436 -235.381)" fill="#f9737a"/><path d="M1785.471,766.353H1779V758.02h6.471c5.354,0,8.705-4.376,8.705-9.73V729.762c0-5.354-3.352-9.73-8.705-9.73H1779V711.7h6.471a17.047,17.047,0,0,1,17.038,17.038v20.53A17,17,0,0,1,1785.471,766.353Z" transform="translate(-505.436 -235.381)" fill="url(#u)"/><path d="M1785.471,766.353H1779V758.02h6.471c5.354,0,8.705-4.376,8.705-9.73V729.762c0-5.354-3.352-9.73-8.705-9.73H1779V711.7h6.471a17.047,17.047,0,0,1,17.038,17.038v20.53A17,17,0,0,1,1785.471,766.353Z" transform="translate(-505.436 -235.381)" fill="none"/><ellipse cx="35.054" cy="20.623" rx="35.054" ry="20.623" transform="translate(1203.455 452.158)" fill="#ff9fa8"/><ellipse cx="30.399" cy="16.945" rx="30.399" ry="16.945" transform="translate(1208.11 455.836)" fill="#f9737a"/><ellipse cx="30.399" cy="16.945" rx="30.399" ry="16.945" transform="translate(1208.11 455.836)" fill="url(#v)"/><ellipse cx="35.054" cy="20.623" rx="35.054" ry="20.623" transform="translate(1203.455 452.158)" fill="none"/><path d="M1671.365,698.9c-12.15,0-22.718,3.538-28.165,8.8,4.516,6.192,15.409,10.568,28.165,10.568s23.649-4.376,28.165-10.568C1694.082,702.485,1683.515,698.9,1671.365,698.9Z" transform="translate(-432.855 -228.54)" fill="#d8a573"/><path d="M1671.365,698.9c-12.15,0-22.718,3.538-28.165,8.8,4.516,6.192,15.409,10.568,28.165,10.568s23.649-4.376,28.165-10.568C1694.082,702.485,1683.515,698.9,1671.365,698.9Z" transform="translate(-432.855 -228.54)" fill="#d8a573"/><ellipse cx="30.399" cy="16.945" rx="30.399" ry="16.945" transform="translate(1208.11 455.836)" fill="none"/><path d="M1505.3,716.747l32.913-18.621L1533.6,692.4l-3.305,9.776-4.7-4.748-3.817,9.171-4.655-4.469-3.631,9.311-4.842-4.19Z" transform="translate(-359.152 -225.066)" fill="#b4d372"/><path d="M1786.8,974.324l31,17.923-1.769-9.45-5.912,2.56-1.071-7.867-6.89,3.538-1.536-8.007-6.052,3.678-.978-6.1Z" transform="translate(-509.605 -373.755)" fill="#b4d372"/><circle cx="27.885" cy="27.885" r="27.885" transform="translate(1397.767 418.268)" fill="#c3cc4c"/><path d="M2089.427,633.428a24.849,24.849,0,0,1-22.764-34.729,24.831,24.831,0,1,0,33.1,32.494A24.88,24.88,0,0,1,2089.427,633.428Z" transform="translate(-651.438 -174.986)" opacity="0.7" fill="url(#w)"/><path d="M2092.129,632.9a3.854,3.854,0,0,0-3.864,3.864h0v12.9l-7.5-5.26a3.25,3.25,0,0,0-4,5.121c.093.047.14.14.233.186l10.614,7.448a2.841,2.841,0,0,0,.652.326v19.692a3.841,3.841,0,1,0,7.681.047h0V636.857A3.866,3.866,0,0,0,2092.129,632.9Z" transform="translate(-663.917 -193.265)" fill="#75643c"/><path d="M1608.406,782.094a.613.613,0,0,0-.838.279h0l-3.259,6.238-10.8-5.726,3.724-5.912a.663.663,0,0,0-.186-.885.606.606,0,0,0-.838.186h0l-38.22,60.752a.606.606,0,0,0,.186.838h0a.863.863,0,0,0,.326.093.535.535,0,0,0,.512-.279l4.655-7.448,14.245,8.938-4.143,8.007a.613.613,0,0,0,.279.838h0c.093.047.186.047.279.093a.646.646,0,0,0,.559-.326l30.213-58.052h0l3.538-6.8a.606.606,0,0,0-.186-.838C1608.452,782.141,1608.452,782.141,1608.406,782.094Zm-4.7,7.635-4.423,8.473-11.266-6.611,4.8-7.588Zm-9.45,18.2-11.824-7.309,5.028-8.007,11.312,6.7Zm-5.028,9.73-12.662-7.681,5.214-8.286,11.964,7.355Zm-5.26,10.1-13.407-8.286,5.307-8.473,12.8,7.728Zm-19.6,1.49,5.493-8.705,13.593,8.333-4.8,9.264Z" transform="translate(-387.261 -269.743)" fill="#535b6b"/><path d="M1514.131,1112.191l-2.514,6.285-8.426,4.888,2.747-6.471-1.4.791-2.793,6.518h-.093l.047.093-2,4.7,1.49-.885,1.4-3.4,8.473-4.888-1.3,3.352,1.4-.791,4.329-10.986Z" transform="translate(-356.159 -449.009)" fill="#7e9daa" opacity="0.45"/><path d="M1526.439,1140.612l-3.491-6.7,10.893-6.424,4.143,6.471,1.164-.652-15.688-24.394h0l-3.957-6.1a.652.652,0,0,0-.885-.14h0a.715.715,0,0,0-.233.885l3.631,5.633-9.311,5.54-2.56-5.354a.607.607,0,0,0-.838-.186h0a.681.681,0,0,0-.279.885l16.34,31.33Zm-13.221-24.906,9.4-5.586,4.888,7.635-10.009,5.912Zm4.888,9.031,10.1-6.005,5.028,7.728-10.8,6.378Z" transform="translate(-361.111 -444.284)" fill="#535b6b"/><path d="M1593.213,1120.958h-.047l-.233-.093h-.047c-.093-.047-.14-.047-.233-.093h0l-.233-.093h0l-.279-.093h0l-.279-.093h0l-.326-.093h0a12.249,12.249,0,0,0-7.4.745c-6.191,2.886-7.4,6.843-7.635,8.333,0,.326.372.605.931.652s1.21.047,2,.047h5.4l.512-.093h.093l.419-.046h.186l.372-.093h.186l.326-.093h.233l.186-.652.186-.047.372-.093.186-.047.465-.093h.093l.559-.14h.14l.419-.14.186-.047.372-.093.233-.093.326-.093.233-.093.326-.14.233-.093.372-.14.186-.093.559-.233c.186-.093.419-.186.605-.279a7.653,7.653,0,0,0,1.024-.652c1.816-1.443,2-3.352.279-4.795" transform="translate(-397.206 -453.678)" fill="#7e9daa" opacity="0.4"/><path d="M1599.229,1081.679a20.091,20.091,0,0,0-6.238,13.687,6.99,6.99,0,0,0,6.7,7.309h.233a6.944,6.944,0,0,0,6.89-6.936,19.967,19.967,0,0,0-6.238-14.059A.954.954,0,0,0,1599.229,1081.679Z" transform="translate(-406.015 -432.975)" fill="#38adff"/><path d="M1603.465,1098.878a7.084,7.084,0,0,1-6.983-7.076v-.233a18.3,18.3,0,0,1,1.629-7.169,19.355,19.355,0,0,0-5.121,12.569,6.99,6.99,0,0,0,6.7,7.309h.233a6.955,6.955,0,0,0,6.843-6.285A6.615,6.615,0,0,1,1603.465,1098.878Z" transform="translate(-406.015 -434.578)" opacity="0.7" fill="url(#x)"/><path d="M2104.412,542.058h-.047l-.233-.093h-.047l-.233-.093h0l-.28-.093h0l-.279-.093h0l-.279-.093h0l-.326-.093h0a12.1,12.1,0,0,0-7.355.745c-6.192,2.886-7.4,6.89-7.635,8.333,0,.326.326.605.931.652.559.047,1.21,0,2,0h4.842l.372-.047h.14l.512-.093h.093l.419-.047h.186l.326-.047h.233l.326-.047h.233l.326-.093h.233l.372-.093h.186l.466-.093h.093l.559-.14h.14l.372-.14.186-.047.372-.093.233-.093.326-.093.233-.093.326-.14.186-.093.372-.14.186-.093.559-.233c.186-.093.419-.186.605-.279a7.676,7.676,0,0,0,1.024-.652c1.815-1.443,2-3.352.279-4.795" transform="translate(-670.427 -144.273)" fill="#969696" opacity="0.3"/><path d="M2112.929,506.479a20.09,20.09,0,0,0-6.238,13.687,6.99,6.99,0,0,0,6.7,7.309h.233a6.944,6.944,0,0,0,6.89-6.936,19.779,19.779,0,0,0-6.238-14.059A.954.954,0,0,0,2112.929,506.479Z" transform="translate(-680.573 -125.547)" fill="#38adff"/><path d="M2117.265,523.678a7.084,7.084,0,0,1-6.983-7.076v-.233a18.3,18.3,0,0,1,1.629-7.169,19.355,19.355,0,0,0-5.121,12.569,6.991,6.991,0,0,0,6.7,7.309h.233a6.955,6.955,0,0,0,6.843-6.285A7.453,7.453,0,0,1,2117.265,523.678Z" transform="translate(-680.626 -127.151)" opacity="0.7" fill="url(#y)"/><path d="M2048.254,574.458h-.093l-.233-.093h0l-.233-.093h-.047l-.233-.093h0l-.279-.093h0l-.279-.093h0l-.326-.093h0a12.249,12.249,0,0,0-7.4.745c-6.192,2.886-7.4,6.89-7.635,8.333-.047.326.326.605.885.652s1.21.047,2,.047h5.354l.512-.093h.093l.419-.093h.186l.373-.047h.186l.326-.047.233-.047.326-.093h.186l.372-.093h.186l.465-.14h.093l.372-.745h.14l.419-.14.186-.047.372-.14.233-.093.326-.14.233-.093.326-.14.233-.093.373-.14.186-.093.559-.233.605-.279a7.648,7.648,0,0,0,1.024-.652c1.816-1.443,2-3.352.279-4.795" transform="translate(-640.385 -161.59)" fill="#969696" opacity="0.3"/><path d="M2057.229,536.5a20.091,20.091,0,0,0-6.238,13.687,6.99,6.99,0,0,0,6.7,7.309h.233a6.914,6.914,0,0,0,6.89-6.936,19.78,19.78,0,0,0-6.238-14.059A1,1,0,0,0,2057.229,536.5Z" transform="translate(-650.803 -141.601)" fill="#38adff"/><path d="M2061.412,553.678a7.084,7.084,0,0,1-6.983-7.076v-.233a18.3,18.3,0,0,1,1.629-7.169,19.646,19.646,0,0,0-5.167,12.569,6.991,6.991,0,0,0,6.7,7.309h.233a6.918,6.918,0,0,0,6.843-6.285A6.01,6.01,0,0,1,2061.412,553.678Z" transform="translate(-650.749 -143.185)" opacity="0.7" fill="url(#z)"/><path d="M1599.229,1081.679a20.091,20.091,0,0,0-6.238,13.687,6.99,6.99,0,0,0,6.7,7.309h.233a6.944,6.944,0,0,0,6.89-6.936,19.967,19.967,0,0,0-6.238-14.059A.954.954,0,0,0,1599.229,1081.679Z" transform="translate(-406.015 -432.975)" fill="none"/><ellipse cx="7.169" cy="4.05" rx="7.169" ry="4.05" transform="matrix(0.993, -0.121, 0.121, 0.993, 1212.316, 603.303)" fill="#7e9daa" opacity="0.25"/><ellipse cx="6.145" cy="3.491" rx="6.145" ry="3.491" transform="matrix(0.993, -0.121, 0.121, 0.993, 1067.544, 683.996)" fill="#7e9daa" opacity="0.25"/><ellipse cx="4.236" cy="2.421" rx="4.236" ry="2.421" transform="matrix(0.993, -0.121, 0.121, 0.993, 1201.596, 614.859)" fill="#7e9daa" opacity="0.25"/><path d="M1662.074,731.227l-.605-2.886a11.206,11.206,0,0,0-4.469.466A25.384,25.384,0,0,0,1662.074,731.227Z" transform="translate(-440.231 -244.247)" fill="#b27742" opacity="0.64"/><g transform="translate(1209.517 709.084)"><ellipse cx="1.583" cy="5.354" rx="1.583" ry="5.354" transform="translate(5.902)" fill="#38adff"/><ellipse cx="4.283" cy="1.257" rx="4.283" ry="1.257" transform="matrix(0.515, -0.857, 0.857, 0.515, 8.278, 9.979)" fill="#38adff"/><ellipse cx="1.257" cy="4.283" rx="1.257" ry="4.283" transform="matrix(0.857, -0.515, 0.515, 0.857, 0, 4.078)" fill="#38adff"/></g><path d="M1702.12,699.3a25.978,25.978,0,0,1,2.7,2.84l-9.823.885s-4.05,1.49-2.235,3.492,9.823.186,9.823.186a16.035,16.035,0,0,1,5.167-.279,15.8,15.8,0,0,1,1.862,10.661c7.355-1.769,13.221-5.074,16.2-9.217C1721.02,703.35,1712.315,700.045,1702.12,699.3Z" transform="translate(-459.095 -228.753)" fill="#b27742" opacity="0.75"/><path d="M1699.06,698.429s-2.235-3.259,0-5.679c2.234-2.467,5.121-5.167,5.121-5.167s4.283-2.654,8.1,2.281,1.955,6.843,1.955,6.843l-1.257,1.536A63.229,63.229,0,0,0,1699.06,698.429Z" transform="translate(-462.18 -222.11)" fill="#cdebff"/><path d="M1699.911,698.96a2.675,2.675,0,0,0-1.816,2.188,5.856,5.856,0,0,0,1.024,3.585,52.085,52.085,0,0,1,8.938-.512h0C1708.011,704.267,1704.752,697.144,1699.911,698.96Z" transform="translate(-462.193 -228.413)" fill="#7e9daa" opacity="0.25"/><path d="M1719.3,689.863c-3.817-4.935-8.1-2.281-8.1-2.281h0c2.514,1.35,5.912,4.143,5.633,10.381h0c1.722.093,2.886.186,3.119.233H1720l1.257-1.536h0s.093-.14.233-.372C1721.814,695.542,1722.14,693.541,1719.3,689.863Z" transform="translate(-469.199 -222.11)" fill="#7e9daa" opacity="0.41"/><path d="M1716.857,734.146l-6.75-2.747a5.3,5.3,0,0,0-5.307,4.236A50.3,50.3,0,0,0,1716.857,734.146Z" transform="translate(-465.779 -245.909)" fill="#b27742" opacity="0.64"/><path d="M1675.13,721.779l-7.728-.279a.7.7,0,0,0-.512.186,5.924,5.924,0,0,0-2.235,5.354,39.126,39.126,0,0,0,11.731,2.933C1678.715,724.852,1675.13,721.779,1675.13,721.779Z" transform="translate(-444.302 -240.619)" fill="#cdebff"/><path d="M1675.13,721.779l-7.728-.279a.7.7,0,0,0-.512.186,5.924,5.924,0,0,0-2.235,5.354,39.126,39.126,0,0,0,11.731,2.933C1678.715,724.852,1675.13,721.779,1675.13,721.779Z" transform="translate(-444.302 -240.619)" fill="#7e9daa" opacity="0.25"/><path d="M1677.86,721.733l-6.75-.233c-.373.931-.931,3.259,1.4,7.123a40.827,40.827,0,0,0,7.123,1.3,6.993,6.993,0,0,0-.791-7.774A1.853,1.853,0,0,0,1677.86,721.733Z" transform="translate(-447.59 -240.619)" fill="#cdebff"/><path d="M1720.985,718.9c-2.793,0-4,1.117-4.469,1.909a1.968,1.968,0,0,0-.326,1.257v6.657a45.562,45.562,0,0,0,10.614-2.374V721.74a1.112,1.112,0,0,0-.233-.652C1726.012,720.343,1724.383,718.9,1720.985,718.9Z" transform="translate(-471.861 -239.229)" fill="#cdebff"/><path d="M1716.1,735.568a49.176,49.176,0,0,0,10.009-2.141,7.957,7.957,0,0,0-4.935-1.629c-4.842,0-5.028,2.654-5.028,3.026Z" transform="translate(-471.818 -246.121)" fill="#7e9daa" opacity="0.25"/><path d="M1730.386,719.3a8.741,8.741,0,0,1-.186,8.426c1.443-.372,2.793-.745,4.1-1.21v-4.609a1.112,1.112,0,0,0-.233-.652A5.854,5.854,0,0,0,1730.386,719.3Z" transform="translate(-479.354 -239.443)" fill="#7e9daa" opacity="0.41"/><path d="M1949.842,875.082l2.7-1.49-10.1-1.629,5.167-2.84-27.28-15.223L1874.1,880.808l25.977,14.385,8.426-4.655,10.568,1.583,2.7-1.49-10.288-1.722,27.978-15.316Z" transform="translate(-556.264 -311.383)" fill="#969696" opacity="0.3"/><path d="M1970.355,915.492h0a1.87,1.87,0,0,1-1.955-1.769V900.036a1.936,1.936,0,0,1,.931-1.629h0a1.892,1.892,0,0,1,2.561.652,1.636,1.636,0,0,1,.233.931v13.593A1.862,1.862,0,0,1,1970.355,915.492Z" transform="translate(-606.665 -335.034)" fill="#9bb8cc"/><path d="M2035.555,878.518h0a1.87,1.87,0,0,1-1.955-1.769V863.063a2,2,0,0,1,.931-1.629h0a1.845,1.845,0,0,1,2.514.745,1.925,1.925,0,0,1,.233.885v13.594A1.842,1.842,0,0,1,2035.555,878.518Z" transform="translate(-641.512 -315.285)" fill="#9bb8cc"/><path d="M1996.086,824.373,1946.6,855.7l-2.048-1.024a1.012,1.012,0,0,1-.652-.931V825.211a1,1,0,0,1,.512-.885l51.813-29.887a1.039,1.039,0,0,1,.652-.14l2.56.419-2.84,28.863A1.094,1.094,0,0,1,1996.086,824.373Z" transform="translate(-593.57 -279.528)" fill="#3c4656"/><path d="M2001.993,826.485l-51.348,29.654a.5.5,0,0,1-.652-.14.66.66,0,0,1-.093-.279v-28.4a1,1,0,0,1,.512-.885l49.253-28.444,2.374-1.35a.361.361,0,0,1,.465.093c.047.047.047.093.047.186v28.723A1,1,0,0,1,2001.993,826.485Z" transform="translate(-596.777 -280.755)" fill="#535b6b"/><path d="M1255.253,615.281,1083.1,714.672V648.52a3.206,3.206,0,0,1,1.583-2.793l166.148-98.506a2.939,2.939,0,0,1,4.423,2.514v65.547Z" transform="translate(-133.499 -147.249)" fill="url(#aa)"/><path d="M1270.666,754.46l-14.2,8.193c-1.4.791-2.467-.047-2.467-1.862h0a5.975,5.975,0,0,1,2.467-4.748l14.245-8.193c1.35-.791,2.467,0,2.467,1.862h0A5.893,5.893,0,0,1,1270.666,754.46Z" transform="translate(-224.839 -254.539)" fill="#f9737a"/><g transform="translate(1004.534 457.579)"><path d="M1262.643,678.36l-59.076,34.123c-1.4.791-2.467-.047-2.467-1.862h0a5.974,5.974,0,0,1,2.467-4.748l59.076-34.123c1.35-.791,2.467,0,2.467,1.862h0A5.913,5.913,0,0,1,1262.643,678.36Z" transform="translate(-1201.1 -671.444)" fill="#cdebff"/><path d="M1264.5,716.168l-33.937,19.6c-1.4.791-2.467,0-2.467-1.862h0a5.974,5.974,0,0,1,2.467-4.748l33.937-19.6c1.4-.791,2.467.047,2.467,1.862h0A5.553,5.553,0,0,1,1264.5,716.168Z" transform="translate(-1215.531 -691.655)" fill="#cdebff"/></g><path d="M1149.587,727.369l-11.545,6.657c-1.164.7-2.141,0-2.141-1.629h0a5.136,5.136,0,0,1,2.141-4.05l11.545-6.657c1.164-.7,2.141,0,2.141,1.583h0A5.3,5.3,0,0,1,1149.587,727.369Z" transform="translate(-161.719 -240.575)" fill="#bf999c" opacity="0.6"/><path d="M1284.326,651.408l-9.4,5.447c-1.024.559-1.722,0-1.722-1.3h0a4.213,4.213,0,0,1,1.722-3.352l9.4-5.447c1.024-.559,1.722,0,1.722,1.3h0A4.146,4.146,0,0,1,1284.326,651.408Z" transform="translate(-235.101 -200.553)" fill="#bf999c" opacity="0.6"/><path d="M1195.122,814.757,1163,833.285V806.936l32.122-18.528Zm37.335-47.9-32.122,18.528v26.349l32.122-18.528Zm37.382-21.554-32.122,18.528v26.349l32.122-18.528Z" transform="translate(-176.203 -253.339)" fill="url(#ab)"/><path d="M1184.608,869.112,1164.543,880.7c-.791.466-1.443,0-1.443-1.071h0a3.333,3.333,0,0,1,1.443-2.747l20.064-11.592c.791-.465,1.443,0,1.443,1.071h0A3.6,3.6,0,0,1,1184.608,869.112Zm31.191-14.2h0c0-1.071-.652-1.536-1.443-1.071l-12.709,7.309a3.465,3.465,0,0,0-1.443,2.747h0c0,1.071.652,1.583,1.443,1.117l12.709-7.309a3.693,3.693,0,0,0,1.443-2.793Zm7.588-10.149h0c0-1.071-.652-1.536-1.443-1.071l-20.064,11.592a3.464,3.464,0,0,0-1.443,2.747h0c0,1.071.652,1.583,1.443,1.117l20.064-11.592a3.552,3.552,0,0,0,1.443-2.793Zm-44.458,31.563h0c0-1.024-.605-1.49-1.4-1.071l-12.244,7.076a3.186,3.186,0,0,0-1.4,2.654h0c0,1.024.652,1.49,1.4,1.071l12.244-7.076a3.186,3.186,0,0,0,1.4-2.654Zm81.84-53.163h0c0-1.071-.652-1.536-1.443-1.071l-20.064,11.592a3.464,3.464,0,0,0-1.443,2.747h0c0,1.071.652,1.583,1.443,1.117l20.064-11.592a3.765,3.765,0,0,0,1.443-2.793Zm-7.355,10.149h0c0-1.071-.652-1.583-1.443-1.117l-12.709,7.355a3.484,3.484,0,0,0-1.443,2.793h0c0,1.071.652,1.536,1.443,1.071l12.709-7.355A3.458,3.458,0,0,0,1253.413,833.313Z" transform="translate(-176.256 -294.287)" opacity="0.54" fill="url(#ac)"/><path d="M1319.426,631.108l-9.4,5.447c-1.024.559-1.722,0-1.722-1.3h0a4.212,4.212,0,0,1,1.722-3.352l9.4-5.447c1.024-.559,1.722,0,1.722,1.3h0A4.024,4.024,0,0,1,1319.426,631.108Z" transform="translate(-253.861 -189.703)" fill="#bf999c" opacity="0.6"/><path d="M1354.626,610.808l-9.4,5.447c-1.024.559-1.723,0-1.723-1.3h0a4.212,4.212,0,0,1,1.723-3.352l9.4-5.447c1.024-.559,1.722,0,1.722,1.3h0A4.146,4.146,0,0,1,1354.626,610.808Z" transform="translate(-272.675 -178.854)" fill="#bf999c" opacity="0.6"/><path d="M1389.826,590.508l-9.4,5.447c-1.024.559-1.722,0-1.722-1.3h0a4.213,4.213,0,0,1,1.722-3.352l9.4-5.447c1.024-.559,1.722,0,1.722,1.3h0A4.146,4.146,0,0,1,1389.826,590.508Z" transform="translate(-291.488 -168.004)" fill="#bf999c" opacity="0.6"/><ellipse cx="5.912" cy="3.352" rx="5.912" ry="3.352" transform="translate(1072.914 513.259) rotate(-66.953)" fill="#cdebff"/><ellipse cx="5.912" cy="3.352" rx="5.912" ry="3.352" transform="translate(1035.258 535.074) rotate(-66.953)" fill="#cdebff"/><ellipse cx="5.912" cy="3.352" rx="5.912" ry="3.352" transform="translate(998.137 556.633) rotate(-66.953)" fill="#cdebff"/><path d="M1644.158,490.3s-8.892,19.04,7.029,40.827c17.318,23.742,14.245,42.6,4.748,63.079,0,0,23.6-24.44,16.9-50.138C1668.319,526.8,1645.927,518.418,1644.158,490.3Z" transform="translate(-432.044 -117.049)" opacity="0.33" fill="url(#ad)"/><path d="M1676.563,450.892s-21.927-13.826-17.132-49.532-9.031-46.46-9.031-46.46,26.721,7.588,20.576,41.711C1664.319,433.388,1676.563,450.892,1676.563,450.892Z" transform="translate(-436.703 -44.682)" opacity="0.33" fill="url(#ae)"/><g transform="translate(948.834 746.792)"><path d="M1098.606,1302.336l-16.433,9.683a1.408,1.408,0,0,0-.512,1.955,1.346,1.346,0,0,0,.512.512l53.489,29.934a3.88,3.88,0,0,0,3.771,0l8.892-4.888,10.335,5.307,28.071-15.316-69.6-36.823Z" transform="translate(-1081.452 -1292.7)" fill="#969696" opacity="0.3"/></g><g transform="translate(962.217 730.568)"><path d="M1294.128,1363.978l-1.816-.978-.233,1.769,1.024.419-.652-.233-19.506,11.266h-.047v1.629l.047.047,21.135-12.29.047.047Z" transform="translate(-1197.158 -1314.05)" fill="url(#af)"/><ellipse cx="2.095" cy="0.978" rx="2.095" ry="0.978" transform="translate(62.381 35.823)" fill="url(#ag)"/><path d="M1275.127,1368.034a.375.375,0,0,1,.14.419c-.047.047-.047.093-.14.14l-2.467,1.35a.3.3,0,0,1-.279,0l-4.143-2.421a.3.3,0,0,1-.093-.419c.047-.047.047-.093.093-.093l2.467-1.35a.293.293,0,0,1,.279,0Z" transform="translate(-1194.591 -1315.453)" fill="url(#ah)"/><path d="M1282.62,1357.969a.375.375,0,0,1-.14-.419l.14-.14,2.421-1.35a.4.4,0,0,1,.326,0l4.143,2.467a.375.375,0,0,1,.14.419l-.14.14-2.467,1.35a.3.3,0,0,1-.279,0Z" transform="translate(-1202.269 -1310.322)" fill="url(#ai)"/><path d="M1291.1,1348.2l.186,2.84-.186.14-2.7-1.443Z" transform="translate(-1205.443 -1306.139)" fill="url(#aj)"/><path d="M1244.786,1367.9l-3.957-2.281-4.143-2.421-.186.047v4.842h.093l3.957,2.328,12.9,7.542v-4.935l.047-.047Z" transform="translate(-1177.704 -1314.156)" fill="url(#ak)"/><path d="M1290.963,1362l-1.35.745-16.666,9.59-.047.047v3.305h.047l19.506-11.266,1.49-.838Z" transform="translate(-1197.158 -1313.515)" fill="url(#al)"/><path d="M1264.22,1341.024l-6.424-3.724-21,12.057,4.143,2.421,3.957,2.281,8.705,5.074,16.713-9.543,1.3-.745,3.026-1.722Zm-5.819,12.43-2.467,1.35a.3.3,0,0,1-.279,0l-4.143-2.421a.3.3,0,0,1-.093-.419c.047-.047.047-.093.093-.093l2.467-1.35a.293.293,0,0,1,.279,0l4.143,2.467a.3.3,0,0,1,.093.419.163.163,0,0,1-.093.046Zm6.75-4.422-2.467,1.35a.3.3,0,0,1-.279,0l-4.143-2.467a.375.375,0,0,1-.14-.419l.14-.14,2.421-1.35a.4.4,0,0,1,.326,0l4.143,2.467a.257.257,0,0,1,.14.373c-.046.093-.093.186-.14.186Z" transform="translate(-1177.864 -1300.314)" fill="url(#am)"/><path d="M1258.608,1325.584v8.426l-6.424-3.724-21,12.057h-.14v4.795h.047l4,2.328-6.8,4a1.34,1.34,0,0,1-1.816-.419,1.314,1.314,0,0,1-.186-.7v-9.636a1.069,1.069,0,0,1,.186-.652,1.122,1.122,0,0,1,.465-.465l29.654-17.225a1.944,1.944,0,0,1,.466-.186,1.321,1.321,0,0,1,1.49,1.164A.5.5,0,0,1,1258.608,1325.584Z" transform="translate(-1172.252 -1293.3)" fill="#97b1cb"/><path d="M1164.248,1327.749v9.636a1.288,1.288,0,0,0,.233.745h-.047l-52.838-30.865a2.836,2.836,0,0,1-1.4-2.421V1296.7a.716.716,0,0,1,.7-.7h.047a.861.861,0,0,1,.326.093l52.931,30.865.186.093A3.716,3.716,0,0,0,1164.248,1327.749Z" transform="translate(-1110.2 -1278.24)" fill="url(#an)"/><path d="M1195.563,1289.017l-29.654,17.178a1.122,1.122,0,0,0-.466.466l-.186-.093-52.931-30.865a.673.673,0,0,0-.326-.093v-.233l29.189-17.038a3.616,3.616,0,0,1,3.631,0l51.162,30.446h0A.626.626,0,0,0,1195.563,1289.017Zm-17.83,5.633c0-.559-.931-1.024-2.095-1.024s-2.095.419-2.095,1.024.931,1.024,2.095,1.024S1177.733,1295.162,1177.733,1294.65Z" transform="translate(-1111.162 -1257.85)" fill="url(#ao)"/><g transform="translate(75.788 46.762)"><path d="M1273,1391.3" transform="translate(-1273 -1375.938)" fill="none" stroke="#7f7f7f" stroke-miterlimit="10" stroke-width="1.266"/><path d="M1315,1367.2" transform="translate(-1295.448 -1363.057)" fill="none" stroke="#7f7f7f" stroke-miterlimit="10" stroke-width="1.266"/><path d="M1318.5,1369" transform="translate(-1297.318 -1364.019)" fill="none" stroke="#7f7f7f" stroke-miterlimit="10" stroke-width="1.266"/><path d="M1318.5,1358.3" transform="translate(-1297.318 -1358.3)" fill="none" stroke="#7f7f7f" stroke-miterlimit="10" stroke-width="1.266"/><path d="M1318.1,1365.4" transform="translate(-1297.105 -1362.095)" fill="none" stroke="#7f7f7f" stroke-miterlimit="10" stroke-width="1.266"/></g></g></g></svg>