<svg width="42" height="42" viewBox="0 0 42 42" fill="none" xmlns="http://www.w3.org/2000/svg">
<g clip-path="url(#clip0)">
<path d="M12.6254 21.7304C12.6254 20.626 11.8585 19.9668 10.5051 19.9668C9.953 19.9668 9.57896 20.02 9.38281 20.0734V23.62C9.6147 23.6727 9.89975 23.6907 10.2907 23.6907C11.7347 23.6907 12.6254 22.9603 12.6254 21.7304Z" fill="white"/>
<path d="M21.0016 20.002C20.3951 20.002 20.004 20.0553 19.7715 20.1088V27.9667C20.0035 28.021 20.3778 28.021 20.7165 28.021C23.1751 28.0382 24.7789 26.6846 24.7789 23.8156C24.7969 21.32 23.3353 20.002 21.0016 20.002Z" fill="white"/>
<path d="M37.0524 15.386H36.0675V10.6339C36.0675 10.6043 36.0628 10.5744 36.0589 10.5444C36.0573 10.3557 35.9973 10.1704 35.8681 10.0235L27.9601 0.989921C27.9577 0.987612 27.9554 0.986793 27.9537 0.984261C27.9066 0.931614 27.8516 0.887828 27.7936 0.849925C27.7764 0.838383 27.759 0.828702 27.741 0.818724C27.6906 0.791246 27.6373 0.768459 27.5823 0.752002C27.5674 0.747832 27.554 0.741726 27.5391 0.737854C27.4794 0.723705 27.4174 0.714844 27.3545 0.714844H7.91945C7.03197 0.714844 6.31099 1.43664 6.31099 2.32338V15.3857H5.32633C4.05676 15.3857 3.02734 16.4146 3.02734 17.6846V29.6398C3.02734 30.9089 4.05676 31.9385 5.32633 31.9385H6.31106V40.1222C6.31106 41.0088 7.03204 41.7307 7.91953 41.7307H34.4591C35.3458 41.7307 36.0676 41.0089 36.0676 40.1222V31.9385H37.0525C38.3217 31.9385 39.3513 30.9089 39.3513 29.6398V17.685C39.3512 16.4151 38.3216 15.386 37.0524 15.386ZM7.91945 2.32368H26.5503V10.5531C26.5503 10.9975 26.9108 11.3574 27.3545 11.3574H34.4591V15.3866H7.91945V2.32368ZM27.6647 23.7265C27.6647 26.0257 26.8275 27.611 25.6676 28.5916C24.4038 29.6428 22.4789 30.1415 20.1276 30.1415C18.7202 30.1415 17.7226 30.0524 17.0446 29.9636V18.167C18.0424 18.007 19.344 17.9179 20.7161 17.9179C22.9957 17.9179 24.475 18.328 25.6338 19.2006C26.8805 20.1273 27.6647 21.606 27.6647 23.7265ZM6.69076 30.0171V18.167C7.52783 18.0253 8.70447 17.9179 10.3616 17.9179C12.0364 17.9179 13.2306 18.2387 14.0321 18.8806C14.7985 19.486 15.3141 20.4841 15.3141 21.6602C15.3141 22.8367 14.9231 23.8345 14.2098 24.5112C13.2833 25.3845 11.9114 25.7768 10.3073 25.7768C9.95147 25.7768 9.62963 25.7587 9.38129 25.7229V30.0174H6.69076V30.0171ZM34.4591 39.6868H7.91945V31.9385H34.4591V39.6868H34.4591ZM36.7897 20.2344H32.1736V22.9785H36.4862V25.1882H32.1736V30.0172H29.4487V18.007H36.7897V20.2344Z" fill="white"/>
</g>
<defs>
<clipPath id="clip0">
<rect x="0.681641" y="0.714844" width="41.0159" height="41.0159" fill="white"/>
</clipPath>
</defs>
</svg>
