<svg width="550" height="350" viewBox="0 0 550 350" fill="none" xmlns="http://www.w3.org/2000/svg">
<g clip-path="url(#clip0)">
<path opacity="0.1" d="M99.9778 177.322C93.719 179.217 87.861 183.807 86.2975 190.175C84.5093 197.493 88.6329 204.87 89.229 212.384C91.154 237.004 56.2205 254.373 61.204 278.557C63.1828 288.172 71.1808 295.245 79.0616 301.089C91.6866 310.421 105.694 318.665 121.207 320.991C144.751 324.528 169.351 314.134 192.236 320.702C210.695 326.002 224.82 341.535 243.151 347.266C257.105 351.631 272.139 349.911 286.635 348.143C294.452 347.193 302.641 346.096 308.948 341.393C320.674 332.64 321.412 315.353 329.264 302.965C341.39 283.862 367.979 280.109 390.273 283.822C412.567 287.535 434.216 296.676 456.803 295.931C461.63 295.77 466.574 295.113 470.786 292.737C475.906 289.852 479.365 284.768 482.424 279.737C501.539 248.176 512.032 212.126 512.848 175.21C512.98 168.867 512.755 162.249 509.779 156.65C506.017 149.567 498.498 145.33 491.013 142.479C473.038 135.622 453.182 134.5 435.569 126.765C418.581 119.305 404.823 106.221 390.028 95.0089C360.546 72.7077 326.375 57.4501 290.119 50.3993C281.622 48.7534 272.803 47.5778 264.361 49.4784C254.633 51.668 246.249 57.7469 238.71 64.2911C218.654 81.7 202.58 103.179 184.097 122.259C171.346 135.416 157.462 147.42 142.606 158.13C135.766 163.072 128.496 168.94 120.874 172.595C113.897 175.935 107.355 175.093 99.9778 177.322Z" fill="#36ABC5"/>
<path d="M189.378 22.6016C189.378 22.6016 170.494 47.745 184.004 77.0521C197.513 106.359 160.459 153.447 160.459 153.447" stroke="#535461" stroke-width="2" stroke-miterlimit="10"/>
<path d="M197.845 13.1917C196.345 19.6625 189.167 23.5175 189.167 23.5175C189.167 23.5175 184.428 16.8802 185.928 10.4094C187.428 3.93861 191.303 -0.685467 194.605 0.0835812C197.908 0.852629 199.345 6.7209 197.845 13.1917Z" fill="#136375"/>
<path d="M194.581 41.9413C188.347 44.1946 181.219 40.2465 181.219 40.2465C181.219 40.2465 184.199 32.649 190.438 30.4007C196.677 28.1523 202.653 28.9312 203.801 32.0955C204.949 35.2599 200.816 39.688 194.581 41.9413Z" fill="#136375"/>
<path d="M192.831 36.9515C194.787 36.2424 196.157 35.0717 195.892 34.3368C195.627 33.6019 193.827 33.581 191.871 34.2902C189.915 34.9993 188.545 36.17 188.81 36.9049C189.075 37.6398 190.876 37.6607 192.831 36.9515Z" fill="#136375"/>
<path opacity="0.3" d="M192.831 36.9515C194.787 36.2424 196.157 35.0717 195.892 34.3368C195.627 33.6019 193.827 33.581 191.871 34.2902C189.915 34.9993 188.545 36.17 188.81 36.9049C189.075 37.6398 190.876 37.6607 192.831 36.9515Z" fill="#222222"/>
<path d="M193.13 64.8495C186.896 67.1028 179.768 63.1546 179.768 63.1546C179.768 63.1546 182.748 55.5572 188.987 53.3089C195.226 51.0605 201.202 51.8394 202.35 55.0037C203.498 58.1681 199.365 62.6011 193.13 64.8495Z" fill="#136375"/>
<path d="M191.452 60.2069C193.409 59.5003 194.782 58.3312 194.518 57.5956C194.254 56.86 192.453 56.8364 190.495 57.543C188.538 58.2495 187.165 59.4186 187.429 60.1542C187.694 60.8898 189.495 60.9134 191.452 60.2069Z" fill="#136375"/>
<path opacity="0.3" d="M191.452 60.2069C193.409 59.5003 194.782 58.3312 194.518 57.5956C194.254 56.86 192.453 56.8364 190.495 57.543C188.538 58.2495 187.165 59.4186 187.429 60.1542C187.694 60.8898 189.495 60.9134 191.452 60.2069Z" fill="#222222"/>
<path d="M200.415 91.7284C194.181 93.9817 187.053 90.0336 187.053 90.0336C187.053 90.0336 190.033 82.4362 196.272 80.1878C202.511 77.9394 208.487 78.7183 209.635 81.8826C210.783 85.047 206.65 89.4898 200.415 91.7284Z" fill="#136375"/>
<path d="M198.737 87.0975C200.695 86.3909 202.067 85.2219 201.803 84.4862C201.539 83.7506 199.738 83.7271 197.781 84.4336C195.823 85.1401 194.45 86.3092 194.715 87.0448C194.979 87.7805 196.78 87.804 198.737 87.0975Z" fill="#136375"/>
<path opacity="0.3" d="M198.737 87.0975C200.695 86.3909 202.067 85.2219 201.803 84.4862C201.539 83.7506 199.738 83.7271 197.781 84.4336C195.823 85.1401 194.45 86.3092 194.715 87.0448C194.979 87.7805 196.78 87.804 198.737 87.0975Z" fill="#222222"/>
<path d="M195.677 116.308C189.443 118.562 182.314 114.614 182.314 114.614C182.314 114.614 185.295 107.016 191.534 104.768C197.773 102.52 203.748 103.298 204.897 106.463C206.045 109.627 201.916 114.06 195.677 116.308Z" fill="#136375"/>
<path d="M194.013 111.26C195.968 110.551 197.339 109.38 197.074 108.645C196.809 107.91 195.008 107.89 193.053 108.599C191.097 109.308 189.727 110.479 189.992 111.214C190.257 111.948 192.057 111.969 194.013 111.26Z" fill="#136375"/>
<path opacity="0.3" d="M194.013 111.26C195.968 110.551 197.339 109.38 197.074 108.645C196.809 107.91 195.008 107.89 193.053 108.599C191.097 109.308 189.727 110.479 189.992 111.214C190.257 111.948 192.057 111.969 194.013 111.26Z" fill="#222222"/>
<path d="M166.435 48.4502C171.037 53.231 179.172 52.8587 179.172 52.8587C179.172 52.8587 179.841 44.7225 175.239 39.9417C170.637 35.1608 164.935 33.1917 162.502 35.5331C160.069 37.8746 161.832 43.6693 166.435 48.4502Z" fill="#136375"/>
<path d="M173.627 46.7539C174.188 46.2108 173.472 44.5541 172.027 43.0535C170.582 41.5528 168.956 40.7765 168.395 41.3195C167.834 41.8625 168.55 43.5192 169.995 45.0199C171.44 46.5205 173.066 47.2969 173.627 46.7539Z" fill="#136375"/>
<path opacity="0.3" d="M173.627 46.7539C174.188 46.2108 173.472 44.5541 172.027 43.0535C170.582 41.5528 168.956 40.7765 168.395 41.3195C167.834 41.8625 168.55 43.5192 169.995 45.0199C171.44 46.5205 173.066 47.2969 173.627 46.7539Z" fill="#222222"/>
<path d="M163.792 124.37C168.395 129.151 176.53 128.779 176.53 128.779C176.53 128.779 177.199 120.642 172.597 115.862C167.994 111.081 162.292 109.112 159.859 111.453C157.426 113.794 159.19 119.589 163.792 124.37Z" fill="#136375"/>
<path d="M170.979 122.682C171.54 122.139 170.823 120.482 169.378 118.981C167.934 117.481 166.307 116.704 165.746 117.247C165.185 117.79 165.902 119.447 167.347 120.948C168.792 122.448 170.418 123.225 170.979 122.682Z" fill="#136375"/>
<path opacity="0.3" d="M170.979 122.682C171.54 122.139 170.823 120.482 169.378 118.981C167.934 117.481 166.307 116.704 165.746 117.247C165.185 117.79 165.902 119.447 167.347 120.948C168.792 122.448 170.418 123.225 170.979 122.682Z" fill="#222222"/>
<path d="M169.893 75.2837C175.825 78.2521 183.363 75.1661 183.363 75.1661C183.363 75.1661 181.287 67.2748 175.36 64.3064C169.434 61.338 163.4 61.3674 161.89 64.424C160.38 67.4806 163.962 72.3153 169.893 75.2837Z" fill="#136375"/>
<path d="M176.094 71.2642C176.442 70.5646 175.216 69.2425 173.354 68.3112C171.493 67.3798 169.701 67.192 169.353 67.8915C169.005 68.5911 170.232 69.9132 172.093 70.8445C173.955 71.7758 175.746 71.9637 176.094 71.2642Z" fill="#136375"/>
<path opacity="0.3" d="M176.094 71.2642C176.442 70.5646 175.216 69.2425 173.354 68.3112C171.493 67.3798 169.701 67.192 169.353 67.8915C169.005 68.5911 170.232 69.9132 172.093 70.8445C173.955 71.7758 175.746 71.9637 176.094 71.2642Z" fill="#222222"/>
<path d="M172.38 102.014C178.311 104.983 185.85 101.897 185.85 101.897C185.85 101.897 183.774 94.0053 177.847 91.0369C171.921 88.0685 165.887 88.0978 164.377 91.1544C162.867 94.211 166.473 99.0752 172.38 102.014Z" fill="#136375"/>
<path d="M178.583 97.9985C178.931 97.299 177.704 95.9769 175.842 95.0455C173.981 94.1142 172.19 93.9263 171.841 94.6259C171.493 95.3255 172.72 96.6476 174.582 97.5789C176.443 98.5102 178.234 98.6981 178.583 97.9985Z" fill="#136375"/>
<path opacity="0.3" d="M178.583 97.9985C178.931 97.299 177.704 95.9769 175.842 95.0455C173.981 94.1142 172.19 93.9263 171.841 94.6259C171.493 95.3255 172.72 96.6476 174.582 97.5789C176.443 98.5102 178.234 98.6981 178.583 97.9985Z" fill="#222222"/>
<path d="M98.4299 76.6445C98.4299 76.6445 132.919 111.222 113.449 162.533C93.9789 213.844 146.824 299.169 146.824 299.169C146.824 299.169 146.257 299.085 145.207 298.899C74.3624 286.364 39.1846 205.139 78.5642 144.801C93.1874 122.366 105.231 96.052 98.4299 76.6445Z" fill="#136375"/>
<path d="M37 216.499C37 216.499 76.3551 210.214 79.9413 245.575C83.5275 280.937 155.618 285.84 155.618 285.84C155.618 285.84 155.129 286.164 154.264 286.742C94.7404 325.929 37.8404 311.694 46.4149 259.678C49.6103 240.334 49.3464 220.912 37 216.499Z" fill="#136375"/>
<g opacity="0.3">
<path opacity="0.3" d="M37 216.499C37 216.499 76.3551 210.214 79.9413 245.575C83.5275 280.937 155.618 285.84 155.618 285.84C155.618 285.84 155.129 286.164 154.264 286.742C94.7404 325.929 37.8404 311.694 46.4149 259.678C49.6103 240.334 49.3464 220.912 37 216.499Z" fill="white"/>
</g>
<path d="M88.4666 216.063C94.4434 216.063 99.2886 203.389 99.2886 187.755C99.2886 172.121 94.4434 159.447 88.4666 159.447C82.4897 159.447 77.6445 172.121 77.6445 187.755C77.6445 203.389 82.4897 216.063 88.4666 216.063Z" fill="#136375"/>
<path opacity="0.3" d="M88.4666 216.063C94.4434 216.063 99.2886 203.389 99.2886 187.755C99.2886 172.121 94.4434 159.447 88.4666 159.447C82.4897 159.447 77.6445 172.121 77.6445 187.755C77.6445 203.389 82.4897 216.063 88.4666 216.063Z" fill="#222222"/>
<path d="M87.4779 290.563C90.3265 287.707 87.496 280.239 81.1556 273.882C74.8152 267.525 67.366 264.688 64.5174 267.544C61.6687 270.4 64.4992 277.868 70.8396 284.225C77.18 290.581 84.6292 293.419 87.4779 290.563Z" fill="#136375"/>
<path opacity="0.3" d="M87.4779 290.563C90.3265 287.707 87.496 280.239 81.1556 273.882C74.8152 267.525 67.366 264.688 64.5174 267.544C61.6687 270.4 64.4992 277.868 70.8396 284.225C77.18 290.581 84.6292 293.419 87.4779 290.563Z" fill="#222222"/>
<path d="M390.679 130.033H134.496C131.401 130.033 128.432 131.266 126.243 133.461C124.054 135.655 122.824 138.632 122.824 141.735V292.278C122.824 295.381 124.054 298.358 126.243 300.553C128.432 302.747 131.401 303.98 134.496 303.98H390.679C393.774 303.98 396.743 302.747 398.932 300.553C401.121 298.358 402.351 295.381 402.351 292.278V141.735C402.351 138.632 401.121 135.655 398.932 133.461C396.743 131.266 393.774 130.033 390.679 130.033Z" fill="url(#paint0_linear)"/>
<path d="M386.935 132.08H138.233C131.538 132.08 126.111 137.521 126.111 144.233V289.779C126.111 296.491 131.538 301.932 138.233 301.932H386.935C393.63 301.932 399.057 296.491 399.057 289.779V144.233C399.057 137.521 393.63 132.08 386.935 132.08Z" fill="#36ABC5"/>
<path d="M399.057 161.805H126.111V192.944H399.057V161.805Z" fill="#36ABC5"/>
<path opacity="0.3" d="M399.057 161.805H126.111V192.944H399.057V161.805Z" fill="#222222"/>
<path d="M373.176 216.062H151.996V231.159H373.176V216.062Z" fill="#D6D6E3"/>
<path d="M170.348 290.613C182.305 290.613 191.997 280.895 191.997 268.908C191.997 256.921 182.305 247.203 170.348 247.203C158.392 247.203 148.699 256.921 148.699 268.908C148.699 280.895 158.392 290.613 170.348 290.613Z" fill="#36ABC5"/>
<path opacity="0.3" d="M170.348 290.613C182.305 290.613 191.997 280.895 191.997 268.908C191.997 256.921 182.305 247.203 170.348 247.203C158.392 247.203 148.699 256.921 148.699 268.908C148.699 280.895 158.392 290.613 170.348 290.613Z" fill="#222222"/>
<path d="M384.826 87.8926H409.816V87.3636H384.826V87.8926Z" fill="#136375"/>
<path d="M384.826 88.4219H409.816V87.8929H384.826V88.4219Z" fill="#136375"/>
<path opacity="0.1" d="M384.826 88.4219H409.816V87.8929H384.826V88.4219Z" fill="#222222"/>
<path d="M384.826 88.9492H409.816V88.4202H384.826V88.9492Z" fill="#136375"/>
<path d="M384.826 89.4746H409.816V88.9456H384.826V89.4746Z" fill="#136375"/>
<path opacity="0.1" d="M384.826 89.4746H409.816V88.9456H384.826V89.4746Z" fill="#222222"/>
<path d="M384.826 90.0039H409.816V89.4749H384.826V90.0039Z" fill="#136375"/>
<path d="M384.826 90.5273H409.816V89.9983H384.826V90.5273Z" fill="#136375"/>
<path opacity="0.1" d="M384.826 90.5273H409.816V89.9983H384.826V90.5273Z" fill="#222222"/>
<path d="M384.826 91.0566H409.816V90.5276H384.826V91.0566Z" fill="#136375"/>
<path d="M384.826 91.5801H409.816V91.0511H384.826V91.5801Z" fill="#136375"/>
<path opacity="0.1" d="M384.826 91.5801H409.816V91.0511H384.826V91.5801Z" fill="#222222"/>
<path d="M384.826 83.6797H409.816V83.1507H384.826V83.6797Z" fill="#136375"/>
<path d="M402.503 71.1544L421.717 87.1758L422.054 86.769L402.84 70.7477L402.503 71.1544Z" fill="#136375"/>
<path d="M384.985 62.7248L404.199 78.7461L404.537 78.3394L385.323 62.318L384.985 62.7248Z" fill="#136375"/>
<path d="M384.826 84.2031H409.816V83.6741H384.826V84.2031Z" fill="#136375"/>
<path opacity="0.1" d="M384.826 84.2031H409.816V83.6741H384.826V84.2031Z" fill="#222222"/>
<path d="M384.826 84.7383H409.816V84.2093H384.826V84.7383Z" fill="#136375"/>
<path d="M384.826 85.2617H409.816V84.7327H384.826V85.2617Z" fill="#136375"/>
<path opacity="0.1" d="M384.826 85.2617H409.816V84.7327H384.826V85.2617Z" fill="#222222"/>
<path d="M384.826 85.7852H409.816V85.2561H384.826V85.7852Z" fill="#136375"/>
<path d="M384.826 86.3145H409.816V85.7854H384.826V86.3145Z" fill="#136375"/>
<path opacity="0.1" d="M384.826 86.3145H409.816V85.7854H384.826V86.3145Z" fill="#222222"/>
<path d="M384.826 86.8398H409.816V86.3108H384.826V86.8398Z" fill="#136375"/>
<path d="M384.826 87.3672H409.816V86.8382H384.826V87.3672Z" fill="#136375"/>
<path opacity="0.1" d="M384.826 87.3672H409.816V86.8382H384.826V87.3672Z" fill="#222222"/>
<path d="M381.657 107.909L390.611 109.576L393.852 92.0794L384.898 90.4124L381.657 107.909Z" fill="#136375"/>
<path d="M389.716 100.392C390.093 98.3568 389.577 96.5544 388.563 96.3657C387.55 96.177 386.423 97.6736 386.046 99.7083C385.669 101.743 386.185 103.546 387.198 103.734C388.212 103.923 389.339 102.426 389.716 100.392Z" fill="#136375"/>
<path opacity="0.1" d="M389.716 100.392C390.093 98.3568 389.577 96.5544 388.563 96.3657C387.55 96.177 386.423 97.6736 386.046 99.7083C385.669 101.743 386.185 103.546 387.198 103.734C388.212 103.923 389.339 102.426 389.716 100.392Z" fill="#222222"/>
<path d="M383.19 144.839L392.145 146.506L395.385 129.009L386.431 127.342L383.19 144.839Z" fill="#136375"/>
<path d="M391.243 137.317C391.62 135.283 391.104 133.48 390.09 133.291C389.077 133.103 387.95 134.599 387.573 136.634C387.196 138.669 387.712 140.471 388.726 140.66C389.739 140.849 390.866 139.352 391.243 137.317Z" fill="#136375"/>
<path opacity="0.1" d="M391.243 137.317C391.62 135.283 391.104 133.48 390.09 133.291C389.077 133.103 387.95 134.599 387.573 136.634C387.196 138.669 387.712 140.471 388.726 140.66C389.739 140.849 390.866 139.352 391.243 137.317Z" fill="#222222"/>
<path d="M350.803 54.0635L346.469 62.0938L362.08 70.5634L366.414 62.5331L350.803 54.0635Z" fill="#136375"/>
<path d="M361.251 64.4566C361.746 63.5472 360.675 62.0046 358.858 61.0113C357.042 60.0179 355.168 59.9498 354.673 60.8592C354.178 61.7686 355.25 63.3112 357.066 64.3045C358.883 65.2979 360.757 65.366 361.251 64.4566Z" fill="#136375"/>
<path opacity="0.1" d="M361.251 64.4566C361.746 63.5472 360.675 62.0046 358.858 61.0113C357.042 60.0179 355.168 59.9498 354.673 60.8592C354.178 61.7686 355.25 63.3112 357.066 64.3045C358.883 65.2979 360.757 65.366 361.251 64.4566Z" fill="#222222"/>
<path d="M316.526 212.538L312.191 220.568L327.802 229.038L332.137 221.008L316.526 212.538Z" fill="#136375"/>
<path d="M325.4 222.679C325.891 221.77 324.817 220.235 323.001 219.25C321.186 218.265 319.316 218.203 318.826 219.112C318.335 220.021 319.409 221.556 321.225 222.541C323.04 223.526 324.91 223.588 325.4 222.679Z" fill="#136375"/>
<path opacity="0.1" d="M325.4 222.679C325.891 221.77 324.817 220.235 323.001 219.25C321.186 218.265 319.316 218.203 318.826 219.112C318.335 220.021 319.409 221.556 321.225 222.541C323.04 223.526 324.91 223.588 325.4 222.679Z" fill="#222222"/>
<path d="M295.553 81.7608L291.219 89.791L306.83 98.2606L311.164 90.2304L295.553 81.7608Z" fill="#136375"/>
<path d="M304.424 91.8939C304.914 90.985 303.84 89.4497 302.025 88.4647C300.209 87.4798 298.34 87.4181 297.849 88.327C297.359 89.2359 298.433 90.7711 300.248 91.7561C302.064 92.7411 303.933 92.8027 304.424 91.8939Z" fill="#136375"/>
<path opacity="0.1" d="M304.424 91.8939C304.914 90.985 303.84 89.4497 302.025 88.4647C300.209 87.4798 298.34 87.4181 297.849 88.327C297.359 89.2359 298.433 90.7711 300.248 91.7561C302.064 92.7411 303.933 92.8027 304.424 91.8939Z" fill="#222222"/>
<path d="M321.838 54.0616L317.504 62.0918L333.115 70.5614L337.449 62.5312L321.838 54.0616Z" fill="#136375"/>
<path d="M330.711 64.1946C331.201 63.2858 330.127 61.7505 328.312 60.7655C326.496 59.7806 324.627 59.7189 324.136 60.6278C323.646 61.5366 324.72 63.0719 326.535 64.0569C328.351 65.0418 330.22 65.1035 330.711 64.1946Z" fill="#136375"/>
<path opacity="0.1" d="M330.711 64.1946C331.201 63.2858 330.127 61.7505 328.312 60.7655C326.496 59.7806 324.627 59.7189 324.136 60.6278C323.646 61.5366 324.72 63.0719 326.535 64.0569C328.351 65.0418 330.22 65.1035 330.711 64.1946Z" fill="#222222"/>
<path d="M348.082 86.7439L339.029 87.7363L340.959 105.427L350.012 104.434L348.082 86.7439Z" fill="#136375"/>
<path d="M344.807 99.8249C345.831 99.7125 346.48 97.9537 346.256 95.8964C346.031 93.8391 345.019 92.2624 343.994 92.3747C342.969 92.4871 342.321 94.2459 342.545 96.3032C342.769 98.3605 343.782 99.9372 344.807 99.8249Z" fill="#136375"/>
<path opacity="0.1" d="M344.807 99.8249C345.831 99.7125 346.48 97.9537 346.256 95.8964C346.031 93.8391 345.019 92.2624 343.994 92.3747C342.969 92.4871 342.321 94.2459 342.545 96.3032C342.769 98.3605 343.782 99.9372 344.807 99.8249Z" fill="#222222"/>
<path d="M410.153 183.613L401.1 184.605L403.029 202.296L412.082 201.303L410.153 183.613Z" fill="#136375"/>
<path d="M406.881 196.696C407.905 196.584 408.554 194.825 408.33 192.768C408.105 190.71 407.093 189.134 406.068 189.246C405.044 189.358 404.395 191.117 404.619 193.174C404.844 195.232 405.856 196.808 406.881 196.696Z" fill="#136375"/>
<path opacity="0.1" d="M406.881 196.696C407.905 196.584 408.554 194.825 408.33 192.768C408.105 190.71 407.093 189.134 406.068 189.246C405.044 189.358 404.395 191.117 404.619 193.174C404.844 195.232 405.856 196.808 406.881 196.696Z" fill="#222222"/>
<path d="M312.633 124.323L308.299 132.354L323.91 140.823L328.244 132.793L312.633 124.323Z" fill="#136375"/>
<path d="M321.5 134.464C321.99 133.555 320.916 132.02 319.101 131.035C317.285 130.05 315.416 129.988 314.925 130.897C314.435 131.806 315.509 133.341 317.324 134.326C319.14 135.311 321.009 135.373 321.5 134.464Z" fill="#136375"/>
<path opacity="0.1" d="M321.5 134.464C321.99 133.555 320.916 132.02 319.101 131.035C317.285 130.05 315.416 129.988 314.925 130.897C314.435 131.806 315.509 133.341 317.324 134.326C319.14 135.311 321.009 135.373 321.5 134.464Z" fill="#222222"/>
<path d="M273.239 113.044L268.904 121.074L284.515 129.544L288.85 121.514L273.239 113.044Z" fill="#136375"/>
<path d="M283.406 123.716C283.901 122.807 282.829 121.264 281.012 120.271C279.196 119.278 277.322 119.21 276.828 120.119C276.333 121.028 277.404 122.571 279.221 123.564C281.037 124.558 282.911 124.626 283.406 123.716Z" fill="#136375"/>
<path opacity="0.1" d="M283.406 123.716C283.901 122.807 282.829 121.264 281.012 120.271C279.196 119.278 277.322 119.21 276.828 120.119C276.333 121.028 277.404 122.571 279.221 123.564C281.037 124.558 282.911 124.626 283.406 123.716Z" fill="#222222"/>
<path d="M260.621 302.958L256.287 310.988L271.898 319.458L276.232 311.428L260.621 302.958Z" fill="#136375"/>
<path d="M269.492 313.093C269.983 312.184 268.909 310.649 267.093 309.664C265.278 308.679 263.408 308.617 262.918 309.526C262.427 310.435 263.501 311.97 265.317 312.955C267.132 313.94 269.001 314.002 269.492 313.093Z" fill="#136375"/>
<path opacity="0.1" d="M269.492 313.093C269.983 312.184 268.909 310.649 267.093 309.664C265.278 308.679 263.408 308.617 262.918 309.526C262.427 310.435 263.501 311.97 265.317 312.955C267.132 313.94 269.001 314.002 269.492 313.093Z" fill="#222222"/>
<path d="M249.265 306.052L247.604 315.029L265.056 318.275L266.717 309.298L249.265 306.052Z" fill="#136375"/>
<path opacity="0.05" d="M249.265 306.052L247.604 315.029L265.056 318.275L266.717 309.298L249.265 306.052Z" fill="#222222"/>
<path d="M260.817 312.961C261.005 311.945 259.512 310.815 257.483 310.438C255.453 310.06 253.655 310.578 253.467 311.594C253.279 312.61 254.772 313.74 256.802 314.117C258.832 314.495 260.629 313.977 260.817 312.961Z" fill="#136375"/>
<path opacity="0.1" d="M260.817 312.961C261.005 311.945 259.512 310.815 257.483 310.438C255.453 310.06 253.655 310.578 253.467 311.594C253.279 312.61 254.772 313.74 256.802 314.117C258.832 314.495 260.629 313.977 260.817 312.961Z" fill="#222222"/>
<path d="M250.899 311.437L249.238 320.414L266.691 323.66L268.352 314.683L250.899 311.437Z" fill="#136375"/>
<path d="M262.448 318.346C262.636 317.33 261.143 316.2 259.114 315.822C257.084 315.445 255.286 315.962 255.098 316.979C254.91 317.995 256.403 319.124 258.433 319.502C260.462 319.879 262.26 319.362 262.448 318.346Z" fill="#136375"/>
<path opacity="0.1" d="M262.448 318.346C262.636 317.33 261.143 316.2 259.114 315.822C257.084 315.445 255.286 315.962 255.098 316.979C254.91 317.995 256.403 319.124 258.433 319.502C260.462 319.879 262.26 319.362 262.448 318.346Z" fill="#222222"/>
<path d="M279.036 326.038L274.701 334.068L290.312 342.538L294.646 334.508L279.036 326.038Z" fill="#136375"/>
<path d="M287.912 336.173C288.402 335.264 287.328 333.729 285.513 332.744C283.698 331.759 281.828 331.697 281.337 332.606C280.847 333.515 281.921 335.05 283.736 336.035C285.552 337.02 287.421 337.082 287.912 336.173Z" fill="#136375"/>
<path opacity="0.1" d="M287.912 336.173C288.402 335.264 287.328 333.729 285.513 332.744C283.698 331.759 281.828 331.697 281.337 332.606C280.847 333.515 281.921 335.05 283.736 336.035C285.552 337.02 287.421 337.082 287.912 336.173Z" fill="#222222"/>
<path d="M267.683 329.126L266.021 338.104L283.474 341.35L285.135 332.372L267.683 329.126Z" fill="#136375"/>
<path opacity="0.05" d="M267.683 329.126L266.021 338.104L283.474 341.35L285.135 332.372L267.683 329.126Z" fill="#222222"/>
<path d="M306.664 311.163L302.33 319.193L317.941 327.663L322.275 319.633L306.664 311.163Z" fill="#136375"/>
<path d="M315.531 321.296C316.022 320.387 314.948 318.852 313.132 317.867C311.317 316.882 309.447 316.82 308.957 317.729C308.466 318.638 309.54 320.173 311.356 321.158C313.171 322.143 315.04 322.205 315.531 321.296Z" fill="#136375"/>
<path opacity="0.1" d="M315.531 321.296C316.022 320.387 314.948 318.852 313.132 317.867C311.317 316.882 309.447 316.82 308.957 317.729C308.466 318.638 309.54 320.173 311.356 321.158C313.171 322.143 315.04 322.205 315.531 321.296Z" fill="#222222"/>
<path d="M295.308 314.255L293.646 323.232L311.099 326.478L312.76 317.501L295.308 314.255Z" fill="#136375"/>
<path opacity="0.05" d="M295.308 314.255L293.646 323.232L311.099 326.478L312.76 317.501L295.308 314.255Z" fill="#222222"/>
<path d="M306.854 321.164C307.042 320.148 305.549 319.018 303.52 318.641C301.49 318.263 299.693 318.781 299.505 319.797C299.316 320.813 300.809 321.943 302.839 322.32C304.869 322.698 306.666 322.18 306.854 321.164Z" fill="#136375"/>
<path opacity="0.1" d="M306.854 321.164C307.042 320.148 305.549 319.018 303.52 318.641C301.49 318.263 299.693 318.781 299.505 319.797C299.316 320.813 300.809 321.943 302.839 322.32C304.869 322.698 306.666 322.18 306.854 321.164Z" fill="#222222"/>
<path d="M296.942 319.644L295.281 328.621L312.734 331.867L314.395 322.89L296.942 319.644Z" fill="#136375"/>
<path d="M308.495 326.555C308.683 325.539 307.19 324.409 305.161 324.031C303.131 323.654 301.333 324.171 301.145 325.188C300.957 326.204 302.45 327.333 304.48 327.711C306.509 328.088 308.307 327.571 308.495 326.555Z" fill="#136375"/>
<path opacity="0.1" d="M308.495 326.555C308.683 325.539 307.19 324.409 305.161 324.031C303.131 323.654 301.333 324.171 301.145 325.188C300.957 326.204 302.45 327.333 304.48 327.711C306.509 328.088 308.307 327.571 308.495 326.555Z" fill="#222222"/>
</g>
<defs>
<linearGradient id="paint0_linear" x1="262.587" y1="303.98" x2="262.587" y2="130.033" gradientUnits="userSpaceOnUse">
<stop stop-color="#808080" stop-opacity="0.25"/>
<stop offset="0.54" stop-color="#808080" stop-opacity="0.12"/>
<stop offset="1" stop-color="#808080" stop-opacity="0.1"/>
</linearGradient>
<clipPath id="clip0">
<rect width="550" height="350" fill="white"/>
</clipPath>
</defs>
</svg>
