<svg width="350" height="250" viewBox="0 0 350 250" fill="none" xmlns="http://www.w3.org/2000/svg">
<path opacity="0.1" d="M300.41 90.1022C299.27 47.3486 258.956 13 209.379 13C185.131 13 163.116 21.2212 146.784 34.6346C112.835 37.375 84.2919 56.2692 71.4972 82.3894C32.6316 91.3714 4 122.114 4 158.673C4 202.303 44.7628 237.639 95.0492 237.639C109.82 237.625 124.316 234.558 137.032 228.758C148.954 233.934 162.362 236.732 176.04 236.897C189.719 237.063 203.234 234.591 215.361 229.707C227.739 235.123 241.721 237.98 255.951 238C306.237 238 347 202.663 347 159.034C347 129.416 328.21 103.62 300.41 90.1022Z" fill="#4FB5CC"/>
<g clip-path="url(#clip0)">
<path d="M315.191 203.131H88.4766V204.788H315.191V203.131Z" fill="#85848B"/>
<path d="M179.231 150.495C180.663 150.679 182.149 150.796 183.521 150.351C183.737 150.284 183.974 150.135 183.953 149.919C183.937 149.84 183.904 149.766 183.856 149.703C183.339 148.927 182.904 148.1 182.56 147.234C182.546 147.189 182.518 147.149 182.48 147.122C182.435 147.105 182.386 147.105 182.341 147.122C181.708 147.288 181.162 147.696 180.533 147.871C180.213 147.959 179.878 147.984 179.548 147.944C179.263 147.912 178.874 147.677 178.615 147.707C178.762 148.651 179.121 149.532 179.231 150.495Z" fill="#36ABC5"/>
<path d="M206.317 148.104C207.261 147.456 208.239 146.775 208.796 145.775C208.836 145.716 208.859 145.646 208.863 145.575C208.854 145.504 208.826 145.437 208.783 145.38C208.253 144.536 207.569 143.799 206.768 143.205C206.35 143.5 205.973 143.849 205.645 144.242C205.407 144.492 204.751 144.89 204.744 145.272C204.744 145.488 204.995 145.739 205.111 145.92C205.269 146.153 205.418 146.391 205.561 146.633C205.643 146.752 206.392 148.056 206.317 148.104Z" fill="#36ABC5"/>
<path d="M184.845 153.387C184.862 153.609 184.8 153.831 184.672 154.013C184.571 154.115 184.446 154.189 184.309 154.229C182.307 154.946 179.989 154.052 177.991 154.758C177.58 154.903 177.192 155.113 176.779 155.251C176.287 155.399 175.78 155.489 175.267 155.519C174.561 155.586 173.85 155.629 173.141 155.648C172.603 155.686 172.062 155.639 171.539 155.508C171.277 155.441 171.032 155.32 170.82 155.152C170.609 154.984 170.435 154.773 170.31 154.534C170.201 154.319 170.179 154.071 170.249 153.84C170.281 153.762 170.325 153.688 170.381 153.625C170.516 153.473 170.675 153.344 170.852 153.242L171.588 152.767C171.934 152.523 172.309 152.324 172.705 152.175C172.997 152.08 173.306 152.039 173.602 151.959C174.636 151.657 175.427 150.836 176.161 150.048L177.164 148.978C177.257 148.861 177.376 148.766 177.511 148.7C177.65 148.654 177.798 148.639 177.943 148.659C178.917 148.728 179.857 149.043 180.676 149.575C180.885 149.732 181.111 149.865 181.35 149.972C181.937 150.201 182.691 150.028 183.233 149.739C183.49 149.601 183.434 149.523 183.542 149.277C183.65 149.03 183.914 148.873 184.143 149.097C184.212 149.175 184.261 149.268 184.285 149.369C184.501 150.082 184.419 150.849 184.419 151.596C184.413 151.713 184.427 151.83 184.462 151.942C184.517 152.055 184.583 152.162 184.659 152.262C184.674 152.288 184.688 152.315 184.7 152.344C184.832 152.675 184.882 153.033 184.845 153.387V153.387Z" fill="#514E7F"/>
<path d="M184.845 153.388C184.862 153.61 184.8 153.832 184.672 154.014C184.571 154.115 184.446 154.19 184.309 154.23C182.307 154.947 179.989 154.053 177.991 154.759C177.58 154.904 177.192 155.113 176.779 155.252C176.287 155.4 175.78 155.489 175.267 155.519C174.561 155.586 173.85 155.63 173.142 155.649C172.603 155.687 172.062 155.64 171.539 155.509C171.277 155.442 171.032 155.32 170.82 155.152C170.609 154.985 170.435 154.774 170.31 154.535C170.201 154.32 170.179 154.071 170.249 153.841C170.281 153.762 170.325 153.689 170.381 153.625C170.498 153.869 170.582 154.193 170.655 154.31C170.754 154.483 170.889 154.632 171.051 154.749C171.213 154.866 171.397 154.946 171.593 154.986C171.885 155.004 172.178 154.967 172.457 154.876C174.271 154.427 176.2 154.42 177.943 153.74C178.542 153.504 179.112 153.191 179.74 153.049C180.369 152.906 181.036 152.945 181.685 152.891C182.708 152.809 183.7 152.5 184.709 152.338C184.839 152.671 184.886 153.032 184.845 153.388V153.388Z" fill="#464353"/>
<path d="M210.903 147.972C210.808 148.732 210.326 149.387 209.797 149.942C209.267 150.497 208.669 150.996 208.248 151.635C207.729 152.428 207.496 153.411 206.822 154.08C206.564 154.324 206.273 154.531 205.958 154.696C205.606 154.904 205.233 155.075 204.846 155.208C203.839 155.53 202.755 155.456 201.703 155.378C201.361 155.375 201.023 155.31 200.705 155.186C200.56 155.113 200.421 155.027 200.29 154.931C200.027 154.769 199.805 154.547 199.642 154.283C199.562 154.14 199.54 153.972 199.58 153.813C199.64 153.637 199.743 153.48 199.88 153.355C200.117 153.108 200.371 152.88 200.64 152.67C201.01 152.431 201.343 152.14 201.629 151.806C201.805 151.542 201.934 151.25 202.012 150.942C202.165 150.403 202.258 149.849 202.29 149.29C202.289 148.918 202.328 148.547 202.405 148.184C202.565 147.614 202.988 147.104 202.941 146.514C202.921 146.43 202.929 146.341 202.962 146.261C203.013 146.199 203.083 146.156 203.161 146.138C203.491 146.007 203.839 145.926 204.193 145.899C204.371 145.886 204.549 145.914 204.715 145.979C204.881 146.044 205.03 146.145 205.153 146.274C205.299 146.451 205.397 146.706 205.613 146.775C205.72 146.805 205.832 146.809 205.941 146.788C206.472 146.734 207.034 146.668 207.453 146.324C207.647 146.15 207.802 145.938 207.91 145.702C208.018 145.465 208.076 145.208 208.079 144.948C208.079 144.752 207.991 144.546 208.295 144.516C208.524 144.486 208.706 144.732 208.822 144.883C209.244 145.447 209.676 146.037 209.833 146.724C209.895 146.7 209.96 146.687 210.026 146.687C210.16 146.686 210.293 146.717 210.413 146.778C210.533 146.84 210.637 146.929 210.715 147.039C210.887 147.318 210.953 147.649 210.903 147.972Z" fill="#514E7F"/>
<path d="M210.901 147.972C210.806 148.732 210.324 149.387 209.795 149.942C209.266 150.497 208.667 150.996 208.246 151.635C207.728 152.428 207.495 153.411 206.821 154.08C206.562 154.324 206.271 154.531 205.957 154.696C205.604 154.904 205.231 155.075 204.844 155.208C203.838 155.529 202.753 155.456 201.701 155.378C201.36 155.375 201.022 155.31 200.703 155.186C200.558 155.112 200.42 155.027 200.289 154.931C200.025 154.769 199.803 154.547 199.641 154.283C199.843 154.186 200.064 154.133 200.289 154.128C200.755 154.154 201.096 154.594 201.544 154.73C202.181 154.923 202.816 154.473 203.462 154.32C203.883 154.221 204.326 154.246 204.743 154.104C205.09 153.97 205.411 153.775 205.691 153.529C206.074 153.255 206.416 152.926 206.704 152.553C206.943 152.18 207.142 151.782 207.298 151.367C207.639 150.572 208.041 149.803 208.499 149.069C208.567 148.953 208.649 148.845 208.743 148.749C208.845 148.657 208.959 148.592 209.074 148.51C209.506 148.184 209.685 147.646 209.836 147.119C209.877 146.959 209.934 146.803 210.007 146.654C210.141 146.653 210.274 146.685 210.394 146.746C210.514 146.807 210.618 146.897 210.696 147.006C210.882 147.292 210.955 147.636 210.901 147.972V147.972Z" fill="#464353"/>
<path opacity="0.1" d="M171.573 75.9473C171.417 75.9499 171.265 75.9873 171.126 76.0568C170.987 76.1264 170.866 76.2262 170.771 76.349C170.54 76.6492 170.495 77.0467 170.436 77.429C170.24 78.6402 169.807 79.8011 169.164 80.846" fill="black"/>
<path d="M224.008 119.036V116.353C224.008 114.379 223.223 112.485 221.826 111.089C220.429 109.693 218.535 108.908 216.56 108.908H110.612C108.637 108.908 106.743 109.693 105.346 111.089C103.95 112.485 103.165 114.379 103.164 116.353V121.3L224.008 119.036Z" fill="#566369"/>
<path d="M140.087 105.762C140.087 105.762 139.785 124.524 143.111 130.697C146.438 136.87 147.863 163.724 147.863 163.724C147.863 163.724 182.735 167.331 207.036 159.404C231.337 151.477 283.044 148.235 283.044 148.235L274.33 89.509C274.33 89.509 231.283 86.7486 206.794 98.4274C182.305 110.106 140.087 105.762 140.087 105.762Z" fill="#36ABC5"/>
<path opacity="0.1" d="M140.087 105.762C140.087 105.762 139.785 124.524 143.111 130.697C146.438 136.87 147.863 163.724 147.863 163.724C147.863 163.724 182.735 167.331 207.036 159.404C231.337 151.477 283.044 148.235 283.044 148.235L274.33 89.509C274.33 89.509 231.283 86.7486 206.794 98.4274C182.305 110.106 140.087 105.762 140.087 105.762Z" fill="black"/>
<path d="M147.804 112.616C147.804 112.616 146.714 128.096 149.45 133.042C152.187 137.988 152.315 160.069 152.315 160.069C152.315 160.069 183.698 161.525 206.022 153.927C228.346 146.328 275.258 141.399 275.258 141.399L269.927 93.373C269.927 93.373 231.111 92.9734 208.457 103.669C185.802 114.365 147.804 112.616 147.804 112.616Z" fill="#36ABC5"/>
<path opacity="0.1" d="M208.112 145.134C212.577 144.577 215.23 136.363 214.037 126.787C212.845 117.21 208.258 109.898 203.792 110.454C199.327 111.01 196.674 119.224 197.867 128.801C199.06 138.377 203.647 145.69 208.112 145.134Z" fill="black"/>
<path opacity="0.2" d="M250.729 60.9023C250.729 60.9023 208.908 71.486 189.187 90.1153C169.465 108.745 127.949 117.566 127.949 117.566C127.949 117.566 133.418 135.513 138.477 140.368C143.536 145.224 153.131 170.348 153.131 170.348C153.131 170.348 187.426 163.078 208.12 148.07C228.813 133.063 277.04 114.11 277.04 114.11L250.729 60.9023Z" fill="black"/>
<path d="M127.32 114.878C127.32 114.878 132.787 132.827 137.842 137.683C142.896 142.538 152.496 167.66 152.496 167.66C152.496 167.66 186.795 160.392 207.491 145.385C228.186 130.378 276.409 111.431 276.409 111.431L250.098 58.2168C250.098 58.2168 208.279 68.8004 188.558 87.4298C168.837 106.059 127.32 114.878 127.32 114.878Z" fill="#36ABC5"/>
<path opacity="0.1" d="M127.32 114.878C127.32 114.878 132.787 132.827 137.842 137.683C142.896 142.538 152.496 167.66 152.496 167.66C152.496 167.66 186.795 160.392 207.491 145.385C228.186 130.378 276.409 111.431 276.409 111.431L250.098 58.2168C250.098 58.2168 208.279 68.8004 188.558 87.4298C168.837 106.059 127.32 114.878 127.32 114.878Z" fill="black"/>
<path d="M136.762 119.033C136.762 119.033 140.475 134.103 144.598 137.969C148.722 141.835 155.615 162.808 155.615 162.808C155.615 162.808 185.929 154.562 204.844 140.479C223.76 126.396 266.901 107.331 266.901 107.331L247.091 63.2422C247.091 63.2422 210.026 74.7697 191.746 91.9022C173.465 109.035 136.762 119.033 136.762 119.033Z" fill="#36ABC5"/>
<path opacity="0.1" d="M204.146 131.476C208.225 129.577 208.229 120.945 204.155 112.196C200.081 103.448 193.471 97.8956 189.392 99.7951C185.313 101.695 185.309 110.326 189.383 119.075C193.457 127.823 200.067 133.376 204.146 131.476Z" fill="black"/>
<path opacity="0.1" d="M226.869 121.668V196.186C226.869 197.032 226.703 197.87 226.379 198.652C226.055 199.434 225.58 200.144 224.981 200.743C224.383 201.341 223.672 201.815 222.89 202.139C222.108 202.463 221.27 202.629 220.424 202.629H109.613C107.905 202.628 106.266 201.949 105.058 200.741C103.85 199.533 103.172 197.894 103.172 196.186V114.156C106.347 115.336 106.347 115.336 109.613 115.236H220.424C222.131 115.236 223.769 115.913 224.977 117.119C226.185 118.325 226.866 119.961 226.869 121.668V121.668Z" fill="black"/>
<path d="M226.869 122.618V197.135C226.869 198.844 226.19 200.483 224.981 201.691C223.772 202.9 222.133 203.578 220.424 203.578H109.613C107.905 203.578 106.266 202.899 105.058 201.69C103.85 200.482 103.172 198.844 103.172 197.135V115.104C106.347 116.281 106.347 116.281 109.613 116.183H220.424C222.131 116.183 223.769 116.861 224.978 118.067C226.186 119.274 226.867 120.91 226.869 122.618V122.618Z" fill="#504F60"/>
<path opacity="0.1" d="M226.553 150.168V173.998H203.44C200.308 173.956 197.318 172.682 195.117 170.452C192.917 168.222 191.684 165.216 191.684 162.083C191.684 158.951 192.917 155.944 195.117 153.714C197.318 151.484 200.308 150.21 203.44 150.168H226.553Z" fill="black"/>
<path d="M226.869 149.531V173.366H203.757C200.624 173.324 197.634 172.05 195.434 169.82C193.234 167.59 192 164.583 192 161.451C192 158.318 193.234 155.312 195.434 153.082C197.634 150.852 200.624 149.578 203.757 149.536L226.869 149.531Z" fill="#566369"/>
<path opacity="0.1" d="M204.865 166.73C207.431 166.73 209.511 164.649 209.511 162.084C209.511 159.518 207.431 157.438 204.865 157.438C202.299 157.438 200.219 159.518 200.219 162.084C200.219 164.649 202.299 166.73 204.865 166.73Z" fill="black"/>
<path d="M205.179 166.099C207.746 166.099 209.826 164.019 209.826 161.453C209.826 158.887 207.746 156.807 205.179 156.807C202.613 156.807 200.533 158.887 200.533 161.453C200.533 164.019 202.613 166.099 205.179 166.099Z" fill="#36ABC5"/>
</g>
<defs>
<clipPath id="clip0">
<rect width="226.715" height="146.57" fill="white" transform="translate(88.4766 58.2168)"/>
</clipPath>
</defs>
</svg>
