<svg width="200" height="128" viewBox="0 0 200 128" fill="none" xmlns="http://www.w3.org/2000/svg">
<path opacity="0.1" d="M166.279 48.1212C165.674 25.3192 144.283 7 117.977 7C105.11 7 93.4292 11.3846 84.7631 18.5385C66.749 20 51.6039 30.0769 44.8148 44.0077C24.1923 48.7981 9 65.1942 9 84.6923C9 107.962 30.6292 126.808 57.3118 126.808C65.1494 126.8 72.8413 125.164 79.5882 122.071C85.9144 124.832 93.029 126.324 100.287 126.412C107.545 126.5 114.716 125.182 121.151 122.577C127.719 125.465 135.138 126.989 142.688 127C169.371 127 191 108.154 191 84.8846C191 69.0885 181.03 55.3308 166.279 48.1212Z" fill="#006BE4"/>
<path d="M139.162 115L66.2817 109.004L74.3137 9.30151L147.193 15.2979L139.162 115Z" fill="url(#paint0_linear)"/>
<path d="M138.289 113.577L67.3721 107.74L75.1882 10.7249L146.105 16.56L138.289 113.577Z" fill="#3389E9"/>
<path d="M142.48 98.2354L70.6717 112.176L52 13.9404L123.808 0L142.48 98.2354Z" fill="url(#paint1_linear)"/>
<path d="M141.26 97.1002L71.3873 110.666L53.2188 15.0753L123.092 1.51123L141.26 97.1002Z" fill="#E0E0E0"/>
<path d="M133.801 7.41992H60.6797V107.452H133.801V7.41992Z" fill="url(#paint2_linear)"/>
<path d="M132.816 8.76709H61.6646V106.103H132.816V8.76709Z" fill="white"/>
<path d="M100.908 18.2598C100.908 18.2598 104.034 18.5361 101.81 23.2317L100.908 18.2598Z" fill="white"/>
<path d="M77.9949 85.7273H68.3301V95.4948H77.9949V85.7273Z" fill="url(#paint3_linear)"/>
<path d="M77.1598 28H69.1621V36.0829H77.1598V28Z" fill="#3389E9"/>
<path d="M108.987 45.3101H85.6592V46.9947H108.987V45.3101Z" fill="#DEDEDE"/>
<path d="M124.984 47.6682H85.6592V49.3529H124.984V47.6682Z" fill="#E0E0E0"/>
<path d="M124.984 50.0251H85.6592V51.7098H124.984V50.0251Z" fill="#E0E0E0"/>
<path d="M109.328 27H86V28.6847H109.328V27Z" fill="#DEDEDE"/>
<path d="M125.325 29.3582H86V31.0428H125.325V29.3582Z" fill="#E0E0E0"/>
<path d="M125.325 31.7151H86V33.3998H125.325V31.7151Z" fill="#E0E0E0"/>
<path d="M108.987 66.3608H85.6592V68.0455H108.987V66.3608Z" fill="#DEDEDE"/>
<path d="M124.984 68.7178H85.6592V70.4024H124.984V68.7178Z" fill="#E0E0E0"/>
<path d="M124.984 71.0762H85.6592V72.7608H124.984V71.0762Z" fill="#E0E0E0"/>
<path d="M108.987 87.4106H85.6592V89.0953H108.987V87.4106Z" fill="#3389E9"/>
<path d="M124.984 89.769H85.6592V91.4537H124.984V89.769Z" fill="#E0E0E0"/>
<path d="M124.984 92.127H85.6592V93.8116H124.984V92.127Z" fill="#E0E0E0"/>
<defs>
<linearGradient id="paint0_linear" x1="102.702" y1="112.012" x2="110.842" y2="12.2762" gradientUnits="userSpaceOnUse">
<stop stop-color="#808080" stop-opacity="0.25"/>
<stop offset="0.54" stop-color="#808080" stop-opacity="0.12"/>
<stop offset="1" stop-color="#808080" stop-opacity="0.1"/>
</linearGradient>
<linearGradient id="paint1_linear" x1="77775.7" y1="76079.7" x2="63552.5" y2="2259.47" gradientUnits="userSpaceOnUse">
<stop stop-color="#808080" stop-opacity="0.25"/>
<stop offset="0.54" stop-color="#808080" stop-opacity="0.12"/>
<stop offset="1" stop-color="#808080" stop-opacity="0.1"/>
</linearGradient>
<linearGradient id="paint2_linear" x1="37932.2" y1="71976.5" x2="37932.2" y2="4977.01" gradientUnits="userSpaceOnUse">
<stop stop-color="#808080" stop-opacity="0.25"/>
<stop offset="0.54" stop-color="#808080" stop-opacity="0.12"/>
<stop offset="1" stop-color="#808080" stop-opacity="0.1"/>
</linearGradient>
<linearGradient id="paint3_linear" x1="3510.65" y1="6331.1" x2="3510.65" y2="5692.3" gradientUnits="userSpaceOnUse">
<stop stop-color="#808080" stop-opacity="0.25"/>
<stop offset="0.54" stop-color="#808080" stop-opacity="0.12"/>
<stop offset="1" stop-color="#808080" stop-opacity="0.1"/>
</linearGradient>
</defs>
</svg>
