<svg width="180" height="180" viewBox="0 0 180 180" fill="none" xmlns="http://www.w3.org/2000/svg">
<path d="M80.4427 0.371429C70.0568 1.47598 59.3491 4.69762 49.2848 9.76016C31.7297 18.6426 18.4485 32.0354 9.62506 49.8004C5.62691 57.9004 3.8806 62.7329 2.13428 70.7409C-8.34361 118.053 20.7463 165.273 67.713 177.285C75.9391 179.356 81.1321 180 90.0475 180C99.0088 180 104.248 179.356 112.336 177.285C127.455 173.419 140.737 166.009 151.95 155.24C160.498 147.001 166.104 139.408 170.929 129.42C183.016 104.522 183.016 75.4813 170.975 50.7668C168.448 45.6122 163.714 37.7423 163.393 38.1105C163.301 38.2025 159.808 43.5412 155.626 49.9384L147.998 61.5363L149.33 64.4357C151.031 68.2557 152.823 74.1926 153.696 79.2552C154.707 84.87 154.707 94.9951 153.696 100.886C149.284 126.797 129.294 147.6 103.375 153.353C98.1816 154.503 84.9464 154.779 79.7075 153.859C65.7369 151.466 54.5238 145.621 44.5054 135.634C31.7757 122.931 25.5257 107.836 25.5717 89.8405C25.5717 81.8785 26.4448 76.2637 28.7426 69.4062C33.8897 53.9885 45.93 40.0895 60.7278 32.4036C67.5292 28.9058 78.8803 25.6382 84.4869 25.6382H86.1413L94.0916 13.396C98.5033 6.67661 101.95 1.06178 101.812 0.923706C100.893 0.00325012 87.3821 -0.318924 80.4427 0.371429Z" fill="white"/>
<path d="M93.75 127.5C93.75 127.5 105.732 126.426 112.411 123.027C121.401 118.451 126.544 112.817 130.589 104.675C132.421 100.962 133.221 98.7474 134.022 95.0771C138.824 73.3925 125.491 51.7501 103.965 46.2445C100.195 45.2953 97.8145 45 93.7282 45C89.621 45 87.2198 45.2953 83.5127 46.2445C76.5829 48.0164 70.4957 51.4126 65.3564 56.3486C61.4386 60.1244 58.8689 63.6049 56.6573 68.1823C51.1177 79.5941 52.5 86.25 52.5 86.25L78.75 86.25C78.75 86.25 82.9576 73.2554 90 71.25C95.8073 69.5963 100.55 70.9182 105 75C110.503 80.0479 111.531 86.8196 108.75 93.75C106.052 100.476 93.75 102.732 93.75 102.732L93.75 127.5Z" fill="white"/>
</svg>
