<svg width="180" height="180" viewBox="0 0 180 180" fill="none" xmlns="http://www.w3.org/2000/svg">
<path d="M80.4427 0.371429C70.0568 1.47598 59.3491 4.69762 49.2848 9.76016C31.7297 18.6426 18.4485 32.0354 9.62506 49.8004C5.62691 57.9004 3.8806 62.7329 2.13428 70.7409C-8.34361 118.053 20.7463 165.273 67.713 177.285C75.9391 179.356 81.1321 180 90.0475 180C99.0088 180 104.248 179.356 112.336 177.285C127.455 173.419 140.737 166.009 151.95 155.24C160.498 147.001 166.104 139.408 170.929 129.42C183.016 104.522 183.016 75.4813 170.975 50.7668C168.448 45.6122 163.714 37.7423 163.393 38.1105C163.301 38.2025 159.808 43.5412 155.626 49.9384L147.998 61.5363L149.33 64.4357C151.031 68.2557 152.823 74.1926 153.696 79.2552C154.707 84.87 154.707 94.9951 153.696 100.886C149.284 126.797 129.294 147.6 103.375 153.353C98.1816 154.503 84.9464 154.779 79.7075 153.859C65.7369 151.466 54.5238 145.621 44.5054 135.634C31.7757 122.931 25.5257 107.836 25.5717 89.8405C25.5717 81.8785 26.4448 76.2637 28.7426 69.4062C33.8897 53.9885 45.93 40.0895 60.7278 32.4036C67.5292 28.9058 78.8803 25.6382 84.4869 25.6382H86.1413L94.0916 13.396C98.5033 6.67661 101.95 1.06178 101.812 0.923706C100.893 0.00325012 87.3821 -0.318924 80.4427 0.371429Z" fill="#1B4A8A"/>
<path d="M90.75 127.5C90.75 127.5 102.732 126.426 109.411 123.027C118.401 118.451 123.544 112.817 127.589 104.675C129.421 100.962 130.221 98.7474 131.022 95.0771C135.824 73.3925 122.491 51.7501 100.965 46.2445C97.1946 45.2953 94.8145 45 90.7282 45C86.621 45 84.2198 45.2953 80.5127 46.2445C73.5829 48.0164 67.4957 51.4126 62.3564 56.3486C58.4386 60.1244 55.8689 63.6049 53.6573 68.1823C48.1177 79.5941 49.5 86.25 49.5 86.25L75.75 86.25C75.75 86.25 79.9576 73.2554 87 71.25C92.8073 69.5963 97.5505 70.9182 102 75C107.503 80.0479 108.531 86.8196 105.75 93.75C103.052 100.476 90.75 102.732 90.75 102.732L90.75 127.5Z" fill="#F7CC47"/>
</svg>
