<svg width="313" height="250" viewBox="0 0 313 250" fill="none" xmlns="http://www.w3.org/2000/svg">
<g clip-path="url(#clip0)">
<path d="M156.5 250C242.933 250 313 244.701 313 238.165C313 231.629 242.933 226.331 156.5 226.331C70.0674 226.331 0 231.629 0 238.165C0 244.701 70.0674 250 156.5 250Z" fill="#B7B6CC"/>
<path opacity="0.1" d="M112.757 245.751C171.187 245.751 218.554 242.219 218.554 237.862C218.554 233.504 171.187 229.972 112.757 229.972C54.3276 229.972 6.96094 233.504 6.96094 237.862C6.96094 242.219 54.3276 245.751 112.757 245.751Z" fill="black"/>
<path d="M283.08 222.101C282.072 230.959 287.504 238.855 287.504 238.855C287.504 238.855 294.571 232.389 295.579 223.531C296.588 214.673 291.155 206.777 291.155 206.777C291.155 206.777 284.088 213.243 283.08 222.101Z" fill="#6A697E"/>
<path d="M286.932 221.644C290.567 229.781 287.772 238.954 287.772 238.954C287.772 238.954 279.085 234.935 275.45 226.798C271.816 218.661 274.61 209.488 274.61 209.488C274.61 209.488 283.297 213.507 286.932 221.644Z" fill="#3F93CD"/>
<path d="M189.362 237.698C208.095 237.698 223.282 222.474 223.282 203.694C223.282 184.915 208.095 169.69 189.362 169.69C170.628 169.69 155.441 184.915 155.441 203.694C155.441 222.474 170.628 237.698 189.362 237.698Z" fill="#F2F2F2"/>
<path d="M189.361 151.271L181.005 172.213L150.789 172.456L140.945 172.535L117.586 172.724L107.746 172.803L84.3865 172.992L74.5471 173.071L51.1874 173.264L41.3481 173.344L25.58 173.469L22.53 167.212L18.5733 159.107L16.3882 154.622L15.1348 151.271L22.6344 127.46C23.3676 125.133 24.8213 123.101 26.7844 121.659C28.7475 120.217 31.1179 119.439 33.5518 119.439H170C172.363 119.44 174.668 120.174 176.598 121.541C178.529 122.907 179.991 124.838 180.783 127.07L181.652 129.525L189.361 151.271Z" fill="#D3EAFA"/>
<path d="M189.361 151.271H15.1348V195.25H189.361V151.271Z" fill="#ADD0E8"/>
<path opacity="0.1" d="M189.361 151.271H15.1348V195.25H189.361V151.271Z" fill="black"/>
<path d="M205.807 201.118H200.668V206.27H205.807V201.118Z" fill="#3F93CD"/>
<path d="M157.817 94.5181H46.2617V235.249H157.817V94.5181Z" fill="#F2F2F2"/>
<path d="M102.249 104.57H69.6602V109.178H102.249V104.57Z" fill="#3F93CD"/>
<path d="M150.714 123.418H52.5293V125.512H150.714V123.418Z" fill="#E6E6E6"/>
<path d="M150.714 130.12H52.5293V132.214H150.714V130.12Z" fill="#E6E6E6"/>
<path d="M150.714 136.821H52.5293V138.915H150.714V136.821Z" fill="#E6E6E6"/>
<path d="M150.714 143.522H52.5293V145.617H150.714V143.522Z" fill="#E6E6E6"/>
<path d="M150.714 150.224H52.5293V152.318H150.714V150.224Z" fill="#E6E6E6"/>
<path d="M150.714 156.925H52.5293V159.019H150.714V156.925Z" fill="#E6E6E6"/>
<path d="M56.7063 112.947C55.3015 112.947 53.9282 112.53 52.7602 111.747C51.5921 110.965 50.6818 109.853 50.1442 108.552C49.6066 107.251 49.4659 105.819 49.74 104.438C50.0141 103.057 50.6905 101.788 51.6839 100.792C52.6772 99.7962 53.9428 99.1181 55.3206 98.8434C56.6984 98.5686 58.1265 98.7096 59.4244 99.2485C60.7222 99.7875 61.8315 100.7 62.612 101.871C63.3924 103.042 63.809 104.419 63.809 105.827C63.8069 107.715 63.0579 109.524 61.7263 110.859C60.3948 112.194 58.5894 112.945 56.7063 112.947ZM56.7063 99.5442C55.4667 99.5442 54.2551 99.9127 53.2244 100.603C52.1938 101.293 51.3905 102.275 50.9162 103.423C50.4418 104.571 50.3177 105.834 50.5596 107.052C50.8014 108.271 51.3983 109.391 52.2747 110.269C53.1512 111.148 54.2679 111.746 55.4836 111.989C56.6993 112.231 57.9594 112.107 59.1046 111.631C60.2498 111.156 61.2285 110.35 61.9172 109.317C62.6058 108.284 62.9734 107.069 62.9734 105.827C62.9715 104.161 62.3106 102.564 61.1357 101.386C59.9608 100.209 58.3678 99.5461 56.7063 99.5442Z" fill="#3F93CD"/>
<path d="M189.361 238.809H15.1348V151.271L37.6965 168.862L167.635 168.024L189.361 151.271V238.809Z" fill="#E4E6ED"/>
<path d="M56.7082 218.495H24.1191V223.102H56.7082V218.495Z" fill="#F2F2F2"/>
<path d="M41.2204 209.843C40.5019 209.843 39.7996 209.63 39.2023 209.23C38.6049 208.83 38.1393 208.261 37.8644 207.596C37.5895 206.93 37.5175 206.198 37.6577 205.492C37.7979 204.785 38.1438 204.136 38.6518 203.627C39.1598 203.118 39.8071 202.771 40.5117 202.631C41.2164 202.49 41.9467 202.562 42.6105 202.838C43.2742 203.113 43.8416 203.58 44.2407 204.179C44.6398 204.778 44.8529 205.482 44.8529 206.202C44.8518 207.167 44.4687 208.093 43.7877 208.776C43.1067 209.458 42.1834 209.842 41.2204 209.843ZM41.2204 203.167C40.6217 203.167 40.0364 203.345 39.5386 203.679C39.0408 204.012 38.6528 204.486 38.4237 205.041C38.1946 205.595 38.1347 206.205 38.2515 206.794C38.3683 207.383 38.6566 207.923 39.0799 208.348C39.5033 208.772 40.0426 209.061 40.6298 209.178C41.217 209.295 41.8257 209.235 42.3788 209.006C42.9319 208.776 43.4047 208.387 43.7373 207.888C44.0699 207.389 44.2475 206.802 44.2475 206.202C44.2466 205.397 43.9274 204.626 43.3599 204.057C42.7924 203.488 42.0229 203.168 41.2204 203.167Z" fill="white"/>
<g clip-path="url(#clip1)">
<path d="M188.311 51.7427H168.262V71.8329H188.311V51.7427Z" fill="#F2F2F2"/>
<path d="M184.774 55.4346H172.016V68.2193H184.774V55.4346Z" fill="#3F93CD"/>
<path d="M198.451 11.9048H158.125V39.9855H198.451V11.9048Z" fill="#3F93CD"/>
<path d="M178.288 17.3838C176.598 17.3838 174.946 17.8859 173.541 18.8266C172.136 19.7673 171.041 21.1044 170.394 22.6688C169.748 24.2331 169.579 25.9545 169.908 27.6152C170.238 29.2759 171.052 30.8014 172.247 31.9987C173.441 33.196 174.964 34.0113 176.621 34.3417C178.278 34.672 179.996 34.5025 181.557 33.8545C183.118 33.2065 184.453 32.1092 185.391 30.7013C186.33 29.2934 186.831 27.6382 186.831 25.945C186.825 23.6764 185.922 21.5027 184.322 19.8986C182.721 18.2945 180.552 17.3904 178.288 17.3838ZM178.288 19.9521C178.795 19.9521 179.29 20.1028 179.712 20.385C180.133 20.6672 180.462 21.0683 180.656 21.5376C180.85 22.0069 180.9 22.5234 180.802 23.0216C180.703 23.5198 180.459 23.9774 180.1 24.3366C179.742 24.6958 179.285 24.9404 178.788 25.0395C178.291 25.1386 177.775 25.0877 177.307 24.8934C176.839 24.699 176.438 24.3698 176.157 23.9474C175.875 23.525 175.725 23.0285 175.725 22.5205C175.727 21.84 175.998 21.1881 176.478 20.7069C176.958 20.2257 177.609 19.9544 178.288 19.9521ZM178.288 32.3165C177.275 32.3118 176.279 32.0598 175.386 31.5821C174.493 31.1044 173.729 30.4155 173.162 29.5753C173.203 27.863 176.579 26.9205 178.288 26.9205C179.996 26.9205 183.373 27.863 183.414 29.5753C182.846 30.4149 182.082 31.1033 181.189 31.5809C180.296 32.0585 179.3 32.311 178.288 32.3165V32.3165Z" fill="white"/>
<path d="M228.404 51.7427H208.355V71.8329H228.404V51.7427Z" fill="#F2F2F2"/>
<path d="M224.868 55.4346H212.109V68.2193H224.868V55.4346Z" fill="#3F93CD"/>
<path d="M238.545 11.9048H198.219V39.9855H238.545V11.9048Z" fill="#3F93CD"/>
<path d="M218.382 17.3838C216.692 17.3838 215.04 17.8859 213.635 18.8266C212.23 19.7673 211.135 21.1044 210.488 22.6688C209.842 24.2331 209.672 25.9545 210.002 27.6152C210.332 29.2759 211.145 30.8014 212.34 31.9987C213.535 33.196 215.057 34.0113 216.715 34.3417C218.372 34.672 220.09 34.5025 221.651 33.8545C223.212 33.2065 224.546 32.1092 225.485 30.7013C226.424 29.2934 226.925 27.6382 226.925 25.945C226.918 23.6764 226.016 21.5027 224.415 19.8986C222.815 18.2945 220.645 17.3904 218.382 17.3838ZM218.382 19.9521C218.888 19.9521 219.384 20.1028 219.805 20.385C220.227 20.6672 220.555 21.0683 220.749 21.5376C220.943 22.0069 220.994 22.5234 220.895 23.0216C220.796 23.5198 220.552 23.9774 220.194 24.3366C219.835 24.6958 219.379 24.9404 218.882 25.0395C218.384 25.1386 217.869 25.0877 217.401 24.8934C216.932 24.699 216.532 24.3698 216.25 23.9474C215.969 23.525 215.818 23.0285 215.818 22.5205C215.821 21.84 216.091 21.1881 216.572 20.7069C217.052 20.2257 217.702 19.9544 218.382 19.9521ZM218.382 32.3165C217.369 32.3118 216.373 32.0598 215.48 31.5821C214.586 31.1044 213.823 30.4155 213.255 29.5753C213.296 27.863 216.673 26.9205 218.382 26.9205C220.09 26.9205 223.467 27.863 223.508 29.5753C222.94 30.4149 222.176 31.1033 221.283 31.5809C220.39 32.0585 219.394 32.311 218.382 32.3165V32.3165Z" fill="white"/>
<path d="M278.664 11.9048H238.338V39.9855H278.664V11.9048Z" fill="#F2F2F2"/>
<path d="M258.501 17.3838C256.811 17.3838 255.159 17.8859 253.754 18.8266C252.349 19.7673 251.254 21.1044 250.607 22.6688C249.961 24.2331 249.792 25.9545 250.121 27.6152C250.451 29.2759 251.265 30.8014 252.459 31.9987C253.654 33.196 255.177 34.0113 256.834 34.3417C258.491 34.672 260.209 34.5025 261.77 33.8545C263.331 33.2065 264.666 32.1092 265.604 30.7013C266.543 29.2934 267.044 27.6382 267.044 25.945C267.038 23.6765 266.135 21.5027 264.535 19.8986C262.934 18.2945 260.764 17.3904 258.501 17.3838ZM258.501 19.9521C259.008 19.9521 259.503 20.1028 259.925 20.385C260.346 20.6672 260.675 21.0683 260.869 21.5376C261.063 22.0069 261.113 22.5234 261.014 23.0216C260.916 23.5198 260.671 23.9774 260.313 24.3366C259.955 24.6958 259.498 24.9404 259.001 25.0395C258.503 25.1386 257.988 25.0877 257.52 24.8934C257.051 24.699 256.651 24.3698 256.37 23.9474C256.088 23.525 255.938 23.0285 255.938 22.5205C255.94 21.84 256.211 21.1881 256.691 20.7069C257.171 20.2257 257.822 19.9544 258.501 19.9521ZM258.501 32.3165C257.488 32.3118 256.492 32.0598 255.599 31.5821C254.705 31.1044 253.942 30.4155 253.374 29.5753C253.416 27.863 256.792 26.9205 258.501 26.9205C260.209 26.9205 263.586 27.863 263.627 29.5753C263.059 30.4149 262.295 31.1033 261.402 31.5809C260.509 32.0585 259.513 32.311 258.501 32.3165V32.3165Z" fill="white"/>
<path d="M268.527 51.7427H248.479V71.8329H268.527V51.7427Z" fill="#F2F2F2"/>
<path d="M264.989 55.4346H252.23V68.2193H264.989V55.4346Z" fill="white"/>
<path d="M177.633 64.5518L175.42 61.701L176.707 60.698L177.754 62.0478L181.293 58.3042L182.477 59.4276L177.633 64.5518Z" fill="white"/>
<path d="M217.691 64.5518L215.479 61.701L216.765 60.698L217.813 62.0478L221.352 58.3042L222.536 59.4276L217.691 64.5518Z" fill="white"/>
<path d="M257.746 64.5518L255.533 61.701L256.82 60.698L257.868 62.0478L261.407 58.3042L262.59 59.4276L257.746 64.5518Z" fill="#E6E6E6"/>
</g>
</g>
<defs>
<clipPath id="clip0">
<rect width="313" height="250" fill="white"/>
</clipPath>
<clipPath id="clip1">
<rect x="158.125" y="11.9048" width="185.201" height="124.459" fill="white"/>
</clipPath>
</defs>
</svg>
