<svg id="e9irwa2ieu2r1" xmlns="http://www.w3.org/2000/svg" xmlns:xlink="http://www.w3.org/1999/xlink" viewBox="0 0 303 318" shape-rendering="geometricPrecision" text-rendering="geometricPrecision"><style><![CDATA[#e9irwa2ieu2r29_tr {animation: e9irwa2ieu2r29_tr__tr 3000ms linear infinite normal forwards}@keyframes e9irwa2ieu2r29_tr__tr { 0% {transform: translate(151.499905px,121.499771px) rotate(0deg)} 33.333333% {transform: translate(151.499905px,121.499771px) rotate(200deg)} 100% {transform: translate(151.499905px,121.499771px) rotate(200deg)} }#e9irwa2ieu2r29 {animation: e9irwa2ieu2r29__tt 3000ms linear infinite normal forwards}@keyframes e9irwa2ieu2r29__tt { 0% {transform: translate(-151.499905px,-121.499771px)} 33.333333% {transform: translate(-151.499905px,-121.499771px)} 100% {transform: translate(-151.499905px,-121.499771px)} }]]></style><defs><clipPath id="e9irwa2ieu2r2"><rect id="e9irwa2ieu2r3" width="303" height="317.508000" rx="0" ry="0" fill="rgb(255,255,255)" stroke="none" stroke-width="1"/></clipPath><linearGradient id="e9irwa2ieu2r7-fill" x1="166.463000" y1="301.439000" x2="166.463000" y2="180.054000" spreadMethod="pad" gradientUnits="userSpaceOnUse"><stop id="e9irwa2ieu2r7-fill-0" offset="0%" stop-color="rgba(128,128,128,0.25)"/><stop id="e9irwa2ieu2r7-fill-1" offset="54%" stop-color="rgba(128,128,128,0.12)"/><stop id="e9irwa2ieu2r7-fill-2" offset="100%" stop-color="rgba(128,128,128,0.1)"/></linearGradient><linearGradient id="e9irwa2ieu2r9-fill" x1="35988.400000" y1="18504.700000" x2="35988.400000" y2="9147.130000" spreadMethod="pad" gradientUnits="userSpaceOnUse"><stop id="e9irwa2ieu2r9-fill-0" offset="0%" stop-color="rgba(128,128,128,0.25)"/><stop id="e9irwa2ieu2r9-fill-1" offset="54%" stop-color="rgba(128,128,128,0.12)"/><stop id="e9irwa2ieu2r9-fill-2" offset="100%" stop-color="rgba(128,128,128,0.1)"/></linearGradient><linearGradient id="e9irwa2ieu2r12-fill" x1="80018.100000" y1="159740" x2="80018.100000" y2="17608" spreadMethod="pad" gradientUnits="userSpaceOnUse"><stop id="e9irwa2ieu2r12-fill-0" offset="0%" stop-color="rgba(128,128,128,0.25)"/><stop id="e9irwa2ieu2r12-fill-1" offset="54%" stop-color="rgba(128,128,128,0.12)"/><stop id="e9irwa2ieu2r12-fill-2" offset="100%" stop-color="rgba(128,128,128,0.1)"/></linearGradient><linearGradient id="e9irwa2ieu2r17-fill" x1="41224.200000" y1="69906.200000" x2="41224.200000" y2="37646.300000" spreadMethod="pad" gradientUnits="userSpaceOnUse"><stop id="e9irwa2ieu2r17-fill-0" offset="0%" stop-color="rgba(128,128,128,0.25)"/><stop id="e9irwa2ieu2r17-fill-1" offset="54%" stop-color="rgba(128,128,128,0.12)"/><stop id="e9irwa2ieu2r17-fill-2" offset="100%" stop-color="rgba(128,128,128,0.1)"/></linearGradient><linearGradient id="e9irwa2ieu2r19-fill" x1="84984.400000" y1="24215.500000" x2="84984.400000" y2="22217.500000" spreadMethod="pad" gradientUnits="userSpaceOnUse"><stop id="e9irwa2ieu2r19-fill-0" offset="0%" stop-color="rgba(128,128,128,0.25)"/><stop id="e9irwa2ieu2r19-fill-1" offset="54%" stop-color="rgba(128,128,128,0.12)"/><stop id="e9irwa2ieu2r19-fill-2" offset="100%" stop-color="rgba(128,128,128,0.1)"/></linearGradient><linearGradient id="e9irwa2ieu2r21-fill" x1="27247.600000" y1="26082.500000" x2="27247.600000" y2="19692.200000" spreadMethod="pad" gradientUnits="userSpaceOnUse"><stop id="e9irwa2ieu2r21-fill-0" offset="0%" stop-color="rgba(128,128,128,0.25)"/><stop id="e9irwa2ieu2r21-fill-1" offset="54%" stop-color="rgba(128,128,128,0.12)"/><stop id="e9irwa2ieu2r21-fill-2" offset="100%" stop-color="rgba(128,128,128,0.1)"/></linearGradient><linearGradient id="e9irwa2ieu2r22-fill" x1="21973.400000" y1="27911.500000" x2="21973.400000" y2="22877.800000" spreadMethod="pad" gradientUnits="userSpaceOnUse"><stop id="e9irwa2ieu2r22-fill-0" offset="0%" stop-color="rgba(128,128,128,0.25)"/><stop id="e9irwa2ieu2r22-fill-1" offset="54%" stop-color="rgba(128,128,128,0.12)"/><stop id="e9irwa2ieu2r22-fill-2" offset="100%" stop-color="rgba(128,128,128,0.1)"/></linearGradient><linearGradient id="e9irwa2ieu2r24-fill" x1="26721.900000" y1="28840.700000" x2="26721.900000" y2="15260.800000" spreadMethod="pad" gradientUnits="userSpaceOnUse"><stop id="e9irwa2ieu2r24-fill-0" offset="0%" stop-color="rgba(128,128,128,0.25)"/><stop id="e9irwa2ieu2r24-fill-1" offset="54%" stop-color="rgba(128,128,128,0.12)"/><stop id="e9irwa2ieu2r24-fill-2" offset="100%" stop-color="rgba(128,128,128,0.1)"/></linearGradient><linearGradient id="e9irwa2ieu2r27-fill" x1="31584.700000" y1="23060.500000" x2="31584.700000" y2="15181" spreadMethod="pad" gradientUnits="userSpaceOnUse"><stop id="e9irwa2ieu2r27-fill-0" offset="0%" stop-color="rgba(128,128,128,0.25)"/><stop id="e9irwa2ieu2r27-fill-1" offset="54%" stop-color="rgba(128,128,128,0.12)"/><stop id="e9irwa2ieu2r27-fill-2" offset="100%" stop-color="rgba(128,128,128,0.1)"/></linearGradient></defs><g id="e9irwa2ieu2r4" clip-path="url(#e9irwa2ieu2r2)"><path id="e9irwa2ieu2r5" d="M151.501000,290.649000C220.338000,290.649000,276.142000,234.845000,276.142000,166.007000C276.142000,97.170000,220.338000,41.366200,151.501000,41.366200C82.663200,41.366200,26.859400,97.170000,26.859400,166.007000C26.859400,234.845000,82.663200,290.649000,151.501000,290.649000Z" fill="none" stroke="rgb(63,147,205)" stroke-width="2" stroke-miterlimit="10" stroke-dasharray="12,12"/><path id="e9irwa2ieu2r6" d="M151.502000,317.088000C234.942000,317.088000,302.583000,249.447000,302.583000,166.008000C302.583000,82.568700,234.942000,14.927700,151.502000,14.927700C68.062800,14.927700,0.421875,82.568700,0.421875,166.008000C0.421875,249.447000,68.062800,317.088000,151.502000,317.088000Z" fill="none" stroke="rgb(63,147,205)" stroke-width="2" stroke-miterlimit="10" stroke-dasharray="12,12"/><path id="e9irwa2ieu2r7" d="M252.612000,214.139000C252.614000,205.651000,249.449000,197.468000,243.736000,191.191000C238.022000,184.914000,230.172000,180.994000,221.722000,180.200000C213.271000,179.405000,204.828000,181.792000,198.045000,186.894000C191.261000,191.996000,186.626000,199.446000,185.046000,207.786000L80.300800,204.944000L81.450700,222.940000C81.450700,222.940000,66.514700,257.403000,145.014000,266.585000L145.014000,301.418000L235.762000,301.418000L235.762000,243.504000C240.887000,240.503000,245.138000,236.214000,248.094000,231.063000C251.050000,225.912000,252.607000,220.078000,252.612000,214.139000Z" fill="url(#e9irwa2ieu2r7-fill)" stroke="none" stroke-width="1"/><path id="e9irwa2ieu2r8" d="M85.049900,223.696000C85.049900,223.696000,70.747600,256.698000,145.923000,265.503000L145.923000,298.875000L232.832000,298.875000L232.832000,210.497000L83.933600,206.460000L85.049900,223.696000Z" fill="rgb(253,219,224)" stroke="none" stroke-width="1"/><path id="e9irwa2ieu2r9" d="M128.485000,85.973400C126.219000,89.549300,122.630000,92.083000,118.502000,93.021100C114.373000,93.959200,110.042000,93.225400,106.453000,90.980000L59.789900,60.231000C56.214000,57.964800,53.680200,54.375600,52.742100,50.247400C51.804000,46.119100,52.537900,41.787400,54.783300,38.198400C57.049200,34.627100,60.635300,32.096600,64.759500,31.158700C68.883700,30.220800,73.211500,30.951600,76.799000,33.191800L123.462000,63.940800C127.041000,66.204300,129.578000,69.792300,130.519000,73.920700C131.460000,78.049200,130.729000,82.382400,128.485000,85.973400Z" fill="url(#e9irwa2ieu2r9-fill)" stroke="none" stroke-width="1"/><path id="e9irwa2ieu2r10" d="M125.900000,84.295100C123.794000,87.618900,120.457000,89.974100,116.620000,90.846200C112.783000,91.718200,108.756000,91.036200,105.420000,88.949200L62.030900,60.344600C58.707000,58.238200,56.351800,54.902000,55.479700,51.064700C54.607700,47.227400,55.289700,43.200900,57.376700,39.864800C59.483200,36.541000,62.819400,34.185800,66.656700,33.313700C70.494000,32.441700,74.520400,33.123700,77.856500,35.210700L121.238000,63.798500C124.567000,65.903700,126.928000,69.242500,127.802000,73.083900C128.675000,76.925400,127.992000,80.956600,125.900000,84.295100Z" fill="rgb(253,219,224)" stroke="none" stroke-width="1"/><path id="e9irwa2ieu2r11" d="M216.337000,247.902000C234.362000,247.902000,248.974000,233.290000,248.974000,215.264000C248.974000,197.239000,234.362000,182.627000,216.337000,182.627000C198.312000,182.627000,183.699000,197.239000,183.699000,215.264000C183.699000,233.290000,198.312000,247.902000,216.337000,247.902000Z" fill="rgb(253,219,224)" stroke="none" stroke-width="1"/><path id="e9irwa2ieu2r12" d="M210.457000,0L85.430000,0C82.590700,0,80.289100,2.301670,80.289100,5.140930L80.289100,239.089000C80.289100,241.928000,82.590700,244.230000,85.430000,244.230000L210.457000,244.230000C213.297000,244.230000,215.598000,241.928000,215.598000,239.089000L215.598000,5.140930C215.598000,2.301670,213.297000,0,210.457000,0Z" fill="url(#e9irwa2ieu2r12-fill)" stroke="none" stroke-width="1"/><path id="e9irwa2ieu2r13" d="M208.039000,3.302730L87.837500,3.302730C84.676100,3.302730,82.113300,5.865580,82.113300,9.027000L82.113300,235.211000C82.113300,238.372000,84.676100,240.935000,87.837500,240.935000L208.039000,240.935000C211.200000,240.935000,213.763000,238.372000,213.763000,235.211000L213.763000,9.027000C213.763000,5.865580,211.200000,3.302730,208.039000,3.302730Z" fill="rgb(255,255,255)" stroke="none" stroke-width="1"/><path id="e9irwa2ieu2r14" d="M181.014000,9.261720C180.633000,11.781800,179.363000,14.082400,177.433000,15.747400C175.504000,17.412300,173.042000,18.331700,170.493000,18.339100L125.026000,18.339100C122.478000,18.330700,120.017000,17.410900,118.088000,15.746000C116.160000,14.081100,114.890000,11.781100,114.509000,9.261720L90.420400,9.261720C89.763700,9.261170,89.113300,9.390050,88.506400,9.640980C87.899500,9.891920,87.348000,10.260000,86.883400,10.724200C86.418800,11.188400,86.050300,11.739600,85.798800,12.346200C85.547400,12.952900,85.418000,13.603200,85.418000,14.260000L85.418000,229.969000C85.417400,230.626000,85.546300,231.276000,85.797200,231.883000C86.048200,232.490000,86.416200,233.042000,86.880400,233.506000C87.344600,233.971000,87.895800,234.339000,88.502500,234.591000C89.109200,234.842000,89.759500,234.972000,90.416200,234.972000L205.464000,234.972000C206.121000,234.972000,206.771000,234.843000,207.378000,234.592000C207.985000,234.341000,208.536000,233.973000,209.001000,233.509000C209.465000,233.045000,209.834000,232.494000,210.085000,231.887000C210.337000,231.280000,210.466000,230.630000,210.466000,229.973000L210.466000,14.264200C210.467000,13.607400,210.338000,12.957000,210.087000,12.350100C209.836000,11.743200,209.468000,11.191700,209.004000,10.727200C208.540000,10.262600,207.988000,9.894040,207.382000,9.642590C206.775000,9.391140,206.125000,9.261720,205.468000,9.261720L181.014000,9.261720Z" fill="rgb(221,241,255)" stroke="none" stroke-width="1"/><path id="e9irwa2ieu2r15" d="M161.957000,12.103500L134.296000,12.103500C133.833000,12.103500,133.457000,12.479300,133.457000,12.942900L133.457000,13.098100C133.457000,13.561700,133.833000,13.937500,134.296000,13.937500L161.957000,13.937500C162.420000,13.937500,162.796000,13.561700,162.796000,13.098100L162.796000,12.942900C162.796000,12.479300,162.420000,12.103500,161.957000,12.103500Z" fill="rgb(219,219,219)" stroke="none" stroke-width="1"/><path id="e9irwa2ieu2r16" d="M169.029000,13.937300C169.636000,13.937300,170.129000,13.445100,170.129000,12.837800C170.129000,12.230600,169.636000,11.738300,169.029000,11.738300C168.422000,11.738300,167.930000,12.230600,167.930000,12.837800C167.930000,13.445100,168.422000,13.937300,169.029000,13.937300Z" fill="rgb(219,219,219)" stroke="none" stroke-width="1"/><path id="e9irwa2ieu2r17" d="M237.433000,221.022000C227.961000,223.212000,221.460000,217.035000,219.269000,207.567000L197.505000,126.752000C196.465000,122.186000,197.274000,117.394000,199.755000,113.423000C202.235000,109.451000,206.187000,106.622000,210.746000,105.554000C215.312000,104.514000,220.104000,105.323000,224.075000,107.803000C228.047000,110.284000,230.875000,114.236000,231.943000,118.795000L249.704000,201.696000C251.894000,211.168000,246.900000,218.831000,237.433000,221.022000Z" fill="url(#e9irwa2ieu2r17-fill)" stroke="none" stroke-width="1"/><path id="e9irwa2ieu2r18" d="M229.500000,120.774000C227.653000,112.782000,219.678000,107.800000,211.686000,109.647000C203.694000,111.493000,198.712000,119.469000,200.558000,127.461000L220.571000,214.077000C222.418000,222.069000,230.394000,227.051000,238.386000,225.205000C246.378000,223.358000,251.359000,215.382000,249.513000,207.390000L229.500000,120.774000Z" fill="rgb(253,219,224)" stroke="none" stroke-width="1"/><path id="e9irwa2ieu2r19" d="M248.835000,287.955000L124.613000,287.955000L124.613000,316.912000L248.835000,316.912000L248.835000,287.955000Z" fill="url(#e9irwa2ieu2r19-fill)" stroke="none" stroke-width="1"/><path id="e9irwa2ieu2r20" d="M245.476000,291.312000L127.969000,291.312000L127.969000,313.975000L245.476000,313.975000L245.476000,291.312000Z" fill="rgb(63,147,205)" stroke="none" stroke-width="1"/><path id="e9irwa2ieu2r21" d="M110.374000,172.668000C108.135000,176.201000,104.589000,178.705000,100.511000,179.632000C96.431700,180.559000,92.151800,179.834000,88.605800,177.615000L57.311200,157.366000C53.777800,155.128000,51.274000,151.582000,50.346900,147.503000C49.419800,143.424000,50.144700,139.144000,52.363300,135.598000C54.601900,132.065000,58.147900,129.561000,62.226700,128.634000C66.305500,127.707000,70.585500,128.432000,74.131500,130.650000L105.426000,150.899000C108.959000,153.138000,111.463000,156.684000,112.390000,160.763000C113.317000,164.842000,112.592000,169.122000,110.374000,172.668000Z" fill="url(#e9irwa2ieu2r21-fill)" stroke="none" stroke-width="1"/><path id="e9irwa2ieu2r22" d="M102.518000,215.529000C100.259000,219.095000,96.681400,221.621000,92.565500,222.557000C88.449700,223.493000,84.130800,222.762000,80.552600,220.523000L61.168100,206.388000C57.602400,204.130000,55.075500,200.552000,54.139700,196.436000C53.204000,192.320000,53.935400,188.001000,56.174100,184.423000C58.432600,180.857000,62.010700,178.330000,66.126500,177.395000C70.242400,176.459000,74.561300,177.190000,78.139500,179.429000L97.523900,193.568000C101.089000,195.826000,103.615000,199.403000,104.550000,203.518000C105.486000,207.633000,104.755000,211.951000,102.518000,215.529000Z" fill="url(#e9irwa2ieu2r22-fill)" stroke="none" stroke-width="1"/><g id="e9irwa2ieu2r23" opacity="0.5"><path id="e9irwa2ieu2r24" d="M147.944000,159.864000C168.790000,159.864000,185.689000,142.965000,185.689000,122.119000C185.689000,101.273000,168.790000,84.374000,147.944000,84.374000C127.098000,84.374000,110.199000,101.273000,110.199000,122.119000C110.199000,142.965000,127.098000,159.864000,147.944000,159.864000Z" opacity="0.5" fill="url(#e9irwa2ieu2r24-fill)" stroke="none" stroke-width="1"/></g><path id="e9irwa2ieu2r25" d="M100.953000,214.475000C98.846800,217.799000,95.510600,220.154000,91.673300,221.026000C87.836000,221.898000,83.809500,221.216000,80.473400,219.129000L62.394200,205.969000C59.070300,203.862000,56.715100,200.526000,55.843000,196.689000C54.971000,192.851000,55.653000,188.825000,57.740000,185.489000C59.846500,182.165000,63.182700,179.810000,67.020000,178.938000C70.857300,178.066000,74.883700,178.748000,78.219800,180.835000L96.294900,194.021000C99.612500,196.126000,101.964000,199.457000,102.836000,203.289000C103.709000,207.120000,103.032000,211.141000,100.953000,214.475000Z" fill="rgb(253,219,224)" stroke="none" stroke-width="1"/><path id="e9irwa2ieu2r26" d="M108.654000,171.556000C106.547000,174.880000,103.211000,177.235000,99.373800,178.107000C95.536500,178.979000,91.510000,178.297000,88.174000,176.210000L58.730100,157.157000C55.406200,155.051000,53.051000,151.714000,52.179000,147.877000C51.306900,144.040000,51.988900,140.013000,54.076000,136.677000C56.182400,133.353000,59.518600,130.998000,63.355900,130.126000C67.193200,129.254000,71.219700,129.936000,74.555700,132.023000L104,151.076000C107.324000,153.183000,109.679000,156.519000,110.551000,160.356000C111.423000,164.193000,110.741000,168.220000,108.654000,171.556000Z" fill="rgb(253,219,224)" stroke="none" stroke-width="1"/><path id="e9irwa2ieu2r27" d="M118.464000,130.008000C116.215000,133.557000,112.652000,136.072000,108.555000,137.003000C104.457000,137.934000,100.158000,137.206000,96.595300,134.977000L56.936700,109.155000C53.387800,106.906000,50.873200,103.343000,49.942200,99.245500C49.011300,95.148000,49.739500,90.848700,51.967900,87.286300C54.217500,83.737400,57.780100,81.222800,61.877600,80.291900C65.975000,79.360900,70.274400,80.089100,73.836800,82.317500L113.495000,108.140000C117.044000,110.389000,119.559000,113.952000,120.490000,118.049000C121.421000,122.147000,120.693000,126.446000,118.464000,130.008000Z" fill="url(#e9irwa2ieu2r27-fill)" stroke="none" stroke-width="1"/><path id="e9irwa2ieu2r28" d="M116.355000,128.666000C114.248000,131.990000,110.912000,134.345000,107.075000,135.217000C103.237000,136.089000,99.210900,135.407000,95.874900,133.320000L58.730100,109.135000C55.406200,107.028000,53.051000,103.692000,52.179000,99.854700C51.306900,96.017400,51.988900,91.991000,54.076000,88.654900C56.182400,85.331000,59.518600,82.975800,63.355900,82.103800C67.193200,81.231700,71.219700,81.913700,74.555800,84.000800L111.696000,108.186000C115.021000,110.292000,117.377000,113.628000,118.250000,117.465000C119.123000,121.303000,118.441000,125.329000,116.355000,128.666000Z" fill="rgb(253,219,224)" stroke="none" stroke-width="1"/><g id="e9irwa2ieu2r29_tr" transform="translate(151.499905,121.499771) rotate(0)"><g id="e9irwa2ieu2r29" transform="translate(-151.499905,-121.499771)"><path id="e9irwa2ieu2r30" d="M172.792000,96.990800L164.836000,104.948000C163.114000,103.528000,161.178000,102.392000,159.098000,101.586000L162.011000,90.714800C165.980000,92.084400,169.642000,94.216000,172.792000,96.990800Z" fill="rgb(115,181,59)" stroke="none" stroke-width="1"/><path id="e9irwa2ieu2r31" d="M182.241000,110.943000L171.370000,113.857000C170.563000,111.777000,169.428000,109.840000,168.008000,108.119000L175.965000,100.162000C178.740000,103.312000,180.872000,106.975000,182.241000,110.943000Z" fill="rgb(115,181,59)" stroke="none" stroke-width="1"/><path id="e9irwa2ieu2r32" d="M184,121.500000C184.004000,123.592000,183.801000,125.679000,183.395000,127.731000L172.535000,124.862000C172.879000,122.664000,172.879000,120.425000,172.535000,118.227000L183.395000,115.313000C183.798000,117.351000,184.001000,119.423000,184,121.500000Z" fill="rgb(115,181,59)" stroke="none" stroke-width="1"/><path id="e9irwa2ieu2r33" d="M182.239000,132.057000C180.878000,136.007000,178.761000,139.653000,176.008000,142.793000L168.051000,134.837000C169.471000,133.115000,170.606000,131.179000,171.413000,129.099000L182.239000,132.057000Z" fill="rgb(115,181,59)" stroke="none" stroke-width="1"/><path id="e9irwa2ieu2r34" d="M172.792000,146.010000C169.639000,148.769000,165.976000,150.886000,162.011000,152.241000L159.098000,141.370000C161.178000,140.563000,163.114000,139.428000,164.836000,138.008000L172.792000,146.010000Z" fill="rgb(115,181,59)" stroke="none" stroke-width="1"/><path id="e9irwa2ieu2r35" d="M157.732000,153.395000C153.616000,154.201000,149.385000,154.201000,145.270000,153.395000L148.139000,142.535000C150.336000,142.879000,152.575000,142.879000,154.773000,142.535000L157.732000,153.395000Z" fill="rgb(115,181,59)" stroke="none" stroke-width="1"/><path id="e9irwa2ieu2r36" d="M143.857000,141.370000L140.943000,152.241000C136.994000,150.880000,133.347000,148.763000,130.207000,146.010000L138.164000,138.053000C139.874000,139.452000,141.796000,140.572000,143.857000,141.370000Z" fill="rgb(115,181,59)" stroke="none" stroke-width="1"/><path id="e9irwa2ieu2r37" d="M134.946000,134.881000L126.989000,142.793000C124.230000,139.640000,122.113000,135.977000,120.758000,132.012000L131.629000,129.099000C132.417000,131.191000,133.538000,133.144000,134.946000,134.881000Z" fill="rgb(115,181,59)" stroke="none" stroke-width="1"/><path id="e9irwa2ieu2r38" d="M134.948000,108.119000C133.528000,109.840000,132.392000,111.777000,131.586000,113.857000L120.715000,110.943000C122.089000,106.991000,124.220000,103.344000,126.991000,100.207000L134.948000,108.119000Z" fill="rgb(115,181,59)" stroke="none" stroke-width="1"/><path id="e9irwa2ieu2r39" d="M130.207000,121.500000C130.205000,122.625000,130.291000,123.750000,130.465000,124.862000L119.605000,127.776000C118.798000,123.660000,118.798000,119.429000,119.605000,115.313000L130.465000,118.138000C130.291000,119.250000,130.205000,120.374000,130.207000,121.500000Z" fill="rgb(115,181,59)" stroke="none" stroke-width="1"/><path id="e9irwa2ieu2r40" d="M143.857000,101.630000C141.777000,102.437000,139.840000,103.572000,138.119000,104.992000L130.207000,96.990700C133.361000,94.231500,137.023000,92.114600,140.988000,90.759800L143.857000,101.630000Z" fill="rgb(115,181,59)" stroke="none" stroke-width="1"/><path id="e9irwa2ieu2r41" d="M157.730000,89.605200L154.861000,100.465000C152.663000,100.121000,150.424000,100.121000,148.226000,100.465000L145.312000,89.605200C149.428000,88.798300,153.659000,88.798300,157.775000,89.605200C157.774000,89.605200,157.730000,89.605200,157.730000,89.605200Z" fill="rgb(115,181,59)" stroke="none" stroke-width="1"/></g></g></g></svg>