<?xml version="1.0" standalone="no"?>
<!DOCTYPE svg PUBLIC "-//W3C//DTD SVG 20010904//EN"
 "http://www.w3.org/TR/2001/REC-SVG-20010904/DTD/svg10.dtd">
<svg version="1.0" xmlns="http://www.w3.org/2000/svg"
 width="1200.000000pt" height="1200.000000pt" viewBox="0 0 1200.000000 1200.000000"
 preserveAspectRatio="xMidYMid meet">
<metadata>
Created by potrace 1.14, written by Peter Selinger 2001-2017
</metadata>
<g transform="translate(0.000000,1200.000000) scale(0.100000,-0.100000)"
fill="#808080" stroke="none">
<path d="M5700 11914 c-536 -33 -1031 -124 -1513 -280 -2036 -661 -3575 -2386
-3991 -4474 -83 -416 -110 -699 -110 -1160 0 -265 4 -399 18 -530 78 -783 267
-1443 604 -2117 717 -1431 1987 -2515 3515 -2999 394 -125 791 -205 1247 -250
245 -25 815 -25 1060 0 783 78 1438 265 2112 602 1726 863 2931 2521 3212
4419 49 330 60 494 60 875 0 381 -11 545 -60 875 -327 2208 -1905 4066 -4041
4759 -411 133 -829 219 -1273 261 -157 15 -698 27 -840 19z m-378 -343 c-221
-144 -532 -402 -801 -666 -283 -278 -523 -557 -704 -817 l-60 -88 -861 0 -861
1 105 101 c348 334 806 659 1272 902 532 278 1147 483 1728 575 257 41 259 41
182 -8z m548 -766 l0 -805 -880 0 c-484 0 -880 3 -880 6 0 3 30 45 67 93 353
452 753 846 1203 1185 130 98 467 326 483 326 4 0 7 -362 7 -805z m435 700
c483 -315 936 -715 1328 -1173 105 -122 257 -315 257 -326 0 -3 -396 -6 -880
-6 l-880 0 0 806 c0 648 2 805 13 801 7 -2 80 -49 162 -102z m620 55 c892
-148 1719 -500 2440 -1040 173 -130 355 -284 490 -413 l110 -106 -860 0 -860
0 -74 104 c-292 415 -743 886 -1186 1241 -128 103 -250 194 -297 223 -21 12
-38 25 -38 27 0 7 79 -4 275 -36z m-3355 -1843 c0 -2 -32 -60 -71 -128 -246
-432 -466 -997 -560 -1441 l-22 -108 -1084 0 c-596 0 -1083 2 -1083 3 0 2 17
46 39 98 216 527 502 1001 882 1464 l94 114 903 1 c496 0 902 -2 902 -3z
m2300 -837 l0 -840 -1330 0 c-1244 0 -1330 1 -1330 17 0 37 92 368 149 534
124 363 313 758 508 1062 l43 67 980 0 980 0 0 -840z m2264 773 c278 -430 520
-1003 639 -1510 l24 -103 -1333 0 -1334 0 0 840 0 840 980 0 980 0 44 -67z
m2202 -56 c273 -330 503 -680 693 -1057 71 -140 197 -421 215 -477 l7 -23
-1085 0 c-1030 0 -1086 1 -1086 18 0 40 -96 398 -150 562 -124 376 -264 683
-497 1093 -2 4 402 7 899 7 l903 -1 101 -122z m1047 -1929 c117 -376 195 -779
233 -1198 22 -249 22 -692 0 -940 -37 -412 -119 -834 -228 -1180 l-34 -105
-5354 0 -5354 0 -34 105 c-160 508 -245 1076 -245 1650 0 585 80 1120 250
1668 l25 82 5358 0 5358 0 25 -82z m-8444 -3805 c94 -445 314 -1010 560 -1442
39 -68 71 -126 71 -128 0 -2 -406 -2 -902 -1 l-902 3 -66 77 c-124 142 -251
312 -385 513 -157 236 -217 338 -340 580 -74 146 -225 481 -225 500 0 3 487 5
1083 5 l1084 0 22 -107z m2931 -733 l0 -840 -980 0 -980 0 -43 68 c-195 303
-384 698 -508 1061 -57 166 -149 497 -149 534 0 16 86 17 1330 17 l1330 0 0
-840z m2903 738 c-119 -507 -362 -1082 -639 -1510 l-44 -68 -980 0 -980 0 0
840 0 840 1334 0 1333 0 -24 -102z m2477 96 c0 -19 -135 -321 -211 -474 -191
-383 -443 -767 -722 -1101 l-82 -98 -902 0 c-497 -1 -903 0 -903 2 0 2 30 55
66 118 161 280 325 648 434 979 54 164 150 522 150 562 0 17 56 18 1085 18
597 0 1085 -3 1085 -6z m-7417 -2063 c305 -431 739 -882 1212 -1260 77 -62
177 -138 222 -168 46 -31 81 -58 79 -60 -6 -6 -280 36 -441 68 -1038 205
-2025 715 -2770 1432 l-100 96 860 1 860 0 78 -109z m2037 -697 c0 -684 -2
-805 -14 -801 -30 12 -359 235 -481 327 -361 271 -708 598 -1000 940 -99 116
-265 325 -265 334 0 3 396 6 880 6 l880 0 0 -806z m2020 800 c0 -11 -152 -204
-257 -326 -308 -361 -645 -676 -1028 -963 -134 -100 -429 -299 -462 -312 -11
-4 -13 153 -13 801 l0 806 880 0 c484 0 880 -3 880 -6z m1980 -87 c-668 -646
-1596 -1153 -2550 -1392 -223 -56 -672 -136 -686 -123 -2 2 49 41 114 85 503
350 1051 895 1418 1411 l79 112 860 -1 860 0 -95 -92z"/>
<path d="M1884 7266 c-233 -38 -438 -146 -555 -291 -95 -118 -149 -274 -149
-429 0 -267 128 -445 500 -695 152 -103 293 -239 332 -322 50 -104 60 -199 33
-304 -41 -155 -145 -259 -302 -300 -79 -21 -268 -21 -357 -1 -196 46 -326 189
-366 406 -14 71 -20 83 -36 72 -12 -7 -124 -413 -124 -448 0 -13 17 -30 53
-51 200 -121 509 -184 794 -161 516 40 853 373 830 818 -14 275 -150 437 -608
730 -145 93 -230 174 -274 264 -33 66 -36 80 -36 157 -1 177 91 317 249 381
51 20 74 23 207 23 174 -1 229 -16 309 -86 49 -44 108 -149 130 -234 9 -37 17
-50 31 -50 15 0 26 33 72 205 29 112 52 208 50 213 -4 13 -172 64 -287 88
-125 25 -385 33 -496 15z"/>
<path d="M5605 7227 c-4 -8 1 -29 9 -46 22 -41 20 -106 -5 -187 -20 -67 -180
-389 -527 -1059 -180 -349 -170 -330 -177 -324 -2 3 -36 342 -74 754 -39 413
-73 771 -77 798 l-6 47 -98 0 -98 0 -437 -800 c-241 -441 -439 -799 -441 -797
-9 8 -124 1223 -124 1306 0 118 14 181 56 242 19 28 34 55 34 60 0 5 -149 9
-350 9 -370 0 -372 0 -330 -45 31 -33 57 -119 74 -245 16 -114 226 -2109 226
-2142 0 -16 12 -18 114 -18 l113 0 418 770 c229 424 421 773 426 776 5 3 9 -1
9 -8 0 -24 141 -1493 146 -1515 4 -22 7 -23 138 -23 l134 0 372 733 c714 1402
819 1595 906 1665 58 46 48 52 -89 52 -68 0 -172 3 -230 7 -91 5 -107 4 -112
-10z"/>
<path d="M6420 7217 c0 -8 7 -29 16 -47 22 -44 14 -163 -21 -295 -37 -140
-447 -1559 -501 -1732 -58 -187 -86 -244 -145 -297 -27 -24 -49 -49 -49 -55 0
-8 105 -11 360 -11 394 0 375 -3 344 60 -23 45 -14 174 21 310 28 112 454
1591 503 1750 57 182 91 247 152 288 19 13 37 27 38 33 2 5 -136 9 -357 9
-296 0 -361 -2 -361 -13z"/>
<path d="M7740 7225 c0 -3 9 -23 20 -45 27 -53 26 -131 -4 -255 -34 -139 -488
-1712 -538 -1863 -46 -140 -80 -197 -137 -232 -79 -49 -70 -50 319 -50 396 0
373 -4 345 63 -35 85 -19 168 138 711 l112 388 215 -5 c118 -3 236 -11 263
-17 68 -17 137 -67 162 -117 11 -25 26 -41 35 -40 12 2 89 245 135 425 8 31
-7 28 -60 -12 -72 -56 -141 -66 -439 -66 -141 0 -256 3 -256 8 1 26 232 839
247 869 34 65 62 73 273 73 196 0 261 -10 341 -51 56 -28 119 -95 148 -158 15
-32 30 -51 39 -49 9 2 40 81 83 213 38 116 69 211 69 213 0 1 -340 2 -755 2
-415 0 -755 -2 -755 -5z"/>
<path d="M9336 7027 c-38 -111 -71 -208 -74 -214 -11 -32 25 -6 101 71 134
137 252 179 486 174 l128 -3 -282 -970 c-155 -533 -294 -1007 -309 -1053 -32
-96 -78 -168 -123 -197 -18 -11 -32 -28 -33 -37 0 -17 23 -18 350 -18 327 0
350 1 350 18 -1 9 -7 28 -15 42 -21 38 -18 132 10 255 14 61 145 527 292 1038
l268 927 120 0 c181 0 276 -30 360 -115 24 -24 56 -66 70 -95 14 -28 31 -50
38 -48 7 2 44 100 84 216 l72 212 -912 0 -912 0 -69 -203z"/>
</g>
</svg>
