<?xml version="1.0" encoding="utf-8"?>
<!-- Generator: Adobe Illustrator 18.1.1, SVG Export Plug-In . SVG Version: 6.00 Build 0)  -->
<svg version="1.1" id="Слой_1" xmlns="http://www.w3.org/2000/svg" xmlns:xlink="http://www.w3.org/1999/xlink" x="0px" y="0px"
	 viewBox="0 0 1024 439.7" enable-background="new 0 0 1024 439.7" xml:space="preserve">
<g>
	<path fill="#878786" d="M572.1,259.6c0,76.5-53,109.9-103.1,109.9c-56,0-99.2-41.1-99.2-106.5c0-69.3,45.3-109.9,102.6-109.9
		C531.9,153.1,572.1,196.3,572.1,259.6z M407.9,261.7c0,45.3,26.1,79.5,62.9,79.5c35.9,0,62.9-33.8,62.9-80.4
		c0-35.1-17.5-79.5-62-79.5S407.9,222.4,407.9,261.7z"/>
	<path fill="#878786" d="M619.5,213.8c0-21.4-0.4-38.9-1.7-56h33.4l2.1,34.2h0.9c10.3-19.7,34.2-38.9,68.4-38.9
		c28.7,0,73.1,17.1,73.1,88.1v123.6h-37.6V245.5c0-33.4-12.4-61.2-47.9-61.2c-24.8,0-44,17.5-50.5,38.5c-1.7,4.7-2.6,11.1-2.6,17.5
		v124.4h-37.6V213.8z"/>
	<path fill="#878786" d="M877.8,268.1c0.9,50.9,33.4,71.8,71,71.8c26.9,0,43.2-4.7,57.3-10.7l6.4,26.9c-13.3,6-35.9,12.8-68.9,12.8
		c-63.7,0-101.8-41.9-101.8-104.3c0-62.4,36.8-111.6,97.1-111.6c67.6,0,85.5,59.4,85.5,97.5c0,7.7-0.9,13.7-1.3,17.5H877.8z
		 M988.2,241.2c0.4-23.9-9.8-61.2-52.2-61.2c-38.1,0-54.7,35.1-57.7,61.2H988.2z"/>
</g>
<g>
	<path fill-rule="evenodd" clip-rule="evenodd" fill="#333333" d="M170,189.4c-25.7,0-49.6,17.5-57.3,46.2
		c-0.9,4.3-2.1,9.4-2.1,15.4v37.2c0,4.7,0.9,9.4,1.7,13.7c7.3,26.1,29.1,44,56.4,44c39.3,0,62.9-32.1,62.9-79.5
		C231.6,224.9,210.2,189.4,170,189.4z"/>
	<path fill-rule="evenodd" clip-rule="evenodd" fill="#333333" d="M0,0v439.7h320.9V0H0z M176.4,375.9c-29.9,0-53.9-11.5-69.3-38.9
		h-1.3l-1.7,34.2H71.7c0.9-14.1,1.7-35.1,1.7-53.5V67.6h37.2v130h0.9c13.3-23.1,37.2-38.1,70.6-38.1c51.3,0,87.7,42.8,87.2,105.6
		C269.2,339.1,222.6,375.9,176.4,375.9z"/>
</g>
</svg>
