<?xml version="1.0" encoding="utf-8"?>
<!-- Generator: Adobe Illustrator 18.1.1, SVG Export Plug-In . SVG Version: 6.00 Build 0)  -->
<svg version="1.1" id="Слой_1" xmlns="http://www.w3.org/2000/svg" xmlns:xlink="http://www.w3.org/1999/xlink" x="0px" y="0px"
	 viewBox="0 264 3000 1352" enable-background="new 0 264 3000 1352" xml:space="preserve">
<path display="none" fill="#7AA0C4" d="M3452.7-217.9c0,50.9-41.4,92.3-92.3,92.3c-50.9,0-92.3-41.4-92.3-92.3s41.4-92.3,92.3-92.3
	C3411.3-310.6,3452.7-269.2,3452.7-217.9"/>
<g>
	<path fill="#555D61" d="M632.3,854.9l-61.5,33.9c-11.7-12.2-22.8-20.7-34.5-25.5s-24.9-6.9-39.8-6.9c-27.6,0-50.4,8-67.3,24.9
		c-17,16.4-25.5,37.6-25.5,63.6c0,24.9,8,45.6,24.9,61.5c16.4,15.9,38.2,23.9,65.2,23.9c32.9,0,58.9-11.1,77.4-33.9l58.3,40.3
		c-31.8,41.4-76.4,62-134.2,62c-52,0-92.8-15.4-122-46.1c-29.2-30.8-44-66.8-44-108.2c0-28.6,7.4-54.6,21.7-79
		c14.3-23.9,34.5-42.9,59.9-56.7c25.5-13.8,54.1-20.7,85.9-20.7c29.2,0,55.7,5.8,79,17.5C598.3,816.7,617.4,833.2,632.3,854.9z"/>
	<path fill="#555D61" d="M837.5,787.6c28.1,0,54.1,6.9,78.5,20.7c24.4,13.8,43.5,32.9,57.3,56.7c13.8,23.9,20.7,49.8,20.7,77.4
		c0,28.1-6.9,54.1-20.7,77.9c-13.8,23.9-32.9,43.5-56.7,56.7c-23.9,13.3-50.4,20.7-79,20.7c-42.4,0-78.5-14.8-108.2-45.1
		c-29.7-30.2-45.1-66.8-45.1-109.8c0-46.1,17-84.3,50.9-115.1C765.4,800.8,799.3,787.6,837.5,787.6z M839.1,857.5
		c-22.8,0-41.9,8-57.3,23.9C766.4,897.3,759,918,759,942.9c0,25.5,7.4,46.7,22.8,62.6c15.4,15.9,34.5,23.9,57.3,23.9
		s42.4-8,57.8-23.9c15.4-15.9,23.3-37.1,23.3-62c0-24.9-7.4-46.1-22.8-62C882,865.5,862.4,857.5,839.1,857.5z"/>
	<path fill="#555D61" d="M1037.4,795.5h63.6v37.1c6.9-14.3,15.9-26,27-33.4s23.9-11.1,37.6-11.1c9.5,0,19.6,2.7,30.2,7.4l-22.8,63.6
		c-8.5-4.2-15.9-6.4-21.7-6.4c-11.1,0-20.7,6.9-29.2,21.2c-8,14.3-11.7,41.9-11.7,83.2l0.5,14.3v119.3h-73.7V795.5z"/>
	<path fill="#555D61" d="M1306.2,795.5v32.3c13.3-13.3,28.1-23.3,43.5-30.2c15.9-6.9,32.3-10.1,49.8-10.1
		c38.7,0,71.1,14.3,98.1,43.5c27,29.2,40.3,66.3,40.3,111.9c0,44-13.8,80.6-41.9,110.3s-61,44.5-99.2,44.5c-17,0-32.9-2.7-47.7-9
		c-14.3-5.8-29.2-15.9-43.5-29.7V1198h-73.2V795h73.7V795.5z M1383.6,856c-23.3,0-42.4,8-58.3,23.9c-15.9,15.9-22.8,36.6-22.8,62.6
		c0,26,7.4,47.2,22.8,63.6c15.4,16.4,35,24.4,58.3,24.4c22.8,0,41.4-8,57.3-24.9c15.4-16.4,23.3-37.6,23.3-63.1s-7.4-46.1-22.8-62
		C1426,863.9,1406.9,856,1383.6,856z"/>
	<path fill="#68B1CD" d="M1598.4,681h38.2v409.3h-38.2V681z"/>
	<path fill="#68B1CD" d="M1728.3,673.6c8.5,0,15.9,3.2,22.3,9.5c6.4,6.4,9.5,13.8,9.5,22.3c0,8.5-3.2,15.9-9.5,22.3
		c-6.4,6.4-13.8,9.5-22.3,9.5c-8.5,0-15.9-3.2-21.7-9.5c-5.8-6.4-9.5-13.3-9.5-22.3c0-8.5,3.2-15.9,9.5-22.3
		C1712.9,676.7,1720.3,673.6,1728.3,673.6z M1709.7,795.5h38.2v295.3h-38.2V795.5z"/>
	<path fill="#68B1CD" d="M2081.4,795.5h38.2v235.4c0,41.4-3.7,71.6-10.6,90.7c-10.1,27-27,47.7-52,62.6
		c-24.9,14.3-54.1,22.3-89.1,22.3c-25.5,0-48.3-3.7-68.4-10.6c-20.1-7.4-36.6-17-49.3-28.6c-12.7-12.2-24.4-29.7-35-53h41.4
		c11.1,19.6,26,33.9,43.5,43.5c17.5,9.5,39.8,14.3,65.7,14.3c26,0,47.7-4.8,65.7-14.3c17.5-9.5,30.2-21.7,38.2-36.1
		c7.4-14.3,11.1-38.2,11.1-71.1v-14.8c-14.3,18-31.8,31.8-52.5,41.4s-42.4,14.3-65.7,14.3c-27,0-52.5-6.9-76.9-20.1
		c-23.9-13.3-42.4-31.8-55.7-54.1c-13.3-22.8-19.6-47.7-19.6-75.3c0-27.6,6.9-53,20.1-76.4c13.3-23.3,32.3-42.4,56.2-56.2
		s49.3-20.7,75.8-20.7c22.3,0,42.4,4.8,62,13.8c19.1,9,37.6,23.9,55.1,45.1V796h1.6V795.5z M1969,824.1c-21.7,0-41.4,5.3-59.9,15.9
		c-18.6,10.6-32.9,24.9-43.5,43.5c-10.6,18-15.9,38.2-15.9,59.4c0,32.3,10.6,59.4,32.3,80.6c21.7,21.2,49.8,31.8,84.3,31.8
		c35,0,63.1-10.6,84.3-31.3c21.2-20.7,31.8-48.3,31.8-82.7c0-22.3-4.8-41.9-14.3-59.4c-10.1-17.5-23.3-31.3-41.4-41.4
		C2008.8,829.4,1989.7,824.1,1969,824.1z"/>
	<path fill="#68B1CD" d="M2200.7,681h38.2v167c15.4-20.1,32.3-35.5,50.9-45.6c18.6-10.1,38.2-14.8,59.9-14.8
		c22.3,0,41.4,5.3,58.9,17c17,11.1,29.7,26.5,37.6,45.1c8,18.6,12.2,48.3,12.2,89.1v151.6h-38.2v-141c0-33.9-1.6-56.7-4.2-68.4
		c-4.8-19.6-13.3-34.5-25.5-44c-12.7-10.1-28.6-14.8-48.8-14.8c-22.8,0-43.5,7.4-62,22.8c-18,15.4-30.2,33.9-36.1,56.2
		c-3.7,14.3-5.3,41.4-5.3,80.6v108.2h-38.2L2200.7,681L2200.7,681z"/>
	<path fill="#68B1CD" d="M2572.4,685.8h38.2v109.8h59.9v32.9h-59.9v262.5h-38.2V828.4h-52v-32.9h52V685.8z"/>
</g>
</svg>
