<svg width="301" height="190" viewBox="0 0 301 190" fill="none" xmlns="http://www.w3.org/2000/svg">
<path opacity="0.1" d="M255.999 65.1087C255.032 29.0055 220.826 0 178.761 0C158.187 0 139.508 6.94233 125.65 18.2692C96.8444 20.5834 72.6267 36.5385 61.7705 58.5955C28.7935 66.1803 4.5 92.1408 4.5 123.013C4.5 159.856 39.0866 189.695 81.7538 189.695C94.2867 189.683 106.587 187.094 117.375 182.196C127.491 186.566 138.868 188.929 150.473 189.069C162.08 189.209 173.547 187.122 183.837 182.997C194.339 187.57 206.203 189.983 218.276 190C260.944 190 295.531 160.16 295.531 123.317C295.531 98.3065 279.587 76.5239 255.999 65.1087Z" fill="#36ABC5"/>
<path d="M122.18 26.906L112.69 95.0581L233.187 111.678L242.678 43.5254L122.18 26.906Z" fill="url(#paint0_linear)"/>
<path d="M241.433 44.3023L122.755 27.9338L113.524 94.2254L232.202 110.594L241.433 44.3023Z" fill="white"/>
<g opacity="0.3">
<path opacity="0.3" d="M238.522 46.7444L124.937 31.0784L116.516 91.5538L230.101 107.22L238.522 46.7444Z" fill="#CBCBCB"/>
<g opacity="0.3">
<g opacity="0.3">
<path opacity="0.3" d="M117.69 30.0809L163.792 106.139L191.837 110.008L240.803 81.676L202.15 30.8258L133.642 101.979L94.4736 87.3315L164.457 26.1016L221.518 114.101" fill="#CBCBCB"/>
<path opacity="0.3" d="M117.69 30.0809L163.792 106.139L191.837 110.008L240.803 81.676L202.15 30.8258L133.642 101.979L94.4736 87.3315L164.457 26.1016L221.518 114.101" stroke="white" stroke-width="5" stroke-miterlimit="10"/>
</g>
</g>
</g>
<path d="M170.199 37.2501C169.389 43.1121 157.373 55.3714 157.373 55.3714C157.373 55.3714 148.287 40.1772 149.097 34.3152C149.274 32.9125 149.728 31.5591 150.43 30.3332C151.132 29.1075 152.07 28.0336 153.188 27.174C154.307 26.3144 155.585 25.686 156.947 25.3252C158.31 24.9645 159.73 24.8785 161.126 25.0724C162.522 25.2662 163.865 25.736 165.079 26.4545C166.292 27.1731 167.352 28.126 168.196 29.2583C169.04 30.3905 169.652 31.6795 169.996 33.0507C170.34 34.4218 170.41 35.8479 170.201 37.2462L170.199 37.2501Z" fill="url(#paint1_linear)"/>
<path d="M169.679 37.3889C168.91 42.8542 157.499 54.2857 157.499 54.2857C157.499 54.2857 148.87 40.1196 149.639 34.6544C150.008 32.0364 151.416 29.6698 153.556 28.0752C155.695 26.4806 158.39 25.7887 161.047 26.1515C163.704 26.5144 166.106 27.9024 167.724 30.0102C169.343 32.118 170.045 34.7729 169.677 37.3908L169.679 37.3889Z" fill="#CBCBCB"/>
<path d="M164.698 35.8995C165.079 33.1629 163.164 30.6378 160.421 30.2594C157.678 29.8811 155.145 31.7928 154.764 34.5293C154.383 37.2659 156.298 39.791 159.041 40.1694C161.784 40.5477 164.317 38.6361 164.698 35.8995Z" fill="white"/>
<path d="M57.9551 66.7715V71.7565V165.571H201.41V71.7565V66.7715H57.9551Z" fill="url(#paint2_linear)"/>
<path d="M199.773 72.7429H60.1367V163.943H199.773V72.7429Z" fill="white"/>
<path d="M199.773 68.3999H60.1367V74.9142H199.773V68.3999Z" fill="#F5F5F5"/>
<path d="M65.5914 73.2857C66.4953 73.2857 67.2278 72.5566 67.2278 71.6571C67.2278 70.7576 66.4953 70.0286 65.5914 70.0286C64.6876 70.0286 63.9551 70.7576 63.9551 71.6571C63.9551 72.5566 64.6876 73.2857 65.5914 73.2857Z" fill="#FF5252"/>
<path d="M69.9547 73.2857C70.8585 73.2857 71.5911 72.5566 71.5911 71.6571C71.5911 70.7576 70.8585 70.0286 69.9547 70.0286C69.0509 70.0286 68.3184 70.7576 68.3184 71.6571C68.3184 72.5566 69.0509 73.2857 69.9547 73.2857Z" fill="#CBCBCB"/>
<path d="M74.319 73.2857C75.2228 73.2857 75.9553 72.5566 75.9553 71.6571C75.9553 70.7576 75.2228 70.0286 74.319 70.0286C73.4152 70.0286 72.6826 70.7576 72.6826 71.6571C72.6826 72.5566 73.4152 73.2857 74.319 73.2857Z" fill="#CBCBCB"/>
<path opacity="0.5" d="M142.501 97.1714H116.864V99.8857H142.501V97.1714Z" fill="#CBCBCB"/>
<path d="M126.682 109.114H98.3184V111.829H126.682V109.114Z" fill="#E0E0E0"/>
<path d="M133.228 111.829H161.046V109.114H133.228V111.829Z" fill="#E0E0E0"/>
<path d="M161.046 115.086H98.3184V117.8H161.046V115.086Z" fill="#E0E0E0"/>
<path d="M161.046 120.514H98.3184V123.229H161.046V120.514Z" fill="#E0E0E0"/>
<path d="M142.5 133.543H116.318V138.429H142.5V133.543Z" fill="url(#paint3_linear)"/>
<path d="M142.501 133.543H116.864V137.886H142.501V133.543Z" fill="#CBCBCB"/>
<defs>
<linearGradient id="paint0_linear" x1="173.087" y1="103.388" x2="182.488" y2="35.2258" gradientUnits="userSpaceOnUse">
<stop stop-color="#808080" stop-opacity="0.25"/>
<stop offset="0.54" stop-color="#808080" stop-opacity="0.12"/>
<stop offset="1" stop-color="#808080" stop-opacity="0.1"/>
</linearGradient>
<linearGradient id="paint1_linear" x1="12392.2" y1="9041.23" x2="13044.3" y2="4351.86" gradientUnits="userSpaceOnUse">
<stop stop-color="#808080" stop-opacity="0.25"/>
<stop offset="0.54" stop-color="#808080" stop-opacity="0.12"/>
<stop offset="1" stop-color="#808080" stop-opacity="0.1"/>
</linearGradient>
<linearGradient id="paint2_linear" x1="52763.2" y1="71505.1" x2="52763.2" y2="21161.5" gradientUnits="userSpaceOnUse">
<stop stop-color="#808080" stop-opacity="0.25"/>
<stop offset="0.54" stop-color="#808080" stop-opacity="0.12"/>
<stop offset="1" stop-color="#808080" stop-opacity="0.1"/>
</linearGradient>
<linearGradient id="paint3_linear" x1="9728.7" y1="2980.65" x2="9728.7" y2="2852.99" gradientUnits="userSpaceOnUse">
<stop stop-color="#808080" stop-opacity="0.25"/>
<stop offset="0.54" stop-color="#808080" stop-opacity="0.12"/>
<stop offset="1" stop-color="#808080" stop-opacity="0.1"/>
</linearGradient>
</defs>
</svg>
