<svg width="372" height="253" viewBox="0 0 372 253" fill="none" xmlns="http://www.w3.org/2000/svg">
<path d="M140.835 241.061C140.835 247.654 109.815 253 71.5502 253C33.2851 253 2.26562 247.654 2.26562 241.061C2.26562 239.413 4.20171 237.844 7.70479 236.418C17.9032 232.259 41.3855 229.303 68.9861 229.132C69.8375 229.126 70.6923 229.123 71.5502 229.123C109.815 229.123 140.835 234.469 140.835 241.061Z" fill="#001833" fill-opacity="0.6"/>
<path opacity="0.1" d="M68.9863 229.132C65.8817 234.176 61.6716 238.455 56.6716 241.646C51.6716 244.838 46.0114 246.86 40.1156 247.561C34.2197 248.262 28.2411 247.624 22.6281 245.694C17.015 243.764 11.9132 240.593 7.70508 236.418C17.9035 232.259 41.3858 229.303 68.9863 229.132Z" fill="black"/>
<path d="M36.2611 241.384C56.2875 241.384 72.5222 224.048 72.5222 202.663C72.5222 181.279 56.2875 163.943 36.2611 163.943C16.2346 163.943 0 181.279 0 202.663C0 224.048 16.2346 241.384 36.2611 241.384Z" fill="#001833" fill-opacity="0.6"/>
<path d="M80.7559 26.8906C85.8971 46.6306 102.483 59.3894 117.839 55.4169L80.7559 26.8906Z" fill="#36ABC5"/>
<path d="M117.836 55.4167C112.637 35.4549 122.297 15.7148 139.433 11.2817L117.836 55.4167Z" fill="#54636B"/>
<path d="M91.2852 26.0757C96.1688 44.8266 108.044 57.9497 117.836 55.4165L91.2852 26.0757Z" fill="#54636B"/>
<path d="M117.835 55.4167C111.192 29.91 121.844 5.12399 141.65 0L117.835 55.4167Z" fill="#36ABC5"/>
<path d="M112.057 57.1805C112.057 57.1805 115.965 56.0403 116.933 54.8905C117.901 53.7407 122.512 51.4738 123.158 52.749C123.805 54.0243 130.83 57.9388 126.391 59.1253C121.952 60.3118 115.876 61.1085 114.503 60.6957C113.131 60.2828 112.057 57.1805 112.057 57.1805Z" fill="#A8A8A8"/>
<path opacity="0.2" d="M126.348 58.634C121.909 59.8205 115.833 60.6173 114.46 60.2044C113.415 59.89 112.543 58.017 112.187 57.1411C112.104 57.1662 112.057 57.1803 112.057 57.1803C112.057 57.1803 113.131 60.2825 114.503 60.6954C115.876 61.1083 121.952 60.3115 126.391 59.125C127.672 58.7825 127.997 58.2125 127.797 57.5445C127.725 57.9981 127.302 58.3791 126.348 58.634Z" fill="black"/>
<path opacity="0.3" d="M260.303 86.4209H117.201V161.119H260.303V86.4209Z" fill="#F5A5A9"/>
<path d="M328.707 83.1646H271.311V86.329H328.707V83.1646Z" fill="#2B6DB8"/>
<path d="M354.841 89.0063H271.311V92.1708H354.841V89.0063Z" fill="#2B6DB8"/>
<path d="M328.707 103.125H271.311V106.289H328.707V103.125Z" fill="#2B6DB8"/>
<path d="M328.707 126.493H271.311V129.658H328.707V126.493Z" fill="#2B6DB8"/>
<path d="M354.841 108.967H271.311V112.131H354.841V108.967Z" fill="#2B6DB8"/>
<path d="M354.841 114.809H271.311V117.974H354.841V114.809Z" fill="#2B6DB8"/>
<path d="M354.841 120.651H271.311V123.815H354.841V120.651Z" fill="#2B6DB8"/>
<path d="M301.352 140.611H271.311V148.888H301.352V140.611Z" fill="#EF4D56"/>
<path d="M101.816 131.622C101.816 131.622 107.209 116.394 111.104 121.171C114.999 125.949 105.112 134.011 105.112 134.011L101.816 131.622Z" fill="#F6BAC2"/>
<path d="M76.3521 116.692L79.5962 117.891C79.5962 117.891 81.1457 124.754 80.5465 125.949C79.9473 127.143 79.6477 126.247 80.5465 128.636C81.4453 131.025 84.1417 137.295 84.4413 138.191C84.7409 139.087 101.818 132.518 101.818 129.233C101.818 129.233 105.413 133.414 107.211 134.309C107.211 134.309 87.4373 148.642 84.7409 150.434C82.0445 152.225 80.5465 151.329 78.1497 149.239C75.7529 147.149 65.5664 129.831 65.5664 129.831L76.3521 116.692Z" fill="#36ABC5"/>
<path d="M85.0418 222.694C85.0418 222.694 84.7422 225.978 84.143 226.277C83.5438 226.575 79.0498 234.04 84.143 235.533C89.2363 237.026 92.2323 236.429 93.4307 237.026C94.6291 237.623 115.601 238.818 115.901 235.533C116.2 232.249 105.714 231.651 105.714 231.651C105.714 231.651 96.1271 225.381 94.6291 222.096C93.1311 218.812 85.0418 222.694 85.0418 222.694Z" fill="#2F2E41"/>
<path d="M24.2204 228.665C24.2204 228.665 17.03 240.907 18.8276 242.4C20.6252 243.893 38.1318 249.334 40.6985 249.567C43.9941 249.865 46.3909 247.178 43.6945 245.685C40.9981 244.192 35.3057 237.921 35.3057 235.831V230.457L24.2204 228.665Z" fill="#2F2E41"/>
<path d="M17.3324 148.642C17.3324 148.642 11.0408 156.406 20.9276 168.946L37.4057 189.848C37.4057 189.848 27.2193 205.972 26.9197 214.333C26.6201 222.693 24.5229 220.902 23.9237 224.485C23.3245 228.068 20.628 226.277 22.7253 228.964C24.8225 231.651 32.6121 234.04 35.0089 231.95C37.4057 229.86 37.4057 227.172 37.4057 225.978C37.4057 224.784 41.6002 217.916 41.8998 215.826C42.1994 213.736 53.2846 196.716 53.2846 196.716C53.2846 196.716 56.8799 186.564 52.6854 180.89C48.491 175.217 45.7193 167.171 45.7193 167.171C45.7193 167.171 58.0783 182.085 66.7667 185.668C66.7667 185.668 70.0623 186.265 69.4631 187.758C68.8639 189.251 69.4631 190.147 70.3619 191.64C71.2607 193.133 77.5524 210.451 79.6496 214.93C81.7468 219.409 80.848 222.096 83.2448 223.589C85.6416 225.082 96.4273 223.888 96.4273 222.395C96.4273 220.902 94.9293 217.02 94.0305 214.93C93.1317 212.84 85.9412 188.654 86.5404 184.473C87.1396 180.293 86.2408 174.62 81.7468 172.231C77.2528 169.842 54.483 150.434 53.2846 150.434C52.0862 150.434 17.3324 148.642 17.3324 148.642Z" fill="#002B5C"/>
<path d="M77.5519 101.763C84.5015 101.763 90.1352 96.1478 90.1352 89.2216C90.1352 82.2954 84.5015 76.6807 77.5519 76.6807C70.6024 76.6807 64.9688 82.2954 64.9688 89.2216C64.9688 96.1478 70.6024 101.763 77.5519 101.763Z" fill="#F6BAC2"/>
<path d="M67.3627 90.416C67.3627 90.416 63.4679 97.2837 58.6742 98.1795C53.8806 99.0753 71.2575 112.811 71.2575 112.811C71.2575 112.811 75.4519 99.6725 79.0472 99.0753C82.6424 98.4781 67.3627 90.416 67.3627 90.416Z" fill="#F6BAC2"/>
<path d="M79.6487 118.484C79.6487 122.366 67.9643 133.414 67.9643 133.414L56.879 142.67C56.879 142.67 56.5794 145.955 55.381 146.253C54.1826 146.552 52.6846 146.552 53.883 148.343C55.0814 150.135 58.0774 154.017 55.381 154.614C54.5681 154.737 53.7489 154.815 52.9273 154.847C52.2082 154.889 51.3634 154.927 50.4136 154.963C48.1966 155.041 45.4222 155.092 42.4172 155.071C41.5633 155.068 40.6945 155.058 39.8107 155.041C28.4827 154.817 15.3602 153.518 16.4328 149.239C18.2304 142.073 17.032 139.684 20.9268 135.802C24.8216 131.921 31.1132 118.484 31.1132 118.484C31.1132 118.484 43.6965 97.2837 54.1826 97.2837L56.3607 96.7133C57.3728 96.4476 58.443 96.5059 59.42 96.8799C60.397 97.254 61.2312 97.9248 61.8044 98.7975C63.9076 101.99 67.2243 106.785 69.1627 108.332C72.1587 110.72 72.6261 109.006 72.6261 109.006C72.6261 109.006 79.6487 114.602 79.6487 118.484Z" fill="#36ABC5"/>
<path d="M52.9839 163.871C52.9839 163.871 61.6723 177.307 56.2795 179.696C50.8866 182.085 47.8906 165.662 47.8906 165.662L52.9839 163.871Z" fill="#F6BAC2"/>
<path d="M69.3232 87.8055C69.8061 87.7447 69.9589 87.1374 70.0402 86.6591C70.4755 84.0977 72.3908 81.6688 74.9642 81.2553C75.9478 81.1248 76.948 81.2052 77.898 81.4909C79.2589 81.8631 80.5363 82.4897 81.6623 83.3375C82.2566 83.7855 82.8286 84.3055 83.5435 84.5148C84.0157 84.653 86.0205 85.5413 86.4889 85.6916C87.5188 86.0221 88.3711 87.0964 89.4318 86.8837C90.4466 86.6802 90.832 85.4589 90.9951 84.4402C91.3666 82.1193 90.0337 78.6562 88.7085 76.7122C87.7028 75.2369 86.0009 74.3879 84.2993 73.8356C82.3059 73.2325 80.2577 72.8269 78.1843 72.6246C75.3854 72.2951 72.4866 72.1203 69.8043 72.9826C67.122 73.8448 64.6797 75.9541 64.1789 78.7183C64.0746 79.2941 64.0551 79.8838 63.9272 80.4549C63.6154 81.8481 62.6905 83.0191 62.151 84.3413C61.7618 85.3124 61.5811 86.354 61.6205 87.3989C61.66 88.4438 61.9187 89.469 62.3801 90.4081C63.1272 91.9055 64.4263 93.3443 64.146 94.9931L66.458 93.1762C66.792 92.987 67.0509 92.6893 67.1914 92.3328C67.3318 91.9763 67.3453 91.5827 67.2297 91.2174L66.8936 88.3322C66.832 87.8039 66.7784 87.2339 67.0435 86.7723C68.0711 84.9833 68.518 87.9067 69.3232 87.8055Z" fill="#2F2E41"/>
<path opacity="0.1" d="M47.5901 143.267L50.4123 154.963C47.5661 155.065 43.8002 155.119 39.8095 155.041C38.8028 152.031 37.8411 148.893 37.1041 145.955C34.4076 135.205 38.9017 118.783 41.2985 111.019C43.6953 103.256 49.6873 101.166 49.6873 101.166C49.6873 101.166 52.6834 102.061 56.5782 104.749C60.473 107.436 47.5901 143.267 47.5901 143.267Z" fill="black"/>
<path opacity="0.1" d="M49.9886 142.67L52.9277 154.847C52.2086 154.888 51.3638 154.927 50.414 154.963C48.197 155.041 45.4226 155.092 42.4176 155.071C41.3361 151.873 40.2904 148.499 39.5025 145.357C36.8061 134.608 41.3001 118.185 43.6969 110.422C46.0937 102.658 51.3368 111.168 51.3368 111.168C51.3368 111.168 49.2395 106.092 53.1344 108.78C57.0292 111.467 49.9886 142.67 49.9886 142.67Z" fill="black"/>
<path d="M50.8865 100.568C50.8865 100.568 44.8945 102.659 42.4977 110.422C40.1009 118.185 35.6069 134.608 38.3033 145.358C40.9997 156.107 46.6921 169.544 46.6921 169.544C46.6921 169.544 52.3845 165.363 54.4818 166.259L48.7893 142.67C48.7893 142.67 61.6722 106.839 57.7774 104.151C53.8826 101.464 50.8865 100.568 50.8865 100.568Z" fill="#36ABC5"/>
<path d="M254.153 78.6768H111.051V153.375H254.153V78.6768Z" fill="#EF4D56"/>
<path d="M185.262 133.657C194.205 133.657 201.456 126.418 201.456 117.488C201.456 108.559 194.205 101.32 185.262 101.32C176.318 101.32 169.068 108.559 169.068 117.488C169.068 126.418 176.318 133.657 185.262 133.657Z" fill="white"/>
<path d="M185.353 99C181.526 99 177.784 100.131 174.601 102.251C171.419 104.37 168.938 107.383 167.473 110.907C166.008 114.431 165.625 118.31 166.372 122.051C167.119 125.793 168.962 129.23 171.668 131.927C174.375 134.625 177.824 136.462 181.578 137.206C185.332 137.95 189.223 137.568 192.76 136.108C196.296 134.648 199.318 132.176 201.445 129.004C203.572 125.832 204.707 122.103 204.707 118.288C204.692 113.177 202.648 108.28 199.022 104.666C195.395 101.052 190.482 99.015 185.353 99Z" fill="white"/>
<path d="M195.462 124.037L179.004 107.579C178.286 106.862 177.122 106.862 176.406 107.579L175.538 108.445C174.821 109.163 174.821 110.327 175.538 111.044L191.996 127.501C192.714 128.219 193.878 128.219 194.594 127.501L195.46 126.635C196.18 125.919 196.18 124.755 195.462 124.037Z" fill="#EF4D56"/>
<path d="M191.996 107.58L175.538 124.037C174.821 124.755 174.821 125.919 175.538 126.636L176.404 127.502C177.122 128.22 178.286 128.22 179.003 127.502L195.462 111.045C196.18 110.327 196.18 109.164 195.462 108.447L194.595 107.581C193.878 106.862 192.714 106.862 191.996 107.58Z" fill="#EF4D56"/>
</svg>
