<svg width="247" height="252" viewBox="0 0 247 252" fill="none" xmlns="http://www.w3.org/2000/svg">
<g clip-path="url(#clip0)">
<path d="M105.785 16.3065L0.0234375 45.9658L39.1309 184.612L144.892 154.953L105.785 16.3065Z" fill="url(#paint0_linear)"/>
<path d="M106.469 17.4002L-0.00390625 46.583L14.629 99.6621L121.102 70.4793L106.469 17.4002Z" fill="url(#paint1_linear)"/>
<path d="M105.327 19.0158L1.81641 47.3867L39.3138 183.405L142.824 155.034L105.327 19.0158Z" fill="#EEEEEE"/>
<path d="M105.409 18.8547L1.66016 47.291L15.9519 99.1326L119.701 70.6964L105.409 18.8547Z" fill="#3F93CD"/>
<path d="M69.9442 100.065L41.8008 107.778L42.3906 109.918L70.5341 102.204L69.9442 100.065Z" fill="#BDBDBD"/>
<path d="M72.3075 108.628L44.1641 116.342L44.7539 118.481L72.8973 110.768L72.3075 108.628Z" fill="#F5F5F5"/>
<path d="M75.8075 47.8136L47.6641 55.5273L48.2539 57.6669L76.3973 49.9532L75.8075 47.8136Z" fill="white"/>
<path d="M94.2928 47.8616L48.9766 60.2822L49.5664 62.4218L94.8827 50.0012L94.2928 47.8616Z" fill="white"/>
<path opacity="0.2" d="M86.4038 56.6771L60.2787 63.8376C59.7214 63.9904 59.3937 64.5648 59.5469 65.1205L59.6475 65.4853C59.8007 66.041 60.3768 66.3677 60.9341 66.215L87.0591 59.0544C87.6165 58.9016 87.9441 58.3273 87.7909 57.7715L87.6904 57.4068C87.5372 56.851 86.9611 56.5243 86.4038 56.6771Z" fill="black"/>
<path d="M31.827 118.573C34.594 117.815 36.2205 114.963 35.4599 112.204C34.6993 109.445 31.8396 107.823 29.0726 108.582C26.3056 109.34 24.6791 112.192 25.4397 114.951C26.2003 117.71 29.06 119.331 31.827 118.573Z" fill="#69F0AE"/>
<path d="M75.6551 120.756L47.5117 128.47L48.1016 130.609L76.245 122.896L75.6551 120.756Z" fill="#BDBDBD"/>
<path d="M78.0106 129.319L49.8672 137.033L50.457 139.173L78.6005 131.459L78.0106 129.319Z" fill="#F5F5F5"/>
<path d="M122.151 112.618L48.6914 132.752L49.2812 134.892L122.741 114.757L122.151 112.618Z" fill="#E0E0E0"/>
<path d="M37.5301 139.265C40.2971 138.506 41.9236 135.655 41.163 132.896C40.4024 130.137 37.5427 128.515 34.7757 129.273C32.0087 130.032 30.3822 132.883 31.1428 135.642C31.9034 138.401 34.7631 140.023 37.5301 139.265Z" fill="#E0E0E0"/>
<path d="M81.3544 141.444L53.2109 149.158L53.8008 151.298L81.9442 143.584L81.3544 141.444Z" fill="#BDBDBD"/>
<path d="M83.7176 150.004L55.5742 157.718L56.1641 159.857L84.3075 152.144L83.7176 150.004Z" fill="#F5F5F5"/>
<path d="M127.85 133.306L54.3906 153.44L54.9805 155.58L128.44 135.446L127.85 133.306Z" fill="#E0E0E0"/>
<path d="M43.2332 159.955C46.0002 159.197 47.6267 156.345 46.8661 153.586C46.1055 150.827 43.2459 149.205 40.4788 149.964C37.7118 150.722 36.0853 153.574 36.8459 156.333C37.6065 159.092 40.4662 160.713 43.2332 159.955Z" fill="#E0E0E0"/>
<path d="M40.5149 61.9751C39.8188 59.4543 38.4419 57.1725 36.5345 55.3785C34.627 53.5844 32.2622 52.347 29.6978 51.801C27.1335 51.2551 24.468 51.4217 21.9921 52.2827C19.5162 53.1436 17.3248 54.6658 15.657 56.6834C13.9892 58.7009 12.9089 61.1363 12.5339 63.724C12.1589 66.3117 12.5037 68.9524 13.5306 71.3581C14.5575 73.7638 16.2271 75.8423 18.3574 77.3668C20.4877 78.8913 22.9968 79.8034 25.6113 80.0036L24.6324 76.4573C24.2953 75.2213 24.4624 73.9026 25.097 72.7889C25.7315 71.6753 26.7822 70.8571 28.0196 70.5131V70.5131C29.2591 70.1771 30.5817 70.3436 31.6986 70.9763C32.8155 71.6091 33.636 72.6567 33.981 73.8905L34.9599 77.4368C37.3685 75.7423 39.1943 73.3484 40.1884 70.5814C41.1825 67.8144 41.2965 64.8091 40.5149 61.9751V61.9751Z" fill="#3F93CD"/>
<path d="M216.024 241.229H180.312V96.5186H246.999L216.024 241.229Z" fill="url(#paint2_linear)"/>
<path d="M214.245 241.229H179.238V96.5186H244.608L214.245 241.229Z" fill="#BDBDBD"/>
<path d="M222.594 51.5258L113.039 63.1035L128.305 206.723L237.859 195.145L222.594 51.5258Z" fill="url(#paint3_linear)"/>
<path d="M222.706 51.378L112.898 62.9824L118.717 117.724L228.524 106.119L222.706 51.378Z" fill="url(#paint4_linear)"/>
<path d="M221.311 52.7848L114.559 64.0664L129.469 204.344L236.221 193.062L221.311 52.7848Z" fill="#F5F5F5"/>
<path d="M221.42 52.6397L114.422 63.9473L120.105 117.412L227.103 106.105L221.42 52.6397Z" fill="#3F93CD"/>
<path d="M173.24 127.052L144.215 130.119L144.449 132.326L173.474 129.258L173.24 127.052Z" fill="#BDBDBD"/>
<path d="M174.177 135.881L145.152 138.948L145.387 141.155L174.412 138.087L174.177 135.881Z" fill="#F5F5F5"/>
<path d="M220.444 126.528L144.684 134.534L144.918 136.741L220.678 128.734L220.444 126.528Z" fill="#69F0AE"/>
<path d="M187.513 76.4366L158.488 79.5039L158.723 81.7105L187.748 78.6431L187.513 76.4366Z" fill="white"/>
<path d="M205.739 79.4721L159.004 84.4111L159.238 86.6177L205.974 81.6787L205.739 79.4721Z" fill="white"/>
<path opacity="0.2" d="M196.519 86.8903L169.576 89.7377C169.001 89.7984 168.585 90.3123 168.645 90.8855L168.685 91.2616C168.746 91.8348 169.262 92.2502 169.837 92.1894L196.78 89.3421C197.355 89.2813 197.771 88.7674 197.71 88.1943L197.67 87.8181C197.609 87.2449 197.094 86.8296 196.519 86.8903Z" fill="black"/>
<path d="M132.614 139.159C135.467 138.858 137.536 136.307 137.233 133.461C136.931 130.616 134.372 128.554 131.519 128.855C128.665 129.157 126.597 131.708 126.899 134.553C127.202 137.399 129.76 139.461 132.614 139.159Z" fill="#69F0AE"/>
<path d="M175.509 148.388L146.484 151.455L146.719 153.662L175.744 150.594L175.509 148.388Z" fill="#BDBDBD"/>
<path d="M176.451 157.217L147.426 160.284L147.66 162.491L176.685 159.423L176.451 157.217Z" fill="#F5F5F5"/>
<path d="M222.713 147.864L146.953 155.87L147.188 158.077L222.948 150.07L222.713 147.864Z" fill="#E0E0E0"/>
<path d="M134.883 160.494C137.737 160.193 139.805 157.642 139.503 154.796C139.2 151.951 136.642 149.889 133.788 150.19C130.934 150.492 128.866 153.043 129.169 155.888C129.471 158.734 132.03 160.796 134.883 160.494Z" fill="#E0E0E0"/>
<path d="M177.775 169.724L148.75 172.791L148.985 174.998L178.009 171.93L177.775 169.724Z" fill="#BDBDBD"/>
<path d="M178.712 178.553L149.688 181.62L149.922 183.827L178.947 180.759L178.712 178.553Z" fill="#F5F5F5"/>
<path d="M224.983 169.2L149.223 177.206L149.457 179.413L225.217 171.406L224.983 169.2Z" fill="#E0E0E0"/>
<path d="M137.153 181.831C140.007 181.53 142.075 178.979 141.772 176.133C141.47 173.288 138.911 171.226 136.058 171.527C133.204 171.829 131.136 174.38 131.438 177.225C131.741 180.071 134.299 182.133 137.153 181.831Z" fill="#E0E0E0"/>
<path d="M122.04 89.2269C122.346 91.824 123.361 94.2874 124.975 96.3486C126.589 98.4097 128.74 99.9894 131.192 100.915C133.645 101.841 136.305 102.078 138.884 101.6C141.462 101.121 143.859 99.9459 145.813 98.2022C147.767 96.4585 149.204 94.2131 149.966 91.7111C150.728 89.209 150.787 86.5463 150.135 84.0133C149.484 81.4804 148.147 79.1745 146.271 77.3471C144.395 75.5197 142.052 74.241 139.498 73.6504L139.931 77.3047C140.074 78.5735 139.709 79.8471 138.915 80.8493C138.122 81.8515 136.965 82.5013 135.694 82.6579V82.6579C134.417 82.8046 133.134 82.4415 132.125 81.6479C131.116 80.8544 130.463 79.6948 130.308 78.4226L129.875 74.7683C127.235 76.081 125.066 78.1741 123.664 80.7619C122.261 83.3496 121.694 86.3058 122.04 89.2269Z" fill="url(#paint5_linear)"/>
<path d="M150.37 84.7256C150.093 82.126 149.105 79.6522 147.515 77.5738C145.925 75.4954 143.793 73.8923 141.351 72.9391C138.91 71.9859 136.253 71.7193 133.67 72.1682C131.087 72.6172 128.678 73.7645 126.704 75.4852C124.73 77.2059 123.268 79.4338 122.476 81.9261C121.685 84.4185 121.595 87.0796 122.216 89.6194C122.838 92.1592 124.146 94.4802 126 96.3294C127.853 98.1785 130.18 99.4849 132.726 100.106L132.337 96.4485C132.205 95.1737 132.584 93.8986 133.392 92.9019C134.2 91.9051 135.371 91.2678 136.649 91.1291V91.1291C137.927 90.9975 139.206 91.3759 140.206 92.1815C141.205 92.9871 141.845 94.1544 141.984 95.4285L142.373 99.0862C145.026 97.8037 147.217 95.7365 148.649 93.1665C150.08 90.5965 150.681 87.6488 150.37 84.7256V84.7256Z" fill="#3F93CD"/>
<path d="M136.513 89.7324C139.536 89.4129 141.726 86.7105 141.406 83.6963C141.086 80.6821 138.375 78.4976 135.352 78.8171C132.329 79.1365 130.139 81.839 130.459 84.8532C130.779 87.8674 133.49 90.0519 136.513 89.7324Z" fill="white" stroke="white" stroke-miterlimit="10"/>
<path d="M136.65 91.1291C135.372 91.2678 134.202 91.9051 133.394 92.9019C132.586 93.8986 132.206 95.1737 132.338 96.4485L132.728 100.106C135.964 100.893 139.374 100.535 142.374 99.0929L141.985 95.4352C141.847 94.16 141.209 92.9909 140.209 92.1839C139.209 91.3769 137.93 90.9976 136.65 91.1291Z" fill="white" stroke="white" stroke-miterlimit="10"/>
<path d="M130.376 84.5564C129.847 83.7564 129.544 82.8288 129.499 81.8714C129.461 80.909 129.801 79.9696 130.447 79.2539C131.172 78.4906 132.229 78.136 133.266 77.9435C134.302 77.751 135.355 77.7037 136.372 77.366C137.204 77.1046 137.975 76.6809 138.641 76.1197C139.308 75.5585 139.856 74.8708 140.253 74.0967C140.441 74.8838 140.52 75.6929 140.487 76.5014C140.468 76.9061 140.366 77.3027 140.188 77.6668C140.01 78.031 139.759 78.355 139.451 78.619C140.24 78.1462 140.247 79.0547 140.128 79.6153C140.592 80.0679 141.601 80.0442 141.723 80.6826C141.877 81.3128 141.877 81.9707 141.723 82.6009C141.534 83.219 141.916 84.2356 141.276 84.347" fill="white"/>
<path d="M130.376 84.5564C129.847 83.7564 129.544 82.8288 129.499 81.8714C129.461 80.909 129.801 79.9696 130.447 79.2539C131.172 78.4906 132.229 78.136 133.266 77.9435C134.302 77.751 135.355 77.7037 136.372 77.366C137.204 77.1046 137.975 76.6809 138.641 76.1197C139.308 75.5585 139.856 74.8708 140.253 74.0967C140.441 74.8838 140.52 75.6929 140.487 76.5014C140.468 76.9061 140.366 77.3027 140.188 77.6668C140.01 78.031 139.759 78.355 139.451 78.619C140.24 78.1462 140.247 79.0547 140.128 79.6153C140.592 80.0679 141.601 80.0442 141.723 80.6826C141.877 81.3128 141.877 81.9707 141.723 82.6009C141.534 83.219 141.916 84.2356 141.276 84.347" stroke="white" stroke-miterlimit="10"/>
<path d="M139.734 78.4668C139.734 78.4668 143.589 78.3959 141.472 84.3367Z" fill="white"/>
<path d="M184.789 0.134766H74.6211V144.558H184.789V0.134766Z" fill="url(#paint6_linear)"/>
<path d="M184.91 0H74.4883V55.048H184.91V0Z" fill="url(#paint7_linear)"/>
<path d="M183.377 1.25293H76.0273V142.316H183.377V1.25293Z" fill="#F5F5F5"/>
<path d="M183.503 1.12109H75.9062V54.8856H183.503V1.12109Z" fill="#3F93CD"/>
<path d="M127.722 70.0537H98.5352V72.2727H127.722V70.0537Z" fill="#BDBDBD"/>
<path d="M127.722 78.9326H98.5352V81.1515H127.722V78.9326Z" fill="#F5F5F5"/>
<path d="M174.72 74.4951H98.5352V76.714H174.72V74.4951Z" fill="#3FCDC4"/>
<path d="M147.265 21.2236H118.078V23.4426H147.265V21.2236Z" fill="white"/>
<path d="M165.075 26.1543H118.078V28.3732H165.075V26.1543Z" fill="white"/>
<path opacity="0.2" d="M155.121 32.5684H128.027C127.449 32.5684 126.98 33.0356 126.98 33.612V33.9902C126.98 34.5666 127.449 35.0339 128.027 35.0339H155.121C155.699 35.0339 156.168 34.5666 156.168 33.9902V33.612C156.168 33.0356 155.699 32.5684 155.121 32.5684Z" fill="black"/>
<path d="M86.0475 77.8247C88.9172 77.8247 91.2435 75.5051 91.2435 72.6438C91.2435 69.7825 88.9172 67.4629 86.0475 67.4629C83.1779 67.4629 80.8516 69.7825 80.8516 72.6438C80.8516 75.5051 83.1779 77.8247 86.0475 77.8247Z" fill="#3FCDC4"/>
<path d="M127.722 91.5098H98.5352V93.7287H127.722V91.5098Z" fill="#BDBDBD"/>
<path d="M127.722 100.389H98.5352V102.608H127.722V100.389Z" fill="#F5F5F5"/>
<path d="M174.72 95.9512H98.5352V98.1701H174.72V95.9512Z" fill="#E0E0E0"/>
<path d="M86.0475 99.2817C88.9172 99.2817 91.2435 96.9622 91.2435 94.1008C91.2435 91.2395 88.9172 88.9199 86.0475 88.9199C83.1779 88.9199 80.8516 91.2395 80.8516 94.1008C80.8516 96.9622 83.1779 99.2817 86.0475 99.2817Z" fill="#E0E0E0"/>
<path d="M127.722 112.97H98.5352V115.189H127.722V112.97Z" fill="#BDBDBD"/>
<path d="M127.722 121.846H98.5352V124.065H127.722V121.846Z" fill="#F5F5F5"/>
<path d="M174.72 117.408H98.5352V119.627H174.72V117.408Z" fill="#E0E0E0"/>
<path d="M86.0475 120.738C88.9172 120.738 91.2435 118.418 91.2435 115.557C91.2435 112.696 88.9172 110.376 86.0475 110.376C83.1779 110.376 80.8516 112.696 80.8516 115.557C80.8516 118.418 83.1779 120.738 86.0475 120.738Z" fill="#E0E0E0"/>
<path d="M109.458 25.5603C109.457 22.9461 108.736 20.3824 107.374 18.1487C106.012 15.9149 104.062 14.0968 101.735 12.8925C99.4076 11.6883 96.7937 11.144 94.1778 11.3192C91.5619 11.4944 89.0445 12.3822 86.8999 13.8859C84.7552 15.3896 83.0658 17.4514 82.0156 19.8467C80.9654 22.242 80.5948 24.8788 80.9442 27.4697C81.2935 30.0605 82.3495 32.506 83.997 34.5396C85.6444 36.5732 87.8202 38.1169 90.287 39.0023V35.3209C90.2905 34.0393 90.8027 32.8112 91.7116 31.905C92.6204 30.9988 93.8521 30.4881 95.1374 30.4845C96.4227 30.4881 97.6544 30.9988 98.5632 31.905C99.4721 32.8112 99.9843 34.0393 99.9878 35.3209V38.9989C102.761 38.0024 105.159 36.1773 106.854 33.7723C108.548 31.3673 109.458 28.4996 109.458 25.5603Z" fill="#3F93CD"/>
<path d="M64.5581 102.922L40.4515 86.0928H7.07422V102.922V111.166V252H215.677V102.922H64.5581Z" fill="url(#paint8_linear)"/>
<path d="M8.85938 104.624V112.628V249.335H214.248V104.624H65.4592" fill="white"/>
<path d="M65.4592 104.624L41.7218 88.2881H8.85938V104.624" fill="#BDBDBD"/>
<path d="M168.12 125.979H54.9883V227.976H168.12V125.979Z" fill="url(#paint9_linear)"/>
<path d="M167.092 126.723H56.5273V226.122H167.092V126.723Z" fill="white"/>
<path d="M134.315 165.675H90.8438V169.224H134.315V165.675Z" fill="#BDBDBD"/>
<path d="M159.299 172.777H64.3086V176.327H159.299V172.777Z" fill="#E0E0E0"/>
<path d="M159.299 179.88H64.3086V183.43H159.299V179.88Z" fill="#E0E0E0"/>
</g>
<defs>
<linearGradient id="paint0_linear" x1="92.01" y1="169.783" x2="53.1119" y2="31.0779" gradientUnits="userSpaceOnUse">
<stop stop-color="#808080" stop-opacity="0.25"/>
<stop offset="0.54" stop-color="#808080" stop-opacity="0.12"/>
<stop offset="1" stop-color="#808080" stop-opacity="0.1"/>
</linearGradient>
<linearGradient id="paint1_linear" x1="67.8644" y1="85.0675" x2="53.3102" y2="31.9668" gradientUnits="userSpaceOnUse">
<stop stop-color="#B3B3B3" stop-opacity="0.25"/>
<stop offset="0.54" stop-color="#B3B3B3" stop-opacity="0.1"/>
<stop offset="1" stop-color="#B3B3B3" stop-opacity="0.05"/>
</linearGradient>
<linearGradient id="paint2_linear" x1="42245" y1="103456" x2="42245" y2="41451.9" gradientUnits="userSpaceOnUse">
<stop stop-color="#808080" stop-opacity="0.25"/>
<stop offset="0.54" stop-color="#808080" stop-opacity="0.12"/>
<stop offset="1" stop-color="#808080" stop-opacity="0.1"/>
</linearGradient>
<linearGradient id="paint3_linear" x1="91173.2" y1="88137.9" x2="84682.6" y2="26719.5" gradientUnits="userSpaceOnUse">
<stop stop-color="#808080" stop-opacity="0.25"/>
<stop offset="0.54" stop-color="#808080" stop-opacity="0.12"/>
<stop offset="1" stop-color="#808080" stop-opacity="0.1"/>
</linearGradient>
<linearGradient id="paint4_linear" x1="83457.4" y1="13822" x2="82514.5" y2="4899.73" gradientUnits="userSpaceOnUse">
<stop stop-color="#B3B3B3" stop-opacity="0.25"/>
<stop offset="0.54" stop-color="#B3B3B3" stop-opacity="0.1"/>
<stop offset="1" stop-color="#B3B3B3" stop-opacity="0.05"/>
</linearGradient>
<linearGradient id="paint5_linear" x1="-18365.6" y1="-7046.53" x2="-18733.4" y2="-9347.25" gradientUnits="userSpaceOnUse">
<stop stop-opacity="0.12"/>
<stop offset="0.55" stop-opacity="0.09"/>
<stop offset="1" stop-opacity="0.02"/>
</linearGradient>
<linearGradient id="paint6_linear" x1="42260.2" y1="61817.8" x2="42260.2" y2="57.9071" gradientUnits="userSpaceOnUse">
<stop stop-color="#808080" stop-opacity="0.25"/>
<stop offset="0.54" stop-color="#808080" stop-opacity="0.12"/>
<stop offset="1" stop-color="#808080" stop-opacity="0.1"/>
</linearGradient>
<linearGradient id="paint7_linear" x1="42357.3" y1="8972.27" x2="42357.3" y2="0" gradientUnits="userSpaceOnUse">
<stop stop-color="#B3B3B3" stop-opacity="0.25"/>
<stop offset="0.54" stop-color="#B3B3B3" stop-opacity="0.1"/>
<stop offset="1" stop-color="#B3B3B3" stop-opacity="0.05"/>
</linearGradient>
<linearGradient id="paint8_linear" x1="68597.8" y1="123876" x2="68597.8" y2="42377.5" gradientUnits="userSpaceOnUse">
<stop stop-color="#808080" stop-opacity="0.25"/>
<stop offset="0.54" stop-color="#808080" stop-opacity="0.12"/>
<stop offset="1" stop-color="#808080" stop-opacity="0.1"/>
</linearGradient>
<linearGradient id="paint9_linear" x1="37313.8" y1="68974.9" x2="37313.8" y2="38171.9" gradientUnits="userSpaceOnUse">
<stop stop-color="#808080" stop-opacity="0.25"/>
<stop offset="0.54" stop-color="#808080" stop-opacity="0.12"/>
<stop offset="1" stop-color="#808080" stop-opacity="0.1"/>
</linearGradient>
<clipPath id="clip0">
<rect width="247" height="252" fill="white"/>
</clipPath>
</defs>
</svg>
