<svg xmlns="http://www.w3.org/2000/svg" width="640" height="471.114" viewBox="0 0 640 471.114"><defs><style>.a{opacity:0.17;}.b{fill:#fff;}.c{fill:#484b50;}.d{fill:#eee;}.e{opacity:0.32;}.f{fill:#7fa2e9;}.g{fill:#ed8152;}.h{opacity:0.35;}.i{fill:#ddd;}.j{fill:#0b5753;}.k{fill:#f5c5ce;}.l{fill:#e2aab7;}.m{fill:#e6f0ff;}.n{opacity:0.24;}.o{fill:#1d2465;}.p{opacity:0.45;}.q{fill:#aaa;}.r{opacity:0.12;}.s{fill:#315589;}.t{opacity:0.29;}.u{fill:#ccc;}.v{opacity:0.16;}.w{opacity:0.2;}.x{fill:#dc2337;}</style></defs><g class="a" transform="translate(474.566 47.025)"><rect class="b" width="63.245" height="69.027" transform="translate(0 0.863)"/><rect class="b" width="63.245" height="69.027" transform="translate(72.693)"/><rect class="b" width="63.245" height="69.027" transform="translate(72.693 77.656)"/><rect class="b" width="63.245" height="69.027" transform="translate(0.646 78.304)"/></g><g class="a" transform="translate(475.515 202.336)"><rect class="b" width="63.245" height="69.027" transform="translate(0 0.864)"/><rect class="b" width="63.245" height="69.027" transform="translate(72.695)"/><rect class="b" width="63.245" height="69.027" transform="translate(72.695 77.657)"/><rect class="b" width="63.245" height="69.027" transform="translate(0.648 78.304)"/></g><rect class="c" width="44.868" height="146.684" transform="translate(576.38 315.801)"/><path class="d" d="M3531.8,1244.93c-7.026,10.92-20.357,14.86-29.772,8.8s-11.355-19.819-4.331-30.746,26.634-26.212,36.052-20.153S3538.825,1234.015,3531.8,1244.93Z" transform="translate(-2899.156 -997.063)"/><path class="d" d="M3193.967,1277.137c8.76,9.586,9.162,23.477.9,31.036s-22.069,5.91-30.83-3.677-18.529-32.451-10.269-40S3185.207,1267.556,3193.967,1277.137Z" transform="translate(-2614.648 -1047.248)"/><path class="b" d="M3609.463,1562.093c-3.986,7.3-12.324,10.437-18.621,7s-8.166-12.145-4.185-19.448,15.813-17.98,22.116-14.542S3613.451,1554.8,3609.463,1562.093Z" transform="translate(-2974.751 -1273.396)"/><path class="c" d="M3400.2,1186.229c.715,11.2-6.535,20.779-16.194,21.4s-18.069-7.963-18.783-19.163,5.077-31.894,14.736-32.512S3399.482,1175.03,3400.2,1186.229Z" transform="translate(-2792.674 -959.286)"/><path class="c" d="M3519.176,1435.148c-.017-.34-1.686-33.968,2.167-54.519,3.862-20.595,16.359-41.015,16.483-41.219l1.164.718c-.124.2-12.49,20.415-16.3,40.751-3.824,20.394-2.164,53.864-2.147,54.2Z" transform="translate(-2920.176 -1111.547)"/><path class="c" d="M3323.424,1500.535l-1.361-.075c0-.155.779-15.781-5.592-43.381a116.681,116.681,0,0,0-22.711-46.293l1.021-.905a118.126,118.126,0,0,1,23.017,46.892C3324.219,1484.584,3323.433,1500.378,3323.424,1500.535Z" transform="translate(-2733.419 -1170.029)"/><path class="c" d="M3583.427,1689.591c-2.152-23.251,14.168-50.617,14.333-50.891l1.169.7c-.162.271-16.252,27.26-14.141,50.062Z" transform="translate(-2973.645 -1359.921)"/><path class="d" d="M3287.468,1594.482c2.976,5.653,9.2,8.079,13.9,5.418s6.1-9.4,3.123-15.057-11.8-13.919-16.5-11.259S3284.493,1588.829,3287.468,1594.482Z" transform="translate(-2726.018 -1305.457)"/><path class="c" d="M3351.955,1687.117l-1.361-.122c2.042-22.818-13.477-49.8-13.634-50.074l1.183-.68C3338.3,1636.509,3354.027,1663.872,3351.955,1687.117Z" transform="translate(-2769.27 -1357.88)"/><path class="c" d="M3467.051,1443.87h-1.361c0-18.326-2.989-94.123-3.02-94.887l1.361-.053C3464.06,1349.7,3467.051,1425.524,3467.051,1443.87Z" transform="translate(-2873.594 -1119.448)"/><g class="e" transform="translate(137.688 49.725)"><rect class="b" width="67.008" height="415.446"/></g><g class="e" transform="translate(13.421 45.802)"><rect class="b" width="67.008" height="419.422"/></g><path class="d" d="M577.254,689.808H444.12v-421H577.254Zm-123.48-12.86H567.608V281.67H453.774Z" transform="translate(-368.565 -223.08)"/><path class="d" d="M472.362,934.579l-.071-12.861L595.77,920.5l.071,12.861Z" transform="translate(-391.943 -763.903)"/><path class="d" d="M461.463,1580.334l-.143-12.858,124.4-2.436.141,12.858Z" transform="translate(-382.839 -1298.792)"/><path class="d" d="M477.732,2259.45l-.071-12.861,124.4-1.218.071,12.861Z" transform="translate(-396.4 -1863.384)"/><g class="e" transform="translate(317.283 133.029)"><rect class="b" width="53.206" height="329.873"/></g><g class="e" transform="translate(218.612 129.915)"><rect class="b" width="53.206" height="333.031"/></g><path class="d" d="M1680.717,1097.6H1575V763.32h105.712Zm-98.046-10.207h90.381V773.532h-90.381Z" transform="translate(-1307.058 -633.463)"/><path class="d" d="M1597.448,1291.959l-.058-10.211,98.046-.968.056,10.211Z" transform="translate(-1325.639 -1062.891)"/><path class="f" d="M1588.8,1804.7l-.112-10.209,98.773-1.934.112,10.209Z" transform="translate(-1318.419 -1487.606)"/><path class="d" d="M1601.718,2343.939l-.058-10.212,98.773-.967.058,10.211Z" transform="translate(-1329.183 -1935.906)"/><path class="g" d="M717.34,2043.31l-42.77,119.043h8.052l47.17-113.9Z" transform="translate(-559.811 -1695.698)"/><path class="g" d="M1310.454,2182.345,1300.1,2279.56h7.479l20.709-97.79Z" transform="translate(-1078.924 -1810.603)"/><path class="g" d="M1783.63,2162.055l28.761,96.639,7.477-.574-18.407-96.64Z" transform="translate(-1480.195 -1793.765)"/><g class="h" transform="translate(241.885 370.017)"><path class="g" d="M1440.237,2175.01l16.105,93.763-10.354.575-24.159-93.187Z" transform="translate(-1421.83 -2175.01)"/></g><path class="i" d="M770.52,1254.713,801,1375.738l129.094-6.276L885.271,1250.23Z" transform="translate(-639.438 -1037.539)"/><path class="b" d="M1005.272,1983.364l-55.582-26,129.094-6.276,55.582,26.895Z" transform="translate(-788.127 -1619.167)"/><path class="d" d="M748.653,1276.58l-4.483,10.757,30.93,119.681,4.034-9.413Z" transform="translate(-617.57 -1059.406)"/><path class="d" d="M985.6,2013.978l-1.456,8.292-58.159-24.877,4.034-9.413Z" transform="translate(-768.451 -1649.781)"/><path class="d" d="M1398.4,2109.18l-.784,8.629-129.766,5.042,1.456-8.292Z" transform="translate(-1052.161 -1750.362)"/><path class="j" d="M946.312,1222.33s-11.216,15.532-15.53,34.082-6.465,19.846,3.452,38.829-.864,27.181,1.293,38.4a57.028,57.028,0,0,0,6.9,18.552l116.052-6.9-44.005-122.093Z" transform="translate(-769.43 -1014.385)"/><rect class="k" width="12.075" height="22.167" transform="matrix(0.849, -0.528, 0.528, 0.849, 352.568, 427.085)"/><path class="g" d="M2149.943,2558.3l17.934,9.239s15.924-22.954,31.217-4.461l-45.5,28.3-12.341-24.413S2149.373,2563.276,2149.943,2558.3Z" transform="translate(-1776.976 -2121.066)"/><rect width="6.483" height="1.366" transform="matrix(0.557, -0.831, 0.831, 0.557, 376.679, 446.351)"/><rect width="7.564" height="1.366" transform="matrix(0.527, -0.85, 0.85, 0.527, 382.148, 450.407)"/><path class="l" d="M2119.191,2530.88l-6.725,11.971-3.646-5.861Z" transform="translate(-1750.063 -2100.322)"/><rect class="k" width="12.075" height="22.167" transform="translate(404.796 408.712) rotate(-37.73)"/><path class="g" d="M2466.979,2419.6l18.783,7.373s13.5-24.458,30.6-7.62l-42.379,32.784-14.763-23.026S2466.925,2424.6,2466.979,2419.6Z" transform="translate(-2040.853 -2002.857)"/><rect width="6.482" height="1.366" transform="translate(430.746 425.422) rotate(-61.93)"/><rect width="7.562" height="1.364" transform="translate(436.579 428.842) rotate(-64.04)"/><path class="l" d="M2431.083,2412.92l-5.469,12.594-4.224-5.459Z" transform="translate(-2009.458 -2002.429)"/><path class="b" d="M1088.073,1080.372l-27.362,12.815,15.586,124.688,71.348-18.7-14.2-112.565-25.283-7.967Z" transform="translate(-880.26 -895.14)"/><path class="b" d="M1505.577,1216.236l-3.1-4.837-.014-.014-.68-1.065-3.5-5.459-.014-.054-3.455-27.434-6.545-51.874s33.689,26.582,44.526,80.723c.17.851.34,1.7.51,2.569C1536.059,1223.86,1516.905,1229.174,1505.577,1216.236Z" transform="translate(-1235.083 -934.028)"/><path class="c" d="M1346.709,1220.64,1341.1,1281.9l34.082,3.02,16.466-63.779Z" transform="translate(-1112.949 -1012.982)"/><path class="b" d="M1511.71,1462.08c-5.917,1.844-13.812.013-19.632-6.635l-3.1-4.837-.014-.013-.68-1.065-3.511-5.519L1472,1423.9l9.317-7.315,3.607-2.841,28.716,26.476,5.653,5.211c.17.851.34,1.7.51,2.569C1521.136,1455.318,1517.3,1460.331,1511.71,1462.08Z" transform="translate(-1221.581 -1173.232)"/><path class="c" d="M1143.452,1784.381s100.309-10.08,112.5-4.083,63.266,127.92,63.266,127.92l-15.7,7.4s-51.277-64.788-64.477-105.426C1239.039,1810.187,1134.878,1878.246,1143.452,1784.381Z" transform="translate(-948.51 -1475.85)"/><path class="c" d="M1330.21,1778.325s95.8-31.4,109-28.16,89.281,111.333,89.281,111.333l-13.746,10.59s-65.456-53.757-87.089-90.615C1427.654,1781.472,1379.748,1774.963,1330.21,1778.325Z" transform="translate(-1103.912 -1452.228)"/><path class="k" d="M1343,1467.058l3.365-6.043,5.748-4.376s1.1,2.579.368,3.976a9.921,9.921,0,0,1-2.747,2.742l10.246-2.421s2,6,.17,9.74-12.295,7.232-12.295,7.232" transform="translate(-1114.526 -1208.833)"/><path class="k" d="M1453.666,1365.715v-6.325l-2.892-6s-2.212,1.611-2.256,3.062a8.292,8.292,0,0,0,1.06,3.4l-7.758-6.346s-4.665,4-4.9,7.8,7.2,11.113,7.2,11.113Z" transform="translate(-1192.467 -1123.149)"/><rect class="m" width="11.109" height="1.366" transform="matrix(0.363, -0.932, 0.932, 0.363, 305.288, 310.565)"/><rect class="m" width="12.31" height="1.366" transform="translate(308.269 312.686) rotate(-52.62)"/><rect class="m" width="9.364" height="1.366" transform="translate(337.065 304.575) rotate(-47.46)"/><rect class="m" width="10.291" height="1.366" transform="translate(334.1 300.78) rotate(-63.43)"/><path class="k" d="M1240.683,1024.13l-23.2,1.885,2.469-20.845h17.34Z" transform="translate(-1010.36 -834.169)"/><ellipse class="k" cx="9.02" cy="7.346" rx="9.02" ry="7.346" transform="translate(227.724 137.047)"/><ellipse class="k" cx="9.018" cy="7.346" rx="9.018" ry="7.346" transform="translate(182.102 137.047)"/><path class="c" d="M1112.005,829.4c-.071-.155-1.8-3.772-6.8-2.763l-.271-1.341c6.124-1.232,8.3,3.493,8.326,3.542l-1.247.558.625-.279Z" transform="translate(-916.957 -684.729)"/><path class="c" d="M1110.632,841.682c-.094-3.532,3.573-5.161,5.519-5.532l.255,1.342c-.184.036-4.495.9-4.408,4.153Z" transform="translate(-921.687 -693.902)"/><path class="k" d="M1149.616,676.492s-10.163,44.281,24.137,38.278c19.265-3.37,16.893-17.182,13.721-32.073a45.655,45.655,0,0,1-.255-18l-21.1-15.934-14.729,10.759Z" transform="translate(-952.873 -538.392)"/><path class="c" d="M1129.055,613.321s-7.115-5.173-5.337-19.244,9.654-15.518,24.137-12,22.953-5.379,25.069-9.1,23.356,25.212-12.111,30.212c-13.212,1.871-28.262-5.784-28.262-5.784S1134.9,610.837,1129.055,613.321Z" transform="translate(-932.313 -475.221)"/><path class="c" d="M1377,833.911l-1.036-.89c1.361-1.582,4.86-3.949,8.421-1.6l-.754,1.138C1380.189,830.291,1377.125,833.761,1377,833.911Z" transform="translate(-1141.879 -689.157)"/><path class="c" d="M1393.192,839.291c-.42-1.021-2.409-2.453-3.562-3.11l.681-1.191c.348.2,3.42,1.983,4.154,3.78Z" transform="translate(-1153.224 -692.94)"/><path class="c" d="M1194.313,1013c-10.753,0-14.023-5.066-14.193-5.345l1.162-.716c.051.08,5.3,8,24.729,3.049l.34,1.324A49.137,49.137,0,0,1,1194.313,1013Z" transform="translate(-979.356 -835.637)"/><path class="k" d="M1239.26,1095.1l8.142,7.009,7.334-7.118s-2.642-2-3.4-2.382S1239.26,1095.1,1239.26,1095.1Z" transform="translate(-1028.435 -906.7)"/><path class="c" d="M1191.8,1084.7l-6.812,10.845,6.812-1.1v11.849l11.662-6.427.23-5.422Z" transform="translate(-983.397 -900.169)"/><path class="c" d="M1298.518,1078.64l8.775,9.236-6.7,1.04,1.73,10.275-12.237-3.656.231-6.62Z" transform="translate(-1070.617 -895.14)"/><path class="c" d="M1231.6,1206.1c-15.069,63.553,26.845,86.553,26.845,86.553l-4.5,11.553-16.3,2.189c-41.372-36.576-14.239-100.3-14.239-100.3Z" transform="translate(-1008.021 -1000.916)"/><path class="c" d="M1261.76,1175.329l.432,3.343,8.089.432,2.264-4.746-5.932-2.588Z" transform="translate(-1047.107 -972.426)"/><path class="b" d="M1020.879,1238.991s-28.485,25.753-50.234,29.865c-11.954,2.281-21.872-2.007-23.866-20.738,0-.041-.014-.083-.014-.122-5.548-52.995,18.7-83.816,18.7-83.816l9.209,73.632,37.2-15.808Z" transform="translate(-785.016 -966.127)"/><circle class="b" cx="1.725" cy="1.725" r="1.725" transform="translate(251.669 220.889) rotate(-45)"/><path class="c" d="M1090.711,1389.726l-.881-42.337,1.366-.029.844,40.494,25.584-8.341.424,1.3Z" transform="translate(-904.426 -1118.145)"/><path class="c" d="M1096.426,1526.862l-1.286-.459,4.6-12.943,1.286.459Z" transform="translate(-908.833 -1255.987)"/><g class="n" transform="translate(154.018 347.612)"><path class="o" d="M908.851,2043.31l-3.511,44.119,15.962-38.971Z" transform="translate(-905.34 -2043.31)"/></g><g class="n" transform="translate(226.927 371.167)"><path class="o" d="M1356.346,2181.77l-22.436,45.156,4.6-44.58Z" transform="translate(-1333.91 -2181.77)"/></g><g class="p" transform="translate(131.082 217.174)"><path class="d" d="M770.52,1276.58l26.447,130.438L801,1397.6Z" transform="translate(-770.52 -1276.58)"/></g><path class="q" d="M2059.269,1532.915l-62.557,209.67-3.452.432,62.256-210.378Z" transform="translate(-1654.163 -1271.904)"/><path class="q" d="M3213.55,1532.152l62.988,201.474-3.019.862-62.987-202.768Z" transform="translate(-2664.348 -1271.141)"/><g class="r" transform="translate(446.953 260.579)"><path class="s" d="M2726.479,1531.72l-77.225,74.636-22-74.636Z" transform="translate(-2627.25 -1531.72)"/></g><path class="d" d="M1466.245,1527.669l-62.256,210.378h-120.8l77.657-211.4Z" transform="translate(-1064.891 -1266.933)"/><g class="t" transform="translate(253.676 259.717)"><path class="b" d="M1638.818,1527.669,1491.14,1642.847l42.28-116.2Z" transform="translate(-1491.14 -1526.65)"/></g><path class="d" d="M2627.25,1531.72l58.673,203.631,103.544-.863-62.988-202.768Z" transform="translate(-2180.297 -1271.141)"/><rect class="u" width="121.217" height="12.273" transform="translate(280.137 248.463)"/><rect class="i" width="183.352" height="12.543" transform="translate(378.789 248.356)"/><path class="i" d="M2265.711,777.69,2239.25,858.8l127.7.577,28.186-81.684Z" transform="translate(-1858.304 -645.388)"/><g class="v" transform="translate(446.953 260.579)"><path class="b" d="M2627.25,1531.72l22,74.636,77.225-74.636Z" transform="translate(-2627.25 -1531.72)"/></g><path class="u" d="M2512.972,1134.42l13.231,5.752-18.982,49.47,28.186-.575,19.557-50.62Z" transform="translate(-2080.687 -941.43)"/><path class="q" d="M2494.731,1134.42l8.844,6.975-18.336,48.1,3.739.143,18.982-49.47Z" transform="translate(-2062.446 -941.43)"/><path class="d" d="M2544.769,1135.283l38.252,3.164-7.621-3.6-34.37-.43Z" transform="translate(-2108.745 -941.43)"/><path class="q" d="M2146.69,1406.129l9.2-10.641,100.377-.287,8.916,11.505Z" transform="translate(-1781.491 -1157.846)"/><path class="u" d="M2216.85,1406.55l9.2-10.643,100.379-.287,8.915,11.505Z" transform="translate(-1839.715 -1158.194)"/><g class="w"><path class="b" d="M380.946,213.41,0,394.321,1.725,0,407.407,132.3Z"/></g><path class="x" d="M2820.063,854.865l-1.291-.444,27.876-80.781-62.178-.284,0-1.366,64.085.291Z" transform="translate(-2310.77 -640.658)"/><rect class="q" width="126.494" height="1.366" transform="translate(114.137 466.4) rotate(-70.26)"/><path class="x" d="M141.636,2306.771,78.8,2305.25l.031-1.366,61.431,1.485-.481-88.96,1.364-.009Z" transform="translate(-65.394 -1839.342)"/></svg>