<svg width="354" height="261" viewBox="0 0 354 261" fill="none" xmlns="http://www.w3.org/2000/svg">
<path opacity="0.1" d="M154.311 8.52906C142.238 3.62691 129.48 -0.477146 116.455 0.045188C97.2916 0.797868 78.9368 12.3022 69.9202 29.1953C62.2808 43.506 61.3388 60.2823 58.0485 76.1632C53.995 95.7329 46.2321 114.329 37.9366 132.517C33.4802 142.272 28.7803 152.265 28.0495 162.974C27.0328 177.84 34.1493 192.657 45.3064 202.555C56.4635 212.453 71.2909 217.66 86.1573 218.799C94.0728 219.406 102.342 218.845 109.374 215.166C116.812 211.272 122.233 204.236 129.701 200.401C136.622 196.832 144.717 196.345 152.486 196.809C162.662 197.418 172.69 199.546 182.235 203.123C193.093 207.198 203.191 213.096 214.027 217.226C224.862 221.356 236.968 223.662 248.044 220.214C258.438 216.969 266.668 209.118 274.084 201.153C286.255 188.08 297.355 174.052 307.279 159.205C313.966 149.199 320.19 138.642 323.149 126.979C328.8 104.684 321.021 79.5275 303.761 64.2987C289.47 51.6849 270.277 46.2085 251.493 42.8863C234.366 39.8561 214.563 39.6679 198.797 31.7713C183.758 24.2283 170.077 14.9333 154.311 8.52906Z" fill="#3F93CD"/>
<path d="M340.429 246.989C340.429 246.989 326.04 246.155 327.734 255.84C327.734 255.84 327.394 257.55 329.014 258.328C329.014 258.328 329.038 257.608 330.488 257.854C331.005 257.937 331.53 257.961 332.053 257.925C332.759 257.88 333.43 257.614 333.963 257.167C333.963 257.167 338.009 255.562 339.582 249.215C339.582 249.215 340.746 247.829 340.698 247.473L338.271 248.453C338.271 248.453 339.102 250.137 338.448 251.532C338.448 251.532 338.37 248.515 337.904 248.591C337.809 248.591 336.641 249.172 336.641 249.172C336.641 249.172 338.067 252.114 336.982 254.232C336.982 254.232 337.39 250.62 336.185 249.385L334.483 250.342C334.483 250.342 336.151 253.369 335.021 255.84C335.021 255.84 335.31 252.052 334.123 250.575L332.574 251.735C332.574 251.735 334.143 254.719 333.187 256.768C333.187 256.768 333.061 252.356 332.237 252.022C332.237 252.022 330.876 253.17 330.678 253.657C330.678 253.657 331.75 255.821 331.083 256.965C331.083 256.965 330.675 254.023 330.341 254.023C330.341 254.023 328.98 255.984 328.851 257.291C328.851 257.291 328.909 255.304 330.015 253.823C329.236 253.966 328.516 254.324 327.945 254.853C327.945 254.853 328.156 253.474 330.348 253.356C330.348 253.356 331.465 251.879 331.761 251.787C331.761 251.787 329.583 251.614 328.262 252.176C328.262 252.176 329.426 250.869 332.162 251.467L333.69 250.271C333.69 250.271 330.821 249.891 329.606 250.31C329.606 250.31 331.005 249.159 334.102 249.983L335.766 249.028C335.766 249.028 333.323 248.522 331.866 248.702C331.866 248.702 333.401 247.904 336.257 248.767L337.444 248.254C337.444 248.254 335.654 247.927 335.13 247.862C334.606 247.796 334.575 247.672 334.575 247.672C335.71 247.488 336.876 247.613 337.941 248.032C337.941 248.032 340.47 247.143 340.429 246.989Z" fill="#3F93CD"/>
<path opacity="0.1" d="M330.65 260.948C336.198 260.948 340.696 260.165 340.696 259.201C340.696 258.236 336.198 257.453 330.65 257.453C325.101 257.453 320.604 258.236 320.604 259.201C320.604 260.165 325.101 260.948 330.65 260.948Z" fill="#3F93CD"/>
<path d="M346.663 215.531C346.663 215.531 338.99 215.082 339.901 220.298C339.854 220.562 339.895 220.833 340.017 221.074C340.139 221.314 340.336 221.511 340.581 221.637C340.581 221.637 340.597 221.25 341.37 221.381C341.645 221.425 341.925 221.437 342.203 221.418C342.579 221.394 342.937 221.252 343.221 221.012C343.221 221.012 345.378 220.148 346.218 216.73C346.218 216.73 346.84 215.984 346.814 215.793L345.526 216.327C345.526 216.327 345.967 217.235 345.62 217.988C345.62 217.988 345.578 216.361 345.33 216.399C345.278 216.399 344.657 216.711 344.657 216.711C344.657 216.711 345.417 218.272 344.844 219.436C344.844 219.436 345.063 217.491 344.419 216.823L343.507 217.342C343.507 217.342 344.396 218.971 343.794 220.301C343.794 220.301 343.949 218.259 343.314 217.466L342.49 218.091C342.49 218.091 343.324 219.698 342.812 220.8C342.812 220.8 342.744 218.425 342.306 218.247C341.994 218.504 341.714 218.796 341.473 219.118C341.473 219.118 342.046 220.285 341.692 220.9C341.692 220.9 341.473 219.317 341.295 219.311C341.295 219.311 340.574 220.357 340.5 221.075C340.535 220.409 340.749 219.763 341.122 219.202C340.705 219.278 340.321 219.471 340.017 219.757C340.017 219.757 340.13 219.015 341.305 218.952C341.305 218.952 341.901 218.156 342.059 218.106C342.059 218.106 340.896 218.013 340.191 218.315C340.191 218.315 340.813 217.616 342.271 217.935L343.089 217.289C343.089 217.289 341.556 217.086 340.909 217.31C340.909 217.31 341.656 216.686 343.308 217.142L344.196 216.627C343.513 216.482 342.812 216.424 342.113 216.455C342.113 216.455 342.934 216.024 344.454 216.489L345.098 216.215C345.098 216.215 344.132 216.031 343.862 216.003C343.591 215.974 343.565 215.9 343.565 215.9C344.171 215.802 344.793 215.869 345.362 216.093C345.362 216.093 346.688 215.612 346.663 215.531Z" fill="#3F93CD"/>
<path opacity="0.1" d="M341.133 222.51C344.269 222.51 346.812 222.119 346.812 221.637C346.812 221.154 344.269 220.763 341.133 220.763C337.997 220.763 335.455 221.154 335.455 221.637C335.455 222.119 337.997 222.51 341.133 222.51Z" fill="#3F93CD"/>
<path d="M300.314 219.901C300.314 219.901 290.737 219.387 291.868 225.348C291.81 225.65 291.86 225.961 292.012 226.236C292.165 226.511 292.411 226.736 292.717 226.879C292.717 226.879 292.717 226.435 293.715 226.583C294.059 226.635 294.409 226.65 294.757 226.627C295.227 226.6 295.673 226.436 296.028 226.16C296.028 226.16 298.72 225.173 299.768 221.266C299.768 221.266 300.543 220.415 300.51 220.194L298.876 220.808C298.876 220.808 299.429 221.843 298.993 222.703C298.993 222.703 298.94 220.847 298.63 220.888C298.567 220.888 297.791 221.249 297.791 221.249C297.791 221.249 298.74 223.051 298.024 224.364C298.024 224.364 298.297 222.141 297.495 221.379L296.357 221.97C296.357 221.97 297.465 223.835 296.713 225.354C296.713 225.354 296.906 223.022 296.118 222.103L295.086 222.818C295.086 222.818 296.131 224.653 295.492 225.915C295.492 225.915 295.412 223.199 294.863 222.995C294.863 222.995 293.961 223.702 293.825 223.991C293.825 223.991 294.537 225.324 294.094 226.027C294.094 226.027 293.822 224.219 293.599 224.21C293.599 224.21 292.704 225.41 292.6 226.228C292.645 225.469 292.912 224.734 293.376 224.095C292.857 224.182 292.38 224.403 292.001 224.73C292.001 224.73 292.141 223.882 293.599 223.808C293.599 223.808 294.341 222.898 294.54 222.845C294.54 222.845 293.09 222.735 292.211 223.081C292.211 223.081 292.983 222.283 294.803 222.647L295.822 221.908C295.822 221.908 293.915 221.677 293.103 221.931C293.103 221.931 294.035 221.225 296.098 221.742L297.206 221.151C297.206 221.151 295.579 220.841 294.607 220.953C294.607 220.953 295.632 220.463 297.529 220.995L298.321 220.678C298.321 220.678 297.129 220.471 296.78 220.439C296.43 220.406 296.414 220.321 296.414 220.321C297.169 220.207 297.944 220.283 298.653 220.539C298.653 220.539 300.344 219.993 300.314 219.901Z" fill="#3F93CD"/>
<path opacity="0.1" d="M293.962 228.626C297.581 228.626 300.514 228.234 300.514 227.752C300.514 227.27 297.581 226.878 293.962 226.878C290.344 226.878 287.41 227.27 287.41 227.752C287.41 228.234 290.344 228.626 293.962 228.626Z" fill="#3F93CD"/>
<path opacity="0.1" d="M46.7349 216.395C49.8709 216.395 52.4132 216.004 52.4132 215.522C52.4132 215.039 49.8709 214.648 46.7349 214.648C43.5989 214.648 41.0566 215.039 41.0566 215.522C41.0566 216.004 43.5989 216.395 46.7349 216.395Z" fill="#3F93CD"/>
<path opacity="0.1" d="M26.6445 218.143C29.2981 218.143 31.4492 217.948 31.4492 217.706C31.4492 217.465 29.2981 217.27 26.6445 217.27C23.991 217.27 21.8398 217.465 21.8398 217.706C21.8398 217.948 23.991 218.143 26.6445 218.143Z" fill="#3F93CD"/>
<path opacity="0.1" d="M13.9748 223.384C15.9047 223.384 17.4691 223.188 17.4691 222.947C17.4691 222.706 15.9047 222.51 13.9748 222.51C12.0449 222.51 10.4805 222.706 10.4805 222.947C10.4805 223.188 12.0449 223.384 13.9748 223.384Z" fill="#3F93CD"/>
<path d="M26.743 218.143C26.743 218.143 34.1117 193.283 25.5889 183.325C19.2123 175.876 11.9733 176.767 8.73144 177.688C7.8932 177.918 7.11356 178.333 6.44639 178.904C5.77921 179.474 5.2404 180.187 4.86718 180.993C3.73254 183.509 3.93678 187.592 11.9376 192.359C25.3296 200.339 26.1627 211.284 26.1627 211.284L26.743 218.143Z" fill="#3F93CD"/>
<path d="M9.60938 181.452C9.60938 181.452 31.2115 188.412 26.3752 218.142" stroke="#565987" stroke-miterlimit="10"/>
<path d="M21.837 184.073C21.837 184.073 19.489 186.167 20.2369 189.315" stroke="#565987" stroke-miterlimit="10"/>
<path d="M12.2305 185.82C12.2305 185.82 13.8058 182.975 15.7248 184.546" stroke="#565987" stroke-miterlimit="10"/>
<path d="M20.9668 195.078C20.9668 195.078 23.7438 193.695 24.4611 195.429" stroke="#565987" stroke-miterlimit="10"/>
<path d="M28.8258 198.934C28.8258 198.934 26.2501 198.764 26.2051 199.797" stroke="#565987" stroke-miterlimit="10"/>
<path d="M27.0808 218.143C27.0808 218.143 17.8154 200.295 15.272 200.677C14.0647 200.865 13.508 201.995 13.254 203.122C12.9417 204.584 13.1181 206.102 13.7585 207.465C15.0737 210.332 18.6052 215.753 27.0808 218.143Z" fill="#3F93CD"/>
<path d="M15.7246 204.166C15.7246 204.166 25.2418 217.555 27.0812 218.143" stroke="#565987" stroke-miterlimit="10"/>
<path d="M14.8516 205.913H17.4723" stroke="#565987" stroke-miterlimit="10"/>
<path d="M17.4727 210.281H20.967" stroke="#565987" stroke-miterlimit="10"/>
<path d="M20.0923 206.786L19.2188 209.407" stroke="#565987" stroke-miterlimit="10"/>
<path d="M22.7109 212.028V213.775" stroke="#565987" stroke-miterlimit="10"/>
<path d="M27.082 218.143C27.082 218.143 35.1882 200.295 37.4143 200.677C38.474 200.865 38.9612 201.995 39.1805 203.122C39.4538 204.584 39.2994 206.102 38.7389 207.465C37.5878 210.332 34.494 215.753 27.082 218.143Z" fill="#3F93CD"/>
<path d="M37.565 204.166C37.565 204.166 28.7637 217.555 27.082 218.143" stroke="#565987" stroke-miterlimit="10"/>
<path d="M38.4386 205.913H36.6914" stroke="#565987" stroke-miterlimit="10"/>
<path d="M35.8146 210.281H32.3203" stroke="#565987" stroke-miterlimit="10"/>
<path d="M34.0703 206.786V209.407" stroke="#565987" stroke-miterlimit="10"/>
<path d="M30.5762 212.028V213.775" stroke="#565987" stroke-miterlimit="10"/>
<path d="M11.8652 221.632C11.6325 221.422 11.4634 221.138 11.3803 220.818C11.3406 220.658 11.3529 220.487 11.4151 220.336C11.4773 220.184 11.5854 220.062 11.7207 219.99C12.0419 219.858 12.3631 220.096 12.62 220.345C12.8769 220.594 13.1692 220.857 13.4904 220.797C13.3199 220.626 13.1925 220.409 13.1204 220.167C13.0483 219.925 13.0342 219.667 13.0793 219.417C13.0925 219.314 13.1314 219.217 13.1917 219.136C13.3651 218.93 13.6799 219.019 13.8886 219.183C14.531 219.695 14.7333 220.687 14.7365 221.583C14.7687 221.254 14.7687 220.923 14.7365 220.594C14.7281 220.429 14.7564 220.263 14.8191 220.113C14.8818 219.962 14.977 219.831 15.0963 219.73C15.2526 219.636 15.4289 219.589 15.6069 219.595C15.7545 219.572 15.9049 219.583 16.0482 219.628C16.1916 219.674 16.3246 219.752 16.4388 219.858C16.5481 220.023 16.6043 220.224 16.5985 220.428C16.5927 220.632 16.5251 220.829 16.4067 220.985C16.1606 221.291 15.8696 221.548 15.5459 221.746C15.3003 221.91 15.0907 222.132 14.9325 222.397C14.9131 222.432 14.8979 222.471 14.8875 222.511H13.0183C12.5998 222.277 12.212 221.982 11.8652 221.632Z" fill="#3F93CD"/>
<path d="M44.9771 214.631C44.7815 214.422 44.6394 214.138 44.5703 213.817C44.5368 213.657 44.5467 213.486 44.5984 213.334C44.65 213.183 44.7402 213.06 44.8532 212.987C45.1226 212.855 45.3921 213.094 45.6077 213.343C45.8232 213.593 46.0657 213.864 46.3433 213.81C46.2002 213.64 46.093 213.423 46.0321 213.181C45.9712 212.939 45.9587 212.68 45.9957 212.43C46.0076 212.326 46.0412 212.229 46.0927 212.148C46.2382 211.942 46.5023 212.031 46.6774 212.191C47.2298 212.708 47.3861 213.703 47.3888 214.602C47.4157 214.271 47.4157 213.938 47.3888 213.607C47.3767 213.443 47.395 213.277 47.4419 213.125C47.4888 212.972 47.5631 212.836 47.6582 212.73C47.79 212.637 47.9376 212.592 48.0867 212.598C48.2103 212.575 48.3361 212.586 48.4563 212.631C48.5764 212.676 48.6882 212.753 48.7845 212.858C48.8765 213.024 48.9237 213.226 48.9183 213.432C48.9129 213.638 48.8554 213.835 48.7549 213.992C48.55 214.299 48.3066 214.558 48.0355 214.755C47.8293 214.918 47.6534 215.14 47.5208 215.404C47.505 215.442 47.4924 215.481 47.4831 215.522H45.9499C45.5962 215.286 45.2689 214.986 44.9771 214.631Z" fill="#3F93CD"/>
<path d="M33.7099 221.623C33.4767 221.411 33.3061 221.126 33.2202 220.806C33.1804 220.645 33.1927 220.474 33.2551 220.322C33.3175 220.17 33.426 220.047 33.5617 219.975C33.8839 219.843 34.2061 220.082 34.4639 220.332C34.7216 220.581 35.0084 220.852 35.3435 220.802C35.1727 220.631 35.0447 220.413 34.9719 220.171C34.8991 219.928 34.8839 219.669 34.9278 219.419C34.9421 219.314 34.9823 219.217 35.0438 219.137C35.2178 218.93 35.5336 219.019 35.743 219.183C36.4035 219.697 36.5872 220.692 36.5936 221.591C36.6259 221.261 36.6259 220.929 36.5936 220.599C36.5811 220.433 36.6055 220.267 36.6644 220.114C36.7234 219.961 36.8152 219.826 36.9319 219.722C37.0886 219.626 37.2656 219.58 37.4442 219.586C37.5923 219.563 37.7431 219.574 37.8868 219.62C38.0306 219.665 38.1641 219.744 38.2787 219.85C38.3885 220.015 38.4447 220.217 38.4383 220.422C38.4318 220.627 38.3631 220.824 38.2433 220.981C37.9976 221.287 37.7067 221.545 37.383 221.744C37.1366 221.908 36.9263 222.131 36.7676 222.397C36.7481 222.432 36.733 222.471 36.7225 222.511H34.8537C34.4385 222.272 34.0538 221.974 33.7099 221.623Z" fill="#3F93CD"/>
<path d="M2.44501 207.659C2.44501 207.659 1.74619 208.5 2.76705 209.77C3.78792 211.039 4.63166 212.111 4.2903 212.901C4.2903 212.901 2.74773 210.533 1.49177 210.513C0.235819 210.492 1.06346 209.065 2.44501 207.659Z" fill="#3F93CD"/>
<path opacity="0.1" d="M6.27207 207.659C6.33346 207.741 6.38273 207.83 6.4186 207.923C7.65596 209.246 8.31697 210.48 7.1252 210.513C6.01808 210.542 4.6863 212.342 4.36719 212.797C4.37677 212.833 4.38984 212.868 4.40626 212.901C4.40626 212.901 5.96599 210.533 7.23591 210.513C8.50583 210.492 7.66898 209.065 6.27207 207.659Z" fill="black"/>
<path d="M6.98865 213.277C6.98865 213.277 5.11133 213.205 4.54535 212.71C3.97937 212.215 1.65668 211.621 1.51441 212.416C1.37214 213.212 -1.30622 216.376 0.812346 216.395C2.93091 216.414 5.73917 215.988 6.30515 215.565C6.87113 215.143 6.98865 213.277 6.98865 213.277Z" fill="#A8A8A8"/>
<path opacity="0.1" d="M8.7367 36.438C12.5964 36.438 15.7254 33.3091 15.7254 29.4493C15.7254 25.5896 12.5964 22.4607 8.7367 22.4607C4.87697 22.4607 1.74805 25.5896 1.74805 29.4493C1.74805 33.3091 4.87697 36.438 8.7367 36.438Z" fill="#3F93CD"/>
<path opacity="0.1" d="M346.815 92.3472C350.675 92.3472 353.803 89.2183 353.803 85.3585C353.803 81.4988 350.675 78.3699 346.815 78.3699C342.955 78.3699 339.826 81.4988 339.826 85.3585C339.826 89.2183 342.955 92.3472 346.815 92.3472Z" fill="#3F93CD"/>
<path opacity="0.1" d="M220.582 13.7241C224.683 13.7241 228.007 10.7907 228.007 7.17223C228.007 3.55373 224.683 0.620361 220.582 0.620361C216.481 0.620361 213.156 3.55373 213.156 7.17223C213.156 10.7907 216.481 13.7241 220.582 13.7241Z" fill="#3F93CD"/>
<path opacity="0.1" d="M22.714 80.1163C28.986 80.1163 34.0706 74.8362 34.0706 68.3229C34.0706 61.8096 28.986 56.5295 22.714 56.5295C16.4419 56.5295 11.3574 61.8096 11.3574 68.3229C11.3574 74.8362 16.4419 80.1163 22.714 80.1163Z" fill="#3F93CD"/>
<g clip-path="url(#clip0)">
<path d="M247.609 208.526H98.1582V16.754C98.1582 16.754 256.831 2.076 247.609 16.754C238.388 31.4321 247.609 208.526 247.609 208.526Z" fill="#F5F5F5"/>
<path d="M247.927 208.845H97.8398V16.4348H187.235V17.073H98.4758V208.207H247.291V56.14H247.927V208.845Z" fill="#3F3D56"/>
<path d="M207.327 66.4003C203.177 66.4007 198.712 65.5444 194.654 62.9723C182.881 55.5106 171.582 62.8924 171.47 62.968L171.433 62.989C171.328 63.0404 164.35 66.3997 156.132 66.4003C151.982 66.4007 147.517 65.5444 143.459 62.9723C131.686 55.5106 120.387 62.8924 120.275 62.968L119.922 62.437C120.038 62.3592 131.681 54.7534 143.799 62.4326C155.418 69.7972 170.552 62.704 171.137 62.4238C171.692 62.0652 183.115 54.9048 194.994 62.4326C206.791 69.9092 222.194 62.492 222.348 62.416L222.628 62.989C222.523 63.0404 215.545 66.3997 207.327 66.4003Z" fill="#3F3D56"/>
<path d="M207.327 81.7169C203.177 81.7172 198.712 80.8609 194.654 78.2889C182.881 70.8272 171.582 78.2089 171.47 78.2845L171.433 78.3055C171.328 78.3569 164.35 81.7163 156.132 81.7169C151.982 81.7172 147.517 80.8609 143.459 78.2889C131.686 70.8272 120.387 78.2089 120.275 78.2845L119.922 77.7535C120.038 77.6758 131.681 70.0698 143.799 77.7492C155.418 85.1136 170.552 78.0207 171.137 77.7403C171.692 77.3816 183.115 70.2211 194.994 77.7492C206.791 85.2261 222.194 77.8084 222.348 77.7325L222.628 78.3055C222.523 78.3569 215.545 81.7163 207.327 81.7169Z" fill="#3F3D56"/>
<path d="M207.327 97.0328C203.177 97.0331 198.712 96.1768 194.654 93.6048C182.881 86.1429 171.582 93.5247 171.47 93.6004L171.433 93.6215C171.328 93.6729 164.35 97.0322 156.132 97.0328C151.982 97.0331 147.517 96.1768 143.459 93.6048C131.686 86.1429 120.387 93.5247 120.275 93.6004L119.922 93.0694C120.038 92.9917 131.681 85.3857 143.799 93.0651C155.418 100.43 170.552 93.3367 171.137 93.0562C171.692 92.6977 183.115 85.5369 194.994 93.0651C206.791 100.542 222.194 93.1245 222.348 93.0484L222.628 93.6215C222.523 93.6729 215.545 97.0322 207.327 97.0328Z" fill="#3F3D56"/>
<path d="M159.129 112.374C159.001 112.374 158.873 112.371 158.743 112.362C156.662 112.233 154.816 111.047 153.256 108.836C151.711 106.645 150.067 105.546 148.336 105.567C145.446 105.604 143.278 108.797 143.257 108.829L143.227 108.867C143.088 109.019 139.78 112.611 135.849 112.362C133.768 112.233 131.921 111.047 130.362 108.836C128.816 106.645 127.159 105.546 125.441 105.567C122.551 105.604 120.384 108.797 120.362 108.829L119.834 108.474C119.93 108.331 122.213 104.97 125.433 104.929C127.383 104.895 129.207 106.095 130.881 108.467C132.323 110.511 134.007 111.607 135.885 111.725C139.389 111.942 142.504 108.706 142.743 108.452C142.965 108.128 145.206 104.969 148.328 104.929C148.347 104.929 148.367 104.929 148.386 104.929C150.306 104.929 152.118 106.119 153.775 108.467C155.218 110.511 156.901 111.607 158.78 111.725C162.411 111.956 165.621 108.471 165.653 108.436L166.122 108.867C165.988 109.015 162.886 112.374 159.129 112.374Z" fill="#3F3D56"/>
<path d="M187.828 173.107H157.938V152.685H180.832V153.323H158.573V172.469H187.192V162.896H187.828V173.107Z" fill="#3F3D56"/>
<path d="M116.601 38.4521C115.846 38.4521 115.109 38.2275 114.481 37.8067C113.854 37.386 113.364 36.788 113.076 36.0883C112.787 35.3887 112.711 34.6188 112.858 33.876C113.006 33.1332 113.369 32.451 113.903 31.9154C114.436 31.3799 115.116 31.0153 115.857 30.8675C116.597 30.7198 117.364 30.7956 118.061 31.0854C118.758 31.3752 119.354 31.866 119.774 32.4957C120.193 33.1254 120.417 33.8657 120.417 34.623C120.416 35.6382 120.013 36.6114 119.298 37.3293C118.582 38.0471 117.613 38.4509 116.601 38.4521ZM116.601 31.4321C115.972 31.4321 115.357 31.6193 114.834 31.9699C114.311 32.3205 113.904 32.8188 113.663 33.4019C113.422 33.985 113.36 34.6265 113.482 35.2455C113.605 35.8645 113.908 36.433 114.352 36.8793C114.797 37.3255 115.364 37.6295 115.981 37.7526C116.597 37.8757 117.237 37.8125 117.818 37.571C118.399 37.3295 118.895 36.9205 119.245 36.3958C119.594 35.871 119.781 35.2541 119.781 34.623C119.78 33.777 119.444 32.966 118.848 32.3678C118.252 31.7696 117.444 31.4331 116.601 31.4321Z" fill="#3F93CD"/>
<path d="M180.69 166.15L173.125 155.668L175.186 154.171L180.976 162.195L203.134 139.351L204.957 141.131L180.69 166.15Z" fill="#3F93CD"/>
<path d="M116.533 197.793C118.336 204.483 124.513 208.626 124.513 208.626C124.513 208.626 127.767 201.923 125.963 195.233C124.16 188.543 117.983 184.4 117.983 184.4C117.983 184.4 114.729 191.103 116.533 197.793Z" fill="#3F3D56"/>
<path d="M119.182 196.356C124.131 201.19 124.735 208.621 124.735 208.621C124.735 208.621 117.316 208.214 112.368 203.38C107.419 198.546 106.814 191.115 106.814 191.115C106.814 191.115 114.233 191.521 119.182 196.356Z" fill="#3F93CD"/>
</g>
<defs>
<clipPath id="clip0">
<rect x="97.8398" y="10.2305" width="154.624" height="206.165" fill="white"/>
</clipPath>
</defs>
</svg>
