<svg id="e7lw6wkquhnt1" xmlns="http://www.w3.org/2000/svg" xmlns:xlink="http://www.w3.org/1999/xlink" viewBox="0 0 384 265" shape-rendering="geometricPrecision" text-rendering="geometricPrecision"><style><![CDATA[#e7lw6wkquhnt54_to {animation: e7lw6wkquhnt54_to__to 3000ms linear infinite normal forwards}@keyframes e7lw6wkquhnt54_to__to { 0% {transform: translate(0px,0px)} 10% {transform: translate(77px,0px)} 100% {transform: translate(77px,0px)} }#e7lw6wkquhnt55 {
           animation-name: e7lw6wkquhnt55__tt, e7lw6wkquhnt55_c_o;
           animation-duration: 3000ms;
           animation-fill-mode: forwards;
           animation-timing-function: linear;
           animation-direction: normal;
           animation-iteration-count: infinite;  
        }@keyframes e7lw6wkquhnt55__tt { 0% {transform: translate(0px,0px) translate(0px,0px)} 16.666667% {transform: translate(0px,0px) translate(0px,0px)} 26.666667% {transform: translate(0px,0px) translate(0px,0px)} 100% {transform: translate(0px,0px) translate(0px,0px)} }@keyframes e7lw6wkquhnt55_c_o { 0% {opacity: 0} 16.666667% {opacity: 0} 26.666667% {opacity: 1} 100% {opacity: 1} }]]></style><defs><clipPath id="e7lw6wkquhnt2"><rect id="e7lw6wkquhnt3" width="384" height="265" rx="0" ry="0" fill="rgb(255,255,255)" stroke="none" stroke-width="1"/></clipPath></defs><g id="e7lw6wkquhnt4" clip-path="url(#e7lw6wkquhnt2)"><path id="e7lw6wkquhnt5" d="M217.202000,36.078300C192.588000,36.111200,168.896000,29.136400,146.235000,21.388100C123.573000,13.639700,101.087000,4.963180,76.930400,1.286510C61.394800,-1.076830,43.728800,-0.859587,31.584800,7.721500C19.895300,15.976700,16.510200,29.640000,14.877000,42.263100C13.648800,51.759300,13.082400,61.726100,17.682500,70.412500C20.876500,76.442600,26.342600,81.412900,30.195200,87.160000C43.643100,107.153000,35.556000,132.692000,22.486700,153.149000C16.358800,162.747000,9.180380,171.947000,4.547370,182.095000C-0.085643,192.243000,-1.985610,203.750000,2.739600,213.766000C7.422010,223.694000,17.998600,230.899000,29.349000,235.820000C52.398800,245.833000,79.235300,247.979000,105.351000,248.805000C163.160000,250.638000,221.081000,246.899000,278.847000,243.160000C300.224000,241.778000,321.696000,240.385000,342.632000,236.379000C354.256000,234.158000,366.225000,230.859000,374.467000,223.631000C384.929000,214.454000,387.069000,199.471000,379.456000,188.701000C366.690000,170.637000,333.027000,167.230000,323.873000,147.685000C318.825000,136.925000,323.178000,124.585000,329.589000,114.213000C343.340000,91.959000,367.009000,72.025400,367.407000,47.134600C367.681000,30.041600,355.372000,13.366500,336.988000,5.937480C317.719000,-1.843760,291.445000,0.157504,277.944000,14.660100C264.062000,29.600500,238.934000,36.055200,217.202000,36.078300Z" opacity="0.1" fill="rgb(63,147,205)" stroke="none" stroke-width="1"/><path id="e7lw6wkquhnt6" d="M326.825000,212.424000C326.825000,212.424000,322.778000,209.754000,318.768000,211.654000C318.768000,211.654000,320.002000,214.030000,325.080000,213.806000L326.825000,212.424000Z" fill="rgb(63,147,205)" stroke="none" stroke-width="1"/><path id="e7lw6wkquhnt7" d="M327.335000,212.565000C327.335000,212.565000,328.566000,217.253000,325.478000,220.442000C325.478000,220.442000,323.621000,218.510000,325.478000,213.777000L327.335000,212.565000Z" fill="rgb(63,147,205)" stroke="none" stroke-width="1"/><path id="e7lw6wkquhnt8" d="M332.368000,208.066000C332.368000,208.066000,332.068000,204.080000,323.063000,205.403000C323.063000,205.403000,323.020000,207.974000,326.181000,209.192000C329.342000,210.410000,330.791000,209.383000,332.368000,208.066000Z" fill="rgb(63,147,205)" stroke="none" stroke-width="1"/><path id="e7lw6wkquhnt9" d="M332.935000,208.040000C332.935000,208.040000,336.742000,209.261000,333.347000,217.704000C333.347000,217.704000,330.835000,217.144000,330.383000,213.783000C329.932000,210.423000,331.269000,209.264000,332.935000,208.040000Z" fill="rgb(63,147,205)" stroke="none" stroke-width="1"/><path id="e7lw6wkquhnt10" d="M338.017000,202.385000C338.017000,202.385000,338.534000,195.825000,329.330000,196.496000C329.330000,196.496000,328.672000,202.421000,336.394000,203.962000L338.017000,202.385000Z" fill="rgb(63,147,205)" stroke="none" stroke-width="1"/><path id="e7lw6wkquhnt11" d="M344.100000,194.979000C344.100000,194.979000,342.839000,187.543000,333.639000,189.758000C333.639000,189.758000,333.606000,196.187000,342.598000,196.750000L344.100000,194.979000Z" fill="rgb(63,147,205)" stroke="none" stroke-width="1"/><path id="e7lw6wkquhnt12" d="M348.547000,187.323000C348.547000,187.323000,346.433000,180.081000,337.318000,182.247000C337.318000,182.247000,339.488000,188.761000,347.941000,188.659000L348.547000,187.323000Z" fill="rgb(63,147,205)" stroke="none" stroke-width="1"/><path id="e7lw6wkquhnt13" d="M352.767000,179.844000C352.767000,179.844000,350.702000,172.330000,341.900000,174.578000C341.900000,174.578000,344.838000,181.717000,352.184000,181.115000L352.767000,179.844000Z" fill="rgb(63,147,205)" stroke="none" stroke-width="1"/><path id="e7lw6wkquhnt14" d="M355.488000,172.741000C355.488000,172.741000,353.901000,163.551000,345.695000,165.585000C345.695000,165.585000,348.079000,173.946000,354.886000,174.081000L355.488000,172.741000Z" fill="rgb(63,147,205)" stroke="none" stroke-width="1"/><path id="e7lw6wkquhnt15" d="M358.040000,164.160000C358.040000,164.160000,356.133000,154.898000,347.832000,157.577000C347.832000,157.577000,351.085000,166.332000,357.450000,165.427000L358.040000,164.160000Z" fill="rgb(63,147,205)" stroke="none" stroke-width="1"/><path id="e7lw6wkquhnt16" d="M359.606000,156.174000C359.606000,156.174000,356.580000,146.909000,350.162000,147.159000C350.162000,147.159000,353.254000,156.945000,359.069000,158.021000L359.606000,156.174000Z" fill="rgb(63,147,205)" stroke="none" stroke-width="1"/><path id="e7lw6wkquhnt17" d="M360.623000,148.380000C360.623000,148.380000,357.330000,137.228000,352.107000,138.087000C352.107000,138.087000,354.386000,146.613000,360.438000,150.118000L360.623000,148.380000Z" fill="rgb(63,147,205)" stroke="none" stroke-width="1"/><path id="e7lw6wkquhnt18" d="M361.193000,139.081000C361.193000,139.081000,358.104000,129.789000,352.961000,129.417000C352.961000,129.417000,355.062000,138.561000,361.091000,141.497000L361.193000,139.081000Z" fill="rgb(63,147,205)" stroke="none" stroke-width="1"/><path id="e7lw6wkquhnt19" d="M361.816000,130.405000C361.816000,130.405000,357.967000,121.103000,354.572000,120.892000C354.572000,120.892000,356.245000,130.053000,361.487000,131.932000L361.816000,130.405000Z" fill="rgb(63,147,205)" stroke="none" stroke-width="1"/><path id="e7lw6wkquhnt20" d="M362.242000,122.334000C362.242000,122.334000,359.874000,112.232000,356.473000,111.393000C356.473000,111.393000,356.937000,119.658000,361.899000,123.091000L362.242000,122.334000Z" fill="rgb(63,147,205)" stroke="none" stroke-width="1"/><path id="e7lw6wkquhnt21" d="M363.527000,111.762000C363.527000,111.762000,361.037000,103.707000,358.281000,102.479000C358.281000,102.479000,358.825000,111.976000,362.891000,113.730000L363.527000,111.762000Z" fill="rgb(63,147,205)" stroke="none" stroke-width="1"/><path id="e7lw6wkquhnt22" d="M364.590000,104.849000L365.090000,90.649500C365.090000,90.649500,359.937000,101.354000,364.218000,107.341000L364.590000,104.849000Z" fill="rgb(63,147,205)" stroke="none" stroke-width="1"/><path id="e7lw6wkquhnt23" d="M368.567000,90.725100C368.567000,90.725100,372.278000,80.356700,373.177000,79.777300C373.177000,79.777300,365.900000,86.505300,366.611000,95.158800L368.567000,90.725100Z" fill="rgb(63,147,205)" stroke="none" stroke-width="1"/><path id="e7lw6wkquhnt24" d="M338.269000,202.335000C338.269000,202.335000,344.795000,201.483000,344.601000,210.702000C344.601000,210.702000,338.704000,211.664000,336.777000,204.037000L338.269000,202.335000Z" fill="rgb(63,147,205)" stroke="none" stroke-width="1"/><path id="e7lw6wkquhnt25" d="M344.409000,194.728000C344.409000,194.728000,351.950000,194.705000,351.324000,204.142000C351.324000,204.142000,344.992000,205.274000,342.904000,196.512000L344.409000,194.728000Z" fill="rgb(63,147,205)" stroke="none" stroke-width="1"/><path id="e7lw6wkquhnt26" d="M348.620000,187.932000C348.620000,187.932000,355.465000,184.722000,359.845000,193.007000C359.845000,193.007000,353.523000,195.680000,348.014000,189.271000L348.620000,187.932000Z" fill="rgb(63,147,205)" stroke="none" stroke-width="1"/><path id="e7lw6wkquhnt27" d="M352.919000,179.913000C352.919000,179.913000,359.930000,176.500000,364.046000,184.591000C364.046000,184.591000,356.742000,187.105000,352.340000,181.194000L352.919000,179.913000Z" fill="rgb(63,147,205)" stroke="none" stroke-width="1"/><path id="e7lw6wkquhnt28" d="M355.397000,172.942000C355.397000,172.942000,362.144000,166.500000,367.528000,173.014000C367.528000,173.014000,360.636000,178.317000,355.088000,174.377000L355.397000,172.942000Z" fill="rgb(63,147,205)" stroke="none" stroke-width="1"/><path id="e7lw6wkquhnt29" d="M357.658000,163.939000C357.658000,163.939000,364.444000,157.356000,369.785000,164.242000C369.785000,164.242000,362.169000,169.650000,357.414000,165.322000L357.658000,163.939000Z" fill="rgb(63,147,205)" stroke="none" stroke-width="1"/><path id="e7lw6wkquhnt30" d="M358.926000,155.911000C358.926000,155.911000,364.155000,147.682000,370.312000,149.519000C370.312000,149.519000,364.886000,158.232000,358.985000,157.843000L358.926000,155.911000Z" fill="rgb(63,147,205)" stroke="none" stroke-width="1"/><path id="e7lw6wkquhnt31" d="M360.467000,148.328000C360.467000,148.328000,365.736000,137.966000,370.721000,139.769000C370.721000,139.769000,366.921000,147.735000,360.332000,150.075000L360.467000,148.328000Z" fill="rgb(63,147,205)" stroke="none" stroke-width="1"/><path id="e7lw6wkquhnt32" d="M360.832000,138.542000C360.832000,138.542000,366.248000,130.385000,371.322000,131.383000C371.322000,131.383000,366.894000,139.654000,360.305000,140.902000L360.832000,138.542000Z" fill="rgb(63,147,205)" stroke="none" stroke-width="1"/><path id="e7lw6wkquhnt33" d="M361.254000,130.224000C361.254000,130.224000,365.452000,121.070000,368.864000,121.008000C368.864000,121.008000,366.848000,130.096000,361.537000,131.778000L361.254000,130.224000Z" fill="rgb(63,147,205)" stroke="none" stroke-width="1"/><path id="e7lw6wkquhnt34" d="M362.076000,122.137000C362.076000,122.137000,366.742000,112.868000,370.249000,112.848000C370.249000,112.848000,367.862000,120.774000,362.231000,122.950000L362.076000,122.137000Z" fill="rgb(63,147,205)" stroke="none" stroke-width="1"/><path id="e7lw6wkquhnt35" d="M362.779000,112.341000C362.779000,112.341000,366.270000,104.672000,369.161000,103.803000C369.161000,103.803000,367.416000,113.151000,363.165000,114.375000L362.779000,112.341000Z" fill="rgb(63,147,205)" stroke="none" stroke-width="1"/><path id="e7lw6wkquhnt36" d="M365.005000,104.569000L372.805000,92.690200C372.805000,92.690200,370.807000,104.408000,363.865000,106.844000L365.005000,104.569000Z" fill="rgb(63,147,205)" stroke="none" stroke-width="1"/><path id="e7lw6wkquhnt37" d="M370.359000,91.682900C370.359000,91.682900,379.424000,85.429000,379.753000,84.418500C379.753000,84.418500,375.143000,93.177300,366.582000,94.724300L370.359000,91.682900Z" fill="rgb(63,147,205)" stroke="none" stroke-width="1"/><path id="e7lw6wkquhnt38" d="M370.903000,88.868800C370.903000,88.868800,381.311000,78.865700,383.969000,78.875600C383.969000,78.875600,375.384000,79.267300,370.652000,88.335500L370.903000,88.868800Z" fill="rgb(63,147,205)" stroke="none" stroke-width="1"/><path id="e7lw6wkquhnt39" d="M362.879000,113.825000L363.258000,113.875000C365.214000,98.572200,368.065000,89.517100,371.285000,88.407800L371.160000,88.045800C367.746000,89.230700,364.874000,98.147600,362.879000,113.825000Z" fill="rgb(68,64,83)" stroke="none" stroke-width="1"/><path id="e7lw6wkquhnt40" d="M360.002000,150.421000L360.575000,150.467000C360.697000,149.038000,360.789000,147.577000,360.852000,146.119000C361.398000,133.453000,362.244000,121.821000,363.357000,113.101000L363.028000,112.690000C361.912000,121.429000,360.825000,133.410000,360.279000,146.096000C360.216000,147.544000,360.124000,148.999000,360.002000,150.421000Z" fill="rgb(68,64,83)" stroke="none" stroke-width="1"/><path id="e7lw6wkquhnt41" d="M316.142000,219.725000C316.240000,219.682000,326.326000,215.179000,336.794000,204.442000C342.927000,198.153000,348.023000,190.932000,351.892000,183.047000C356.732000,173.195000,359.683000,161.089000,360.671000,149.328000L360.075000,149.608000C357.852000,176.006000,345.830000,194.044000,336.271000,203.869000C325.905000,214.511000,315.931000,218.968000,315.832000,219.010000L316.142000,219.725000Z" fill="rgb(68,64,83)" stroke="none" stroke-width="1"/><path id="e7lw6wkquhnt42" d="M342.255000,28.054000L25.853800,28.054000C25.106300,28.054000,24.389300,28.350800,23.860700,28.879200C23.332100,29.407600,23.035200,30.124300,23.035200,30.871500L23.035200,39.080700L345.074000,39.080700L345.074000,30.871500C345.074000,30.124300,344.777000,29.407600,344.248000,28.879200C343.720000,28.350800,343.003000,28.054000,342.255000,28.054000Z" fill="rgb(63,61,86)" stroke="none" stroke-width="1"/><path id="e7lw6wkquhnt43" d="M23.035200,39.080700L23.035200,223.816000C23.035200,225.323000,23.633900,226.768000,24.699800,227.833000C25.765600,228.899000,27.211200,229.497000,28.718600,229.497000L339.391000,229.497000C340.898000,229.497000,342.343000,228.899000,343.409000,227.833000C344.475000,226.768000,345.074000,225.323000,345.074000,223.816000L345.074000,39.080700L23.035200,39.080700Z" fill="rgb(255,255,255)" stroke="none" stroke-width="1"/><path id="e7lw6wkquhnt44" d="M28.137400,34.801700C28.864900,34.801700,29.454600,34.212200,29.454600,33.485100C29.454600,32.757900,28.864900,32.168500,28.137400,32.168500C27.410000,32.168500,26.820300,32.757900,26.820300,33.485100C26.820300,34.212200,27.410000,34.801700,28.137400,34.801700Z" opacity="0.8" fill="rgb(250,89,89)" stroke="none" stroke-width="1"/><path id="e7lw6wkquhnt45" d="M31.760500,34.801700C32.487900,34.801700,33.077600,34.212200,33.077600,33.485100C33.077600,32.757900,32.487900,32.168500,31.760500,32.168500C31.033100,32.168500,30.443400,32.757900,30.443400,33.485100C30.443400,34.212200,31.033100,34.801700,31.760500,34.801700Z" opacity="0.8" fill="rgb(254,210,83)" stroke="none" stroke-width="1"/><path id="e7lw6wkquhnt46" d="M35.381600,34.801700C36.109000,34.801700,36.698700,34.212200,36.698700,33.485100C36.698700,32.757900,36.109000,32.168500,35.381600,32.168500C34.654200,32.168500,34.064500,32.757900,34.064500,33.485100C34.064500,34.212200,34.654200,34.801700,35.381600,34.801700Z" opacity="0.8" fill="rgb(140,207,77)" stroke="none" stroke-width="1"/><path id="e7lw6wkquhnt47" d="M311.787000,69.883100L52.970700,69.883100L52.970700,183.646000L311.787000,183.646000L311.787000,69.883100Z" opacity="0.05" fill="rgb(0,0,0)" stroke="none" stroke-width="1"/><path id="e7lw6wkquhnt48" d="M309.812000,70.745400L54.947300,70.745400L54.947300,182L309.812000,182L309.812000,70.745400Z" fill="rgb(63,61,86)" stroke="none" stroke-width="1"/><path id="e7lw6wkquhnt49" d="M124.425000,99.378800C119.410000,99.378800,114.508000,100.865000,110.339000,103.650000C106.169000,106.435000,102.919000,110.393000,101,115.025000C99.081300,119.656000,98.579200,124.752000,99.557500,129.668000C100.536000,134.585000,102.951000,139.101000,106.497000,142.645000C110.042000,146.190000,114.560000,148.604000,119.479000,149.582000C124.397000,150.560000,129.495000,150.058000,134.128000,148.140000C138.761000,146.221000,142.721000,142.973000,145.507000,138.805000C148.293000,134.637000,149.780000,129.737000,149.780000,124.724000C149.780000,121.395000,149.124000,118.100000,147.850000,115.025000C146.576000,111.950000,144.708000,109.156000,142.354000,106.802000C139.999000,104.449000,137.204000,102.582000,134.128000,101.308000C131.052000,100.034000,127.755000,99.378800,124.425000,99.378800ZM128.973000,125.333000L128.973000,137.334000L120.009000,137.334000L120.009000,125.333000C118.769000,124.394000,117.855000,123.090000,117.396000,121.604000C116.937000,120.118000,116.957000,118.526000,117.452000,117.052000C117.947000,115.578000,118.893000,114.296000,120.156000,113.388000C121.419000,112.481000,122.935000,111.992000,124.491000,111.992000C126.047000,111.992000,127.563000,112.481000,128.826000,113.388000C130.089000,114.296000,131.035000,115.578000,131.530000,117.052000C132.025000,118.526000,132.045000,120.118000,131.586000,121.604000C131.127000,123.090000,130.213000,124.394000,128.973000,125.333000Z" fill="rgb(63,147,205)" stroke="none" stroke-width="1"/><path id="e7lw6wkquhnt50" d="M124.425000,99.378800C119.410000,99.378800,114.508000,100.865000,110.339000,103.650000C106.169000,106.435000,102.919000,110.393000,101,115.025000C99.081300,119.656000,98.579200,124.752000,99.557500,129.668000C100.536000,134.585000,102.951000,139.101000,106.497000,142.645000C110.042000,146.190000,114.560000,148.604000,119.479000,149.582000C124.397000,150.560000,129.495000,150.058000,134.128000,148.140000C138.761000,146.221000,142.721000,142.973000,145.507000,138.805000C148.293000,134.637000,149.780000,129.737000,149.780000,124.724000C149.780000,121.395000,149.124000,118.100000,147.850000,115.025000C146.576000,111.950000,144.708000,109.156000,142.354000,106.802000C139.999000,104.449000,137.204000,102.582000,134.128000,101.308000C131.052000,100.034000,127.755000,99.378800,124.425000,99.378800ZM128.973000,125.333000L128.973000,137.334000L120.009000,137.334000L120.009000,125.333000C118.769000,124.394000,117.855000,123.090000,117.396000,121.604000C116.937000,120.118000,116.957000,118.526000,117.452000,117.052000C117.947000,115.578000,118.893000,114.296000,120.156000,113.388000C121.419000,112.481000,122.935000,111.992000,124.491000,111.992000C126.047000,111.992000,127.563000,112.481000,128.826000,113.388000C130.089000,114.296000,131.035000,115.578000,131.530000,117.052000C132.025000,118.526000,132.045000,120.118000,131.586000,121.604000C131.127000,123.090000,130.213000,124.394000,128.973000,125.333000Z" opacity="0.05" fill="rgb(0,0,0)" stroke="none" stroke-width="1"/><path id="e7lw6wkquhnt51" d="M124.425000,92.137300C117.978000,92.137300,111.675000,94.048500,106.314000,97.629100C100.953000,101.210000,96.775000,106.299000,94.307600,112.253000C91.840300,118.208000,91.194700,124.760000,92.452600,131.081000C93.710400,137.402000,96.815200,143.209000,101.374000,147.766000C105.933000,152.323000,111.742000,155.427000,118.065000,156.684000C124.389000,157.941000,130.944000,157.296000,136.900000,154.830000C142.857000,152.363000,147.948000,148.187000,151.530000,142.828000C155.112000,137.469000,157.024000,131.169000,157.024000,124.724000C157.024000,116.081000,153.590000,107.793000,147.476000,101.682000C141.363000,95.570500,133.071000,92.137300,124.425000,92.137300ZM130.270000,125.507000L130.270000,140.935000L118.745000,140.935000L118.745000,125.507000C117.150000,124.300000,115.974000,122.623000,115.384000,120.712000C114.793000,118.801000,114.818000,116.753000,115.455000,114.857000C116.092000,112.962000,117.308000,111.313000,118.932000,110.146000C120.557000,108.978000,122.507000,108.350000,124.508000,108.350000C126.508000,108.350000,128.458000,108.978000,130.083000,110.146000C131.707000,111.313000,132.923000,112.962000,133.560000,114.857000C134.197000,116.753000,134.222000,118.801000,133.632000,120.712000C133.041000,122.623000,131.865000,124.300000,130.270000,125.507000Z" fill="rgb(63,147,205)" stroke="none" stroke-width="1"/><path id="e7lw6wkquhnt52" d="M275.896000,120.448000L170.525000,120.448000L170.525000,131.639000L275.896000,131.639000L275.896000,120.448000Z" fill="rgb(255,255,255)" stroke="none" stroke-width="1"/><path id="e7lw6wkquhnt53" d="M275.896000,140.855000L253.176000,140.855000L253.176000,152.047000L275.896000,152.047000L275.896000,140.855000Z" fill="rgb(63,147,205)" stroke="none" stroke-width="1"/><g id="e7lw6wkquhnt54_to" transform="translate(0,0)"><path id="e7lw6wkquhnt54" d="M180.898000,125.876000L178.991000,125.876000L180.687000,124.184000C180.717000,124.153000,180.734000,124.111000,180.734000,124.067000C180.734000,124.023000,180.717000,123.982000,180.687000,123.950000C180.672000,123.935000,180.653000,123.923000,180.633000,123.914000C180.613000,123.906000,180.592000,123.902000,180.570000,123.902000C180.548000,123.902000,180.527000,123.906000,180.507000,123.914000C180.487000,123.923000,180.468000,123.935000,180.453000,123.950000L178.757000,125.645000L178.757000,123.736000C178.757000,123.693000,178.740000,123.651000,178.709000,123.620000C178.678000,123.589000,178.636000,123.572000,178.593000,123.572000C178.549000,123.572000,178.508000,123.590000,178.477000,123.621000C178.446000,123.651000,178.429000,123.693000,178.428000,123.736000L178.428000,125.645000L176.736000,123.940000C176.720000,123.925000,176.702000,123.913000,176.682000,123.904000C176.662000,123.896000,176.640000,123.892000,176.619000,123.892000C176.597000,123.892000,176.575000,123.896000,176.555000,123.904000C176.535000,123.913000,176.517000,123.925000,176.502000,123.940000C176.471000,123.972000,176.454000,124.014000,176.454000,124.057000C176.454000,124.101000,176.471000,124.143000,176.502000,124.174000L178.198000,125.866000L176.288000,125.866000C176.244000,125.867000,176.203000,125.884000,176.172000,125.915000C176.141000,125.946000,176.124000,125.987000,176.123000,126.030000C176.123000,126.074000,176.140000,126.116000,176.171000,126.147000C176.202000,126.178000,176.244000,126.195000,176.288000,126.195000L178.198000,126.195000L176.502000,127.890000C176.471000,127.922000,176.454000,127.963000,176.454000,128.007000C176.454000,128.051000,176.471000,128.093000,176.502000,128.124000C176.533000,128.153000,176.575000,128.170000,176.619000,128.170000C176.662000,128.170000,176.704000,128.153000,176.736000,128.124000L178.428000,126.429000L178.428000,128.335000C178.428000,128.378000,178.445000,128.420000,178.476000,128.451000C178.507000,128.482000,178.549000,128.499000,178.593000,128.499000C178.636000,128.499000,178.678000,128.482000,178.709000,128.451000C178.740000,128.420000,178.757000,128.378000,178.757000,128.335000L178.757000,126.429000L180.453000,128.124000C180.485000,128.153000,180.527000,128.170000,180.570000,128.170000C180.613000,128.170000,180.655000,128.153000,180.687000,128.124000C180.717000,128.093000,180.734000,128.051000,180.734000,128.007000C180.734000,127.963000,180.717000,127.922000,180.687000,127.890000L178.991000,126.195000L180.898000,126.195000C180.941000,126.195000,180.983000,126.178000,181.014000,126.147000C181.045000,126.116000,181.062000,126.074000,181.062000,126.030000C181.060000,125.989000,181.041000,125.949000,181.011000,125.920000C180.980000,125.892000,180.940000,125.876000,180.898000,125.876000Z" transform="translate(0,0)" fill="rgb(63,147,205)" stroke="none" stroke-width="1"/></g><g id="e7lw6wkquhnt55" transform="translate(0,0) translate(0,0)" opacity="0"><path id="e7lw6wkquhnt56" d="M229.302000,125.876000L227.395000,125.876000L229.091000,124.184000C229.122000,124.153000,229.139000,124.111000,229.139000,124.067000C229.139000,124.023000,229.122000,123.982000,229.091000,123.950000C229.076000,123.935000,229.058000,123.923000,229.038000,123.914000C229.018000,123.906000,228.996000,123.902000,228.974000,123.902000C228.953000,123.902000,228.931000,123.906000,228.911000,123.914000C228.891000,123.923000,228.873000,123.935000,228.857000,123.950000L227.162000,125.645000L227.162000,123.736000C227.162000,123.693000,227.144000,123.651000,227.113000,123.620000C227.083000,123.589000,227.041000,123.572000,226.997000,123.572000C226.954000,123.572000,226.912000,123.590000,226.881000,123.621000C226.851000,123.651000,226.833000,123.693000,226.832000,123.736000L226.832000,125.645000L225.140000,123.940000C225.125000,123.925000,225.106000,123.913000,225.086000,123.904000C225.066000,123.896000,225.045000,123.892000,225.023000,123.892000C225.001000,123.892000,224.980000,123.896000,224.960000,123.904000C224.940000,123.913000,224.921000,123.925000,224.906000,123.940000C224.876000,123.972000,224.859000,124.014000,224.859000,124.057000C224.859000,124.101000,224.876000,124.143000,224.906000,124.174000L226.602000,125.866000L224.692000,125.866000C224.649000,125.867000,224.607000,125.884000,224.576000,125.915000C224.546000,125.946000,224.528000,125.987000,224.527000,126.030000C224.527000,126.074000,224.545000,126.116000,224.576000,126.147000C224.606000,126.178000,224.648000,126.195000,224.692000,126.195000L226.602000,126.195000L224.906000,127.890000C224.876000,127.922000,224.859000,127.963000,224.859000,128.007000C224.859000,128.051000,224.876000,128.093000,224.906000,128.124000C224.938000,128.153000,224.979000,128.170000,225.023000,128.170000C225.066000,128.170000,225.108000,128.153000,225.140000,128.124000L226.832000,126.429000L226.832000,128.335000C226.832000,128.378000,226.850000,128.420000,226.881000,128.451000C226.911000,128.482000,226.953000,128.499000,226.997000,128.499000C227.041000,128.499000,227.083000,128.482000,227.113000,128.451000C227.144000,128.420000,227.162000,128.378000,227.162000,128.335000L227.162000,126.429000L228.857000,128.124000C228.889000,128.153000,228.931000,128.170000,228.974000,128.170000C229.018000,128.170000,229.059000,128.153000,229.091000,128.124000C229.122000,128.093000,229.139000,128.051000,229.139000,128.007000C229.139000,127.963000,229.122000,127.922000,229.091000,127.890000L227.395000,126.195000L229.302000,126.195000C229.346000,126.195000,229.387000,126.178000,229.418000,126.147000C229.449000,126.116000,229.467000,126.074000,229.467000,126.030000C229.464000,125.989000,229.446000,125.949000,229.415000,125.920000C229.384000,125.892000,229.344000,125.876000,229.302000,125.876000Z" fill="rgb(63,147,205)" stroke="none" stroke-width="1"/><path id="e7lw6wkquhnt57" d="M250.046000,125.876000L248.140000,125.876000L249.835000,124.184000C249.866000,124.153000,249.883000,124.111000,249.883000,124.067000C249.883000,124.023000,249.866000,123.982000,249.835000,123.950000C249.820000,123.935000,249.802000,123.923000,249.782000,123.914000C249.762000,123.906000,249.740000,123.902000,249.718000,123.902000C249.697000,123.902000,249.675000,123.906000,249.655000,123.914000C249.635000,123.923000,249.617000,123.935000,249.602000,123.950000L247.906000,125.645000L247.906000,123.736000C247.906000,123.693000,247.888000,123.651000,247.858000,123.620000C247.827000,123.589000,247.785000,123.572000,247.741000,123.572000C247.698000,123.572000,247.656000,123.590000,247.626000,123.621000C247.595000,123.651000,247.577000,123.693000,247.576000,123.736000L247.576000,125.645000L245.884000,123.940000C245.869000,123.925000,245.850000,123.913000,245.830000,123.904000C245.810000,123.896000,245.789000,123.892000,245.767000,123.892000C245.745000,123.892000,245.724000,123.896000,245.704000,123.904000C245.684000,123.913000,245.665000,123.925000,245.650000,123.940000C245.620000,123.972000,245.603000,124.014000,245.603000,124.057000C245.603000,124.101000,245.620000,124.143000,245.650000,124.174000L247.346000,125.866000L245.436000,125.866000C245.393000,125.867000,245.351000,125.884000,245.321000,125.915000C245.290000,125.946000,245.272000,125.987000,245.271000,126.030000C245.271000,126.074000,245.289000,126.116000,245.320000,126.147000C245.351000,126.178000,245.392000,126.195000,245.436000,126.195000L247.346000,126.195000L245.650000,127.890000C245.620000,127.922000,245.603000,127.963000,245.603000,128.007000C245.603000,128.051000,245.620000,128.093000,245.650000,128.124000C245.682000,128.153000,245.724000,128.170000,245.767000,128.170000C245.810000,128.170000,245.852000,128.153000,245.884000,128.124000L247.576000,126.429000L247.576000,128.335000C247.576000,128.378000,247.594000,128.420000,247.625000,128.451000C247.656000,128.482000,247.697000,128.499000,247.741000,128.499000C247.785000,128.499000,247.827000,128.482000,247.858000,128.451000C247.888000,128.420000,247.906000,128.378000,247.906000,128.335000L247.906000,126.429000L249.602000,128.124000C249.633000,128.153000,249.675000,128.170000,249.718000,128.170000C249.762000,128.170000,249.804000,128.153000,249.835000,128.124000C249.866000,128.093000,249.883000,128.051000,249.883000,128.007000C249.883000,127.963000,249.866000,127.922000,249.835000,127.890000L248.140000,126.195000L250.046000,126.195000C250.090000,126.195000,250.132000,126.178000,250.163000,126.147000C250.193000,126.116000,250.211000,126.074000,250.211000,126.030000C250.208000,125.989000,250.190000,125.949000,250.159000,125.920000C250.129000,125.892000,250.088000,125.876000,250.046000,125.876000Z" fill="rgb(63,147,205)" stroke="none" stroke-width="1"/><path id="e7lw6wkquhnt58" d="M243.132000,125.876000L241.225000,125.876000L242.921000,124.184000C242.952000,124.153000,242.969000,124.111000,242.969000,124.067000C242.969000,124.023000,242.952000,123.982000,242.921000,123.950000C242.906000,123.935000,242.888000,123.923000,242.868000,123.914000C242.848000,123.906000,242.826000,123.902000,242.804000,123.902000C242.783000,123.902000,242.761000,123.906000,242.741000,123.914000C242.721000,123.923000,242.703000,123.935000,242.687000,123.950000L240.992000,125.645000L240.992000,123.736000C240.992000,123.693000,240.974000,123.651000,240.943000,123.620000C240.913000,123.589000,240.871000,123.572000,240.827000,123.572000C240.784000,123.572000,240.742000,123.590000,240.712000,123.621000C240.681000,123.651000,240.663000,123.693000,240.662000,123.736000L240.662000,125.645000L238.970000,123.940000C238.955000,123.925000,238.936000,123.913000,238.916000,123.904000C238.896000,123.896000,238.875000,123.892000,238.853000,123.892000C238.831000,123.892000,238.810000,123.896000,238.790000,123.904000C238.770000,123.913000,238.751000,123.925000,238.736000,123.940000C238.706000,123.972000,238.689000,124.014000,238.689000,124.057000C238.689000,124.101000,238.706000,124.143000,238.736000,124.174000L240.432000,125.866000L238.522000,125.866000C238.479000,125.867000,238.437000,125.884000,238.407000,125.915000C238.376000,125.946000,238.358000,125.987000,238.357000,126.030000C238.357000,126.074000,238.375000,126.116000,238.406000,126.147000C238.437000,126.178000,238.478000,126.195000,238.522000,126.195000L240.432000,126.195000L238.736000,127.890000C238.706000,127.922000,238.689000,127.963000,238.689000,128.007000C238.689000,128.051000,238.706000,128.093000,238.736000,128.124000C238.768000,128.153000,238.810000,128.170000,238.853000,128.170000C238.896000,128.170000,238.938000,128.153000,238.970000,128.124000L240.662000,126.429000L240.662000,128.335000C240.662000,128.378000,240.680000,128.420000,240.711000,128.451000C240.741000,128.482000,240.783000,128.499000,240.827000,128.499000C240.871000,128.499000,240.913000,128.482000,240.943000,128.451000C240.974000,128.420000,240.992000,128.378000,240.992000,128.335000L240.992000,126.429000L242.687000,128.124000C242.719000,128.153000,242.761000,128.170000,242.804000,128.170000C242.848000,128.170000,242.890000,128.153000,242.921000,128.124000C242.952000,128.093000,242.969000,128.051000,242.969000,128.007000C242.969000,127.963000,242.952000,127.922000,242.921000,127.890000L241.225000,126.195000L243.132000,126.195000C243.176000,126.195000,243.218000,126.178000,243.248000,126.147000C243.279000,126.116000,243.297000,126.074000,243.297000,126.030000C243.294000,125.989000,243.276000,125.949000,243.245000,125.920000C243.214000,125.892000,243.174000,125.876000,243.132000,125.876000Z" fill="rgb(63,147,205)" stroke="none" stroke-width="1"/><path id="e7lw6wkquhnt59" d="M236.218000,125.876000L234.311000,125.876000L236.007000,124.184000C236.038000,124.153000,236.055000,124.111000,236.055000,124.067000C236.055000,124.023000,236.038000,123.982000,236.007000,123.950000C235.992000,123.935000,235.974000,123.923000,235.954000,123.914000C235.934000,123.906000,235.912000,123.902000,235.890000,123.902000C235.869000,123.902000,235.847000,123.906000,235.827000,123.914000C235.807000,123.923000,235.789000,123.935000,235.773000,123.950000L234.078000,125.645000L234.078000,123.736000C234.078000,123.693000,234.060000,123.651000,234.029000,123.620000C233.999000,123.589000,233.957000,123.572000,233.913000,123.572000C233.870000,123.572000,233.828000,123.590000,233.797000,123.621000C233.767000,123.651000,233.749000,123.693000,233.748000,123.736000L233.748000,125.645000L232.056000,123.940000C232.041000,123.925000,232.022000,123.913000,232.002000,123.904000C231.982000,123.896000,231.961000,123.892000,231.939000,123.892000C231.917000,123.892000,231.896000,123.896000,231.876000,123.904000C231.856000,123.913000,231.837000,123.925000,231.822000,123.940000C231.792000,123.972000,231.775000,124.014000,231.775000,124.057000C231.775000,124.101000,231.792000,124.143000,231.822000,124.174000L233.518000,125.866000L231.608000,125.866000C231.565000,125.867000,231.523000,125.884000,231.492000,125.915000C231.462000,125.946000,231.444000,125.987000,231.443000,126.030000C231.443000,126.074000,231.461000,126.116000,231.492000,126.147000C231.522000,126.178000,231.564000,126.195000,231.608000,126.195000L233.518000,126.195000L231.822000,127.890000C231.792000,127.922000,231.775000,127.963000,231.775000,128.007000C231.775000,128.051000,231.792000,128.093000,231.822000,128.124000C231.854000,128.153000,231.896000,128.170000,231.939000,128.170000C231.982000,128.170000,232.024000,128.153000,232.056000,128.124000L233.748000,126.429000L233.748000,128.335000C233.748000,128.378000,233.766000,128.420000,233.797000,128.451000C233.827000,128.482000,233.869000,128.499000,233.913000,128.499000C233.957000,128.499000,233.999000,128.482000,234.029000,128.451000C234.060000,128.420000,234.078000,128.378000,234.078000,128.335000L234.078000,126.429000L235.773000,128.124000C235.805000,128.153000,235.847000,128.170000,235.890000,128.170000C235.934000,128.170000,235.976000,128.153000,236.007000,128.124000C236.038000,128.093000,236.055000,128.051000,236.055000,128.007000C236.055000,127.963000,236.038000,127.922000,236.007000,127.890000L234.311000,126.195000L236.218000,126.195000C236.262000,126.195000,236.304000,126.178000,236.334000,126.147000C236.365000,126.116000,236.383000,126.074000,236.383000,126.030000C236.380000,125.989000,236.362000,125.949000,236.331000,125.920000C236.300000,125.892000,236.260000,125.876000,236.218000,125.876000Z" fill="rgb(63,147,205)" stroke="none" stroke-width="1"/><path id="e7lw6wkquhnt60" d="M222.388000,125.876000L220.481000,125.876000L222.177000,124.184000C222.208000,124.153000,222.224000,124.111000,222.224000,124.067000C222.224000,124.023000,222.208000,123.982000,222.177000,123.950000C222.162000,123.935000,222.144000,123.923000,222.124000,123.914000C222.103000,123.906000,222.082000,123.902000,222.060000,123.902000C222.038000,123.902000,222.017000,123.906000,221.997000,123.914000C221.977000,123.923000,221.959000,123.935000,221.943000,123.950000L220.248000,125.645000L220.248000,123.736000C220.248000,123.693000,220.230000,123.651000,220.199000,123.620000C220.168000,123.589000,220.127000,123.572000,220.083000,123.572000C220.039000,123.572000,219.998000,123.590000,219.967000,123.621000C219.937000,123.651000,219.919000,123.693000,219.918000,123.736000L219.918000,125.645000L218.226000,123.940000C218.210000,123.925000,218.192000,123.913000,218.172000,123.904000C218.152000,123.896000,218.131000,123.892000,218.109000,123.892000C218.087000,123.892000,218.066000,123.896000,218.046000,123.904000C218.025000,123.913000,218.007000,123.925000,217.992000,123.940000C217.962000,123.972000,217.945000,124.014000,217.945000,124.057000C217.945000,124.101000,217.962000,124.143000,217.992000,124.174000L219.688000,125.866000L217.778000,125.866000C217.735000,125.867000,217.693000,125.884000,217.662000,125.915000C217.632000,125.946000,217.614000,125.987000,217.613000,126.030000C217.613000,126.074000,217.631000,126.116000,217.661000,126.147000C217.692000,126.178000,217.734000,126.195000,217.778000,126.195000L219.688000,126.195000L217.992000,127.890000C217.962000,127.922000,217.945000,127.963000,217.945000,128.007000C217.945000,128.051000,217.962000,128.093000,217.992000,128.124000C218.024000,128.153000,218.065000,128.170000,218.109000,128.170000C218.152000,128.170000,218.194000,128.153000,218.226000,128.124000L219.918000,126.429000L219.918000,128.335000C219.918000,128.378000,219.936000,128.420000,219.966000,128.451000C219.997000,128.482000,220.039000,128.499000,220.083000,128.499000C220.127000,128.499000,220.168000,128.482000,220.199000,128.451000C220.230000,128.420000,220.248000,128.378000,220.248000,128.335000L220.248000,126.429000L221.943000,128.124000C221.975000,128.153000,222.017000,128.170000,222.060000,128.170000C222.104000,128.170000,222.145000,128.153000,222.177000,128.124000C222.208000,128.093000,222.224000,128.051000,222.224000,128.007000C222.224000,127.963000,222.208000,127.922000,222.177000,127.890000L220.481000,126.195000L222.388000,126.195000C222.432000,126.195000,222.473000,126.178000,222.504000,126.147000C222.535000,126.116000,222.553000,126.074000,222.553000,126.030000C222.550000,125.989000,222.532000,125.949000,222.501000,125.920000C222.470000,125.892000,222.430000,125.876000,222.388000,125.876000Z" fill="rgb(63,147,205)" stroke="none" stroke-width="1"/><path id="e7lw6wkquhnt61" d="M215.472000,125.876000L213.565000,125.876000L215.261000,124.184000C215.292000,124.153000,215.308000,124.111000,215.308000,124.067000C215.308000,124.023000,215.292000,123.982000,215.261000,123.950000C215.246000,123.935000,215.228000,123.923000,215.208000,123.914000C215.187000,123.906000,215.166000,123.902000,215.144000,123.902000C215.122000,123.902000,215.101000,123.906000,215.081000,123.914000C215.061000,123.923000,215.043000,123.935000,215.027000,123.950000L213.332000,125.645000L213.332000,123.736000C213.332000,123.693000,213.314000,123.651000,213.283000,123.620000C213.252000,123.589000,213.211000,123.572000,213.167000,123.572000C213.123000,123.572000,213.082000,123.590000,213.051000,123.621000C213.021000,123.651000,213.003000,123.693000,213.002000,123.736000L213.002000,125.645000L211.310000,123.940000C211.294000,123.925000,211.276000,123.913000,211.256000,123.904000C211.236000,123.896000,211.215000,123.892000,211.193000,123.892000C211.171000,123.892000,211.150000,123.896000,211.130000,123.904000C211.109000,123.913000,211.091000,123.925000,211.076000,123.940000C211.046000,123.972000,211.029000,124.014000,211.029000,124.057000C211.029000,124.101000,211.046000,124.143000,211.076000,124.174000L212.772000,125.866000L210.862000,125.866000C210.819000,125.867000,210.777000,125.884000,210.746000,125.915000C210.716000,125.946000,210.698000,125.987000,210.697000,126.030000C210.697000,126.074000,210.715000,126.116000,210.745000,126.147000C210.776000,126.178000,210.818000,126.195000,210.862000,126.195000L212.772000,126.195000L211.076000,127.890000C211.046000,127.922000,211.029000,127.963000,211.029000,128.007000C211.029000,128.051000,211.046000,128.093000,211.076000,128.124000C211.108000,128.153000,211.149000,128.170000,211.193000,128.170000C211.236000,128.170000,211.278000,128.153000,211.310000,128.124000L213.002000,126.429000L213.002000,128.335000C213.002000,128.378000,213.020000,128.420000,213.050000,128.451000C213.081000,128.482000,213.123000,128.499000,213.167000,128.499000C213.211000,128.499000,213.252000,128.482000,213.283000,128.451000C213.314000,128.420000,213.332000,128.378000,213.332000,128.335000L213.332000,126.429000L215.027000,128.124000C215.059000,128.153000,215.101000,128.170000,215.144000,128.170000C215.188000,128.170000,215.229000,128.153000,215.261000,128.124000C215.292000,128.093000,215.308000,128.051000,215.308000,128.007000C215.308000,127.963000,215.292000,127.922000,215.261000,127.890000L213.565000,126.195000L215.472000,126.195000C215.516000,126.195000,215.557000,126.178000,215.588000,126.147000C215.619000,126.116000,215.637000,126.074000,215.637000,126.030000C215.634000,125.989000,215.616000,125.949000,215.585000,125.920000C215.554000,125.892000,215.514000,125.876000,215.472000,125.876000Z" fill="rgb(63,147,205)" stroke="none" stroke-width="1"/><path id="e7lw6wkquhnt62" d="M208.558000,125.876000L206.651000,125.876000L208.347000,124.184000C208.377000,124.153000,208.394000,124.111000,208.394000,124.067000C208.394000,124.023000,208.377000,123.982000,208.347000,123.950000C208.332000,123.935000,208.314000,123.923000,208.293000,123.914000C208.273000,123.906000,208.252000,123.902000,208.230000,123.902000C208.208000,123.902000,208.187000,123.906000,208.167000,123.914000C208.147000,123.923000,208.129000,123.935000,208.113000,123.950000L206.417000,125.645000L206.417000,123.736000C206.417000,123.693000,206.400000,123.651000,206.369000,123.620000C206.338000,123.589000,206.296000,123.572000,206.253000,123.572000C206.209000,123.572000,206.168000,123.590000,206.137000,123.621000C206.107000,123.651000,206.089000,123.693000,206.088000,123.736000L206.088000,125.645000L204.396000,123.940000C204.380000,123.925000,204.362000,123.913000,204.342000,123.904000C204.322000,123.896000,204.300000,123.892000,204.279000,123.892000C204.257000,123.892000,204.236000,123.896000,204.215000,123.904000C204.195000,123.913000,204.177000,123.925000,204.162000,123.940000C204.131000,123.972000,204.114000,124.014000,204.114000,124.057000C204.114000,124.101000,204.131000,124.143000,204.162000,124.174000L205.858000,125.866000L203.948000,125.866000C203.904000,125.867000,203.863000,125.884000,203.832000,125.915000C203.802000,125.946000,203.784000,125.987000,203.783000,126.030000C203.783000,126.074000,203.801000,126.116000,203.831000,126.147000C203.862000,126.178000,203.904000,126.195000,203.948000,126.195000L205.858000,126.195000L204.162000,127.890000C204.131000,127.922000,204.114000,127.963000,204.114000,128.007000C204.114000,128.051000,204.131000,128.093000,204.162000,128.124000C204.194000,128.153000,204.235000,128.170000,204.279000,128.170000C204.322000,128.170000,204.364000,128.153000,204.396000,128.124000L206.088000,126.429000L206.088000,128.335000C206.088000,128.378000,206.106000,128.420000,206.136000,128.451000C206.167000,128.482000,206.209000,128.499000,206.253000,128.499000C206.296000,128.499000,206.338000,128.482000,206.369000,128.451000C206.400000,128.420000,206.417000,128.378000,206.417000,128.335000L206.417000,126.429000L208.113000,128.124000C208.145000,128.153000,208.187000,128.170000,208.230000,128.170000C208.274000,128.170000,208.315000,128.153000,208.347000,128.124000C208.377000,128.093000,208.394000,128.051000,208.394000,128.007000C208.394000,127.963000,208.377000,127.922000,208.347000,127.890000L206.651000,126.195000L208.558000,126.195000C208.601000,126.195000,208.643000,126.178000,208.674000,126.147000C208.705000,126.116000,208.722000,126.074000,208.722000,126.030000C208.720000,125.989000,208.701000,125.949000,208.671000,125.920000C208.640000,125.892000,208.600000,125.876000,208.558000,125.876000Z" fill="rgb(63,147,205)" stroke="none" stroke-width="1"/><path id="e7lw6wkquhnt63" d="M201.642000,125.876000L199.735000,125.876000L201.431000,124.184000C201.461000,124.153000,201.478000,124.111000,201.478000,124.067000C201.478000,124.023000,201.461000,123.982000,201.431000,123.950000C201.416000,123.935000,201.398000,123.923000,201.377000,123.914000C201.357000,123.906000,201.336000,123.902000,201.314000,123.902000C201.292000,123.902000,201.271000,123.906000,201.251000,123.914000C201.231000,123.923000,201.213000,123.935000,201.197000,123.950000L199.501000,125.645000L199.501000,123.736000C199.501000,123.693000,199.484000,123.651000,199.453000,123.620000C199.422000,123.589000,199.380000,123.572000,199.337000,123.572000C199.293000,123.572000,199.252000,123.590000,199.221000,123.621000C199.191000,123.651000,199.173000,123.693000,199.172000,123.736000L199.172000,125.645000L197.480000,123.940000C197.464000,123.925000,197.446000,123.913000,197.426000,123.904000C197.406000,123.896000,197.384000,123.892000,197.363000,123.892000C197.341000,123.892000,197.319000,123.896000,197.299000,123.904000C197.279000,123.913000,197.261000,123.925000,197.246000,123.940000C197.215000,123.972000,197.198000,124.014000,197.198000,124.057000C197.198000,124.101000,197.215000,124.143000,197.246000,124.174000L198.942000,125.866000L197.032000,125.866000C196.988000,125.867000,196.947000,125.884000,196.916000,125.915000C196.886000,125.946000,196.868000,125.987000,196.867000,126.030000C196.867000,126.074000,196.885000,126.116000,196.915000,126.147000C196.946000,126.178000,196.988000,126.195000,197.032000,126.195000L198.942000,126.195000L197.246000,127.890000C197.215000,127.922000,197.198000,127.963000,197.198000,128.007000C197.198000,128.051000,197.215000,128.093000,197.246000,128.124000C197.278000,128.153000,197.319000,128.170000,197.363000,128.170000C197.406000,128.170000,197.448000,128.153000,197.480000,128.124000L199.172000,126.429000L199.172000,128.335000C199.172000,128.378000,199.190000,128.420000,199.220000,128.451000C199.251000,128.482000,199.293000,128.499000,199.337000,128.499000C199.380000,128.499000,199.422000,128.482000,199.453000,128.451000C199.484000,128.420000,199.501000,128.378000,199.501000,128.335000L199.501000,126.429000L201.197000,128.124000C201.229000,128.153000,201.271000,128.170000,201.314000,128.170000C201.358000,128.170000,201.399000,128.153000,201.431000,128.124000C201.461000,128.093000,201.478000,128.051000,201.478000,128.007000C201.478000,127.963000,201.461000,127.922000,201.431000,127.890000L199.735000,126.195000L201.642000,126.195000C201.685000,126.195000,201.727000,126.178000,201.758000,126.147000C201.789000,126.116000,201.806000,126.074000,201.806000,126.030000C201.804000,125.989000,201.785000,125.949000,201.755000,125.920000C201.724000,125.892000,201.684000,125.876000,201.642000,125.876000Z" fill="rgb(63,147,205)" stroke="none" stroke-width="1"/><path id="e7lw6wkquhnt64" d="M194.728000,125.876000L192.821000,125.876000L194.517000,124.184000C194.547000,124.153000,194.564000,124.111000,194.564000,124.067000C194.564000,124.023000,194.547000,123.982000,194.517000,123.950000C194.502000,123.935000,194.483000,123.923000,194.463000,123.914000C194.443000,123.906000,194.422000,123.902000,194.400000,123.902000C194.378000,123.902000,194.357000,123.906000,194.337000,123.914000C194.317000,123.923000,194.298000,123.935000,194.283000,123.950000L192.587000,125.645000L192.587000,123.736000C192.587000,123.693000,192.570000,123.651000,192.539000,123.620000C192.508000,123.589000,192.466000,123.572000,192.423000,123.572000C192.379000,123.572000,192.338000,123.590000,192.307000,123.621000C192.277000,123.651000,192.259000,123.693000,192.258000,123.736000L192.258000,125.645000L190.566000,123.940000C190.550000,123.925000,190.532000,123.913000,190.512000,123.904000C190.492000,123.896000,190.470000,123.892000,190.449000,123.892000C190.427000,123.892000,190.405000,123.896000,190.385000,123.904000C190.365000,123.913000,190.347000,123.925000,190.332000,123.940000C190.301000,123.972000,190.284000,124.014000,190.284000,124.057000C190.284000,124.101000,190.301000,124.143000,190.332000,124.174000L192.028000,125.866000L190.118000,125.866000C190.074000,125.867000,190.033000,125.884000,190.002000,125.915000C189.972000,125.946000,189.954000,125.987000,189.953000,126.030000C189.953000,126.074000,189.970000,126.116000,190.001000,126.147000C190.032000,126.178000,190.074000,126.195000,190.118000,126.195000L192.028000,126.195000L190.332000,127.890000C190.301000,127.922000,190.284000,127.963000,190.284000,128.007000C190.284000,128.051000,190.301000,128.093000,190.332000,128.124000C190.364000,128.153000,190.405000,128.170000,190.449000,128.170000C190.492000,128.170000,190.534000,128.153000,190.566000,128.124000L192.258000,126.429000L192.258000,128.335000C192.258000,128.378000,192.275000,128.420000,192.306000,128.451000C192.337000,128.482000,192.379000,128.499000,192.423000,128.499000C192.466000,128.499000,192.508000,128.482000,192.539000,128.451000C192.570000,128.420000,192.587000,128.378000,192.587000,128.335000L192.587000,126.429000L194.283000,128.124000C194.315000,128.153000,194.357000,128.170000,194.400000,128.170000C194.443000,128.170000,194.485000,128.153000,194.517000,128.124000C194.547000,128.093000,194.564000,128.051000,194.564000,128.007000C194.564000,127.963000,194.547000,127.922000,194.517000,127.890000L192.821000,126.195000L194.728000,126.195000C194.771000,126.195000,194.813000,126.178000,194.844000,126.147000C194.875000,126.116000,194.892000,126.074000,194.892000,126.030000C194.890000,125.989000,194.871000,125.949000,194.841000,125.920000C194.810000,125.892000,194.770000,125.876000,194.728000,125.876000Z" fill="rgb(63,147,205)" stroke="none" stroke-width="1"/><path id="e7lw6wkquhnt65" d="M187.812000,125.876000L185.905000,125.876000L187.601000,124.184000C187.631000,124.153000,187.648000,124.111000,187.648000,124.067000C187.648000,124.023000,187.631000,123.982000,187.601000,123.950000C187.586000,123.935000,187.567000,123.923000,187.547000,123.914000C187.527000,123.906000,187.506000,123.902000,187.484000,123.902000C187.462000,123.902000,187.441000,123.906000,187.421000,123.914000C187.401000,123.923000,187.382000,123.935000,187.367000,123.950000L185.671000,125.645000L185.671000,123.736000C185.671000,123.693000,185.654000,123.651000,185.623000,123.620000C185.592000,123.589000,185.550000,123.572000,185.507000,123.572000C185.463000,123.572000,185.422000,123.590000,185.391000,123.621000C185.361000,123.651000,185.343000,123.693000,185.342000,123.736000L185.342000,125.645000L183.650000,123.940000C183.634000,123.925000,183.616000,123.913000,183.596000,123.904000C183.576000,123.896000,183.554000,123.892000,183.533000,123.892000C183.511000,123.892000,183.489000,123.896000,183.469000,123.904000C183.449000,123.913000,183.431000,123.925000,183.416000,123.940000C183.385000,123.972000,183.368000,124.014000,183.368000,124.057000C183.368000,124.101000,183.385000,124.143000,183.416000,124.174000L185.112000,125.866000L183.202000,125.866000C183.158000,125.867000,183.117000,125.884000,183.086000,125.915000C183.056000,125.946000,183.038000,125.987000,183.037000,126.030000C183.037000,126.074000,183.054000,126.116000,183.085000,126.147000C183.116000,126.178000,183.158000,126.195000,183.202000,126.195000L185.112000,126.195000L183.416000,127.890000C183.385000,127.922000,183.368000,127.963000,183.368000,128.007000C183.368000,128.051000,183.385000,128.093000,183.416000,128.124000C183.447000,128.153000,183.489000,128.170000,183.533000,128.170000C183.576000,128.170000,183.618000,128.153000,183.650000,128.124000L185.342000,126.429000L185.342000,128.335000C185.342000,128.378000,185.359000,128.420000,185.390000,128.451000C185.421000,128.482000,185.463000,128.499000,185.507000,128.499000C185.550000,128.499000,185.592000,128.482000,185.623000,128.451000C185.654000,128.420000,185.671000,128.378000,185.671000,128.335000L185.671000,126.429000L187.367000,128.124000C187.399000,128.153000,187.441000,128.170000,187.484000,128.170000C187.527000,128.170000,187.569000,128.153000,187.601000,128.124000C187.631000,128.093000,187.648000,128.051000,187.648000,128.007000C187.648000,127.963000,187.631000,127.922000,187.601000,127.890000L185.905000,126.195000L187.812000,126.195000C187.855000,126.195000,187.897000,126.178000,187.928000,126.147000C187.959000,126.116000,187.976000,126.074000,187.976000,126.030000C187.974000,125.989000,187.955000,125.949000,187.925000,125.920000C187.894000,125.892000,187.854000,125.876000,187.812000,125.876000Z" fill="rgb(63,147,205)" stroke="none" stroke-width="1"/></g><g id="e7lw6wkquhnt66" opacity="0.1"><path id="e7lw6wkquhnt67" d="M282.160000,161.016000C281.411000,164.590000,280.376000,168.099000,279.064000,171.507000C279.292000,171.056000,279.483000,170.582000,279.664000,170.111000C280.984000,166.690000,282.025000,163.167000,282.776000,159.578000C283.714000,155.102000,284.073000,150.033000,281.340000,146.362000C280.681000,145.487000,279.835000,144.539000,279.865000,143.512000C279.621000,143.823000,279.432000,144.172000,279.305000,144.546000C278.976000,145.734000,279.983000,146.817000,280.721000,147.804000C283.454000,151.468000,283.095000,156.543000,282.160000,161.016000Z" opacity="0.1" fill="rgb(0,0,0)" stroke="none" stroke-width="1"/><path id="e7lw6wkquhnt68" d="M280.450000,142.113000C280.714000,141.785000,280.911000,141.408000,281.029000,141.004000C281.080000,140.515000,281.067000,140.021000,280.990000,139.536000C280.736000,139.727000,280.546000,139.989000,280.443000,140.290000C280.249000,140.872000,280.473000,141.504000,280.450000,142.113000Z" opacity="0.1" fill="rgb(0,0,0)" stroke="none" stroke-width="1"/></g></g></svg>