<?xml version="1.0" encoding="iso-8859-1"?>
<!-- Generator: Adobe Illustrator 19.0.0, SVG Export Plug-In . SVG Version: 6.00 Build 0)  -->
<svg version="1.1" id="Capa_1" xmlns="http://www.w3.org/2000/svg" xmlns:xlink="http://www.w3.org/1999/xlink" x="0px" y="0px"
	 viewBox="0 0 360 360" style="enable-background:new 0 0 360 360;" xml:space="preserve">
<g id="XMLID_24_">
	<path id="XMLID_25_" d="M345.665,124.551h-51.329V77.834L211.313,0H14.335v360h280v-52.721h51.329V124.551z M315.665,277.279h-210
		V154.551h210V277.279z"/>
	<path id="XMLID_28_" d="M165.891,241.79c3.87-1.53,7.185-3.69,9.945-6.48c2.759-2.79,4.874-6.15,6.345-10.08
		c1.47-3.929,2.205-8.325,2.205-13.185c0-4.379-0.661-8.505-1.98-12.375c-1.32-3.87-3.3-7.245-5.94-10.125
		c-2.641-2.88-5.926-5.16-9.855-6.84c-3.931-1.679-8.505-2.52-13.725-2.52h-23.22v63.9h23.22
		C157.686,244.085,162.021,243.32,165.891,241.79z M142.086,191.075h10.8c3,0,5.684,0.51,8.055,1.53
		c2.37,1.021,4.365,2.461,5.985,4.32c1.62,1.861,2.849,4.081,3.69,6.66c0.84,2.58,1.26,5.4,1.26,8.46c0,3.001-0.42,5.791-1.26,8.37
		c-0.841,2.581-2.056,4.815-3.645,6.705c-1.59,1.89-3.57,3.375-5.94,4.455c-2.371,1.08-5.085,1.62-8.145,1.62h-10.8V191.075z"/>
	<path id="XMLID_31_" d="M232.94,243.005c2.489-0.72,4.68-1.769,6.57-3.15c1.89-1.379,3.375-3.089,4.455-5.13
		c1.08-2.039,1.62-4.41,1.62-7.11c0-4.199-1.066-7.695-3.195-10.485c-2.13-2.79-5.026-4.725-8.685-5.805
		c3-1.319,5.279-3.344,6.84-6.075c1.56-2.73,2.34-5.655,2.34-8.775c0-1.98-0.346-3.945-1.035-5.895
		c-0.69-1.949-1.664-3.69-2.925-5.22c-1.26-1.53-2.79-2.774-4.59-3.735c-1.8-0.959-3.811-1.44-6.03-1.44h-34.2v63.9h30.87
		C227.794,244.085,230.449,243.725,232.94,243.005z M206.525,190.805h17.1c1.98,0,3.645,0.72,4.995,2.16
		c1.35,1.44,2.025,3.391,2.025,5.85c0,2.52-0.736,4.5-2.205,5.94c-1.471,1.44-3.255,2.16-5.355,2.16h-16.56V190.805z
		 M206.525,216.725h19.08c1.08,0,2.07,0.225,2.97,0.675c0.9,0.45,1.679,1.066,2.34,1.845c0.659,0.78,1.184,1.696,1.575,2.745
		c0.39,1.051,0.585,2.146,0.585,3.285c0,1.141-0.211,2.221-0.63,3.24c-0.42,1.021-0.99,1.905-1.71,2.655
		c-0.72,0.751-1.575,1.336-2.565,1.755c-0.99,0.42-2.056,0.63-3.195,0.63h-18.45V216.725z"/>
	<polygon id="XMLID_87_" points="267.724,217.625 293.104,217.625 293.104,207.545 267.724,207.545 267.724,191.075 
		298.234,191.075 298.234,180.185 255.304,180.185 255.304,244.085 267.724,244.085 	"/>
</g>
<g>
</g>
<g>
</g>
<g>
</g>
<g>
</g>
<g>
</g>
<g>
</g>
<g>
</g>
<g>
</g>
<g>
</g>
<g>
</g>
<g>
</g>
<g>
</g>
<g>
</g>
<g>
</g>
<g>
</g>
</svg>
